<?xml version="1.0" standalone="no"?>
<!DOCTYPE svg PUBLIC "-//W3C//DTD SVG 20010904//EN"
 "http://www.w3.org/TR/2001/REC-SVG-20010904/DTD/svg10.dtd">
<svg version="1.0" xmlns="http://www.w3.org/2000/svg"
 width="1280.000000pt" height="720.000000pt" viewBox="0 0 1280.000000 720.000000"
 preserveAspectRatio="xMidYMid meet">
<metadata>
Created by potrace 1.16, written by Peter Selinger 2001-2019
</metadata>
<g transform="translate(0.000000,720.000000) scale(0.100000,-0.100000)"
fill="#000000" stroke="none">
<path d="M9980 7176 c0 -13 6 -27 13 -29 8 -4 8 -6 -2 -6 -30 -2 24 -30 57
-31 21 0 32 -5 32 -14 0 -8 9 -17 19 -21 11 -3 22 -19 26 -35 6 -26 11 -30 41
-30 24 0 34 -5 34 -15 0 -13 9 -15 50 -9 34 5 50 3 50 -5 0 -7 21 -11 55 -11
37 0 76 -9 116 -26 34 -14 68 -23 76 -20 9 4 17 -1 20 -14 5 -20 31 -26 95
-21 27 2 85 -24 100 -44 5 -6 8 -5 8 3 0 6 5 12 10 12 6 0 10 -9 10 -20 0 -11
-7 -20 -15 -20 -8 0 -15 -4 -15 -8 0 -11 54 -9 62 3 4 6 8 2 8 -7 0 -11 8 -18
19 -18 14 0 21 -8 24 -27 3 -23 4 -21 6 9 1 46 30 59 60 29 19 -19 45 -26 79
-22 6 1 12 -3 12 -8 0 -15 46 -58 70 -66 12 -4 26 -2 33 3 7 6 26 9 44 8 17
-1 30 1 28 4 -2 3 13 17 33 30 20 14 45 35 55 48 19 23 47 30 47 11 0 -6 -25
-49 -56 -95 -30 -46 -53 -88 -49 -94 9 -15 144 -1 173 18 13 8 41 16 62 18 22
2 49 8 60 14 12 6 24 9 27 7 2 -3 -5 -11 -18 -18 -12 -6 -48 -36 -78 -65 -31
-30 -62 -54 -70 -54 -8 0 -30 -12 -50 -27 -67 -52 -81 -56 -106 -33 l-22 21
-50 -58 c-43 -49 -69 -81 -131 -158 -5 -6 -8 -21 -7 -33 1 -12 -7 -29 -17 -39
-10 -9 -18 -23 -18 -32 0 -11 7 -8 25 11 14 15 25 31 25 36 0 15 78 42 83 28
8 -21 -12 -56 -33 -56 -15 0 -26 -11 -36 -35 -8 -19 -21 -35 -29 -35 -8 0 -15
-6 -15 -14 0 -7 -3 -28 -6 -45 -6 -27 -4 -31 15 -31 11 0 21 4 21 8 0 5 18 15
40 22 22 7 40 17 40 22 0 4 6 8 13 8 8 0 36 11 63 25 27 14 58 25 69 25 29 0
135 53 135 68 0 6 8 12 18 12 13 0 14 2 4 9 -33 21 65 61 151 61 31 0 57 4 57
10 0 5 11 20 25 34 28 28 69 100 78 138 9 34 64 85 78 71 8 -8 6 -19 -4 -39
-13 -26 -13 -33 -1 -57 8 -15 22 -28 32 -28 26 -2 46 2 52 10 3 5 24 11 48 15
31 5 47 2 58 -8 17 -18 18 -50 2 -68 -17 -18 -21 -38 -9 -52 5 -6 12 -38 16
-70 l8 -60 -31 25 c-17 13 -31 30 -31 37 -1 6 -8 12 -16 12 -8 0 -15 5 -15 10
0 13 -37 13 -53 0 -7 -6 -21 -17 -32 -24 -18 -13 -19 -18 -7 -60 17 -65 16
-142 -2 -149 -8 -3 -33 1 -55 10 -23 9 -43 14 -45 12 -2 -2 -23 -44 -46 -94
l-41 -90 -15 34 c-8 18 -14 44 -14 57 0 13 -5 24 -11 24 -16 0 -53 -21 -66
-39 -11 -14 -13 -14 -14 4 0 11 0 37 1 58 2 45 -17 49 -33 7 -11 -30 -47 -43
-47 -17 0 6 -10 25 -23 40 -30 38 -53 28 -62 -26 -9 -51 -23 -80 -35 -72 -6 3
-23 -9 -39 -27 -32 -37 -65 -45 -88 -22 -16 16 -45 18 -71 5 -9 -5 -32 -15
-49 -21 -21 -8 -33 -19 -33 -31 0 -11 -5 -19 -10 -19 -6 0 -20 -11 -32 -25
-19 -22 -27 -24 -67 -19 -44 5 -47 4 -68 -28 -13 -19 -23 -38 -23 -44 0 -5
-21 -21 -45 -36 -25 -15 -50 -39 -56 -55 -13 -36 -4 -73 20 -73 10 0 23 -12
30 -26 7 -17 17 -24 26 -20 18 6 45 -2 45 -15 0 -12 -47 -11 -55 1 -4 6 -12 7
-18 3 -6 -4 -27 -9 -46 -12 -26 -5 -38 -14 -50 -38 -9 -18 -25 -33 -35 -35
-30 -5 -31 -26 -2 -34 17 -4 37 1 61 15 59 34 75 22 31 -22 -22 -22 -23 -27
-10 -45 9 -13 11 -23 4 -27 -6 -4 -7 -11 -4 -17 4 -6 -12 -7 -48 -3 -39 5 -65
3 -92 -9 -32 -13 -37 -19 -34 -43 3 -27 5 -28 58 -28 30 0 69 3 87 7 25 6 36
2 58 -17 23 -22 35 -25 106 -25 65 0 82 -3 99 -20 22 -22 40 -18 110 26 19 12
52 27 73 34 20 6 37 15 37 19 0 4 17 13 38 20 52 16 65 29 96 89 15 29 41 69
59 90 18 20 47 59 64 85 l32 49 -20 31 c-10 18 -19 39 -19 48 0 16 60 79 76
79 5 0 28 9 49 20 l40 20 8 -23 c6 -19 13 -23 32 -19 21 4 23 1 17 -21 -4 -14
-21 -40 -37 -59 -31 -34 -63 -93 -70 -128 -3 -16 -1 -18 13 -11 10 5 30 21 44
36 26 26 46 30 111 23 7 -1 38 11 69 25 96 46 119 27 48 -37 -44 -40 -83 -60
-145 -76 -22 -5 -53 -21 -70 -34 -25 -20 -28 -26 -16 -40 19 -23 55 -20 101 9
48 30 86 33 93 5 3 -10 0 -25 -7 -33 -13 -17 -69 -37 -101 -37 -28 0 -37 -28
-24 -73 11 -37 2 -97 -15 -97 -32 -1 -57 -37 -62 -90 -4 -30 -13 -60 -21 -67
-8 -6 -14 -15 -13 -19 4 -20 -18 -12 -28 11 -9 20 -17 24 -36 19 -22 -5 -26
-1 -37 35 -16 52 -30 64 -68 56 -33 -7 -81 -70 -102 -133 -14 -42 -35 -67 -65
-76 -15 -5 -24 -18 -28 -41 -4 -19 -13 -38 -20 -42 -7 -5 -27 -29 -45 -55 -21
-31 -39 -48 -53 -48 -18 0 -19 4 -14 38 4 20 9 72 12 116 5 73 4 78 -13 71
-10 -4 -37 -12 -61 -18 -38 -9 -43 -14 -53 -51 -36 -135 -57 -162 -119 -152
-32 5 -40 3 -40 -9 0 -16 -25 -60 -47 -83 -7 -7 -16 -25 -19 -40 -17 -74 -36
-130 -54 -157 -24 -36 -25 -58 -4 -90 17 -26 49 -34 56 -14 7 20 100 50 115
37 24 -20 13 -37 -37 -59 -30 -13 -52 -30 -56 -42 -7 -22 -41 -53 -81 -74 -19
-10 -23 -9 -23 3 0 8 -4 12 -10 9 -5 -3 -10 0 -10 7 0 7 -11 -3 -23 -23 -36
-58 -49 -72 -58 -58 -4 8 -13 1 -23 -19 -9 -18 -16 -34 -15 -38 1 -3 -9 -20
-22 -37 -13 -18 -24 -34 -25 -37 -4 -21 -18 -40 -30 -40 -10 0 -13 8 -10 23 3
12 8 40 11 62 9 57 35 135 46 135 5 0 9 7 9 16 0 12 -11 6 -40 -20 -22 -20
-45 -36 -50 -36 -20 0 -9 23 23 52 17 16 40 36 50 45 9 9 17 27 17 40 l0 24
-30 -22 c-16 -13 -42 -40 -56 -61 -29 -41 -39 -46 -47 -25 -9 23 28 89 77 141
25 27 46 54 46 60 0 6 9 19 20 29 11 9 20 24 20 32 0 25 35 56 53 49 10 -3 17
-12 17 -20 0 -21 15 -17 28 9 12 21 41 147 42 176 0 11 -3 11 -15 1 -8 -7 -15
-17 -15 -22 0 -11 -38 -53 -43 -47 -2 2 -8 12 -14 22 -8 15 -12 12 -30 -25
-12 -24 -28 -56 -35 -73 -12 -29 -13 -28 -16 33 -2 52 -6 62 -21 62 -19 0 -61
-39 -61 -58 0 -17 -20 -25 -34 -13 -10 8 -16 4 -26 -15 -16 -28 -46 -49 -54
-36 -3 5 7 43 22 86 25 72 26 78 10 87 -20 11 -25 39 -7 39 5 0 7 6 4 13 -4 6
6 -2 22 -19 30 -33 54 -35 46 -4 -3 11 -1 20 5 20 10 0 20 38 25 99 2 30 -2
37 -37 59 -67 42 -104 54 -127 41 -12 -6 -36 -13 -55 -15 -32 -4 -34 -2 -34
25 0 17 6 31 15 35 14 5 14 8 -1 31 -13 20 -14 28 -4 40 17 20 36 19 60 -5 28
-28 26 -50 -6 -50 -19 0 -25 -4 -22 -17 3 -15 12 -17 48 -15 25 1 55 8 67 14
17 9 27 7 47 -6 35 -22 51 -20 64 8 9 20 7 27 -8 41 -10 9 -31 20 -46 24 -42
11 -45 41 -4 41 17 0 40 -5 51 -10 14 -8 19 -7 19 3 0 21 -33 46 -71 53 -19 4
-37 12 -41 18 -4 6 -40 11 -83 12 -74 0 -86 5 -98 38 -7 20 -64 -28 -91 -75
-27 -49 -58 -75 -76 -64 -5 3 -18 2 -27 -4 -13 -7 -23 -5 -35 6 -12 11 -21 12
-36 4 -15 -8 -23 -6 -37 9 -14 15 -21 17 -31 9 -11 -9 -15 -7 -20 5 -3 9 -12
16 -20 16 -23 0 -16 20 10 29 17 7 25 20 29 47 4 21 2 43 -3 49 -6 8 2 15 25
24 38 13 44 25 19 35 -30 12 -53 6 -85 -21 -24 -21 -34 -24 -37 -14 -3 10 -10
7 -23 -10 l-19 -24 -20 25 c-17 21 -21 23 -30 10 -5 -8 -10 -21 -10 -27 0 -8
-14 -13 -35 -13 -22 0 -43 -8 -56 -21 -17 -17 -23 -19 -30 -8 -7 11 -12 12
-26 1 -10 -6 -28 -16 -40 -22 -18 -8 -21 -15 -16 -44 4 -28 2 -35 -16 -41 -11
-3 -28 -16 -38 -28 -11 -13 -27 -21 -39 -19 -14 2 -27 -6 -38 -22 -9 -14 -25
-30 -36 -36 -17 -9 -18 -8 -10 17 11 32 9 89 -3 86 -16 -4 -53 -39 -75 -70
-27 -38 -42 -42 -42 -13 0 21 -15 27 -25 10 -3 -5 -15 -10 -25 -10 -10 0 -28
-13 -40 -30 -12 -16 -29 -30 -39 -30 -9 0 -22 -5 -29 -12 -9 -9 -12 -2 -12 33
1 37 6 48 32 69 82 66 85 70 60 63 -12 -3 -25 -9 -27 -14 -3 -4 -12 -5 -21 -2
-13 5 -11 10 8 30 13 14 18 27 13 31 -6 4 -11 17 -12 30 -3 24 -60 81 -82 82
-7 0 -11 6 -7 15 4 11 -1 15 -18 15 -13 0 -35 9 -49 20 -14 11 -44 22 -68 24
-44 4 -62 22 -38 37 9 5 30 -1 58 -16 66 -38 109 -29 61 12 -13 12 -18 24 -14
40 6 24 -5 30 -22 13 -6 -6 -18 -8 -28 -4 -15 6 -14 9 11 25 l28 19 -31 0
c-18 0 -38 -8 -48 -19 -10 -11 -24 -17 -31 -15 -8 3 -19 -6 -27 -23 -10 -20
-22 -29 -47 -33 -43 -6 -56 -33 -15 -30 57 4 58 -1 10 -28 -59 -32 -68 -49
-29 -54 17 -2 29 -10 31 -21 5 -24 -26 -57 -53 -57 -11 0 -30 -7 -41 -15 -18
-15 -16 -16 21 -11 22 3 64 8 94 12 l54 6 -6 -36 c-7 -42 -49 -99 -95 -128
-18 -11 -31 -26 -28 -33 6 -16 -21 -55 -38 -55 -8 0 -19 -7 -26 -15 -7 -9 -15
-13 -18 -10 -3 3 -21 -9 -39 -27 -18 -17 -33 -29 -33 -26 0 14 24 74 33 79 13
9 -11 51 -26 46 -7 -2 -13 -9 -13 -15 -3 -25 -5 -27 -17 -12 -18 24 -122 46
-141 31 -13 -11 -21 -9 -46 9 -24 17 -39 21 -68 16 l-37 -6 24 20 c28 24 67
26 79 4 7 -12 14 -14 28 -6 10 5 25 7 32 5 22 -8 13 26 -10 38 -13 7 -29 20
-36 31 -7 10 -24 18 -37 18 -15 0 -26 7 -30 20 -7 21 -30 27 -40 10 -11 -18
-25 -10 -25 15 0 25 6 29 48 25 33 -2 92 28 92 47 0 13 8 15 45 10 l45 -7 -2
33 c-3 30 -1 32 30 29 22 -1 32 2 32 12 0 7 15 17 33 20 28 6 30 8 14 17 -11
7 -32 8 -50 4 -18 -4 -60 -7 -94 -7 -46 0 -63 -3 -67 -14 -3 -9 -14 -14 -23
-13 -40 4 -55 -1 -49 -16 3 -8 1 -15 -4 -15 -5 0 -15 7 -24 15 -8 8 -21 15
-29 15 -24 0 -26 11 -6 33 17 18 17 22 4 30 -25 13 -17 33 20 53 42 22 43 31
10 46 -23 10 -24 13 -9 29 9 10 30 21 47 25 26 5 29 8 15 18 -13 10 -10 15 23
41 21 16 37 30 35 32 -11 11 -89 -20 -93 -37 -6 -21 -35 -31 -72 -24 -19 4
-32 0 -45 -15 -10 -11 -34 -23 -52 -27 -37 -7 -47 -34 -14 -34 12 0 20 -7 20
-16 0 -9 -5 -13 -12 -10 -7 3 -21 9 -30 12 -10 3 -20 14 -23 24 -6 19 13 70
27 70 5 0 6 11 4 25 -5 25 7 34 19 15 9 -15 85 -4 103 14 20 20 13 26 -32 29
-21 2 -42 11 -50 22 -13 18 -15 18 -51 -9 -20 -15 -39 -25 -43 -22 -12 13 14
61 40 74 17 8 25 18 21 27 -9 25 -30 17 -62 -22 -36 -44 -39 -65 -11 -84 14
-10 18 -21 14 -36 -5 -19 -11 -21 -38 -16 -17 3 -35 9 -41 13 -23 16 -56 18
-70 3 -14 -13 -12 -19 16 -51 35 -40 72 -53 107 -38 12 5 25 6 29 3 10 -10
-15 -57 -30 -57 -8 0 -19 -12 -25 -26 -7 -14 -16 -23 -21 -19 -5 3 -16 -4 -24
-15 -11 -16 -21 -19 -45 -14 -18 4 -32 3 -32 -2 0 -14 51 -34 84 -34 17 0 37
-4 45 -9 11 -7 9 -11 -8 -20 -24 -13 -29 -56 -7 -64 9 -4 16 -23 18 -49 2 -30
8 -43 18 -43 9 0 20 -19 28 -47 13 -49 37 -64 49 -31 5 14 7 13 14 -5 5 -14
14 -20 24 -16 11 5 15 -1 15 -19 0 -42 21 -77 49 -82 76 -15 118 -28 140 -43
13 -9 30 -21 38 -27 10 -7 16 -6 23 5 10 16 67 23 76 8 3 -5 11 -2 18 7 17 24
32 2 40 -57 8 -56 16 -80 30 -90 19 -13 25 -9 46 31 24 48 55 71 93 71 l29 0
-31 -31 c-17 -17 -31 -36 -31 -42 -1 -20 -90 -104 -90 -86 0 15 -28 43 -91 92
-13 10 -34 16 -46 14 -13 -2 -28 2 -34 9 -16 19 -27 17 -34 -6 -5 -16 -10 -18
-25 -10 -28 15 -50 12 -44 -5 9 -22 -19 -19 -49 6 l-27 20 -16 -40 c-16 -40
-36 -52 -50 -30 -3 6 -18 9 -33 6 -15 -3 -33 -2 -41 3 -11 7 -24 0 -47 -22
-26 -25 -35 -29 -47 -19 -27 22 -110 3 -150 -35 -36 -34 -36 -35 -21 -64 9
-17 38 -47 64 -68 27 -20 54 -47 60 -59 9 -20 7 -25 -20 -38 -22 -12 -29 -22
-27 -38 2 -13 -2 -21 -9 -20 -19 4 -36 -92 -28 -163 6 -57 4 -69 -12 -87 -23
-26 -47 -96 -42 -122 4 -19 34 -32 141 -61 61 -16 78 -37 58 -74 -10 -18 -20
-20 -103 -20 -118 1 -376 -14 -403 -24 -19 -7 -22 -3 -26 31 -7 50 4 69 52 93
26 13 40 27 40 40 0 11 4 20 8 20 13 0 41 87 35 109 -6 23 -33 17 -33 -8 0
-14 -2 -14 -10 -1 -16 25 -11 58 19 124 16 35 26 68 22 73 -10 17 -49 33 -63
28 -8 -3 -20 8 -30 27 -60 122 -65 137 -71 205 -3 42 -2 75 4 78 5 4 7 11 4
16 -4 5 0 9 8 9 16 0 71 75 79 107 5 17 1 24 -15 29 -12 4 -34 20 -49 36 -32
34 -52 28 -46 -13 5 -30 -6 -40 -16 -14 -3 8 -11 15 -18 15 -14 0 -51 52 -62
88 -9 26 -26 29 -26 4 0 -10 -13 -33 -30 -52 -16 -19 -29 -43 -30 -52 0 -10
-11 -25 -25 -34 -15 -10 -25 -26 -25 -40 0 -32 -14 -37 -43 -14 -14 11 -32 20
-41 20 -9 0 -16 5 -16 10 0 6 -6 10 -14 10 -7 0 -19 14 -26 30 -11 27 -40 42
-40 21 0 -23 -32 -16 -69 16 -23 19 -43 34 -45 32 -2 -2 -9 -14 -15 -26 -14
-28 -31 -30 -38 -4 -3 11 -13 21 -24 24 -19 5 -26 -7 -10 -17 18 -12 18 -67 0
-89 -16 -19 -20 -20 -29 -7 -9 13 -12 13 -24 -3 -10 -13 -23 -16 -54 -12 -30
3 -42 1 -46 -10 -8 -23 -20 -18 -35 16 -11 25 -11 38 -1 74 10 36 21 50 60 75
36 23 55 29 74 24 23 -5 28 -2 37 25 6 17 15 28 21 25 5 -3 18 2 29 12 19 17
21 17 30 2 5 -8 21 -19 36 -23 15 -3 40 -16 55 -27 19 -13 38 -18 55 -15 15 3
37 -2 50 -10 22 -14 23 -14 23 6 0 22 14 28 25 11 9 -14 25 -12 25 3 0 7 -22
23 -48 35 -32 15 -60 37 -80 66 -17 24 -46 50 -64 59 -18 9 -26 17 -18 17 12
1 11 3 -3 14 -25 19 -7 27 34 16 42 -12 39 -13 39 6 0 8 14 29 30 46 37 37 37
46 3 54 -55 13 -93 43 -93 75 0 22 -5 29 -20 29 -14 0 -20 7 -20 21 0 15 4 19
16 15 61 -23 76 -18 48 19 -11 15 -29 20 -84 23 -54 3 -70 8 -70 19 0 13 -2
13 -17 2 -15 -12 -16 -12 -10 4 4 10 7 21 7 23 0 10 25 3 42 -13 17 -15 21
-15 54 0 41 20 40 37 -2 50 -16 6 -41 18 -56 28 -14 11 -31 19 -37 19 -17 0
-13 26 9 51 l20 24 19 -23 c11 -13 18 -28 15 -35 -7 -18 33 -39 54 -29 9 5 23
7 31 4 10 -3 13 1 9 16 -4 15 0 22 18 26 13 4 24 13 24 21 0 20 -39 19 -62 -2
-14 -13 -25 -14 -45 -7 -30 10 -43 34 -19 34 9 0 16 5 16 10 0 6 -7 10 -15 10
-8 0 -15 5 -15 10 0 6 11 10 25 10 19 0 25 5 25 21 0 12 8 23 19 26 11 3 22
14 25 26 6 23 -4 40 -11 19 -3 -7 -16 -18 -30 -23 -14 -5 -27 -18 -30 -29 -3
-11 -10 -20 -15 -20 -21 0 -68 -42 -68 -61 0 -12 -10 -23 -25 -29 -21 -8 -24
-14 -18 -41 5 -26 1 -35 -21 -53 -28 -21 -28 -56 -1 -56 7 0 18 -6 24 -14 16
-20 -5 -52 -41 -65 -16 -6 -28 -16 -28 -23 0 -25 -33 21 -34 48 -1 23 -6 27
-28 28 -17 1 -28 -4 -28 -11 0 -7 -7 -13 -15 -13 -8 0 -15 5 -15 10 0 17 -27
11 -34 -7 -3 -10 -9 -24 -12 -32 -5 -11 0 -13 23 -8 41 8 62 -6 45 -33 -10
-17 -10 -20 3 -20 8 0 25 -12 38 -26 21 -22 28 -24 45 -15 36 19 78 14 89 -11
l10 -23 7 23 c4 12 15 22 24 22 9 0 28 9 42 20 31 24 59 25 76 3 18 -24 17
-32 -3 -27 -10 3 -31 -7 -48 -20 l-30 -25 28 -1 c16 0 26 -4 22 -10 -4 -6 6
-10 24 -10 23 0 29 4 25 15 -4 8 -2 15 3 15 13 0 48 -40 37 -42 -12 -2 -27 -5
-36 -8 -5 -1 -11 -3 -15 -5 -5 -1 -16 -5 -26 -10 -24 -10 -68 10 -74 35 -6 23
-14 25 -30 9 -8 -8 -13 -8 -18 0 -13 22 -35 -16 -31 -51 3 -19 0 -41 -5 -49
-6 -10 -9 -10 -9 -1 0 6 -11 12 -24 12 -19 0 -28 -8 -37 -35 -11 -28 -18 -35
-40 -35 -35 0 -46 -17 -23 -35 11 -8 15 -15 9 -15 -5 -1 -29 -3 -52 -5 -24 -2
-45 1 -48 5 -7 11 -34 2 -58 -19 -15 -12 -20 -13 -26 -2 -7 10 -16 8 -45 -11
-40 -26 -42 -30 -22 -47 10 -9 16 -8 26 4 21 25 41 19 34 -10 -6 -24 -5 -25
21 -15 14 5 31 10 36 10 12 0 12 -37 -1 -45 -5 -3 -10 -14 -10 -23 0 -16 -41
-42 -66 -42 -7 0 -17 -6 -21 -13 -4 -7 -22 -19 -40 -26 -20 -8 -38 -26 -48
-48 -9 -19 -20 -31 -24 -27 -3 5 -17 22 -31 38 l-25 29 28 -7 c26 -6 28 -5 22
16 -4 13 -13 28 -21 34 -15 12 -20 39 -5 30 4 -3 8 9 7 27 -1 23 -12 43 -42
73 -44 44 -63 77 -39 68 7 -3 15 -14 18 -25 6 -22 27 -26 27 -5 0 17 -48 88
-66 99 -15 9 -19 27 -6 27 5 0 18 -9 30 -20 37 -35 46 -16 12 27 -11 14 -20
39 -20 54 0 28 -4 31 -45 33 -14 1 -21 9 -23 29 -4 32 6 34 41 7 19 -15 28
-17 33 -8 4 7 -1 17 -12 24 -46 31 -59 43 -52 49 3 4 15 2 25 -3 35 -18 73
-23 73 -10 -1 19 -71 60 -93 54 -20 -5 -57 21 -57 41 0 9 8 11 24 7 16 -4 25
-1 29 10 4 9 16 16 28 16 36 0 15 25 -24 28 -24 2 -37 8 -37 18 0 8 6 14 14
14 7 0 19 6 25 14 9 11 7 15 -11 20 -37 9 -46 7 -68 -16 -19 -21 -20 -24 -4
-35 16 -11 14 -16 -17 -48 -19 -19 -42 -35 -51 -35 -9 0 -20 -4 -23 -10 -3 -5
3 -10 14 -10 11 0 24 -8 29 -17 9 -15 11 -14 23 5 23 36 31 25 26 -33 -4 -49
-2 -56 19 -70 25 -16 33 -41 11 -32 -9 3 -29 -16 -53 -49 -22 -30 -50 -57 -63
-61 -13 -3 -32 -13 -41 -22 -10 -9 -30 -24 -44 -34 -14 -10 -26 -24 -26 -32 0
-11 11 -9 46 10 35 19 51 22 65 14 35 -18 21 -48 -51 -118 -86 -83 -94 -112
-22 -75 17 8 42 16 54 17 13 0 36 11 51 24 57 46 64 -2 11 -70 -38 -48 -54
-58 -54 -32 0 24 -38 18 -46 -7 -4 -13 -7 -28 -6 -34 1 -6 -15 -27 -36 -45
-21 -19 -42 -43 -46 -54 -9 -21 -10 -18 -20 27 -3 15 -13 34 -22 42 -14 14
-13 17 10 28 27 12 33 23 17 32 -5 4 -12 0 -14 -6 -3 -7 -6 -1 -6 14 -1 15 -6
30 -12 34 -6 3 -8 17 -5 29 12 48 -13 77 -84 100 -25 7 -80 50 -80 61 0 15
-21 15 -31 1 -9 -13 -101 32 -96 46 2 7 21 12 45 11 22 0 39 4 36 8 -6 9 31 3
76 -12 45 -15 100 -21 100 -11 0 23 -124 91 -152 83 -5 -1 -8 2 -8 6 0 5 -20
19 -45 31 -25 12 -45 26 -45 31 0 19 94 27 106 8 5 -8 10 -7 18 4 6 8 21 20
34 27 12 6 22 15 22 20 0 12 -95 40 -118 34 -30 -7 -62 14 -62 42 0 18 5 25
20 25 11 0 20 -4 20 -10 0 -18 25 -11 39 11 12 20 10 24 -15 44 l-28 22 29 16
c17 8 39 25 50 37 l20 22 -35 -7 c-99 -20 -131 -37 -95 -51 22 -9 18 -34 -5
-34 -17 0 -20 7 -20 40 0 34 4 42 25 50 30 11 34 25 5 17 -28 -7 -25 12 4 23
33 12 40 27 16 33 -15 4 -18 10 -13 24 6 16 5 16 -10 4 -15 -12 -17 -11 -17 8
0 12 -6 21 -15 21 -16 0 -21 -45 -6 -54 5 -4 0 -25 -11 -47 -15 -32 -17 -44
-7 -49 19 -12 4 -91 -21 -112 -12 -10 -27 -15 -33 -11 -5 3 -7 1 -4 -4 4 -6
-4 -18 -18 -27 -27 -18 -34 -56 -10 -56 9 0 33 11 55 25 42 27 56 20 48 -21
-3 -16 -16 -19 -103 -25 -32 -2 -105 -30 -105 -40 0 -16 62 -10 82 8 21 19 24
17 33 -19 6 -23 3 -28 -19 -34 -14 -3 -30 -12 -37 -20 -9 -11 -7 -14 12 -14
13 0 30 9 37 20 7 11 21 20 33 20 11 0 29 5 40 10 15 9 21 7 25 -5 8 -20 -13
-45 -37 -45 -11 0 -19 -3 -19 -8 0 -16 -41 -33 -54 -23 -19 16 -125 -21 -133
-46 -3 -9 6 -10 34 -6 66 11 78 9 81 -12 1 -14 -16 -34 -62 -68 -67 -50 -103
-102 -85 -123 6 -8 6 -14 1 -18 -13 -8 -22 -56 -11 -56 14 0 40 58 29 65 -17
11 8 43 39 50 16 3 39 17 51 31 13 13 28 24 34 24 6 0 28 27 50 60 40 62 54
70 80 45 19 -19 10 -45 -14 -45 -34 0 -51 -12 -69 -51 -18 -37 -13 -58 9 -44
6 3 10 0 10 -7 0 -16 -68 -61 -80 -53 -6 4 -10 2 -10 -3 0 -4 -29 -33 -64 -64
-36 -31 -62 -58 -59 -62 3 -3 -1 -14 -9 -23 -8 -10 -18 -34 -22 -53 -6 -34 -6
-34 36 21 49 63 129 119 171 119 17 0 30 7 34 18 10 28 35 52 54 52 12 0 19
-11 24 -40 7 -43 2 -60 -21 -60 -8 0 -14 -5 -14 -12 0 -6 -9 -3 -21 8 -17 16
-22 16 -29 4 -6 -8 -10 -19 -10 -23 0 -9 -70 -42 -83 -39 -4 1 -15 -6 -26 -16
-10 -9 -27 -24 -38 -32 -29 -23 -63 -76 -63 -99 0 -28 8 -27 42 9 15 17 33 30
39 30 6 0 19 10 29 22 15 20 21 21 44 10 29 -13 35 -32 10 -32 -8 0 -12 5 -9
10 11 17 -14 11 -36 -9 -11 -11 -34 -32 -51 -48 -17 -15 -39 -45 -48 -67 -17
-37 -18 -37 -25 -15 -4 13 -26 43 -49 66 -22 22 -46 47 -53 55 -27 31 -62 58
-75 58 -8 0 -19 15 -26 33 -18 50 -16 60 13 53 31 -8 31 -4 0 30 -14 15 -23
29 -21 31 7 7 86 -49 81 -57 -2 -4 7 -5 21 -2 17 3 33 -3 49 -18 15 -14 30
-20 40 -16 14 5 13 12 -13 46 -16 22 -53 66 -82 97 -53 57 -53 57 -68 35 -16
-25 -32 -29 -32 -8 0 8 -8 17 -18 20 -11 4 -29 17 -42 31 -19 20 -21 27 -10
40 7 8 10 24 7 35 -5 20 7 28 18 11 3 -5 18 -12 34 -16 16 -3 37 -15 47 -26 9
-10 27 -19 40 -19 13 0 35 -5 49 -12 14 -6 28 -8 32 -5 10 11 -34 54 -117 116
-53 40 -70 57 -57 59 19 4 92 -29 146 -65 40 -28 53 -29 44 -5 -21 57 -111
142 -150 142 -19 0 -41 22 -36 36 2 6 -3 17 -12 24 -10 8 -15 9 -15 1 0 -6 -9
-11 -19 -11 -11 0 -23 -4 -26 -10 -3 -5 2 -10 13 -10 27 0 23 -40 -8 -66 -45
-38 -68 -46 -78 -28 -6 10 -19 14 -37 12 -23 -2 -31 -10 -37 -35 -6 -23 -15
-33 -28 -33 -10 0 -22 -5 -25 -11 -4 -6 -13 -8 -21 -5 -8 3 -14 -1 -14 -10 0
-25 -65 -83 -88 -78 -15 4 -24 -3 -39 -33 -11 -21 -18 -43 -16 -49 6 -18 -44
-64 -71 -64 -20 0 -30 -9 -43 -37 -23 -48 -43 -54 -43 -14 0 18 -9 38 -22 51
l-22 21 -9 -23 c-5 -13 -7 -44 -4 -70 2 -28 0 -49 -6 -51 -7 -2 -2 -18 10 -38
12 -19 19 -40 15 -46 -10 -17 -49 27 -91 100 -18 32 -38 60 -45 63 -6 2 -12
16 -12 30 -1 14 -9 33 -18 43 -18 20 -21 47 -6 56 5 3 27 -3 48 -14 37 -19 39
-19 49 -1 10 15 4 24 -40 64 -28 25 -59 46 -67 46 -21 0 -57 26 -48 35 3 4 15
2 26 -4 15 -8 21 -7 25 3 5 11 14 11 58 0 30 -8 63 -14 76 -14 35 0 36 18 1
25 -18 4 -48 16 -66 26 -18 10 -47 19 -64 19 -17 0 -40 8 -51 17 -18 17 -19
17 -28 0 -6 -10 -22 -17 -37 -17 -16 0 -34 -6 -40 -12 -10 -10 -15 -10 -22 2
-11 17 -26 5 -32 -24 -2 -14 -20 -24 -66 -36 -53 -15 -72 -26 -113 -69 -41
-43 -55 -51 -86 -52 -74 -2 -97 -12 -122 -52 -12 -18 -32 -47 -45 -65 l-25
-33 38 -35 c21 -19 42 -34 47 -34 5 0 20 17 33 39 21 33 81 83 81 67 0 -3 26
6 57 20 32 13 66 24 77 22 23 -4 34 -28 12 -28 -8 0 -25 -13 -38 -30 -12 -16
-29 -30 -38 -30 -18 0 -60 -40 -60 -57 0 -6 -16 -18 -35 -27 -37 -18 -55 -42
-55 -76 0 -20 -1 -21 -24 -3 -13 10 -32 31 -43 46 -10 15 -28 30 -41 33 -15 4
-22 14 -22 29 0 21 -4 23 -53 21 -47 -1 -52 1 -55 22 -3 17 -10 22 -34 22 -29
0 -30 2 -24 31 3 17 6 35 6 40 0 5 8 9 18 9 33 0 43 21 23 49 -20 29 -36 71
-26 71 3 0 15 -5 26 -10 15 -8 22 -6 36 10 18 21 43 26 59 11 5 -5 24 -12 42
-16 25 -5 32 -3 32 9 0 9 -9 25 -20 36 -11 11 -20 25 -20 31 0 5 -4 8 -9 4 -5
-3 -12 -1 -16 5 -9 15 -68 39 -89 37 -10 -1 -21 4 -24 12 -3 10 2 12 20 8 22
-6 25 -4 21 16 -2 12 5 33 16 47 16 20 22 23 32 13 20 -20 39 -15 39 8 0 19 5
20 65 17 36 -1 65 0 65 4 0 4 -12 15 -27 25 -19 13 -45 17 -100 16 -40 0 -73
3 -73 8 0 5 -3 8 -8 7 -4 -1 -22 13 -40 31 -23 23 -32 41 -30 56 3 13 -5 34
-18 50 l-23 28 -9 -34 c-7 -26 -13 -33 -28 -31 -10 2 -38 5 -61 7 -22 1 -46 6
-52 10 -7 4 -18 2 -24 -4 -7 -5 -22 -10 -32 -9 -11 0 -38 -2 -60 -6 l-40 -7
25 20 c14 11 32 21 41 21 9 0 22 7 29 15 7 8 23 15 36 15 31 0 38 15 35 76 -3
67 13 78 50 33 22 -28 25 -36 13 -42 -16 -9 -19 -37 -4 -37 5 0 13 7 18 16 7
13 13 13 38 3 16 -7 42 -22 57 -32 22 -15 31 -16 42 -7 8 6 24 9 35 5 16 -5
26 -1 36 14 10 14 26 21 46 21 27 0 29 2 17 16 -10 12 -23 14 -53 10 -117 -18
-126 -18 -126 -3 0 8 -7 20 -16 27 -9 8 -14 25 -12 44 3 32 14 36 51 21 13 -5
17 -2 17 14 0 16 6 21 27 21 14 0 23 3 20 7 -4 3 8 17 25 30 29 21 30 23 10
23 -13 0 -48 -9 -79 -20 -69 -24 -73 -24 -73 -5 0 18 -21 20 -38 3 -9 -9 -12
-7 -12 10 0 14 -9 27 -25 34 -14 6 -25 15 -25 20 0 18 -18 7 -24 -14 -5 -22
-6 -22 -23 -5 -16 16 -16 19 -1 45 12 20 14 32 7 39 -6 6 -9 23 -7 39 2 23 9
30 31 32 15 2 27 9 27 17 0 7 7 20 15 28 17 18 31 67 18 67 -6 0 -18 -9 -28
-20 -10 -11 -24 -20 -32 -20 -15 0 -18 26 -4 34 5 3 14 20 20 37 8 25 8 30 -3
26 -8 -3 -17 11 -25 44 l-13 50 -24 -26 c-18 -20 -22 -33 -18 -52 6 -23 4 -25
-14 -21 -19 5 -20 4 -11 -14 6 -11 8 -26 5 -35 -4 -9 5 -25 23 -40 25 -22 28
-29 19 -49 -6 -13 -16 -24 -21 -24 -6 0 -7 3 -4 7 9 8 -32 53 -49 53 -6 0 -17
7 -24 15 -7 8 -16 15 -21 15 -15 0 -10 -38 6 -44 9 -3 15 -18 15 -36 0 -51 17
-72 53 -68 l32 3 2 -70 c1 -38 3 -86 4 -105 3 -77 -1 -100 -16 -100 -8 0 -15
5 -15 10 0 15 -46 12 -60 -5 -7 -8 -28 -17 -49 -21 -20 -4 -39 -11 -42 -17 -4
-5 -19 0 -37 13 -21 16 -38 21 -55 16 -17 -4 -30 0 -42 14 -13 14 -31 20 -59
20 l-41 0 24 -19 c14 -11 33 -16 48 -13 23 4 24 3 14 -16 -15 -29 -14 -32 12
-32 33 0 136 -77 137 -102 0 -4 -15 -14 -34 -23 -19 -9 -36 -25 -39 -35 -5
-21 17 -47 27 -32 3 5 15 12 27 15 16 4 20 2 16 -12 -3 -12 7 -25 30 -41 35
-24 55 -21 34 4 -18 22 -3 39 26 31 23 -5 83 -61 83 -76 0 -14 -14 -18 -31 -9
-12 7 -20 7 -24 0 -4 -6 -11 -8 -16 -5 -11 7 -39 -18 -39 -35 0 -7 -6 -8 -19
0 -11 5 -33 10 -50 10 -24 0 -31 4 -31 20 0 13 -7 20 -20 20 -12 0 -38 9 -59
20 -21 10 -41 17 -43 14 -3 -2 -18 0 -33 6 -16 6 -42 8 -59 4 l-30 -6 25 -14
c13 -7 32 -13 41 -14 10 0 23 -9 30 -20 7 -11 18 -20 25 -20 7 0 17 -9 23 -19
8 -16 17 -18 50 -14 l40 6 0 -40 c0 -44 -14 -63 -46 -63 -12 0 -27 -7 -34 -15
-7 -8 -27 -15 -44 -15 -17 -1 -42 -7 -56 -15 -14 -8 -38 -14 -55 -15 -19 0
-42 -11 -62 -30 -18 -17 -37 -30 -44 -30 -19 0 0 52 31 85 26 26 29 37 26 75
-5 54 -14 95 -29 134 l-11 29 -12 -34 c-7 -19 -13 -45 -13 -59 -1 -15 -6 -31
-13 -38 -6 -6 -11 -25 -10 -42 0 -17 -4 -28 -9 -25 -5 4 -9 -21 -9 -58 0 -56
3 -65 20 -70 26 -7 26 -27 0 -34 -11 -3 -20 -9 -20 -14 0 -5 -6 -9 -14 -9 -19
0 -67 -40 -60 -51 3 -5 13 -5 24 1 10 5 27 10 37 10 13 0 6 -11 -27 -40 -53
-46 -62 -48 -79 -16 -9 16 -19 22 -32 19 -17 -5 -18 -1 -13 41 7 45 6 46 -25
57 -17 6 -31 14 -31 18 0 4 -11 13 -25 19 -35 16 -32 33 4 19 34 -12 65 -3 57
18 -3 8 4 21 17 30 18 13 20 17 7 25 -8 5 -18 6 -22 4 -4 -3 -8 2 -8 10 0 19
-37 31 -54 17 -17 -14 -137 22 -160 48 -15 16 -10 17 67 17 62 -1 88 3 106 16
18 13 21 18 10 21 -8 2 -30 9 -50 16 -19 6 -47 11 -60 11 -57 0 -67 52 -14 74
47 20 44 36 -5 36 l-41 0 41 40 41 40 -31 0 c-17 0 -55 -12 -85 -26 -53 -26
-55 -26 -96 -10 -46 19 -44 19 -53 -10 -5 -17 -2 -23 15 -27 16 -4 19 -11 14
-27 -9 -27 11 -50 41 -50 27 0 32 -21 10 -40 -20 -15 -61 -9 -61 10 0 8 -10
16 -22 18 -12 2 -34 18 -49 35 -33 39 -61 56 -85 50 -13 -4 -22 2 -28 20 -9
23 -39 55 -154 163 -54 52 -25 61 34 10 43 -36 86 -50 106 -34 8 6 19 6 32 -1
11 -6 26 -8 34 -5 20 7 88 -22 105 -47 7 -11 21 -19 30 -18 10 1 24 0 32 -4
36 -13 62 -14 85 -4 26 13 33 27 13 27 -6 0 -19 7 -29 16 -16 14 -19 13 -36
-5 -25 -27 -83 -19 -83 10 0 37 -26 77 -44 67 -2 -2 -15 9 -28 23 -13 15 -54
46 -93 69 -99 61 -135 90 -135 111 0 25 16 32 40 19 11 -6 25 -8 31 -5 5 4 39
8 75 11 78 5 90 10 72 31 -18 22 -85 63 -102 63 -18 0 -25 20 -19 52 4 20 -3
33 -27 56 -35 34 -27 47 21 37 55 -12 28 18 -39 44 -51 20 -62 29 -62 48 0 16
7 24 25 29 19 5 23 10 16 22 -7 13 -2 24 22 45 l32 28 -42 -6 c-36 -6 -43 -4
-43 10 0 13 -6 16 -25 11 -31 -8 -31 -3 -4 34 15 19 19 34 14 47 -5 10 -7 26
-6 35 1 9 -7 22 -18 27 -13 7 -23 29 -31 66 -13 60 -28 69 -47 28 -16 -34 -17
-63 -1 -63 6 0 3 -6 -7 -14 -10 -7 -27 -11 -37 -8 -26 7 -23 -20 7 -48 35 -33
32 -40 -20 -40 -25 0 -45 -4 -45 -8 0 -5 20 -28 45 -51 46 -43 59 -68 28 -56
-10 3 -41 11 -70 17 -88 18 -114 -9 -41 -42 24 -11 53 -20 65 -20 27 0 73 -20
73 -32 0 -10 -74 -9 -110 1 -31 9 -62 2 -57 -13 2 -6 14 -13 28 -15 13 -1 36
-12 50 -22 15 -10 34 -19 42 -19 9 0 18 -4 21 -9 3 -5 -6 -7 -22 -5 -113 15
-139 15 -174 0 -55 -23 -49 -42 16 -49 29 -3 72 -15 94 -26 23 -12 55 -21 71
-21 33 0 55 -27 41 -50 -6 -11 -16 -11 -51 -1 -115 33 -128 34 -143 22 -23
-19 -8 -41 29 -41 19 0 46 -4 60 -10 36 -14 21 -34 -19 -26 -44 9 -56 9 -100
-2 -40 -11 -146 -78 -146 -93 0 -5 29 -9 64 -9 36 0 67 -4 70 -9 7 -10 -16
-21 -44 -21 -27 0 -44 -25 -31 -47 7 -13 5 -23 -6 -36 -22 -23 -15 -28 56 -34
34 -3 66 -12 72 -19 14 -17 55 -18 98 -3 37 13 37 13 47 -25 l7 -29 -65 7
c-64 6 -167 -7 -177 -23 -4 -4 -31 -11 -61 -13 -30 -3 -56 -11 -58 -17 -2 -6
-24 -25 -48 -42 -65 -45 -59 -62 19 -55 118 11 174 -19 127 -70 -14 -14 -37
-32 -52 -40 -25 -13 -66 -79 -56 -90 3 -2 36 1 75 8 38 6 78 8 87 5 30 -12 1
-35 -59 -47 -30 -6 -64 -19 -77 -29 -13 -10 -39 -21 -58 -25 -52 -10 -121 -79
-105 -106 3 -5 2 -11 -3 -14 -14 -9 -69 31 -88 63 -10 17 -25 31 -32 31 -16 0
-58 50 -54 64 6 18 -29 89 -66 134 -73 90 -185 192 -209 192 -6 0 -22 11 -37
25 -15 14 -33 25 -41 25 -7 0 -20 6 -27 13 -47 44 -103 71 -154 74 l-54 3 0
-2725 0 -2725 169 1 170 0 3 27 c3 23 8 27 40 30 33 3 37 1 43 -27 l7 -31 184
0 c176 0 185 1 179 19 -3 10 -3 26 1 35 6 15 8 15 24 1 10 -9 31 -14 50 -13
25 2 37 -3 48 -20 14 -21 20 -22 194 -22 166 0 179 1 175 18 -3 9 -8 35 -12
57 -4 21 -18 59 -31 84 -13 25 -24 51 -24 58 0 7 -6 16 -14 20 -7 4 -21 22
-30 40 -9 18 -22 36 -29 40 -8 4 -16 15 -19 24 -3 8 -37 36 -75 62 -110 75
-156 127 -120 139 6 2 84 -1 172 -7 88 -5 271 -9 408 -7 209 2 247 5 247 17 0
12 -16 15 -80 15 -64 0 -80 3 -80 15 0 11 -11 15 -39 15 -37 0 -39 2 -45 37
-3 21 -6 60 -6 86 0 41 3 50 20 54 11 3 20 9 20 14 0 5 11 9 25 9 21 0 25 -5
25 -30 0 -23 4 -30 20 -30 13 0 20 7 20 20 0 11 -5 20 -11 20 -8 0 -8 5 1 15
13 15 8 19 -22 16 -15 -2 -18 6 -18 39 0 34 2 39 13 28 7 -7 16 -21 20 -31 5
-13 13 -16 34 -11 34 8 83 33 66 34 -8 0 -13 13 -13 30 0 21 -5 30 -16 30 -9
0 -18 9 -21 19 -3 12 -11 17 -19 14 -8 -3 -14 0 -14 6 0 6 -10 11 -21 11 -16
0 -20 5 -16 20 3 13 0 20 -9 20 -8 0 -25 6 -37 14 -12 8 -51 17 -87 21 -36 4
-78 11 -95 15 -16 5 -43 12 -60 16 -16 4 -24 9 -17 11 6 3 12 9 12 14 0 6 -8
5 -20 -1 -17 -9 -20 -8 -20 10 0 12 4 18 10 15 6 -4 22 1 36 10 14 9 32 14 41
11 27 -11 92 5 86 20 -3 8 -9 14 -13 14 -5 0 -21 5 -37 11 -15 6 -29 10 -30
10 -2 0 -25 7 -53 15 -35 10 -55 12 -68 5 -9 -6 -12 -11 -7 -11 6 0 0 -6 -12
-13 -25 -14 -156 -10 -147 4 3 5 -15 9 -40 9 -25 0 -47 -4 -50 -9 -9 -14 42
-31 94 -31 52 0 65 -9 55 -39 -5 -18 -15 -19 -118 -17 -123 3 -114 -4 -100 69
3 15 -2 42 -11 61 -30 64 -15 169 20 136 5 -4 43 -11 84 -14 41 -4 85 -10 97
-12 25 -7 431 -24 682 -29 145 -3 176 -7 183 -19 5 -9 16 -16 23 -16 22 0 18
-28 -4 -40 -11 -5 -37 -10 -58 -10 -28 0 -34 -3 -23 -10 12 -8 11 -10 -7 -10
-13 0 -23 -4 -23 -9 0 -12 26 -21 61 -21 22 0 30 6 35 25 6 23 7 23 29 9 15
-10 25 -12 30 -5 3 6 0 11 -8 11 -10 0 -13 8 -9 25 5 28 22 34 22 8 0 -10 4
-24 9 -32 8 -12 12 -12 26 2 9 10 19 17 23 18 4 0 58 2 119 3 72 2 118 8 128
16 10 9 19 9 27 2 13 -10 106 -8 116 3 3 3 -13 5 -36 5 -67 0 -49 18 21 20 34
2 74 3 90 4 15 0 27 4 27 8 0 4 30 5 68 2 37 -3 80 -5 95 -5 16 1 26 -2 23 -7
-3 -5 1 -9 9 -9 8 0 12 3 10 7 -2 4 8 8 23 8 61 2 87 8 85 19 -3 14 39 13 50
-2 4 -6 10 -5 17 5 14 22 12 33 -5 26 -8 -3 -15 -1 -15 5 0 6 14 7 35 3 33 -6
35 -5 35 20 0 16 -6 26 -15 26 -8 0 -44 16 -80 36 -36 20 -65 32 -65 28 0 -4
-6 1 -14 11 -13 18 -68 23 -151 13 -27 -3 -30 0 -28 25 1 15 -3 27 -10 27 -17
0 -97 94 -97 113 0 10 39 -5 51 -19 6 -8 16 -14 21 -14 14 0 2 59 -16 79 -7 9
-19 40 -27 69 -7 28 -15 52 -18 52 -3 0 -6 20 -7 44 -1 37 -6 49 -33 72 -17
14 -30 29 -27 32 3 2 -1 17 -9 33 -15 28 -11 59 7 59 6 0 5 7 -2 15 -10 12
-15 13 -21 4 -4 -7 -15 6 -27 35 -17 37 -26 46 -46 46 -14 0 -28 -5 -31 -10
-3 -6 -17 -10 -31 -10 -36 0 -34 44 3 58 67 26 113 34 113 20 0 -6 2 -9 5 -6
10 9 -7 39 -19 35 -18 -7 -44 16 -48 42 -1 13 -11 29 -21 35 -15 9 -22 7 -34
-12 -20 -29 -40 -28 -45 3 -5 23 -1 25 53 36 38 7 59 17 59 25 0 18 14 18 30
-1 7 -8 28 -15 46 -15 19 0 34 -4 34 -10 0 -5 7 -7 15 -4 9 4 18 -1 22 -12 4
-11 13 -25 20 -32 7 -8 11 -18 8 -23 -4 -5 4 -9 17 -9 13 -1 34 -7 48 -15 14
-7 37 -11 52 -8 16 3 55 -1 88 -8 48 -10 62 -18 66 -35 3 -12 4 -85 2 -162
l-3 -141 70 -3 c39 -2 72 0 73 5 2 4 7 5 12 2 5 -3 6 12 4 32 -3 20 -9 40 -13
43 -5 3 -12 24 -16 48 l-7 42 77 0 c54 0 81 -4 91 -15 8 -8 22 -18 30 -23 17
-9 22 -79 24 -342 4 -329 3 -343 -20 -337 -15 4 -20 0 -20 -16 0 -11 3 -18 6
-14 8 7 34 -17 34 -31 0 -6 -6 -13 -12 -15 -9 -4 -10 -6 -1 -6 8 -1 10 -13 6
-38 -6 -38 -25 -67 -37 -56 -3 4 -6 2 -6 -4 0 -18 46 -36 66 -26 31 16 115 15
184 -1 101 -24 200 -30 235 -15 30 12 30 12 -30 21 -86 13 -291 61 -301 70 -2
3 -2 13 2 22 6 15 7 15 19 0 8 -11 20 -15 34 -11 11 3 21 2 21 -3 0 -13 33
-21 43 -11 6 6 18 4 32 -5 15 -10 25 -12 30 -5 4 7 14 5 30 -5 13 -9 29 -13
35 -9 5 3 10 2 10 -4 0 -11 36 -19 115 -25 82 -7 145 -18 145 -26 0 -4 8 -10
18 -13 25 -6 37 -47 14 -47 -10 1 -28 7 -42 15 -14 8 -41 14 -60 15 -34 0 -34
0 -12 -16 12 -8 22 -23 22 -33 0 -27 23 -44 39 -28 10 9 11 8 6 -5 -4 -11 -2
-18 4 -18 6 0 11 5 11 10 0 7 17 9 48 4 71 -11 103 -9 152 10 29 12 62 16 95
13 80 -7 265 -45 280 -57 7 -6 49 -13 92 -14 206 -10 421 -48 488 -88 57 -34
165 -19 165 22 0 6 4 8 10 5 10 -6 40 57 40 86 0 20 34 44 50 34 16 -10 20 12
5 31 -19 25 -19 54 1 54 8 0 24 5 35 10 18 10 18 12 3 36 -18 27 -12 40 21 46
14 3 19 11 18 26 -2 12 2 22 7 22 6 0 9 4 8 9 -2 5 2 11 7 12 6 2 11 -9 13
-26 2 -16 4 -34 6 -40 2 -5 4 -14 4 -19 0 -5 6 -13 14 -17 11 -7 10 -11 -2
-18 -9 -7 -17 -6 -22 2 -4 6 -10 -1 -14 -18 -4 -16 -13 -40 -20 -54 -8 -14
-14 -52 -14 -83 0 -32 -4 -58 -10 -58 -5 0 -10 5 -10 10 0 16 -22 12 -57 -13
-37 -25 -40 -34 -15 -53 23 -18 62 -18 62 0 0 8 12 19 28 25 35 13 56 31 65
54 6 15 13 17 39 12 46 -10 56 -23 24 -31 -21 -5 -26 -11 -24 -31 2 -16 -3
-29 -14 -34 -10 -5 -26 -14 -35 -19 -10 -6 -26 -13 -35 -16 -9 -3 -18 -16 -20
-27 -2 -18 -10 -22 -41 -22 -22 0 -41 3 -44 8 -8 13 -23 -4 -23 -27 0 -13 -9
-35 -20 -49 -11 -14 -20 -32 -20 -41 0 -9 -11 -21 -24 -26 -37 -14 -56 -56
-23 -51 4 0 7 -15 7 -34 0 -38 9 -42 57 -24 16 6 23 13 16 17 -11 7 -16 31
-14 65 0 9 10 26 21 37 20 20 21 20 58 1 53 -27 67 -45 47 -61 -8 -7 -26 -10
-41 -7 -24 4 -54 -14 -54 -33 0 -12 95 -28 155 -26 28 1 53 -2 56 -6 3 -5 16
-10 27 -11 12 -1 22 -5 22 -10 0 -4 6 -7 13 -6 37 5 67 -4 91 -26 25 -23 28
-33 28 -91 0 -35 -2 -67 -5 -71 -4 -3 -18 2 -32 11 -30 20 -45 14 -45 -20 0
-29 -37 -74 -61 -74 -10 0 -20 11 -23 26 l-7 27 -15 -22 c-8 -11 -26 -21 -38
-21 -35 0 -49 -24 -43 -70 4 -30 0 -46 -14 -64 -10 -13 -19 -30 -19 -36 0 -7
-7 -18 -16 -25 -12 -8 -15 -20 -9 -43 5 -27 11 -32 35 -32 38 0 60 9 60 26 0
9 11 14 28 14 42 0 72 11 72 26 0 8 5 14 10 14 6 0 10 -5 10 -10 0 -7 6 -7 20
0 25 13 95 -20 105 -50 4 -13 15 -20 31 -20 22 0 23 2 14 21 -7 13 -9 36 -4
62 4 23 8 56 8 72 1 24 6 31 26 33 46 6 125 34 137 49 16 21 181 32 193 13 5
-8 11 -1 19 21 21 61 44 79 116 91 49 7 83 7 128 -2 140 -27 350 -58 405 -59
15 -1 26 -8 29 -21 8 -31 30 -24 37 13 4 17 3 70 -1 117 -4 47 -8 90 -8 95 0
6 8 9 18 7 9 -2 20 4 23 12 3 9 22 19 42 22 21 4 51 17 67 29 32 24 115 64
178 86 20 7 37 17 37 22 0 4 13 13 30 18 16 6 28 15 25 20 -10 15 15 49 35 49
10 0 21 4 25 9 6 10 103 41 127 41 9 0 14 -9 13 -23 -3 -31 13 -48 40 -41 23
6 41 -18 29 -37 -7 -12 18 -37 33 -32 7 3 25 -7 40 -21 17 -16 22 -26 14 -26
-11 0 -11 -4 2 -18 19 -21 23 -37 6 -26 -7 4 -7 -1 1 -15 12 -23 45 -25 45 -4
0 6 3 15 8 19 11 11 8 44 -4 44 -7 0 1 10 17 22 16 13 35 29 43 36 9 9 28 12
50 10 23 -3 40 0 46 9 8 10 20 8 62 -12 29 -14 55 -30 58 -35 3 -6 15 -10 26
-10 11 0 33 -13 49 -30 15 -16 45 -36 65 -44 20 -9 55 -35 78 -59 63 -65 86
-71 287 -73 202 -2 212 -3 240 -26 11 -10 24 -18 28 -18 4 0 16 -14 27 -31
l20 -30 75 6 c73 6 76 5 124 -27 27 -18 55 -37 62 -43 8 -6 35 -5 76 4 83 17
178 24 178 12 0 -5 9 -7 20 -4 24 6 53 -15 46 -33 -3 -8 -2 -13 2 -13 22 4 32
-3 32 -20 0 -15 5 -18 21 -14 12 3 25 0 29 -7 4 -7 34 -14 70 -16 35 -1 66 -7
69 -13 5 -7 25 -8 61 -2 30 5 60 6 67 4 7 -3 13 2 13 10 0 9 9 18 20 21 11 3
29 9 40 12 14 4 20 1 20 -10 0 -9 4 -16 8 -16 4 0 8 9 8 20 0 13 -7 20 -20 20
-19 0 -19 0 1 18 11 9 18 23 16 30 -5 13 -4 14 46 18 19 1 37 6 40 11 3 5 29
15 56 22 28 6 59 14 71 17 12 4 28 -1 37 -11 16 -15 17 -15 17 3 0 42 11 52
55 52 39 0 42 -2 42 -27 1 -16 4 -47 8 -70 7 -38 5 -42 -21 -57 -25 -14 -26
-16 -5 -10 18 5 23 3 19 -8 -4 -9 1 -14 16 -13 11 0 21 -4 21 -10 0 -5 -26
-11 -58 -12 -43 -3 -58 0 -56 9 1 7 1 22 0 33 -1 18 -2 18 -14 -4 -7 -15 -26
-28 -44 -33 -23 -6 -33 -14 -33 -28 0 -11 5 -20 11 -20 5 0 7 -4 4 -10 -3 -5
6 -15 20 -22 18 -8 22 -14 13 -20 -9 -5 -4 -8 13 -8 47 0 89 12 89 26 0 22 43
27 129 15 48 -6 91 -7 110 -1 17 5 33 5 36 0 3 -5 -5 -11 -17 -13 -16 -3 -13
-5 11 -6 19 0 31 2 27 6 -4 5 16 13 46 18 46 9 55 15 70 43 9 18 23 41 32 51
9 10 16 23 16 29 0 14 37 16 42 2 6 -17 48 1 48 21 0 11 7 19 16 19 9 0 18 9
21 20 3 11 10 20 15 20 6 0 8 6 5 14 -3 8 1 20 9 26 8 7 14 16 14 20 0 21 64
69 112 86 29 10 59 25 66 33 8 11 15 12 23 4 7 -7 23 -5 52 10 23 11 59 21 81
21 29 1 44 8 63 31 69 83 95 105 123 105 l28 0 -14 -47 c-13 -43 -57 -114 -77
-122 -26 -10 -96 -94 -102 -121 -4 -17 -13 -43 -21 -58 -27 -52 -20 -61 44
-59 l57 2 3 -32 c3 -27 0 -33 -16 -33 -14 0 -26 -14 -41 -45 -22 -47 -25 -75
-15 -137 7 -38 7 -38 54 -38 l48 0 -1 47 c-2 35 4 56 21 80 24 34 31 120 11
140 -8 8 14 36 80 102 50 49 91 95 91 101 0 5 5 10 11 10 7 0 23 12 36 26 18
19 21 29 13 39 -7 8 -8 26 -2 51 5 22 9 42 10 47 1 4 2 13 2 20 0 8 12 20 28
28 15 8 33 20 41 27 12 11 15 11 22 0 5 -7 9 -8 9 -2 0 6 21 22 47 35 26 13
63 39 82 57 19 18 44 34 55 35 19 2 21 -3 18 -38 -1 -22 -3 -71 -2 -108 0 -60
-3 -71 -27 -94 l-26 -27 34 -29 c112 -97 109 -94 109 -132 0 -103 -73 -100
-139 8 -28 46 -45 47 -71 5 -27 -45 -26 -51 19 -97 85 -86 125 -166 137 -271
l7 -60 513 0 514 0 0 136 0 136 -45 -4 c-40 -3 -47 0 -51 18 -7 27 15 71 61
121 33 36 35 42 35 106 0 43 -4 66 -10 62 -5 -3 -10 -18 -10 -33 -1 -21 -11
-34 -47 -57 -91 -59 -95 -60 -110 -39 -7 10 -11 24 -9 31 3 6 8 28 12 47 5 31
4 36 -13 36 -19 0 -19 3 -9 42 11 42 110 158 134 158 7 0 12 5 12 10 0 6 11
16 25 22 23 10 25 17 25 74 0 60 -2 64 -29 78 -26 14 -29 21 -33 78 -4 65 -24
118 -45 126 -7 2 -20 -11 -28 -30 -14 -27 -23 -33 -52 -36 -20 -1 -43 -8 -51
-15 -13 -10 -14 -8 -9 21 6 30 23 54 78 111 27 28 61 97 57 117 -2 11 -13 20
-26 22 -12 2 -22 8 -22 13 0 6 -13 -5 -30 -23 -16 -18 -30 -36 -30 -40 0 -4
-10 -12 -21 -19 -17 -9 -25 -8 -37 5 -15 14 -12 23 26 97 38 74 52 119 36 119
-8 0 -77 -42 -84 -50 -10 -13 -49 -30 -69 -30 -17 0 -19 4 -10 32 5 17 27 50
50 72 51 51 72 91 65 122 -5 17 -13 24 -31 24 -14 0 -25 -4 -25 -9 0 -5 -12
-11 -26 -13 -19 -2 -33 -15 -51 -47 -37 -66 -47 -74 -68 -51 -15 17 -15 20 1
52 9 18 43 60 74 93 31 33 67 77 79 98 19 31 28 37 56 37 18 0 35 -5 37 -12 6
-17 56 -1 63 21 6 21 33 31 83 31 17 0 32 5 32 10 0 6 9 10 20 10 20 0 20 7
20 1410 0 1159 -2 1410 -13 1410 -7 0 -28 -17 -47 -37 -19 -22 -30 -30 -26
-18 4 11 9 25 10 30 3 17 60 105 69 105 4 0 7 221 7 490 0 270 -3 490 -6 490
-4 0 -15 -9 -25 -21 l-18 -21 -6 24 c-3 13 0 39 8 57 14 32 12 71 -2 71 -3 0
-15 -7 -25 -15 -30 -22 -46 -18 -46 11 0 24 -3 25 -27 19 -33 -8 -53 -23 -53
-40 0 -6 -9 -20 -20 -30 -26 -24 -25 -6 3 42 36 62 51 80 75 87 12 4 20 12 16
17 -3 5 10 25 29 44 25 25 44 35 66 35 l31 0 0 580 0 580 -350 0 c-283 0 -350
-3 -350 -13 0 -20 -52 -74 -81 -85 -26 -10 -59 4 -59 26 0 6 -6 12 -12 15 -10
4 -10 7 0 18 32 34 16 39 -120 39 -128 0 -132 -1 -112 -18 39 -31 39 -57 1
-81 -19 -12 -46 -21 -60 -21 -15 0 -27 -7 -31 -17 -3 -10 -10 -25 -15 -33 -5
-8 -17 -33 -26 -55 -29 -66 -85 -113 -85 -70 0 8 4 15 9 15 13 0 24 74 16 109
-8 38 -53 51 -90 27 -13 -9 -30 -16 -37 -16 -14 0 -68 -53 -68 -67 -1 -15 -48
-44 -55 -33 -3 5 -4 14 -1 19 7 11 -50 61 -70 61 -8 0 -24 -16 -35 -35 -18
-30 -30 -40 -41 -34 -7 4 -86 -41 -97 -55 -19 -23 -51 -20 -51 4 0 11 5 20 10
20 6 0 10 13 10 29 0 19 8 35 22 45 12 9 19 19 15 22 -11 12 14 34 39 34 12 0
29 7 38 15 8 8 21 15 29 15 8 0 28 7 45 16 18 8 36 13 42 9 5 -3 10 -1 10 4 0
6 7 11 15 11 8 0 15 4 15 9 0 15 138 44 177 38 33 -6 103 13 103 27 0 4 -353
6 -785 6 l-785 0 0 -24z m2577 -37 c15 -6 38 -19 49 -30 19 -18 20 -23 9 -57
-7 -20 -17 -37 -22 -37 -32 -2 -89 -19 -95 -28 -4 -7 -8 -28 -8 -48 0 -25 -7
-43 -25 -59 -14 -13 -25 -29 -25 -36 0 -21 -46 -68 -59 -60 -6 4 -9 12 -6 17
4 5 -1 12 -9 15 -22 8 -92 -50 -115 -95 -24 -45 -76 -96 -85 -82 -7 11 -4 33
17 117 8 32 20 81 26 109 17 71 64 125 165 191 49 32 94 63 100 69 11 11 33
23 48 24 4 1 19 -4 35 -10z m-322 -1218 c-3 -5 8 -18 25 -27 22 -13 30 -26 30
-46 0 -20 -4 -26 -15 -22 -9 4 -18 -1 -21 -11 -5 -13 -9 -14 -15 -4 -6 10 -11
10 -21 1 -20 -16 -130 -32 -145 -20 -14 11 58 124 84 131 33 9 84 7 78 -2z
m182 -163 c11 -93 11 -163 2 -174 -6 -7 -8 -18 -4 -23 3 -6 -3 -31 -15 -55
-11 -25 -20 -55 -20 -68 0 -26 -13 -49 -26 -50 -33 -2 -52 -23 -62 -71 -20
-103 -50 -203 -70 -243 l-21 -42 31 -6 c17 -3 43 -6 58 -6 28 0 28 -2 32 -62
1 -35 2 -77 0 -94 -3 -28 -6 -31 -35 -30 -123 2 -144 -3 -192 -44 -55 -48 -90
-51 -134 -14 -23 19 -31 34 -31 59 0 19 -4 37 -10 40 -5 3 -10 21 -10 40 0 21
-6 37 -16 43 -26 15 -10 92 26 131 36 37 45 69 35 124 -4 23 -9 57 -12 75 -4
23 -11 32 -24 32 -47 0 10 131 81 187 15 13 42 46 61 75 44 72 65 94 125 134
60 40 205 95 218 83 5 -4 11 -23 13 -41z m-1354 -260 c52 -30 50 -62 -5 -80
-39 -12 -43 -16 -50 -56 -14 -81 -42 -115 -77 -93 -18 12 -7 42 29 77 36 36
37 42 5 54 -32 12 -41 34 -26 66 18 40 80 56 124 32z m-8062 -455 c35 -21 49
-57 40 -108 -6 -39 -8 -40 -44 -39 -48 2 -47 -12 2 -32 34 -14 64 -54 40 -54
-5 0 -9 5 -9 10 0 6 -6 10 -12 8 -7 -1 -25 1 -40 5 -25 7 -28 12 -28 52 0 24
-7 65 -16 90 -15 45 -15 47 7 66 27 23 24 23 60 2z m5765 -67 c10 -41 1 -81
-20 -84 -10 -2 -22 1 -26 8 -4 6 -10 -12 -13 -42 -5 -43 -13 -58 -42 -85 -19
-17 -35 -37 -35 -42 0 -6 -16 -18 -36 -26 -29 -12 -35 -19 -31 -36 4 -16 -8
-35 -54 -80 -37 -35 -59 -65 -57 -75 5 -29 22 -25 47 12 28 40 59 60 72 47 6
-6 -5 -26 -26 -50 -19 -23 -35 -44 -35 -47 0 -3 14 -3 31 1 55 11 50 -14 -17
-83 -57 -58 -83 -98 -71 -110 2 -2 18 9 35 26 18 16 40 30 50 30 10 0 23 5 30
12 7 7 12 9 12 5 0 -5 -11 -19 -24 -32 -39 -39 -76 -91 -76 -107 0 -8 6 -23
14 -34 14 -18 16 -17 60 25 36 35 47 41 51 29 7 -18 -30 -98 -45 -98 -6 0 -15
-12 -20 -26 -10 -26 -34 -29 -36 -3 -2 35 -5 40 -14 34 -5 -3 -10 3 -10 14 0
12 -5 21 -11 21 -15 0 -139 128 -136 142 1 6 -11 16 -28 21 -49 15 -60 23 -60
43 0 12 8 20 23 22 12 2 22 -1 22 -7 0 -6 8 -11 18 -11 10 0 37 -9 60 -20 52
-25 60 -25 89 2 24 22 32 60 12 56 -7 -2 -16 12 -21 30 -5 18 -28 53 -52 77
-34 36 -49 45 -76 45 -32 0 -80 31 -80 52 0 9 47 5 73 -6 9 -5 23 -4 30 1 6 5
31 11 54 12 34 2 42 0 37 -12 -3 -8 0 -18 5 -22 13 -8 94 59 97 80 1 8 12 28
23 44 12 16 21 32 21 36 0 3 27 42 60 86 33 44 60 85 60 92 0 20 30 57 45 57
8 0 17 -11 21 -24z m1159 -14 c-3 -8 -5 -17 -5 -22 0 -5 -8 -16 -17 -26 -23
-23 -25 -74 -3 -74 9 0 22 10 29 23 13 22 99 98 120 105 6 2 11 -6 11 -18 0
-14 -23 -45 -60 -82 -58 -59 -71 -78 -50 -78 6 0 10 4 10 9 0 5 10 13 23 16
12 4 38 14 57 23 19 8 53 16 75 16 39 1 40 0 39 -30 -1 -17 -8 -44 -15 -60
-12 -24 -20 -29 -53 -29 -31 -1 -40 4 -47 22 -11 29 -17 29 -28 1 -7 -19 -1
-32 31 -70 22 -27 46 -48 53 -48 14 0 26 -68 13 -76 -4 -3 -8 1 -8 9 0 8 -6
17 -14 20 -13 5 -25 -10 -32 -41 -6 -30 -14 -41 -45 -56 -18 -9 -35 -16 -40
-16 -13 0 25 100 40 105 9 3 24 16 33 29 17 24 17 25 -18 55 -19 17 -43 31
-53 31 -10 0 -26 11 -35 25 -21 31 -54 32 -66 3 -6 -17 -9 -18 -9 -6 -1 9 -13
30 -27 47 -23 28 -32 31 -80 31 -39 0 -54 -4 -54 -14 0 -7 -6 -19 -14 -25 -12
-10 -19 -8 -37 10 -25 25 -25 25 -43 -33 -7 -24 -35 -23 -63 4 -22 21 -23 21
-43 3 -11 -10 -20 -25 -20 -33 0 -10 -11 -3 -30 17 -26 26 -30 37 -25 64 9 45
12 48 76 90 31 19 60 40 64 47 10 15 44 3 83 -32 37 -32 57 -32 57 -2 0 16 6
18 40 15 76 -8 89 -6 93 10 2 11 -6 19 -25 24 l-28 7 28 11 c41 17 119 16 112
-1z m-711 -29 c-10 -51 -27 -75 -47 -69 -13 3 -21 -3 -28 -22 -17 -47 -32 -72
-44 -72 -6 0 -19 -17 -28 -37 -9 -21 -30 -54 -47 -73 l-31 -35 6 50 c7 51 27
98 52 123 8 8 21 26 30 39 14 21 14 25 -1 42 -15 17 -15 19 0 32 10 8 25 13
35 11 9 -2 20 2 24 8 10 16 25 2 19 -18 -3 -9 4 -2 16 16 28 41 53 43 44 5z
m-3766 -33 c10 -10 24 -20 32 -22 32 -6 94 -46 96 -62 1 -9 -1 -16 -6 -16 -4
0 -10 -7 -14 -15 -3 -8 0 -14 7 -12 12 2 13 -27 2 -73 -4 -19 1 -32 25 -57 20
-21 30 -42 30 -62 0 -45 -24 -39 -62 17 -17 26 -39 54 -47 62 -13 13 -12 15 7
18 27 4 28 17 2 49 -11 14 -22 41 -26 60 -4 19 -15 40 -25 46 -11 7 -19 17
-19 23 0 6 -9 19 -20 29 -11 10 -20 22 -20 27 0 15 21 8 38 -12z m-2888 -20
c0 -11 5 -20 10 -20 6 0 10 -7 10 -16 0 -9 9 -18 20 -21 24 -6 28 -53 5 -53
-8 0 -15 -4 -15 -10 0 -5 -15 -12 -33 -15 -19 -4 -50 -23 -73 -44 -31 -31 -42
-36 -56 -27 -20 12 -50 -12 -105 -87 -39 -53 -60 -51 -41 4 23 68 93 153 141
172 9 3 17 16 17 28 0 16 5 20 19 16 14 -3 21 2 25 18 14 54 76 100 76 55z
m-1500 -10 c9 -6 10 -10 3 -10 -15 0 -93 -75 -93 -89 0 -9 -15 -28 -72 -89
-17 -19 -20 -30 -14 -68 3 -27 2 -43 -3 -39 -15 9 -41 65 -30 65 5 0 9 11 9
24 0 14 9 31 21 39 23 17 20 20 -39 40 -40 14 -42 14 -42 -4 0 -11 -4 -19 -10
-19 -5 0 -10 15 -10 34 0 29 7 38 53 70 29 20 63 36 77 37 14 0 34 4 45 9 27
12 87 12 105 0z m3601 -11 c13 -27 39 -114 39 -131 0 -25 -50 -61 -66 -47 -9
7 -18 7 -33 -2 -17 -12 -22 -10 -41 13 -20 26 -50 29 -50 5 0 -20 -33 -47 -57
-47 -12 0 -23 -5 -23 -11 0 -21 -62 -107 -82 -112 -15 -4 -20 1 -25 24 -3 16
-6 29 -7 29 -1 0 -27 -24 -58 -52 -31 -29 -64 -71 -73 -93 -14 -31 -19 -36
-23 -21 -7 30 31 176 46 176 7 0 11 4 7 9 -3 5 -1 12 5 16 6 4 8 11 5 16 -4 5
1 9 9 9 9 0 16 5 16 11 0 6 8 9 17 7 18 -3 29 4 85 57 37 34 44 37 120 38 55
0 57 1 75 36 22 45 28 49 59 43 21 -4 24 -1 24 23 0 28 18 31 31 4z m-842 -39
c23 -32 22 -64 -4 -74 -9 -3 -18 -5 -21 -5 -3 1 -19 -12 -35 -27 -36 -35 -61
-25 -70 27 -4 19 -10 42 -14 52 -6 14 -4 18 8 15 9 -2 23 6 31 17 14 20 15 20
29 1 15 -20 37 -14 37 10 0 22 14 16 39 -16z m4996 -139 c-6 -33 -11 -36 -39
-17 -46 29 -52 23 -64 -75 -12 -90 -32 -139 -57 -139 -7 0 -16 -8 -19 -17 -6
-15 -8 -15 -16 -3 -27 42 0 133 55 190 33 34 43 57 44 108 1 12 10 31 22 43
l21 21 29 -43 c18 -28 27 -52 24 -68z m460 84 c0 -14 -10 -22 -37 -28 -20 -5
-39 -15 -42 -23 -6 -15 19 -20 28 -5 3 5 18 12 33 16 16 3 40 18 55 32 14 14
32 23 39 21 36 -12 4 -98 -37 -98 -17 0 -27 -8 -34 -25 -13 -33 -38 -32 -46 2
l-7 27 -9 -24 c-5 -15 -5 -27 2 -34 18 -18 11 -44 -13 -50 -32 -8 -71 -44 -90
-84 -14 -29 -14 -33 -2 -28 8 3 15 1 15 -5 0 -15 -56 -105 -127 -203 -24 -32
-43 -64 -43 -72 0 -8 -4 -14 -10 -14 -5 0 -10 16 -10 35 0 61 78 191 132 222
13 7 17 12 11 13 -8 0 -13 15 -13 39 0 47 -17 62 -39 33 -9 -11 -31 -23 -48
-27 -18 -4 -33 -13 -33 -21 0 -19 -62 -103 -77 -103 -20 -1 -21 12 -7 68 18
69 67 135 119 158 22 10 67 44 100 76 33 32 81 70 107 85 27 15 48 31 48 35 0
5 8 7 18 5 9 -2 17 -12 17 -23z m-6347 -47 c15 -61 15 -95 2 -103 -6 -4 -8
-11 -5 -16 4 -5 2 -9 -4 -9 -5 0 -12 6 -14 13 -3 6 -6 0 -6 -15 -1 -35 -14
-36 -29 -4 l-11 25 -53 -20 c-29 -10 -58 -17 -64 -15 -13 5 -28 -50 -18 -65
10 -17 -19 -9 -32 9 -11 14 -16 15 -31 5 -10 -7 -33 -19 -51 -28 -20 -9 -37
-26 -43 -44 -6 -16 -18 -32 -27 -35 -9 -3 -23 -9 -30 -12 -11 -5 -13 3 -10 32
2 30 -1 39 -14 42 -13 2 -16 -1 -12 -12 4 -11 1 -16 -10 -16 -9 0 -16 -5 -16
-11 0 -5 -4 -8 -9 -5 -9 6 -72 -59 -101 -103 -31 -48 -37 -54 -43 -45 -6 10
39 152 55 171 17 21 115 63 146 63 23 0 38 10 65 44 45 54 82 71 130 58 43
-12 57 1 75 64 15 53 67 92 115 86 32 -4 35 -7 45 -54z m9258 22 c16 -16 -7
-100 -27 -100 -19 0 -31 -45 -24 -87 3 -16 7 -41 10 -58 2 -16 7 -42 11 -57 5
-20 2 -28 -7 -28 -12 0 -12 -2 0 -9 9 -6 10 -10 2 -15 -20 -13 -118 -17 -145
-6 -16 6 -27 6 -31 0 -4 -7 -13 -6 -25 0 -32 17 -50 12 -50 -14 0 -13 4 -26 8
-28 4 -1 17 -22 29 -46 11 -23 41 -58 67 -78 47 -36 76 -78 76 -112 0 -10 -15
-36 -34 -57 -33 -39 -33 -39 -60 -22 -14 10 -26 27 -26 39 0 26 -39 90 -50 83
-5 -3 -13 2 -18 11 -7 13 -10 8 -15 -22 -7 -41 -1 -81 16 -102 6 -7 7 -50 3
-111 -7 -88 -5 -104 13 -141 26 -55 19 -90 -18 -90 -14 0 -35 7 -45 15 -11 8
-32 15 -46 15 -21 0 -34 11 -57 48 -38 58 -70 88 -103 96 -14 3 -19 3 -12 0 8
-4 12 -34 12 -97 0 -51 4 -98 9 -106 19 -29 2 -36 -77 -33 -81 3 -94 -2 -130
-54 -7 -11 -16 -24 -20 -29 -4 -6 -19 -16 -33 -22 -26 -11 -27 -15 -30 -102
-3 -76 -7 -93 -24 -105 -11 -9 -23 -16 -26 -16 -3 0 -12 24 -19 54 -12 52 -13
53 -49 52 -39 -1 -39 -4 -31 94 5 72 -2 152 -13 141 -6 -6 -28 -11 -48 -11
-41 0 -60 -17 -63 -57 0 -16 -16 -42 -38 -66 -39 -39 -46 -66 -29 -110 14 -36
-1 -51 -43 -43 -20 4 -36 6 -37 4 0 -2 -3 -23 -6 -48 -5 -42 -30 -100 -43
-100 -19 1 -44 60 -46 108 -3 64 -11 76 -46 63 -32 -12 -63 -65 -70 -119 -9
-65 -88 -131 -88 -73 0 10 -7 24 -15 31 -13 11 -18 7 -32 -29 -11 -29 -20 -38
-27 -31 -31 31 -69 -5 -81 -77 -6 -37 -11 -43 -41 -53 -27 -9 -36 -19 -44 -50
-12 -44 -33 -65 -56 -56 -14 5 -16 20 -12 104 3 79 8 105 28 142 14 25 28 47
33 48 4 2 7 7 7 12 0 10 62 113 94 155 14 18 26 44 26 57 -1 20 -3 19 -20 -12
-11 -19 -19 -29 -20 -21 0 11 -5 10 -20 -4 -11 -10 -20 -23 -20 -29 0 -6 -9
-17 -20 -24 -20 -12 -21 -10 -19 25 1 21 15 60 31 87 33 55 122 146 143 146 8
0 18 6 22 13 4 8 40 32 78 55 115 67 110 62 107 128 -4 79 -19 94 -67 68 -19
-10 -35 -22 -35 -26 0 -5 -7 -8 -15 -8 -9 0 -25 -23 -39 -54 -13 -30 -33 -63
-43 -73 -11 -11 -22 -26 -25 -35 -6 -16 -56 -34 -66 -24 -4 5 39 170 58 221 4
11 11 33 16 49 9 29 132 171 170 197 12 8 40 27 63 42 23 15 50 41 60 57 10
17 21 27 24 24 4 -4 24 12 46 35 21 22 33 41 26 41 -7 0 -15 19 -18 45 -7 48
-1 75 16 75 5 0 26 18 45 40 18 22 47 47 64 56 27 14 32 14 54 -1 26 -16 33
-55 11 -55 -8 0 -28 -27 -45 -59 -29 -56 -30 -59 -11 -64 10 -3 19 -1 19 4 0
5 9 9 20 9 58 0 178 87 200 144 5 14 14 26 19 26 17 0 51 -52 51 -78 0 -25
-33 -62 -56 -62 -7 0 -16 -9 -19 -20 -3 -11 -12 -20 -20 -20 -7 0 -23 -25 -35
-55 -18 -44 -31 -59 -67 -81 -43 -25 -44 -26 -27 -45 9 -10 23 -19 31 -19 27
0 11 -26 -32 -52 -25 -15 -49 -38 -54 -51 -11 -29 -36 -50 -53 -45 -7 3 -28
-12 -47 -34 -18 -21 -37 -36 -41 -33 -15 9 3 61 36 104 32 41 45 91 25 91 -5
0 -21 -27 -37 -60 -21 -43 -40 -66 -71 -85 -37 -24 -43 -33 -58 -93 -9 -37
-21 -77 -25 -89 -7 -17 -2 -31 21 -62 16 -23 32 -41 37 -41 22 0 112 34 160
60 31 16 59 30 64 30 5 0 25 11 46 23 29 18 44 22 66 16 39 -11 59 2 75 47 22
60 66 125 116 173 34 31 44 46 36 54 -18 18 -13 44 30 129 67 137 87 165 168
244 41 40 66 56 103 64 26 7 48 15 48 19 0 4 26 15 58 26 54 17 111 43 122 55
21 22 97 70 112 70 10 0 18 4 18 9 0 18 61 26 76 11z m-5876 -55 c10 3 41 -3
70 -14 54 -21 66 -20 173 7 33 9 37 8 37 -9 0 -10 -6 -19 -13 -19 -8 0 -20
-11 -27 -25 -8 -15 -20 -23 -27 -20 -8 2 -26 -7 -41 -22 l-27 -27 -3 31 c-3
26 -8 32 -33 35 -33 5 -54 -18 -43 -46 3 -8 1 -23 -5 -33 -8 -15 -10 -10 -11
25 0 45 -12 54 -32 22 -7 -11 -20 -20 -30 -20 -9 0 -23 -12 -30 -27 -7 -16
-21 -28 -29 -28 -13 0 -45 -31 -76 -74 -2 -3 -8 0 -13 5 -6 6 -4 28 6 59 9 32
11 51 4 53 -5 2 -10 8 -10 14 0 6 7 4 17 -3 13 -11 17 -11 21 -1 2 7 10 19 18
26 15 15 19 37 7 34 -5 0 -16 2 -25 6 -16 7 -16 10 0 42 l16 35 18 -23 c10
-13 18 -17 18 -10 0 6 6 12 14 12 8 0 17 8 22 18 7 15 8 14 12 -6 2 -17 8 -21
22 -17z m-4482 -37 c7 -7 12 -22 12 -35 0 -19 -5 -23 -31 -23 -39 0 -69 -16
-69 -38 0 -9 20 -37 44 -62 46 -48 67 -93 57 -124 -7 -17 -9 -16 -24 7 -9 15
-17 33 -17 41 0 8 -9 18 -20 21 -11 3 -20 12 -20 20 0 7 -24 24 -52 38 -46 21
-58 33 -86 86 -33 60 -33 61 -11 61 12 0 31 -7 40 -16 17 -15 22 -15 66 9 52
28 92 34 111 15z m2111 -2 c28 -15 129 -125 149 -163 22 -40 12 -45 -25 -14
-21 17 -45 31 -54 31 -20 0 -77 62 -71 78 2 7 -2 12 -10 12 -7 0 -24 9 -38 19
-20 16 -22 21 -11 35 16 20 24 20 60 2z m-2799 -35 c0 -5 -8 -17 -17 -27 -10
-10 -19 -22 -19 -28 -1 -6 -2 -17 -3 -23 0 -7 -10 -13 -20 -13 -11 0 -23 -5
-26 -10 -4 -6 -10 -8 -15 -5 -12 7 -50 -17 -50 -31 0 -7 -13 -17 -30 -23 -29
-10 -30 -9 -30 23 0 20 8 40 20 51 11 10 22 26 25 35 3 10 25 28 48 39 43 21
117 29 117 12z m8517 -25 c45 -12 53 -12 67 2 12 13 20 13 38 4 39 -20 87 -49
102 -61 11 -9 17 -8 30 4 9 9 16 21 16 26 0 6 5 7 10 4 7 -4 6 -14 -2 -28 -15
-27 -12 -50 12 -99 12 -26 14 -39 6 -42 -6 -2 -3 -5 6 -5 23 -1 48 -39 48 -73
0 -40 -15 -34 -34 12 -9 23 -24 44 -34 47 -9 4 -23 15 -30 25 -7 10 -24 18
-37 18 -14 0 -29 8 -35 20 -6 11 -22 23 -35 26 -14 3 -29 14 -35 23 -13 24
-29 3 -38 -49 -4 -24 -12 -45 -18 -47 -6 -2 -25 8 -42 22 -33 28 -62 33 -62
11 0 -8 -9 -18 -20 -21 -11 -3 -20 -13 -20 -21 0 -20 -42 -36 -55 -20 -5 7
-18 15 -28 19 -9 3 -16 12 -15 19 2 7 -4 13 -12 12 -12 -1 -16 11 -17 47 -1
49 -1 49 44 69 24 11 58 31 75 45 34 29 44 30 115 11z m-4353 -52 c14 -35 6
-94 -15 -115 -15 -15 -24 -18 -32 -10 -18 18 -24 13 -30 -30 -6 -44 -15 -59
-39 -63 -8 -1 -42 -33 -77 -70 -50 -56 -61 -74 -57 -95 14 -79 16 -100 6 -106
-6 -4 -10 5 -10 20 0 32 -40 105 -57 105 -7 0 -13 6 -13 13 0 7 -13 27 -29 43
-42 43 -49 79 -20 103 23 19 24 19 41 -10 10 -16 21 -29 25 -29 10 0 29 46 37
88 4 24 25 52 71 96 35 35 67 61 70 58 13 -13 -12 -56 -60 -105 -61 -61 -114
-161 -98 -185 17 -28 27 -22 63 31 19 29 63 80 97 115 35 34 63 70 63 80 0 21
36 82 49 82 5 0 12 -7 15 -16z m556 -29 c0 -37 -38 -103 -71 -122 -16 -10 -29
-20 -29 -24 0 -7 -117 -122 -128 -127 -11 -3 -33 59 -25 71 4 6 11 3 19 -7 11
-16 13 -16 26 0 7 10 36 41 65 69 28 29 59 69 68 91 29 70 75 100 75 49z
m2185 6 c116 -14 152 -53 157 -170 2 -47 -2 -65 -15 -78 -16 -16 -17 -16 -17
0 0 9 -4 17 -10 17 -5 0 -10 -4 -10 -10 0 -19 -17 -10 -28 15 -6 14 -18 25
-27 25 -11 0 -15 11 -15 43 0 23 -4 48 -9 55 -13 21 -44 10 -48 -16 -4 -29
-35 -72 -48 -68 -5 1 -26 32 -47 67 -35 61 -35 65 -20 89 22 35 44 50 62 44 8
-4 42 -9 75 -13z m-6655 -31 c0 -5 8 -17 19 -27 22 -22 36 -74 22 -82 -9 -6
-14 -44 -21 -142 0 -10 -44 -26 -58 -22 -23 9 -45 64 -34 87 6 11 13 47 15 80
3 47 9 62 27 76 13 10 20 22 16 29 -4 6 -2 11 3 11 6 0 11 -4 11 -10z m1810
-36 c103 -55 120 -70 120 -103 1 -25 1 -25 15 6 8 19 31 42 62 59 26 15 63 40
81 56 32 28 92 39 92 17 0 -5 -4 -8 -8 -5 -5 3 -20 -6 -35 -20 -14 -13 -30
-24 -35 -24 -5 0 -18 -11 -29 -24 -11 -13 -34 -31 -50 -41 -61 -36 -79 -118
-28 -127 17 -4 30 2 43 19 23 29 122 96 130 88 6 -6 -49 -64 -62 -65 -4 0 -17
-11 -28 -25 -11 -14 -26 -25 -34 -25 -19 0 -18 -6 7 -57 20 -42 42 -55 52 -30
3 6 18 20 35 29 25 15 32 16 41 4 8 -10 5 -22 -15 -51 -14 -21 -30 -49 -35
-63 -10 -27 -14 -24 -63 41 -16 20 -37 37 -47 37 -10 0 -24 9 -31 20 -7 11
-18 20 -24 20 -5 0 -23 13 -38 29 -21 22 -26 34 -20 55 5 22 3 26 -14 26 -12
0 -24 -5 -28 -12 -5 -7 -16 0 -33 21 -29 36 -61 34 -61 -3 -1 -21 -1 -21 -20
3 -22 26 -28 105 -9 117 8 4 8 9 0 17 -8 8 -18 4 -35 -12 -26 -24 -43 -14 -27
16 5 10 12 26 15 36 8 25 22 22 116 -29z m1434 -38 c40 -85 41 -98 7 -123
l-29 -22 -14 21 c-14 21 -15 21 -40 2 -15 -10 -34 -32 -44 -48 -16 -28 -18
-28 -30 -11 -8 11 -14 43 -14 74 0 62 32 120 84 152 38 23 51 16 80 -45z
m2193 34 c6 0 33 -10 60 -21 26 -12 62 -21 78 -20 35 2 93 -41 63 -47 -9 -2
-28 4 -42 14 -25 16 -26 16 -26 -6 0 -12 5 -30 11 -42 12 -21 4 -68 -11 -68
-17 0 -110 97 -110 115 0 12 -5 15 -16 11 -9 -4 -23 -1 -31 6 -12 10 -18 9
-29 -6 -13 -18 -14 -18 -51 1 -37 20 -45 44 -23 67 17 17 84 23 101 9 8 -7 20
-13 26 -13z m-461 -5 c-15 -14 -35 -25 -46 -25 -17 0 -70 -52 -70 -69 0 -4 5
-12 11 -18 8 -8 4 -15 -17 -26 -45 -24 -102 -85 -114 -123 -11 -33 -30 -47
-30 -21 0 35 25 91 61 139 22 29 42 63 45 76 4 12 11 22 17 22 6 0 21 9 33 21
23 22 86 48 118 49 16 0 15 -3 -8 -25z m-1946 -21 c0 -3 -7 -13 -16 -21 -11
-11 -14 -26 -10 -45 6 -32 -22 -105 -49 -128 -13 -10 -15 -9 -15 8 0 26 -10
52 -20 52 -5 0 -18 -15 -29 -34 -12 -18 -30 -36 -40 -39 -10 -2 -31 -30 -47
-63 l-28 -59 -4 38 c-3 31 -7 37 -27 37 -16 0 -35 14 -57 41 -45 54 -102 115
-106 111 -6 -7 -18 5 -34 36 -15 27 -15 32 -2 32 19 0 101 -76 109 -101 4 -10
10 -19 14 -19 13 0 81 -67 81 -80 0 -20 20 1 35 37 19 45 54 87 113 134 56 44
132 81 132 63z m2150 -39 c0 -8 7 -15 15 -15 8 0 15 -3 15 -8 0 -4 -15 -7 -32
-7 -18 0 -33 -4 -34 -10 -1 -22 -40 -75 -55 -75 -15 0 -28 -20 -44 -65 -6 -18
-9 -16 -19 12 -11 31 -11 31 -33 14 -12 -10 -25 -30 -28 -44 -8 -29 -30 -52
-53 -52 -8 0 -22 -20 -32 -45 -12 -31 -24 -45 -37 -45 -29 -1 -65 -34 -92 -85
-13 -25 -31 -54 -39 -65 -13 -18 -14 -16 -8 25 7 48 85 211 122 253 12 14 63
46 113 71 72 37 91 51 93 69 0 12 2 28 2 34 2 21 31 44 72 58 42 14 74 6 74
-20z m-1810 8 c0 -5 18 -19 39 -32 35 -21 39 -28 44 -78 3 -30 4 -60 1 -67 -5
-14 -34 -18 -34 -4 0 4 -4 8 -9 8 -5 0 -23 13 -39 29 -25 26 -29 36 -27 83 3
68 3 68 15 68 6 0 10 -3 10 -7z m1081 -87 c-12 -25 -21 -50 -21 -55 0 -6 -4
-11 -10 -11 -5 0 -10 -7 -10 -15 0 -8 -4 -15 -9 -15 -5 0 -28 -34 -51 -75 -23
-41 -45 -75 -50 -75 -5 0 -12 -9 -15 -20 -12 -38 -23 -20 -27 43 -2 46 1 70
14 92 18 31 69 75 87 75 6 0 20 19 32 43 12 23 33 55 48 70 24 26 26 27 29 9
2 -11 -6 -41 -17 -66z m3565 51 c9 -9 1 -18 -18 -21 -13 -1 -26 -10 -63 -43
-7 -7 -19 -13 -25 -13 -6 0 -19 -19 -30 -42 -10 -24 -19 -37 -19 -30 -1 6 -8
12 -16 12 -8 0 -17 11 -21 24 -9 36 -31 22 -38 -25 -4 -25 -12 -39 -21 -39 -8
0 -15 -6 -15 -14 0 -8 -13 -28 -30 -44 -16 -17 -30 -35 -30 -41 0 -20 -23 -24
-36 -6 -12 17 -14 16 -24 -9 -12 -32 -22 -46 -75 -97 -50 -48 -55 -34 -26 69
24 87 30 96 121 180 83 77 90 80 148 81 34 1 52 8 82 34 31 26 46 32 83 32 25
0 49 -4 53 -8z m-6596 -48 c-2 -8 -5 -32 -6 -54 -1 -51 -13 -95 -26 -95 -5 0
-19 5 -30 11 -20 11 -20 9 -14 -34 5 -34 4 -46 -8 -50 -9 -4 -16 3 -20 19 -8
32 -30 31 -54 -3 -18 -25 -22 -26 -46 -15 -24 11 -26 10 -26 -14 0 -14 5 -34
10 -45 8 -13 7 -25 -1 -41 l-12 -23 -10 23 c-13 30 -35 28 -47 -4 -8 -20 -15
-25 -30 -21 -13 3 -24 -1 -30 -14 -14 -25 -36 -24 -50 1 -15 28 -24 20 -71
-65 -39 -71 -64 -96 -72 -72 -2 7 -1 19 3 27 4 8 17 36 28 61 23 53 109 150
164 185 20 13 58 27 84 31 42 7 49 12 56 38 12 47 38 87 75 119 55 47 145 71
133 35z m980 12 c0 -5 10 -13 22 -17 52 -16 76 -95 43 -138 -8 -11 -15 -32
-15 -47 0 -15 -4 -30 -9 -33 -15 -10 -72 50 -65 68 3 9 1 16 -5 16 -14 0 -14
35 0 61 7 15 7 24 -1 33 -7 9 -7 22 0 40 9 25 30 36 30 17z m-800 -88 c16 -14
20 -30 20 -85 0 -37 -5 -70 -10 -73 -6 -4 -27 3 -46 14 -19 12 -42 21 -50 21
-8 0 -14 9 -14 19 0 11 -4 23 -10 26 -15 9 -12 26 10 63 23 37 66 44 100 15z
m1453 -30 c-10 -21 -25 -47 -35 -58 -12 -14 -14 -25 -8 -35 16 -25 11 -39 -10
-33 -14 4 -24 -3 -37 -26 -10 -17 -25 -31 -34 -31 -9 0 -24 -9 -34 -20 -10
-11 -24 -20 -30 -20 -14 0 -39 -34 -70 -94 -34 -66 -39 -62 -100 77 -9 21 -14
41 -11 44 9 9 44 -39 51 -69 9 -39 22 -35 35 12 24 88 67 166 113 204 26 21
51 35 56 32 6 -4 36 7 67 24 31 16 58 30 60 30 2 0 -4 -17 -13 -37z m5553 27
c5 -5 34 -13 64 -17 51 -8 56 -11 73 -47 10 -21 34 -54 53 -74 30 -31 32 -37
19 -45 -18 -10 -55 16 -55 38 0 7 -20 18 -44 24 -31 7 -47 18 -51 32 -5 16
-13 20 -35 17 -24 -4 -29 0 -33 21 -3 14 -9 34 -12 44 -8 18 5 23 21 7z
m-4806 -71 c0 -35 -38 -113 -76 -156 -24 -28 -44 -55 -44 -60 0 -5 11 -20 24
-32 l25 -23 39 41 c21 22 46 41 55 41 10 0 17 -2 17 -5 0 -12 -24 -55 -32 -55
-4 0 -8 -10 -8 -23 0 -13 -9 -33 -20 -45 -11 -12 -20 -30 -20 -40 0 -29 -38
-36 -42 -8 -2 13 -10 20 -21 20 -9 -1 -18 4 -18 12 -1 8 -2 18 -3 24 0 5 -11
20 -23 32 -13 13 -35 38 -49 56 -22 27 -31 32 -54 27 -24 -5 -29 -2 -44 29 -9
18 -16 41 -16 49 0 9 -4 19 -10 22 -5 3 -10 17 -10 30 0 22 3 23 23 15 12 -5
38 -11 59 -15 20 -3 39 -13 42 -21 3 -9 13 -14 21 -10 17 6 29 -10 29 -39 1
-39 21 -26 53 36 40 78 103 138 103 98z m656 -76 c-3 -35 -12 -67 -25 -84 -12
-16 -21 -32 -21 -37 0 -4 -9 -27 -20 -50 -11 -22 -20 -48 -20 -57 0 -8 -4 -15
-9 -15 -5 0 -16 -3 -24 -6 -15 -6 -14 10 8 84 9 28 -8 29 -35 0 -11 -12 -21
-20 -22 -17 -2 2 -13 18 -26 36 -25 37 -29 51 -7 33 27 -22 77 11 128 86 29
43 64 84 73 84 2 0 2 -26 0 -57z m4045 18 c19 -11 40 -33 47 -49 13 -31 65
-59 117 -64 29 -3 30 -4 27 -48 -2 -35 2 -51 17 -69 12 -13 21 -33 21 -45 0
-12 3 -32 5 -46 3 -14 2 -18 -1 -10 -9 21 -95 99 -118 106 -27 9 -39 -9 -25
-39 8 -18 8 -33 1 -54 l-10 -28 -7 33 c-6 27 -12 33 -27 29 -11 -3 -21 0 -24
8 -3 7 -14 11 -26 7 -14 -3 -27 4 -44 24 -26 32 -29 55 -13 86 15 28 0 38 -18
11 -21 -31 -28 -29 -53 12 l-22 35 33 38 c17 20 42 42 53 49 19 11 16 12 -26
13 -43 0 -49 -3 -63 -30 -16 -31 -35 -40 -35 -17 0 7 6 19 13 26 10 11 10 14
0 18 -24 9 -13 20 16 15 16 -2 32 1 36 8 11 17 84 6 126 -19z m-6185 -46 c4
-23 1 -46 -10 -69 -9 -19 -16 -39 -16 -45 0 -6 -8 -11 -18 -11 -10 0 -27 -6
-38 -14 -16 -13 -21 -12 -36 1 -29 26 -68 4 -97 -55 -14 -29 -33 -54 -42 -57
-9 -3 -17 -12 -18 -20 -6 -37 -4 -102 4 -119 5 -13 5 -17 -2 -13 -6 4 -23 32
-39 64 -30 62 -82 126 -95 117 -5 -3 -18 0 -30 7 -17 9 -23 8 -30 -2 -6 -10
-9 -7 -9 12 0 28 -45 89 -66 89 -8 0 -14 -11 -14 -25 0 -27 -21 -34 -38 -12
-15 18 -17 59 -4 84 7 12 12 29 12 38 0 13 8 16 44 13 47 -4 81 -23 125 -68
15 -17 31 -30 34 -30 3 0 13 23 23 51 21 58 36 74 58 62 14 -8 12 -16 -14 -66
-17 -32 -30 -69 -30 -81 0 -28 49 -139 49 -113 1 10 9 30 18 45 19 30 140 149
160 157 7 2 13 10 13 18 0 19 68 76 92 77 4 0 10 -16 14 -35z m-2040 -2 c18
-16 34 -32 34 -37 0 -4 14 -24 30 -43 17 -18 30 -42 30 -53 0 -10 4 -20 9 -22
19 -7 111 -164 111 -189 0 -25 -28 -3 -47 39 -32 66 -57 105 -68 105 -6 0 -16
-12 -23 -27 -14 -28 -39 -35 -48 -12 -3 7 -6 30 -7 49 -1 19 -4 35 -7 35 -50
-3 -60 3 -60 35 0 17 -11 54 -25 81 -13 27 -22 53 -19 58 11 17 56 7 90 -19z
m7120 -8 c3 -14 3 -40 0 -58 -4 -17 -9 -54 -12 -82 -9 -87 -12 -94 -46 -103
-24 -6 -34 -16 -45 -47 -7 -21 -19 -42 -25 -46 -9 -6 -6 -13 9 -27 20 -17 37
-18 235 -14 l213 4 23 29 c27 33 68 64 100 73 19 7 22 4 22 -22 0 -16 -7 -35
-15 -42 -24 -20 -18 -49 18 -83 47 -45 76 -101 83 -161 3 -17 8 -32 13 -35 5
-4 12 -21 16 -39 3 -18 17 -45 29 -60 23 -28 36 -57 81 -182 36 -101 65 -159
98 -198 15 -18 27 -39 27 -47 0 -8 6 -15 14 -15 8 0 26 -15 40 -32 32 -40 40
-49 61 -66 18 -15 20 -69 3 -124 -10 -34 -9 -44 10 -82 22 -44 31 -146 13
-146 -5 0 -17 21 -27 48 -10 26 -22 52 -27 59 -5 7 -6 17 -3 22 4 6 -2 15 -12
20 -11 6 -24 30 -31 58 -7 26 -20 57 -30 68 -10 11 -30 52 -45 90 -30 77 -111
231 -126 240 -6 3 -10 15 -10 25 0 11 -13 45 -28 77 -16 32 -35 78 -42 103 -7
25 -25 70 -41 101 -16 31 -29 64 -29 73 0 9 -4 16 -8 16 -4 0 -14 16 -21 35
-7 19 -16 35 -21 35 -8 0 -50 -82 -70 -135 -17 -47 -70 -214 -80 -255 -7 -25
-24 -75 -40 -111 -15 -36 -31 -85 -35 -109 -8 -50 -30 -106 -45 -115 -5 -3
-10 -15 -10 -26 0 -11 -9 -41 -21 -67 -33 -76 -35 -82 -65 -182 -16 -52 -33
-98 -38 -102 -5 -3 -10 -14 -11 -25 -1 -10 -5 -25 -8 -33 -3 -8 -13 -37 -22
-65 -15 -48 -34 -98 -92 -240 l-26 -65 -92 0 c-50 0 -116 4 -146 9 -54 10
-179 19 -319 25 -41 2 -154 9 -250 15 -96 6 -245 15 -330 20 -194 11 -257 19
-296 37 -17 7 -67 15 -110 18 -104 5 -134 13 -127 34 5 11 2 14 -10 9 -9 -3
-18 -3 -21 2 -3 4 -23 6 -45 5 -23 -1 -41 2 -41 6 0 4 -12 12 -27 18 -16 6
-37 14 -48 18 -11 4 -26 6 -33 5 -7 -1 -33 9 -57 22 -24 14 -46 22 -50 19 -3
-3 -11 -7 -18 -9 -44 -9 -87 -30 -87 -40 0 -7 -8 -13 -19 -13 -10 0 -24 -6
-30 -13 -6 -8 -36 -20 -66 -27 -30 -7 -55 -16 -55 -19 0 -4 -8 -8 -17 -9 -10
0 -43 -6 -73 -12 -30 -5 -84 -14 -120 -19 -36 -6 -77 -14 -90 -19 -14 -5 -54
-13 -90 -17 -36 -4 -74 -13 -85 -20 -11 -7 -43 -16 -71 -19 l-51 -7 -86 113
c-48 62 -109 142 -135 178 -27 36 -69 81 -95 100 -26 19 -47 43 -47 53 0 34
-39 94 -89 136 -38 32 -51 50 -51 70 0 19 -16 43 -58 84 -32 31 -63 57 -70 57
-7 0 -12 -12 -12 -27 0 -53 -21 -7 -31 66 -10 87 -22 110 -119 231 -11 14 -20
29 -20 34 0 17 -53 89 -87 119 -18 16 -33 36 -33 46 -1 9 -23 40 -50 70 -28
31 -55 71 -60 92 -12 42 -104 149 -129 149 -17 -1 -71 -44 -71 -57 0 -5 -20
-31 -45 -58 -25 -28 -53 -62 -61 -78 -8 -15 -38 -51 -67 -80 -72 -73 -167
-192 -189 -239 -10 -21 -25 -38 -32 -38 -20 0 -111 -104 -173 -198 -30 -46
-63 -86 -72 -89 -24 -9 -58 -52 -81 -101 -11 -24 -24 -41 -30 -37 -11 7 -65
-44 -108 -103 -16 -23 -32 -39 -35 -36 -3 3 -11 -5 -18 -18 -7 -12 -39 -49
-71 -82 -32 -33 -58 -63 -58 -68 0 -4 -19 -8 -42 -8 -41 0 -54 -3 -168 -41
-30 -10 -79 -20 -108 -23 -28 -4 -71 -13 -95 -21 -23 -8 -52 -15 -65 -15 -12
0 -39 -7 -58 -15 l-35 -15 -20 46 -20 45 23 41 c13 22 38 49 57 59 19 10 39
23 45 29 5 5 20 10 32 10 23 0 71 18 147 55 l48 24 -25 17 c-14 9 -36 14 -49
12 -21 -4 -22 -2 -19 49 2 29 8 53 13 53 5 0 9 -6 9 -12 0 -10 3 -9 9 1 7 11
11 10 20 -6 15 -28 33 -34 136 -44 148 -13 152 -12 279 113 60 59 117 119 125
132 26 38 124 151 240 276 28 30 51 58 51 62 0 4 15 22 33 40 44 44 69 86 61
100 -4 6 -3 8 3 5 6 -4 22 8 36 26 14 17 33 41 44 52 10 11 34 40 53 65 19 25
37 47 41 50 4 3 16 20 27 38 11 18 57 74 103 125 l84 91 0 85 c0 48 -4 89 -8
92 -5 3 -1 13 7 22 9 8 16 25 16 36 0 11 12 29 28 40 15 11 34 27 42 35 9 8
28 17 43 20 22 4 28 1 32 -20 3 -13 7 -34 10 -46 2 -13 18 -38 36 -57 29 -32
31 -39 27 -88 -5 -61 5 -73 66 -73 40 0 57 18 33 35 -20 14 -23 44 -4 46 36 3
55 -5 87 -40 34 -37 98 -63 145 -60 49 3 239 -11 276 -21 23 -6 120 -12 217
-13 l175 -2 14 55 c13 54 55 130 71 130 5 0 13 -23 19 -51 9 -48 8 -53 -14
-75 -13 -13 -28 -24 -32 -24 -15 0 -21 -30 -8 -35 15 -6 69 -12 173 -21 l80
-7 15 30 c8 16 24 43 37 59 12 16 42 58 65 94 29 45 61 78 105 109 35 24 66
41 69 38 9 -10 -34 -94 -52 -101 -11 -4 -15 -15 -13 -33 2 -22 -2 -28 -21 -33
-18 -4 -27 -17 -38 -52 -15 -54 -29 -67 -47 -43 -11 16 -15 14 -44 -15 -18
-17 -30 -35 -28 -39 5 -7 284 -7 290 0 1 2 17 25 35 52 39 57 72 65 62 15 -4
-18 -13 -33 -21 -33 -7 0 -15 -5 -17 -12 -3 -7 15 -14 50 -18 70 -9 103 -4 98
15 -9 38 -10 139 -1 145 5 3 10 17 10 31 0 14 7 32 15 40 8 9 15 12 15 7 0 -4
14 -24 30 -43 30 -35 48 -90 35 -110 -4 -6 -2 -16 3 -23 6 -7 12 -28 14 -47 2
-19 7 -33 11 -30 11 6 37 -42 30 -53 -6 -10 537 2 590 13 34 7 38 6 43 -17 6
-21 0 -213 -8 -293 -3 -24 0 -25 42 -24 25 1 73 2 108 3 47 1 67 6 81 20 13
13 21 16 24 8 4 -11 56 39 155 150 113 127 151 163 168 164 10 0 14 3 7 5 -11
5 -10 40 3 104 l6 25 24 -28 c13 -15 27 -40 31 -55 11 -48 27 -52 168 -46 241
9 404 20 410 26 4 3 1 15 -6 25 -10 16 -5 33 30 106 23 47 53 102 67 122 15
23 24 50 24 75 0 67 23 96 36 45z m-706 -13 c49 -33 90 -75 90 -93 0 -9 5 -19
11 -21 14 -5 23 -98 11 -116 -7 -11 -15 -9 -37 11 -15 14 -35 32 -45 40 -10 9
-22 37 -26 64 -4 26 -15 63 -25 81 -31 54 -24 65 21 34z m-6903 -161 c1 -18 8
-41 16 -50 8 -9 17 -35 19 -58 3 -36 1 -43 -14 -43 -10 0 -19 -8 -19 -17 -2
-34 -4 -38 -31 -66 -15 -16 -31 -26 -36 -23 -12 7 -24 104 -23 181 1 64 14 99
45 128 19 17 20 17 30 0 6 -10 11 -33 13 -52z m-292 1 c17 -20 35 -48 41 -62
36 -79 45 -110 39 -121 -6 -8 -4 -10 5 -4 10 6 11 0 6 -31 -9 -48 -22 -63 -31
-35 -3 11 -18 33 -33 49 -64 67 -82 93 -82 122 0 16 5 30 10 30 18 0 11 57 -7
64 -15 6 -15 8 -3 16 21 14 22 13 55 -28z m3571 -7 c4 -8 9 -13 13 -11 3 2 6
-9 7 -24 1 -20 -5 -30 -17 -33 -13 -4 -19 -14 -19 -35 0 -21 -6 -31 -19 -35
-15 -4 -18 -10 -14 -28 5 -18 3 -21 -11 -16 -12 5 -22 -3 -37 -28 -12 -19 -25
-35 -30 -35 -5 0 -11 -11 -15 -25 -6 -24 -34 -36 -34 -15 0 6 -6 10 -13 10
-14 0 -60 -69 -97 -145 -28 -58 -37 -44 -21 31 16 71 33 102 76 144 27 26 35
42 35 68 0 73 69 158 148 182 39 12 42 12 48 -5z m-1536 -77 c47 -16 69 -41
76 -88 5 -31 3 -40 -8 -40 -8 0 -20 -12 -27 -26 -9 -21 -16 -25 -37 -20 -17 5
-23 3 -19 -4 3 -5 2 -10 -2 -10 -18 0 -34 44 -32 90 2 28 0 52 -3 55 -11 11
-38 -8 -44 -31 -8 -33 -36 -32 -31 1 2 16 19 35 47 54 25 17 45 31 46 31 1 0
16 -5 34 -12z m-1218 -100 c20 -21 40 -38 45 -38 5 0 17 -16 26 -35 9 -19 22
-35 28 -35 6 0 9 -6 6 -12 -2 -8 -16 -12 -36 -10 -18 2 -38 -1 -45 -8 -11 -8
-18 -4 -34 22 -11 18 -23 43 -26 55 -4 11 -18 29 -32 38 -15 10 -22 20 -17 28
8 13 10 19 12 43 1 20 15 11 73 -48z m977 -14 c6 -15 9 -29 7 -32 -3 -3 4 -21
16 -40 l21 -35 -52 5 c-47 5 -53 3 -61 -17 -10 -25 -33 -37 -55 -29 -9 4 -15
0 -15 -9 0 -18 -5 -22 -42 -31 -23 -5 -28 -3 -28 12 0 11 7 33 16 51 17 35 87
111 102 111 5 0 19 9 32 20 31 27 44 25 59 -6z m631 -96 c0 -4 6 -8 13 -8 7 0
22 -21 32 -46 11 -26 31 -63 46 -84 25 -34 56 -98 88 -177 16 -39 27 -42 34
-10 14 60 60 175 82 203 14 18 25 37 25 42 0 14 39 46 47 38 4 -4 3 -10 -3
-14 -6 -4 -17 -38 -25 -77 -11 -54 -20 -72 -36 -80 -13 -5 -24 -22 -27 -40 -6
-29 -52 -125 -66 -135 -3 -3 -14 -23 -22 -45 l-16 -40 0 35 c0 19 5 40 10 47
6 7 2 24 -9 46 -36 70 -159 217 -181 217 -16 0 -32 34 -32 67 0 15 -9 42 -19
59 l-19 31 39 -11 c22 -5 39 -14 39 -18z m-1961 -136 c13 -10 13 -14 2 -21
-10 -6 -10 -10 -2 -16 8 -4 11 -28 9 -63 -3 -51 -6 -58 -30 -69 -18 -8 -28
-20 -28 -33 0 -35 -27 -22 -50 24 -15 32 -19 55 -15 78 3 18 7 44 8 58 3 42
75 97 86 65 2 -5 11 -16 20 -23z m473 -130 c10 -20 33 -64 53 -97 19 -33 35
-73 35 -90 0 -30 0 -29 -47 24 -27 30 -50 64 -53 75 -3 12 -20 28 -37 36 -41
19 -50 49 -22 73 32 26 52 21 71 -21z m10413 6 c-3 -19 0 -51 8 -73 17 -51 11
-73 -35 -125 -21 -23 -38 -48 -38 -55 0 -8 -10 -20 -22 -26 -32 -17 -36 -25
-43 -90 -6 -47 -3 -66 15 -106 24 -52 26 -99 5 -149 -17 -41 -13 -70 18 -125
l26 -46 -21 -17 c-16 -14 -22 -15 -29 -5 -4 7 -5 17 -3 21 3 4 -6 8 -20 8 -14
0 -26 5 -26 10 0 6 -7 10 -16 10 -10 0 -14 6 -10 15 7 19 1 19 -19 -1 -15 -15
-15 -14 -9 11 6 24 4 26 -13 21 -11 -4 -31 -2 -45 3 -38 14 -78 2 -89 -27 -15
-38 -3 -70 42 -114 21 -21 39 -41 39 -44 0 -3 12 -30 26 -60 32 -69 26 -96
-19 -87 -34 7 -49 21 -40 38 4 5 3 7 -1 4 -9 -8 -54 33 -49 44 8 15 -18 6 -36
-12 -13 -13 -27 -18 -43 -14 -21 6 -22 5 -8 -12 11 -14 11 -17 1 -11 -26 16
-31 -17 -8 -59 23 -40 25 -75 5 -75 -7 0 -7 -5 -1 -12 5 -7 14 -25 20 -39 11
-26 11 -26 -35 -25 -45 1 -48 -1 -77 -46 -16 -26 -35 -48 -42 -48 -17 0 -63
-59 -63 -81 0 -10 5 -19 10 -19 6 0 10 4 10 8 0 5 12 14 26 20 72 33 98 -66
44 -169 -24 -47 -24 -49 -5 -49 8 0 15 8 15 17 0 28 14 4 37 -64 17 -52 20
-71 11 -87 l-11 -21 -10 23 c-6 12 -14 22 -19 22 -4 0 -8 8 -8 18 0 10 -11 25
-25 32 -22 12 -29 11 -53 -7 -22 -17 -28 -31 -35 -84 -9 -74 -9 -121 0 -128 3
-4 8 0 10 7 9 24 22 11 47 -45 32 -71 96 -132 165 -157 28 -10 51 -21 51 -25
0 -3 -27 -19 -60 -35 -33 -16 -60 -33 -60 -38 0 -4 -6 -8 -14 -8 -25 0 -78
-76 -102 -145 -6 -18 -7 -18 -14 6 -14 47 -67 119 -89 119 -13 0 -22 -28 -11
-35 13 -8 13 -42 -1 -50 -6 -4 -21 2 -33 14 -12 12 -35 21 -50 21 -27 0 -27 0
-21 54 7 54 7 54 -21 58 l-29 3 3 67 c5 79 -1 93 -30 77 -16 -9 -27 -6 -56 15
-20 14 -38 23 -41 21 -6 -7 19 -234 30 -269 5 -17 5 -32 1 -35 -22 -15 -36
-62 -37 -124 -1 -55 -5 -71 -23 -90 -32 -31 -56 -14 -60 44 -2 24 -7 48 -13
53 -5 6 -9 35 -9 66 0 42 -5 59 -19 72 -17 15 -21 15 -41 1 -12 -8 -34 -13
-49 -11 l-28 4 2 -128 c0 -70 -2 -128 -6 -128 -4 0 -11 -9 -14 -20 -4 -12 -16
-30 -28 -40 -11 -11 -18 -20 -14 -20 4 0 1 -15 -6 -32 -8 -18 -12 -39 -9 -47
3 -8 0 -11 -7 -7 -6 4 -11 2 -11 -3 0 -6 -7 -11 -16 -11 -20 0 -15 52 8 96 16
29 16 32 -3 63 -10 17 -19 39 -19 49 0 20 -18 42 -35 42 -17 0 -37 -49 -29
-72 3 -11 1 -32 -6 -48 -11 -26 -14 -27 -43 -19 -18 5 -35 9 -39 9 -17 0 -36
-60 -42 -134 -5 -55 -13 -88 -27 -108 -29 -40 -39 -35 -39 21 0 27 -3 57 -6
66 -6 14 -8 14 -25 -1 -11 -9 -19 -27 -19 -40 0 -42 -10 -54 -41 -47 -26 5
-29 3 -29 -19 0 -14 -13 -42 -29 -62 -16 -20 -32 -52 -35 -71 -7 -34 -36 -51
-36 -20 0 8 -9 19 -20 25 -26 14 -27 57 -1 65 14 4 19 19 24 63 10 116 63 292
86 292 15 0 81 73 81 90 1 36 51 154 77 180 15 16 28 32 28 37 0 4 12 24 28
44 15 20 27 45 27 56 0 12 7 23 15 27 8 3 15 15 15 27 0 12 7 29 15 38 25 26
65 78 65 84 0 3 -8 8 -17 10 -12 3 -9 5 8 6 24 1 54 27 77 67 7 12 12 14 12 5
0 -8 9 -3 21 13 15 19 26 25 44 20 17 -4 30 2 49 23 14 15 26 34 26 42 0 7 13
28 29 46 16 18 31 39 34 47 3 10 8 8 20 -6 14 -19 16 -19 56 13 22 18 41 28
41 22 0 -12 29 -9 72 8 20 7 37 31 65 86 20 41 45 84 55 95 20 21 24 50 8 50
-6 0 -15 -11 -20 -24 -5 -15 -16 -23 -26 -22 -30 5 -27 25 10 66 20 22 36 46
36 53 0 7 13 33 28 58 20 32 26 51 22 69 -4 14 -1 36 5 50 32 64 25 92 -12 55
-19 -20 -37 -14 -41 13 -3 19 25 96 48 132 40 62 70 117 70 128 0 11 -10 12
-42 7 l-43 -7 23 24 c12 13 22 29 22 36 0 21 51 127 73 151 12 13 47 35 77 48
30 14 58 30 62 36 13 20 9 60 -9 79 -14 15 -14 24 -5 57 15 50 15 61 -1 61
-19 0 -77 30 -77 40 0 14 -42 19 -61 7 -31 -19 -41 -58 -30 -108 10 -42 9 -45
-19 -69 -28 -23 -30 -30 -30 -90 0 -37 -5 -71 -11 -77 -6 -6 -19 -35 -29 -65
l-17 -53 -57 3 c-35 3 -62 -1 -72 -8 -20 -17 -85 -151 -78 -161 3 -5 -4 -9
-16 -9 -13 0 -19 -4 -14 -11 4 -8 0 -8 -15 0 -28 15 -28 86 -1 159 11 28 15
52 10 52 -6 0 -10 -4 -10 -9 0 -5 -6 -11 -14 -14 -12 -5 -14 4 -11 46 3 42 0
54 -16 65 -24 17 -24 28 2 101 17 50 18 63 7 80 -13 22 -28 28 -28 11 0 -5 -6
-7 -12 -5 -27 10 -58 -34 -58 -82 0 -39 -13 -56 -38 -49 -11 4 -32 4 -47 0
-24 -6 -26 -10 -20 -38 3 -17 7 -49 8 -71 2 -38 0 -40 -26 -40 -25 1 -29 -4
-43 -52 -18 -62 -27 -70 -60 -53 -20 11 -27 11 -41 -2 -19 -16 -43 -14 -43 3
0 6 4 8 8 5 5 -3 19 25 32 62 13 37 32 83 42 102 11 22 14 36 7 39 -22 7 -60
-45 -80 -110 -13 -44 -32 -78 -56 -104 -35 -37 -38 -38 -74 -28 -36 9 -40 8
-55 -16 -9 -14 -26 -35 -39 -46 -13 -11 -34 -47 -48 -80 -26 -61 -47 -82 -47
-46 0 34 -20 34 -35 -1 -8 -18 -26 -46 -40 -63 -32 -38 -31 -45 4 -45 20 0 30
6 34 20 4 14 14 20 34 20 16 0 39 7 51 16 12 8 27 12 32 9 18 -11 11 -67 -12
-86 -26 -23 -32 -23 -48 -4 -11 13 -14 12 -29 -5 -14 -17 -20 -18 -53 -7 -21
6 -38 15 -38 19 0 5 -9 8 -20 8 -24 0 -26 -13 -4 -34 8 -9 11 -16 5 -16 -9 0
-24 -31 -26 -55 0 -5 -7 -9 -14 -7 -9 2 -11 -3 -7 -13 3 -9 6 -26 6 -37 0 -16
5 -19 24 -14 20 5 24 2 23 -14 -1 -11 -6 -20 -13 -20 -30 0 -47 -51 -19 -56
41 -7 91 -7 108 0 13 6 17 3 17 -12 0 -11 7 -23 15 -26 13 -5 15 1 13 32 -3
34 -1 37 26 40 23 3 36 -4 66 -37 28 -31 45 -41 68 -41 17 0 32 -6 35 -12 3
-10 7 -10 18 -1 10 8 27 9 54 3 40 -9 48 -6 85 29 11 11 12 15 2 19 -32 10
-47 43 -41 88 0 4 -5 11 -13 16 -10 7 -10 11 0 15 6 2 12 16 12 30 0 22 -4 25
-26 20 -16 -3 -37 4 -58 18 -18 12 -39 24 -47 27 -9 3 1 14 28 32 29 19 39 32
36 46 -4 13 4 21 31 30 37 12 47 33 21 44 -25 9 -17 22 40 59 30 19 55 31 55
25 0 -6 11 -8 24 -6 18 4 28 -2 40 -23 10 -18 13 -30 6 -34 -17 -11 -11 -37
14 -59 13 -11 27 -31 30 -43 6 -17 2 -22 -16 -25 -18 -2 -25 -12 -33 -43 -5
-22 -16 -45 -25 -52 -23 -17 -5 -27 29 -15 30 11 31 10 31 -22 0 -30 2 -33 25
-28 14 2 25 12 26 21 0 12 2 12 6 2 4 -10 7 -10 13 -1 4 6 57 17 119 24 85 10
120 19 141 35 35 26 85 28 99 4 10 -18 -6 -43 -68 -108 -15 -16 -38 -55 -51
-85 -28 -69 -37 -80 -65 -80 -14 0 -32 -11 -44 -27 -12 -16 -24 -32 -28 -38
-5 -5 -21 -29 -37 -52 -29 -44 -40 -51 -51 -33 -8 13 48 129 80 162 14 15 25
32 25 39 0 17 -48 2 -73 -24 -12 -12 -35 -29 -52 -37 -27 -14 -30 -21 -33 -67
-2 -42 -8 -54 -27 -67 -14 -9 -25 -26 -25 -39 -1 -34 -33 -91 -54 -95 -17 -4
-18 1 -11 62 3 37 3 66 -2 66 -19 0 -33 -25 -33 -57 0 -23 -5 -33 -15 -33 -9
0 -23 -16 -32 -35 -14 -28 -21 -33 -40 -29 -16 4 -25 1 -29 -11 -4 -9 -17 -20
-29 -25 -15 -6 -26 -23 -35 -54 -7 -25 -20 -52 -30 -61 -15 -14 -18 -14 -30 0
-7 9 -10 29 -7 48 3 19 1 40 -4 48 -5 8 -9 9 -9 4 0 -7 -45 -12 -117 -14 -66
-1 -121 -7 -124 -13 -4 -6 -19 -7 -37 -3 -18 3 -33 2 -37 -4 -4 -7 -48 -11
-111 -11 -97 0 -104 1 -104 20 0 16 -7 20 -30 20 -26 0 -30 4 -30 26 0 22 -2
25 -15 14 -10 -9 -15 -9 -15 -1 0 6 -17 11 -41 11 -23 0 -59 5 -81 12 -28 8
-41 9 -46 1 -4 -7 -35 -10 -77 -8 -98 4 -149 -10 -162 -43 -10 -25 -11 -22
-13 28 -2 30 -5 73 -7 95 -11 119 3 476 19 454 8 -11 11 -11 15 -1 4 10 8 10
19 1 8 -6 14 -7 14 -2 0 18 113 8 146 -13 38 -23 84 -76 84 -97 0 -9 4 -18 9
-22 5 -3 8 -17 5 -31 -11 -60 32 -103 91 -91 14 2 28 1 30 -3 8 -12 48 1 73
23 12 11 22 16 23 11 0 -5 4 2 10 14 5 13 18 26 30 29 16 4 20 12 16 30 -2 13
-1 26 4 29 5 3 16 21 26 41 12 27 14 38 5 41 -8 2 -9 9 -3 21 16 29 -2 40 -74
46 -39 4 -85 14 -103 22 -22 10 -46 13 -69 8 -19 -3 -33 -3 -30 2 3 4 -27 9
-66 10 -40 1 -91 5 -114 8 l-43 6 0 45 c0 41 2 44 26 44 14 0 23 4 19 10 -3 6
5 10 19 10 14 0 28 5 31 10 3 6 2 10 -2 10 -5 0 -9 9 -9 19 0 11 5 19 11 18 5
-1 9 6 7 16 -5 30 15 19 21 -12 6 -28 8 -29 44 -21 29 7 42 5 55 -7 20 -18 25
-15 43 19 6 13 17 22 24 20 19 -4 52 8 46 17 -2 5 6 7 18 5 12 -2 72 -5 133
-7 104 -3 112 -4 140 -30 l29 -27 17 22 c10 13 18 31 18 40 0 27 11 48 26 48
8 0 14 6 14 13 0 6 6 24 14 39 8 15 22 53 31 84 13 47 28 68 83 123 145 143
192 201 192 239 0 22 25 47 58 56 37 12 26 -25 -17 -59 l-38 -30 36 -6 c31 -6
44 -1 96 35 40 27 67 55 80 82 29 60 44 74 76 74 25 0 29 -4 29 -29 0 -16 -7
-34 -15 -41 -40 -33 -13 -36 146 -14 46 6 47 6 54 -26 6 -29 10 -32 36 -26 16
3 42 20 59 38 32 36 40 64 15 54 -9 -3 -15 0 -15 9 0 8 -5 15 -10 15 -19 0 34
68 65 82 16 9 48 24 70 34 31 16 42 28 50 57 15 53 65 107 99 107 38 0 87 -27
80 -44 -3 -9 5 -22 21 -32 22 -14 34 -15 70 -7 37 8 47 7 59 -6 20 -23 21
-127 1 -135 -8 -3 -15 -15 -15 -26 0 -12 -7 -20 -17 -21 -14 0 -13 -2 5 -9 12
-5 22 -16 22 -24 0 -9 12 -19 26 -22 20 -5 32 -1 52 20 15 14 21 26 14 26 -13
0 42 82 85 125 16 15 56 41 91 57 77 37 110 64 168 139 51 67 68 74 59 27z
m-10605 -249 c9 -37 9 -51 -2 -68 -15 -25 -20 -26 -58 -6 -25 13 -29 22 -34
72 -9 92 -9 105 5 114 21 12 76 -57 89 -112z m8149 15 c23 -26 41 -53 41 -60
0 -8 4 -14 8 -14 5 0 14 -11 20 -25 15 -32 15 -35 2 -35 -5 0 -10 9 -10 19 0
10 -7 21 -15 25 -18 7 -20 -15 -3 -32 10 -10 10 -15 1 -20 -18 -11 -34 -60
-23 -67 6 -4 10 -11 10 -16 0 -6 -4 -7 -10 -4 -5 3 -10 1 -10 -4 0 -25 -39 -9
-54 21 -16 30 -15 34 14 95 32 69 30 92 -9 127 -11 11 -21 23 -21 28 0 19 21
5 59 -38z m-8694 -35 c-5 -37 -4 -50 4 -45 7 5 11 -5 11 -28 0 -19 -6 -36 -12
-38 -8 -3 -12 -19 -10 -43 3 -33 1 -37 -16 -33 -10 3 -26 1 -35 -4 -12 -6 -19
-3 -27 12 -6 11 -17 20 -25 20 -20 0 -19 45 1 120 14 48 23 62 48 74 17 9 39
16 49 16 17 0 18 -6 12 -51z m3690 -310 c-3 -139 1 -169 20 -169 23 0 28 20
29 113 l1 90 40 0 40 0 3 -43 c2 -25 -2 -46 -8 -50 -9 -6 -9 -13 -1 -28 6 -11
11 -41 11 -66 0 -51 -21 -71 -65 -60 -21 5 -25 3 -25 -14 0 -12 -5 -24 -11
-28 -6 -3 -10 1 -9 12 4 37 0 44 -28 44 -22 0 -32 -7 -42 -27 l-13 -28 -6 25
c-7 27 -36 39 -54 21 -7 -7 -16 -7 -30 0 -10 6 -30 9 -43 6 -13 -2 -24 0 -24
4 0 8 8 11 26 8 4 0 10 5 14 11 4 7 25 13 45 13 34 2 40 6 47 32 5 17 7 62 5
100 -3 55 0 72 12 81 13 10 14 15 2 37 -16 29 -7 97 12 97 7 0 19 10 27 23 14
21 15 20 21 -29 3 -28 5 -107 4 -175z m5135 170 c0 -5 5 -7 10 -4 6 3 14 -4
19 -17 5 -13 30 -49 56 -80 58 -70 87 -170 37 -125 -10 10 -26 17 -34 17 -10
0 -19 12 -23 29 -4 19 -12 28 -23 27 -9 0 -16 5 -14 12 1 8 -6 16 -17 19 -10
3 -22 15 -25 26 -9 36 -7 107 4 107 6 0 10 -5 10 -11z m-7036 -159 c-5 -50 -4
-70 5 -70 6 0 11 -7 11 -16 0 -8 5 -25 12 -37 16 -30 10 -69 -13 -85 -27 -19
-23 -47 11 -84 17 -17 30 -34 30 -39 0 -10 -81 -79 -93 -79 -24 0 -37 30 -31
71 5 31 4 40 -4 35 -7 -4 -12 -3 -12 3 0 7 -17 8 -45 4 -27 -3 -45 -2 -45 4 0
22 77 118 99 123 24 6 28 13 38 86 7 54 -7 61 -47 24 -35 -33 -56 -39 -46 -14
3 9 6 19 6 23 0 5 10 19 23 33 12 14 33 40 47 57 14 17 33 31 42 31 16 0 17
-7 12 -70z m-1244 -71 c0 -15 42 -59 52 -53 4 3 8 0 8 -5 0 -6 8 -11 18 -11
23 0 64 -29 57 -41 -4 -5 -2 -9 3 -9 5 0 17 -20 27 -46 9 -25 32 -67 51 -95
30 -45 36 -79 14 -79 -5 0 -15 -3 -24 -6 -10 -4 -16 -1 -16 8 0 8 -12 38 -26
66 -16 32 -24 63 -21 77 3 17 0 25 -9 25 -7 0 -19 11 -26 24 -11 19 -17 22
-35 15 -13 -5 -23 -13 -23 -19 0 -6 -7 -18 -15 -26 -13 -14 -15 -13 -15 6 0
11 -7 31 -15 44 -19 29 -33 152 -17 142 7 -4 12 -11 12 -17z m-507 -120 c7 -7
11 -28 9 -50 -4 -33 -1 -38 12 -33 11 4 16 0 16 -14 0 -11 3 -35 6 -53 l7 -34
-25 26 c-17 18 -30 24 -39 19 -7 -5 -16 -7 -20 -4 -4 2 -10 0 -14 -6 -3 -6
-25 -8 -48 -5 -23 3 -37 3 -31 0 8 -4 8 -19 2 -53 -6 -26 -10 -58 -9 -71 2
-35 -17 -53 -40 -40 -35 18 -23 71 49 218 10 18 23 35 30 38 6 3 12 20 12 39
0 32 2 34 35 34 20 0 41 -5 48 -11z m1102 -289 c3 -5 15 -10 26 -10 28 0 21
-33 -7 -35 -11 -1 -35 -11 -51 -23 -17 -12 -36 -22 -43 -22 -7 0 -6 -5 4 -15
8 -8 19 -15 25 -15 30 0 -10 -52 -48 -65 -30 -9 -26 -21 11 -34 l33 -12 -63
-30 c-56 -26 -61 -31 -52 -49 14 -26 51 -26 73 0 24 29 54 25 72 -10 19 -37
19 -57 -1 -78 -15 -15 -17 -15 -29 1 -18 26 -43 21 -60 -12 -8 -16 -23 -32
-32 -35 -19 -7 -83 -94 -83 -114 0 -21 22 -24 55 -7 38 21 75 14 55 -10 -7 -8
-10 -24 -7 -34 8 -32 -19 -61 -51 -55 -19 4 -34 -1 -48 -14 -26 -25 -47 -14
-48 23 -1 16 -8 31 -16 36 -48 25 -100 31 -100 11 0 -8 -7 -11 -17 -8 -40 12
-274 16 -295 5 -11 -6 -18 -7 -15 -2 3 4 -6 13 -19 20 -25 12 -28 7 -26 -52 1
-11 -5 0 -13 24 -12 35 -34 227 -35 293 0 12 13 19 48 24 91 15 138 -1 167
-56 11 -21 30 -32 84 -50 39 -12 78 -19 87 -16 9 4 24 0 34 -9 14 -12 113 -45
137 -45 3 0 3 21 0 48 -3 29 0 60 9 81 14 35 6 61 -20 61 -12 1 -46 68 -46 93
0 9 17 23 40 33 25 11 40 24 40 36 0 10 6 18 13 18 8 0 9 3 1 8 -17 11 -24 52
-8 45 9 -3 14 2 14 15 0 17 8 21 48 25 26 3 67 10 92 15 25 5 48 10 52 11 4 0
10 -3 13 -9z m1391 -82 c-3 -18 -5 -35 -6 -38 0 -3 -5 3 -11 13 -16 27 -28 20
-24 -14 6 -48 16 -52 81 -35 33 8 93 17 135 18 l77 3 -5 -40 c-3 -22 -4 -122
-3 -221 1 -114 -2 -189 -9 -202 -7 -14 -25 -22 -58 -26 -63 -7 -67 -8 -143
-32 -82 -27 -154 -44 -233 -55 -34 -5 -74 -11 -88 -15 -24 -5 -27 -3 -31 28
-3 18 -3 107 0 198 l5 165 41 58 c79 112 74 109 146 110 l65 2 3 43 c2 26 8
42 16 42 8 0 19 7 26 15 18 22 20 19 16 -17z m897 -168 c38 -16 75 -26 82 -23
8 2 31 -1 52 -8 83 -27 268 -28 296 0 12 12 152 -7 209 -30 29 -11 71 -24 93
-28 31 -5 40 -11 40 -26 0 -17 -7 -20 -45 -19 -81 1 -333 25 -415 40 -192 34
-319 51 -539 72 -101 9 -117 31 -24 33 35 1 77 5 93 9 55 14 89 10 158 -20z
m-3243 -250 c0 -54 -4 -101 -8 -104 -4 -3 -25 -1 -45 3 -27 7 -39 5 -48 -5
-14 -17 -69 -19 -69 -2 0 9 -3 9 -11 1 -8 -8 -18 -8 -34 -1 -19 8 -27 6 -46
-13 -14 -14 -24 -18 -27 -11 -3 11 -44 8 -82 -5 -13 -5 -75 -7 -107 -4 -7 1
-13 10 -13 21 0 15 -7 20 -26 20 -22 0 -24 3 -18 23 14 43 40 66 94 83 30 10
61 22 68 27 9 7 17 4 27 -9 8 -10 15 -23 15 -27 0 -5 5 -5 10 -2 6 3 10 -3 10
-13 0 -11 7 -23 16 -26 18 -7 61 21 69 47 5 13 16 17 51 15 40 -1 49 3 72 30
29 33 80 64 94 56 4 -3 8 -50 8 -104z m3471 13 c2 -130 1 -263 -3 -264 -1 -1
-24 2 -50 6 -51 8 -61 19 -28 30 11 3 27 13 35 21 14 14 13 19 -5 44 -26 37
-25 46 8 58 l27 10 -30 7 c-54 12 -62 19 -30 23 46 6 52 16 47 77 -4 46 -2 55
12 55 13 0 16 -12 17 -67z m96 46 c6 -6 9 -18 6 -27 -4 -9 -2 -13 4 -9 6 4 13
-6 17 -24 10 -52 7 -107 -6 -112 -10 -3 -10 -7 -2 -18 7 -8 13 -43 15 -79 l4
-65 -45 3 c-25 2 -48 8 -51 14 -11 18 3 48 22 48 15 0 19 7 19 31 0 26 -3 31
-20 26 -16 -4 -20 0 -20 19 0 13 6 24 13 24 7 1 6 5 -5 13 -14 11 -16 25 -11
90 5 70 8 77 27 77 12 0 27 -5 33 -11z m3122 -92 c14 -41 18 -64 11 -72 -7 -9
-6 -16 5 -25 8 -7 13 -15 10 -19 -2 -4 2 -25 9 -47 7 -21 16 -54 19 -72 6 -31
6 -32 -21 -26 l-27 7 22 -22 c21 -20 29 -47 37 -121 6 -63 -3 -68 -86 -56 -56
9 -72 15 -68 26 2 8 5 40 6 70 1 30 3 63 3 73 1 9 9 17 19 17 15 1 15 2 -3 15
-23 18 -35 136 -16 159 8 10 9 16 1 21 -15 9 -13 132 2 137 37 13 57 -5 77
-65z m-2817 -8 c6 -17 13 -27 17 -22 12 16 31 12 42 -9 8 -14 12 -65 12 -132
-1 -109 -1 -110 -25 -109 -79 2 -74 -1 -76 56 -2 62 6 109 18 102 4 -3 19 -1
32 4 21 9 19 10 -14 10 -20 1 -39 4 -41 9 -8 13 5 122 15 122 5 0 14 -14 20
-31z m-1330 -219 c3 -59 5 -65 26 -68 22 -3 29 -16 14 -26 -13 -8 -206 26
-213 37 -4 5 -26 11 -50 13 -122 12 -259 41 -259 55 0 5 17 7 38 4 107 -13
195 -15 207 -5 18 15 35 5 30 -19 -2 -14 2 -19 18 -19 33 0 76 -8 84 -15 17
-17 23 -2 23 53 0 79 18 77 22 -2 2 -48 7 -63 18 -63 12 0 16 16 18 69 4 85
20 76 24 -14z m4018 -103 c3 -38 3 -72 0 -76 -8 -12 -70 -22 -96 -15 -33 8
-41 41 -15 65 11 10 23 34 27 53 6 35 21 45 59 43 17 -2 21 -11 25 -70z
m-3410 22 c0 -12 65 -8 108 6 19 6 22 4 22 -22 0 -42 21 -67 51 -60 114 29
130 31 139 17 5 -9 25 -15 49 -15 37 0 40 2 51 38 13 43 30 40 31 -6 1 -18 4
-43 8 -57 6 -21 12 -25 42 -22 19 2 39 9 44 16 12 15 121 20 130 6 8 -14 67 9
91 35 l21 23 7 -60 c3 -34 6 -74 6 -90 l0 -28 -77 1 c-51 1 -84 7 -95 16 -13
11 -21 12 -37 3 -12 -6 -21 -7 -21 -3 0 4 -5 2 -12 -5 -17 -17 -38 -15 -38 4
0 15 -9 16 -61 10 -51 -5 -60 -4 -55 9 8 21 0 23 -126 41 -62 8 -123 20 -135
26 -16 8 -30 7 -53 -2 -24 -10 -33 -10 -46 1 -14 11 -18 10 -33 -9 -18 -25
-31 -20 -31 10 0 26 -43 40 -127 39 -40 0 -73 1 -73 4 0 2 14 17 31 34 26 27
38 31 82 31 29 0 59 5 67 10 20 13 40 13 40 -1z m7705 -228 c3 -11 12 -22 20
-25 8 -3 15 -14 15 -25 0 -11 5 -23 11 -27 8 -5 10 -31 5 -83 -9 -102 -14
-118 -42 -125 -30 -8 -38 -23 -63 -125 -18 -74 -41 -121 -61 -121 -14 0 -30
53 -30 101 0 46 -2 50 -20 44 -30 -9 -26 28 10 100 16 33 30 70 30 83 0 23 0
23 -29 6 -25 -15 -35 -16 -55 -6 -15 6 -26 15 -26 19 1 20 78 119 102 130 14
7 40 27 58 43 37 34 66 39 75 11z m-4977 -99 c-6 -10 -20 -27 -31 -38 -10 -12
-30 -44 -45 -72 -15 -28 -46 -81 -68 -119 -23 -37 -45 -78 -48 -90 -5 -16 -15
-23 -32 -23 -13 0 -24 5 -24 11 0 5 -4 7 -10 4 -24 -15 -7 33 21 60 17 17 56
68 87 115 31 47 58 87 61 90 4 3 15 22 26 42 10 21 28 39 40 41 29 5 38 -3 23
-21z m-683 -122 c3 -5 14 -10 23 -10 24 0 49 -31 63 -79 12 -39 5 -87 -9 -64
-11 17 -57 19 -76 4 -22 -19 -20 -41 4 -41 22 0 25 -16 10 -54 -18 -47 -50
-27 -50 30 0 22 -3 24 -22 18 -13 -3 -29 -11 -37 -17 -23 -19 -41 20 -41 87 1
69 16 96 71 120 41 18 56 19 64 6z m-5480 -210 c11 -18 83 -50 113 -50 15 0
33 -5 40 -12 13 -13 17 -49 5 -47 -5 1 -25 1 -45 0 -29 -1 -36 -4 -31 -16 5
-14 -5 -15 -78 -9 -90 7 -114 13 -58 15 20 1 3 6 -44 14 -43 7 -80 15 -82 17
-2 2 -5 19 -7 38 l-3 35 73 3 c39 2 72 7 72 12 0 13 37 13 45 0z"/>
<path d="M12063 5280 c-13 -10 -23 -22 -23 -26 0 -4 -9 -17 -19 -28 -18 -20
-46 -88 -61 -153 -10 -41 4 -53 72 -64 28 -5 58 -15 67 -23 14 -13 20 -11 53
20 21 19 33 34 28 34 -6 0 -10 24 -10 54 0 81 -6 90 -40 66 -35 -25 -53 -26
-46 -2 2 9 8 28 12 42 9 32 8 80 -3 91 -4 4 -18 -1 -30 -11z"/>
<path d="M0 6775 c0 -132 7 -172 24 -129 5 13 9 14 21 4 8 -7 15 -21 15 -32 0
-10 11 -30 25 -44 21 -21 29 -23 40 -14 8 7 15 23 15 36 0 13 3 24 8 24 11 0
163 -79 194 -101 30 -22 38 -15 40 33 2 60 -116 259 -143 242 -5 -3 -9 -1 -9
4 0 6 -43 31 -95 56 -52 26 -95 51 -95 56 0 6 -9 10 -20 10 -19 0 -20 -7 -20
-145z"/>
<path d="M0 6010 c0 -214 2 -242 18 -261 41 -51 68 -69 99 -69 27 0 34 5 39
27 4 15 14 34 21 42 12 11 17 10 34 -5 12 -11 27 -31 35 -46 8 -15 27 -35 44
-45 16 -9 30 -23 30 -29 0 -7 8 -22 18 -35 l19 -22 38 28 37 29 20 -24 c45
-58 144 -151 166 -157 18 -4 29 -1 38 12 14 18 18 17 72 -15 32 -19 32 -19 32
0 0 24 -41 150 -67 205 -44 95 -136 203 -221 260 -20 14 -62 43 -92 65 -30 22
-59 40 -65 40 -5 0 -40 33 -77 73 -45 49 -75 73 -91 75 -29 2 -116 57 -124 78
-17 45 -23 -12 -23 -226z"/>
<path d="M9465 6098 c-8 -25 -25 -93 -25 -101 0 -4 11 5 25 20 18 21 24 24 25
12 0 -10 -17 -32 -37 -50 -21 -18 -38 -37 -39 -43 0 -6 -2 -19 -2 -30 -2 -15
-7 -17 -32 -12 -40 8 -40 -13 1 -37 31 -17 35 -44 5 -39 -26 5 -19 -4 35 -42
l50 -37 27 29 c16 16 26 35 24 41 -2 6 1 11 6 11 6 0 18 7 27 16 9 9 34 32 56
50 31 25 36 34 22 34 -10 0 -35 -11 -55 -25 -42 -28 -56 -32 -38 -10 7 8 14
30 16 48 2 17 6 42 9 55 8 31 -19 29 -33 -3 -13 -28 -38 -35 -27 -7 16 39 27
93 20 100 -4 4 -10 1 -12 -5 -8 -22 -23 -14 -23 12 0 26 -17 35 -25 13z"/>
<path d="M4606 5955 c-3 -9 0 -24 6 -35 16 -25 4 -37 -18 -19 -15 12 -16 11
-9 -11 4 -14 9 -36 10 -50 3 -41 4 -42 30 -36 20 5 25 3 25 -14 0 -15 -7 -20
-25 -20 -23 0 -24 -2 -18 -50 6 -56 -1 -61 -40 -30 -34 27 -47 25 -47 -5 0
-33 -22 -41 -61 -21 -37 19 -49 20 -49 6 0 -6 12 -16 28 -23 33 -14 42 -26 35
-44 -3 -8 2 -13 15 -13 12 0 24 -4 27 -10 10 -15 45 -12 52 5 3 9 -3 25 -12
35 -21 24 -20 25 23 33 l34 7 -7 -103 c-4 -56 -9 -104 -11 -106 -2 -2 -12 7
-22 19 l-19 24 -34 -39 c-57 -64 -58 -65 -115 -65 -30 0 -54 -4 -54 -10 0 -5
18 -10 40 -10 33 0 40 -3 40 -20 0 -23 16 -25 70 -9 45 14 85 6 94 -17 8 -22
-1 -31 -16 -16 -15 15 -55 16 -63 2 -3 -5 -22 -10 -41 -10 -41 0 -43 -9 -6
-41 l27 -24 -32 -3 c-18 -2 -38 -13 -49 -27 -14 -18 -21 -21 -34 -12 -14 8
-26 5 -56 -13 -38 -23 -54 -38 -54 -51 0 -12 95 4 112 18 14 13 17 12 23 -6 7
-24 -20 -81 -40 -81 -14 0 -55 -46 -55 -61 0 -12 47 -11 55 0 3 5 20 13 37 16
55 13 105 44 118 76 18 42 59 73 77 57 16 -13 29 -3 35 26 3 16 73 49 95 45 4
-1 16 1 26 6 12 5 37 0 71 -14 88 -36 97 -28 33 34 -24 23 -49 56 -56 73 -8
18 -27 37 -47 47 -45 21 -45 43 1 42 41 -1 57 11 32 24 -19 11 -14 29 9 29 19
0 60 42 56 57 -2 7 4 13 12 13 15 0 42 37 33 46 -4 4 -44 -14 -119 -53 -25
-13 -28 -12 -28 2 0 8 7 18 15 21 15 6 21 34 8 34 -5 0 -21 -9 -38 -20 -16
-11 -38 -20 -48 -20 -10 0 -22 -11 -27 -24 -15 -42 -30 -41 -30 2 0 31 4 41
20 45 11 3 20 12 20 21 0 9 -8 16 -20 16 -15 0 -20 7 -20 25 0 14 5 25 10 25
6 0 10 -4 10 -10 0 -15 52 -11 75 6 16 12 17 17 7 23 -11 7 -11 9 2 14 26 10
18 24 -15 29 -30 5 -59 -12 -59 -33 0 -5 -7 -9 -15 -9 -23 0 -20 59 4 68 18 7
109 102 97 102 -2 0 -21 -9 -41 -21 l-35 -21 10 26 c10 27 2 34 -18 14 -20
-20 -23 -2 -8 43 16 46 14 61 -9 52 -9 -3 -15 1 -15 10 0 22 -17 30 -24 12z"/>
<path d="M7916 5948 c-9 -12 -16 -30 -16 -40 0 -9 -5 -20 -10 -23 -7 -4 -6
-13 1 -26 14 -27 5 -49 -20 -49 -11 0 -22 -4 -26 -9 -6 -10 21 -41 36 -41 17
0 9 -29 -12 -49 -18 -16 -30 -19 -65 -14 -50 7 -61 -11 -17 -28 72 -27 143 35
143 126 0 27 4 34 22 37 14 2 24 13 29 32 10 37 4 44 -22 27 -20 -12 -21 -11
-14 27 8 47 -7 62 -29 30z"/>
<path d="M6647 5944 c-4 -4 -7 -14 -7 -22 0 -8 -6 -28 -14 -45 -19 -42 -26
-86 -15 -93 14 -8 40 -75 33 -85 -12 -21 8 -26 39 -11 l32 17 -27 3 c-27 3
-35 12 -21 25 3 4 12 2 18 -3 18 -15 52 18 60 59 8 37 5 37 -52 -5 -17 -13
-34 -24 -37 -24 -14 0 -4 28 14 45 16 14 18 20 8 27 -10 6 -9 11 5 19 25 15
22 42 -4 34 -18 -6 -20 -4 -14 14 7 22 -7 56 -18 45z"/>
<path d="M9624 5845 c-15 -14 -33 -25 -40 -25 -8 0 -14 -9 -14 -20 0 -11 -5
-20 -11 -20 -5 0 -15 -13 -20 -29 -7 -21 -19 -32 -40 -36 -16 -4 -29 -13 -29
-20 0 -17 -78 -57 -93 -49 -7 4 -22 16 -33 26 -24 21 -28 18 -38 -29 -7 -29
-5 -31 15 -26 21 6 21 5 4 -21 -9 -14 -21 -26 -26 -26 -15 0 -10 -30 7 -37 8
-3 26 -1 39 5 31 14 38 5 18 -24 -17 -26 -9 -30 32 -14 36 14 65 -3 65 -38 0
-39 -14 -55 -39 -47 -15 4 -30 -1 -52 -19 -30 -26 -59 -34 -59 -18 0 5 -16 8
-36 8 -29 -1 -39 -7 -50 -29 -18 -34 -34 -35 -34 -3 0 32 -14 40 -42 25 -63
-34 -68 -64 -8 -57 20 2 34 -3 44 -17 13 -17 18 -18 35 -7 25 15 34 15 26 2
-3 -5 3 -10 14 -10 11 0 23 5 27 12 5 8 10 6 14 -8 9 -24 4 -34 -21 -34 -10 0
-19 -5 -19 -11 0 -6 -8 -9 -19 -6 -23 6 -51 -9 -51 -28 0 -9 11 -13 30 -13 44
1 47 -8 15 -42 -35 -36 -26 -50 18 -27 18 10 45 21 61 25 18 5 36 20 46 40 10
18 31 42 46 54 16 12 32 26 35 30 3 5 17 0 30 -11 22 -17 27 -17 44 -5 10 8
13 14 7 14 -7 0 -12 15 -12 36 0 30 3 35 18 29 9 -4 33 -12 52 -17 19 -6 40
-13 45 -18 6 -4 27 0 47 10 29 13 35 19 26 28 -9 9 -7 12 10 12 35 0 40 30 9
52 -29 21 -27 43 2 33 9 -3 26 3 37 13 10 10 27 21 37 25 9 3 17 13 17 22 0
13 -7 15 -37 10 -21 -4 -46 -9 -55 -12 -11 -3 -18 1 -18 10 0 10 -15 16 -47
20 -41 5 -50 2 -65 -16 -13 -17 -19 -19 -29 -10 -10 10 -10 18 0 37 11 20 11
27 -3 48 -19 29 -13 38 27 38 24 0 28 3 24 19 -4 17 4 23 50 37 54 17 113 65
113 92 0 11 -37 -4 -122 -49 -29 -15 -56 -10 -63 11 -5 14 5 30 39 63 44 41
57 67 37 67 -6 0 -22 -11 -37 -25z"/>
<path d="M2734 5729 c7 -22 22 -46 34 -55 12 -8 22 -22 22 -29 0 -16 -43 -31
-59 -21 -5 4 -15 -3 -21 -14 -7 -13 -7 -20 0 -20 5 0 10 -11 10 -25 0 -14 5
-25 10 -25 6 0 20 -11 32 -25 26 -30 32 -31 69 -4 16 11 37 18 45 15 12 -4 15
-2 10 9 -3 9 0 15 10 15 8 0 12 5 9 10 -3 6 -30 10 -59 10 -30 0 -60 6 -72 15
-19 14 -19 14 2 15 12 0 27 7 34 15 15 18 47 20 53 3 7 -19 25 2 29 34 3 25
-4 31 -83 71 l-86 45 11 -39z"/>
<path d="M10164 5545 c-3 -8 -3 -18 0 -23 7 -12 -25 -26 -33 -14 -11 17 -80
22 -95 6 -8 -8 -21 -14 -28 -14 -14 -1 -54 -28 -47 -32 46 -28 47 -28 95 8 52
40 73 35 52 -11 -13 -28 -80 -65 -120 -65 -19 0 -47 -25 -48 -42 0 -18 65 -6
106 18 34 20 48 24 57 15 8 -8 3 -19 -22 -41 -18 -17 -38 -30 -45 -30 -20 0
-107 -51 -113 -66 -12 -32 6 -32 72 1 81 40 77 39 73 21 -2 -8 -25 -29 -52
-48 -47 -31 -69 -67 -43 -69 7 0 20 -2 30 -4 12 -2 21 5 28 23 16 41 39 62 70
62 19 0 30 -6 34 -20 7 -23 9 -23 52 -11 21 6 35 5 42 -2 13 -13 141 -20 141
-7 0 5 -20 26 -45 47 -51 42 -59 73 -20 73 37 0 30 15 -14 28 -57 18 -88 15
-94 -7 -6 -23 -57 -38 -68 -19 -15 22 -10 35 22 68 27 27 38 31 73 28 36 -2
41 0 44 20 2 12 10 22 18 22 8 0 14 5 14 11 0 7 -16 8 -45 4 -33 -6 -48 -3
-60 8 -21 22 -19 27 14 27 16 0 34 6 40 13 8 11 5 16 -15 25 -34 16 -63 15
-70 -3z"/>
<path d="M3906 5451 c-5 -8 -51 -18 -113 -24 -29 -3 -30 -14 -2 -22 23 -8 22
-40 -1 -40 -8 0 -23 -5 -34 -11 -16 -10 -16 -14 -5 -32 10 -16 11 -24 2 -33
-15 -15 -35 -1 -28 20 5 16 -3 19 -51 25 -31 3 -65 11 -76 17 -13 7 -24 7 -30
1 -7 -7 -3 -12 10 -16 11 -4 23 -13 26 -21 3 -9 18 -15 37 -15 31 0 31 0 16
-24 -21 -31 -2 -51 34 -38 35 12 58 4 65 -24 8 -30 -1 -41 -18 -26 -7 5 -37
15 -66 20 -51 9 -53 9 -73 -19 -21 -31 -20 -32 24 -29 35 2 36 -19 2 -48 -14
-12 -25 -26 -25 -32 0 -5 -8 -10 -18 -10 -10 0 -22 -3 -26 -7 -4 -5 -38 -8
-76 -8 -69 0 -92 -8 -74 -25 7 -7 49 -13 128 -19 4 -1 6 -15 4 -31 -4 -27 -2
-30 16 -23 12 3 50 9 85 12 78 7 95 25 69 71 -9 17 -13 30 -9 30 5 0 14 14 21
30 14 34 14 34 40 18 17 -11 22 -10 30 2 7 12 16 10 60 -10 47 -22 53 -23 61
-8 7 12 19 15 49 11 52 -7 51 9 -2 33 -31 14 -43 15 -46 6 -5 -16 -22 -16 -22
1 0 7 -10 13 -21 14 -12 1 -29 9 -38 17 -10 9 -23 16 -29 16 -16 0 -26 40 -13
53 9 9 14 9 20 -1 9 -16 101 -7 101 9 0 6 14 23 30 39 35 34 31 36 -31 15 -49
-17 -119 -10 -127 13 -2 7 12 19 31 27 29 12 34 19 30 36 -5 19 -3 21 21 17
22 -4 29 0 42 23 13 26 13 42 0 20z"/>
<path d="M6432 5248 c-12 -12 -33 -23 -46 -23 -13 -1 -37 -10 -52 -20 -26 -17
-27 -18 -9 -31 10 -8 32 -14 49 -14 l30 0 -27 -28 c-15 -15 -27 -31 -27 -35 0
-12 28 -8 42 6 14 12 81 46 131 66 15 6 27 15 27 21 0 15 -33 26 -38 12 -2 -7
-10 -12 -19 -12 -11 0 -13 7 -8 31 5 22 3 34 -6 40 -20 12 -22 12 -47 -13z"/>
<path d="M10697 5134 c-3 -4 -23 -10 -44 -14 -64 -12 -67 -14 -80 -42 -7 -16
-20 -28 -31 -28 -25 0 -68 -45 -49 -53 24 -9 71 5 115 35 24 17 46 28 49 25
10 -10 -29 -56 -61 -71 -18 -9 -39 -22 -46 -31 -11 -13 -9 -15 13 -15 14 0 28
4 31 9 8 13 93 34 105 26 17 -10 -44 -71 -121 -121 -37 -24 -71 -52 -77 -62
-5 -10 -28 -31 -51 -47 -28 -20 -38 -31 -30 -39 7 -7 18 -5 38 6 15 8 39 18
55 22 15 3 40 20 55 37 15 17 48 42 74 55 54 27 192 158 202 192 4 12 12 22
18 22 10 0 47 40 48 53 0 4 -28 7 -63 7 -50 0 -66 4 -80 20 -16 19 -57 27 -70
14z"/>
<path d="M6283 112 c2 -32 1 -65 -3 -73 -18 -32 4 -42 87 -37 86 5 119 23 148
81 25 51 -9 66 -49 22 -13 -13 -26 -22 -29 -18 -4 3 -13 1 -21 -6 -17 -15 -27
6 -19 40 8 30 -20 49 -75 49 l-45 0 6 -58z"/>
<path d="M11490 120 c-11 -21 -20 -50 -20 -63 0 -12 -5 -28 -12 -35 -6 -6 -9
-14 -6 -17 3 -3 54 -4 113 -3 l107 3 -28 30 c-16 17 -40 44 -54 60 -14 17 -37
38 -52 48 l-28 17 -20 -40z"/>
</g>
</svg>
