<?xml version="1.0" standalone="no"?>
<!DOCTYPE svg PUBLIC "-//W3C//DTD SVG 20010904//EN"
 "http://www.w3.org/TR/2001/REC-SVG-20010904/DTD/svg10.dtd">
<svg version="1.0" xmlns="http://www.w3.org/2000/svg"
 width="1280.000000pt" height="720.000000pt" viewBox="0 0 1280.000000 720.000000"
 preserveAspectRatio="xMidYMid meet">
<metadata>
Created by potrace 1.16, written by Peter Selinger 2001-2019
</metadata>
<g transform="translate(0.000000,720.000000) scale(0.100000,-0.100000)"
fill="#000000" stroke="none">
<path d="M59 7180 c38 -18 97 -60 126 -91 6 -6 39 -41 74 -77 60 -61 65 -64
74 -45 10 23 50 38 69 27 6 -4 8 -23 5 -45 -3 -21 0 -44 7 -52 14 -18 70 -37
109 -37 22 0 41 -12 78 -50 27 -28 52 -63 55 -78 9 -39 49 -77 100 -97 55 -21
77 -9 72 39 -2 26 0 30 17 28 11 -2 26 -14 35 -25 35 -51 69 -77 123 -94 31
-10 57 -23 57 -29 0 -6 9 -23 21 -38 11 -14 15 -26 9 -26 -6 0 -8 -4 -5 -10 4
-6 -14 -10 -48 -10 -41 0 -68 7 -111 30 -31 17 -61 28 -66 25 -5 -3 -11 -1
-15 5 -3 5 -23 10 -43 10 -20 1 -55 7 -77 15 -22 8 -63 15 -92 15 -76 0 -103
13 -103 49 0 27 -22 77 -61 139 -18 30 -138 99 -196 114 -25 6 -71 28 -103 49
-32 22 -62 39 -68 39 -6 0 -31 11 -56 24 l-46 24 0 -603 0 -604 22 -15 22 -16
-22 -20 -22 -21 0 -2864 0 -2865 1210 0 1210 0 0 40 c0 22 5 40 10 40 23 0 8
39 -20 52 -16 7 -30 16 -30 19 0 4 -28 10 -62 14 -132 13 -213 28 -220 39 -6
8 -10 8 -16 -1 -10 -16 -52 -12 -52 4 0 7 -4 13 -10 13 -5 0 -10 -4 -10 -10 0
-5 -4 -10 -9 -10 -5 0 -12 18 -16 40 -4 22 -11 40 -16 40 -5 0 -9 9 -9 20 0
11 7 20 15 20 8 0 15 9 15 20 0 11 5 20 11 20 14 0 39 25 39 39 0 6 8 11 19
11 12 0 21 9 24 27 6 31 -11 50 -53 59 -75 16 -80 22 -80 85 0 33 -4 59 -9 59
-4 0 -12 31 -15 70 -4 38 -11 72 -17 75 -5 4 -2 20 8 38 9 18 16 35 15 40 -1
4 2 7 7 7 11 0 18 28 27 98 8 67 0 95 -34 127 -22 20 -37 25 -80 25 -57 0 -97
14 -86 32 4 5 1 14 -6 18 -7 4 -16 29 -21 55 -11 58 -24 75 -56 75 -16 0 -27
7 -30 20 -3 11 -9 20 -14 20 -5 0 -9 15 -9 34 0 29 -8 41 -54 80 -29 25 -56
46 -61 46 -4 0 -23 16 -42 35 -21 21 -45 35 -59 35 -26 0 -35 14 -38 55 -1 19
-10 28 -38 40 -26 10 -38 21 -38 34 0 33 16 32 70 -4 37 -25 59 -33 75 -29 13
3 36 -1 52 -10 20 -10 33 -12 40 -5 6 6 19 6 36 0 14 -6 27 -7 29 -3 2 4 25
20 51 36 42 24 58 51 31 51 -33 1 -48 80 -23 126 8 16 5 35 -16 86 -16 40 -24
76 -20 90 3 14 1 23 -6 23 -6 0 -9 7 -6 15 4 8 2 17 -3 20 -6 4 -10 1 -10 -4
0 -6 -17 -11 -38 -11 -21 0 -47 -7 -58 -15 -31 -24 -37 -18 -32 37 5 44 2 54
-16 70 -26 21 -60 23 -80 3 -27 -28 -46 -18 -46 24 0 44 18 101 32 101 21 0
38 30 38 67 0 66 -17 106 -55 130 -40 27 -49 53 -41 125 3 29 6 58 6 63 1 6
-1 19 -4 30 -2 11 -5 27 -5 36 -1 17 -41 39 -71 39 -29 0 -42 -34 -34 -86 3
-25 2 -55 -3 -67 -6 -12 -17 -38 -26 -57 l-15 -35 -17 40 c-10 22 -18 45 -18
51 0 8 -14 10 -39 7 -31 -5 -38 -2 -38 11 0 9 7 16 15 16 19 0 19 14 -1 34
-26 27 -53 37 -97 38 -23 1 -45 6 -48 11 -11 16 11 66 39 88 45 35 40 103 -8
112 -21 5 -30 12 -30 26 0 11 -7 26 -15 35 -17 17 -20 46 -4 46 23 0 39 30 39
73 0 25 -4 47 -9 49 -6 2 -12 27 -15 57 -3 35 -10 58 -20 63 -9 5 -16 15 -16
23 0 9 -14 15 -42 17 -37 3 -44 7 -46 27 -2 13 -10 30 -17 38 -16 15 -45 17
-45 3 0 -5 -16 -10 -35 -10 -32 0 -35 3 -35 29 0 22 -6 30 -25 35 -14 4 -25
13 -25 21 0 8 -7 15 -15 15 -8 0 -15 -4 -15 -10 0 -5 -4 -10 -10 -10 -5 0 -10
9 -10 20 0 11 5 20 10 20 6 0 10 18 10 41 0 36 3 42 30 52 16 6 30 16 30 22 0
5 5 3 10 -5 6 -10 10 -11 10 -2 0 6 7 12 15 12 8 0 15 7 15 15 0 8 6 15 13 15
8 0 7 4 -3 11 -11 8 -12 12 -3 16 7 2 13 11 13 19 0 24 50 16 72 -12 11 -14
23 -23 26 -20 2 3 20 -7 38 -22 18 -15 47 -37 64 -50 27 -21 30 -29 30 -82 0
-32 5 -62 10 -65 6 -3 10 -13 10 -22 0 -22 46 -73 94 -103 23 -15 51 -38 62
-51 17 -21 92 -65 99 -57 1 2 10 19 20 38 9 19 30 49 46 65 20 21 29 42 31 71
2 33 9 45 30 57 25 14 28 14 51 -12 21 -24 22 -30 11 -46 -8 -10 -14 -39 -14
-64 0 -36 9 -59 40 -109 45 -71 49 -88 21 -97 -11 -3 -23 -15 -26 -26 -8 -26
-21 -17 -28 21 -7 34 -36 41 -44 10 -5 -19 -33 -29 -33 -11 0 5 -13 14 -29 21
-34 14 -66 2 -73 -28 -7 -24 21 -93 36 -90 22 4 95 -42 102 -64 4 -13 11 -26
16 -29 6 -4 11 -70 13 -150 1 -99 7 -164 19 -208 10 -36 16 -75 13 -87 -2 -13
0 -29 4 -36 6 -9 9 -6 9 10 0 26 10 27 53 8 71 -32 152 -44 205 -29 17 4 20 8
11 14 -7 4 7 10 37 13 27 4 85 13 129 22 44 8 89 16 100 18 16 2 19 9 17 37
-2 19 -10 45 -17 59 -25 45 -37 75 -39 98 -2 12 -19 39 -39 59 -21 20 -37 42
-37 49 0 6 -11 19 -24 27 -16 11 -26 30 -31 58 -5 29 -13 43 -26 46 -21 6 -23
12 -11 30 8 13 137 -14 187 -41 28 -15 30 -15 42 7 10 19 9 24 -7 37 -11 8
-27 37 -36 63 -13 38 -20 46 -34 42 -26 -8 -65 102 -61 178 2 54 1 58 -25 67
-19 8 -25 15 -21 30 3 11 1 22 -3 25 -5 3 -7 17 -4 30 6 34 -18 42 -62 21 -19
-9 -36 -16 -38 -16 -11 0 -27 64 -22 86 8 32 -8 54 -36 46 -19 -5 -21 -2 -15
26 8 39 35 82 52 82 19 0 75 -30 75 -41 0 -12 15 -31 55 -73 47 -49 57 -81 56
-178 l-2 -88 45 -43 c44 -44 70 -104 78 -182 2 -23 9 -31 28 -33 14 -2 22 -1
18 3 -4 4 -1 20 8 36 17 33 45 37 108 14 22 -8 43 -12 48 -9 4 3 39 5 77 6 70
0 70 1 97 39 15 22 33 39 41 39 7 0 25 7 38 16 14 9 25 13 25 10 0 -9 50 23
73 47 18 17 20 17 38 1 30 -27 23 -64 -22 -111 -46 -50 -84 -58 -76 -17 3 15
0 28 -8 30 -24 10 -114 -52 -115 -78 0 -12 48 -10 55 2 9 15 25 12 25 -4 0 -7
-23 -37 -50 -65 -50 -52 -76 -111 -50 -111 8 0 22 7 32 17 17 15 18 15 18 0 0
-25 16 -21 54 16 69 65 82 74 113 90 19 10 36 29 43 49 6 18 21 46 34 62 l24
29 30 -65 c20 -42 43 -73 64 -88 39 -26 58 -61 58 -104 1 -17 7 -42 15 -56 37
-65 2 -59 -74 13 l-51 48 5 59 c6 64 -3 78 -34 58 -16 -10 -23 -10 -33 0 -21
21 -38 14 -38 -18 0 -35 -22 -94 -40 -105 -7 -4 -13 1 -17 14 -8 30 -38 26
-63 -9 -12 -16 -41 -41 -65 -56 -73 -42 -118 -89 -110 -113 6 -21 45 -30 45
-11 0 6 5 10 11 10 6 0 22 13 36 30 13 16 30 30 36 30 6 0 20 8 31 19 24 22
66 37 66 23 0 -5 -5 -23 -11 -41 -11 -31 -46 -50 -68 -37 -5 4 -22 -5 -37 -19
-35 -33 -19 -39 84 -31 42 3 98 6 125 6 35 -1 47 3 47 13 0 24 27 28 33 5 6
-20 10 -20 154 -13 81 4 149 9 151 10 7 7 -44 75 -60 81 -10 3 -18 10 -18 15
0 5 -6 9 -14 9 -7 0 -16 8 -20 18 -3 9 -8 22 -11 28 -4 7 5 9 25 6 36 -5 37 2
7 47 -49 76 -56 90 -47 96 6 4 10 13 10 20 0 21 -71 84 -95 85 -11 0 -27 6
-36 13 -18 14 -33 63 -24 78 11 16 62 -22 112 -83 27 -32 51 -58 54 -58 12 0
18 42 9 65 -10 25 -38 61 -82 104 -53 52 -35 92 21 45 36 -30 53 -58 57 -93 1
-14 8 -35 15 -47 11 -21 13 -22 34 -8 20 13 23 13 29 -3 4 -10 7 -70 6 -133
-1 -63 -1 -123 -1 -133 1 -15 8 -18 49 -15 l47 3 5 174 5 175 28 -33 c15 -18
27 -37 27 -42 0 -5 8 -9 18 -9 9 -1 35 -7 57 -15 27 -10 43 -11 51 -4 10 8 15
1 20 -26 8 -44 27 -54 55 -29 21 19 69 21 80 3 11 -18 99 14 99 36 0 14 99 29
124 19 20 -7 21 -29 3 -46 -12 -10 -11 -15 4 -28 15 -13 19 -39 24 -188 6
-174 -6 -299 -29 -314 -17 -12 58 -9 92 3 18 6 30 15 27 19 -3 5 3 8 14 7 17
-1 35 5 121 41 25 11 25 11 -7 11 -31 1 -59 21 -29 21 9 0 16 8 16 18 1 16 1
16 11 0 13 -23 39 -23 39 0 1 16 1 16 11 0 13 -23 78 -35 91 -17 7 11 11 11
15 2 13 -33 21 -6 18 60 -2 40 0 79 5 87 7 10 10 -15 10 -72 l0 -88 40 0 39 0
4 83 3 82 2 -87 c2 -81 4 -88 22 -88 22 0 28 -19 8 -21 -7 -1 -35 -1 -63 0
l-50 2 34 -23 c48 -31 143 -37 213 -12 68 24 215 24 273 0 46 -19 246 -39 425
-41 114 -1 287 -17 350 -32 24 -5 24 -6 -10 -18 l-35 -12 38 -12 c20 -7 37
-16 37 -21 0 -13 101 -52 121 -47 11 3 26 -1 34 -10 13 -13 15 -12 15 6 0 16
6 21 25 21 14 0 25 5 25 10 0 6 9 10 20 10 11 0 20 -4 20 -10 0 -5 -6 -10 -13
-10 -21 0 -71 -46 -59 -54 6 -3 13 -2 17 3 3 6 14 2 26 -10 11 -11 31 -24 44
-29 15 -6 23 -15 19 -23 -4 -10 6 -16 35 -21 36 -5 52 0 128 39 55 28 113 49
153 56 82 14 95 21 147 75 23 24 45 44 49 44 4 0 35 13 70 30 117 55 167 60
282 26 29 -8 92 -18 140 -21 61 -5 102 -14 137 -31 47 -22 200 -64 380 -104
44 -10 98 -24 119 -30 27 -8 46 -9 61 -2 16 8 34 7 61 -3 22 -8 47 -14 57 -15
10 0 16 -4 12 -9 -10 -17 54 -22 205 -17 80 3 168 5 197 5 l52 1 7 38 c10 55
83 122 134 122 47 0 66 20 50 51 -11 20 -10 21 11 16 13 -4 32 -7 42 -7 10 0
15 -5 12 -10 -3 -5 -2 -10 3 -10 6 0 12 7 16 15 7 20 33 19 60 -2 18 -14 42
-18 117 -18 52 0 83 -2 69 -4 -23 -3 -23 -4 10 -16 25 -8 38 -20 44 -41 5 -16
12 -38 17 -49 4 -11 10 -31 12 -45 4 -20 5 -19 6 8 1 27 5 32 26 32 19 0 25
-5 25 -23 0 -22 3 -23 83 -22 57 0 85 4 93 14 8 10 34 12 120 8 60 -3 124 -11
143 -16 20 -6 39 -7 45 -2 13 11 56 -4 56 -19 0 -6 4 -9 9 -6 5 3 11 32 15 63
9 78 9 94 -2 105 -12 12 -139 26 -154 16 -7 -4 -8 -8 -3 -9 6 0 -1 -4 -15 -8
-15 -4 -28 -3 -32 3 -5 7 -8 7 -8 -2 0 -19 -147 -15 -154 4 -3 8 -19 14 -35
14 -16 0 -32 4 -35 9 -6 8 -75 18 -172 24 -36 2 -58 10 -75 26 -23 22 -24 25
-21 164 2 78 6 168 10 201 l7 58 133 -1 c127 -2 132 -1 132 19 0 11 -4 20 -9
20 -14 0 -24 41 -13 52 7 7 12 3 17 -11 3 -12 12 -21 19 -21 25 0 36 -51 36
-164 l0 -114 45 -6 c25 -4 49 -4 55 -1 6 3 10 51 10 108 0 117 6 148 26 140 8
-3 14 0 14 6 0 24 19 9 25 -19 5 -25 12 -30 35 -30 37 0 43 11 41 74 l-1 53
100 9 c55 5 100 7 101 4 0 -3 2 -15 5 -27 3 -16 -1 -23 -12 -23 -9 0 -14 -6
-11 -12 2 -7 14 -13 28 -13 20 0 25 6 31 42 4 23 12 51 17 62 15 27 70 81 83
81 7 0 19 6 27 14 17 14 135 59 211 81 30 8 49 9 57 3 15 -12 63 -6 122 17 42
15 48 15 88 0 24 -9 41 -20 38 -25 -3 -4 4 -19 15 -33 21 -27 50 -89 50 -107
0 -6 -11 -15 -25 -20 -21 -8 -25 -16 -25 -49 0 -33 -4 -40 -22 -43 -14 -2 -24
-12 -28 -28 -5 -18 -12 -24 -26 -22 -10 2 -35 5 -54 6 -19 2 -40 3 -47 4 -6 1
-15 17 -18 35 -4 17 -15 43 -25 57 -10 14 -21 39 -24 57 -8 36 -27 35 -44 -3
-9 -18 -19 -24 -42 -24 -31 0 -33 -4 -30 -57 1 -27 -2 -33 -18 -33 -13 0 -22
-10 -28 -32 -12 -42 -25 -44 -46 -8 -21 36 -45 39 -58 6 -5 -13 -14 -27 -19
-31 -6 -3 -11 -15 -11 -25 0 -11 -12 -25 -27 -32 -37 -17 -44 -67 -12 -86 13
-8 24 -10 28 -4 3 5 18 12 33 16 16 3 28 13 28 21 0 14 12 19 33 16 15 -2 6
19 -12 28 -16 9 -20 7 -25 -14 -4 -14 -13 -25 -22 -25 -11 0 -12 4 -4 19 5 11
10 31 10 46 0 28 25 44 43 26 6 -6 19 -11 29 -11 10 0 27 -9 38 -20 l20 -20
10 25 c11 30 30 33 37 5 6 -24 16 -25 46 -6 12 8 41 17 65 21 38 6 42 5 42
-14 0 -14 -6 -21 -20 -21 -11 0 -20 -6 -20 -14 0 -7 -7 -19 -16 -27 -11 -9
-14 -22 -9 -47 7 -40 -15 -72 -52 -72 -18 0 -23 -5 -23 -26 0 -14 -5 -34 -11
-46 -16 -30 -6 -31 49 -3 27 14 63 25 80 25 25 0 32 -6 41 -31 14 -39 14 -89
1 -89 -5 0 -14 -9 -20 -21 -9 -15 -8 -25 3 -42 8 -12 20 -39 27 -61 14 -44 5
-56 -42 -56 -21 0 -28 -5 -28 -20 0 -21 -4 -24 -52 -34 -21 -5 -28 -12 -28
-31 0 -16 6 -25 15 -25 20 0 35 -39 25 -65 -4 -11 -5 -26 -3 -32 7 -21 -9 -15
-37 12 -34 33 -65 25 -55 -14 14 -55 17 -99 6 -105 -6 -4 -11 -18 -11 -30 0
-13 -7 -29 -15 -36 -13 -10 -15 -9 -15 9 0 13 -12 29 -31 40 -38 23 -61 18
-53 -13 4 -17 -1 -24 -25 -33 -30 -11 -67 -75 -56 -94 7 -10 55 10 55 23 0 16
18 8 23 -11 3 -12 -3 -27 -14 -37 -25 -23 -24 -30 11 -67 16 -17 25 -34 19
-37 -15 -10 -23 -75 -12 -107 5 -15 7 -36 5 -45 -3 -15 -9 -14 -42 13 -21 17
-40 39 -43 50 -3 12 -14 19 -29 19 -22 0 -24 -3 -20 -37 3 -31 2 -36 -9 -25
-19 18 -39 15 -39 -6 0 -10 -7 -27 -15 -38 -18 -24 -19 -54 -2 -54 6 0 27 9
45 20 l32 20 0 -24 c0 -13 -7 -26 -15 -30 -39 -14 -72 -116 -42 -130 6 -3 1
-4 -13 -1 -19 3 -30 -2 -40 -18 -8 -12 -13 -25 -12 -29 1 -5 -11 -8 -27 -8
-24 0 -29 -5 -35 -32 -3 -17 -4 -34 -1 -36 3 -3 29 2 59 11 29 9 69 17 88 17
41 0 59 18 78 79 11 33 21 46 42 53 16 6 35 23 43 39 18 34 66 72 127 99 35
15 57 18 92 14 43 -6 46 -9 46 -37 0 -23 12 -42 53 -83 l52 -52 -30 -9 c-28
-8 -30 -12 -27 -49 2 -21 8 -43 13 -49 5 -5 9 -24 9 -42 0 -30 -2 -33 -19 -23
-45 24 -50 10 -24 -69 19 -59 10 -81 -26 -62 -16 9 -29 8 -56 -3 -42 -18 -58
-14 -75 20 -17 30 -32 26 -45 -12 -16 -47 -24 -54 -54 -48 -24 5 -29 2 -35
-20 -6 -25 -26 -37 -26 -16 0 6 -7 10 -15 10 -16 0 -18 -15 -8 -73 5 -34 11
-41 52 -59 44 -20 175 -42 331 -56 41 -4 81 -11 88 -16 7 -4 37 -10 65 -11 29
-2 94 -7 146 -11 l94 -7 -7 66 c-3 36 -15 94 -26 128 -11 34 -20 80 -20 103
-1 57 -18 76 -68 76 -31 0 -45 5 -56 22 -13 19 -19 20 -41 10 -34 -16 -35 -15
-35 6 0 10 -7 27 -15 38 -20 27 -18 57 5 87 25 32 25 52 -1 78 -11 11 -19 30
-17 42 3 20 10 22 77 25 79 3 111 -11 111 -50 0 -11 5 -16 11 -13 6 4 13 -2
16 -14 3 -12 9 -21 13 -21 5 0 18 -16 30 -36 21 -32 24 -34 40 -19 23 21 36
72 50 197 8 77 9 112 1 126 -16 30 -15 33 29 80 22 23 40 46 40 52 0 5 9 14
20 20 11 6 22 21 26 34 3 13 17 33 30 45 28 24 30 43 9 61 -8 7 -15 25 -15 41
0 15 -6 32 -13 36 -8 4 -17 16 -20 26 -9 23 2 69 14 61 5 -3 14 7 19 22 17 43
1 114 -25 114 -7 0 -18 7 -25 15 -7 8 -27 15 -46 15 -32 0 -33 1 -36 46 -4 55
-26 77 -58 56 -19 -11 -20 -10 -20 22 0 18 7 39 15 46 8 7 15 20 15 28 0 12 3
13 12 4 7 -7 26 -12 44 -12 26 0 34 6 48 34 9 19 16 39 16 44 0 16 -98 82
-123 82 -19 0 -27 12 -51 78 -42 116 -54 142 -68 142 -7 0 -22 14 -33 30 -11
17 -30 33 -42 36 -20 5 -21 8 -7 21 8 8 21 28 29 44 9 16 22 29 31 29 41 0
110 -26 131 -49 23 -25 24 -30 18 -132 -6 -103 -5 -107 17 -121 15 -10 52 -16
106 -17 45 -1 97 -8 115 -15 75 -30 181 -7 226 50 10 13 24 24 30 24 6 0 11 5
11 10 0 6 15 10 33 10 27 0 40 10 91 71 48 58 57 76 54 100 -4 24 -1 29 17 29
11 0 47 24 80 54 63 59 101 81 154 92 23 4 30 17 40 71 8 39 20 62 54 97 23
25 48 46 53 46 6 0 23 14 40 31 16 17 41 37 57 45 15 8 27 21 27 29 0 8 13 27
28 43 16 16 41 59 57 96 23 55 36 71 74 95 25 15 63 33 84 40 20 7 37 16 37
20 0 4 18 16 40 27 22 10 40 25 40 32 0 6 6 12 14 12 8 0 21 6 28 14 8 7 23
16 35 20 56 18 128 115 111 151 -7 17 -4 28 19 54 57 68 145 151 159 151 8 0
37 23 64 51 31 33 50 46 53 37 4 -10 8 -10 16 2 9 13 38 15 182 12 156 -3 175
-1 210 18 22 11 46 20 54 20 12 0 15 22 15 130 0 129 -6 148 -32 112 -7 -10
-29 -28 -48 -41 -46 -32 -60 -50 -60 -79 0 -16 -5 -22 -13 -19 -7 3 -19 -4
-25 -14 -10 -15 -24 -19 -66 -19 -67 0 -88 17 -79 63 7 40 95 132 140 147 17
6 37 18 43 26 9 9 33 14 76 14 l64 0 0 542 0 543 -34 -51 c-19 -28 -42 -51
-51 -51 -9 0 -25 18 -36 39 -11 22 -28 42 -37 45 -9 4 -20 11 -24 17 -8 12
-38 -10 -38 -28 0 -6 -13 -26 -29 -44 -34 -36 -81 -45 -81 -14 0 12 -2 14 -8
4 -7 -10 -16 -9 -47 4 l-39 16 25 19 c13 10 27 19 31 19 3 0 9 14 13 31 4 17
22 48 39 68 62 69 86 113 86 158 0 37 6 47 48 88 49 49 116 85 158 85 l24 0 0
515 0 515 -749 0 -748 0 -6 -45 c-2 -25 -11 -54 -19 -63 -9 -9 -18 -32 -22
-50 -3 -19 -24 -70 -46 -115 -40 -81 -85 -127 -123 -127 -21 0 -67 -21 -67
-31 0 -4 -9 -11 -21 -14 -11 -4 -40 -27 -64 -51 -38 -38 -44 -49 -44 -86 0
-82 -18 -213 -34 -248 -9 -19 -27 -47 -41 -62 -23 -25 -31 -28 -95 -28 l-69 0
-4 64 c-4 75 -1 96 14 96 15 0 37 31 38 51 0 9 6 19 14 22 15 6 86 192 86 227
0 25 -34 88 -58 108 -9 6 -28 12 -43 12 -27 0 -39 15 -39 50 0 25 78 100 104
100 29 0 66 27 66 48 0 13 2 14 9 4 6 -11 10 -10 15 3 4 12 14 16 30 13 27 -5
48 7 65 40 9 17 16 21 25 13 9 -8 17 -2 29 25 9 19 17 37 17 39 0 3 -398 5
-885 5 l-885 0 0 -24 c0 -42 -10 -56 -42 -56 -29 0 -30 -1 -23 -37 4 -21 11
-40 16 -41 6 -3 6 -9 1 -15 -9 -12 -30 -178 -29 -227 0 -14 -1 -68 -3 -121 -2
-72 2 -103 14 -127 22 -42 20 -57 -11 -132 -33 -77 -63 -121 -70 -102 -3 6
-11 12 -19 12 -8 0 -14 7 -14 15 0 11 -11 15 -43 15 -24 0 -47 -3 -51 -7 -4
-4 -17 -8 -28 -8 -15 0 -28 -14 -45 -44 -12 -24 -23 -50 -23 -57 0 -7 -13 -26
-29 -41 -25 -25 -30 -40 -35 -99 -4 -38 -12 -78 -18 -89 -7 -11 -23 -40 -36
-65 -13 -25 -28 -49 -33 -55 -5 -5 -9 -17 -9 -27 0 -10 -4 -18 -10 -18 -5 0
-10 -11 -10 -24 0 -25 -21 -83 -46 -130 -11 -18 -15 -42 -11 -67 3 -22 3 -48
0 -59 -8 -30 -33 -25 -33 6 0 22 -2 25 -15 14 -12 -10 -18 -10 -29 -1 -12 10
-18 7 -31 -18 -16 -32 -29 -39 -40 -21 -8 12 -73 -20 -99 -49 -33 -37 -12 -36
69 1 13 6 31 5 48 -1 22 -9 29 -8 34 4 4 12 9 13 19 4 7 -6 18 -8 24 -4 23 14
8 -33 -20 -60 -17 -16 -30 -33 -30 -38 0 -13 54 -3 140 26 58 19 79 23 95 14
18 -9 16 -12 -23 -28 -45 -20 -53 -34 -23 -44 22 -7 33 -28 25 -49 -9 -23 -31
-26 -49 -6 -9 10 -24 16 -36 13 -22 -6 -25 -23 -7 -41 7 -7 8 -12 2 -12 -6 0
-19 -8 -30 -17 -10 -10 -26 -18 -34 -18 -8 0 -16 -10 -18 -21 -2 -15 -13 -24
-35 -28 -36 -7 -77 -42 -77 -66 0 -25 -11 -31 -28 -17 -12 10 -16 9 -20 -1 -2
-7 -15 -25 -28 -39 -13 -14 -24 -29 -24 -33 0 -4 -9 -17 -20 -30 -11 -13 -20
-18 -20 -12 0 7 -11 12 -25 12 -33 0 -32 18 2 31 34 13 43 26 43 65 0 17 7 37
15 44 26 22 18 62 -20 97 -19 18 -35 41 -35 52 0 13 -11 23 -35 31 -31 10 -33
13 -23 36 14 29 21 30 91 3 47 -18 58 -19 70 -8 12 12 10 17 -18 36 -23 16
-32 28 -28 41 2 10 -2 24 -10 31 -8 6 -13 21 -10 31 3 13 0 20 -8 21 -24 2
-44 -3 -50 -12 -7 -13 -71 49 -66 64 2 8 28 11 80 8 43 -1 77 1 77 6 0 10 -57
41 -84 45 -11 2 -21 9 -24 15 -4 13 3 17 51 27 15 4 27 13 27 21 0 7 10 17 23
22 16 6 4 9 -48 13 -38 3 -78 4 -87 2 -16 -4 -16 -6 -1 -28 19 -29 13 -38 -17
-29 -17 5 -21 13 -17 32 3 17 -1 28 -14 36 -22 13 -25 37 -6 38 6 0 33 0 60
-1 48 -2 61 11 30 29 -17 9 -17 10 0 29 17 19 17 19 -23 12 -62 -11 -81 33
-24 58 31 15 32 37 2 28 -13 -3 -41 -6 -63 -7 l-40 -1 32 -9 c25 -7 30 -13 26
-29 -5 -18 -11 -20 -49 -14 -52 7 -58 -6 -11 -27 39 -17 42 -41 5 -45 -66 -7
-96 -34 -38 -34 32 0 43 -26 15 -36 -12 -5 -11 -9 5 -27 27 -28 26 -33 -20
-63 -43 -29 -49 -41 -24 -51 18 -7 64 34 64 58 0 9 8 20 17 23 16 7 33 -8 33
-31 0 -22 -19 -63 -30 -63 -6 0 -27 -12 -46 -26 -33 -26 -34 -26 -34 -5 0 25
-1 25 -48 4 l-37 -17 38 -4 c29 -2 37 -7 37 -23 0 -10 7 -19 15 -19 19 0 19
-27 0 -47 -8 -8 -13 -19 -10 -24 4 -5 0 -7 -7 -4 -20 7 -49 -61 -33 -75 10 -8
26 -3 60 19 25 16 41 32 36 36 -16 9 -14 48 1 43 16 -6 18 -41 6 -84 -9 -35
-72 -94 -99 -94 -9 0 -24 -11 -33 -25 -16 -24 -16 -25 4 -25 11 0 20 -4 20
-10 0 -5 -10 -10 -22 -10 -22 -1 -23 -1 -4 -15 18 -14 18 -16 4 -27 -16 -13
-42 -53 -74 -117 -10 -18 -30 -41 -46 -51 -23 -14 -26 -19 -14 -23 9 -4 16
-11 16 -17 0 -7 -6 -8 -19 0 -33 17 -48 11 -23 -9 26 -23 28 -34 5 -52 -11
-10 -14 -10 -9 -1 4 7 2 12 -6 12 -7 0 -18 -11 -24 -25 -10 -20 -9 -27 6 -40
18 -17 30 -9 43 28 9 23 27 22 27 -3 0 -13 -10 -24 -26 -30 -14 -6 -23 -14
-20 -19 3 -4 -6 -13 -19 -19 -27 -12 -34 -32 -11 -32 8 0 23 -8 35 -17 l22
-18 -26 -27 c-14 -16 -20 -28 -14 -28 7 0 9 -3 5 -7 -3 -4 -21 11 -38 33 -46
56 -159 167 -185 181 -12 6 -34 14 -50 17 -28 6 -29 5 -48 -56 -19 -58 -45
-90 -45 -53 0 11 -6 15 -18 11 -13 -4 -22 1 -29 16 -20 41 -32 88 -27 102 3 8
-2 26 -11 40 -27 41 -14 56 42 49 49 -6 194 -53 246 -80 18 -9 41 -13 59 -9
16 3 39 1 50 -5 49 -26 31 17 -45 106 -19 22 -39 50 -46 63 -6 12 -18 22 -25
22 -20 0 -57 45 -51 62 9 23 46 35 82 28 18 -4 36 -3 42 3 7 7 18 5 35 -7 14
-9 34 -16 45 -16 38 0 30 28 -25 87 -29 32 -54 63 -54 70 0 6 -15 15 -32 19
-18 3 -47 17 -64 30 -25 20 -106 44 -145 44 -14 0 -10 -22 7 -41 13 -14 14
-29 7 -86 -8 -68 -8 -68 -38 -65 -16 2 -32 7 -35 11 -3 4 -25 8 -49 9 -24 0
-49 6 -55 12 -35 35 -103 -12 -132 -93 -4 -9 -18 -20 -31 -23 -22 -6 -24 -11
-19 -38 4 -17 11 -32 16 -34 15 -5 12 -22 -4 -22 -16 0 -26 -21 -26 -59 0 -15
-4 -31 -10 -37 -5 -5 -11 -25 -12 -43 -3 -32 0 -35 32 -43 39 -9 80 -3 80 11
0 5 -7 16 -15 25 -36 35 -1 96 55 96 49 0 99 -47 100 -92 0 -30 -40 -80 -61
-76 -9 2 -12 -10 -10 -44 2 -40 0 -46 -16 -42 -135 31 -169 33 -291 23 -69 -6
-136 -15 -150 -20 -24 -9 -25 -8 -19 27 10 61 29 80 88 87 28 4 54 8 56 11 8
8 -7 43 -28 67 l-21 24 -49 -55 c-26 -30 -49 -51 -49 -47 0 10 45 95 66 124
10 14 12 23 5 28 -6 3 -11 0 -11 -8 0 -8 -18 -33 -41 -55 -22 -23 -44 -54 -48
-69 -6 -24 -12 -27 -45 -26 l-38 0 7 -53 c3 -30 4 -54 0 -54 -3 0 -22 7 -43
16 -41 17 -81 59 -82 86 0 33 -75 53 -86 23 -9 -24 -40 -18 -52 10 -23 50 -19
54 60 70 9 1 25 -6 34 -16 10 -11 37 -21 66 -25 26 -4 51 -11 54 -15 10 -16
29 -9 68 25 24 20 37 39 34 48 -4 10 9 21 43 37 44 19 48 25 43 47 -7 27 10
33 24 8 7 -13 13 -14 31 -5 28 16 27 39 -3 51 -57 21 -82 110 -44 160 12 16
19 33 15 37 -10 10 -57 -38 -57 -58 0 -10 -8 -20 -19 -24 -10 -3 -26 -14 -36
-25 -20 -22 -9 -26 -103 46 -15 12 -38 25 -52 29 -14 4 -36 14 -49 22 -22 14
-25 14 -37 -1 -8 -12 -14 -14 -19 -6 -4 6 -14 9 -22 5 -9 -3 -25 3 -36 12 -19
18 -20 17 -13 -29 l7 -48 -30 0 c-16 0 -33 5 -36 11 -5 7 -13 5 -25 -6 -16
-15 -18 -14 -24 2 -6 15 -10 13 -31 -12 -25 -30 -25 -30 -31 -7 -6 21 -8 22
-30 7 -39 -25 -48 -17 -20 18 14 17 38 56 51 84 20 42 32 54 58 61 23 6 32 14
32 29 0 12 3 24 8 27 4 3 5 3 2 0 -2 -4 0 -15 6 -25 10 -20 63 -27 74 -9 19
30 165 -14 184 -56 6 -13 15 -24 20 -24 6 0 19 -10 30 -21 11 -12 31 -21 46
-21 18 0 27 -7 31 -24 7 -28 34 -32 34 -5 0 10 7 24 15 31 8 7 15 20 15 29 0
21 -47 66 -77 75 -11 4 -27 13 -33 21 -7 8 -25 15 -41 15 -18 0 -32 7 -39 20
-8 14 -21 20 -48 21 -37 1 -37 1 -11 12 14 7 34 18 43 26 15 13 15 16 -4 36
-25 27 -11 42 20 23 12 -8 19 -20 16 -30 -2 -10 0 -21 5 -24 5 -3 9 2 9 10 0
20 34 38 57 29 12 -4 10 2 -9 19 -26 25 -78 47 -108 46 -8 -1 -29 2 -47 6 -17
4 -34 3 -37 -2 -8 -13 -89 -3 -98 12 -12 17 -9 33 7 50 8 8 11 17 7 20 -5 3
-10 26 -10 52 -1 25 -4 49 -6 53 -2 3 0 16 4 27 7 16 15 20 34 17 18 -4 28 0
32 12 5 13 14 15 45 10 32 -5 39 -3 49 14 13 25 9 27 -72 34 -57 5 -58 5 -58
-20 0 -15 -5 -23 -12 -20 -8 2 -13 20 -13 43 0 38 1 39 43 48 35 7 45 6 55 -7
11 -14 19 -10 72 38 57 53 58 55 31 55 -19 0 -29 -6 -33 -20 -3 -11 -12 -20
-21 -20 -8 0 -20 -8 -27 -17 -11 -15 -16 -16 -38 -4 -14 8 -35 11 -46 8 -18
-4 -21 -1 -21 25 l0 30 -27 -18 c-16 -10 -34 -24 -42 -31 -9 -10 -26 -12 -51
-8 -41 7 -58 -6 -35 -25 11 -9 18 -10 29 -1 10 9 16 8 26 -4 7 -9 19 -14 27
-11 7 3 13 1 13 -4 0 -5 -10 -10 -22 -12 -27 -4 -36 -28 -11 -28 22 0 43 -18
43 -37 0 -7 -9 -13 -20 -13 -13 0 -24 -10 -30 -25 -14 -36 -60 -36 -60 1 0 23
-3 25 -32 22 -18 -2 -36 -7 -39 -12 -4 -5 -21 5 -38 23 -20 20 -40 31 -58 31
-28 -1 -28 -1 7 -18 29 -14 34 -22 32 -44 -3 -22 2 -28 33 -38 30 -10 35 -15
29 -32 -6 -19 -3 -20 25 -15 23 5 31 3 31 -8 0 -17 14 -19 40 -5 12 6 29 6 50
-1 25 -9 31 -16 26 -33 -3 -11 -6 -31 -6 -43 0 -20 -5 -23 -44 -23 -25 0 -48
-6 -55 -14 -14 -17 -8 -21 42 -30 41 -8 49 -28 18 -47 -24 -16 -16 -48 15 -60
24 -8 33 -29 14 -29 -14 0 -62 30 -77 48 -10 12 -16 11 -42 -4 -17 -10 -31
-24 -31 -30 0 -18 -29 -25 -50 -12 -16 10 -24 9 -49 -10 -16 -12 -36 -19 -44
-16 -13 5 -87 -32 -87 -43 0 -7 49 2 73 12 17 7 18 6 6 -13 -16 -26 -7 -37 19
-23 25 13 32 5 32 -35 0 -19 -6 -34 -15 -38 -8 -3 -15 -12 -15 -19 0 -8 -13
-17 -29 -20 -30 -6 -131 -72 -131 -86 0 -13 79 -9 84 5 8 21 36 17 36 -6 0
-22 20 -26 51 -10 15 8 26 7 48 -6 27 -16 32 -15 99 5 76 24 93 22 85 -8 -5
-20 -43 -61 -43 -47 0 4 -12 -2 -26 -13 -32 -25 -50 -27 -58 -5 -3 9 -12 14
-20 11 -7 -3 -19 0 -25 6 -10 10 -35 3 -81 -24 -8 -5 -25 -13 -37 -18 -12 -6
-24 -19 -28 -30 -3 -12 -15 -21 -25 -21 -13 0 -27 -14 -40 -40 -25 -49 -25
-53 -1 -38 13 8 24 9 33 2 14 -11 74 -10 123 2 29 7 29 7 14 -17 -9 -13 -26
-25 -37 -27 -27 -4 -72 -62 -48 -62 34 0 9 -28 -53 -59 -23 -12 -44 -28 -47
-36 -3 -8 -14 -17 -25 -20 -10 -4 -19 -13 -19 -22 0 -10 6 -13 16 -9 8 3 24 2
34 -4 13 -7 21 -6 30 5 7 8 18 15 25 15 18 0 96 37 123 58 20 15 27 30 31 63
1 4 16 18 34 32 40 31 105 43 130 25 20 -15 14 -48 -9 -48 -7 0 -18 -9 -23
-19 -6 -10 -24 -24 -41 -29 -23 -8 -30 -17 -30 -36 0 -16 -6 -26 -15 -26 -15
0 -19 16 -15 54 1 11 -3 16 -9 11 -6 -3 -9 -10 -6 -15 3 -5 -11 -27 -30 -49
-20 -22 -40 -53 -44 -68 -4 -15 -13 -29 -19 -29 -7 -1 -18 -2 -24 -3 -15 -1
-51 -61 -42 -70 3 -3 40 -7 82 -7 42 -1 118 -8 167 -15 112 -17 254 -16 365 1
62 10 78 15 63 21 -12 4 -24 16 -27 26 -3 10 -20 33 -37 51 -40 43 -30 53 17
16 19 -16 47 -36 60 -44 14 -9 24 -25 24 -37 0 -26 9 -27 98 -17 42 6 52 10
52 25 0 11 4 19 8 19 12 0 13 -181 1 -220 -6 -19 -13 -48 -15 -63 l-5 -28 83
7 c115 10 162 40 239 156 28 42 70 84 80 81 3 -1 4 9 1 22 -5 27 -1 29 117 44
41 6 78 8 83 5 18 -11 68 8 68 26 0 22 45 33 61 14 17 -21 59 -25 139 -14 41
6 95 14 120 17 33 4 50 12 64 31 14 18 16 27 8 30 -7 2 -12 17 -12 33 0 20 9
35 30 51 37 27 96 112 106 151 4 19 18 34 40 45 19 8 34 19 34 24 0 5 11 6 25
2 14 -4 32 -1 40 6 19 16 46 6 39 -15 -3 -8 -2 -15 4 -15 5 0 15 -14 22 -31
17 -41 1 -52 -64 -44 l-50 6 -68 -72 c-37 -40 -68 -76 -68 -81 0 -4 -7 -8 -15
-8 -8 0 -22 -12 -31 -26 -15 -22 -15 -27 -3 -35 8 -5 21 -6 31 -3 9 2 19 0 23
-6 4 -6 -4 -10 -19 -10 -14 0 -26 -4 -26 -9 0 -5 51 -8 113 -8 104 1 115 -1
146 -24 18 -13 42 -41 54 -61 11 -21 25 -38 30 -38 6 0 28 18 49 40 22 22 41
40 43 40 2 0 32 17 67 39 35 21 73 41 83 43 13 2 19 11 18 23 -3 19 10 86 23
119 13 35 -32 14 -66 -31 -19 -25 -46 -57 -59 -72 -13 -14 -35 -44 -50 -66
l-26 -40 -3 53 c-2 28 -6 52 -10 52 -4 0 -29 -23 -54 -50 -60 -65 -77 -66 -68
-4 6 39 16 54 56 91 44 41 52 44 86 39 32 -5 44 -1 84 29 25 19 52 35 61 35 8
0 35 18 60 39 86 76 143 95 206 70 23 -10 27 -17 27 -54 0 -25 5 -45 13 -48 6
-3 -3 -6 -20 -6 -43 -1 -71 -40 -55 -75 11 -25 7 -36 -15 -36 -7 0 -13 11 -13
23 0 24 -27 57 -47 57 -12 0 -23 -23 -23 -47 0 -9 -12 -32 -27 -52 -16 -20
-33 -45 -39 -56 -5 -11 -18 -19 -27 -17 -12 2 -19 -6 -23 -27 -4 -16 -18 -40
-33 -53 -15 -14 -37 -37 -49 -54 -15 -19 -25 -25 -28 -16 -8 17 -34 15 -34 -3
0 -8 -15 -29 -33 -47 -35 -36 -37 -58 -6 -89 10 -10 21 -31 25 -46 6 -27 28
-80 62 -150 l16 -32 52 57 c29 31 63 68 77 82 24 24 29 38 47 130 13 69 31
110 46 110 8 0 14 4 14 10 0 5 15 17 33 26 17 9 44 27 58 41 34 32 87 40 127
19 31 -16 43 -36 22 -36 -5 0 -10 4 -10 9 0 4 -11 6 -25 3 -14 -2 -25 -9 -25
-14 0 -5 9 -6 21 -3 14 5 25 1 34 -11 8 -12 25 -18 49 -17 29 1 40 -5 57 -28
22 -32 53 -37 83 -14 31 23 43 18 77 -32 18 -27 36 -50 39 -53 4 -3 10 -17 13
-31 6 -25 49 -79 63 -79 3 0 35 -27 69 -61 61 -59 95 -124 95 -180 0 -11 5
-19 10 -19 6 0 10 -12 10 -26 l0 -27 -26 28 c-15 16 -27 33 -28 39 -5 25 -36
88 -51 102 -8 9 -15 22 -15 30 0 8 -10 14 -21 14 -23 0 -43 20 -59 58 -13 31
-30 18 -30 -23 0 -19 -5 -37 -10 -40 -12 -7 -40 53 -40 87 0 13 -12 31 -25 41
l-24 17 -7 -35 c-3 -19 -10 -37 -14 -40 -14 -8 -31 22 -34 59 -3 44 -11 53
-31 36 -13 -11 -15 -9 -15 12 0 13 7 34 16 46 14 20 14 23 0 28 -9 3 -27 -1
-39 -9 -32 -21 -59 -5 -51 29 5 18 2 24 -10 24 -9 0 -16 -6 -16 -12 0 -21 -13
-35 -39 -43 -22 -7 -23 -5 -17 19 4 15 4 31 1 36 -8 13 -35 1 -35 -16 0 -8 -9
-14 -20 -14 -11 0 -20 4 -20 10 0 5 -9 14 -20 20 -30 16 -41 -17 -13 -39 33
-27 42 -53 33 -99 -8 -47 -57 -125 -74 -119 -6 2 -17 21 -24 42 -15 46 -29 65
-48 65 -20 0 -17 -40 4 -56 16 -12 16 -14 -6 -29 -37 -27 -62 -58 -69 -85 -11
-46 -31 -65 -70 -65 -47 0 -58 -26 -32 -80 10 -21 19 -42 19 -47 0 -5 26 -57
58 -116 32 -59 68 -132 82 -162 13 -30 40 -79 59 -109 30 -46 35 -63 35 -115
1 -37 6 -64 14 -69 19 -13 14 -22 -13 -23 -20 -2 -28 6 -46 45 -11 25 -28 60
-37 76 -21 41 -198 385 -242 470 -37 71 -72 153 -67 158 1 1 -7 16 -18 32 -12
17 -45 80 -74 140 -103 216 -101 214 -147 122 -15 -29 -47 -85 -71 -126 -69
-113 -83 -140 -83 -157 0 -8 -17 -36 -38 -62 -22 -26 -45 -63 -52 -82 -14 -35
-71 -128 -187 -305 -35 -52 -63 -97 -63 -99 0 -3 -27 -45 -60 -95 -33 -50 -60
-94 -60 -98 0 -5 -11 -21 -24 -38 l-24 -30 -219 2 c-446 5 -759 14 -788 23
-31 9 -84 8 -102 -3 -6 -4 -24 -2 -41 2 -17 5 -33 7 -36 4 -3 -3 -11 -1 -18 4
-22 18 -101 20 -179 6 -43 -8 -177 -15 -321 -17 l-247 -4 -35 38 c-20 22 -67
81 -105 132 -39 51 -80 104 -91 118 -12 14 -45 62 -74 107 -69 106 -115 163
-130 163 -13 0 -36 41 -36 63 0 18 -38 85 -61 111 -12 11 -32 41 -46 66 -15
25 -43 65 -63 90 -20 25 -57 79 -82 120 -66 109 -108 170 -118 170 -9 0 -38
-40 -58 -80 -47 -93 -72 -134 -112 -181 -45 -52 -66 -82 -100 -146 -30 -56
-93 -152 -138 -209 -23 -29 -42 -57 -42 -62 0 -7 -126 -180 -174 -238 -14 -18
-26 -35 -26 -39 0 -3 -6 -13 -12 -20 -7 -8 -31 -39 -53 -69 -32 -43 -44 -54
-61 -50 -12 3 -64 -11 -116 -30 -53 -20 -103 -36 -111 -36 -9 0 -26 -4 -39 -9
-44 -17 -169 -44 -175 -37 -3 3 -6 27 -6 53 1 42 5 51 36 78 21 18 70 42 123
59 49 16 98 34 109 40 11 5 60 24 109 40 58 20 93 38 100 51 6 11 15 23 20 26
5 4 6 19 4 33 -3 15 -3 25 -1 22 14 -14 134 110 186 192 58 94 57 92 106 163
24 35 49 69 55 74 27 23 124 188 119 201 -3 8 -16 14 -29 14 -20 0 -23 -4 -19
-22 8 -32 -16 -62 -42 -54 -15 5 -23 18 -28 44 -11 65 -21 71 -54 36 -17 -18
-33 -44 -37 -58 -3 -14 -10 -26 -15 -26 -5 0 -13 -10 -18 -22 -5 -13 -17 -23
-27 -23 -12 0 -20 -8 -22 -21 -2 -12 -12 -30 -23 -40 -10 -9 -19 -25 -19 -35
0 -27 -18 -32 -30 -8 -11 19 -13 20 -27 6 -9 -8 -35 -55 -59 -104 l-43 -88 -1
71 c0 53 4 75 18 90 86 96 92 105 92 135 0 62 55 143 107 155 65 15 138 57
176 101 22 24 50 49 61 54 12 5 28 14 38 21 25 18 48 -6 48 -51 0 -35 14 -61
32 -61 4 0 8 7 8 15 0 8 13 29 29 47 37 43 54 76 55 108 1 20 5 24 24 22 12
-2 22 1 22 7 0 6 12 8 28 5 20 -4 34 0 46 11 15 16 14 20 -19 65 -19 26 -35
54 -35 62 0 14 -34 48 -49 48 -5 0 -12 -22 -16 -49 -7 -52 -33 -73 -56 -45 -6
8 -22 14 -34 14 -30 0 -38 24 -21 58 8 16 11 34 6 42 -4 8 -11 25 -14 38 -11
35 42 30 79 -8 31 -32 75 -41 75 -14 0 15 -57 74 -72 74 -5 0 -8 7 -8 15 0 8
-12 18 -27 21 -16 4 -31 12 -35 18 -37 54 78 20 138 -41 23 -24 51 -43 63 -43
11 0 30 -13 43 -30 25 -35 38 -38 38 -10 0 12 -26 48 -57 81 -32 33 -80 83
-108 112 -46 48 -81 105 -74 117 2 3 9 4 16 2 7 -2 13 6 13 18 0 25 2 25 50 0
22 -11 45 -20 51 -20 7 0 23 -10 36 -22 13 -12 26 -19 29 -15 9 9 -54 85 -76
92 -11 4 -20 14 -20 24 0 10 -7 25 -16 32 -14 11 -18 10 -29 -5 -13 -17 -16
-16 -54 15 -40 33 -51 61 -31 74 20 13 9 36 -25 52 -19 9 -35 20 -35 25 0 14
37 8 61 -10 13 -10 35 -23 49 -30 14 -6 37 -21 51 -32 19 -16 33 -19 53 -14
26 6 26 7 10 26 -10 10 -34 28 -53 40 -49 29 -81 59 -75 69 8 14 40 10 54 -6
7 -8 21 -15 31 -15 11 0 19 -4 19 -8 0 -5 18 -20 40 -35 48 -31 50 -25 10 30
-24 32 -39 43 -70 48 -21 4 -44 13 -51 21 -16 19 -32 18 -91 -8 -40 -17 -54
-19 -69 -10 -29 18 -39 14 -39 -16 0 -20 -8 -32 -30 -45 -17 -10 -35 -15 -41
-12 -6 4 -13 -2 -15 -12 -3 -11 -23 -30 -45 -43 -21 -14 -39 -28 -39 -31 0 -4
-12 -9 -27 -12 -20 -5 -33 -18 -46 -46 -10 -23 -33 -49 -53 -61 -36 -23 -42
-34 -21 -47 18 -11 44 -4 85 23 22 15 45 23 57 20 11 -3 26 -1 34 3 7 5 27 5
43 0 39 -11 57 -2 64 30 4 14 11 31 16 38 5 7 8 24 6 39 -2 15 2 29 8 31 14 5
27 -42 19 -68 -10 -29 14 -23 25 7 6 14 16 24 22 22 16 -6 50 -115 46 -148 -3
-23 -8 -25 -58 -28 -31 -2 -64 2 -78 10 -22 11 -26 10 -48 -17 -13 -17 -31
-29 -40 -27 -8 2 -35 -20 -60 -47 -35 -39 -53 -51 -75 -51 -18 0 -33 -7 -41
-20 -7 -11 -18 -20 -24 -20 -16 0 -54 -44 -54 -63 0 -13 9 -17 40 -17 34 0 40
-3 40 -21 0 -16 4 -19 18 -14 47 20 118 45 126 45 5 0 2 -8 -7 -18 -9 -10 -19
-34 -23 -53 -9 -56 -25 -87 -50 -104 -13 -8 -24 -24 -24 -35 0 -25 2 -25 50 0
22 11 46 20 55 20 12 0 15 13 15 68 0 67 1 69 43 110 62 61 84 60 119 -8 32
-62 32 -87 2 -107 -19 -12 -24 -12 -38 2 -15 15 -19 15 -51 -5 -19 -12 -35
-27 -35 -34 0 -7 -16 -26 -35 -42 -19 -16 -35 -34 -35 -41 0 -7 -7 -16 -17
-21 -12 -7 -15 -18 -10 -46 5 -33 4 -36 -16 -31 -17 5 -28 -2 -45 -24 -12 -17
-28 -31 -35 -31 -20 -1 -84 -64 -90 -90 -4 -14 -17 -38 -29 -53 l-23 -28 1 53
c1 29 4 62 8 74 6 18 1 25 -34 43 -22 11 -47 21 -54 21 -8 0 -16 6 -19 14 -3
8 -22 22 -41 31 -27 13 -36 24 -36 41 0 34 30 31 93 -9 72 -46 84 -50 90 -26
6 21 -29 83 -48 86 -5 1 -12 7 -15 15 -17 41 -56 91 -77 99 -38 14 -42 12 -45
-33 -5 -72 -23 -43 -23 38 0 52 4 77 14 83 11 7 11 19 1 67 -7 33 -16 64 -21
70 -6 7 -4 15 3 22 10 8 27 4 63 -14 31 -15 59 -22 74 -19 l24 6 -22 17 c-13
9 -41 32 -63 50 -22 17 -45 32 -51 32 -7 0 -22 3 -34 6 -16 5 -24 -1 -35 -23
-10 -22 -21 -29 -50 -31 -28 -2 -43 -11 -62 -37 -14 -18 -26 -37 -26 -41 0 -4
-10 -18 -22 -31 -27 -29 -18 -39 23 -24 39 13 69 39 69 58 0 15 28 17 50 3 19
-12 18 -89 -2 -104 -7 -6 -24 -25 -36 -43 -13 -18 -36 -40 -52 -50 -34 -20
-41 -66 -14 -81 14 -8 14 -12 3 -30 -18 -28 -29 -27 -54 5 -11 14 -32 39 -46
57 -14 17 -35 46 -48 64 -28 40 -41 41 -41 2 0 -16 -5 -30 -12 -30 -6 0 -9 3
-5 6 8 9 -18 59 -50 94 -17 20 -37 30 -62 32 -34 3 -36 5 -46 52 -6 27 -16 51
-23 54 -7 2 -12 10 -12 17 0 8 -8 18 -17 24 -29 16 53 26 93 12 18 -7 68 -16
111 -21 61 -6 81 -13 95 -30 15 -19 19 -20 24 -6 11 29 -33 103 -76 128 -26
15 -44 34 -51 56 -12 36 -38 43 -46 12 -7 -25 -27 -21 -32 6 -5 27 -21 35 -55
28 -28 -6 -28 -6 -24 35 3 38 1 42 -22 48 -46 11 -70 42 -67 87 2 36 -1 41
-22 44 -13 2 -28 -1 -34 -7 -17 -17 -24 -13 -31 15 -8 30 -42 30 -39 -1 3 -35
-42 -41 -68 -9 -11 14 -3 19 27 15 6 -1 16 9 23 21 6 13 23 39 37 58 19 26 25
45 23 75 -8 130 8 179 46 142 19 -20 19 -36 0 -57 -22 -25 -3 -71 43 -100 42
-27 42 -27 42 -69 0 -23 8 -34 38 -52 20 -13 39 -27 40 -31 2 -4 13 -8 24 -8
10 0 35 -12 54 -26 32 -25 40 -23 35 9 0 4 3 7 8 7 5 0 7 8 4 18 -2 9 -31 30
-64 46 -40 20 -59 35 -59 48 0 13 -8 18 -30 18 -35 0 -34 -2 -14 38 l15 32 45
-30 c24 -17 44 -28 44 -25 0 11 -25 50 -37 58 -7 4 -13 17 -13 29 0 17 2 19
16 7 8 -7 25 -14 37 -15 12 -1 35 -6 51 -10 26 -6 28 -5 21 16 -6 19 -4 22 11
18 34 -10 39 -10 69 -9 17 1 25 5 20 10 -23 21 -94 33 -199 33 l-114 1 -33 43
c-38 51 -50 57 -105 48 -30 -4 -44 -11 -47 -26 -4 -14 -12 -19 -29 -16 -13 2
-22 9 -20 16 1 6 3 18 5 25 1 6 -10 13 -24 15 -15 2 -35 12 -44 22 -20 22 -17
25 50 34 22 3 41 10 43 16 5 15 22 12 22 -4 0 -21 21 -31 31 -15 5 8 8 52 7
99 0 47 2 113 5 148 5 50 3 62 -8 62 -9 0 -15 -10 -15 -26 0 -26 -4 -27 -59
-6 -11 4 -11 1 -1 -17 9 -17 17 -21 36 -17 21 6 24 3 24 -24 0 -19 -6 -33 -16
-37 -11 -4 -12 -8 -4 -13 15 -9 24 -81 12 -98 -7 -10 -19 -7 -56 14 -30 17
-60 25 -84 24 -20 -1 -51 -1 -68 -1 -44 1 -48 -20 -12 -63 42 -51 33 -63 -51
-72 -39 -3 -71 -10 -71 -15 0 -14 33 -49 46 -49 6 0 25 7 40 15 38 19 74 19
74 0 0 -8 -4 -15 -10 -15 -21 0 -9 -18 20 -30 18 -7 46 -10 70 -6 22 3 50 1
65 -6 28 -12 46 -59 26 -66 -9 -3 -9 -7 -1 -17 7 -8 10 -24 8 -37 -3 -20 -10
-23 -51 -26 -28 -2 -55 2 -63 9 -8 6 -17 9 -21 6 -10 -11 -33 14 -33 34 0 11
-6 19 -14 19 -7 0 -19 7 -26 15 -7 8 -25 15 -41 15 -15 0 -30 4 -33 8 -7 12
-126 14 -126 3 0 -10 39 -27 52 -23 5 1 18 -14 30 -33 20 -30 29 -35 62 -35
31 0 37 -3 32 -16 -5 -13 -2 -14 11 -9 10 5 29 8 43 9 38 2 31 -25 -11 -39
-20 -7 -55 -25 -77 -39 -24 -15 -56 -26 -75 -26 -20 0 -44 -9 -57 -20 -13 -11
-37 -20 -56 -20 -18 0 -36 -4 -39 -10 -7 -11 39 -25 54 -16 5 3 11 1 13 -5 2
-6 14 -2 29 9 23 19 79 26 79 10 0 -4 -10 -14 -22 -22 -24 -17 -23 -22 7 -28
16 -2 21 3 23 29 4 39 21 50 83 54 87 5 96 -34 14 -71 -29 -13 -52 -27 -50
-31 9 -13 -37 -43 -64 -41 -16 1 -46 -10 -74 -28 -26 -16 -56 -30 -67 -30 -10
0 -23 -6 -27 -13 -4 -7 -20 -20 -35 -30 -36 -23 -38 -52 -3 -43 81 20 75 21
75 -13 0 -40 19 -40 45 -1 23 35 35 38 42 10 3 -11 9 -20 14 -20 13 0 20 22
24 72 3 58 3 58 16 58 6 0 9 -14 7 -32 l-3 -33 84 2 84 2 34 48 c32 44 33 49
16 61 -15 10 -15 15 -5 30 7 9 15 25 19 35 4 14 12 17 32 12 37 -10 49 -22 53
-57 4 -41 25 -47 40 -11 7 15 13 30 14 32 2 2 15 -6 29 -17 l26 -20 -23 -16
-22 -16 24 -25 c23 -24 23 -25 5 -46 -16 -17 -17 -22 -5 -29 10 -7 19 -5 26 5
10 13 12 12 17 -6 4 -15 11 -19 26 -14 15 4 23 -1 34 -21 8 -15 34 -36 57 -48
49 -23 64 -46 30 -46 -25 0 -80 27 -80 39 0 5 -13 12 -30 16 -16 4 -32 11 -35
16 -4 5 -18 9 -32 9 -24 0 -25 -1 -10 -17 26 -30 25 -58 -2 -61 -31 -5 -42 14
-35 57 9 45 -11 56 -55 30 -31 -18 -35 -19 -50 -4 -15 14 -18 13 -42 -16 -23
-29 -27 -30 -41 -15 -22 21 -35 20 -47 -3 -6 -10 -22 -22 -37 -25 -30 -8 -118
-93 -128 -124 -4 -12 -2 -30 3 -41 11 -20 1 -34 -119 -157 -28 -28 -50 -57
-50 -65 0 -7 -14 -27 -30 -44 -35 -36 -45 -87 -18 -93 18 -4 26 4 67 67 30 46
79 72 160 86 35 6 91 50 91 72 0 5 18 27 40 50 43 44 101 66 122 45 15 -15 20
-110 7 -134 -8 -14 -18 -19 -36 -15 -23 4 -24 3 -18 -29 8 -43 -17 -47 -39 -6
l-14 27 -10 -25 c-15 -40 -40 -56 -63 -42 -29 18 -31 15 -23 -33 7 -47 0 -54
-35 -35 -16 8 -20 5 -24 -19 -6 -29 -10 -31 -104 -47 -23 -5 -43 -21 -75 -63
-56 -71 -53 -87 10 -59 26 11 66 22 90 25 36 4 42 2 42 -14 0 -11 -13 -32 -30
-48 -16 -16 -30 -35 -30 -42 0 -7 -4 -13 -8 -13 -4 0 -16 -13 -25 -30 -24 -39
-40 -38 -56 5 -8 23 -19 35 -31 35 -10 0 -20 3 -22 8 -1 4 -22 22 -45 40 -36
28 -47 32 -78 26 -26 -5 -35 -3 -35 7 0 13 -65 62 -117 88 -17 9 -23 21 -23
46 0 25 -6 38 -22 47 -13 7 -25 13 -28 13 -17 2 -70 41 -67 50 11 32 106 4
167 -48 14 -12 19 -15 13 -7 -7 8 -13 28 -13 46 0 67 -86 143 -162 144 -44 0
-88 18 -88 36 0 15 -58 87 -140 174 -33 36 -67 79 -75 95 -10 20 -37 41 -80
64 -35 19 -67 40 -69 48 -8 19 -33 16 -57 -8 -18 -18 -20 -28 -14 -80 6 -53 5
-59 -12 -59 -10 0 -28 -3 -40 -6 -18 -5 -25 0 -35 22 -6 16 -18 37 -26 46 -23
28 -15 177 9 163 17 -11 9 32 -11 58 -21 26 -18 57 6 57 8 0 14 -10 14 -22 0
-17 14 -31 51 -53 28 -16 58 -42 67 -57 9 -16 28 -30 46 -34 43 -9 84 -31 133
-72 43 -36 64 -45 89 -35 19 7 18 16 -6 43 -11 13 -20 28 -19 34 0 6 7 1 16
-11 8 -13 22 -23 29 -23 8 0 14 -4 14 -10 0 -11 28 -9 47 3 7 4 29 9 49 11 48
3 74 -19 81 -71 5 -39 8 -42 67 -66 88 -36 94 -37 118 -28 21 8 21 9 -15 32
-20 13 -37 29 -37 36 0 16 -62 84 -85 93 -27 10 -55 62 -38 67 7 3 13 11 13
19 0 8 4 14 10 14 5 0 7 -13 3 -30 -5 -27 -3 -30 18 -30 19 0 21 2 9 10 -11 7
-3 10 28 10 31 0 42 4 39 13 -2 6 -11 12 -19 11 -16 -1 -24 51 -8 61 15 10 12
21 -16 54 -14 17 -23 35 -20 40 3 5 -23 34 -59 64 -35 30 -61 57 -58 61 4 3 1
6 -5 6 -8 0 -12 23 -12 70 0 68 -1 70 -27 76 -32 8 -75 39 -66 47 3 3 -6 9
-21 13 -14 3 -26 10 -26 14 0 4 -9 10 -21 13 -26 7 -79 -23 -79 -45 0 -24 -19
-33 -26 -11 -3 10 -10 27 -14 38 -16 37 -18 87 -3 92 22 9 14 39 -14 54 -16 8
-38 24 -51 37 -13 12 -29 22 -37 22 -8 0 -15 4 -15 9 0 4 -11 6 -25 3 -14 -2
-25 -9 -25 -16 0 -6 -4 -4 -9 4 -12 18 -5 31 14 23 11 -4 15 2 15 22 0 23 3
25 23 20 15 -4 18 -4 8 3 -11 8 -10 12 5 20 18 10 17 13 -13 43 -18 17 -33 38
-33 46 0 10 -5 13 -17 8 -64 -26 -72 -26 -97 -10 -27 18 -34 35 -15 35 6 0 20
11 30 24 l19 25 25 -25 c13 -13 37 -24 52 -25 56 -1 124 -13 225 -38 28 -6 38
-6 38 3 0 12 -57 66 -69 66 -12 0 -49 81 -62 135 -6 28 -18 57 -25 66 -8 8
-14 24 -14 35 0 33 -135 187 -159 181 -19 -4 -44 22 -61 64 -9 22 -17 28 -31
24 -23 -8 -44 26 -27 43 7 7 17 12 23 12 7 0 11 10 11 23 -1 18 5 23 32 25 31
3 33 1 27 -19 -13 -41 36 -52 80 -17 26 20 26 22 9 29 -10 4 -33 8 -50 8 -17
1 -33 3 -36 6 -9 9 18 89 31 93 7 2 3 10 -9 20 -12 10 -22 24 -24 32 -2 8 -6
23 -11 33 -4 10 -5 38 -2 62 5 32 2 46 -9 56 -21 18 -34 -3 -34 -57 0 -42 -22
-76 -35 -54 -3 5 -11 10 -16 10 -16 0 11 -43 42 -68 16 -13 29 -28 29 -33 0
-16 -70 -10 -76 6 -4 8 -10 15 -15 15 -14 0 -11 -26 5 -39 18 -15 26 -60 13
-68 -5 -3 -24 10 -41 31 -18 20 -39 36 -47 36 -8 0 -24 6 -35 14 -38 27 -108
61 -154 75 -25 8 -57 27 -72 43 -15 15 -32 28 -38 28 -6 0 -8 10 -4 25 6 23
-2 30 -28 26 -5 0 -8 6 -8 14 0 13 -54 15 -422 15 l-423 0 44 -20z m9698 -765
c27 -13 60 -27 74 -30 15 -2 37 -16 50 -30 13 -13 29 -25 36 -25 16 0 36 -37
27 -51 -3 -6 -12 -8 -19 -5 -24 9 -105 -144 -105 -197 0 -7 -13 -34 -30 -60
-16 -26 -30 -59 -30 -72 0 -16 -6 -25 -15 -25 -8 0 -15 -6 -15 -12 0 -7 -3
-23 -6 -35 -5 -17 -2 -23 10 -23 9 0 24 -9 33 -20 10 -11 30 -20 45 -20 15 0
30 -5 34 -12 5 -7 3 -8 -6 -3 -8 5 -11 3 -8 -6 4 -10 22 -14 67 -12 58 1 66
-3 62 -29 -2 -11 17 -10 24 2 7 12 85 33 93 26 3 -3 -21 -31 -53 -63 -50 -49
-59 -55 -69 -41 -10 14 -15 13 -41 -8 -17 -13 -35 -24 -41 -24 -7 0 -19 -11
-28 -25 -13 -20 -22 -24 -41 -19 -18 4 -25 2 -25 -8 0 -8 -7 -29 -16 -46 -12
-26 -20 -31 -39 -26 -12 3 -26 1 -29 -5 -4 -6 -15 -11 -24 -11 -19 0 -72 -48
-72 -66 0 -9 15 -7 51 8 42 18 55 19 70 9 11 -6 25 -9 31 -5 6 4 8 3 4 -4 -3
-5 0 -13 6 -16 8 -4 9 -8 3 -11 -39 -20 -40 -25 -15 -44 20 -16 22 -21 11 -35
-7 -9 -23 -16 -35 -16 -12 0 -30 -10 -40 -21 l-18 -22 42 6 c56 7 95 36 95 71
1 20 11 33 40 51 49 30 58 30 96 3 26 -19 33 -21 62 -10 19 7 40 12 48 12 8 0
21 9 29 20 8 11 20 20 27 20 6 0 16 6 20 14 5 8 33 33 63 54 52 37 58 39 112
34 66 -5 85 9 103 82 11 41 10 45 -9 50 -11 3 -31 -1 -43 -9 -25 -17 -123 -20
-123 -5 0 6 7 10 15 10 9 0 15 10 16 28 3 57 11 71 59 98 19 10 38 23 41 28 4
5 36 10 70 11 35 2 77 8 92 14 35 14 90 67 83 80 -8 13 4 41 18 41 6 0 22 9
36 20 14 11 32 20 40 20 8 0 23 14 32 30 10 18 25 30 38 30 28 0 54 61 46 105
-4 18 -2 44 4 59 8 23 15 26 60 26 47 0 50 -2 50 -26 0 -14 -5 -35 -12 -47 -6
-12 -10 -41 -9 -63 1 -32 -4 -49 -23 -71 -14 -17 -23 -33 -20 -36 3 -3 -15
-22 -40 -43 -44 -36 -46 -41 -46 -90 0 -61 -50 -207 -83 -242 -12 -13 -49 -46
-83 -73 -48 -39 -69 -66 -100 -127 -21 -42 -42 -79 -45 -82 -4 -3 -10 -16 -14
-29 -4 -14 -18 -36 -31 -50 -13 -14 -24 -29 -24 -33 0 -11 -31 -2 -40 12 -5 8
-7 29 -4 47 3 24 -2 39 -16 53 -20 20 -40 19 -40 -1 0 -36 -92 -65 -104 -34
-10 27 -23 16 -36 -31 -7 -25 -20 -48 -29 -51 -9 -3 -27 -10 -39 -16 -20 -10
-26 -8 -35 8 -7 11 -14 31 -17 44 -7 36 -27 37 -57 2 -15 -17 -31 -31 -36 -31
-5 0 -17 -10 -26 -22 -11 -13 -24 -19 -34 -15 -24 9 -21 21 8 37 14 7 25 21
25 31 0 17 -2 17 -37 2 -21 -8 -42 -19 -48 -23 -5 -4 -28 -11 -50 -15 -46 -8
-95 -31 -95 -45 0 -6 5 -10 10 -10 21 0 9 -19 -19 -28 -40 -14 -71 -47 -71
-76 0 -36 12 -38 66 -11 27 14 63 25 80 25 18 0 58 12 90 27 50 23 73 28 143
28 59 0 86 -4 88 -12 3 -7 20 -13 39 -13 21 0 33 -4 29 -10 -3 -5 -18 -10 -32
-10 -22 0 -61 -10 -108 -26 -5 -2 -34 -18 -64 -35 -51 -28 -54 -29 -72 -13
-18 16 -19 16 -19 -2 0 -11 -13 -27 -31 -36 -27 -16 -29 -21 -23 -53 5 -27 3
-35 -9 -35 -8 0 -18 -11 -21 -25 -7 -29 -36 -34 -36 -7 0 10 5 44 11 76 6 32
8 60 6 62 -8 9 -74 -62 -86 -93 -10 -25 -17 -31 -30 -24 -23 12 -40 3 -62 -32
-11 -20 -27 -32 -41 -32 -15 0 -33 -17 -59 -54 -37 -54 -42 -75 -14 -65 9 4
19 -4 27 -23 6 -15 19 -36 27 -47 9 -10 16 -34 16 -52 l0 -35 -62 68 c-35 37
-63 71 -63 76 0 4 -7 7 -15 7 -8 0 -15 5 -15 10 0 6 -7 10 -15 10 -9 0 -21 12
-28 28 -18 42 -63 82 -91 82 -13 0 -28 5 -31 10 -9 15 62 12 93 -3 65 -33 118
-57 124 -57 3 0 11 15 17 33 21 65 -24 153 -74 141 -14 -3 -26 4 -40 26 -23
34 -60 50 -116 50 -21 0 -40 4 -44 9 -7 12 25 30 42 24 7 -3 29 1 49 7 26 9
42 9 62 1 15 -6 37 -12 49 -14 36 -5 126 -86 120 -108 -9 -33 19 -20 41 19 7
13 12 25 10 25 -45 22 -95 94 -84 122 6 17 46 21 46 5 0 -5 9 -10 20 -10 12 0
20 7 20 18 0 19 -83 112 -100 112 -18 0 -7 44 12 48 9 2 35 -16 59 -40 35 -35
44 -40 47 -25 5 23 -55 102 -88 115 -24 10 -23 11 9 9 19 -1 36 3 38 9 4 12
-87 54 -117 54 -26 0 -48 39 -29 51 20 13 31 11 72 -10 20 -10 37 -15 37 -10
0 5 11 9 25 9 48 0 24 22 -68 61 -21 8 -27 17 -24 30 6 24 -44 53 -74 44 -12
-4 -29 2 -46 15 -26 20 -28 20 -40 4 -7 -10 -13 -24 -13 -31 0 -17 -10 -16
-34 2 -14 11 -22 11 -36 3 -24 -15 -50 5 -50 38 0 14 -9 28 -22 35 l-22 12 24
9 c14 5 88 8 164 6 115 -2 140 0 144 12 3 8 15 22 26 31 20 17 20 18 2 25 -11
4 -47 0 -82 -9 -34 -9 -74 -17 -88 -17 -40 0 -31 25 14 39 26 8 40 18 40 29 0
9 14 32 31 50 26 28 27 32 11 32 -11 0 -25 7 -32 15 -7 8 -25 15 -41 15 -22 0
-29 -5 -29 -20 0 -11 5 -20 11 -20 8 0 8 -4 -1 -15 -6 -8 -8 -20 -4 -26 5 -9
-1 -10 -26 -6 -18 4 -48 7 -67 7 l-34 0 15 29 c20 38 82 74 116 68 27 -6 60
12 60 32 0 19 50 61 105 86 40 19 54 33 68 65 13 32 15 45 6 62 -7 13 -7 23
-1 27 5 3 15 30 22 59 7 29 18 59 26 67 8 7 14 20 14 28 0 18 22 36 69 58 49
24 64 23 118 -6z m-8528 -34 c6 -10 13 -37 17 -60 5 -34 4 -41 -10 -41 -14 0
-15 -3 -4 -22 7 -13 13 -62 14 -110 0 -48 6 -94 12 -101 7 -8 19 -43 29 -80
15 -57 15 -69 3 -91 -18 -34 -24 -33 -45 10 -10 22 -29 41 -49 49 -18 8 -39
21 -46 30 -11 13 -10 19 9 39 24 26 20 33 -36 57 -37 16 -42 29 -14 36 10 3
27 20 37 39 16 28 16 38 6 67 -16 43 -15 59 3 93 8 16 12 37 9 46 -14 44 44
79 65 39z m9288 -241 c3 -11 11 -20 19 -20 20 0 28 -21 13 -31 -8 -5 -10 -9
-5 -9 19 0 -18 -30 -38 -30 -11 0 -30 -7 -40 -15 -11 -8 -30 -15 -41 -15 -12
0 -30 -9 -40 -20 -10 -11 -30 -20 -44 -20 -14 0 -35 -7 -45 -15 -28 -21 -46
-18 -46 7 0 22 90 118 111 118 6 0 20 11 31 25 32 41 116 58 125 25z m-372
-122 c40 -17 57 -30 62 -46 8 -34 -7 -44 -45 -30 -32 12 -34 11 -72 -32 -31
-35 -42 -42 -49 -31 -5 8 -18 12 -29 9 -21 -6 -52 22 -52 45 1 26 90 103 122
106 4 1 33 -9 63 -21z m-9727 -206 c18 -18 46 -97 57 -165 5 -34 9 -38 28 -33
12 4 36 9 53 13 29 5 32 3 39 -25 9 -43 42 -82 69 -82 20 0 34 -8 84 -50 7 -6
25 -16 41 -21 31 -11 54 -50 45 -74 -4 -9 1 -36 11 -60 15 -41 14 -71 -4 -61
-4 3 -13 1 -20 -4 -8 -4 -27 -4 -44 1 -42 12 -52 1 -26 -27 12 -13 19 -24 14
-24 -4 0 0 -9 10 -20 11 -13 31 -20 53 -20 28 0 33 -3 28 -17 -4 -10 -9 -44
-11 -76 -3 -44 0 -60 11 -64 16 -6 19 -39 4 -48 -6 -4 -46 -3 -89 0 l-78 7 1
37 c1 30 -2 35 -18 33 -10 -2 -15 1 -12 7 4 5 2 12 -4 16 -5 3 -10 19 -10 35
0 25 -28 59 -59 72 -4 2 -5 23 -3 48 4 36 6 41 13 25 7 -16 8 -12 7 15 -2 40
9 80 22 80 5 0 14 9 20 20 9 17 4 29 -35 79 -27 35 -64 68 -90 81 -25 13 -52
34 -60 47 -9 13 -35 42 -57 64 -39 37 -41 42 -31 73 8 25 7 44 -3 72 -9 27
-10 42 -2 51 14 18 25 16 46 -5z m11130 -60 c-14 -20 -27 -45 -31 -54 -3 -10
-11 -18 -17 -18 -5 0 -10 -6 -10 -14 0 -20 -94 -78 -114 -70 -21 8 -22 77 -1
94 8 7 15 19 15 26 0 8 11 20 25 26 18 8 22 14 13 19 -8 5 -2 12 18 20 16 6
38 15 49 20 35 14 70 15 73 1 2 -7 -7 -30 -20 -50z m-10527 -101 c5 -39 25
-65 52 -66 4 0 13 -11 20 -25 14 -27 45 -31 139 -15 46 7 47 7 54 -21 4 -16
12 -35 18 -43 7 -10 6 -16 -7 -26 -9 -6 -14 -15 -10 -19 4 -3 -7 -3 -24 0 -28
5 -33 3 -47 -28 -9 -19 -15 -45 -14 -59 3 -21 -1 -24 -27 -22 -16 1 -31 7 -33
13 -2 5 -10 10 -17 10 -8 0 -22 14 -32 30 -9 17 -20 30 -24 30 -12 0 -39 68
-39 98 0 22 -6 32 -20 37 -11 4 -18 10 -15 15 9 14 -7 101 -21 115 -12 11 -11
14 4 18 30 8 37 1 43 -42z m10119 -38 c0 -3 -23 -28 -50 -54 l-50 -48 55 6
c37 4 55 2 55 -5 0 -15 -70 -59 -126 -80 -38 -14 -44 -20 -44 -44 0 -22 -5
-28 -23 -28 -12 0 -28 9 -34 19 -13 21 3 47 70 112 24 24 25 28 10 31 -16 3
-15 7 8 28 41 39 66 58 86 63 29 7 43 8 43 0z m727 -23 c1 -10 11 -32 23 -48
19 -26 20 -34 10 -71 -11 -41 -11 -41 -59 -41 -31 0 -53 5 -61 15 -7 8 -19 15
-26 15 -8 0 -19 11 -24 25 -10 27 -40 34 -40 10 0 -8 6 -15 14 -15 8 0 18 -10
21 -21 10 -30 -15 -51 -67 -58 l-43 -6 -1 -47 c-1 -40 -6 -51 -33 -74 -27 -22
-36 -25 -56 -16 -35 16 -58 -15 -63 -89 -4 -51 -9 -63 -34 -84 -33 -28 -58
-32 -58 -11 0 8 -7 21 -15 30 -22 21 -67 1 -63 -28 5 -41 -24 -83 -65 -96
l-39 -11 7 -50 c7 -49 6 -51 -16 -47 -18 2 -31 -6 -51 -34 -20 -27 -36 -38
-59 -40 -26 -2 -34 -9 -40 -30 -4 -17 -3 -31 3 -34 7 -5 6 -11 -4 -18 -9 -6
-31 -43 -50 -80 -35 -72 -44 -81 -66 -67 -12 7 -11 18 1 67 8 32 13 63 11 69
-3 7 -21 11 -40 11 -27 -1 -39 -8 -53 -33 -11 -17 -24 -34 -30 -37 -5 -4 -8
-12 -5 -19 2 -7 -2 -21 -10 -32 -12 -17 -18 -18 -34 -8 -24 14 -32 8 -32 -24
0 -22 -25 -83 -34 -83 -3 0 -11 -2 -18 -5 -20 -8 -3 171 23 250 18 53 57 104
82 105 12 0 41 31 61 65 10 17 29 41 41 55 21 22 32 72 26 117 0 6 -26 15 -56
18 -66 9 -69 28 -5 32 24 2 48 7 53 12 9 9 111 -22 134 -40 14 -13 27 23 24
69 -1 25 3 34 21 41 33 12 128 107 128 127 0 9 12 28 26 41 20 18 24 27 15 36
-6 6 -11 16 -11 22 1 18 77 65 108 65 16 0 51 10 78 21 36 16 65 21 115 20 52
-2 68 1 72 14 4 8 11 15 18 15 6 0 24 9 39 20 19 13 37 18 56 15 16 -3 49 -1
74 4 68 14 76 13 77 -9z m-2864 -67 c12 -31 12 -42 1 -67 -11 -26 -18 -31 -46
-29 -18 1 -36 -4 -40 -10 -6 -9 -12 -9 -27 0 -15 10 -22 9 -31 -2 -18 -22 -36
-18 -54 10 -30 45 -21 62 52 99 37 18 81 34 98 35 28 1 34 -4 47 -36z m-7236
-16 c12 -7 37 -27 57 -44 19 -18 42 -33 50 -33 8 0 21 -9 29 -21 13 -18 16
-19 24 -4 8 14 11 14 26 -3 14 -16 15 -24 6 -52 -9 -23 -9 -38 -1 -50 6 -9 7
-23 2 -30 -17 -27 -40 9 -40 61 0 52 -15 66 -26 23 -4 -16 -2 -29 6 -34 6 -4
10 -18 8 -31 -1 -13 -6 -22 -9 -19 -3 3 -13 -3 -23 -13 -17 -17 -19 -16 -45
20 -27 36 -84 91 -132 124 -12 8 -22 23 -22 32 0 9 -4 17 -9 17 -15 0 -8 26
12 48 23 24 54 28 87 9z m7545 -102 c17 -20 40 -55 50 -78 11 -23 26 -55 34
-71 11 -22 12 -32 4 -40 -9 -8 -16 -6 -26 9 -68 96 -82 110 -102 108 -12 -2
-22 1 -22 6 0 6 -12 11 -27 13 -27 3 -41 22 -58 77 -7 24 -7 24 54 18 54 -6
65 -11 93 -42z m-355 -144 c-17 -6 -17 -8 3 -26 11 -10 29 -37 39 -59 10 -23
35 -59 55 -81 20 -22 40 -51 43 -65 4 -14 12 -31 19 -38 7 -7 11 -19 8 -27
-11 -28 -32 -15 -47 28 -12 36 -18 42 -41 40 -25 -2 -27 0 -21 27 7 34 -10 49
-25 20 -15 -27 -30 -25 -30 4 0 34 -17 41 -31 14 -17 -33 -17 -33 -40 -12 -21
19 -21 19 -51 -19 -30 -37 -31 -37 -55 -21 -15 9 -34 13 -48 10 -17 -4 -25 -1
-27 11 -12 53 46 144 98 157 13 4 24 11 24 17 0 6 8 8 18 5 9 -3 35 1 57 9 41
14 87 20 52 6z m-7771 -88 c-2 -16 -4 -34 -5 -40 0 -7 -8 -13 -16 -13 -51 0
-87 -52 -45 -65 14 -4 20 -15 20 -36 0 -33 -18 -38 -62 -15 -26 14 -73 27
-114 31 -28 4 -65 28 -61 40 2 5 30 10 63 10 53 0 65 4 110 37 28 21 57 44 63
52 7 8 19 12 27 9 8 -3 14 0 14 6 0 6 2 11 4 11 3 0 3 -12 2 -27z m482 -159
c14 -13 32 -24 42 -24 20 0 45 -26 54 -56 4 -12 15 -29 26 -39 11 -10 20 -24
20 -30 0 -7 11 -20 25 -29 35 -23 72 -93 81 -150 l7 -50 -26 26 c-15 15 -34
32 -45 40 -10 7 -28 27 -40 45 -19 27 -27 31 -55 27 -28 -5 -34 -2 -50 25 -10
17 -25 31 -34 31 -9 0 -13 6 -10 14 7 18 -11 86 -22 86 -5 0 -12 11 -15 25 -3
13 -19 36 -34 50 -23 22 -25 27 -12 35 21 14 60 3 88 -26z m8755 0 c9 -4 17
-10 17 -15 0 -4 18 -28 39 -53 28 -33 42 -59 47 -91 3 -25 10 -48 15 -51 23
-14 2 -68 -28 -70 -7 -1 -19 -2 -27 -2 -7 -1 -16 -11 -19 -22 -7 -26 -33 -35
-60 -22 -12 5 -30 13 -39 16 -23 7 -23 42 0 86 11 19 17 41 15 48 -8 23 -30
12 -44 -20 -18 -46 -60 -88 -86 -88 -34 0 -28 19 12 36 34 14 45 36 24 49 -5
4 -18 0 -28 -9 -10 -9 -21 -16 -24 -16 -14 0 -6 21 13 37 25 22 26 43 1 43
-10 0 -24 7 -31 15 -7 8 -18 15 -25 15 -16 0 -27 -27 -15 -35 20 -12 9 -34
-17 -37 -24 -3 -28 -7 -25 -30 2 -24 -4 -30 -51 -53 -30 -14 -61 -25 -69 -25
-9 0 -21 -12 -27 -27 -10 -24 -17 -28 -51 -27 -27 1 -40 -2 -40 -11 0 -7 -5
-15 -11 -17 -5 -2 -12 -15 -14 -28 -2 -14 -6 -39 -8 -57 -4 -21 -1 -33 9 -37
8 -3 14 -2 14 3 0 5 15 16 34 25 93 44 103 -3 19 -88 -49 -49 -60 -56 -82 -50
-14 4 -43 8 -64 10 -36 3 -97 31 -97 45 0 4 -7 9 -15 13 -10 3 -21 -7 -35 -32
-24 -45 -59 -87 -66 -79 -5 5 44 106 57 117 3 3 17 23 30 45 52 89 85 133 104
141 11 5 34 30 51 56 39 61 222 236 254 244 14 4 30 11 36 15 6 5 42 13 81 19
57 8 77 7 98 -4 31 -16 54 -11 73 16 8 11 19 17 25 14 7 -4 20 -9 30 -12z
m-9258 -44 c3 -5 20 -10 36 -10 16 0 41 -8 56 -17 14 -10 32 -18 40 -19 25 -4
40 -24 46 -59 4 -27 26 -56 95 -125 50 -49 95 -90 101 -90 17 0 13 76 -4 94
-8 8 -15 22 -15 30 0 12 18 4 63 -28 61 -42 64 -43 76 -25 11 19 14 18 59 -22
26 -22 68 -52 94 -65 26 -13 53 -34 59 -46 21 -42 42 -60 51 -46 4 7 8 23 8
36 0 13 6 22 15 22 13 0 14 4 5 20 -9 17 -8 20 7 20 53 0 93 -64 93 -148 0
-46 4 -63 20 -77 11 -10 20 -24 20 -32 0 -7 6 -13 13 -13 8 0 14 -7 14 -15 0
-8 -2 -15 -4 -15 -8 0 -63 58 -63 67 0 13 -87 55 -107 51 -20 -4 -20 -8 -6
-85 12 -60 1 -71 -17 -18 -6 19 -25 45 -41 59 -16 14 -29 33 -29 44 0 22 -32
54 -51 50 -8 -2 -21 20 -34 56 -28 76 -74 97 -110 50 -14 -18 -14 -17 -15 12
0 38 -26 66 -36 39 -19 -49 23 -185 57 -185 11 0 19 -4 19 -10 0 -5 7 -10 15
-10 8 0 30 -15 49 -32 19 -18 57 -52 84 -75 43 -37 50 -48 55 -90 6 -53 41
-133 58 -133 15 0 46 -78 54 -135 l7 -50 -21 32 c-11 18 -32 40 -46 49 -14 9
-33 30 -41 45 -8 16 -21 29 -28 29 -18 0 -27 23 -16 41 12 18 -7 39 -35 39
-50 0 -55 8 -48 71 7 66 -4 86 -59 113 l-28 14 0 -77 c0 -83 3 -91 67 -157 53
-57 93 -114 93 -134 0 -10 18 -34 40 -54 22 -20 40 -39 40 -43 0 -3 11 -20 23
-37 13 -17 30 -42 36 -55 15 -27 31 -130 24 -148 -7 -17 -33 -16 -33 1 0 7 -7
19 -16 27 -10 8 -14 23 -12 41 3 18 -2 34 -12 43 -15 14 -16 12 -12 -13 5 -40
-12 -96 -31 -100 -20 -4 -42 38 -51 101 -4 26 -12 47 -17 47 -6 0 -8 4 -4 9 3
6 -9 20 -26 33 -24 18 -44 23 -87 23 -68 0 -76 15 -38 72 36 53 34 73 -6 74
-28 0 -30 2 -13 9 18 8 18 9 -5 10 -14 1 -18 4 -10 6 8 3 20 15 26 28 9 20 7
25 -18 39 -15 9 -28 24 -28 33 0 10 -3 14 -7 11 -3 -4 -11 3 -17 15 -14 26
-99 51 -117 34 -9 -8 -10 -4 -5 17 12 49 0 67 -45 67 -21 0 -39 4 -39 9 0 28
25 70 51 85 19 11 28 23 25 33 -3 8 -6 21 -6 29 0 9 -4 13 -9 10 -15 -10 -33
49 -26 87 8 40 -17 89 -41 80 -8 -3 -14 -1 -14 5 0 20 -51 -13 -57 -36 -4 -18
-8 -20 -14 -11 -6 11 -11 11 -21 1 -6 -6 -24 -12 -39 -12 -33 0 -46 29 -28 59
10 15 10 25 1 46 -7 14 -11 38 -11 53 1 17 3 21 6 9 2 -9 9 -15 14 -12 15 10
10 53 -11 95 -11 22 -20 52 -20 67 0 25 -19 71 -20 48 0 -11 -20 16 -20 28 0
10 18 9 25 -3z m10782 -49 c-6 -27 -4 -29 31 -33 31 -4 85 5 177 28 13 4 28
-3 44 -20 14 -14 33 -26 43 -26 11 0 26 -17 42 -48 13 -27 32 -54 41 -62 14
-12 41 -63 58 -111 3 -9 -3 -26 -13 -37 -10 -11 -22 -40 -25 -66 -4 -25 -11
-46 -16 -46 -5 0 -9 -8 -9 -18 0 -9 -13 -23 -29 -30 -30 -13 -41 -36 -41 -89
0 -53 -8 -63 -52 -63 -36 0 -40 3 -55 38 -19 45 -28 52 -75 52 -26 0 -45 -8
-64 -25 -56 -52 -124 -23 -109 47 7 30 7 31 -25 25 l-32 -7 7 39 c9 53 -4 131
-21 131 -16 0 -33 -30 -27 -48 9 -23 -29 -82 -52 -82 -14 0 -31 -16 -51 -47
-43 -70 -89 -113 -120 -113 -29 0 -28 -15 -5 139 5 34 14 68 20 74 6 6 11 20
11 31 0 12 8 31 18 43 19 25 123 90 158 99 12 3 30 14 40 25 9 10 21 16 26 13
17 -11 95 85 81 100 -10 9 -43 7 -43 -3 0 -13 -25 -20 -38 -12 -17 10 -3 47
24 61 13 7 26 22 30 32 5 16 30 34 53 37 2 1 1 -12 -2 -28z m-8850 -33 c30
-29 33 -38 33 -89 0 -54 -1 -58 -30 -67 -24 -9 -34 -7 -61 11 -45 31 -53 47
-45 98 5 34 13 49 34 62 35 21 31 22 69 -15z m608 -178 c1 -58 4 -117 9 -132
7 -25 6 -28 -14 -28 -46 0 -102 -24 -113 -48 -6 -13 -24 -30 -39 -38 -25 -13
-28 -19 -24 -52 3 -20 5 -41 5 -47 1 -5 5 -5 9 2 4 6 20 15 35 18 l27 7 -22
-44 c-13 -25 -26 -43 -30 -41 -5 2 -8 -2 -8 -9 -1 -22 -39 35 -45 67 -11 54
-56 107 -105 124 -46 16 -99 60 -93 77 2 6 -3 19 -12 29 -13 17 -16 18 -25 5
-5 -8 -10 -27 -10 -42 l0 -28 -20 20 c-11 11 -24 20 -30 20 -5 0 -10 8 -10 18
0 10 -5 23 -11 29 -9 9 -8 18 5 37 9 14 16 34 16 45 0 16 4 18 28 11 15 -5 53
-14 84 -20 45 -9 62 -18 78 -41 25 -34 45 -37 53 -9 6 24 35 26 44 3 4 -10 -2
-23 -15 -34 -30 -23 -28 -50 6 -82 27 -26 53 -36 51 -19 -5 28 6 54 36 88 36
40 42 58 25 69 -5 3 -10 14 -10 23 1 15 2 16 13 1 11 -14 17 -10 54 31 l43 48
-39 -2 c-33 -1 -38 1 -28 14 21 28 42 41 62 38 19 -3 20 -11 20 -108z m-685
-230 c-8 -16 -6 -21 11 -30 12 -7 29 -10 38 -7 24 6 126 -45 126 -63 0 -9 -11
-16 -27 -18 -20 -2 -30 -10 -34 -28 -4 -14 -17 -30 -30 -34 -26 -10 -32 -35
-10 -43 16 -6 30 -69 21 -97 -3 -10 -17 -25 -30 -34 -22 -15 -25 -14 -54 13
-36 34 -38 41 -12 41 23 0 26 4 36 48 6 30 5 32 -23 32 -34 0 -56 36 -46 75 8
31 -20 45 -43 22 -14 -13 -14 -20 -3 -47 7 -17 22 -38 34 -47 20 -15 20 -15
-11 -9 -26 4 -33 2 -33 -11 0 -18 -28 -53 -41 -53 -5 0 -15 16 -23 35 -14 32
-19 35 -55 35 -38 0 -41 -2 -41 -28 0 -26 -5 -30 -55 -46 -30 -9 -57 -21 -60
-26 -9 -14 -45 -12 -45 1 0 8 -5 8 -15 -1 -8 -7 -15 -21 -15 -31 0 -11 -4 -19
-9 -19 -5 0 -29 -21 -53 -46 -77 -82 -93 -95 -97 -82 -2 7 1 14 8 16 6 2 11
16 11 32 0 16 4 40 9 54 13 33 86 107 136 136 22 13 58 41 79 63 54 53 175
122 189 108 7 -7 6 -12 -6 -17 -27 -10 -22 -38 6 -30 12 3 28 6 35 6 7 0 12
13 12 29 0 20 8 35 23 46 17 12 19 18 9 24 -11 6 -10 10 1 19 18 15 58 31 80
31 15 1 16 -2 7 -19z m6835 -127 c11 -15 17 -15 39 -5 60 27 130 3 118 -40
-12 -40 -26 -57 -52 -61 -14 -3 -37 -8 -52 -12 -18 -5 -28 -3 -28 4 0 6 3 10
8 9 8 -1 80 31 72 32 -33 8 -48 6 -73 -7 -35 -18 -121 -23 -157 -10 -52 20
-70 31 -70 43 0 15 36 29 68 25 13 -1 25 4 28 14 4 9 12 14 19 11 6 -2 18 0
26 5 22 13 41 11 54 -8z m-7781 -102 c4 -24 16 -55 27 -70 31 -40 89 -132 89
-142 0 -7 -42 -4 -77 6 -7 2 -15 21 -19 42 -5 25 -21 52 -46 78 -39 39 -40 40
-33 95 12 100 43 95 59 -9z m1358 41 c30 -23 34 -31 26 -51 -6 -17 -4 -29 6
-40 8 -9 15 -25 14 -36 0 -11 11 -51 26 -90 35 -89 58 -174 50 -186 -9 -15
-24 0 -24 25 0 13 -8 34 -18 47 -10 13 -33 50 -51 82 -18 31 -40 58 -49 58 -9
1 -26 2 -37 3 -17 1 -20 7 -18 43 1 33 -2 42 -18 46 -19 5 -27 27 -9 27 19 0
10 31 -12 40 -20 8 -18 9 15 9 24 1 36 5 32 11 -10 16 2 40 18 40 8 0 30 -12
49 -28z m8404 12 c-19 -49 -18 -93 3 -122 27 -38 28 -82 3 -82 -24 0 -42 19
-42 46 0 32 -18 42 -90 45 l-65 4 -8 -155 c-6 -111 -12 -157 -21 -162 -14 -8
-30 -44 -40 -90 -5 -23 -12 -28 -35 -28 -16 0 -31 5 -33 11 -6 18 -68 -43 -68
-66 0 -12 -11 -32 -25 -45 l-24 -23 -11 29 c-6 16 -9 47 -6 69 8 53 -4 72 -28
46 -12 -13 -18 -40 -21 -92 -2 -41 -4 -77 -4 -81 -1 -5 -15 -8 -31 -8 -23 0
-33 6 -42 25 -6 14 -15 25 -20 25 -4 0 -8 -11 -8 -25 0 -14 -4 -25 -10 -25
-13 0 -39 -41 -43 -68 -2 -13 -15 -34 -30 -48 -18 -17 -27 -35 -27 -57 -1 -42
-21 -67 -56 -70 -21 -1 -29 3 -32 18 -6 31 -18 38 -34 21 -9 -8 -18 -13 -21
-10 -10 11 6 39 41 71 28 26 33 37 28 57 -4 15 -2 26 4 26 5 0 10 6 10 13 0 8
9 22 20 32 17 15 20 31 20 102 0 79 2 88 33 131 90 129 122 163 177 190 72 35
127 74 188 133 78 76 99 89 142 89 21 0 46 11 73 33 62 49 146 75 133 41z
m-8071 -26 c26 -11 33 -32 15 -43 -20 -13 -9 -48 30 -95 39 -46 40 -50 40
-119 0 -46 -4 -70 -10 -66 -5 3 -10 15 -10 27 0 11 -14 45 -31 75 -28 49 -34
54 -63 51 -21 -2 -34 -10 -41 -25 -13 -29 -23 -29 -35 1 -5 13 -18 27 -29 31
-30 9 -26 20 14 45 30 19 35 27 35 60 0 21 3 45 6 54 7 19 43 21 79 4z m6085
-63 c23 -8 64 -15 91 -15 64 0 65 -21 2 -41 -49 -15 -84 -56 -62 -70 6 -3 11
-10 12 -15 1 -10 64 -34 70 -27 7 6 241 13 259 7 10 -3 18 -12 18 -20 0 -17
30 -19 30 -1 1 6 8 -1 17 -17 14 -27 14 -30 -3 -43 -10 -7 -32 -13 -48 -13
-40 0 -61 -14 -53 -34 4 -9 2 -16 -3 -16 -6 0 -10 11 -10 25 0 20 -5 25 -27
26 -16 0 -35 2 -43 4 -8 2 -34 6 -57 10 -40 7 -42 6 -45 -21 -2 -24 -8 -29
-35 -32 -42 -4 -56 -24 -55 -77 0 -25 -4 -43 -9 -39 -5 3 -9 0 -9 -5 0 -6 6
-11 13 -12 21 -1 -27 -18 -54 -18 -32 -1 -85 -48 -94 -84 -4 -15 -13 -27 -20
-27 -15 0 -45 -27 -45 -40 0 -11 24 -19 85 -26 27 -3 53 -8 57 -10 4 -3 29 6
55 19 85 43 92 42 159 -12 34 -27 79 -55 102 -62 33 -10 40 -15 31 -26 -6 -7
-28 -13 -48 -13 -35 0 -39 -3 -59 -48 -12 -27 -22 -56 -22 -66 0 -30 -31 -32
-52 -3 -11 15 -28 27 -39 27 -11 0 -31 7 -44 16 -21 13 -28 14 -40 4 -22 -18
-39 1 -42 47 -3 44 -16 61 -37 44 -7 -6 -18 -11 -22 -10 -26 4 -34 -2 -28 -25
5 -21 0 -27 -41 -45 -26 -12 -58 -21 -71 -21 -16 0 -28 -10 -39 -29 -8 -17
-25 -31 -37 -33 -15 -2 -24 -11 -26 -26 -2 -13 -11 -26 -20 -29 -9 -4 -20 -10
-23 -15 -9 -14 -37 2 -43 25 -3 12 -6 56 -6 96 0 66 3 80 27 115 31 44 108 86
161 86 17 0 32 5 32 10 0 6 -3 10 -8 10 -4 0 -12 10 -17 23 -8 18 -17 21 -45
19 -19 -1 -48 -7 -63 -14 -44 -17 -57 3 -32 49 16 29 39 46 115 84 52 27 102
48 111 49 22 0 40 23 43 55 3 26 -11 45 -23 28 -11 -17 -42 -23 -62 -13 -16 9
-21 6 -31 -17 -22 -50 -49 -50 -52 -1 -1 30 -36 35 -88 12 -74 -33 -74 23 0
69 72 45 146 66 205 60 51 -5 55 -4 62 18 4 13 14 32 23 42 14 16 13 17 -22
17 -30 0 -37 3 -34 18 3 14 13 17 66 14 50 -2 62 0 62 12 0 20 -41 30 -93 23
-67 -9 -105 31 -49 51 39 15 74 14 122 -3z m590 -199 c25 -7 69 -25 98 -39 39
-19 63 -24 85 -20 25 5 29 3 24 -9 -9 -24 25 -48 73 -54 43 -5 90 -29 90 -45
0 -5 -9 -18 -21 -30 -15 -15 -28 -19 -47 -14 -33 8 -44 23 -37 53 5 20 2 22
-30 22 -20 0 -46 7 -59 15 -20 13 -37 14 -97 6 -41 -5 -82 -12 -91 -16 -11 -4
-18 -3 -18 4 0 11 89 41 122 41 10 0 18 4 18 8 0 12 -120 62 -147 62 -23 0
-30 10 -16 23 3 4 7 7 7 7 1 0 21 -6 46 -14z m-9316 -167 c9 -17 13 -35 11
-40 -3 -4 -1 -11 5 -14 11 -7 12 -116 1 -134 -3 -5 -17 -11 -31 -12 -21 -3
-25 -10 -28 -44 -4 -48 -14 -56 -73 -53 l-46 1 15 27 c15 25 14 29 -6 55 -41
52 -19 136 56 212 42 43 75 44 96 2z m9147 -120 c53 -23 83 -49 56 -49 -13 0
-11 -9 10 -45 20 -36 23 -48 13 -60 -10 -13 -16 -13 -41 0 -38 20 -42 19 -78
-11 -33 -27 -52 -25 -44 5 6 23 -29 61 -56 61 -13 0 -28 15 -43 43 -16 29 -30
42 -46 43 -12 1 -22 -3 -22 -7 0 -17 -16 -9 -17 9 -1 9 -2 22 -3 27 -6 30 1
31 111 18 62 -7 133 -23 160 -34z m-7638 16 c31 -13 36 -13 47 0 18 21 45 18
73 -7 25 -23 45 -78 29 -78 -5 0 -24 14 -42 30 -37 33 -50 37 -50 17 0 -11
-39 -37 -55 -37 -3 0 -5 11 -5 25 0 26 -23 35 -36 14 -4 -6 -20 -9 -39 -6 -20
3 -41 0 -53 -9 -34 -23 -38 4 -6 37 32 33 79 38 137 14z m7881 -351 c17 -17
13 -34 -8 -34 -20 0 -86 -77 -86 -100 0 -15 7 -20 24 -20 35 0 36 -3 53 -148
6 -48 -3 -96 -16 -87 -5 3 -11 -1 -14 -7 -8 -24 -61 15 -83 62 -20 43 -24 45
-70 50 -37 4 -49 9 -54 25 -8 33 -39 71 -65 83 -23 10 -25 9 -31 -16 -10 -44
-12 -49 -13 -20 -1 19 -8 29 -29 36 -16 6 -35 6 -44 1 -11 -6 -18 -2 -27 17
-6 14 -9 29 -6 33 2 5 31 12 62 15 32 4 76 9 98 12 26 3 61 -2 98 -15 43 -15
59 -17 62 -8 2 7 9 33 16 60 10 36 18 47 34 47 11 1 31 7 45 15 32 18 35 18
54 -1z m-5598 -234 c5 0 -5 -270 -10 -279 -12 -19 4 -70 25 -81 13 -8 26 -7
42 2 12 6 47 12 77 12 48 1 55 3 52 20 -4 19 13 36 35 36 11 0 24 -32 37 -92
6 -26 6 -26 -62 -30 -37 -2 -72 0 -78 4 -6 5 -24 4 -39 -2 -19 -7 -31 -7 -40
0 -7 5 -26 7 -44 4 -19 -4 -31 -2 -31 4 0 12 -163 29 -225 24 -22 -2 -46 -9
-53 -14 -9 -8 -16 -7 -25 5 -8 11 -31 17 -72 19 l-60 3 35 22 c25 16 50 23 88
23 l52 0 1 43 c1 23 0 72 -1 108 -2 63 -1 66 21 65 15 -1 25 6 27 17 3 14 0
16 -22 8 -16 -7 -26 -7 -28 0 -6 19 4 89 13 89 5 0 6 -13 3 -30 -6 -25 -3 -30
14 -30 30 0 40 -42 37 -167 -2 -96 0 -114 15 -128 12 -11 24 -13 41 -7 23 9
24 13 24 116 0 60 4 110 10 114 6 4 11 21 13 37 5 66 14 96 25 92 9 -3 12 -52
12 -180 0 -111 4 -177 10 -177 6 0 10 57 11 148 2 243 -1 222 36 211 18 -5 33
-9 34 -9z m206 -39 c-2 -16 1 -32 7 -35 7 -5 11 5 12 26 0 32 1 32 10 8 6 -14
8 -53 4 -91 -4 -42 -3 -75 4 -87 17 -33 5 -48 -34 -44 l-35 4 0 127 c0 70 3
131 7 134 13 14 29 -13 25 -42z m-1192 8 c-5 -17 -14 -37 -21 -45 -17 -21 -3
-62 24 -66 27 -4 35 -39 12 -58 -12 -10 -22 -48 -12 -51 1 0 39 -3 83 -6 l82
-5 4 68 c4 66 6 71 47 112 25 23 46 40 49 38 2 -3 -1 -19 -7 -37 -13 -38 -14
-81 -2 -95 4 -5 11 -26 14 -46 8 -50 -8 -61 -101 -64 -283 -12 -340 -31 -110
-38 84 -3 124 -8 126 -16 4 -10 -14 -11 -69 -6 -41 3 -119 8 -174 12 -151 8
-138 -6 -130 147 8 142 13 157 64 157 14 1 37 7 51 15 14 8 37 14 52 15 25 0
26 -2 18 -31z m4241 -1 c1 -18 0 -94 0 -168 -2 -180 14 -149 23 45 4 82 9 151
11 154 3 2 11 -2 20 -9 16 -13 20 -60 7 -75 -5 -6 -4 -63 1 -127 8 -104 12
-118 28 -118 10 0 20 -4 23 -9 7 -11 -101 -24 -117 -14 -7 4 -16 8 -22 8 -12
0 -15 289 -3 323 11 33 28 27 29 -10z m-468 -15 c2 -10 5 -89 5 -177 1 -147 4
-177 17 -164 3 3 6 83 7 177 1 141 4 174 16 178 24 10 31 -17 31 -114 0 -66
-3 -93 -12 -93 -9 0 -9 -2 0 -8 6 -4 13 -34 15 -67 3 -58 4 -60 33 -66 20 -4
25 -8 15 -12 -25 -9 -163 -26 -172 -21 -9 6 -10 335 -1 367 2 9 13 17 23 17
10 0 21 -8 23 -17z m-6121 -189 c12 -20 37 -61 54 -91 17 -30 55 -84 85 -119
43 -51 63 -67 97 -75 26 -7 47 -20 54 -33 6 -11 20 -31 31 -44 l21 -23 -49 4
c-41 4 -51 9 -60 29 -14 33 -51 78 -64 78 -6 0 -11 -9 -11 -20 0 -11 5 -20 10
-20 16 0 12 -56 -5 -70 -14 -12 -15 -8 -9 28 4 24 3 42 -3 42 -5 0 -19 9 -31
20 -12 12 -37 22 -56 24 -45 4 -57 13 -51 39 4 16 -2 30 -19 47 -15 13 -26 30
-26 38 0 20 -24 9 -29 -14 -5 -29 -23 -46 -43 -41 -12 4 -18 0 -18 -11 0 -29
-16 -45 -38 -37 -18 5 -20 9 -9 26 6 10 17 17 24 15 14 -6 23 16 23 54 0 16 5
32 10 35 18 11 50 83 50 113 0 54 28 57 62 6z m8496 -83 c29 -37 41 -62 46
-101 4 -28 12 -60 18 -69 8 -13 6 -25 -6 -49 -9 -18 -21 -32 -26 -32 -11 0
-25 -39 -21 -62 1 -10 -3 -18 -9 -18 -6 0 -8 5 -4 13 6 9 4 9 -7 1 -32 -25
-79 -8 -79 30 0 27 -18 46 -43 46 -11 0 -23 13 -33 35 -8 19 -18 35 -22 35 -5
0 -14 11 -21 23 -19 36 3 98 55 152 36 37 50 45 79 45 30 0 40 -7 73 -49z
m-3194 -23 c10 -95 22 -95 32 0 l7 62 38 0 37 0 4 -67 c2 -38 3 -70 1 -72 -3
-5 -174 -1 -199 5 -20 5 -21 9 -13 33 6 16 21 34 35 41 13 8 21 16 17 19 -17
13 -9 37 12 39 20 1 23 -4 29 -60z m3263 -535 c-4 -3 1 -11 11 -17 55 -33 130
-87 148 -107 40 -45 48 -71 48 -171 1 -88 -1 -100 -22 -120 -18 -18 -26 -21
-40 -11 -9 6 -16 17 -14 23 3 14 -16 40 -29 40 -4 0 -19 -12 -32 -26 -20 -22
-28 -24 -45 -15 -25 13 -37 63 -22 91 25 47 -12 76 -57 45 -20 -14 -21 -13
-27 18 -9 42 -9 66 -1 99 6 24 3 29 -19 38 -14 5 -26 15 -26 22 0 17 -38 41
-50 33 -6 -4 -10 -2 -10 3 0 10 47 22 85 22 12 0 28 6 35 14 10 13 26 19 64
25 5 0 6 -2 3 -6z m-177 -252 c19 -39 37 -68 41 -66 11 7 69 -66 69 -87 0 -11
-7 -18 -19 -18 -33 0 -40 -47 -16 -114 17 -48 11 -70 -16 -55 -16 8 -21 5 -29
-16 -6 -15 -8 -31 -4 -36 3 -5 -2 -9 -10 -9 -9 0 -23 -11 -32 -25 l-17 -26
-28 33 c-21 25 -28 44 -29 76 l0 44 -31 -26 c-17 -14 -35 -26 -39 -26 -5 0
-14 19 -20 43 -7 23 -21 49 -32 58 -17 14 -19 19 -8 38 7 14 9 37 6 56 -5 23
-2 36 7 42 18 11 57 68 57 83 0 32 68 94 111 99 4 1 21 -30 39 -68z m-9040
-199 c0 -4 14 -12 32 -17 26 -8 34 -18 44 -55 8 -25 14 -45 14 -45 0 -1 -33 1
-72 3 -40 3 -74 8 -76 13 -2 5 -10 9 -18 9 -8 0 -14 5 -14 10 0 6 -7 10 -15
10 -8 0 -15 5 -15 10 0 6 13 10 29 10 25 0 31 5 36 30 5 23 12 30 31 30 13 0
24 -4 24 -8z"/>
<path d="M4414 6369 c-5 -13 -8 -55 -7 -94 0 -38 -1 -64 -4 -57 -3 6 -12 12
-22 12 -9 0 -22 5 -28 11 -15 15 -34 2 -26 -19 9 -24 25 -33 39 -21 39 33 61
-40 51 -175 -8 -108 -17 -147 -35 -154 -9 -3 -23 -13 -33 -21 -9 -9 -29 -26
-44 -39 -23 -19 -25 -25 -14 -38 13 -15 35 -15 87 1 17 6 22 3 22 -12 0 -32
-21 -43 -86 -43 -56 0 -65 -3 -84 -27 -27 -35 -14 -48 36 -34 22 6 42 7 47 2
9 -9 -29 -41 -48 -41 -6 0 -25 -16 -42 -35 -17 -19 -43 -40 -57 -46 -14 -7
-26 -18 -26 -26 0 -15 26 -18 35 -3 3 6 16 10 27 10 42 0 107 40 130 81 21 37
32 44 70 41 9 -1 20 7 23 18 8 24 20 25 59 5 37 -19 36 -20 36 15 0 38 20 39
75 5 78 -48 90 -25 15 30 l-50 37 -62 -11 c-34 -6 -66 -7 -70 -3 -5 5 -4 21 2
36 10 27 13 28 56 21 44 -6 46 -6 39 16 -7 21 -5 22 29 16 20 -3 36 -2 36 2 0
14 -34 38 -65 45 -16 4 -38 15 -47 23 -17 15 -18 14 -18 -16 0 -22 -4 -31 -12
-29 -10 4 -14 47 -16 161 -3 139 -1 158 14 164 9 3 37 26 63 51 45 45 43 47
-11 10 -42 -29 -58 -24 -59 20 -1 20 0 42 1 47 5 20 -1 70 -9 78 -5 5 -13 -1
-17 -14z"/>
<path d="M3220 6279 c0 -16 -45 -27 -129 -32 -45 -3 -50 -22 -12 -42 48 -24
41 -51 -11 -46 -30 3 -20 -29 12 -40 31 -11 38 -23 20 -34 -5 -3 -10 -9 -10
-13 0 -11 58 -34 69 -28 11 7 51 -40 51 -59 0 -11 21 -25 36 -25 13 0 1 31
-16 40 -11 6 -20 20 -20 30 0 11 -4 20 -10 20 -5 0 -10 6 -10 14 0 8 -9 21
-19 28 -22 16 -37 63 -23 72 5 3 15 -1 22 -9 18 -22 33 -19 21 4 -13 24 6 42
37 34 26 -6 27 0 6 32 -16 24 -15 25 7 25 26 0 37 7 56 31 11 14 8 16 -32 15
-34 -1 -45 -5 -45 -17z"/>
<path d="M5115 5855 c-16 -14 -38 -25 -48 -25 -16 0 -87 -59 -87 -73 0 -2 18
-4 39 -3 47 1 48 0 53 -39 l3 -30 -47 3 c-66 5 -64 -15 5 -57 22 -13 37 -30
35 -38 -5 -26 -110 -58 -205 -62 -7 -1 -13 -6 -13 -12 0 -7 12 -9 33 -5 21 4
40 1 52 -8 18 -13 18 -15 1 -50 -10 -22 -24 -36 -35 -36 -20 0 -71 -36 -71
-51 0 -15 22 -10 42 8 16 15 22 15 40 4 23 -15 37 -2 38 34 1 26 65 95 89 95
31 0 43 -23 30 -56 -6 -16 -13 -23 -16 -16 -7 19 -27 14 -56 -16 -27 -28 -26
-41 8 -60 19 -10 19 -11 1 -18 -11 -4 -21 -2 -26 6 -6 9 -12 6 -23 -11 -9 -13
-46 -46 -82 -73 -36 -28 -65 -54 -65 -59 0 -5 7 -4 15 3 8 7 25 10 37 7 39
-11 111 20 136 58 30 47 58 46 66 -1 8 -40 -9 -104 -28 -104 -6 0 -17 5 -23
11 -14 14 -75 -25 -173 -110 -26 -23 -30 -30 -17 -31 21 0 22 -9 1 -38 -30
-43 3 -55 62 -22 91 51 28 -36 -94 -130 -46 -36 -40 -75 13 -75 15 0 21 -8 23
-30 5 -37 12 -42 84 -50 66 -8 88 3 88 41 0 26 21 32 38 11 6 -7 10 -26 9 -43
l-2 -29 78 -8 c43 -5 81 -6 83 -4 3 3 -8 26 -24 52 -25 40 -28 53 -21 84 6 25
4 44 -6 65 -19 38 -20 37 12 25 41 -15 62 -38 75 -81 8 -28 20 -43 44 -54 17
-8 43 -27 57 -42 54 -57 77 -66 77 -32 0 23 -15 49 -72 126 -21 28 -38 55 -38
61 0 5 14 7 31 5 26 -4 30 -2 23 11 -11 17 -91 80 -116 90 -26 10 -23 30 3 22
20 -7 22 -5 16 29 -7 43 9 48 24 9 9 -26 55 -72 71 -73 11 0 -4 43 -28 80 -12
19 -45 57 -73 85 -28 27 -51 57 -51 67 0 22 8 23 32 1 12 -10 18 -12 18 -4 0
19 -21 53 -52 85 -15 17 -28 36 -28 43 0 7 -5 13 -11 13 -6 0 -8 8 -5 18 4 10
-1 27 -9 38 -14 18 -16 18 -26 1 -10 -17 -29 -15 -29 3 0 30 95 12 117 -22 11
-17 49 -38 68 -38 9 0 29 -7 45 -15 17 -9 30 -12 30 -7 0 13 -63 64 -97 78
-17 8 -35 19 -39 25 -3 6 -29 22 -57 34 -53 25 -67 39 -67 69 0 15 5 17 28 12
15 -3 56 -11 92 -17 36 -6 73 -15 83 -20 11 -6 17 -6 17 1 0 5 -4 10 -9 10 -5
0 -33 16 -62 35 -37 26 -61 35 -83 33 -28 -3 -31 0 -28 22 4 42 10 49 51 60
23 6 41 15 41 19 0 5 9 11 21 14 41 11 8 26 -71 33 -83 7 -100 15 -80 39 9 10
7 20 -5 39 l-17 26 46 0 c43 0 62 13 34 23 -10 3 -10 7 1 20 22 27 -8 21 -44
-8z m-55 -850 c0 -35 -6 -52 -25 -70 -13 -14 -29 -25 -34 -25 -6 0 -15 -16
-20 -36 -11 -39 -37 -74 -56 -74 -7 0 -20 -9 -30 -20 -10 -11 -24 -20 -32 -20
-22 0 -14 39 12 56 14 9 25 22 25 29 0 7 17 32 39 56 21 24 42 55 46 69 11 37
44 80 61 80 10 0 14 -13 14 -45z"/>
<path d="M6487 5786 c-3 -7 1 -26 9 -41 8 -15 14 -33 14 -39 0 -16 62 -76 78
-76 7 0 12 9 12 21 0 15 4 19 16 15 9 -4 23 -1 30 5 15 13 3 44 -25 66 -14 11
-14 12 2 13 9 0 17 -4 17 -9 0 -19 45 -20 64 -1 11 11 18 22 15 24 -9 10 -150
10 -157 1 -14 -19 -33 -15 -42 10 -10 28 -25 33 -33 11z"/>
<path d="M7513 5623 c-34 -23 -30 -44 7 -37 22 5 31 2 36 -10 9 -23 -2 -31
-21 -16 -13 11 -20 11 -41 0 -31 -17 -26 -34 12 -38 16 -2 44 -18 62 -35 28
-27 40 -32 92 -33 33 -2 60 1 60 6 0 14 -73 70 -91 70 -23 0 -35 18 -43 63 -4
20 -11 37 -16 37 -4 0 -14 2 -22 4 -7 3 -23 -2 -35 -11z"/>
<path d="M5602 5532 c-10 -15 -24 -42 -31 -59 -11 -26 -19 -33 -41 -33 -16 0
-35 -6 -42 -13 -7 -7 -22 -18 -33 -25 -15 -9 -16 -11 -4 -12 9 0 19 3 23 7 3
4 15 8 25 10 14 2 18 -2 14 -16 -4 -15 0 -18 21 -14 47 9 25 -25 -61 -96 -29
-24 -53 -49 -53 -57 0 -21 12 -17 61 18 24 17 57 34 74 38 32 6 32 4 34 133 1
44 14 48 30 9 9 -20 9 -36 1 -56 -5 -15 -10 -40 -10 -56 0 -16 -4 -31 -9 -35
-5 -3 -12 -19 -16 -36 -5 -21 -17 -35 -41 -46 -27 -13 -34 -23 -34 -46 0 -24
3 -27 20 -22 17 5 20 2 20 -23 0 -23 -12 -42 -50 -78 -53 -51 -61 -65 -32 -61
29 4 29 -16 0 -24 -35 -9 -55 -29 -64 -63 -3 -14 -10 -23 -15 -20 -5 3 -9 0
-9 -5 0 -26 46 -7 101 40 59 52 72 74 78 132 2 15 31 6 31 -9 0 -27 -69 -164
-83 -164 -15 0 -67 -73 -67 -94 0 -26 17 -27 34 -1 9 13 30 32 46 40 29 15 30
15 30 -5 0 -12 -20 -43 -45 -69 -29 -31 -47 -59 -48 -77 -3 -40 27 -43 65 -7
l31 28 -6 -32 c-6 -28 -3 -32 21 -37 81 -15 114 -17 126 -7 10 8 24 7 56 -4
23 -8 54 -15 67 -15 l25 0 -26 47 c-25 44 -29 68 -7 41 52 -64 75 -88 85 -88
11 0 36 53 36 77 0 6 -11 9 -25 7 -21 -2 -34 8 -68 54 -23 32 -46 61 -52 65
-9 7 4 5 70 -8 14 -3 25 -2 25 2 0 29 -24 83 -45 103 l-25 23 0 -24 0 -24 -15
25 c-39 68 -42 98 -7 67 20 -18 48 -22 56 -9 18 29 -50 170 -103 214 -12 10
-21 27 -21 38 0 20 14 21 68 4 32 -9 -14 64 -48 78 -8 3 -26 27 -39 53 -20 38
-23 50 -13 66 16 25 15 39 -3 39 -8 0 -15 7 -15 16 0 13 5 12 26 -5 41 -32 78
-23 38 9 -8 8 -20 22 -25 32 -9 16 -7 19 8 18 31 -4 36 0 23 15 -7 8 -27 15
-44 15 -18 0 -42 9 -54 20 l-21 20 -19 -28z"/>
<path d="M1886 5160 c-26 -30 -32 -65 -11 -65 44 -2 80 -59 50 -81 -19 -14
-16 -51 4 -46 7 1 37 -9 66 -23 30 -14 63 -25 74 -25 11 0 35 -13 53 -29 45
-38 91 -61 125 -61 l28 1 -30 25 c-16 14 -42 33 -56 43 -26 16 -122 98 -180
153 -16 15 -29 35 -29 45 -1 10 -15 35 -33 56 l-33 38 -28 -31z"/>
<path d="M12660 4303 c-30 -2 -74 -12 -96 -23 -23 -10 -53 -22 -67 -25 -30 -8
-51 -37 -60 -82 -7 -37 6 -44 23 -13 8 16 21 20 57 20 26 0 100 14 165 31 116
31 118 32 118 60 0 23 -4 29 -22 29 -13 0 -32 2 -43 3 -11 2 -45 2 -75 0z"/>
<path d="M12772 4095 c-25 -29 -33 -30 -127 -10 -92 20 -124 19 -177 -4 -49
-21 -62 -34 -72 -73 -3 -16 -10 -28 -15 -28 -5 0 -38 -29 -74 -64 -57 -55 -73
-65 -114 -71 -59 -8 -147 -50 -167 -78 -8 -12 -31 -39 -50 -60 -20 -21 -36
-43 -37 -50 -4 -37 6 -65 33 -95 35 -41 31 -47 -56 -104 -39 -25 -71 -38 -93
-38 -43 0 -73 16 -73 38 0 28 -20 43 -36 28 -19 -20 -56 -108 -98 -235 -18
-53 -30 -71 -75 -110 -111 -95 -131 -117 -131 -148 0 -27 -3 -30 -25 -26 -13
3 -30 11 -36 19 -6 8 -20 14 -30 14 -11 0 -19 5 -19 10 0 15 -49 12 -66 -4 -8
-8 -14 -26 -14 -39 0 -20 6 -26 35 -31 34 -7 42 -19 27 -43 -4 -6 -32 -18 -63
-27 -40 -12 -59 -23 -67 -41 -12 -25 -2 -36 61 -63 17 -7 27 -19 27 -33 0 -49
-72 -64 -140 -29 -35 18 -40 25 -40 55 0 33 -15 56 -22 34 -3 -9 -9 -9 -25 0
-30 15 -37 1 -34 -68 2 -48 8 -63 42 -107 50 -65 51 -89 3 -109 -44 -18 -67
-15 -135 20 -29 14 -62 25 -73 23 -27 -4 -76 -100 -76 -150 0 -34 -2 -37 -37
-43 -67 -11 -77 -25 -69 -98 5 -56 4 -66 -14 -82 -11 -10 -20 -14 -20 -10 0 5
-11 -2 -25 -15 -14 -13 -25 -29 -25 -36 0 -7 -9 -22 -20 -32 -17 -16 -18 -21
-6 -37 13 -18 15 -18 52 -1 75 34 86 41 106 68 23 33 100 88 122 88 9 0 16 4
16 8 0 5 15 15 33 24 17 9 63 39 101 67 38 28 84 53 105 57 66 12 106 34 131
72 14 20 43 55 65 76 39 39 40 42 40 108 0 70 9 87 46 88 8 0 26 10 38 22 21
18 23 28 18 75 -4 40 -2 53 8 53 7 0 27 11 43 25 16 13 32 22 35 18 12 -12 34
17 30 40 -3 17 7 29 49 58 29 20 67 40 85 43 17 4 34 14 37 22 3 8 13 14 22
14 9 0 23 8 30 18 7 9 16 17 21 18 46 4 112 20 129 30 21 14 63 22 249 49 109
15 126 19 260 53 39 10 80 19 92 20 11 0 41 10 66 21 25 12 53 21 62 21 8 0
35 21 58 47 23 25 61 66 85 90 l42 44 0 320 c0 175 -1 319 -3 319 -2 0 -13
-11 -25 -25z"/>
<path d="M12775 2879 c4 -6 -2 -13 -13 -16 -11 -2 -25 -15 -32 -29 -7 -13 -21
-26 -32 -30 -10 -3 -18 -13 -18 -22 -1 -27 -23 -48 -58 -55 -35 -7 -82 -47
-82 -71 0 -8 10 -16 23 -19 21 -3 21 -4 2 -12 -25 -11 -45 -30 -45 -44 0 -6
-4 -11 -10 -11 -5 0 -10 -6 -10 -13 0 -8 -14 -12 -38 -12 -26 0 -45 -8 -61
-24 -13 -13 -19 -26 -14 -30 18 -11 22 -52 7 -58 -10 -4 -14 -23 -14 -69 0
-67 8 -76 42 -51 25 20 275 -6 328 -33 22 -11 42 -20 45 -20 3 0 5 74 5 164 0
122 -3 166 -12 170 -10 5 -10 7 0 12 9 4 12 43 12 145 0 119 -2 139 -16 139
-8 0 -12 -5 -9 -11z"/>
<path d="M9509 2495 c-1 -3 -2 -8 -3 -12 -1 -5 -5 -14 -10 -22 -5 -8 -10 -27
-12 -43 -2 -16 -10 -38 -18 -49 -14 -20 -14 -20 -28 7 -7 15 -18 29 -24 31
-14 5 -26 -39 -18 -61 8 -20 -3 -20 -41 0 -27 14 -30 14 -42 -2 -7 -10 -13
-24 -13 -31 0 -8 -7 -24 -15 -37 -23 -34 -10 -57 28 -50 17 3 34 10 38 15 3 6
9 10 13 10 19 -3 69 34 77 57 7 20 28 37 77 62 65 34 67 36 64 70 -2 19 -7 38
-10 41 -10 9 -62 20 -63 14z"/>
<path d="M11962 2149 c-23 -70 -19 -97 14 -105 24 -6 74 -57 74 -75 0 -6 7
-17 16 -26 11 -11 12 -19 5 -26 -6 -6 -11 -46 -11 -89 l0 -77 29 5 c38 8 55
-22 52 -88 -2 -42 0 -48 17 -48 14 0 21 -8 24 -30 5 -36 -7 -62 -21 -41 -10
15 -32 6 -30 -12 4 -30 -3 -37 -36 -37 -19 0 -35 -4 -35 -10 0 -5 -11 -10 -25
-10 -14 0 -25 -4 -25 -10 0 -15 -38 -50 -55 -50 -8 0 -15 -9 -15 -20 0 -11 6
-20 14 -20 28 0 46 -59 46 -147 0 -47 6 -98 13 -116 8 -18 15 -36 17 -42 1 -5
5 -16 8 -23 2 -8 2 -49 -1 -93 -3 -44 -1 -79 4 -79 5 0 9 -14 9 -32 0 -17 7
-39 15 -48 24 -27 28 -81 29 -452 l0 -348 260 0 c230 0 262 2 278 17 17 15 23
15 51 4 18 -8 51 -16 75 -18 l42 -5 0 135 0 134 -80 6 c-76 5 -82 7 -115 42
-32 33 -35 40 -32 83 5 52 25 102 40 102 6 0 8 3 4 6 -3 4 1 13 9 21 12 12 30
14 94 8 l80 -7 0 335 0 335 -85 49 c-47 26 -103 57 -123 68 -42 23 -113 74
-124 90 -4 5 -8 22 -8 38 0 26 1 27 60 27 33 0 60 4 60 8 0 5 12 14 26 21 21
9 25 16 20 35 -3 14 -2 35 3 48 6 13 11 19 12 13 1 -5 7 33 14 85 11 86 10 98
-6 130 -26 52 -97 116 -154 138 -28 11 -134 61 -237 111 -103 50 -196 91 -207
91 -32 0 -51 11 -51 30 0 42 -19 26 -38 -31z"/>
<path d="M9396 1295 c-4 -17 -12 -25 -21 -22 -7 3 -27 -7 -44 -24 -19 -17 -42
-29 -58 -29 -44 0 -73 -11 -73 -26 0 -8 -7 -17 -15 -20 -27 -11 -18 -53 18
-74 44 -27 91 -26 109 3 22 33 91 97 104 97 24 0 44 31 41 66 -1 26 -6 33 -19
28 -9 -3 -20 2 -26 12 -8 14 -10 12 -16 -11z"/>
<path d="M11290 1271 c-22 -19 -51 -33 -89 -40 -65 -13 -81 -25 -81 -59 0 -29
-30 -70 -48 -64 -6 2 -12 -3 -12 -12 0 -9 -4 -16 -10 -16 -5 0 -10 -16 -10
-35 0 -19 5 -35 10 -35 6 0 1 -9 -10 -20 -11 -11 -26 -20 -32 -20 -28 0 -42
-20 -44 -64 -1 -26 1 -44 5 -41 17 10 1 -48 -21 -78 -22 -29 -23 -37 -15 -87
9 -57 26 -90 28 -54 1 11 4 6 8 -12 5 -17 5 -58 2 -90 -5 -59 -5 -59 -12 -19
-6 35 -6 32 -6 -20 0 -81 -12 -167 -28 -185 -14 -17 -30 -76 -26 -101 1 -9 11
-34 21 -55 12 -22 20 -58 20 -85 0 -87 -57 -79 577 -79 l565 0 -33 37 c-18 21
-53 50 -78 64 -56 33 -72 50 -105 114 -14 28 -26 46 -26 40 -1 -5 -9 5 -19 24
-14 26 -17 49 -14 100 4 62 3 68 -25 97 -49 50 -62 86 -62 166 1 41 6 83 14
97 7 13 11 33 8 45 -7 28 -62 96 -78 96 -25 0 -143 135 -183 209 -21 39 -60
78 -92 91 -30 13 -35 25 -20 49 13 20 -17 70 -41 71 -4 0 -21 -13 -38 -29z"/>
<path d="M8180 1110 c0 -24 -13 -25 -46 -4 -13 9 -26 15 -28 13 -13 -14 -8
-53 14 -98 20 -44 27 -51 45 -46 11 4 34 6 52 6 38 -2 44 7 45 60 0 29 -6 47
-23 65 -28 30 -59 32 -59 4z"/>
<path d="M8298 769 c-12 -19 -18 -21 -29 -12 -18 15 -77 14 -82 -2 -3 -6 6
-34 19 -61 13 -27 24 -57 24 -66 0 -10 5 -18 12 -18 9 0 9 -3 0 -12 -9 -9 -15
-9 -24 0 -23 23 -55 14 -67 -18 -8 -25 -7 -32 5 -37 17 -6 93 24 110 44 6 7
19 13 28 13 9 0 16 5 16 10 0 19 66 11 85 -10 22 -24 24 -24 52 -1 l23 19 -58
58 c-32 33 -67 72 -78 88 l-20 28 -16 -23z"/>
<path d="M10432 227 c-6 -7 -14 -33 -18 -57 -4 -27 -23 -67 -46 -100 -21 -30
-38 -58 -38 -62 0 -5 59 -8 130 -8 72 0 130 4 130 9 0 4 -8 19 -18 32 -22 27
-82 151 -82 168 0 9 -30 31 -43 31 -3 0 -9 -6 -15 -13z"/>
</g>
</svg>
