<?xml version="1.0" standalone="no"?>
<!DOCTYPE svg PUBLIC "-//W3C//DTD SVG 20010904//EN"
 "http://www.w3.org/TR/2001/REC-SVG-20010904/DTD/svg10.dtd">
<svg version="1.0" xmlns="http://www.w3.org/2000/svg"
 width="1280.000000pt" height="720.000000pt" viewBox="0 0 1280.000000 720.000000"
 preserveAspectRatio="xMidYMid meet">
<metadata>
Created by potrace 1.16, written by Peter Selinger 2001-2019
</metadata>
<g transform="translate(0.000000,720.000000) scale(0.100000,-0.100000)"
fill="#000000" stroke="none">
<path d="M0 5661 l0 -1538 86 4 c76 3 92 1 145 -23 33 -15 65 -36 70 -46 6
-11 13 -17 16 -14 3 3 18 -1 34 -9 15 -8 50 -15 77 -15 46 0 52 -3 87 -43 33
-38 44 -44 81 -46 32 -1 50 3 66 18 16 16 25 18 35 10 10 -9 13 -8 13 4 0 10
11 17 28 19 21 2 40 -8 84 -46 31 -27 61 -59 67 -72 5 -13 25 -31 43 -40 18
-9 61 -45 95 -80 34 -35 80 -72 102 -83 41 -22 69 -54 90 -108 8 -18 17 -33
21 -33 13 0 71 -77 75 -99 5 -29 24 -61 35 -61 6 0 9 3 8 8 0 4 2 14 5 22 3 8
7 26 9 40 4 36 58 50 91 23 18 -14 23 -24 16 -34 -14 -22 -11 -137 4 -146 6
-4 24 -32 40 -61 21 -41 25 -57 17 -72 -17 -32 -11 -61 17 -89 16 -16 38 -39
51 -52 12 -13 36 -37 53 -54 17 -16 41 -50 53 -75 54 -111 157 -230 200 -230
16 0 29 -7 33 -17 3 -10 15 -28 25 -39 l19 -22 -40 -4 c-21 -2 -39 -1 -39 2 3
14 -22 58 -36 63 -9 4 -16 14 -16 22 0 10 -7 15 -17 13 -10 -2 -16 -11 -14
-19 2 -8 6 -31 9 -51 3 -30 1 -38 -12 -38 -13 0 -14 5 -6 26 14 35 13 41 -7
48 -10 4 -31 14 -47 23 -27 14 -32 14 -55 0 -19 -11 -27 -26 -29 -51 -2 -23
-9 -36 -20 -39 -15 -3 -14 -5 3 -12 11 -5 22 -12 25 -15 17 -23 65 -36 106
-29 24 5 75 10 114 11 38 2 70 6 70 10 0 4 12 13 28 20 33 16 42 66 16 92 -9
9 -22 37 -30 62 -7 25 -27 61 -44 80 -16 19 -30 41 -30 49 0 7 -14 23 -30 35
-20 15 -30 30 -30 48 0 35 -9 47 -45 60 -26 9 -27 11 -7 11 12 1 22 5 22 9 0
12 133 -14 170 -33 39 -20 45 -19 58 9 9 21 8 27 -14 40 -14 10 -24 26 -24 40
0 25 -30 59 -50 54 -6 -2 -20 20 -31 47 -10 28 -24 58 -29 67 -6 11 -6 19 0
23 6 3 10 23 10 44 0 31 -6 42 -26 56 -15 10 -23 22 -20 31 3 8 1 14 -4 14 -5
0 -10 15 -12 33 -3 27 -7 32 -28 31 -14 0 -35 -4 -47 -8 -27 -9 -45 20 -47 74
-1 31 -4 35 -29 38 -22 3 -27 7 -21 20 17 42 16 59 -6 65 -17 4 -20 10 -14 34
19 79 27 84 85 56 43 -20 39 -16 44 -44 8 -43 31 -81 80 -133 41 -43 55 -88
55 -183 0 -64 4 -85 16 -95 53 -41 86 -88 102 -140 17 -54 20 -57 37 -44 15
11 25 11 63 0 27 -9 82 -13 139 -12 l93 2 27 38 c14 21 30 38 35 38 18 0 140
65 145 77 12 30 63 -5 63 -43 -1 -26 -88 -116 -109 -112 -10 2 -16 13 -16 32
0 32 -17 44 -37 27 -7 -6 -29 -22 -48 -34 -44 -28 -52 -57 -16 -57 14 0 28 5
31 10 8 13 25 13 25 0 0 -13 -14 -30 -62 -76 -55 -54 -65 -124 -12 -89 22 14
25 14 30 0 6 -15 18 -7 129 95 11 10 30 21 43 25 12 3 22 10 22 16 0 13 60
109 69 109 6 0 15 -16 51 -93 8 -15 28 -36 45 -47 36 -22 55 -57 55 -103 0
-18 7 -41 15 -51 8 -11 15 -28 15 -38 0 -17 -2 -17 -27 -4 -16 8 -45 33 -66
55 -37 40 -39 43 -35 101 3 65 -7 79 -44 57 -16 -9 -22 -9 -25 1 -3 6 -14 12
-25 12 -17 0 -20 -5 -16 -35 2 -19 0 -35 -4 -35 -4 0 -8 -6 -8 -13 0 -7 -7
-22 -15 -33 -14 -18 -16 -18 -26 -1 -16 27 -31 21 -84 -33 -27 -27 -56 -50
-63 -50 -14 0 -102 -78 -102 -91 0 -3 11 -11 24 -19 22 -11 27 -9 66 29 23 22
45 41 49 41 4 0 26 14 49 31 l42 31 0 -31 c0 -37 -32 -73 -63 -71 -38 3 -47 0
-47 -15 0 -8 -6 -15 -12 -15 -9 0 -8 -4 2 -10 21 -13 86 -12 143 3 35 9 77 10
145 5 85 -7 287 4 299 16 11 11 -29 64 -61 81 -19 10 -37 26 -40 34 -3 9 -9
22 -12 29 -4 10 1 11 21 6 27 -7 28 -6 21 22 -4 16 -19 41 -32 55 -26 28 -31
48 -18 88 5 16 4 22 -3 18 -6 -4 -23 9 -37 28 -15 20 -36 35 -47 35 -39 0 -59
19 -59 55 0 19 3 35 6 35 17 0 71 -42 89 -69 11 -17 23 -31 28 -31 4 0 7 -6 7
-14 0 -26 28 -26 34 0 8 29 -29 97 -74 137 -30 27 -41 67 -17 67 28 -1 87 -72
87 -106 0 -14 5 -34 11 -45 10 -20 11 -20 30 -3 32 29 39 4 39 -154 l0 -143
48 3 47 3 5 158 5 158 29 -30 c17 -17 37 -31 47 -31 9 0 33 -7 52 -15 28 -12
38 -12 44 -2 5 8 10 -1 13 -23 6 -40 31 -51 60 -25 20 18 68 14 81 -6 10 -17
89 23 89 45 0 13 -40 5 -48 -10 -6 -11 -11 -13 -16 -5 -13 20 2 27 61 31 128
8 142 3 143 -47 0 -12 9 -28 21 -36 20 -15 21 -21 17 -235 -2 -167 -6 -223
-17 -235 -12 -15 -10 -17 16 -17 41 0 94 20 87 32 -4 6 -1 9 7 6 14 -5 133 32
146 45 3 4 -5 7 -20 7 -33 0 -41 13 -16 28 13 9 19 9 19 1 0 -6 9 -9 20 -6 11
3 38 0 61 -5 33 -9 43 -8 51 3 7 11 11 11 15 2 2 -7 9 -13 14 -13 5 0 6 32 3
74 -5 50 -3 75 5 80 8 5 11 -16 11 -74 l0 -81 36 3 35 3 4 69 c6 96 15 95 15
-1 0 -75 2 -81 23 -87 21 -7 21 -7 2 -15 -11 -4 -40 -6 -65 -4 l-45 4 40 -25
c51 -33 115 -34 227 -5 90 23 174 21 256 -7 24 -8 85 -17 135 -20 51 -2 124
-9 162 -15 47 -7 88 -8 123 -1 38 7 70 6 115 -3 34 -7 101 -16 150 -20 48 -4
90 -11 93 -16 3 -5 -6 -9 -19 -9 -45 0 -35 -12 41 -51 74 -38 152 -53 152 -29
0 6 9 10 20 10 14 0 20 -7 20 -21 0 -33 17 -56 50 -67 16 -6 30 -18 30 -26 0
-8 13 -17 30 -21 24 -5 50 3 123 39 50 25 124 52 162 60 74 15 136 47 155 81
15 26 164 93 239 107 53 10 63 9 106 -11 31 -15 82 -25 158 -33 86 -8 122 -16
154 -34 23 -13 49 -24 59 -24 9 0 40 -7 68 -14 142 -41 244 -66 266 -66 14 0
38 -7 54 -15 33 -18 69 -19 97 -4 16 8 26 7 44 -5 14 -9 36 -16 50 -16 14 0
25 -4 25 -9 0 -5 12 -12 28 -16 40 -11 305 -6 317 6 7 7 3 8 -10 3 -16 -5 -15
-3 4 12 17 12 26 14 29 6 2 -7 21 -12 42 -12 37 0 38 1 33 31 -4 25 -2 31 10
26 10 -4 17 2 21 19 4 15 14 24 26 24 11 0 20 4 20 8 0 13 47 32 79 32 29 0
56 23 62 52 4 17 6 17 33 3 27 -14 31 -14 38 0 11 19 42 19 58 0 7 -8 27 -15
45 -15 19 0 35 -5 37 -12 3 -7 24 -11 56 -9 40 1 56 -3 72 -19 25 -25 27 -67
3 -73 -10 -2 -6 -3 10 -1 25 3 27 1 27 -31 0 -19 5 -35 10 -35 6 0 10 14 10
30 0 23 4 30 20 30 14 0 20 -7 20 -24 0 -24 1 -24 88 -19 68 4 90 9 102 24 31
37 290 20 290 -20 0 -10 3 -12 10 -5 5 5 11 43 12 84 l3 75 -35 -1 c-66 -2
-110 -8 -110 -16 0 -15 -158 -7 -164 8 -3 8 -16 14 -30 14 -14 0 -27 4 -30 9
-6 10 -96 21 -174 22 -36 1 -55 6 -59 15 -3 8 -11 14 -18 14 -9 0 -16 18 -21
47 -8 52 2 339 12 355 4 6 51 8 130 3 68 -3 133 -4 144 0 26 8 26 32 0 40 -11
3 -20 15 -20 26 0 26 12 24 41 -7 22 -23 24 -36 29 -147 l5 -122 50 0 50 0 3
113 c2 104 4 112 23 112 11 0 22 7 25 15 9 21 24 19 24 -4 0 -36 12 -51 40
-51 34 0 40 14 40 87 0 53 1 55 24 49 13 -3 45 -3 70 0 39 6 49 12 72 48 49
75 96 106 239 154 69 24 101 29 136 25 33 -4 62 1 100 14 77 29 108 16 148
-59 36 -68 40 -103 11 -111 -16 -4 -20 -14 -20 -46 0 -34 -3 -41 -20 -41 -15
0 -20 -7 -20 -24 0 -32 -12 -39 -43 -25 -17 8 -30 8 -43 1 -29 -15 -52 3 -60
46 -4 20 -12 40 -17 44 -6 3 -15 21 -21 39 -14 42 -33 48 -46 15 -7 -20 -16
-26 -40 -26 -28 0 -30 -2 -30 -39 0 -34 -3 -38 -20 -34 -17 5 -20 0 -20 -30 0
-45 -20 -52 -42 -15 -27 43 -50 36 -78 -26 -14 -30 -32 -57 -41 -59 -23 -6
-30 -54 -11 -69 18 -15 50 -12 69 8 12 12 11 14 -8 14 -21 0 -21 1 -6 18 10
10 17 30 17 45 0 14 5 29 10 32 12 8 79 -14 101 -32 14 -12 17 -11 22 7 7 26
37 26 37 0 0 -23 12 -25 43 -6 12 7 41 16 65 20 38 6 42 4 42 -14 0 -13 -7
-20 -20 -20 -11 0 -20 -6 -20 -14 0 -7 -7 -19 -16 -27 -9 -7 -14 -25 -12 -45
3 -38 -16 -64 -48 -64 -19 0 -24 -5 -24 -27 0 -14 -7 -35 -17 -45 -21 -23 -6
-23 48 2 50 22 99 26 117 8 17 -17 15 -116 -3 -134 -12 -13 -12 -20 6 -61 24
-56 19 -73 -21 -73 -22 0 -33 -6 -39 -21 -4 -12 -23 -27 -41 -33 -42 -14 -46
-26 -20 -56 21 -25 23 -28 24 -77 1 -39 -5 -40 -44 -11 -23 17 -33 19 -42 10
-9 -9 -8 -20 4 -46 14 -27 15 -42 6 -77 -11 -46 -24 -69 -39 -69 -5 0 -9 8 -9
18 0 16 -40 42 -67 42 -7 0 -13 -11 -13 -25 0 -15 -6 -25 -14 -25 -17 0 -66
-56 -66 -75 0 -22 39 -25 51 -3 6 10 16 17 22 15 7 -2 20 3 30 12 17 15 20 14
33 -4 8 -10 14 -26 14 -34 0 -9 8 -38 17 -64 15 -40 15 -50 4 -57 -24 -14 -38
-1 -47 48 -7 36 -14 48 -30 50 -11 2 -26 -4 -33 -12 -10 -12 -8 -22 12 -53 19
-30 22 -43 15 -63 -5 -14 -7 -49 -4 -77 3 -29 2 -53 -3 -53 -5 0 -27 18 -50
40 -46 45 -61 44 -61 -3 0 -24 -3 -28 -12 -19 -19 19 -48 15 -48 -8 0 -11 -6
-29 -12 -40 -10 -15 -10 -22 0 -32 10 -10 19 -10 42 4 41 23 45 7 10 -37 -34
-42 -47 -94 -31 -122 9 -18 7 -20 -14 -16 -16 4 -28 -1 -37 -16 -7 -12 -23
-21 -35 -21 -15 0 -23 -6 -23 -18 0 -10 -5 -23 -12 -30 -15 -15 -15 -15 52 3
30 8 69 15 86 15 35 0 49 12 59 53 4 15 11 27 16 27 5 0 9 9 9 19 0 13 8 21
22 23 12 2 28 13 34 25 15 31 72 83 125 114 24 14 49 36 55 50 45 94 47 101
40 181 -6 77 -6 78 24 109 16 18 30 40 30 50 0 11 5 19 10 19 6 0 10 6 10 14
0 8 18 37 40 65 22 28 40 55 40 61 0 5 4 10 9 10 5 0 15 15 22 33 7 17 24 45
38 61 66 75 99 106 114 106 9 0 47 31 85 69 38 38 85 74 105 82 39 14 52 41
35 73 -14 26 -28 36 -54 36 -25 0 -62 72 -71 138 -5 40 -14 55 -61 99 l-54 52
19 33 c22 37 37 43 100 33 73 -11 83 -28 83 -147 1 -108 12 -145 41 -127 8 5
25 9 39 9 21 0 28 -7 35 -32 21 -72 87 -30 120 76 10 31 22 56 27 56 5 0 24
14 44 32 32 29 35 37 33 79 -3 51 12 79 41 79 17 0 50 53 50 81 0 7 -10 24
-22 37 l-23 25 35 -7 c19 -4 48 -9 63 -13 22 -4 32 0 44 17 11 15 22 20 38 16
44 -11 43 71 0 94 -38 20 -20 38 34 32 46 -4 48 -3 61 28 12 28 11 33 -8 52
-13 14 -38 22 -71 26 -27 2 -50 7 -49 11 1 3 -2 14 -7 24 -4 10 -6 20 -3 22 7
7 108 -7 103 -14 -8 -14 43 -61 66 -61 26 1 59 21 59 37 0 13 51 106 63 114 4
3 7 42 6 87 -2 78 -1 82 30 117 17 20 31 41 31 46 0 27 107 143 142 155 13 4
16 13 12 37 -4 28 -3 29 5 10 6 -13 13 -23 15 -23 25 0 101 55 146 105 63 72
86 85 141 85 30 0 48 7 70 28 17 16 46 34 66 41 30 11 37 11 53 -4 12 -11 26
-14 45 -9 15 4 58 1 96 -6 76 -15 70 -16 190 46 53 27 79 34 124 34 l58 0 -6
-36 c-8 -47 7 -82 40 -95 21 -8 37 -5 77 12 28 11 65 31 81 44 40 30 111 65
118 59 3 -3 23 4 46 15 22 12 46 21 54 21 8 0 39 14 70 30 31 17 63 30 71 30
7 0 19 7 26 15 7 8 21 15 31 15 18 0 19 20 17 638 0 350 -3 621 -5 602 -2 -19
-5 -44 -8 -56 -7 -30 -54 -74 -80 -74 -20 0 -23 6 -27 49 -10 103 -73 118
-130 31 -18 -28 -41 -53 -51 -56 -20 -6 -47 12 -47 31 0 14 -69 70 -76 62 -3
-3 -14 -20 -23 -39 -10 -18 -30 -40 -44 -48 -24 -13 -30 -13 -59 2 -18 9 -41
19 -50 22 -22 7 -23 25 -3 32 8 3 19 21 25 39 6 18 21 44 33 58 91 101 97 112
97 169 0 40 4 46 52 83 28 22 59 48 69 57 11 10 49 21 99 28 45 6 93 15 107
21 13 5 47 9 74 9 l49 0 0 520 0 520 -35 0 c-24 0 -39 6 -47 20 -8 12 -24 20
-40 20 -27 0 -28 -2 -28 -55 0 -55 -4 -61 -34 -49 -23 9 -20 24 4 24 17 0 20
7 20 40 l0 40 -550 0 c-434 0 -550 -3 -550 -13 0 -6 -20 -23 -45 -36 -52 -27
-112 -25 -148 6 -48 40 -64 43 -214 42 -92 0 -140 -4 -128 -9 11 -5 41 -9 68
-9 52 -1 62 -18 30 -54 -16 -17 -18 -38 -16 -150 l3 -131 -37 -38 c-20 -21
-45 -38 -55 -38 -23 0 -23 11 3 44 22 28 21 31 -22 106 -8 14 -15 27 -16 29
-6 10 -151 12 -157 2 -4 -6 -24 -11 -45 -11 -48 0 -87 -19 -130 -64 -31 -32
-33 -38 -23 -61 9 -20 19 -25 46 -25 46 0 66 -9 66 -29 0 -9 -17 -52 -38 -96
-21 -44 -49 -107 -62 -140 -31 -78 -80 -125 -130 -125 -51 0 -98 -17 -142 -51
-36 -28 -38 -28 -47 -10 -16 30 12 84 66 128 66 53 93 83 93 103 0 48 -48 26
-144 -64 -60 -56 -92 -69 -102 -41 -4 8 -17 15 -30 15 -26 0 -29 7 -14 30 8
11 12 12 18 3 16 -25 62 -8 92 34 30 41 48 56 113 92 72 40 77 45 77 76 0 16
7 65 15 108 8 43 15 100 15 127 0 33 6 55 21 74 12 15 24 25 27 22 3 -3 14 13
24 35 17 38 21 41 48 36 33 -7 39 -1 50 49 l8 34 -569 0 -570 0 23 -30 c15
-20 23 -49 26 -88 5 -70 -18 -123 -79 -183 l-39 -38 -40 17 c-44 19 -44 17
-61 137 -6 44 -16 83 -22 87 -6 4 -4 20 7 47 9 23 16 44 16 46 0 3 -20 5 -44
5 -42 0 -45 -2 -56 -36 -10 -30 -10 -38 1 -45 11 -7 8 -15 -15 -35 -21 -18
-30 -36 -30 -60 -1 -22 -12 -48 -29 -69 -26 -33 -28 -43 -34 -165 -6 -119 -8
-133 -30 -156 -13 -14 -31 -24 -41 -22 -25 5 -70 95 -78 155 -5 39 -11 54 -25
58 -11 4 -19 11 -19 16 0 5 -8 9 -17 9 -15 0 -16 -2 -4 -9 12 -8 8 -11 -15
-16 -48 -10 -57 -19 -88 -81 -16 -32 -38 -67 -49 -77 -16 -13 -25 -44 -38
-125 -31 -189 -40 -226 -56 -244 -15 -16 -15 -31 -3 -149 11 -106 11 -137 1
-163 -7 -17 -15 -40 -18 -51 -10 -37 -37 -95 -44 -95 -4 0 -16 14 -26 30 -31
53 -89 33 -135 -49 -18 -30 -38 -62 -45 -71 -7 -8 -12 -18 -11 -21 2 -4 -6
-16 -16 -28 -11 -12 -14 -21 -8 -21 22 0 12 -46 -18 -80 -16 -19 -29 -41 -30
-49 0 -8 -25 -65 -55 -127 -39 -81 -59 -112 -69 -108 -23 9 -45 78 -50 159 -3
42 -8 80 -11 85 -12 20 -85 -23 -107 -63 -8 -16 -7 -18 13 -12 19 6 21 5 16
-16 -4 -13 -7 -27 -7 -30 0 -4 -13 -12 -30 -19 -16 -7 -27 -16 -24 -22 3 -5
-1 -19 -9 -31 -12 -19 -12 -24 -1 -35 11 -10 22 -7 56 14 24 15 47 32 51 38
10 14 -3 -43 -15 -66 -11 -23 -71 -68 -90 -68 -9 0 -23 -11 -32 -25 -16 -24
-16 -25 4 -25 27 0 25 -18 -2 -23 l-23 -4 23 -8 24 -8 -25 -21 c-14 -12 -39
-48 -56 -81 -18 -33 -42 -68 -54 -79 -12 -10 -23 -22 -23 -27 -1 -5 -2 -12 -3
-15 0 -4 -7 -1 -15 5 -9 8 -16 8 -20 2 -4 -6 3 -15 14 -21 11 -6 20 -17 20
-25 0 -20 -21 -30 -31 -14 -4 7 -9 11 -11 9 -25 -39 -26 -48 -10 -63 19 -17
35 -12 45 16 9 23 27 22 27 -2 0 -12 -9 -21 -25 -25 -14 -4 -25 -13 -25 -20 0
-8 -9 -16 -20 -19 -29 -8 -24 -22 15 -46 36 -21 36 -21 18 -46 -10 -13 -22
-25 -28 -25 -5 0 -48 39 -95 88 -98 100 -128 122 -168 122 -26 0 -30 -6 -48
-57 -18 -54 -44 -82 -44 -48 0 11 -6 15 -18 11 -19 -6 -24 1 -51 68 -6 15 -9
37 -6 47 4 10 -1 29 -9 41 -27 38 -20 48 32 48 47 0 61 -4 197 -55 40 -16 96
-28 132 -30 l62 -3 -11 24 c-6 13 -15 24 -19 24 -4 0 -10 8 -13 18 -6 18 -81
99 -129 139 -33 28 -34 38 -4 57 24 16 147 19 147 4 0 -14 53 -5 57 9 2 6 -18
33 -45 60 -28 26 -52 57 -54 68 -2 14 -13 21 -32 23 -16 2 -44 15 -61 28 -33
25 -135 50 -162 40 -13 -5 -11 -12 9 -39 20 -26 23 -38 17 -67 -4 -19 -5 -38
-3 -42 3 -5 2 -17 -1 -28 -5 -15 -12 -18 -35 -13 -19 3 -34 0 -45 -10 -13 -13
-21 -14 -43 -5 -15 7 -34 18 -43 25 -29 24 -69 15 -105 -23 -19 -19 -34 -41
-34 -47 0 -7 -9 -18 -19 -24 -20 -12 -27 -73 -9 -73 4 0 -1 -9 -12 -20 -11
-11 -20 -32 -20 -46 0 -14 -7 -32 -15 -40 -8 -9 -15 -33 -15 -53 l0 -38 53 -6
c28 -3 55 -2 59 2 4 3 -3 26 -15 50 l-22 43 30 24 c40 32 78 31 115 -3 41 -38
48 -80 20 -116 -12 -15 -30 -27 -41 -27 -16 0 -18 -5 -12 -45 7 -53 11 -52
-108 -29 -46 8 -102 13 -124 10 -22 -3 -67 -6 -100 -7 -78 -3 -113 -15 -152
-52 -32 -30 -46 -29 -20 2 8 9 19 35 26 59 17 59 39 78 100 86 28 4 51 10 51
15 0 13 -44 74 -55 77 -5 2 -28 -19 -49 -46 -22 -28 -41 -49 -43 -47 -3 3 29
69 65 134 8 14 11 27 8 30 -3 3 -11 -6 -17 -21 -7 -14 -16 -26 -21 -26 -4 0
-8 -6 -8 -13 0 -8 -11 -20 -25 -27 -18 -9 -25 -22 -25 -42 0 -24 -4 -28 -27
-28 -46 0 -57 -13 -50 -59 3 -23 2 -43 -2 -45 -4 -3 -25 3 -46 13 -39 18 -65
47 -75 86 -4 12 -18 22 -40 26 -28 6 -39 3 -54 -13 l-19 -20 -18 23 c-24 31
-24 56 0 69 28 15 78 12 84 -4 3 -8 28 -17 58 -21 29 -4 61 -12 70 -18 13 -8
23 -4 45 16 16 15 32 27 36 27 5 0 8 11 8 24 0 19 9 28 45 43 56 23 57 41 5
89 -22 21 -40 43 -40 51 0 21 31 15 37 -7 3 -11 9 -20 14 -20 5 0 9 -8 9 -17
1 -17 1 -17 11 0 6 11 8 31 5 45 -15 66 -14 81 5 105 18 23 26 57 14 57 -13 0
-54 -56 -55 -73 0 -10 -8 -20 -17 -24 -10 -3 -26 -12 -35 -20 -15 -13 -22 -10
-70 24 -29 22 -69 45 -88 53 -19 7 -41 18 -49 24 -10 7 -17 5 -27 -8 -12 -17
-14 -17 -20 -3 -5 13 -10 14 -24 7 -15 -8 -21 -6 -29 7 -8 16 -10 16 -16 2 -3
-8 -1 -28 4 -43 13 -33 -2 -41 -53 -32 -23 5 -36 3 -39 -6 -3 -9 -9 -8 -19 6
-14 17 -15 17 -33 -10 -18 -28 -18 -28 -26 -6 -8 22 -29 31 -29 12 0 -5 -9
-10 -21 -10 -20 0 -20 0 3 31 26 35 29 40 54 93 15 30 28 42 52 48 27 7 32 13
27 28 -4 12 -2 20 4 20 6 0 11 -6 11 -14 0 -27 53 -35 76 -11 37 36 112 7 198
-77 35 -35 57 -48 77 -48 22 0 30 -6 35 -25 7 -29 22 -33 30 -7 3 9 12 30 19
46 12 27 11 31 -14 56 -15 15 -36 30 -48 34 -12 4 -27 13 -33 21 -7 8 -25 15
-40 15 -17 0 -33 8 -42 22 -10 15 -25 21 -48 21 -33 0 -33 1 -10 11 14 6 33
18 42 26 17 13 16 15 -4 37 -27 28 -17 41 18 23 17 -9 24 -20 21 -32 -7 -24 5
-23 21 3 9 14 20 19 33 16 27 -7 23 4 -12 32 -31 24 -154 47 -174 32 -5 -4
-29 -6 -53 -3 -34 3 -43 9 -48 28 -4 13 -1 30 5 38 6 7 8 16 5 19 -5 5 -8 76
-5 130 1 12 9 17 30 17 16 0 34 7 41 15 8 9 22 12 41 8 22 -4 33 -1 44 13 12
17 11 20 -3 26 -9 4 -41 7 -69 7 -47 1 -53 -1 -53 -19 0 -11 -6 -20 -14 -20
-13 0 -16 27 -7 81 2 14 83 15 88 2 9 -22 27 -14 71 32 24 25 48 45 53 45 5 0
9 5 9 10 0 18 -40 10 -52 -10 -7 -11 -21 -20 -30 -20 -10 0 -18 -6 -18 -14 0
-21 -20 -30 -33 -17 -6 6 -26 11 -44 11 -29 0 -33 3 -33 25 0 32 -10 32 -46
-2 -23 -21 -37 -26 -71 -24 -44 2 -50 -3 -32 -29 8 -11 12 -12 16 -2 7 17 28
15 44 -5 11 -13 11 -17 2 -20 -21 -7 -14 -31 10 -35 14 -2 23 -11 25 -27 3
-18 0 -22 -11 -18 -17 6 -37 -11 -37 -32 0 -11 -11 -17 -30 -18 -26 -2 -30 1
-30 24 0 24 -2 25 -44 21 -34 -4 -46 -2 -51 10 -7 18 -20 7 -29 -24 -6 -18 0
-24 36 -39 24 -10 37 -20 31 -22 -25 -9 -12 -24 17 -21 19 2 34 -3 40 -11 7
-12 13 -13 34 -3 36 16 80 -3 72 -32 -3 -12 -6 -31 -6 -43 0 -20 -5 -23 -38
-23 -36 0 -62 -14 -62 -32 0 -4 11 -8 24 -8 54 0 75 -29 39 -55 -20 -15 -11
-45 17 -52 11 -3 20 -12 20 -19 0 -20 -6 -18 -57 16 -48 33 -72 30 -94 -11 -9
-17 -17 -20 -46 -14 -24 4 -42 1 -59 -10 -14 -9 -33 -13 -44 -10 -10 3 -21 1
-25 -5 -4 -6 -18 -16 -33 -21 -18 -7 -22 -13 -14 -21 7 -7 19 -6 41 5 l30 15
-6 -30 c-6 -28 -5 -30 15 -19 29 15 30 15 37 -21 5 -22 3 -35 -7 -42 -8 -6
-17 -19 -21 -28 -3 -10 -17 -18 -29 -18 -24 0 -128 -66 -128 -81 0 -12 67 -11
75 1 12 19 45 11 45 -11 0 -16 4 -19 18 -14 37 16 61 16 84 1 24 -16 73 -10
101 12 7 5 22 11 33 14 67 17 49 -55 -22 -88 -24 -12 -47 -17 -50 -13 -2 4
-18 14 -34 22 -25 13 -32 13 -55 1 -15 -8 -34 -14 -41 -14 -8 0 -14 -4 -14 -9
0 -5 -13 -14 -29 -19 -16 -6 -32 -20 -36 -31 -3 -12 -12 -21 -19 -21 -17 0
-70 -69 -61 -78 4 -4 10 -1 12 6 6 16 28 15 43 -3 7 -8 17 -12 24 -8 6 4 25 8
41 8 17 0 41 4 53 9 41 14 22 -26 -22 -49 -21 -11 -45 -30 -54 -43 -13 -20
-13 -22 3 -22 15 0 15 -2 4 -16 -7 -8 -26 -22 -43 -31 -50 -26 -91 -64 -96
-91 -5 -23 -8 -21 -53 36 -47 60 -47 61 -20 56 16 -3 36 -7 46 -10 27 -8 22
35 -10 84 -29 45 -43 53 -43 25 -1 -12 -9 -4 -24 19 -12 21 -26 36 -29 33 -4
-3 -1 3 8 12 14 16 16 15 37 -4 20 -18 27 -19 52 -8 27 11 27 12 7 18 -15 4
-21 13 -21 32 0 38 -25 86 -71 137 -21 23 -39 53 -39 65 0 20 3 21 36 11 52
-14 54 -2 9 41 -22 21 -46 48 -52 60 -7 11 -18 30 -25 40 -10 16 -9 25 2 46
13 24 12 28 -3 36 -9 6 -17 15 -17 21 0 7 7 5 18 -4 50 -43 78 -24 31 22 l-32
30 27 0 c14 0 26 4 26 9 0 16 -26 31 -48 26 -11 -2 -32 5 -46 16 l-24 19 -21
-26 c-11 -14 -26 -39 -33 -55 -10 -23 -21 -31 -50 -35 -20 -4 -39 -13 -42 -20
-3 -8 -12 -14 -21 -14 -8 0 -15 -4 -15 -10 0 -5 4 -10 9 -10 6 0 13 5 16 10 3
6 17 10 30 10 18 0 23 -4 18 -16 -5 -13 -2 -15 15 -10 11 4 23 3 26 -2 7 -11
-61 -92 -78 -92 -11 0 -56 -52 -56 -65 0 -12 23 -3 62 25 22 17 51 30 63 30
36 0 45 20 45 97 0 74 12 95 30 49 5 -15 5 -37 -1 -58 -5 -18 -9 -45 -9 -59 0
-15 -6 -29 -14 -32 -8 -3 -16 -18 -18 -34 -2 -21 -14 -33 -50 -53 -49 -26 -76
-48 -45 -37 11 4 17 1 17 -8 0 -9 10 -15 25 -15 20 0 25 -5 25 -24 0 -23 -20
-48 -78 -99 -18 -15 -30 -32 -26 -38 4 -8 10 -7 17 0 15 15 27 14 27 -4 0 -8
-9 -15 -19 -15 -21 0 -71 -53 -71 -76 0 -9 -4 -12 -10 -9 -6 3 -10 1 -10 -4 0
-26 46 -7 100 40 46 40 60 60 69 95 11 43 41 63 41 27 0 -34 -65 -148 -107
-188 -30 -29 -43 -50 -43 -68 0 -15 2 -27 4 -27 2 0 20 16 39 35 30 30 67 46
67 30 0 -17 -33 -66 -60 -89 -41 -34 -53 -91 -20 -101 17 -5 28 1 52 27 l31
33 -6 -32 c-7 -36 -2 -39 73 -49 34 -4 59 -2 74 6 19 10 28 9 47 -3 32 -20 89
-32 89 -18 0 6 -9 25 -20 43 -29 49 -24 64 10 30 17 -17 30 -33 30 -37 0 -3 9
-15 19 -26 19 -20 19 -20 35 12 20 41 20 58 -1 81 -17 19 -8 24 17 8 9 -6 20
-5 30 3 8 7 33 19 55 26 73 24 122 58 128 89 11 55 133 110 167 76 13 -13 2
-44 -16 -44 -7 0 -18 -9 -24 -19 -5 -11 -22 -26 -37 -33 -15 -7 -30 -23 -33
-36 -8 -35 -24 -27 -31 15 -3 21 -7 28 -8 16 0 -13 -18 -41 -38 -64 -20 -22
-37 -50 -38 -62 -1 -12 -8 -22 -16 -23 -8 0 -22 -2 -31 -2 -10 -1 -18 -10 -18
-21 0 -10 -7 -24 -15 -31 -27 -22 -5 -30 83 -30 48 0 125 -8 172 -17 104 -21
134 -21 330 1 85 10 178 19 206 22 41 4 54 10 61 27 19 40 16 -173 -2 -227 -9
-26 -13 -51 -10 -57 9 -13 140 -2 180 16 17 8 39 23 51 33 32 30 90 105 98
125 3 11 15 21 26 24 11 3 20 12 20 20 0 9 6 13 15 9 8 -3 15 -1 15 3 0 5 -5
11 -12 13 -6 2 -9 11 -6 20 7 16 52 25 168 34 90 7 110 12 110 29 0 8 9 19 21
25 17 10 24 8 40 -11 18 -20 24 -21 99 -15 113 9 142 16 136 32 -3 8 -1 14 4
14 6 0 10 -4 10 -10 0 -19 53 -10 71 12 21 23 24 38 9 38 -5 0 -10 12 -10 27
0 18 14 39 44 69 40 37 96 124 81 124 -16 0 30 50 55 60 17 7 30 16 30 21 0 5
13 6 29 3 16 -4 32 -1 35 5 11 18 36 13 36 -7 0 -10 7 -27 15 -38 8 -10 15
-30 15 -43 0 -23 -2 -23 -59 -17 -51 6 -61 4 -73 -12 -7 -10 -23 -24 -35 -31
-13 -6 -23 -18 -23 -25 0 -7 -14 -25 -30 -39 -17 -15 -30 -32 -30 -37 0 -6 -7
-10 -15 -10 -8 0 -22 -12 -32 -26 -15 -24 -15 -27 -1 -35 10 -5 14 -17 11 -29
-4 -15 0 -20 15 -20 12 0 23 4 26 8 3 4 42 5 88 0 l83 -7 56 -61 56 -61 39 41
c41 43 181 130 210 130 12 0 15 6 10 25 -3 13 1 44 9 67 29 85 9 92 -50 17
-22 -28 -47 -58 -55 -67 -9 -10 -28 -34 -43 -55 -16 -20 -31 -37 -35 -37 -4 0
-6 20 -4 45 2 25 0 45 -4 45 -12 0 -79 -72 -87 -93 -7 -19 -32 -13 -41 10 -11
29 14 79 61 122 42 40 49 43 86 38 34 -5 46 -1 76 23 20 16 48 32 62 35 15 4
41 22 59 40 18 19 57 47 87 62 52 26 56 26 96 12 40 -13 42 -16 43 -55 0 -22
4 -46 8 -53 4 -6 4 -11 -1 -10 -4 1 -18 1 -31 0 -29 -1 -49 -47 -32 -75 9 -15
9 -20 -1 -27 -18 -11 -29 -2 -29 22 0 11 -7 28 -16 36 -21 21 -48 6 -52 -28
-2 -13 -16 -37 -32 -54 -15 -16 -30 -39 -32 -50 -2 -11 -13 -21 -25 -23 -15
-2 -26 -14 -33 -37 -6 -19 -19 -37 -29 -40 -10 -3 -27 -21 -37 -40 -19 -36
-28 -42 -39 -25 -9 15 -25 12 -25 -5 0 -8 -9 -20 -20 -27 -11 -7 -20 -18 -20
-25 0 -7 -9 -17 -20 -23 -26 -14 -25 -23 5 -56 13 -14 27 -43 30 -63 3 -20 10
-43 16 -51 5 -8 12 -22 15 -30 3 -8 14 -34 25 -57 20 -41 21 -41 40 -22 10 10
19 22 19 26 0 4 15 21 33 40 87 88 93 99 117 221 10 49 20 71 44 93 17 16 34
29 38 29 5 0 30 16 57 35 52 37 93 44 126 21 11 -7 39 -17 63 -21 53 -9 56
-26 3 -19 -46 7 -63 -11 -27 -27 20 -9 29 -9 41 1 8 7 17 11 18 9 1 -2 9 -17
17 -33 19 -38 35 -42 76 -22 19 9 38 16 43 16 13 0 89 -102 96 -130 7 -28 49
-80 64 -80 6 0 16 -9 23 -20 7 -11 16 -20 20 -20 3 0 24 -17 46 -39 30 -28 45
-54 58 -97 9 -32 20 -63 24 -69 4 -5 5 -18 1 -28 -6 -17 -8 -17 -25 2 -10 11
-15 25 -11 30 3 6 2 11 -4 11 -5 0 -15 15 -21 34 -6 19 -17 37 -25 40 -7 2
-15 15 -17 28 -2 13 -10 24 -18 24 -8 1 -21 2 -27 3 -7 0 -13 7 -13 15 0 8 -7
17 -16 20 -8 3 -13 10 -10 15 3 5 0 14 -8 20 -16 13 -26 -4 -26 -44 0 -40 -17
-37 -34 5 -9 22 -16 47 -16 55 0 8 -9 24 -20 35 -19 19 -21 19 -26 3 -3 -10
-10 -29 -16 -43 -9 -24 -10 -24 -24 -5 -8 10 -14 33 -14 51 0 33 -20 58 -28
36 -6 -18 -22 -15 -22 4 0 9 8 29 17 45 22 38 10 47 -32 25 -29 -16 -37 -17
-50 -6 -11 9 -13 16 -5 24 16 16 12 26 -10 26 -15 0 -20 -7 -20 -25 0 -20 -5
-25 -26 -25 -19 0 -25 4 -20 15 3 8 3 22 0 30 -8 19 -34 20 -34 1 0 -26 -23
-30 -41 -8 -18 23 -49 30 -49 11 0 -6 14 -27 30 -46 27 -30 29 -39 24 -76 -7
-45 -61 -130 -78 -124 -6 2 -17 21 -24 43 -12 36 -35 64 -54 64 -15 0 -8 -43
9 -56 17 -12 17 -14 -5 -29 -35 -26 -62 -57 -62 -74 0 -8 -10 -29 -22 -47 -18
-26 -27 -32 -48 -27 -21 4 -30 -1 -43 -21 -18 -27 -22 -56 -8 -56 5 0 12 -12
15 -26 4 -15 36 -80 72 -145 35 -65 64 -122 64 -126 0 -5 19 -42 43 -83 46
-82 67 -140 67 -187 0 -21 7 -36 23 -46 28 -19 19 -29 -21 -21 -28 6 -37 19
-107 158 -42 83 -103 201 -136 261 -33 61 -71 135 -85 165 -80 170 -238 486
-248 492 -18 13 -20 11 -61 -64 -76 -136 -92 -163 -118 -202 -15 -21 -27 -48
-27 -60 0 -12 -14 -37 -31 -56 -17 -19 -41 -55 -52 -80 -12 -25 -48 -87 -82
-137 -92 -142 -119 -183 -130 -201 -5 -9 -41 -66 -80 -127 -38 -60 -77 -123
-85 -139 -29 -55 -54 -59 -370 -52 -537 11 -704 17 -840 28 -8 0 -17 4 -20 9
-7 10 -86 13 -130 6 -19 -4 -59 -9 -89 -12 -29 -3 -57 -8 -62 -11 -5 -3 -48
-4 -96 -3 -49 1 -144 1 -213 0 -140 -2 -136 -3 -200 79 -19 25 -37 47 -40 50
-3 3 -23 30 -45 60 -21 30 -54 70 -72 89 -18 19 -33 39 -33 44 0 6 -17 33 -38
61 -22 28 -46 65 -55 83 -9 17 -37 48 -61 67 -34 28 -46 47 -56 84 -6 26 -26
65 -44 87 -18 22 -45 60 -61 85 -15 25 -40 59 -55 75 -27 29 -44 56 -97 153
-13 24 -38 62 -55 85 -18 23 -34 43 -35 45 -5 10 -43 -21 -49 -40 -4 -13 -17
-36 -29 -53 -12 -16 -30 -49 -40 -73 -10 -24 -23 -46 -30 -50 -14 -9 -85 -97
-85 -106 0 -4 -13 -27 -30 -51 -17 -24 -30 -47 -30 -52 0 -5 -13 -24 -29 -43
-15 -19 -35 -48 -45 -65 -9 -16 -43 -68 -77 -115 -33 -47 -68 -96 -77 -110 -9
-14 -42 -58 -74 -97 -32 -40 -58 -75 -58 -79 0 -3 -6 -12 -12 -19 -7 -8 -31
-39 -53 -69 -34 -46 -44 -54 -65 -50 -14 3 -63 -8 -110 -24 -47 -16 -103 -34
-125 -40 -86 -23 -161 -44 -177 -49 -16 -5 -18 2 -18 55 0 57 2 62 33 85 17
13 66 36 107 52 41 15 89 34 105 41 17 7 44 16 60 20 17 4 35 10 40 14 6 3 28
12 51 18 39 11 104 62 104 81 0 5 -10 11 -22 13 -22 3 -22 4 -4 18 10 8 31 27
47 43 16 15 32 26 36 25 5 -2 22 6 38 15 21 13 43 46 75 110 35 73 123 197
160 227 3 3 28 37 54 77 54 82 66 136 30 141 -17 2 -21 -2 -22 -27 -1 -37 -8
-51 -28 -51 -23 0 -44 26 -44 53 0 32 -9 57 -21 57 -17 0 -68 -65 -69 -87 0
-13 -5 -23 -10 -23 -6 0 -14 -10 -19 -22 -5 -13 -17 -23 -27 -23 -12 0 -20 -8
-22 -23 -2 -12 -12 -27 -23 -32 -10 -6 -19 -21 -19 -34 0 -34 -10 -38 -31 -13
-18 22 -18 22 -33 2 -8 -11 -31 -53 -51 -93 -21 -40 -39 -71 -42 -69 -2 3 -5
31 -6 62 -2 46 1 61 19 78 57 57 94 111 94 135 0 15 12 50 26 78 23 45 33 55
73 69 93 33 134 56 174 101 23 26 51 50 62 55 11 5 27 14 37 21 24 17 48 -6
48 -47 0 -30 25 -65 46 -65 5 0 15 12 22 28 6 15 26 46 43 70 23 32 28 47 20
55 -6 6 -11 16 -11 23 0 15 57 26 78 15 9 -5 25 -5 39 2 29 13 22 47 -22 102
-17 22 -34 48 -38 58 -3 9 -15 17 -27 17 -15 0 -21 -9 -26 -39 -7 -43 -34 -60
-55 -35 -6 8 -22 14 -34 14 -26 0 -41 36 -23 57 8 10 8 24 -1 52 -15 51 -15
51 15 51 15 0 36 -12 53 -31 29 -31 61 -43 72 -26 11 17 -2 44 -26 55 -13 6
-31 23 -41 37 -10 15 -26 25 -39 25 -22 0 -45 34 -32 46 15 15 157 -55 157
-77 0 -17 24 -36 41 -32 9 3 27 -8 42 -26 14 -17 30 -31 36 -31 23 0 9 39 -25
71 -72 69 -94 94 -94 106 0 7 -10 18 -22 24 -30 16 -60 49 -75 82 -17 36 -16
47 2 47 9 0 15 9 15 21 l0 21 36 -21 c19 -12 41 -21 47 -21 7 0 29 -11 50 -25
20 -14 37 -22 37 -18 -1 13 -67 83 -79 83 -11 0 -13 5 -15 33 -1 14 -21 37
-32 37 -4 0 -13 -8 -20 -17 -12 -17 -14 -17 -32 2 -11 11 -29 28 -41 37 -22
19 -27 43 -11 53 19 12 10 35 -20 50 -31 16 -40 35 -16 35 7 0 25 -9 39 -20
14 -11 31 -20 39 -20 7 0 26 -12 42 -26 28 -27 69 -35 87 -17 8 8 -70 73 -90
73 -13 0 -53 48 -44 53 12 8 63 -4 63 -14 0 -5 9 -9 20 -9 11 0 23 -7 26 -15
4 -8 11 -15 17 -15 6 0 21 -10 34 -22 13 -12 23 -17 23 -12 0 19 -62 94 -78
95 -35 1 -54 8 -73 25 -18 16 -22 16 -79 -5 -48 -18 -64 -20 -75 -11 -19 16
-47 5 -44 -17 0 -10 1 -23 0 -29 -1 -15 -57 -38 -70 -29 -7 3 -11 -2 -11 -14
0 -12 -3 -21 -7 -21 -5 0 -23 -13 -42 -29 -19 -16 -47 -32 -62 -35 -21 -4 -29
-11 -29 -26 0 -29 -37 -77 -72 -91 -16 -6 -27 -17 -25 -23 5 -14 67 -21 67 -7
0 15 67 42 85 34 9 -3 21 0 29 6 9 8 22 8 46 -1 30 -10 35 -9 52 12 10 12 18
30 18 41 0 10 5 21 11 24 6 4 7 19 4 36 -5 22 -3 29 9 29 12 0 16 -11 16 -46
0 -32 4 -44 13 -42 6 3 13 14 15 26 6 37 30 25 43 -20 23 -83 27 -117 14 -128
-13 -10 -105 -7 -142 5 -17 5 -24 1 -35 -22 -10 -19 -20 -27 -35 -26 -15 2
-34 -12 -61 -42 -27 -31 -47 -45 -65 -45 -15 0 -33 -10 -45 -25 -11 -14 -24
-25 -29 -25 -13 0 -53 -44 -53 -58 0 -11 8 -14 55 -16 13 -1 19 -7 17 -18 -3
-18 27 -26 42 -11 10 10 99 43 104 39 2 -3 -3 -15 -11 -28 -8 -12 -18 -42 -22
-64 -4 -27 -17 -51 -36 -70 -30 -29 -38 -54 -17 -54 7 0 32 8 55 18 l43 17 0
60 c0 59 1 62 48 108 50 49 88 61 99 30 3 -10 15 -30 25 -45 25 -36 23 -80 -3
-96 -18 -11 -24 -11 -38 2 -13 12 -20 13 -29 4 -7 -7 -12 -9 -12 -5 0 12 -36
-25 -49 -50 -6 -13 -18 -23 -25 -23 -8 0 -21 -16 -30 -35 -9 -19 -22 -35 -28
-35 -6 0 -9 -16 -6 -40 3 -36 2 -39 -18 -34 -15 4 -26 -2 -38 -20 -9 -14 -25
-26 -35 -26 -10 0 -26 -11 -35 -25 -9 -14 -22 -25 -30 -25 -7 0 -21 -20 -30
-45 -10 -25 -21 -45 -26 -45 -4 0 -10 -11 -12 -25 -4 -19 -1 -25 13 -25 10 0
21 4 24 10 10 17 45 32 45 20 0 -9 -86 -100 -95 -100 -2 0 -2 8 0 18 1 9 -2
25 -6 34 -6 10 -5 19 2 24 7 4 9 22 4 50 -4 30 -1 52 10 73 9 18 11 31 5 31
-5 0 -10 -4 -10 -10 0 -5 -5 -10 -11 -10 -5 0 -8 4 -5 8 10 17 -25 52 -53 52
-16 0 -36 9 -47 21 -26 28 -73 52 -90 45 -11 -4 -14 1 -11 22 6 42 50 41 123
-2 65 -40 94 -45 94 -18 0 10 -8 25 -17 34 -33 32 -50 53 -63 77 -21 40 -53
69 -84 77 -27 6 -28 5 -24 -17 3 -13 9 -31 12 -40 5 -11 1 -18 -13 -22 -12 -3
-21 -2 -22 1 -7 42 -5 132 4 152 12 30 9 120 -5 137 -12 15 -2 33 19 33 8 0
32 -10 53 -21 37 -21 78 -17 62 6 -17 24 -91 74 -123 82 -42 12 -59 7 -59 -17
0 -23 -10 -30 -56 -36 -45 -5 -67 -22 -59 -42 3 -10 -6 -26 -25 -43 -16 -15
-30 -33 -30 -38 0 -14 2 -14 49 5 27 11 43 25 50 44 7 22 14 27 30 23 36 -9
44 -29 36 -88 -6 -50 -18 -66 -39 -52 -2 1 -15 -11 -27 -28 -13 -16 -31 -36
-41 -43 -24 -17 -23 -43 2 -75 11 -14 20 -30 20 -36 0 -19 26 -12 50 14 24 26
21 29 -28 25 -23 -2 -23 -1 -7 24 23 34 55 44 72 21 7 -11 9 -23 4 -29 -7 -10
-6 -68 2 -196 2 -31 -1 -35 -23 -38 -59 -6 -97 -22 -108 -47 -7 -14 -20 -25
-31 -25 -22 0 -28 -21 -21 -75 4 -31 7 -36 13 -21 4 10 10 16 14 13 3 -4 12
-2 20 5 22 18 26 2 7 -34 -10 -18 -17 -37 -16 -41 1 -4 -5 -10 -13 -13 -19 -8
-54 33 -55 64 0 12 -11 40 -25 62 -19 30 -35 42 -67 50 -42 12 -94 57 -100 88
-5 27 -33 20 -36 -10 -3 -26 -4 -26 -31 -10 -39 22 -58 75 -37 106 8 13 12 34
10 47 -4 16 -3 20 3 11 5 -7 34 -15 64 -19 59 -6 127 -36 136 -58 6 -17 33
-20 33 -4 0 5 5 7 10 4 6 -3 7 -23 4 -43 -5 -32 -2 -41 25 -66 l31 -30 6 30
c3 17 23 49 44 72 38 40 38 42 24 71 -8 17 -28 43 -45 58 -16 15 -48 54 -71
86 -23 31 -45 57 -48 57 -4 0 -12 -15 -18 -32 -9 -31 -10 -31 -11 -7 -2 39
-68 106 -113 113 -36 7 -38 8 -44 57 -5 39 -12 53 -28 59 -12 5 -17 9 -12 9 5
1 3 8 -4 16 -18 22 25 29 101 14 35 -6 80 -11 100 -10 26 1 45 -6 67 -24 28
-24 31 -24 36 -7 11 33 -33 101 -81 125 -18 10 -33 26 -35 38 -4 27 -34 33
-47 11 -8 -14 -12 -15 -22 -4 -7 6 -9 12 -4 12 6 0 -3 9 -20 20 -16 11 -37 18
-45 15 -11 -4 -16 5 -18 32 -2 37 -17 56 -38 49 -7 -3 -22 6 -34 19 -18 19
-22 32 -17 58 8 52 -33 78 -63 41 -12 -13 -15 -11 -26 15 -15 35 -38 33 -43
-2 -5 -42 7 -115 21 -123 11 -7 29 8 31 27 4 23 11 24 36 7 24 -17 21 -38 -6
-38 -14 0 -13 -4 5 -23 18 -19 21 -31 16 -56 -6 -30 -5 -33 13 -27 14 4 23 1
27 -9 3 -8 14 -15 24 -15 10 0 24 -11 30 -25 7 -16 23 -28 42 -31 38 -8 60
-32 40 -44 -10 -6 -25 -1 -45 14 -47 36 -91 56 -122 56 -16 0 -23 -3 -16 -8
32 -20 27 -104 -7 -95 -23 6 -33 43 -24 89 6 31 4 34 -18 34 -13 0 -34 -7 -47
-17 -20 -13 -27 -14 -44 -3 -18 11 -23 9 -39 -13 -17 -23 -22 -25 -45 -14 -20
9 -27 9 -30 0 -3 -7 -24 -21 -48 -33 -49 -24 -92 -61 -119 -102 -16 -24 -16
-29 -2 -51 16 -23 15 -25 -24 -56 -22 -17 -40 -37 -40 -44 0 -7 -25 -36 -55
-65 -30 -29 -55 -58 -55 -63 0 -6 -13 -24 -30 -42 -32 -35 -40 -81 -15 -91 17
-6 22 -1 68 69 19 28 43 51 53 53 10 2 33 10 51 18 17 8 39 14 50 14 31 0 93
48 93 72 0 21 82 95 113 102 45 11 57 -7 57 -84 0 -58 -3 -68 -19 -73 -11 -2
-25 0 -31 7 -10 8 -11 3 -6 -26 8 -45 -11 -52 -37 -15 l-16 22 -6 -21 c-8 -27
-56 -55 -62 -36 -3 6 -12 12 -20 12 -12 0 -14 -7 -8 -27 8 -32 8 -32 6 -56 -1
-14 -6 -17 -22 -12 -15 5 -25 1 -35 -14 -9 -12 -26 -21 -38 -21 -13 0 -29 -7
-36 -15 -7 -8 -24 -15 -39 -15 -19 -1 -35 -13 -61 -48 -19 -26 -39 -50 -44
-53 -5 -4 -6 -12 -2 -17 4 -8 21 -5 49 7 56 24 123 35 131 22 4 -6 -9 -27 -28
-48 -18 -21 -35 -42 -37 -48 -7 -24 -41 -74 -54 -79 -9 -3 -18 7 -25 29 -6 19
-22 40 -34 47 -13 7 -43 28 -67 46 -34 26 -50 32 -72 28 -22 -4 -35 1 -61 25
-18 16 -54 43 -79 59 -37 23 -46 35 -49 61 -3 32 -32 58 -81 75 -27 10 -16 39
16 42 19 2 43 -8 80 -34 29 -21 46 -30 39 -22 -7 9 -11 27 -8 42 10 57 -82
137 -157 134 -44 -2 -82 28 -90 71 -3 15 -31 52 -65 85 -32 31 -74 81 -93 110
-21 34 -49 61 -74 75 -58 30 -79 44 -88 59 -13 19 -43 14 -55 -10 -6 -13 -13
-48 -14 -78 -3 -52 -4 -55 -33 -61 -37 -7 -55 -1 -55 17 0 8 -8 27 -17 41 -23
34 -28 177 -6 169 19 -8 16 24 -6 58 -20 31 -18 56 5 56 8 0 14 -10 14 -22 0
-17 14 -31 48 -51 26 -16 57 -42 67 -58 11 -16 31 -32 45 -35 48 -11 96 -35
131 -68 19 -19 49 -37 66 -40 28 -6 32 -4 35 16 2 13 10 23 18 24 8 0 27 6 42
12 56 23 100 -5 102 -66 1 -23 10 -30 76 -58 87 -38 81 -36 99 -25 12 8 9 15
-15 39 -39 38 -84 94 -84 104 0 4 -9 8 -19 8 -11 0 -28 15 -41 34 -21 35 -50
40 -50 9 0 -14 -3 -13 -24 0 -22 15 -24 14 -36 -7 -12 -23 -12 -23 -69 33 -31
32 -68 65 -83 74 -25 15 -56 82 -45 94 3 3 27 -9 52 -26 36 -24 57 -31 96 -31
42 0 51 3 58 23 5 12 5 32 0 45 -12 31 -11 52 2 52 6 0 18 -18 26 -39 10 -26
27 -45 49 -57 19 -10 37 -26 40 -36 3 -10 21 -20 47 -25 36 -7 43 -13 47 -38
4 -20 13 -31 30 -36 22 -6 22 -7 -9 -8 -19 -1 -32 -3 -29 -6 3 -3 38 -2 77 1
l73 7 -6 31 c-4 16 -16 40 -28 53 -20 22 -20 23 -2 23 14 0 11 5 -15 23 -41
27 -131 117 -132 131 0 6 0 34 1 62 1 35 -3 54 -14 63 -9 8 -16 19 -16 25 0
13 -78 56 -101 56 -18 -1 -64 -40 -72 -62 -8 -22 -37 -13 -37 11 0 9 -5 22
-11 28 -13 13 -16 81 -5 105 6 13 -9 24 -78 58 -63 30 -86 46 -86 60 0 10 5
22 11 25 6 4 9 21 7 38 -3 34 -42 67 -78 67 -11 0 -20 4 -20 8 0 15 -58 42
-85 40 -36 -3 -49 -30 -34 -72 7 -19 9 -41 4 -52 -15 -35 -14 -48 10 -88 14
-24 27 -67 30 -101 7 -56 5 -61 -13 -62 -13 -1 -26 10 -38 32 -11 20 -33 41
-56 51 -41 18 -50 46 -21 62 20 12 10 42 -14 42 -28 1 -54 25 -47 44 3 9 10
16 15 16 26 0 43 83 21 102 -19 16 -95 40 -87 28 4 -7 -46 -22 -53 -16 -6 7
21 65 28 61 11 -7 24 59 17 79 -3 7 -20 16 -38 20 l-33 6 24 17 c14 9 29 23
33 30 4 7 15 13 24 13 12 0 13 -3 4 -13 -16 -20 -4 -27 44 -27 48 0 104 -21
150 -56 18 -13 39 -24 48 -24 10 0 25 -8 36 -19 23 -23 45 -28 160 -36 l94 -7
-7 33 c-3 19 -9 51 -12 72 -4 20 -12 37 -19 37 -17 0 -25 23 -25 66 0 62 -54
134 -100 134 -32 0 -50 32 -43 76 l5 29 -21 -25 -21 -25 0 23 c0 12 -4 22 -10
22 -5 0 -7 6 -4 14 11 29 -65 83 -108 77 -4 0 0 12 8 27 7 15 14 32 14 38 0 6
15 15 32 20 43 13 51 44 11 44 -16 0 -38 6 -48 14 -18 13 -18 15 3 57 19 38
20 46 8 55 -24 17 -46 86 -43 133 1 24 -3 46 -9 48 -14 5 -34 -40 -34 -78 0
-33 -22 -48 -45 -29 -35 29 -11 -11 32 -53 l46 -46 -25 -6 c-15 -4 -35 -2 -46
4 -30 16 -44 13 -40 -6 2 -10 10 -18 18 -18 9 0 16 -11 18 -26 4 -37 -22 -44
-47 -13 -13 16 -40 31 -71 39 -29 8 -62 25 -75 39 -13 14 -29 26 -35 26 -6 0
-8 10 -4 25 5 20 3 24 -10 19 -12 -4 -16 0 -16 15 0 12 -9 39 -20 60 -11 22
-22 58 -26 80 l-7 41 -391 -1 c-227 0 -383 -4 -371 -9 19 -8 19 -9 -2 -9 -24
-1 -33 -31 -10 -31 12 0 27 -10 75 -50 6 -6 12 -17 12 -25 0 -11 -20 -13 -107
-9 -134 5 -205 13 -220 22 -15 10 -33 57 -33 88 0 13 -4 24 -10 24 -7 0 -10
-520 -10 -1539z m388 1345 c26 -14 63 -44 82 -68 19 -23 57 -64 83 -91 l48
-48 20 25 c22 28 27 30 48 17 8 -5 11 -16 6 -30 -4 -12 -11 -18 -18 -14 -6 3
-1 -8 12 -25 12 -18 28 -33 34 -33 7 -1 33 -3 59 -5 39 -2 52 -9 82 -41 20
-21 43 -58 52 -83 24 -64 47 -85 112 -104 62 -17 72 -13 72 37 0 15 3 27 8 27
4 0 29 -25 56 -56 46 -52 47 -56 36 -84 l-12 -30 -72 6 c-39 4 -98 12 -130 20
-33 7 -63 11 -68 8 -32 -20 -98 33 -98 78 0 15 -4 28 -9 28 -5 0 -15 16 -21
35 -14 44 -85 92 -183 124 -37 13 -80 33 -95 45 -31 26 -65 45 -142 79 -30 14
-65 34 -77 46 -12 11 -41 27 -65 35 -24 9 -47 23 -53 33 -5 9 -22 30 -38 46
-15 16 -25 33 -21 38 3 5 59 9 125 9 107 0 125 -3 167 -24z m9951 -785 c8 -14
6 -27 -4 -48 -8 -17 -17 -54 -20 -84 -4 -37 -14 -64 -33 -88 -15 -19 -30 -39
-33 -44 -11 -16 -100 -28 -115 -16 -14 12 -54 3 -54 -12 0 -5 -11 -9 -25 -9
-18 0 -25 -5 -25 -19 0 -11 -11 -32 -24 -47 l-23 -28 -37 22 -37 22 -55 -52
c-30 -29 -54 -57 -54 -63 0 -6 23 -9 56 -6 56 3 57 3 52 -23 -6 -31 -4 -32 29
-6 25 20 73 28 73 12 0 -5 -19 -29 -41 -55 -40 -45 -64 -58 -71 -37 -5 15 -94
-31 -104 -54 -7 -15 -17 -20 -37 -18 -18 2 -27 -2 -27 -11 0 -8 -6 -25 -13
-38 -25 -47 -28 -51 -42 -39 -15 12 -75 -18 -113 -58 -32 -33 -22 -37 27 -11
32 17 51 20 83 15 57 -9 62 -15 36 -37 l-23 -19 23 -6 c32 -9 30 -52 -3 -60
-41 -10 -30 -27 13 -19 50 9 62 21 55 55 -4 24 -1 31 28 45 18 10 39 24 47 31
16 17 27 17 53 4 20 -11 23 -5 19 34 -1 10 3 15 8 12 13 -8 42 3 42 15 0 6 10
20 21 32 12 12 27 34 33 49 12 28 75 97 123 135 15 13 50 42 76 65 l49 42 -7
57 c-6 51 -4 59 17 79 40 38 123 6 99 -38 -6 -11 -11 -33 -11 -49 0 -29 -42
-128 -56 -134 -5 -2 -21 -18 -35 -36 -19 -23 -28 -48 -33 -94 -4 -34 -14 -75
-22 -91 -22 -43 -95 -143 -101 -140 -9 7 -61 -50 -74 -82 -7 -17 -25 -52 -40
-78 -15 -25 -25 -48 -23 -51 2 -2 -7 -16 -20 -30 -14 -15 -27 -34 -30 -44 -5
-17 -46 -43 -90 -57 -12 -4 -24 0 -32 11 -12 17 -13 16 -14 -4 0 -16 -8 -25
-25 -29 -27 -7 -40 -33 -30 -64 4 -14 1 -22 -10 -26 -9 -4 -21 -17 -26 -30 -4
-13 -13 -24 -19 -24 -13 0 -13 36 1 100 6 28 8 54 5 57 -8 9 -86 -69 -86 -87
0 -24 -21 -40 -39 -30 -12 6 -23 -1 -46 -31 -17 -23 -35 -37 -43 -34 -16 6
-57 -37 -84 -88 -11 -22 -25 -36 -31 -34 -49 21 -68 36 -81 64 -18 39 -61 69
-93 65 -13 -2 -23 1 -23 7 0 29 139 0 183 -38 17 -14 20 -14 33 4 14 19 19 50
15 94 -3 31 -38 60 -73 61 -16 0 -28 3 -28 8 0 17 -69 51 -117 58 -35 4 -53
11 -53 20 0 8 3 14 8 14 4 0 36 5 71 10 39 7 67 7 75 2 6 -6 30 -13 53 -17 31
-5 57 -20 93 -51 l49 -45 7 26 c4 18 2 30 -9 38 -20 15 -46 77 -40 95 6 17 30
15 37 -3 6 -17 32 -10 40 11 4 10 -15 36 -52 72 -78 77 -83 92 -32 92 27 0 40
-4 40 -14 0 -14 41 -46 60 -46 18 0 11 15 -36 68 -32 37 -41 52 -29 50 27 -5
29 19 3 34 -13 7 -45 20 -73 29 -50 16 -70 43 -44 60 14 9 79 -15 91 -34 5 -8
9 -6 14 6 3 10 12 16 19 15 24 -5 11 16 -23 40 -18 12 -36 22 -40 22 -12 0
-33 40 -27 50 4 6 12 10 20 10 7 0 24 14 36 31 12 17 31 41 43 54 11 12 35 43
53 67 24 35 41 48 76 58 25 6 50 9 56 6 14 -9 67 19 75 41 6 15 8 14 19 -7 16
-32 32 -35 56 -11 40 40 14 94 -49 104 -49 8 -54 75 -10 135 29 40 32 42 83
42 80 0 89 -13 62 -96 -8 -26 17 -39 45 -24 10 6 30 10 43 10 15 0 37 12 54
30 27 29 28 29 33 9 4 -18 10 -12 33 35 15 31 32 56 38 56 9 0 14 9 39 77 11
30 16 32 64 36 28 2 56 4 63 5 7 1 17 -7 22 -17z m-9834 -155 c28 -18 68 -37
90 -44 60 -18 115 -69 122 -114 5 -33 3 -38 -20 -43 -25 -7 -71 11 -115 46
-13 10 -36 21 -53 24 -16 4 -37 18 -46 31 -15 23 -15 26 3 39 18 13 18 14 -3
35 -13 11 -23 25 -23 30 0 6 -10 10 -23 10 -13 0 -32 7 -43 15 -39 29 59 3
111 -29z m8705 -71 c32 -18 112 -19 170 -1 41 12 47 12 73 -6 27 -19 27 -21
11 -39 -9 -10 -20 -16 -24 -14 -4 3 -19 -6 -34 -20 -21 -20 -26 -33 -26 -74 0
-43 -7 -62 -45 -123 -25 -40 -45 -82 -45 -93 0 -11 -5 -27 -10 -35 -8 -12 -13
-13 -30 -2 -28 17 -35 15 -49 -14 -11 -26 -12 -26 -32 -8 -15 13 -22 15 -31 6
-21 -21 -37 -13 -47 24 -5 20 -18 42 -28 49 -20 15 -19 16 55 35 23 6 42 14
42 18 0 18 -43 42 -75 42 -37 0 -85 18 -85 32 0 4 15 8 33 8 25 0 29 -3 17
-11 -11 -7 2 -9 45 -4 75 9 92 20 69 47 -13 14 -25 17 -51 12 -46 -9 -69 10
-50 40 10 14 11 29 6 44 -13 35 17 85 57 95 35 9 59 6 84 -8z m-8121 -192 c10
-10 32 -38 49 -63 42 -60 87 -110 101 -110 6 0 13 -11 17 -25 6 -26 20 -33 26
-14 2 7 12 -1 23 -17 10 -16 24 -33 32 -37 20 -12 54 -84 47 -102 -4 -8 -15
-20 -25 -26 -14 -7 -19 -21 -19 -54 0 -24 -4 -47 -10 -50 -5 -3 -10 0 -10 8 0
8 -8 21 -18 30 -10 9 -28 37 -41 62 -12 24 -26 47 -32 50 -5 4 -9 17 -9 31 0
13 -4 24 -10 24 -5 0 -10 8 -10 18 0 10 -9 27 -20 38 -11 10 -29 28 -40 38
-13 13 -20 32 -20 58 0 39 -22 94 -45 113 -17 14 -27 45 -14 45 5 0 18 -8 28
-17z m-423 -57 c19 -20 29 -48 44 -129 13 -73 26 -87 64 -69 27 12 56 -1 56
-26 0 -28 38 -82 58 -82 29 0 51 -49 46 -102 l-5 -46 45 -23 c42 -21 86 -57
84 -69 -3 -17 18 -56 41 -76 31 -27 77 -28 105 -2 11 10 28 18 38 18 22 0 24
-26 3 -34 -23 -8 -19 -63 5 -71 11 -3 29 -20 41 -37 l22 -31 -29 8 c-16 4 -50
8 -76 9 -25 0 -50 4 -54 9 -14 14 -34 7 -34 -13 0 -13 7 -20 20 -20 16 0 20
-7 20 -35 0 -20 -6 -38 -13 -41 -15 -5 -175 11 -183 19 -3 3 -11 37 -17 75 -7
39 -20 79 -29 89 -14 15 -16 31 -12 77 7 65 -2 129 -17 121 -5 -4 -9 7 -9 24
0 17 -8 38 -18 48 -10 10 -25 30 -34 44 -10 15 -39 37 -65 50 -26 12 -54 32
-62 43 -8 12 -31 37 -50 56 -60 59 -62 64 -50 98 7 20 7 42 1 65 -11 40 0 67
29 67 11 0 27 -6 35 -14z m10943 -117 c-8 -16 -8 -23 0 -29 8 -4 5 -12 -9 -25
-34 -31 -24 -38 40 -31 l60 7 0 -30 c0 -17 7 -34 16 -39 12 -7 15 -17 10 -38
-3 -16 -8 -35 -9 -42 -9 -37 -94 -44 -135 -11 l-27 21 -5 -24 c-5 -18 -17 -26
-64 -38 l-58 -15 4 -45 c4 -39 1 -48 -20 -64 -17 -13 -34 -17 -57 -13 -46 7
-58 -10 -59 -85 -2 -53 -5 -63 -29 -84 -34 -29 -57 -31 -57 -4 0 15 -7 20 -29
20 -35 0 -47 -14 -55 -65 -6 -37 -11 -42 -49 -56 -41 -14 -42 -15 -42 -59 0
-38 -3 -45 -20 -45 -11 0 -25 -11 -33 -27 -9 -19 -25 -31 -52 -38 -31 -8 -40
-16 -42 -33 -2 -40 -3 -43 -19 -68 -8 -13 -28 -50 -43 -81 -25 -52 -29 -57
-48 -47 -14 8 -18 17 -14 32 4 12 9 43 12 68 l6 46 -31 1 c-22 0 -34 -5 -39
-16 -3 -9 -14 -26 -24 -36 -10 -11 -18 -27 -18 -37 0 -23 -22 -40 -40 -29 -19
12 -30 3 -30 -24 0 -25 -27 -96 -36 -96 -3 0 -14 5 -24 10 -15 8 -17 16 -11
33 5 12 11 47 15 77 4 30 15 87 25 125 16 62 22 72 51 87 37 19 57 40 108 112
17 26 47 56 66 67 19 11 41 31 50 44 14 22 14 24 -10 40 -15 9 -45 18 -68 20
-57 3 -58 4 -51 15 3 6 26 10 49 10 27 0 48 6 56 15 7 9 16 12 19 7 3 -4 23
-18 44 -31 l37 -23 14 34 c15 34 9 51 -21 71 -7 4 -13 16 -13 27 0 10 -8 21
-17 23 -20 6 59 -2 92 -8 13 -3 37 9 65 34 37 32 45 45 45 72 0 29 7 38 47 64
26 17 56 43 67 57 12 15 39 30 65 37 52 13 220 101 194 101 -4 0 -4 10 1 22 5
15 18 23 41 26 18 2 49 9 69 17 51 18 53 18 40 -6z m-661 -45 c32 -22 28 -47
-22 -124 -24 -37 -46 -79 -48 -92 -2 -17 -18 -30 -60 -51 -32 -15 -58 -34 -58
-42 0 -9 -10 -15 -26 -15 -14 0 -23 4 -19 10 3 6 -3 10 -14 10 -11 0 -23 5
-26 10 -3 6 -15 10 -25 10 -10 0 -22 9 -25 20 -8 24 -53 28 -61 5 -9 -22 -41
-18 -58 7 -28 40 -14 108 23 108 10 0 26 9 36 20 26 29 134 25 150 -5 20 -39
69 -4 90 65 8 24 19 40 30 40 6 0 20 9 30 20 22 24 53 26 83 4z m-1983 -80
c20 -48 19 -67 -4 -95 -16 -19 -21 -21 -34 -11 -12 11 -19 11 -35 1 -16 -10
-23 -10 -36 0 -13 11 -17 11 -22 -3 -9 -24 -51 -20 -57 5 -3 12 -10 18 -15 15
-14 -9 -1 47 16 67 8 9 24 17 34 17 11 0 29 5 41 12 19 10 63 23 89 27 4 1 15
-15 23 -35z m-225 -85 c0 -5 -13 -15 -30 -20 -37 -13 -37 -19 -4 -48 27 -24
28 -38 1 -55 -12 -7 -21 -6 -34 7 -18 15 -20 15 -34 -1 -7 -9 -14 -22 -14 -28
0 -20 -38 -62 -52 -57 -7 3 -17 -5 -22 -20 -6 -15 -21 -27 -38 -31 -32 -9 -73
-43 -73 -63 0 -16 -12 -17 -28 -1 -9 9 -13 7 -19 -8 -4 -10 -21 -38 -37 -62
-25 -37 -33 -42 -55 -37 -14 4 -28 8 -29 10 -9 8 11 25 29 25 15 0 19 7 19 39
0 23 8 48 20 64 11 14 22 40 24 58 7 56 16 68 64 91 26 13 54 31 62 41 8 9 56
37 105 62 87 43 145 57 145 34z m541 -38 c30 -30 89 -152 89 -184 0 -20 -32
-3 -46 25 -9 18 -22 37 -28 44 -6 6 -19 21 -28 33 -10 12 -24 18 -33 15 -8 -4
-15 -1 -15 5 0 6 -11 11 -24 11 -13 0 -29 6 -35 14 -15 18 -31 73 -23 80 3 4
28 3 56 0 40 -6 59 -15 87 -43z m-361 -163 c12 -13 31 -40 41 -61 11 -21 38
-56 59 -79 22 -22 40 -46 40 -53 0 -8 8 -27 17 -44 15 -25 16 -32 5 -43 -11
-11 -16 -9 -28 6 -8 11 -14 28 -14 37 0 24 -27 49 -45 43 -11 -5 -15 2 -15 25
0 35 -7 39 -25 14 -14 -19 -37 -9 -28 12 8 23 -20 18 -35 -6 -12 -19 -15 -20
-31 -5 -21 19 -47 12 -54 -15 -7 -26 -33 -34 -61 -19 -14 7 -33 9 -46 5 -23
-7 -23 -6 -17 50 7 65 12 73 74 115 31 20 53 28 68 24 13 -3 26 -1 29 5 12 18
44 12 66 -11z m3030 -188 c13 -8 12 -17 -6 -69 -24 -66 -19 -81 28 -81 17 0
31 -7 38 -20 6 -12 22 -25 35 -30 13 -5 34 -28 46 -52 12 -23 32 -50 44 -60
12 -9 25 -31 28 -47 5 -23 15 -34 43 -46 32 -13 41 -13 81 0 24 8 56 15 71 15
15 0 35 9 45 20 9 11 26 20 37 20 12 0 31 6 43 14 12 7 59 16 104 19 68 5 81
4 79 -8 -1 -9 -8 -21 -14 -27 -7 -7 -12 -18 -12 -25 0 -8 -12 -13 -28 -13 -15
0 -32 -8 -38 -18 -6 -10 -33 -29 -60 -42 -27 -14 -57 -35 -67 -47 -9 -12 -33
-27 -52 -33 -19 -6 -35 -15 -35 -19 0 -13 -59 -41 -88 -41 -23 0 -32 6 -42 30
-7 16 -10 36 -7 44 3 8 -2 21 -11 29 -21 19 -131 9 -177 -16 -16 -9 -36 -17
-43 -17 -17 0 -84 -37 -94 -52 -4 -7 -8 -22 -8 -33 0 -14 -25 -37 -78 -72 -43
-29 -81 -53 -85 -53 -15 0 -35 57 -30 84 6 29 5 29 -30 23 -36 -6 -37 -6 -21
18 21 33 16 119 -8 123 -14 3 -18 -3 -18 -23 0 -30 -37 -85 -58 -85 -15 0 -35
-18 -44 -40 -3 -8 -20 -34 -37 -57 -24 -34 -37 -43 -60 -43 -17 0 -32 4 -35 9
-6 8 16 121 29 154 4 9 10 17 14 17 4 0 13 16 20 36 7 19 37 60 67 90 45 45
60 54 89 54 29 0 39 6 55 33 11 17 20 25 20 17 1 -20 28 15 42 53 5 15 14 27
19 27 5 0 9 6 9 13 1 19 42 63 76 81 37 18 63 74 42 88 -7 4 -25 8 -40 8 -44
0 -41 17 5 29 23 6 49 15 57 21 19 12 41 12 60 0z m-10212 -35 c17 -14 39 -25
50 -25 15 0 27 -12 40 -42 11 -24 43 -68 72 -98 54 -57 89 -119 90 -157 0 -37
-25 -27 -78 32 -44 48 -54 54 -79 49 -25 -5 -33 -1 -48 23 -10 15 -24 31 -30
35 -7 4 -10 19 -7 33 3 17 -2 33 -16 48 -11 12 -23 32 -27 45 -3 12 -17 33
-30 46 -13 13 -21 27 -18 30 14 14 53 4 81 -19z m8609 -1 c12 -3 25 -14 28
-24 3 -10 21 -34 40 -53 21 -22 35 -46 35 -61 0 -14 7 -44 16 -66 14 -35 14
-41 1 -55 -9 -8 -23 -15 -32 -15 -9 0 -29 -14 -45 -32 -22 -23 -32 -29 -42
-21 -7 6 -24 13 -38 15 -33 4 -37 38 -11 87 11 22 17 42 14 45 -13 13 -30 5
-43 -21 -23 -45 -62 -83 -87 -83 -13 0 -23 4 -23 8 0 15 24 32 47 32 16 0 23
6 23 19 0 28 -19 36 -35 15 -10 -14 -17 -16 -25 -8 -7 7 -5 16 10 29 26 23 26
45 0 45 -11 0 -20 5 -20 10 0 6 -10 10 -21 10 -17 0 -20 -5 -17 -25 5 -26 -5
-39 -32 -40 -10 0 -15 -10 -15 -30 0 -25 -5 -31 -35 -40 -19 -5 -42 -14 -50
-20 -8 -5 -23 -8 -32 -7 -10 2 -18 -3 -18 -10 0 -7 -7 -22 -15 -32 -12 -16
-17 -17 -29 -6 -13 10 -19 6 -36 -23 -16 -27 -29 -36 -58 -41 -32 -5 -39 -12
-54 -47 -13 -31 -15 -45 -6 -58 10 -17 12 -17 32 6 12 13 37 26 59 30 32 5 37
3 37 -15 0 -11 -19 -40 -42 -64 -68 -70 -68 -70 -140 -58 -34 6 -70 12 -79 13
-27 4 -49 28 -49 53 0 20 5 24 29 24 32 0 41 9 61 60 8 19 20 41 27 48 8 9 12
41 12 97 -2 87 9 119 36 108 20 -7 29 -67 16 -105 l-11 -32 26 25 c14 13 34
41 45 61 10 20 33 48 51 62 18 14 61 52 95 85 34 34 71 61 81 61 10 0 23 5 29
11 6 6 41 14 77 19 52 6 73 5 97 -7 29 -14 33 -14 57 5 31 24 30 24 59 16z
m-8892 -72 c45 -22 134 -105 135 -125 0 -15 41 -67 48 -63 4 2 24 -4 44 -14
20 -9 48 -15 61 -13 18 4 28 -1 36 -16 7 -11 45 -39 85 -61 41 -23 77 -47 80
-55 6 -17 36 -21 36 -5 0 6 7 10 15 10 18 0 20 31 3 49 -22 22 44 -11 72 -37
23 -20 25 -28 22 -92 -2 -64 0 -73 25 -105 15 -19 34 -35 41 -35 6 0 12 -7 12
-16 0 -35 -89 28 -90 64 0 9 -10 12 -27 10 -27 -3 -28 -5 -26 -60 1 -32 0 -58
-2 -58 -2 0 -12 16 -21 36 -9 19 -29 47 -44 62 -15 15 -29 39 -33 53 -6 25
-42 49 -72 49 -19 0 -19 -2 5 -45 11 -20 20 -41 20 -47 0 -6 18 -34 40 -63 29
-38 42 -65 47 -101 8 -61 25 -102 54 -133 25 -27 59 -137 59 -193 0 -20 7 -63
15 -95 24 -93 17 -163 -17 -163 -13 0 -55 92 -63 138 -4 23 -11 42 -16 42 -6
0 -8 4 -5 9 3 5 0 13 -7 18 -18 14 -74 16 -82 3 -5 -8 -13 -6 -26 6 -23 21
-24 33 -4 70 8 16 15 39 15 52 0 18 -6 22 -30 22 -16 0 -30 5 -30 10 0 6 5 10
11 10 11 0 38 29 39 41 0 3 -11 11 -25 17 -13 6 -31 27 -39 46 -11 26 -22 36
-48 41 -18 4 -38 12 -45 17 -8 6 -15 3 -22 -9 -9 -14 -10 -9 -5 24 5 35 3 43
-14 52 -11 6 -30 11 -41 11 -40 0 -22 78 21 92 8 3 7 17 -5 55 -9 29 -17 70
-17 93 0 61 -13 78 -57 77 -28 -2 -40 -8 -49 -25 -6 -13 -15 -23 -20 -23 -5 1
-17 -2 -26 -5 -10 -3 -27 0 -38 6 -17 9 -20 17 -14 45 3 19 0 49 -7 70 -11 29
-11 40 -1 56 17 27 0 82 -34 103 -19 13 -24 25 -24 56 0 29 -6 43 -25 58 l-25
20 42 -5 c24 -3 66 -17 93 -31z m1692 -62 c30 -34 32 -114 4 -130 -33 -17 -59
-11 -96 22 -30 25 -35 36 -30 57 11 51 27 79 48 89 24 11 38 4 74 -38z m-89
-392 c-3 -21 2 -24 45 -29 27 -3 51 -9 55 -15 4 -5 16 -11 27 -12 25 -5 55
-31 55 -49 0 -7 -11 -13 -25 -13 -17 0 -29 -8 -36 -24 -6 -13 -22 -29 -35 -35
-26 -12 -33 -41 -10 -41 10 0 17 -16 22 -47 6 -44 5 -48 -25 -75 l-32 -29 -30
32 c-31 33 -30 49 2 49 12 0 19 7 19 19 0 11 5 23 10 26 20 12 9 25 -20 25
-36 0 -65 44 -48 74 12 22 -2 39 -28 34 -32 -6 -30 -61 3 -93 l28 -27 -34 7
c-21 5 -31 4 -27 -3 6 -10 -30 -62 -43 -62 -4 0 -14 15 -22 33 -12 28 -19 32
-56 35 -42 3 -43 2 -43 -27 0 -17 -3 -30 -7 -29 -5 1 -34 -8 -66 -20 -31 -12
-67 -21 -80 -19 -16 1 -23 -4 -25 -20 -2 -13 -7 -23 -12 -23 -8 0 -110 -96
-110 -105 0 -8 -34 -45 -41 -45 -12 0 19 131 36 150 9 10 51 45 93 77 42 32
94 74 114 93 42 39 155 110 175 110 19 0 16 -17 -4 -29 -28 -15 -4 -32 32 -22
25 6 29 12 27 33 -2 18 4 31 19 42 13 8 20 18 16 22 -11 12 12 42 35 47 45 9
49 7 46 -15z m8196 -95 c-32 -44 -65 -75 -115 -108 -22 -15 -39 -35 -45 -57
-16 -56 -94 -76 -94 -23 0 46 -21 84 -50 90 -31 7 -50 45 -21 45 9 0 22 -9 28
-19 8 -12 34 -24 68 -32 51 -11 57 -11 78 7 20 18 77 48 85 44 2 0 13 12 25
27 12 15 25 30 29 31 5 2 8 10 8 17 0 12 20 26 29 19 1 -1 -9 -20 -25 -41z
m-1525 -40 c8 -15 13 -15 36 -5 30 14 94 16 114 3 9 -6 11 -15 6 -27 -5 -11
-7 -24 -7 -30 3 -17 -29 -41 -63 -47 -16 -3 -38 -9 -47 -12 -11 -4 -18 -3 -18
4 0 6 3 10 8 9 4 -1 21 6 37 15 l30 18 -35 -5 c-19 -3 -57 -10 -84 -16 -28 -6
-58 -8 -67 -5 -10 4 -41 -1 -69 -9 l-50 -15 0 25 c0 13 4 24 9 24 5 0 11 10
13 23 3 19 11 23 53 27 28 3 61 13 75 23 31 22 46 22 59 0z m-6275 -42 c19
-20 27 -37 23 -50 -2 -11 3 -32 13 -48 9 -16 22 -46 29 -68 7 -22 17 -49 22
-60 21 -46 58 -168 53 -176 -9 -15 -24 -10 -24 9 0 9 -6 27 -13 39 -74 131
-90 153 -112 159 -13 3 -28 3 -34 0 -16 -10 -29 25 -24 62 4 25 2 32 -11 32
-9 0 -21 -9 -28 -20 -15 -24 -28 -26 -28 -5 0 8 14 24 30 37 36 26 38 41 8 56
l-23 11 23 0 c20 1 24 6 21 27 -1 8 23 24 37 24 5 0 23 -13 38 -29z m-1340
-53 c9 -31 22 -61 30 -65 7 -4 23 -27 35 -51 12 -24 31 -52 41 -62 27 -27 26
-44 -2 -36 -13 3 -38 6 -55 6 -32 0 -33 1 -33 43 0 37 -5 49 -35 75 -49 45
-58 107 -22 147 16 18 22 10 41 -57z m1679 39 c23 -12 24 -15 11 -38 -20 -35
-18 -41 26 -97 38 -47 40 -54 40 -117 0 -41 -4 -64 -10 -60 -5 3 -10 16 -10
29 0 12 -14 43 -30 70 -27 42 -34 47 -62 44 -22 -2 -36 -11 -43 -25 l-11 -22
-25 28 c-13 15 -31 30 -39 34 -11 4 -5 14 25 41 22 19 46 33 53 31 7 -3 10 0
7 5 -3 6 -13 10 -20 10 -8 0 -13 6 -11 13 3 6 7 24 10 40 5 22 12 27 35 27 16
0 40 -6 54 -13z m-2649 -13 c23 -9 20 -54 -6 -81 -20 -21 -20 -26 -8 -63 7
-22 11 -42 8 -45 -3 -3 -24 -3 -47 1 -34 5 -41 10 -41 29 0 12 -7 28 -15 35
-23 19 -19 29 35 82 54 52 51 51 74 42z m8572 -69 c11 -9 42 -14 77 -15 49 0
58 -3 55 -17 -2 -9 -18 -21 -38 -26 -45 -11 -60 -24 -60 -51 0 -16 11 -27 35
-39 46 -22 65 -21 150 7 54 19 66 26 51 32 -15 6 -9 10 30 20 185 50 214 52
214 20 0 -11 -8 -13 -36 -9 -40 7 -107 -12 -143 -39 -13 -10 -31 -18 -39 -18
-17 0 -7 -14 11 -16 7 0 20 -2 29 -2 9 -1 18 -9 20 -18 2 -9 19 -22 38 -28 25
-8 35 -17 35 -31 0 -17 -8 -20 -49 -23 -44 -3 -48 -5 -41 -25 3 -12 7 -28 8
-36 3 -19 -95 -47 -150 -42 -7 1 -13 8 -13 17 0 12 4 14 13 6 6 -5 32 -7 57
-3 41 5 45 9 48 36 2 16 9 33 15 37 18 11 6 16 -63 27 -100 16 -108 15 -112
-16 -3 -24 -7 -28 -31 -25 -23 3 -30 -2 -42 -32 -8 -19 -15 -45 -15 -56 0 -11
-6 -20 -12 -20 -8 0 -5 -7 6 -15 19 -14 18 -15 -11 -15 -17 0 -42 -10 -59 -25
-16 -14 -32 -25 -36 -25 -4 0 -14 -15 -22 -34 -10 -23 -22 -35 -38 -38 -15 -2
-24 -11 -26 -25 -3 -19 1 -23 25 -24 15 0 37 -2 48 -4 11 -2 34 -6 52 -10 17
-3 34 -1 38 4 3 6 30 18 60 27 l55 18 39 -32 c22 -18 43 -32 46 -32 4 0 18 -9
32 -20 14 -11 36 -20 49 -20 19 0 24 -5 24 -25 0 -23 -4 -25 -47 -25 l-48 0
-24 -58 c-32 -76 -36 -78 -62 -48 -12 14 -33 26 -45 26 -13 0 -26 5 -30 11 -3
6 -19 9 -35 5 -33 -6 -41 3 -46 57 -4 49 -6 51 -30 38 -10 -5 -26 -12 -36 -15
-12 -4 -17 -14 -15 -32 3 -26 -1 -28 -66 -44 -54 -12 -71 -21 -77 -38 -6 -15
-17 -22 -34 -22 -20 0 -25 -5 -25 -23 0 -26 -39 -51 -64 -41 -17 6 -26 49 -26
119 0 93 65 162 170 180 35 6 54 15 31 15 -6 0 -16 11 -21 25 -11 29 -27 31
-76 10 -20 -8 -40 -12 -45 -9 -12 7 -2 66 14 81 18 16 169 93 203 102 19 5 32
17 38 34 13 36 -3 54 -34 37 -11 -6 -33 -9 -48 -5 -24 5 -29 1 -39 -25 -15
-39 -42 -39 -50 0 -3 17 -9 33 -13 35 -4 3 -29 -3 -54 -12 -36 -13 -48 -15
-58 -5 -18 18 25 59 102 96 53 25 77 31 133 31 63 0 70 2 82 25 22 38 18 50
-15 50 -21 0 -30 5 -30 16 0 14 8 16 60 10 50 -6 60 -4 60 8 0 23 -16 28 -80
27 -70 -1 -95 18 -58 43 28 20 88 21 114 1z m688 -190 c27 -8 65 -24 83 -35
23 -14 43 -18 64 -13 28 5 31 4 25 -15 -8 -26 21 -47 78 -57 21 -3 50 -14 63
-22 l24 -16 -22 -23 c-23 -25 -73 -33 -84 -14 -4 6 -7 24 -7 40 -1 26 -4 30
-28 28 -15 -1 -39 6 -54 15 -23 16 -36 17 -100 8 -40 -6 -80 -13 -89 -17 -9
-3 -17 -2 -17 3 0 11 91 43 121 43 10 0 20 4 23 8 5 9 -121 62 -148 62 -9 0
-16 5 -16 10 0 14 27 12 84 -5z m-9176 -164 c2 -23 12 -59 23 -78 14 -25 17
-39 10 -46 -6 -6 -11 -21 -11 -34 0 -19 -5 -23 -28 -23 -34 0 -52 16 -52 48 0
13 -11 37 -25 54 -26 30 -33 58 -15 58 6 0 15 11 21 24 11 24 46 47 64 42 6
-1 11 -22 13 -45z m8847 -88 c38 -12 59 -27 85 -61 65 -84 64 -80 51 -108 -10
-24 -12 -24 -33 -10 -34 24 -75 20 -94 -8 -18 -28 -44 -25 -37 5 7 24 -23 59
-48 59 -11 0 -26 14 -35 32 -9 18 -22 38 -30 45 -16 17 -54 17 -55 1 -1 -16
-28 42 -29 60 0 18 156 8 225 -15z m-7369 -10 c11 -2 26 2 33 10 25 31 101
-18 101 -65 0 -25 -13 -23 -48 7 -29 24 -59 34 -48 16 5 -8 -34 -41 -49 -41
-3 0 -5 9 -5 20 0 23 -31 41 -38 22 -2 -7 -23 -12 -47 -12 -24 0 -47 -4 -50
-10 -9 -15 -25 -12 -25 5 0 21 37 56 69 65 14 4 40 3 56 -3 17 -5 39 -11 51
-14z m-55 -122 l23 -18 -21 -22 c-17 -19 -25 -21 -41 -12 -28 15 -28 15 -42
-20 -16 -37 -65 -62 -92 -48 -23 12 -23 27 0 48 10 9 31 33 46 54 24 31 34 37
66 37 22 0 47 -8 61 -19z m7552 -337 c94 -45 119 -67 145 -127 23 -52 12 -157
-15 -157 -37 0 -90 42 -105 83 -14 39 -18 42 -59 47 -43 5 -44 6 -47 43 -2 28
-8 37 -21 37 -10 0 -24 7 -32 16 -12 14 -14 14 -26 -2 -7 -10 -13 -26 -13 -36
0 -32 -16 -19 -30 23 -14 41 -50 74 -50 45 0 -23 -29 -27 -41 -5 -8 15 -7 24
2 35 13 16 39 19 39 3 0 -5 5 -7 12 -3 43 27 184 26 241 -2z m-5346 -288 c-2
-128 1 -170 10 -173 10 -4 13 36 11 176 -1 100 1 183 3 185 2 1 18 -1 35 -5
l31 -9 -4 -107 c-2 -60 -8 -129 -12 -155 -5 -27 -4 -48 0 -48 5 0 9 -7 9 -15
0 -24 46 -41 65 -25 10 9 37 13 71 11 52 -2 54 -2 54 23 0 19 5 26 20 26 23 0
37 -23 46 -77 l6 -39 -106 1 c-59 1 -109 5 -112 8 -4 3 -20 3 -36 0 -18 -3
-33 -1 -37 5 -4 8 -54 14 -131 17 -103 4 -127 2 -141 -11 -16 -14 -18 -14 -24
7 -7 20 -11 21 -72 16 -58 -6 -64 -5 -52 9 12 14 63 45 74 44 3 0 25 0 50 0
l45 0 -5 140 c-3 77 -3 140 0 140 16 0 45 -22 40 -30 -3 -6 1 -7 10 -4 14 6
15 -9 14 -125 -1 -137 5 -161 42 -161 9 0 24 6 31 13 7 8 19 12 26 9 7 -2 12
6 12 24 0 27 -1 27 -16 8 -15 -19 -15 -18 -11 3 3 13 1 26 -4 29 -11 6 -12
107 -2 118 8 7 10 18 21 91 5 28 12 57 16 64 19 30 24 -19 23 -183z m3283 12
c0 -189 17 -208 21 -23 2 138 7 185 20 185 5 0 14 -12 20 -27 9 -22 8 -34 -5
-55 -8 -16 -11 -28 -6 -28 6 0 10 -17 10 -37 0 -21 3 -68 6 -104 6 -60 9 -67
33 -76 23 -8 19 -10 -38 -17 -46 -6 -65 -5 -71 4 -4 6 -11 10 -16 8 -10 -3
-18 274 -9 310 3 12 12 22 20 22 13 0 15 -26 15 -162z m-4190 139 c0 -8 -7
-29 -16 -47 -20 -38 -10 -63 25 -68 30 -5 37 -27 17 -57 -19 -29 -21 -55 -3
-56 6 0 21 -2 31 -4 20 -4 92 -8 114 -6 8 1 12 22 12 70 0 68 0 69 45 110 39
36 65 51 65 36 0 -2 -7 -25 -15 -49 -14 -41 -14 -51 1 -101 11 -41 13 -59 5
-69 -8 -9 -58 -15 -168 -20 -87 -4 -164 -11 -172 -16 -16 -8 97 -22 206 -24
38 -1 58 -5 61 -15 3 -10 -3 -12 -24 -7 -16 3 -76 8 -134 11 -58 3 -130 9
-160 13 l-55 7 4 130 c1 72 4 131 6 133 2 2 25 11 51 21 64 22 104 25 104 8z
m3731 -158 c1 -117 11 -235 18 -209 3 9 8 155 10 258 1 81 4 102 15 102 29 0
45 -70 21 -94 -9 -9 -12 -16 -7 -16 16 0 19 -69 5 -90 -8 -12 -9 -20 -3 -22 6
-2 14 -29 17 -61 5 -50 9 -58 30 -63 41 -11 12 -21 -74 -27 -90 -7 -92 -6 -88
58 2 22 4 100 5 172 1 113 4 134 18 142 9 5 20 7 24 3 4 -4 8 -73 9 -153z
m-812 -51 c-2 -144 23 -218 36 -108 l7 60 38 0 38 0 4 -62 c2 -35 4 -64 3 -65
-2 -9 -187 -5 -203 5 -12 8 -7 72 7 70 3 -1 17 4 31 10 24 10 24 11 3 11 -13
1 -23 4 -23 7 0 3 10 14 23 25 19 17 20 21 7 31 -18 15 -18 45 -2 76 23 41 32
23 31 -60z m3036 -26 c6 -4 27 -30 48 -58 28 -40 37 -61 37 -93 0 -23 5 -50
12 -61 10 -16 8 -25 -18 -57 -17 -21 -36 -48 -43 -60 -9 -17 -21 -23 -47 -23
-35 0 -38 3 -48 51 -4 19 -14 28 -36 33 -21 4 -34 14 -41 33 -6 15 -17 36 -26
45 -35 39 12 147 79 185 26 14 68 17 83 5z"/>
<path d="M9810 5261 c-19 -10 -52 -21 -72 -25 -20 -4 -47 -16 -60 -26 l-23
-20 52 4 c67 6 63 -19 -5 -29 -26 -4 -62 -13 -79 -20 -27 -12 -33 -20 -33 -44
0 -34 19 -41 41 -15 10 12 23 14 59 9 37 -5 55 -2 86 14 21 12 53 24 71 27 18
3 33 10 33 15 0 5 7 9 15 9 18 0 21 50 4 67 -9 9 -16 7 -28 -8 -10 -13 -22
-18 -34 -14 -25 10 -21 22 13 37 33 14 40 38 12 38 -9 0 -33 -8 -52 -19z"/>
<path d="M3047 6645 c-4 -8 -2 -36 2 -62 11 -55 8 -63 -19 -56 -14 4 -20 0
-20 -11 0 -9 6 -16 13 -16 7 0 21 -14 30 -30 16 -26 17 -35 6 -65 -12 -33 -29
-47 -29 -24 0 6 -6 17 -14 25 -8 7 -23 24 -33 37 -10 13 -30 30 -43 37 -25 13
-25 13 -7 -7 10 -11 19 -38 21 -59 3 -37 7 -40 52 -56 27 -10 50 -18 52 -18 1
0 2 9 2 19 0 28 43 71 71 71 29 0 56 16 46 26 -4 4 -25 2 -47 -5 -22 -6 -44
-10 -48 -7 -5 3 -7 36 -5 73 3 37 5 84 6 103 1 25 -3 35 -14 38 -9 2 -19 -4
-22 -13z"/>
<path d="M3260 6249 c0 -16 -60 -31 -134 -33 -40 -1 -43 -22 -7 -41 48 -24 41
-51 -12 -45 -26 2 -18 -34 8 -38 31 -6 40 -19 25 -37 -7 -8 -11 -16 -9 -18 38
-21 51 -26 62 -21 14 5 57 -43 57 -64 0 -8 22 -22 36 -22 13 0 1 31 -16 40
-11 6 -20 20 -20 30 0 11 -4 20 -10 20 -5 0 -10 6 -10 13 0 7 -11 23 -25 35
-24 21 -32 51 -18 65 3 4 15 -1 25 -10 19 -17 19 -16 13 10 -7 28 0 32 48 28
21 -3 21 3 1 34 -16 25 -16 25 12 25 19 1 35 9 46 24 l17 23 -45 -1 c-33 -1
-44 -5 -44 -17z"/>
<path d="M3050 6189 c0 -32 -3 -32 -58 -11 -12 4 -12 1 0 -17 9 -16 19 -20 36
-16 19 5 22 1 22 -25 0 -19 -6 -33 -16 -37 -13 -5 -13 -7 -2 -14 14 -9 19 -92
6 -104 -4 -4 -19 2 -35 13 -42 29 -96 44 -124 34 -13 -5 -41 -8 -61 -6 l-38 2
20 -27 c10 -15 26 -34 35 -41 8 -7 15 -23 15 -35 0 -19 -7 -24 -42 -30 -24 -4
-55 -8 -70 -9 -16 0 -26 -5 -23 -11 3 -5 8 -18 11 -27 8 -22 17 -22 55 -2 17
8 44 14 62 12 29 -3 30 -4 14 -20 -17 -16 -16 -18 4 -29 13 -7 42 -9 69 -6 35
4 54 1 77 -13 28 -17 31 -23 30 -72 0 -65 -9 -78 -57 -78 -55 0 -96 24 -104
61 -3 17 -10 28 -14 25 -5 -3 -31 3 -58 13 -56 21 -175 28 -157 10 7 -7 21
-12 32 -13 11 0 31 -17 44 -36 13 -19 30 -34 37 -32 24 6 61 -8 54 -20 -5 -8
2 -9 22 -4 46 12 48 12 52 -7 2 -10 -4 -19 -15 -23 -10 -3 -45 -18 -78 -34
-33 -16 -78 -31 -99 -34 -22 -3 -44 -12 -48 -21 -6 -9 -23 -15 -48 -15 -47 0
-62 -17 -23 -26 15 -3 33 -7 40 -9 6 -2 22 5 34 16 14 12 30 17 43 13 32 -10
33 -14 8 -34 -22 -18 -22 -19 -2 -25 28 -9 43 3 37 32 -6 31 24 52 75 51 20 0
41 3 46 6 14 8 31 -16 28 -39 -1 -10 -9 -21 -17 -23 -43 -14 -99 -44 -94 -52
8 -12 -39 -42 -62 -39 -17 2 -76 -19 -115 -41 -10 -6 -22 -10 -28 -10 -5 0
-19 -8 -29 -17 -11 -10 -27 -24 -35 -31 -9 -7 -16 -21 -16 -31 0 -16 4 -17 40
-8 49 14 68 1 51 -32 -19 -35 7 -26 45 16 33 36 35 37 40 15 4 -12 13 -22 20
-22 13 0 16 11 18 87 1 17 5 35 9 39 12 13 27 -18 21 -42 -6 -25 11 -40 29
-26 7 5 40 9 75 7 38 -2 62 2 62 8 0 5 11 25 25 43 29 38 32 59 9 68 -15 6
-15 8 -1 24 8 9 17 26 19 37 2 13 11 19 23 18 19 -1 19 -1 1 12 -21 16 -12 39
15 32 13 -4 21 3 28 24 5 16 15 29 20 29 18 0 43 61 38 90 -3 15 -3 53 0 84 6
62 23 80 50 53 18 -17 9 -57 -12 -57 -12 0 -12 -5 -3 -27 17 -40 46 -70 74
-77 20 -5 24 -13 24 -41 0 -33 27 -75 48 -75 5 0 17 -8 28 -17 18 -17 79 -43
101 -43 13 0 23 34 14 48 -3 5 -30 22 -58 38 -29 15 -53 34 -53 41 0 8 -12 13
-29 13 -35 0 -46 13 -26 30 8 7 15 19 15 26 0 8 5 14 10 14 14 0 62 -31 77
-50 9 -11 12 -11 13 -2 0 16 -22 55 -37 65 -15 10 -17 37 -3 37 6 0 10 -5 10
-11 0 -6 8 -8 19 -4 11 3 25 0 32 -8 17 -17 52 -10 45 9 -4 11 6 14 47 12 28
-2 53 1 55 7 6 18 -90 34 -198 31 l-108 -3 -33 46 c-33 44 -36 46 -92 49 -52
3 -57 1 -57 -18 0 -16 -6 -20 -30 -20 -32 0 -37 9 -19 27 17 17 2 33 -30 33
-35 0 -57 22 -38 38 7 6 23 9 35 6 13 -4 31 2 49 16 l28 22 5 -23 c6 -25 29
-38 32 -17 1 7 3 54 4 103 1 50 4 115 7 147 5 44 3 58 -9 62 -10 4 -14 -3 -14
-25z"/>
<path d="M4439 5974 c-1 -10 -3 -32 -5 -49 -2 -16 -4 -38 -5 -47 0 -10 -10
-23 -22 -29 -12 -7 -24 -15 -27 -19 -3 -3 -22 -19 -43 -34 -31 -24 -35 -31
-25 -43 9 -12 25 -14 65 -9 43 5 53 3 53 -8 0 -29 -41 -46 -96 -40 -45 6 -54
4 -73 -17 -23 -25 -24 -56 0 -51 8 2 29 6 47 9 43 7 42 -14 -2 -32 -18 -8 -46
-29 -61 -47 -15 -18 -41 -38 -56 -45 -35 -14 -40 -39 -6 -28 12 3 33 9 47 12
58 12 110 45 132 84 18 33 27 39 55 39 23 0 33 5 33 15 0 24 27 29 55 11 32
-21 44 -14 37 20 -5 25 -3 26 23 20 16 -4 40 -15 54 -25 62 -43 88 -25 29 20
-62 45 -74 49 -134 38 -31 -6 -59 -8 -62 -4 -3 3 -1 18 4 33 9 25 14 27 52 24
38 -3 43 -1 40 15 -2 15 3 18 30 15 30 -2 32 0 22 18 -6 11 -18 20 -28 20 -9
0 -32 9 -50 20 -42 26 -45 25 -40 -5 7 -34 -9 -42 -23 -12 -7 17 -8 31 -1 42
6 11 6 33 0 59 -10 47 -17 58 -19 30z"/>
<path d="M5143 5848 c-11 -17 -49 -38 -69 -38 -13 0 -84 -65 -84 -76 0 -2 18
-2 40 -1 46 2 48 1 52 -38 3 -30 2 -30 -39 -27 -24 2 -43 0 -43 -5 0 -9 36
-43 46 -43 3 0 12 -7 20 -15 42 -41 -28 -78 -158 -83 -21 -1 -38 -7 -38 -13 0
-7 11 -9 27 -6 15 3 36 1 45 -4 19 -10 25 -49 8 -49 -5 0 -10 -8 -10 -18 0
-11 -12 -22 -34 -30 -35 -13 -73 -48 -63 -58 4 -4 18 1 31 10 29 18 66 21 66
5 0 -5 5 -7 10 -4 6 3 10 18 10 32 0 23 58 102 82 112 20 7 45 -29 40 -59 -5
-33 -16 -39 -26 -14 -5 13 -10 12 -35 -8 -35 -27 -40 -58 -11 -65 22 -6 26
-18 9 -29 -6 -3 -15 0 -20 7 -6 11 -16 6 -42 -21 -19 -19 -47 -45 -63 -57 -16
-13 -40 -32 -54 -43 l-25 -20 28 12 c19 8 31 8 38 1 18 -18 95 19 133 62 28
33 37 38 48 27 19 -19 17 -107 -3 -127 -15 -15 -17 -15 -33 0 -15 15 -18 15
-47 -7 -17 -13 -44 -35 -61 -50 -16 -16 -33 -28 -37 -28 -15 0 -63 -59 -58
-72 4 -9 6 -7 6 5 1 9 6 17 11 17 15 0 12 -36 -5 -50 -40 -33 9 -41 68 -11 76
39 27 -36 -68 -104 -22 -16 -45 -35 -52 -43 -16 -20 0 -50 29 -54 18 -2 24
-11 26 -35 4 -41 24 -52 97 -54 59 -2 75 7 75 43 0 24 18 32 36 17 11 -9 14
-22 10 -45 -6 -28 -3 -32 19 -38 33 -8 45 -1 45 27 0 17 2 19 9 8 5 -8 7 -20
5 -26 -3 -8 9 -15 33 -18 62 -11 63 -9 28 48 -27 46 -32 61 -25 89 5 21 3 45
-6 65 -14 34 -7 39 29 20 30 -16 55 -49 62 -81 4 -18 18 -33 38 -43 18 -8 51
-33 75 -55 49 -46 62 -49 62 -17 0 23 -34 79 -82 135 -36 42 -38 65 -3 52 14
-5 27 -5 30 0 7 12 -102 103 -115 95 -9 -6 -11 0 -9 23 0 4 7 6 15 4 17 -4 19
39 2 56 -9 9 -8 12 4 12 8 0 21 -13 28 -29 6 -16 30 -43 52 -61 26 -21 36 -26
30 -14 -6 11 -17 37 -27 60 -9 22 -40 64 -69 92 -30 28 -56 62 -58 76 -6 30
-1 32 24 9 12 -10 18 -12 18 -4 0 19 -21 53 -52 85 -15 17 -28 36 -28 43 0 7
-4 13 -10 13 -5 0 -7 6 -4 14 3 8 -2 26 -11 39 -16 24 -15 25 4 20 11 -3 32
-17 46 -31 32 -32 71 -52 101 -52 12 0 26 -4 29 -10 3 -5 11 -10 17 -10 16 0
-38 54 -70 71 -15 7 -49 28 -76 46 -27 19 -59 36 -72 39 -14 4 -27 16 -30 30
-9 35 2 45 34 33 15 -6 43 -12 62 -14 19 -2 47 -7 63 -11 41 -10 32 7 -21 42
-35 23 -56 30 -76 27 -21 -4 -28 -1 -33 15 -2 11 -13 22 -24 25 -10 3 -19 12
-19 20 0 10 13 14 53 14 39 0 61 6 90 26 21 14 34 28 29 31 -4 2 -43 8 -86 12
l-78 7 6 27 c3 16 -1 36 -10 49 -15 21 -14 21 30 21 25 0 46 5 46 10 0 6 -4
10 -9 10 -5 0 -7 9 -4 20 6 22 -11 27 -24 8z m-70 -863 c1 -32 -5 -43 -36 -69
-20 -17 -37 -40 -37 -50 0 -21 -47 -76 -65 -76 -6 0 -18 -9 -28 -20 -9 -11
-23 -20 -30 -20 -20 0 -13 41 10 60 11 9 28 31 37 48 9 17 27 39 40 47 13 9
27 28 31 43 4 15 18 42 32 60 30 40 44 32 46 -23z"/>
<path d="M8090 5853 c0 -4 14 -16 30 -25 40 -23 38 -38 -4 -38 -18 0 -39 -7
-46 -15 -10 -13 -9 -15 8 -15 28 0 35 -15 17 -34 -14 -14 -14 -18 0 -39 20
-31 13 -49 -25 -65 -32 -14 -39 -36 -16 -45 17 -7 66 43 66 67 0 14 6 17 23
14 21 -4 22 -2 19 55 -3 36 1 69 9 84 11 20 10 26 -2 37 -17 16 -79 31 -79 19z"/>
<path d="M6488 5768 c-6 -18 3 -58 13 -58 5 0 9 -10 10 -22 0 -13 15 -35 34
-51 35 -29 55 -29 55 -1 0 11 6 13 19 9 14 -4 21 0 25 13 8 25 -2 52 -20 52
-8 0 -14 5 -14 10 0 13 1 13 39 -6 30 -15 34 -15 52 2 11 10 16 21 12 25 -12
12 -143 15 -151 4 -14 -19 -33 -15 -42 10 -10 27 -26 33 -32 13z"/>
<path d="M7510 5600 c0 -5 -9 -10 -20 -10 -11 0 -20 -6 -20 -14 0 -11 9 -13
35 -9 27 4 36 2 41 -11 8 -22 -3 -33 -18 -18 -15 15 -48 16 -48 2 0 -5 -9 -10
-20 -10 -36 0 -21 -17 20 -24 26 -4 54 -19 78 -40 25 -23 42 -32 51 -26 8 4
31 5 53 2 38 -5 40 -4 30 15 -13 24 -55 53 -77 53 -21 0 -47 26 -44 42 6 29
-13 58 -37 58 -13 0 -24 -4 -24 -10z"/>
<path d="M1922 5135 l-21 -24 40 -35 c35 -30 40 -39 38 -70 -2 -20 2 -41 9
-48 6 -6 12 -9 12 -5 0 4 9 -1 20 -11 11 -10 43 -24 71 -30 31 -7 61 -23 79
-40 27 -27 106 -59 117 -48 9 9 -18 36 -60 63 -21 13 -65 48 -97 78 -32 29
-67 58 -79 64 -12 7 -21 22 -21 34 0 25 -55 97 -74 97 -7 0 -22 -11 -34 -25z"/>
<path d="M0 2035 l0 -2035 1230 0 c754 0 1230 4 1230 9 0 5 -9 13 -20 16 -11
3 -25 15 -30 26 -6 10 -19 19 -29 19 -11 0 -21 6 -24 13 -3 7 -31 19 -63 26
-33 7 -69 17 -82 22 -13 5 -38 9 -57 9 -24 0 -35 5 -35 15 0 8 -6 15 -14 15
-8 0 -16 4 -18 9 -3 9 -39 18 -78 20 -8 1 -28 12 -44 26 -33 28 -42 31 -48 13
-3 -7 -11 1 -19 17 -9 17 -21 29 -27 27 -7 -1 -22 13 -33 32 -11 19 -26 37
-34 40 -8 3 -15 12 -15 21 0 8 -6 15 -12 16 -7 1 -2 5 12 9 l25 8 -24 1 c-12
1 -39 17 -58 36 l-36 36 6 75 c4 41 11 83 17 94 5 10 10 40 10 65 0 62 14 89
40 75 12 -7 27 -7 45 0 14 5 44 10 65 10 21 0 45 7 52 15 30 33 38 45 38 54 0
31 26 61 66 76 27 10 44 23 44 33 0 8 6 23 14 31 38 44 47 142 17 181 -18 22
-26 24 -86 22 l-66 -2 -24 53 c-14 28 -25 57 -25 64 0 20 -39 35 -73 29 -18
-3 -26 -3 -19 0 17 8 15 49 -4 65 -9 7 -27 37 -40 66 -22 48 -76 103 -102 103
-6 0 -20 16 -32 35 -17 28 -28 35 -49 33 -14 -1 -32 1 -38 5 -7 4 -35 5 -63 1
-46 -6 -50 -9 -50 -33 0 -19 -13 -39 -45 -69 -25 -23 -50 -42 -55 -42 -6 0
-10 -7 -10 -15 0 -8 -6 -25 -12 -36 -10 -17 -10 -23 0 -26 7 -3 12 -22 12 -44
0 -32 3 -39 20 -39 18 0 20 -7 20 -80 0 -73 2 -80 20 -80 11 0 20 -7 20 -15 0
-8 9 -15 20 -15 14 0 20 -7 20 -21 0 -12 -8 -23 -20 -26 -11 -3 -20 -9 -20
-14 0 -5 -20 -9 -45 -9 -25 0 -45 -4 -45 -10 0 -16 -17 -12 -55 13 -34 21 -35
24 -35 87 0 69 -13 106 -29 82 -14 -22 -21 11 -21 94 0 66 2 74 19 74 30 0 51
11 51 26 0 8 7 14 15 14 8 0 15 9 15 20 0 18 -7 20 -82 20 -46 0 -78 4 -72 8
6 4 15 22 19 40 5 23 12 32 27 32 20 0 20 4 13 72 -10 106 -45 145 -45 51 0
-33 -4 -43 -16 -43 -13 0 -15 -7 -9 -40 6 -38 6 -40 -19 -40 -19 0 -26 5 -26
20 0 11 7 20 15 20 8 0 15 9 15 20 0 11 -7 20 -15 20 -11 0 -16 12 -17 43 -1
23 -5 4 -8 -43 l-6 -85 -2 76 c-1 46 -8 89 -18 108 -18 35 -19 59 -8 204 4 69
3 97 -5 97 -7 0 -11 22 -11 59 0 32 -3 86 -6 120 -6 52 -10 61 -26 61 -16 0
-19 6 -17 38 1 20 1 74 0 120 -1 66 -4 82 -16 82 -8 0 -15 9 -15 20 0 12 7 20
16 20 13 0 15 7 10 31 -3 17 -6 44 -6 60 0 19 -5 29 -15 29 -11 0 -15 11 -15
40 0 33 -3 40 -20 40 -17 0 -20 7 -20 40 l0 40 -40 0 -40 0 0 40 0 40 -40 0
-40 0 0 40 0 40 -40 0 -40 0 0 80 0 80 30 0 c35 0 38 12 10 40 -24 24 -40 26
-40 5 0 -23 -41 -19 -47 5 -4 15 -14 20 -38 20 -46 0 -65 9 -65 31 0 10 -13
32 -30 47 -21 20 -30 39 -30 61 0 21 -5 31 -15 31 -10 0 -16 11 -17 33 0 17
-2 37 -3 42 -2 6 -3 24 -4 42 -1 27 -6 32 -31 38 -31 7 -31 7 -29 69 1 35 -4
84 -12 110 -13 46 -22 52 -72 47 -12 -2 -19 7 -23 28 -4 17 -13 31 -20 31 -8
0 -14 6 -14 14 0 8 -10 18 -22 22 -13 4 -26 12 -30 18 -6 8 -11 6 -18 -4 -8
-12 -10 -10 -11 10 -3 39 -4 43 -23 82 -16 33 -38 47 -73 48 -10 0 -13 -414
-13 -2035z"/>
<path d="M11794 4041 c-40 -10 -91 -49 -167 -128 -54 -57 -65 -64 -120 -74
-42 -9 -71 -22 -96 -43 -20 -18 -53 -44 -73 -59 -21 -15 -41 -39 -44 -53 -8
-30 12 -81 37 -95 11 -5 19 -14 19 -19 0 -18 -81 -91 -117 -107 -36 -15 -38
-14 -60 11 -35 41 -56 34 -77 -26 -40 -120 -35 -129 62 -104 33 9 90 16 127
16 77 0 153 22 183 53 148 156 241 242 278 259 12 6 26 18 30 28 5 10 28 40
51 67 36 42 107 168 126 224 4 11 -7 22 -39 37 -46 23 -68 25 -120 13z"/>
<path d="M12101 3493 c-24 -55 -55 -92 -94 -112 -18 -9 -23 -17 -16 -22 7 -4
-1 -10 -20 -14 -17 -3 -31 -10 -31 -15 0 -4 -13 -13 -29 -18 -16 -6 -34 -20
-41 -31 -6 -12 -18 -21 -26 -21 -9 0 -23 -18 -32 -39 -9 -22 -28 -45 -42 -51
-13 -6 -30 -20 -37 -30 -15 -21 -71 -40 -120 -40 -28 0 -33 -4 -33 -24 0 -13
7 -26 15 -30 12 -4 15 -23 15 -83 0 -75 1 -80 35 -118 37 -42 45 -79 20 -89
-8 -3 -15 -12 -15 -21 0 -8 -9 -15 -20 -15 -11 0 -20 -6 -20 -12 0 -9 -4 -8
-10 2 -5 8 -10 10 -10 4 0 -7 -11 -15 -25 -18 -14 -4 -23 -11 -20 -16 3 -6 1
-10 -5 -10 -6 0 -9 -4 -6 -9 4 -5 1 -11 -6 -13 -7 -3 -12 -21 -12 -40 0 -39
21 -64 81 -93 41 -20 45 -27 48 -89 3 -64 13 -109 31 -144 17 -32 11 -99 -14
-152 -11 -25 -15 -58 -13 -114 2 -76 1 -80 -30 -112 l-32 -33 5 -89 c5 -75 3
-92 -13 -110 -17 -22 -19 -22 -55 -7 -20 8 -45 15 -56 15 -26 0 -75 26 -126
68 -27 21 -61 38 -89 43 -41 8 -83 38 -83 60 0 4 -13 10 -30 14 -29 6 -30 7
-12 30 16 21 132 71 149 63 11 -4 23 61 32 172 10 112 3 126 -85 181 -30 19
-71 45 -91 58 -34 21 -68 33 -218 77 -64 19 -95 12 -95 -20 0 -20 9 -28 45
-41 39 -15 48 -25 71 -76 15 -33 31 -59 36 -59 4 0 8 -13 8 -29 0 -17 4 -32 9
-36 19 -11 41 -69 41 -107 0 -21 5 -38 11 -38 7 0 9 -13 5 -37 -4 -21 -8 -57
-10 -80 -3 -43 -23 -73 -51 -73 -18 0 -45 -23 -45 -38 0 -5 -7 -15 -15 -22
-15 -12 -11 -35 4 -25 5 2 7 -6 5 -18 -2 -12 -8 -51 -13 -87 -11 -74 -8 -135
8 -154 12 -14 17 -205 10 -391 -4 -104 -7 -125 -28 -158 -13 -22 -21 -46 -18
-58 6 -22 -23 -59 -45 -59 -7 0 -27 8 -44 18 -115 63 -149 107 -160 209 -7 61
-35 137 -60 163 -7 8 -25 29 -39 47 -14 18 -36 35 -48 39 -51 15 -94 73 -77
104 14 26 50 26 84 -1 21 -16 36 -20 63 -16 19 4 38 8 40 11 8 7 -40 65 -53
65 -14 1 -71 71 -104 126 -39 67 -79 104 -103 96 -35 -10 -87 -44 -87 -57 0
-6 -6 -16 -13 -22 -17 -15 -16 -164 2 -185 9 -11 11 -29 7 -50 -6 -30 -10 -34
-31 -29 -15 2 -25 0 -25 -7 0 -6 -17 -11 -39 -11 -23 0 -41 -5 -44 -12 -7 -22
4 -47 23 -53 16 -5 17 -10 8 -37 -8 -24 -8 -32 3 -39 10 -6 11 -11 3 -16 -6
-5 -17 -25 -23 -45 -9 -28 -18 -38 -34 -38 -12 0 -30 -7 -39 -14 -15 -11 -17
-28 -13 -137 2 -68 7 -144 10 -169 7 -56 8 -113 3 -260 -3 -109 -5 -117 -32
-152 -15 -21 -34 -38 -41 -38 -27 0 -105 119 -105 159 0 30 -147 320 -179 353
-16 17 -18 16 -49 -11 -22 -21 -32 -39 -32 -60 0 -16 -4 -32 -9 -35 -5 -3 -12
-30 -15 -60 -8 -63 -40 -104 -57 -73 -8 13 -23 17 -64 17 -58 0 -62 -4 -71
-72 -2 -17 -8 -36 -14 -42 -5 -5 -10 -18 -10 -27 0 -9 -10 -19 -24 -23 -13 -3
-35 -24 -50 -46 -24 -36 -26 -48 -25 -137 1 -105 8 -146 24 -141 17 5 22 -84
6 -110 l-13 -22 361 0 362 0 -7 58 c-8 74 -1 78 104 56 67 -13 91 -26 104 -53
2 -3 22 -18 45 -33 l43 -28 227 0 c126 1 248 6 273 12 25 5 73 12 108 15 34 3
62 8 62 13 0 5 -22 32 -48 62 -79 88 -89 128 -42 173 45 43 62 83 64 147 1 49
5 62 29 84 29 27 115 54 172 54 19 0 37 5 40 10 3 6 23 10 44 10 45 0 56 11
64 65 9 53 25 64 84 54 27 -4 68 -8 93 -8 25 -1 70 -10 100 -22 30 -11 66 -24
80 -29 75 -24 124 -70 101 -93 -6 -6 -11 -19 -11 -30 0 -10 -25 -44 -55 -76
-61 -65 -66 -84 -36 -153 22 -52 87 -108 167 -145 48 -22 65 -25 114 -20 35 4
60 3 62 -3 6 -18 52 34 77 85 14 28 38 62 54 76 19 17 25 29 18 33 -6 4 -11
25 -11 46 0 49 -16 84 -44 100 -25 13 -63 94 -58 124 5 24 52 96 63 96 5 0 9
7 9 15 0 8 11 25 25 37 28 24 31 47 11 86 -7 15 -13 45 -13 68 0 22 -6 50 -12
62 -6 11 -11 50 -11 85 0 45 -8 84 -25 128 -13 35 -24 60 -25 55 0 -6 -16 5
-35 24 l-34 33 -63 -17 c-35 -10 -74 -18 -87 -18 -17 0 -20 -3 -12 -11 19 -19
12 -36 -23 -52 -18 -9 -43 -25 -54 -35 -12 -11 -26 -20 -32 -20 -12 0 -40 -24
-40 -35 0 -3 -9 -15 -20 -27 -10 -11 -26 -36 -35 -54 -9 -19 -20 -34 -25 -34
-5 0 -18 19 -28 43 -10 23 -26 48 -35 56 -10 7 -17 19 -17 25 0 7 -24 23 -52
36 -29 14 -56 26 -60 28 -5 2 -8 -10 -8 -26 0 -35 -19 -46 -56 -32 -14 6 -33
10 -43 10 -35 0 -109 82 -131 145 -26 77 -26 85 8 85 19 0 43 15 80 50 51 48
86 62 107 41 6 -5 39 -14 75 -20 36 -6 80 -13 99 -17 23 -5 32 -3 27 4 -4 6 3
16 15 22 18 10 25 8 48 -18 32 -35 86 -55 121 -44 47 14 111 57 116 80 4 12
11 22 18 22 6 0 17 13 23 30 6 16 20 33 30 36 10 3 42 16 72 28 47 19 56 28
65 59 12 39 58 97 79 97 6 0 37 23 67 51 30 28 69 57 87 64 30 13 33 18 33 54
0 36 -4 43 -42 69 -24 16 -83 47 -132 71 -100 47 -105 52 -129 104 -10 20 -36
54 -58 75 -34 32 -41 45 -49 97 -4 33 -15 77 -24 97 -9 21 -16 52 -16 70 0 22
-3 28 -9 20 -9 -15 -24 65 -25 133 0 79 10 115 42 146 18 17 30 34 27 39 -2 4
11 22 30 40 19 19 35 38 35 42 0 18 155 158 176 158 5 0 23 14 40 31 16 17 52
46 80 64 69 46 76 57 72 108 -2 36 -11 53 -48 94 -25 27 -52 60 -61 73 -12 19
-23 23 -57 22 -29 -1 -41 2 -39 11 3 19 19 27 53 27 l32 0 -16 35 c-15 32 -20
35 -58 35 -40 0 -42 -2 -63 -47z m-2174 -3210 c4 -10 17 -32 31 -50 29 -39 26
-77 -5 -81 -23 -3 -63 -45 -63 -66 0 -24 -70 -54 -140 -59 -44 -3 -38 42 17
140 62 111 141 168 160 116z"/>
<path d="M1604 2222 c-34 -31 -109 -62 -153 -62 l-42 0 7 -100 c5 -72 4 -100
-5 -100 -6 0 -11 -9 -11 -20 0 -11 7 -20 15 -20 21 0 37 -47 30 -82 -7 -29 10
-62 25 -53 5 3 11 1 15 -5 3 -5 25 -7 49 -4 32 5 50 2 71 -12 29 -19 127 -23
208 -8 43 7 66 36 46 60 -8 10 -10 40 -5 103 4 55 3 92 -3 95 -5 4 -13 28 -17
54 -10 69 -19 82 -59 82 -19 0 -35 -4 -35 -10 0 -5 -11 -12 -24 -16 -13 -3
-27 -15 -31 -27 -7 -20 -8 -20 -12 7 -3 16 0 33 6 39 17 17 13 68 -6 83 -25
18 -46 17 -69 -4z"/>
<path d="M9282 1386 c-6 -13 -20 -27 -30 -31 -11 -3 -27 -17 -36 -30 -13 -19
-22 -23 -44 -19 -23 5 -36 -1 -65 -29 -20 -19 -37 -38 -37 -41 0 -20 57 -56
88 -56 12 0 46 26 78 60 32 33 63 60 70 60 24 0 38 29 26 55 -6 13 -8 25 -4
28 4 2 1 2 -5 1 -7 -2 -16 4 -21 12 -7 12 -10 10 -20 -10z"/>
<path d="M9485 1272 c-3 -3 -5 -15 -5 -27 0 -31 -24 -49 -55 -41 -21 5 -27 2
-35 -20 -8 -21 -13 -24 -24 -15 -10 9 -15 8 -19 -1 -6 -18 7 -50 32 -72 17
-15 23 -16 35 -7 8 7 19 10 24 7 6 -3 15 1 22 9 7 8 24 15 39 15 40 0 54 31
46 100 -6 52 -9 58 -30 58 -13 0 -27 -3 -30 -6z"/>
<path d="M8027 1233 c-13 -12 -7 -46 14 -90 l20 -42 47 5 c69 8 72 10 72 48 0
23 -8 44 -24 60 -27 30 -44 33 -61 9 -13 -17 -14 -17 -32 0 -22 19 -26 20 -36
10z"/>
<path d="M12779 1161 c-6 -18 -20 -32 -34 -35 -33 -8 -105 -85 -105 -112 0
-12 -6 -24 -14 -27 -14 -6 -16 -11 -39 -137 -8 -45 -28 -103 -50 -145 -20 -38
-37 -77 -37 -86 0 -49 -78 -119 -134 -119 -18 0 -30 -7 -37 -23 -8 -18 -3 -38
30 -108 22 -47 49 -93 60 -103 11 -10 18 -23 15 -28 -12 -19 19 -38 62 -38 23
0 45 -4 48 -9 3 -4 31 -14 63 -20 49 -11 65 -10 103 3 25 9 55 16 68 16 l22 0
0 500 c0 275 -2 500 -6 500 -3 0 -10 -13 -15 -29z"/>
<path d="M8206 911 c-13 -15 -23 -18 -30 -11 -5 5 -23 10 -38 10 -34 0 -47
-24 -29 -52 7 -11 22 -38 33 -60 25 -47 42 -56 67 -34 20 18 73 13 92 -10 6
-8 17 -14 24 -14 8 0 16 -6 19 -12 3 -9 9 -7 20 6 21 26 20 31 -9 44 -14 7
-29 20 -32 29 -4 10 -23 34 -42 53 -20 20 -41 44 -46 54 -10 17 -11 17 -29 -3z"/>
</g>
</svg>
