<?xml version="1.0" standalone="no"?>
<!DOCTYPE svg PUBLIC "-//W3C//DTD SVG 20010904//EN"
 "http://www.w3.org/TR/2001/REC-SVG-20010904/DTD/svg10.dtd">
<svg version="1.0" xmlns="http://www.w3.org/2000/svg"
 width="1280.000000pt" height="720.000000pt" viewBox="0 0 1280.000000 720.000000"
 preserveAspectRatio="xMidYMid meet">
<metadata>
Created by potrace 1.16, written by Peter Selinger 2001-2019
</metadata>
<g transform="translate(0.000000,720.000000) scale(0.100000,-0.100000)"
fill="#000000" stroke="none">
<path d="M1067 7193 c-4 -3 -7 -50 -7 -104 0 -108 -5 -130 -26 -122 -18 7 -18
5 5 -39 15 -31 17 -53 14 -140 -3 -57 -10 -106 -16 -110 -7 -4 -5 -12 6 -23
20 -19 20 -20 22 70 0 45 7 82 18 103 15 28 21 31 45 26 15 -4 36 -15 48 -25
11 -11 24 -16 27 -12 4 3 7 1 7 -6 0 -7 -9 -15 -20 -18 -26 -7 -26 -28 0 -46
11 -8 17 -16 14 -19 -3 -3 16 -4 43 -3 29 2 49 8 52 17 2 7 11 17 19 22 11 6
5 12 -25 26 -21 9 -52 29 -67 43 -15 14 -47 33 -71 42 -24 10 -48 28 -56 41
-15 29 -18 166 -5 237 7 38 6 47 -6 47 -8 0 -18 -3 -21 -7z"/>
<path d="M1303 7184 c15 -8 27 -21 27 -28 0 -8 17 -21 38 -29 39 -16 79 -52
65 -60 -4 -2 -32 -10 -61 -17 -48 -11 -82 -31 -82 -48 0 -4 17 -16 38 -27 20
-11 42 -24 48 -30 6 -5 23 -19 39 -30 72 -51 88 -70 77 -91 -15 -28 14 -74 64
-104 22 -13 63 -46 93 -72 57 -52 137 -98 170 -98 18 0 16 7 -21 70 -40 70
-64 90 -121 104 -16 4 -45 22 -64 41 -20 19 -43 35 -52 35 -11 0 -12 3 -5 8 7
4 19 24 27 44 14 34 14 38 -1 43 -9 3 -34 21 -54 40 -29 27 -38 43 -37 68 1
73 32 83 98 31 55 -42 64 -43 56 -3 -5 21 -4 29 3 25 22 -13 23 17 1 37 -15
14 -24 17 -27 9 -11 -33 -111 -1 -159 50 -9 9 -20 15 -24 12 -5 -3 -14 4 -21
16 -11 17 -23 20 -78 20 -63 -1 -64 -1 -37 -16z"/>
<path d="M2034 7175 c-3 -14 -4 -39 -1 -55 7 -34 -8 -42 -70 -39 -52 3 -63 -5
-63 -51 0 -52 -36 -94 -94 -109 -34 -8 -45 -16 -48 -35 -7 -34 1 -43 42 -49
19 -3 53 -12 75 -21 22 -8 58 -16 80 -16 64 -2 106 -28 138 -88 31 -57 44 -62
85 -32 39 29 96 36 126 16 21 -13 25 -25 28 -72 2 -42 8 -60 21 -68 13 -8 20
-8 25 0 9 15 64 26 78 16 16 -10 26 -60 14 -67 -19 -12 -10 -41 21 -64 17 -13
28 -25 26 -27 -3 -3 -35 2 -71 11 -98 22 -143 20 -157 -7 -25 -47 -55 -50
-101 -10 -18 16 -46 36 -63 44 -16 9 -48 25 -70 37 -46 25 -68 26 -85 6 -10
-12 -9 -20 4 -39 8 -14 24 -27 34 -30 21 -7 48 -56 32 -56 -10 0 -18 4 -71 31
-15 7 -59 8 -135 4 -100 -7 -115 -10 -132 -30 -19 -21 -19 -25 -5 -45 14 -20
21 -22 75 -16 52 6 64 4 102 -18 38 -22 51 -24 112 -19 59 5 73 3 93 -14 19
-15 22 -23 14 -39 -14 -27 23 -118 38 -92 11 19 60 32 89 23 17 -5 20 -15 20
-60 0 -41 4 -55 18 -60 23 -11 52 -6 79 11 33 21 56 17 87 -15 l28 -29 -24
-16 c-21 -14 -38 -14 -119 -6 -52 5 -111 12 -131 16 -32 5 -38 3 -38 -11 0 -9
-7 -23 -16 -32 -13 -13 -19 -14 -40 -3 -13 8 -24 17 -24 21 0 16 -45 49 -67
49 -29 0 -53 -45 -42 -80 15 -51 11 -59 -22 -55 -17 2 -39 11 -48 19 -25 23
-64 20 -121 -9 -27 -14 -59 -25 -70 -25 -27 0 -70 -22 -94 -49 -11 -12 -25
-21 -32 -21 -7 0 -19 -9 -26 -19 -7 -10 -34 -23 -58 -28 -37 -7 -56 -5 -110
15 -164 60 -206 68 -279 52 -31 -6 -66 -14 -79 -16 -12 -3 -31 -13 -41 -23
-11 -11 -22 -17 -24 -14 -3 2 -4 -7 -3 -22 4 -36 -20 -58 -56 -51 -19 4 -28 2
-26 -5 2 -6 7 -10 12 -9 16 3 35 -36 36 -71 0 -20 -7 -52 -15 -70 -8 -19 -14
-26 -15 -16 0 16 -1 16 -19 0 -11 -10 -26 -23 -34 -30 -8 -6 -61 -13 -126 -15
-85 -2 -115 -7 -124 -18 -7 -8 -36 -26 -64 -39 -29 -13 -55 -33 -59 -43 -3
-11 -29 -29 -57 -42 -29 -12 -58 -30 -66 -39 -7 -10 -25 -17 -40 -18 -40 -1
-84 -31 -106 -72 -15 -28 -30 -40 -60 -49 -22 -6 -48 -20 -58 -30 -10 -10 -29
-25 -42 -34 -25 -16 -25 -18 -25 -160 l0 -144 33 20 c52 32 68 37 142 45 65 7
73 10 106 47 41 44 101 67 124 48 8 -7 18 -9 24 -6 14 9 22 -21 8 -32 -7 -5
-33 -19 -59 -31 -27 -13 -48 -29 -48 -37 0 -8 -6 -14 -13 -14 -20 0 -57 -35
-57 -53 0 -9 -4 -19 -10 -22 -5 -3 -10 -19 -10 -36 0 -24 -4 -29 -25 -29 -17
0 -29 9 -40 29 -34 67 -90 44 -142 -60 l-32 -64 0 -891 -1 -891 25 5 c23 4 25
2 25 -36 0 -42 11 -52 54 -52 31 0 56 30 56 67 0 31 11 37 78 45 8 1 17 11 22
22 13 35 44 56 94 62 43 6 48 5 44 -12 -2 -10 -12 -20 -23 -23 -30 -5 -67 -33
-57 -43 5 -5 22 -10 38 -12 61 -9 67 -15 62 -68 -3 -28 -1 -48 5 -48 7 0 8
-67 4 -194 l-6 -194 39 -7 c28 -5 48 -1 75 12 l36 19 2 155 2 154 50 3 c100 5
95 -2 95 121 l0 109 43 0 c60 -1 70 7 53 40 -13 24 -12 30 6 52 19 24 20 24
34 5 8 -10 14 -36 14 -57 0 -21 4 -38 10 -38 20 0 139 53 135 60 -3 4 2 30 10
56 8 27 15 65 15 84 0 66 37 103 169 170 9 4 43 16 76 27 33 10 69 27 81 39
43 42 117 83 163 90 44 8 45 8 16 15 -25 5 -20 7 23 8 31 1 52 -3 52 -10 0 -6
-9 -8 -22 -4 -18 5 -20 4 -8 -4 13 -10 13 -12 0 -20 -63 -38 -108 -86 -113
-121 -2 -8 -6 -21 -11 -28 -9 -15 12 -102 24 -102 4 0 10 -12 13 -26 3 -18 -2
-33 -18 -50 -31 -33 -36 -30 -33 16 1 24 -4 46 -14 57 -9 10 -19 28 -23 41 -6
22 -10 23 -58 17 -32 -4 -65 -17 -86 -32 -33 -25 -33 -27 -27 -84 7 -56 6 -58
-29 -92 -19 -19 -35 -38 -35 -44 0 -11 -43 -33 -65 -33 -7 0 -16 -13 -20 -30
-4 -16 -11 -32 -16 -35 -5 -4 -9 -28 -9 -55 0 -59 -7 -80 -26 -73 -9 3 -18 -5
-24 -22 -6 -15 -19 -39 -30 -52 -11 -14 -17 -29 -14 -34 3 -5 1 -9 -5 -9 -5 0
-12 6 -14 13 -3 6 -6 3 -6 -7 -1 -11 -4 -16 -7 -13 -9 9 -64 -31 -64 -47 0
-15 -68 -145 -87 -168 -20 -22 -11 -34 31 -42 19 -4 37 -14 40 -22 9 -23 7
-233 -4 -433 -5 -96 -7 -178 -5 -181 3 -4 28 -3 57 1 46 7 59 15 98 57 l46 49
2 293 c2 298 4 316 39 303 7 -3 24 2 36 10 17 11 66 17 176 23 l153 7 -3 -64
-3 -64 67 -3 67 -3 0 29 c0 53 12 93 32 103 10 5 54 16 98 24 44 8 89 19 100
25 11 6 20 7 20 3 0 -4 14 8 30 27 16 19 30 41 30 48 0 10 8 12 29 7 21 -4 43
2 87 26 81 43 87 48 72 66 -21 26 -48 35 -64 23 -7 -7 -12 -16 -9 -20 4 -7
-45 -34 -50 -28 -1 2 -6 13 -9 26 -6 19 -4 22 17 22 16 0 26 7 30 19 5 21 60
49 120 61 36 7 37 7 39 -24 2 -48 -2 -71 -12 -74 -6 -2 -10 -9 -10 -14 0 -6 3
-8 7 -5 3 4 13 1 22 -7 9 -8 39 -23 66 -34 33 -13 55 -28 63 -46 9 -18 21 -26
38 -26 28 0 48 -37 31 -58 -7 -9 -6 -20 2 -38 9 -20 9 -25 -1 -22 -7 3 -15 15
-18 29 -3 13 -14 25 -24 27 -27 6 -87 -30 -81 -47 4 -11 -3 -13 -36 -8 -35 5
-45 2 -65 -18 -49 -49 -20 -105 54 -105 23 0 42 -4 42 -8 0 -5 18 -18 39 -30
49 -28 61 -59 33 -81 -11 -9 -22 -29 -26 -44 -4 -15 -11 -25 -15 -22 -5 3 -11
1 -13 -5 -1 -5 -16 -11 -33 -13 -16 -3 -24 -2 -17 0 6 2 12 8 12 13 0 5 3 15
6 24 5 13 -1 16 -30 16 -20 0 -36 -4 -36 -9 0 -6 -12 -6 -32 0 -42 12 -68 -11
-68 -58 0 -46 -14 -69 -50 -81 -17 -6 -30 -15 -29 -19 4 -21 -2 -43 -11 -43
-5 0 -19 9 -30 20 -12 12 -20 15 -20 8 0 -7 -7 -2 -16 10 -9 13 -26 22 -40 22
-39 0 -63 -36 -64 -95 -1 -51 -15 -82 -37 -79 -7 1 -14 2 -15 4 -2 1 -11 3
-20 5 -43 8 -80 -66 -93 -184 -3 -36 -13 -74 -21 -85 -22 -32 -17 -55 17 -75
19 -12 43 -44 65 -85 31 -62 34 -75 34 -157 0 -60 -4 -89 -11 -89 -7 0 -17 -7
-23 -16 -7 -9 -23 -16 -37 -15 -26 1 -51 0 -121 -2 -32 -1 -52 4 -65 16 -27
24 -53 21 -91 -12 -34 -29 -51 -74 -52 -136 0 -41 -12 -55 -46 -59 -16 -2 -32
-4 -36 -5 -5 0 -8 -12 -8 -25 0 -15 -7 -27 -19 -31 -25 -8 -61 -40 -61 -54 0
-6 -4 -11 -8 -11 -5 0 -17 -26 -27 -57 -24 -73 -30 -80 -65 -88 -18 -4 -32
-15 -36 -28 -3 -12 -21 -53 -39 -92 -53 -114 -65 -153 -65 -205 0 -49 1 -50
30 -50 17 0 30 5 30 10 0 6 4 10 9 10 6 0 31 14 57 32 45 30 47 31 61 12 9
-11 12 -30 9 -48 -6 -28 -67 -113 -93 -129 -7 -4 -13 -17 -13 -28 0 -23 -25
-65 -57 -96 -13 -12 -23 -34 -23 -48 l0 -25 1933 1 c1062 0 1926 3 1919 6 -6
2 -10 8 -7 13 3 4 -8 13 -23 19 -35 15 -104 76 -95 84 3 4 -3 7 -14 7 -12 0
-23 7 -27 15 -3 8 -23 18 -45 21 -61 10 -110 64 -57 64 16 0 26 7 29 21 7 27
-30 109 -49 109 -20 0 -74 60 -74 81 0 24 -94 129 -132 148 -15 8 -28 17 -28
21 0 3 -22 41 -50 85 -27 44 -50 87 -50 95 0 9 -12 22 -26 29 -14 6 -41 23
-59 37 -28 21 -35 35 -44 90 -12 67 -26 100 -49 119 -7 6 -10 18 -6 28 6 17
19 21 62 17 12 -1 22 3 22 8 0 5 9 19 19 31 11 13 22 28 24 34 2 8 18 2 43
-15 71 -49 136 -62 158 -32 10 13 16 12 51 -16 21 -17 43 -29 49 -27 16 5 19
53 4 79 -7 13 -13 25 -14 28 0 3 -8 22 -17 42 -10 21 -17 41 -17 45 0 4 -13
15 -29 25 -17 9 -31 26 -33 39 -4 31 -32 35 -60 10 -12 -12 -28 -21 -35 -21
-14 0 -11 23 12 118 12 49 12 52 -5 52 -18 0 -38 36 -26 47 3 4 -1 17 -10 31
-10 16 -14 35 -10 56 5 28 3 34 -19 44 -14 7 -30 12 -36 12 -14 0 -39 -64 -39
-100 0 -16 -3 -30 -7 -31 -41 -6 -80 -3 -81 5 -12 89 -33 116 -93 116 -19 0
-28 6 -32 23 -7 26 5 93 21 124 16 28 5 53 -22 53 -30 0 -74 -48 -82 -88 -4
-18 -11 -35 -15 -38 -5 -3 -9 -16 -9 -28 0 -13 -9 -34 -19 -47 l-19 -24 -11
40 c-6 22 -10 70 -9 107 1 50 -3 71 -16 83 -27 28 -16 58 23 66 41 9 64 30 55
52 -8 22 -67 23 -84 2 -8 -10 -30 -15 -62 -15 -33 0 -50 -5 -54 -14 -3 -8 -18
-18 -34 -21 -16 -3 -40 -17 -54 -30 -14 -13 -28 -20 -31 -15 -3 4 1 38 9 74 7
37 10 68 6 71 -15 9 -38 -6 -45 -28 -4 -15 -8 -18 -12 -9 -9 23 43 202 59 202
4 0 8 5 8 11 0 6 9 22 20 36 11 14 20 40 20 59 0 42 9 64 26 64 8 0 14 5 14
10 0 6 8 10 18 10 11 0 24 12 31 27 11 24 10 29 -8 44 -11 9 -30 14 -44 12
-14 -3 -29 2 -36 11 -8 9 -21 16 -31 16 -31 0 -124 -47 -152 -76 -30 -33 -36
-61 -24 -121 7 -37 4 -47 -21 -80 -15 -21 -32 -41 -37 -45 -5 -3 -6 -41 -1
-90 12 -131 11 -157 -9 -176 -16 -16 -18 -16 -37 11 -25 33 -51 35 -80 5 -18
-19 -21 -20 -15 -5 14 40 16 63 7 76 -7 11 -16 8 -45 -14 -20 -15 -36 -23 -36
-17 0 13 39 88 67 129 40 59 59 120 36 116 -7 -2 -13 4 -13 13 0 27 21 58 74
108 28 26 51 53 51 59 0 5 8 13 18 16 10 4 18 9 17 11 -1 3 3 18 9 33 15 39
14 54 -6 65 -14 9 -9 18 40 68 69 70 75 105 28 154 -53 56 -91 42 -107 -38
-12 -61 -74 -83 -74 -26 0 15 -8 33 -17 41 -17 13 -16 14 5 8 13 -4 22 -2 22
5 0 6 11 15 25 20 21 8 25 16 25 50 0 25 4 39 10 35 6 -3 10 0 10 7 0 20 24
68 33 68 5 0 33 -7 61 -15 37 -11 68 -30 102 -63 53 -51 97 -81 187 -127 31
-16 57 -32 57 -35 0 -12 47 -58 78 -75 17 -11 32 -24 33 -30 1 -5 2 -49 3 -96
1 -97 7 -107 80 -154 33 -21 48 -40 69 -88 15 -35 27 -82 28 -107 1 -62 20
-109 52 -128 26 -16 28 -16 52 11 34 35 63 35 76 -1 11 -33 49 -61 49 -37 0 9
9 15 21 15 18 0 20 -4 14 -22 -4 -13 -11 -84 -15 -158 -3 -74 -10 -142 -14
-152 -6 -12 -1 -18 24 -23 43 -9 147 4 161 21 7 9 9 47 5 121 -12 198 -16 233
-32 233 -8 0 -20 12 -26 26 -7 14 -25 32 -40 40 -16 8 -26 19 -22 25 3 6 -1
18 -9 27 -9 9 -17 31 -19 47 -2 22 -8 30 -23 31 -34 1 -75 14 -75 24 0 6 -13
10 -30 10 -21 0 -30 -5 -30 -16 0 -8 -5 -12 -11 -8 -7 4 -8 20 -5 43 18 100
18 111 1 137 -13 20 -15 32 -7 49 9 19 7 26 -11 42 -27 24 -57 36 -57 23 0 -6
-7 -10 -15 -10 -8 0 -16 -6 -17 -12 0 -7 -2 -17 -3 -23 -2 -5 -3 -14 -4 -20
-1 -5 -8 1 -15 14 -9 16 -11 34 -5 53 9 32 9 33 9 51 0 8 4 7 10 -3 8 -13 10
-12 10 3 0 10 -7 20 -15 23 -8 4 -15 14 -15 24 0 9 -7 31 -16 48 -17 35 -12
54 11 45 19 -7 19 10 -1 48 -8 17 -14 33 -11 35 7 7 37 -7 37 -18 0 -5 16 -27
36 -48 44 -46 52 -59 105 -175 11 -22 22 -39 26 -37 5 1 9 -8 11 -20 7 -57 33
-106 63 -119 17 -6 41 -29 54 -49 24 -38 94 -100 113 -100 16 0 25 123 18 239
-16 245 -18 393 -5 389 7 -2 16 -16 20 -31 8 -29 31 -57 48 -57 21 0 11 42
-18 73 -34 36 -33 43 10 52 36 8 38 6 45 -31 6 -37 47 -79 68 -71 24 10 20 61
-9 95 l-24 29 25 12 c39 18 72 14 85 -11 13 -23 4 -338 -9 -348 -4 -3 -8 -97
-9 -210 -2 -113 -9 -347 -18 -520 -8 -173 -16 -362 -18 -419 l-2 -105 55 3
c30 1 62 7 72 12 10 6 19 5 23 -1 7 -12 105 -14 105 -2 0 4 -5 13 -10 18 -20
20 -36 574 -23 792 l6 102 71 1 c39 0 80 4 91 9 13 6 -12 9 -73 9 l-93 1 3 91
3 92 70 19 c100 29 98 28 93 33 -2 3 -20 0 -39 -5 -18 -6 -55 -10 -81 -10
l-48 0 0 73 c0 98 3 100 75 78 115 -36 160 -68 140 -101 -3 -5 -1 -10 6 -10 7
0 33 -10 60 -23 42 -20 46 -25 42 -49 -6 -32 10 -37 38 -12 17 16 19 15 29
-11 5 -14 8 -30 5 -35 -7 -12 5 -40 18 -40 6 0 19 7 29 17 17 15 19 15 37 -1
28 -25 41 -12 41 39 0 46 8 59 28 46 9 -6 10 -18 4 -47 -11 -50 -5 -72 14 -47
12 16 13 8 14 -64 0 -85 6 -99 41 -88 l21 7 -21 22 c-24 26 -28 51 -6 42 8 -3
15 -1 15 5 0 27 43 -18 67 -70 16 -35 37 -64 54 -73 22 -13 29 -26 34 -65 10
-80 18 -98 44 -95 13 1 29 -2 35 -7 6 -4 23 -11 38 -15 15 -3 39 -22 54 -41
26 -35 64 -47 64 -22 0 8 -9 43 -19 78 -11 35 -22 81 -26 102 -6 37 -9 39 -54
40 -22 0 -23 2 -18 49 8 63 -15 126 -48 134 -25 6 -39 29 -29 46 3 5 12 7 20
4 10 -4 14 3 14 24 0 17 -4 30 -8 30 -4 0 -8 15 -9 34 -1 50 -7 54 -63 50 -28
-2 -50 1 -50 6 0 6 5 10 10 10 6 0 10 7 10 16 0 9 9 18 21 21 21 6 43 48 33
64 -3 5 -16 6 -29 3 -28 -7 -74 22 -75 48 0 9 -9 18 -22 20 -36 5 -32 25 6 30
20 2 37 -1 39 -6 2 -6 6 -6 10 1 10 16 -48 72 -65 62 -10 -6 -28 4 -58 32 -32
30 -45 37 -52 27 -5 -8 -6 -1 -3 17 6 37 -20 79 -35 55 -5 -8 -6 -19 -3 -25 3
-5 0 -3 -8 5 -8 8 -21 21 -29 28 -13 11 -11 12 11 7 21 -5 31 -1 47 19 19 24
26 26 103 26 53 0 101 6 131 17 43 15 48 15 72 0 14 -10 47 -20 73 -24 37 -4
58 -15 90 -44 38 -35 48 -39 97 -39 43 0 54 -3 52 -16 0 -9 7 -21 17 -28 13
-9 23 -7 45 6 66 42 71 43 108 23 19 -10 34 -24 34 -32 0 -7 9 -13 20 -13 15
0 20 7 20 24 0 14 -4 27 -9 30 -4 3 -14 26 -21 51 -14 50 -28 65 -41 44 -4 -7
-9 -11 -11 -9 -21 32 -28 57 -28 95 0 35 -4 45 -16 45 -14 0 -15 8 -9 55 7 62
-1 69 -33 25 -27 -36 -38 -38 -47 -9 -5 15 -2 25 9 31 18 10 22 43 6 53 -6 4
-6 12 2 24 12 19 4 86 -12 96 -5 3 -13 -8 -17 -24 -11 -43 -31 -26 -39 31 -6
44 -5 46 15 41 28 -7 41 25 18 42 -13 9 -15 21 -11 44 6 28 4 31 -17 30 -13
-1 -39 2 -58 6 l-34 8 6 -34 c4 -19 10 -47 13 -64 6 -28 5 -29 -8 -10 -7 11
-21 37 -31 58 -16 36 -16 38 3 57 26 26 35 66 20 85 -15 18 -39 3 -41 -24 0
-10 -2 -11 -6 -4 -2 7 4 25 16 41 11 16 23 40 26 54 6 24 4 27 -27 30 -27 2
-34 8 -36 28 -5 39 -32 91 -50 97 -34 13 -67 45 -67 66 0 15 -7 23 -22 25 -16
2 -23 -2 -23 -13 0 -15 -36 23 -95 100 -31 41 -45 54 -102 97 -30 23 -53 48
-53 58 0 10 -12 25 -27 33 -71 36 -166 89 -173 97 -3 3 -27 17 -55 31 -68 36
-146 53 -209 45 -29 -3 -55 -3 -58 -1 -3 3 -3 17 0 31 3 18 9 23 21 19 28 -12
211 -17 211 -6 0 5 -6 11 -12 14 -7 2 -10 8 -6 12 9 10 38 -19 38 -39 0 -19
11 -21 27 -5 13 13 33 4 33 -14 0 -7 9 -13 20 -14 31 -3 25 37 -10 70 -16 16
-30 35 -30 42 0 18 -29 47 -41 40 -5 -4 -9 -17 -9 -31 0 -14 -6 -24 -14 -24
-21 0 -56 62 -56 98 0 20 -7 35 -19 41 -10 6 -21 24 -25 41 -5 28 -9 31 -38
29 -19 -2 -44 5 -59 14 -22 15 -28 28 -33 78 -6 53 -11 63 -36 77 -16 9 -34
27 -39 39 -8 16 -19 23 -40 23 -56 0 -62 7 -55 65 6 52 6 54 -24 69 -17 9 -37
16 -45 16 -17 0 -29 50 -16 66 5 6 0 16 -13 25 -12 8 -28 22 -37 32 -8 9 -22
17 -30 17 -25 0 -81 41 -96 71 -15 29 -10 36 20 29 6 -2 28 -3 50 -4 42 -1
105 -29 105 -46 0 -6 9 -10 20 -10 28 0 26 6 -21 73 -47 67 -43 81 19 71 28
-4 51 -17 74 -41 33 -34 33 -35 33 -130 0 -83 3 -97 19 -107 36 -22 55 -41 58
-61 3 -17 -2 -20 -28 -18 -41 4 -48 -15 -18 -50 20 -24 25 -25 38 -12 20 20
39 19 61 -5 12 -14 28 -19 56 -17 21 1 39 5 39 9 0 4 24 -8 53 -27 66 -43 107
-65 107 -57 -1 14 -71 82 -85 82 -8 0 -15 4 -15 9 0 13 39 21 46 9 4 -7 9 -6
14 2 4 6 25 14 47 17 32 4 45 1 68 -19 27 -23 27 -26 14 -61 -15 -42 -13 -46
24 -49 18 -2 28 -9 32 -26 9 -37 -5 -47 -25 -17 -12 19 -19 23 -23 13 -5 -11
-7 -11 -15 0 -7 11 -11 8 -16 -12 -7 -27 8 -66 24 -66 6 0 10 -7 10 -15 0 -8
5 -15 10 -15 6 0 10 -6 10 -14 0 -8 11 -13 26 -13 35 0 51 -26 21 -33 -22 -6
-38 -50 -18 -50 19 0 12 -38 -9 -43 -27 -7 -37 -53 -15 -77 15 -16 15 -24 5
-55 -7 -20 -10 -38 -7 -41 9 -9 68 49 63 61 -3 9 4 11 31 5 38 -9 69 -36 75
-66 2 -13 12 -19 32 -19 19 -1 32 -7 36 -20 13 -34 77 -88 97 -83 13 4 28 -6
48 -33 16 -22 35 -39 42 -39 20 0 27 27 15 58 -6 15 -13 49 -17 75 -5 37 -12
50 -29 59 -13 5 -28 25 -34 44 -9 31 -8 35 11 46 32 16 36 26 32 90 -3 44 0
63 12 78 15 18 17 18 29 2 7 -9 11 -26 8 -38 -3 -12 6 -44 19 -72 18 -37 21
-52 12 -56 -30 -11 -28 -146 2 -146 8 0 17 9 20 20 6 22 33 28 33 7 0 -19 71
-77 94 -77 3 0 12 12 19 26 l14 26 36 -36 c47 -47 87 -50 87 -6 0 36 17 40 26
5 3 -14 28 -40 55 -60 27 -19 49 -39 49 -45 0 -16 37 -12 44 5 3 9 -8 31 -30
54 -26 30 -33 45 -29 63 5 19 -2 27 -40 50 -45 28 -58 54 -30 64 25 10 17 31
-16 48 -42 21 -66 6 -44 -28 17 -26 8 -43 -25 -47 -30 -4 -40 15 -10 19 24 4
26 26 5 65 -10 19 -12 43 -8 72 5 42 4 44 -23 51 -42 11 -94 67 -87 95 4 20 3
21 -7 9 -9 -12 -10 -8 -4 19 5 30 4 33 -12 29 -16 -4 -19 2 -22 37 -1 23 4 57
12 76 13 31 12 36 -4 56 -13 16 -20 19 -29 10 -8 -8 -11 -7 -11 6 0 9 -4 17
-9 17 -5 0 -7 8 -4 18 2 10 -3 31 -11 47 -9 17 -16 46 -16 67 0 37 -26 70 -99
126 -34 26 -43 59 -13 47 41 -17 50 -17 57 5 4 12 2 27 -4 33 -6 6 -11 22 -11
36 0 23 1 24 20 6 13 -12 20 -31 20 -54 0 -23 11 -52 30 -80 17 -24 30 -54 30
-67 0 -14 12 -31 31 -44 17 -13 28 -28 25 -36 -6 -16 41 -67 55 -59 5 4 9 17
9 31 0 25 14 32 26 13 3 -6 8 -32 9 -57 4 -60 12 -79 36 -85 13 -4 19 -14 19
-33 0 -49 67 -102 95 -75 6 5 33 11 62 13 46 4 52 3 57 -16 9 -35 7 -56 -7
-56 -15 0 -97 -87 -89 -95 7 -7 62 -6 89 1 12 3 24 13 26 23 3 9 5 5 6 -10 1
-28 -31 -69 -54 -69 -18 0 -19 -12 -4 -27 7 -7 1 -18 -20 -36 -20 -16 -29 -31
-25 -41 8 -20 11 -20 59 7 24 14 41 31 43 44 2 15 22 33 58 53 30 17 54 38 54
46 0 8 5 12 10 9 8 -5 8 -11 0 -20 -16 -20 25 -42 46 -24 11 9 14 8 14 -4 0
-8 3 -23 6 -32 5 -13 2 -15 -17 -10 -18 4 -35 -2 -61 -22 -46 -35 -47 -43 -5
-37 30 4 68 -9 56 -20 -3 -3 -36 -6 -74 -7 -67 -2 -105 -17 -105 -41 0 -6 -10
-18 -22 -28 -20 -16 -21 -21 -10 -44 7 -16 19 -27 30 -25 32 3 41 -1 36 -16
-4 -9 2 -16 18 -19 12 -2 59 -11 103 -20 129 -26 234 -16 270 24 16 17 15 21
-10 64 -15 26 -36 51 -47 57 -26 14 -7 28 28 21 14 -2 24 0 24 7 0 6 5 11 10
11 6 0 10 -11 10 -24 0 -21 16 -36 38 -36 4 0 13 14 21 32 11 24 11 33 3 36
-26 8 1 22 43 22 24 0 46 3 48 8 2 4 -1 27 -7 52 -13 53 -37 63 -55 24 -9 -20
-15 -24 -23 -16 -7 7 -18 12 -26 12 -11 0 -13 -10 -7 -46 6 -45 6 -46 -17 -39
-34 11 -75 47 -82 72 -9 31 -53 42 -70 17 -12 -16 -15 -16 -28 -3 -35 35 -22
79 23 79 10 0 19 5 19 10 0 6 -4 10 -10 10 -5 0 -10 7 -10 15 0 19 34 20 49 2
8 -10 7 -17 -2 -26 -9 -10 -8 -15 7 -27 11 -8 28 -14 39 -14 10 0 27 -5 38
-10 15 -9 26 -6 49 10 17 12 30 28 30 36 0 8 9 24 19 35 33 36 32 68 -3 100
-58 54 -156 103 -219 109 l-58 6 6 -28 c6 -25 4 -28 -19 -28 -31 0 -35 -13
-39 -134 l-2 -90 -34 87 c-18 47 -40 92 -47 98 -8 6 -14 18 -14 25 0 22 -27
16 -44 -8 -13 -18 -16 -19 -16 -5 0 29 -1 31 -16 55 -11 16 -12 27 -4 41 5 11
10 30 10 43 0 13 7 31 14 41 14 18 36 23 36 8 0 -14 52 -20 77 -8 16 7 33 7
57 0 36 -11 66 -1 66 22 0 17 41 8 53 -12 4 -7 13 -13 20 -13 7 0 23 -10 37
-22 101 -91 131 -106 144 -73 6 18 -66 95 -89 95 -17 0 -82 40 -112 71 -17 16
-23 34 -23 66 0 38 4 45 26 53 34 13 34 13 34 -15 0 -14 5 -25 10 -25 6 0 10
-13 10 -30 0 -20 5 -30 15 -30 8 0 15 4 15 9 0 5 17 16 38 25 20 9 47 23 59
32 20 14 22 14 28 -5 3 -12 10 -21 13 -21 21 0 50 34 56 63 7 37 47 80 89 96
22 8 27 8 28 -4 3 -32 4 -36 18 -44 17 -11 76 25 89 55 6 12 28 25 52 33 23 7
48 15 56 18 8 3 14 0 14 -6 0 -6 -7 -11 -15 -11 -8 0 -15 -6 -15 -14 0 -7 -7
-27 -15 -42 -14 -27 -14 -29 6 -32 12 -2 26 1 32 7 13 13 50 15 42 2 -11 -19
16 -22 41 -6 14 9 39 17 55 17 21 1 28 5 25 14 -3 8 3 18 12 23 14 8 15 13 5
30 -21 34 -15 55 18 70 17 7 33 21 37 30 9 25 19 28 70 20 31 -4 48 -3 51 4 2
6 14 20 26 31 12 12 34 40 49 64 20 32 33 42 52 42 18 0 25 4 21 14 -9 23 24
43 88 54 33 6 86 18 118 28 43 13 60 15 69 6 8 -8 7 -13 -8 -19 -28 -10 -107
-64 -121 -81 -15 -19 -17 -80 -3 -116 8 -21 5 -31 -16 -56 -14 -16 -22 -30
-17 -30 4 0 1 -5 -7 -10 -12 -8 -9 -10 13 -10 32 0 33 -4 7 -37 -11 -14 -20
-32 -20 -39 0 -7 -9 -15 -19 -19 -20 -6 -37 -35 -22 -35 5 0 11 3 13 8 4 9
138 62 159 62 28 0 111 60 105 75 -3 8 -1 15 3 15 5 0 11 -5 13 -10 2 -6 13
-1 26 10 12 12 20 26 16 31 -3 6 5 23 18 37 13 15 32 39 41 54 9 14 24 29 34
32 10 3 47 33 82 66 35 33 69 60 74 60 5 0 5 -6 -2 -13 -6 -8 -8 -16 -5 -19 3
-4 -15 -27 -40 -52 -25 -25 -46 -48 -46 -52 0 -3 -11 -15 -26 -26 -14 -11 -23
-23 -20 -25 3 -3 -7 -24 -21 -47 -18 -28 -26 -53 -24 -78 1 -21 -3 -38 -9 -38
-5 0 -10 14 -10 30 0 32 -13 38 -36 16 -7 -8 -18 -16 -24 -18 -6 -2 -12 -12
-14 -21 -1 -10 -7 -22 -12 -25 -5 -4 -17 -24 -26 -44 -12 -26 -24 -38 -38 -38
-11 0 -38 -11 -59 -24 -21 -14 -42 -22 -45 -18 -4 3 -10 1 -14 -5 -4 -6 -29
-17 -57 -25 l-49 -13 -1 -52 c0 -28 -3 -49 -7 -46 -5 2 -8 0 -8 -5 0 -5 -8
-12 -17 -14 -10 -3 -24 -17 -32 -32 -13 -24 -12 -30 7 -65 25 -45 27 -57 10
-94 -10 -21 -20 -27 -44 -27 -47 0 -151 -71 -163 -112 -8 -26 -9 -16 -5 46 7
92 -3 106 -50 73 -17 -12 -35 -27 -41 -33 -5 -7 -23 -15 -38 -18 -35 -8 -47
-38 -35 -89 11 -50 2 -64 -26 -39 -27 26 -70 19 -95 -17 -33 -47 -33 -64 0
-114 17 -25 28 -50 25 -55 -2 -4 4 -13 14 -20 23 -14 25 -12 50 72 23 73 36
85 121 116 64 24 59 23 59 5 0 -33 54 -3 115 62 29 31 62 38 73 16 34 -66 11
-126 -39 -103 -21 10 -29 6 -73 -35 -50 -47 -65 -52 -95 -35 -15 8 -26 1 -57
-34 -22 -23 -46 -45 -56 -49 -9 -3 -19 -19 -23 -36 -8 -38 -39 -58 -61 -40 -8
7 -14 8 -13 3 1 -5 -3 -22 -10 -39 -7 -16 -11 -46 -8 -67 4 -30 0 -40 -22 -60
-31 -27 -76 -54 -67 -39 4 5 2 12 -4 16 -5 3 -10 -3 -10 -13 0 -13 -10 -24
-29 -30 -23 -8 -31 -19 -36 -46 -5 -24 -11 -33 -21 -29 -10 4 -14 26 -14 89 0
83 0 84 -25 84 -15 0 -31 -10 -41 -26 -12 -17 -24 -24 -36 -21 -27 7 -33 -31
-14 -87 13 -37 14 -60 7 -104 -10 -66 -6 -80 18 -58 25 23 73 30 94 14 16 -12
16 -15 -3 -50 -11 -21 -20 -54 -20 -73 0 -33 -2 -35 -34 -35 -25 0 -36 -5 -40
-18 -4 -10 -19 -31 -36 -47 l-29 -28 -7 28 c-7 29 12 102 31 113 22 14 25 41
5 52 -30 16 -39 12 -48 -22 -12 -48 -38 -48 -51 -1 -6 21 -15 44 -20 52 -11
18 -31 5 -31 -20 0 -10 -5 -18 -12 -16 -6 1 -18 -11 -26 -27 l-14 -28 -23 26
c-33 38 -32 40 -37 -61 -2 -37 -9 -58 -26 -76 -20 -21 -22 -31 -16 -63 3 -22
10 -43 14 -49 17 -24 16 -62 -2 -74 -10 -6 -18 -20 -18 -30 0 -11 -4 -22 -9
-26 -5 -3 -12 -19 -16 -35 -9 -42 -25 -27 -25 24 0 43 -13 66 -38 66 -12 0
-14 -13 -10 -65 5 -62 5 -65 -17 -65 -28 0 -48 -24 -63 -75 -10 -36 -102 -145
-123 -145 -7 0 20 111 40 165 6 17 23 40 38 51 l25 22 -18 32 -19 32 -80 -7
c-44 -3 -110 -7 -147 -8 -36 -1 -69 -5 -73 -9 -4 -3 -8 -18 -9 -33 -3 -21 2
-29 22 -36 14 -5 36 -21 48 -34 13 -14 27 -25 32 -25 12 0 26 -105 27 -195 0
-52 5 -77 19 -98 22 -32 46 -117 46 -160 0 -27 2 -29 28 -22 15 3 34 12 42 20
8 7 35 23 60 36 51 26 128 29 285 10 92 -11 115 -15 245 -50 122 -33 141 -28
173 51 19 45 48 65 113 77 56 11 198 73 189 83 -4 4 -22 4 -41 1 l-34 -6 0 57
c0 70 12 96 40 89 26 -7 31 -15 35 -64 5 -50 11 -59 37 -59 25 0 101 78 128
130 10 19 38 50 63 69 31 22 51 48 62 77 l17 44 121 0 c137 0 168 5 160 26 -3
9 2 14 15 14 11 0 23 -7 26 -16 5 -14 17 -16 69 -11 55 6 130 -3 143 -16 14
-13 -22 -56 -56 -67 -21 -7 -50 -23 -65 -36 -15 -13 -43 -28 -63 -35 -31 -10
-37 -9 -48 6 -11 15 -11 24 2 54 8 20 23 43 34 53 25 21 25 28 0 28 -11 0 -20
-6 -20 -13 0 -7 -10 -19 -22 -27 -12 -8 -31 -24 -42 -35 -21 -20 -22 -20 -79
-2 -63 21 -87 14 -87 -25 0 -10 -4 -17 -9 -13 -22 13 -15 -41 8 -61 29 -27 23
-74 -10 -74 -20 0 -23 4 -33 53 -6 23 -10 26 -32 21 -14 -4 -36 -16 -49 -28
-12 -11 -39 -34 -59 -50 -20 -15 -44 -41 -53 -57 -10 -16 -23 -29 -30 -29 -6
0 -19 -15 -28 -34 -20 -41 -47 -60 -96 -70 -21 -3 -53 -17 -72 -30 -19 -13
-50 -27 -68 -31 -46 -10 -109 -43 -115 -60 -3 -8 -15 -17 -26 -21 -17 -5 -19
-12 -15 -41 4 -20 13 -43 22 -53 24 -27 18 -32 -32 -28 -48 3 -48 3 -53 -32
-6 -42 -36 -100 -60 -117 -10 -7 -25 -31 -34 -53 -9 -22 -19 -40 -24 -40 -4 0
-12 -13 -18 -28 -6 -16 -21 -31 -33 -35 -33 -8 -28 42 9 88 16 21 30 42 30 46
0 5 9 9 20 9 12 0 22 9 26 24 12 49 -14 58 -73 26 -20 -10 -40 -17 -45 -14 -5
3 -20 3 -34 0 -27 -7 -34 -43 -9 -52 8 -4 13 -10 10 -14 -3 -5 -1 -11 5 -15
17 -11 11 -23 -12 -27 -17 -2 -23 -10 -23 -28 0 -20 7 -27 33 -35 17 -5 32
-15 32 -22 0 -7 9 -29 21 -49 19 -34 19 -39 5 -69 -9 -18 -16 -38 -16 -44 0
-6 -11 -17 -25 -23 -14 -6 -25 -19 -25 -28 0 -9 -10 -29 -22 -43 -42 -46 -57
-69 -53 -81 2 -6 6 -24 10 -40 6 -27 8 -28 48 -23 24 3 51 9 60 13 20 7 23
-21 6 -60 -10 -22 -8 -30 15 -61 31 -41 47 -36 70 19 8 17 25 42 40 56 24 21
30 23 56 13 19 -7 32 -8 36 -1 3 5 17 13 30 18 31 12 41 53 20 85 -9 14 -24
25 -33 25 -18 0 -49 -33 -58 -61 -6 -19 -45 -27 -45 -9 0 6 -9 10 -20 10 -11
0 -20 -4 -20 -10 0 -16 -60 -12 -66 4 -3 8 6 36 20 63 20 36 26 62 26 109 0
37 5 66 13 72 7 6 40 14 73 17 54 6 64 5 82 -13 16 -16 27 -18 59 -12 27 4 46
3 57 -5 13 -10 14 -14 3 -18 -8 -3 -17 -15 -20 -26 -8 -33 20 -26 54 14 24 27
39 35 65 35 19 0 34 4 34 9 0 17 73 55 114 59 22 2 45 11 52 20 16 20 51 90
58 114 4 12 16 18 37 18 25 0 33 6 42 29 11 31 45 47 61 31 6 -6 14 -10 18
-10 13 0 9 20 -7 36 -22 22 -19 42 12 70 15 14 28 32 29 40 4 23 21 40 59 58
31 15 38 15 64 2 26 -14 30 -14 42 0 21 26 67 46 72 31 2 -6 -1 -19 -6 -29 -8
-12 -6 -23 7 -43 15 -23 20 -25 34 -13 48 38 89 48 98 24 5 -13 40 -15 94 -5
8 1 30 1 48 1 31 -2 32 -4 32 -44 0 -37 -4 -45 -27 -56 -15 -6 -41 -12 -57
-12 -26 1 -28 2 -13 11 23 14 22 23 -10 56 -24 26 -26 26 -21 6 7 -28 -14 -47
-41 -38 -31 10 -48 -5 -22 -19 21 -12 21 -13 3 -29 -10 -9 -36 -23 -57 -30
-21 -8 -42 -20 -45 -28 -4 -8 -12 -24 -18 -36 -27 -51 -19 -57 94 -73 100 -14
116 -20 100 -43 -10 -12 -32 -19 -84 -22 -80 -6 -122 6 -166 50 -15 15 -30 25
-33 21 -15 -14 61 -74 110 -87 18 -4 58 -14 91 -22 32 -8 62 -20 66 -27 6 -9
14 -8 34 5 37 24 97 36 114 23 10 -9 12 -71 10 -305 l-3 -293 -22 0 c-13 0
-24 8 -28 21 -7 20 -8 20 -24 5 -10 -11 -12 -19 -6 -24 6 -4 23 -26 38 -49 55
-80 136 -146 252 -204 61 -31 130 -61 155 -68 25 -8 54 -17 65 -21 11 -4 43
-15 70 -23 28 -9 42 -16 33 -16 -10 -1 -18 -5 -18 -10 0 -5 -10 -7 -22 -5 -21
4 -21 4 -3 -4 l20 -9 -20 -5 c-19 -5 -19 -6 2 -7 12 0 23 4 25 11 2 6 31 13
64 16 32 2 65 9 72 15 14 11 29 13 153 23 97 8 199 -2 199 -19 0 -6 9 -21 21
-33 18 -19 22 -43 31 -186 6 -90 8 -177 4 -192 -6 -26 -9 -28 -44 -21 -47 9
-85 28 -130 69 -38 34 -72 51 -72 38 0 -15 50 -75 77 -94 16 -11 57 -34 93
-53 36 -18 71 -43 78 -55 10 -17 12 -58 7 -184 -8 -206 -8 -206 -46 -206 -16
0 -44 7 -62 17 -18 9 -68 20 -113 24 -87 8 -138 28 -213 85 -24 19 -50 34 -58
34 -8 0 -12 4 -8 9 3 5 -4 12 -15 16 -11 4 -26 18 -34 33 -31 59 -88 105 -69
56 10 -26 -28 -14 -58 18 -16 18 -29 35 -29 39 0 8 -97 109 -105 109 -13 0 -3
-29 15 -45 11 -10 20 -22 20 -27 0 -23 174 -218 195 -218 8 0 29 -13 47 -29
37 -32 177 -113 253 -146 28 -12 70 -25 94 -29 56 -9 141 -55 141 -78 0 -9 5
-18 11 -20 12 -4 30 -248 22 -292 l-5 -26 254 0 255 0 6 121 c5 79 3 126 -3
134 -12 14 -29 225 -30 358 l0 87 54 0 c80 0 102 -11 112 -57 4 -21 6 -174 5
-340 l-3 -303 206 0 206 0 0 29 c0 16 -4 31 -10 33 -5 1 -12 64 -16 138 -3 74
-12 203 -20 286 -9 90 -17 316 -20 553 l-5 401 36 21 c23 14 35 28 35 43 0 24
-28 56 -48 56 -15 0 -32 33 -32 62 0 13 -7 34 -17 47 l-16 24 42 -7 c23 -3 85
-26 136 -49 100 -45 105 -50 105 -125 0 -79 53 -142 139 -167 74 -21 141 -55
141 -70 0 -18 28 -39 68 -50 36 -10 56 -35 29 -35 -8 0 -32 -14 -53 -31 l-39
-31 -27 33 c-16 18 -28 37 -28 41 0 4 -18 17 -40 28 l-39 20 -12 -21 c-6 -13
-9 -42 -6 -68 4 -38 12 -52 43 -79 46 -40 74 -48 116 -33 22 8 34 8 36 1 2 -5
9 -10 16 -10 7 0 23 -12 37 -26 32 -34 71 -54 109 -54 40 0 39 11 -10 107 -47
91 -51 141 -12 158 15 6 21 16 18 27 -3 15 -1 16 17 7 12 -7 37 -27 54 -45 18
-19 40 -34 49 -34 9 0 43 -26 75 -58 89 -88 148 -118 186 -94 19 12 -79 100
-136 123 -8 3 -15 15 -16 27 -1 17 4 22 24 22 15 0 38 -8 51 -17 14 -10 36
-19 50 -20 24 -2 24 -2 -2 8 -37 14 -37 45 0 52 15 4 34 11 42 16 24 16 -17
40 -69 41 -25 0 -58 4 -75 9 -17 5 -50 15 -73 22 -25 7 -45 20 -48 30 -7 22 1
39 19 39 20 0 40 27 26 35 -5 3 -10 13 -10 21 0 27 -47 61 -160 114 -171 81
-200 95 -200 102 0 4 26 7 58 7 134 -1 141 5 82 65 -48 49 -106 77 -155 75
-64 -2 -119 15 -168 51 -27 21 -66 40 -86 44 -32 5 -81 32 -201 112 -20 13
-55 44 -78 68 -35 37 -42 51 -42 84 0 22 7 56 15 75 21 50 19 93 -4 109 -23
16 -27 39 -17 98 13 79 14 81 53 78 35 -2 35 -2 14 -19 -26 -21 -27 -29 -2
-29 33 0 51 -11 51 -31 0 -10 -4 -19 -10 -19 -18 0 -11 -18 9 -23 16 -4 18
-10 12 -33 -6 -24 -13 -29 -39 -30 -42 0 -49 -10 -20 -25 12 -7 28 -18 33 -26
10 -13 62 -25 98 -23 32 2 87 1 122 -1 l34 -2 3 -130 c3 -127 4 -130 29 -149
27 -21 133 -50 143 -40 3 3 0 12 -6 20 -8 9 -15 82 -20 205 -4 106 -10 229
-13 275 -4 51 -3 88 4 95 6 8 6 18 1 27 -6 8 -10 41 -10 74 0 53 2 58 20 53
10 -3 24 1 31 9 14 18 45 18 167 0 118 -18 332 -28 350 -17 9 5 -6 17 -46 36
-32 15 -64 35 -69 44 -9 14 -6 16 23 13 l33 -4 -6 51 -6 51 39 0 c21 0 80 3
130 5 l91 5 7 -31 c3 -17 6 -46 6 -65 0 -25 5 -34 22 -40 13 -4 24 -2 26 5 2
6 8 9 13 5 5 -3 8 -2 7 3 -1 4 3 18 10 31 9 16 22 22 47 22 19 0 35 -4 35 -9
0 -18 -12 -41 -22 -41 -5 0 -17 -7 -25 -16 -14 -13 -14 -17 -3 -24 8 -5 18 -6
22 -4 4 3 8 0 8 -5 0 -7 32 -11 84 -11 47 0 87 -4 90 -8 3 -5 45 -12 94 -15
62 -5 105 -14 146 -32 48 -21 71 -25 157 -25 91 0 106 -3 150 -26 43 -24 47
-29 36 -45 -16 -22 -10 -89 8 -89 7 0 24 -12 37 -27 25 -31 82 -51 171 -62 85
-10 88 -20 45 -121 -28 -67 -34 -72 -78 -66 -28 5 -39 1 -61 -22 -15 -15 -42
-40 -62 -56 l-35 -29 38 -31 c43 -35 49 -46 22 -46 -10 0 -22 -3 -25 -7 -4 -3
-24 -8 -45 -10 -20 -2 -41 -8 -46 -14 -12 -11 201 -12 261 0 33 6 46 5 55 -6
15 -18 82 -53 103 -53 13 0 15 38 15 315 l0 314 -27 15 c-16 8 -44 29 -63 46
-19 18 -48 42 -63 54 -20 16 -29 33 -30 56 -2 31 1 35 43 51 25 10 66 18 93
18 l47 1 0 889 c0 702 -3 890 -12 894 -10 4 -10 6 0 6 17 1 18 661 0 679 -9 9
-9 15 0 24 7 7 12 20 12 30 0 13 -8 18 -30 18 -18 0 -30 5 -30 13 0 16 37 57
50 57 13 0 13 67 1 75 -5 3 -15 -1 -23 -8 -21 -22 -86 -49 -97 -42 -25 15 -4
95 24 95 8 0 18 6 22 14 4 8 24 23 43 33 l35 20 3 126 c2 118 1 126 -15 120
-24 -8 -53 -34 -53 -47 -1 -12 -82 -56 -104 -56 -24 0 -66 -41 -66 -64 0 -23
-34 -46 -68 -46 -18 0 -72 51 -72 69 0 12 -71 51 -93 51 -31 0 -36 85 -7 132
11 18 20 43 20 54 0 12 11 29 25 38 26 17 131 35 107 18 -11 -7 -10 -10 3 -16
9 -3 25 -6 35 -6 15 0 20 -11 25 -55 7 -49 17 -69 27 -47 2 4 21 19 44 35 40
27 64 33 78 20 12 -13 35 -11 40 3 3 8 14 14 23 14 10 0 26 9 36 20 16 19 17
68 17 640 l0 620 -1090 0 c-1087 0 -1090 0 -1090 -20 0 -12 -10 -25 -26 -32
-23 -11 -25 -16 -20 -52 5 -37 -6 -91 -27 -123 -14 -22 32 -92 61 -93 7 0 22
-16 33 -35 12 -19 27 -35 35 -35 8 0 14 -6 14 -13 0 -7 9 -19 20 -27 11 -8 20
-22 20 -32 0 -10 7 -18 15 -18 8 0 15 -9 15 -20 0 -13 7 -20 20 -20 13 0 20
-7 20 -20 0 -11 -4 -20 -9 -20 -5 0 -11 -7 -13 -16 -3 -14 -5 -14 -24 3 -11
10 -23 26 -27 36 -7 18 -47 24 -47 7 0 -5 -7 -10 -15 -10 -9 0 -18 -12 -22
-30 -3 -17 -10 -33 -14 -36 -5 -3 -9 -18 -9 -34 0 -16 -4 -40 -9 -53 -9 -24
-13 -24 -105 -23 l-96 1 0 -26 c0 -62 47 -143 77 -132 26 10 110 -37 129 -72
21 -40 15 -174 -10 -220 -9 -16 -16 -52 -16 -78 0 -69 -40 -133 -103 -166 -15
-8 -27 -18 -27 -23 0 -4 -7 -8 -15 -8 -19 0 -30 43 -16 68 8 15 6 24 -14 42
-21 20 -30 22 -87 16 -35 -3 -68 -3 -74 1 -25 18 -38 63 -42 155 -5 112 -14
120 -70 68 -58 -53 -77 -58 -145 -39 -32 8 -41 18 -59 57 -11 26 -26 58 -33
72 -7 14 -15 37 -19 52 -10 42 -65 50 -67 10 -1 -25 -32 -74 -54 -86 -11 -6
-23 -15 -27 -21 -11 -15 -26 5 -46 62 -27 76 -18 117 33 167 75 71 85 78 111
72 21 -6 24 -12 24 -51 0 -24 4 -46 9 -49 9 -6 31 36 31 59 0 7 29 42 64 78
l63 64 63 2 c71 2 102 15 147 61 41 42 47 67 19 76 -34 11 -108 7 -117 -7 -4
-7 -28 -13 -55 -13 -51 -1 -50 -1 -70 72 -3 10 -10 9 -33 -3 -17 -8 -34 -21
-38 -28 -4 -8 -20 -21 -34 -31 -30 -19 -42 -10 -55 38 -7 27 -82 86 -110 86
-20 0 -74 -50 -74 -69 0 -9 -12 -40 -26 -69 -22 -44 -30 -52 -54 -52 -16 0
-32 -4 -35 -10 -3 -5 -15 -10 -26 -10 -18 0 -20 -6 -17 -47 3 -44 5 -48 34
-54 51 -10 54 -15 54 -94 0 -72 -1 -75 -33 -99 -19 -15 -38 -26 -43 -26 -5 0
-21 -20 -37 -44 -39 -62 -73 -93 -106 -98 -25 -4 -31 1 -45 29 -9 19 -16 58
-16 88 l0 55 -36 0 c-34 0 -90 -24 -107 -45 -4 -5 -10 -21 -13 -35 -13 -52
-42 -70 -109 -70 -54 0 -63 3 -72 23 -10 20 -3 30 71 104 44 45 103 106 131
137 32 35 64 59 90 68 41 13 64 34 111 100 l26 37 -17 46 c-10 25 -22 45 -26
45 -5 0 -9 21 -9 48 1 129 74 202 206 202 30 0 51 8 76 28 51 40 98 89 98 101
0 6 4 11 9 11 11 0 20 46 14 71 -9 32 -78 26 -108 -8 -14 -16 -27 -36 -30 -45
-3 -9 -20 -20 -38 -24 -62 -13 -116 -43 -161 -90 -25 -26 -46 -52 -46 -59 0
-7 -11 -20 -25 -29 -14 -9 -25 -23 -25 -31 0 -34 -163 -105 -186 -82 -7 7 43
79 85 125 19 20 39 32 55 32 14 0 26 5 26 12 0 6 3 8 7 4 4 -3 20 22 36 56 16
35 42 79 58 99 16 20 29 42 29 48 0 8 -133 11 -470 11 l-470 0 0 -40 c0 -61
-15 -83 -81 -114 -58 -27 -73 -28 -75 -3 0 7 -2 20 -2 30 -3 24 -38 22 -70 -4
l-27 -21 -3 22 c-4 26 21 56 54 64 19 5 24 13 24 36 l0 30 -735 0 -735 0 0
-23 c0 -14 -16 -39 -40 -62 -29 -28 -40 -47 -40 -69 0 -32 -45 -136 -60 -136
-29 0 -12 76 23 102 20 15 22 26 22 102 l0 86 -81 0 c-103 0 -140 -16 -154
-69 -6 -21 -17 -44 -25 -51 -12 -10 -16 -7 -26 16 -25 67 -45 99 -62 102 -12
3 -36 -16 -71 -54 l-53 -59 20 -48 c18 -43 19 -52 7 -88 -8 -23 -35 -64 -62
-92 -26 -28 -45 -53 -43 -55 3 -3 -5 -12 -16 -20 -19 -13 -21 -21 -16 -77 l6
-63 -34 -6 c-19 -4 -35 -11 -35 -16 0 -5 -12 -15 -27 -22 -21 -10 -28 -21 -29
-47 -2 -38 -34 -70 -70 -71 -19 0 -45 -35 -49 -65 -3 -24 -25 -62 -48 -84 -14
-13 -29 -38 -33 -55 -4 -17 -9 -25 -11 -19 -3 9 -10 10 -23 3 -21 -11 -24 -8
-34 33 -4 15 -13 27 -22 27 -12 0 -15 7 -11 25 4 24 -17 48 -40 44 -21 -3 -34
3 -67 34 -27 25 -34 39 -29 56 3 12 0 34 -8 47 -10 20 -10 32 -2 55 21 55 -22
113 -66 89 -11 -5 -33 -10 -49 -10 -24 0 -31 -5 -36 -26 -8 -29 -15 -28 -21 5
-12 62 -29 75 -108 87 -53 9 -116 50 -117 77 0 14 46 6 70 -13 14 -11 32 -20
40 -20 8 -1 32 -7 53 -14 37 -14 39 -13 48 11 11 28 35 26 31 -4 -1 -10 6 -27
17 -37 18 -17 21 -17 45 -1 14 10 26 21 26 26 0 24 31 5 45 -27 10 -25 20 -34
33 -32 10 1 31 -8 47 -20 46 -37 44 -5 -8 125 -14 35 -22 65 -17 68 5 3 23
-15 39 -39 31 -44 76 -86 92 -86 5 0 9 8 9 18 0 29 10 32 39 12 14 -10 50 -21
80 -25 62 -7 101 11 101 48 0 25 -37 67 -59 67 -7 0 -23 13 -37 29 -35 42 -61
46 -68 10 -5 -29 -6 -29 -38 -15 -18 8 -41 17 -51 20 -10 3 -27 28 -39 56 -19
46 -23 50 -55 50 -25 0 -50 11 -85 36 -44 32 -53 36 -86 29 -50 -11 -123 -8
-136 5 -7 7 -5 10 8 10 21 0 15 28 -18 77 l-21 33 -170 0 c-161 0 -213 -8
-190 -28 17 -15 95 -33 114 -27 18 5 105 -28 116 -45 8 -13 -36 -40 -68 -40
-15 0 -47 -9 -70 -19 -32 -15 -51 -17 -77 -11 -19 4 -28 8 -20 9 9 1 11 4 5 9
-6 4 -18 19 -28 35 -10 15 -26 27 -37 27 -10 0 -28 14 -40 30 -12 17 -27 30
-34 30 -8 0 -19 7 -26 14 -10 13 -70 15 -372 15 l-361 1 43 -37 c24 -21 63
-48 87 -61 24 -13 53 -32 63 -42 29 -29 78 -52 85 -40 11 17 33 11 40 -11 4
-13 1 -27 -9 -38 -9 -10 -16 -23 -16 -31 0 -15 38 -50 54 -50 6 0 3 -5 -6 -11
-10 -5 -18 -17 -18 -25 0 -12 -8 -13 -34 -8 -33 6 -35 5 -38 -27 -4 -46 -21
-46 -53 1 -15 22 -31 40 -35 40 -4 0 -13 -13 -20 -30 -15 -35 -21 -37 -38 -10
-7 11 -17 20 -23 20 -13 0 -54 41 -69 70 -5 10 -10 30 -10 44 0 15 -6 36 -12
48 -16 28 -48 64 -48 55 0 -4 -9 -3 -20 3 -32 17 -26 59 10 71 33 12 37 25 17
53 -11 15 -24 17 -73 14 -39 -3 -58 -8 -56 -16 3 -16 -9 -15 -36 3 -18 14 -64
15 -316 13 l-294 -3 -24 -27 c-18 -21 -33 -28 -61 -28 -20 0 -37 -4 -37 -10 0
-5 -20 -10 -44 -10 -42 0 -45 2 -62 40 l-18 40 -73 0 c-72 0 -73 0 -73 -26 0
-22 -3 -24 -22 -18 -33 10 -35 14 -14 30 17 12 -5 14 -177 14 -108 0 -197 -4
-197 -9 0 -17 96 -113 126 -126 23 -9 40 -29 62 -74 40 -81 34 -102 -19 -60
-21 17 -39 35 -39 40 0 21 -84 98 -138 127 -31 17 -74 47 -95 66 l-37 36 -125
0 -125 0 -6 -25z m9106 -46 c0 -74 -33 -183 -64 -208 -8 -7 -17 -23 -20 -37
-6 -21 -9 -24 -21 -14 -11 9 -15 33 -15 80 0 64 3 71 50 144 27 42 54 76 60
76 5 0 10 -18 10 -41z m-1900 -4 c0 -24 -59 -101 -103 -133 -10 -8 -29 -26
-42 -40 l-25 -27 -1 43 c-1 23 -2 48 -3 55 -2 20 -49 20 -71 0 -26 -24 -55
-18 -55 12 0 28 13 39 65 55 22 7 44 16 50 21 5 5 28 9 52 9 24 0 43 4 43 9 0
11 23 18 63 20 23 1 27 -3 27 -24z m-2139 -55 c47 -26 11 -111 -84 -203 -33
-31 -57 -61 -53 -65 4 -4 14 1 21 12 9 12 21 17 35 13 11 -3 20 -1 20 4 0 5 5
9 10 9 6 0 10 -11 10 -24 0 -13 6 -28 13 -34 13 -12 21 -9 87 35 31 20 35 20
45 6 7 -9 10 -25 7 -35 -2 -10 -1 -18 3 -18 12 0 65 34 65 42 0 4 7 8 15 8 8
0 15 4 15 10 0 13 47 -9 54 -25 6 -17 -21 -55 -39 -55 -16 0 -35 -30 -35 -54
0 -21 24 -20 41 0 9 11 22 14 42 10 17 -3 35 -2 41 3 6 5 36 12 67 15 53 7 57
6 63 -16 4 -17 8 -20 14 -10 7 10 11 10 21 -2 7 -8 19 -12 27 -9 11 4 14 -5
14 -41 0 -32 5 -48 15 -52 16 -6 21 -39 7 -48 -4 -2 -14 -1 -22 4 -8 5 -22 4
-34 -2 -11 -6 -29 -12 -41 -13 -35 -4 -36 -5 -31 -14 3 -5 -9 -12 -27 -15 -19
-3 -63 -21 -99 -40 -64 -32 -66 -33 -82 -15 -18 21 -58 24 -104 8 -23 -8 -34
-20 -40 -42 -8 -30 -12 -32 -53 -32 -28 0 -56 -8 -79 -22 -85 -54 -89 -63 -29
-63 65 0 168 31 175 53 3 10 11 16 17 14 7 -2 25 5 40 16 16 10 31 17 34 13 3
-3 12 2 20 12 12 15 13 13 11 -21 -2 -20 -6 -37 -10 -37 -5 0 -16 -8 -26 -17
-42 -40 -61 -52 -64 -41 -3 8 -20 4 -51 -11 -41 -20 -46 -26 -49 -59 l-3 -37
-60 -5 c-63 -5 -89 -15 -80 -31 4 -5 1 -9 -4 -9 -6 0 -11 -16 -11 -35 0 -38
-24 -69 -66 -85 -14 -6 -23 -14 -20 -19 3 -5 -1 -12 -9 -15 -9 -3 -20 -17 -25
-31 -5 -14 -15 -25 -22 -25 -9 0 -10 -2 -2 -8 7 -4 8 -15 3 -29 -6 -18 -16
-23 -42 -23 -59 0 -99 -11 -93 -26 3 -9 -4 -16 -19 -20 -16 -4 -25 -13 -25
-25 0 -11 -7 -22 -15 -25 -8 -4 -15 -14 -15 -24 0 -10 -5 -20 -12 -22 -7 -3
-11 -28 -11 -65 0 -60 -1 -62 -35 -80 -22 -11 -39 -32 -49 -55 -8 -21 -18 -38
-22 -38 -17 1 -34 21 -37 45 -4 34 -11 42 -26 27 -9 -9 -9 -18 0 -37 16 -35
15 -130 0 -142 -7 -5 -32 -15 -55 -22 -51 -14 -58 -24 -54 -74 3 -43 -17 -72
-76 -108 -18 -12 -33 -29 -33 -39 0 -42 -58 -138 -77 -127 -6 4 -13 44 -16 89
-7 105 -12 121 -39 107 -26 -14 -44 2 -71 63 -21 49 -44 61 -66 34 -9 -11 -7
-22 9 -50 24 -44 25 -50 4 -81 l-16 -25 -26 25 c-21 21 -25 34 -23 70 1 36 -2
46 -20 55 -20 11 -21 17 -14 83 l6 72 -30 18 c-23 14 -35 15 -50 8 -16 -9 -25
-5 -56 26 l-36 36 22 23 c11 12 32 25 45 28 31 8 32 42 2 51 -13 4 -38 14 -55
22 -41 19 -63 11 -63 -22 0 -15 -6 -25 -14 -25 -19 0 -46 27 -46 45 0 8 -9 19
-20 25 -11 6 -17 16 -14 25 4 9 -7 22 -30 36 -27 16 -36 28 -36 48 0 19 -8 29
-30 39 -29 13 -41 32 -20 32 6 0 10 11 10 25 0 14 5 34 12 44 9 14 8 23 -5 42
-10 13 -17 34 -17 48 0 30 -26 61 -52 61 -10 0 -32 7 -49 15 -16 9 -33 13 -38
11 -13 -8 -20 29 -16 76 4 34 0 43 -27 69 -29 25 -34 27 -48 14 -23 -21 -110
-10 -109 14 0 10 2 12 6 4 2 -7 12 -13 21 -13 10 0 13 3 7 8 -14 10 -52 98
-65 151 -8 31 -8 47 -1 54 6 6 11 21 11 34 0 31 34 47 84 39 73 -11 167 -48
201 -77 29 -26 32 -33 25 -63 -4 -18 -10 -39 -14 -45 -10 -16 -46 -13 -46 4 0
8 -9 19 -20 25 -28 15 -27 -9 3 -44 18 -20 35 -28 72 -31 27 -3 54 0 61 6 11
9 15 7 20 -7 16 -52 45 -104 59 -104 18 0 35 -40 37 -87 1 -37 20 -58 43 -50
14 6 37 -20 64 -75 8 -15 24 -37 37 -49 l23 -22 12 29 c18 45 18 114 0 131 -8
9 -16 30 -17 47 -3 31 -8 47 -38 119 l-16 37 27 0 c16 0 41 -11 57 -23 26 -21
29 -30 28 -70 -1 -26 1 -47 5 -48 47 -4 64 -19 62 -54 -1 -11 -1 -26 0 -32 1
-18 60 -16 67 2 9 22 19 18 32 -10 7 -14 24 -30 39 -36 14 -5 32 -17 39 -27 9
-13 15 -14 27 -4 17 14 43 7 74 -21 34 -30 39 -13 13 43 -16 34 -31 52 -51 59
-17 6 -29 18 -31 33 -2 18 -9 23 -31 21 -24 -2 -27 1 -27 32 0 25 5 35 20 40
11 3 20 13 20 21 0 24 31 78 54 94 33 23 63 23 69 0 12 -48 81 1 92 66 9 51
38 114 62 136 14 13 32 17 69 14 62 -5 68 -24 20 -61 -29 -22 -36 -34 -36 -62
0 -38 21 -53 46 -32 9 8 23 14 30 14 7 0 35 21 63 47 27 26 63 54 80 62 38 20
51 44 51 94 0 43 25 75 57 72 38 -4 43 0 43 39 0 22 5 52 11 68 10 27 11 27
25 9 21 -29 17 -67 -12 -141 -21 -53 -24 -72 -17 -102 12 -52 48 -57 81 -11
57 83 70 109 77 159 4 29 18 72 32 96 18 33 22 52 17 77 -8 43 -1 55 78 138
65 69 76 75 109 58z m-1826 -37 c13 -10 23 -22 21 -28 -3 -10 -6 -10 -90 -13
-48 -2 -48 -2 -43 -32 4 -16 2 -32 -3 -35 -6 -3 -10 1 -10 9 0 22 -9 20 -52
-9 -20 -14 -45 -25 -56 -25 -10 0 -32 -6 -48 -14 -76 -36 -92 -27 -66 38 13
32 19 37 39 33 20 -4 27 1 35 24 5 16 13 29 16 30 4 0 16 3 27 6 11 3 37 7 58
10 21 3 41 12 44 20 8 21 93 11 128 -14z m6765 -14 c31 -28 45 -49 46 -68 1
-15 4 -37 8 -48 6 -17 1 -22 -28 -27 -19 -4 -39 -13 -46 -21 -7 -8 -18 -15
-24 -15 -32 0 -116 -136 -116 -186 0 -8 -4 -14 -8 -14 -5 0 -26 -16 -48 -35
-21 -19 -44 -35 -51 -35 -29 0 -88 -68 -120 -138 -31 -68 -44 -148 -27 -165 9
-8 55 16 78 42 26 29 56 28 56 -2 0 -15 -11 -29 -30 -40 -16 -10 -30 -15 -30
-10 0 4 -19 -25 -41 -64 -40 -72 -52 -83 -64 -63 -3 6 -21 10 -39 10 -18 0
-54 3 -80 6 -39 6 -50 12 -62 37 -9 16 -13 39 -10 52 5 19 -8 36 -72 96 -42
40 -91 80 -107 90 -22 14 -34 31 -43 64 -7 26 -10 50 -7 55 3 4 -7 11 -21 14
-20 5 -25 12 -22 32 2 20 16 33 58 54 74 38 102 41 109 13 11 -41 39 -64 74
-61 27 2 37 12 64 58 29 48 33 63 33 126 0 65 2 74 25 92 14 11 25 27 25 36 0
9 5 16 10 16 6 0 9 14 8 30 -2 27 -6 30 -36 30 -22 0 -32 4 -30 13 3 8 43 16
115 22 73 7 118 16 134 27 19 14 48 17 149 17 l125 1 45 -41z m-8792 13 c2 -6
12 -20 23 -33 10 -12 19 -25 19 -28 0 -4 -39 -6 -87 -6 -83 0 -90 -2 -125 -30
-21 -16 -38 -36 -38 -42 0 -21 -48 -15 -64 8 -11 16 -12 28 -4 50 5 16 15 29
21 30 34 2 142 43 162 61 12 12 88 3 93 -10z m-877 -107 c7 -16 37 -56 67 -87
31 -32 54 -60 51 -63 -3 -2 -25 3 -48 12 -36 14 -50 15 -87 5 -24 -7 -57 -12
-72 -12 -32 0 -101 23 -111 36 -3 5 -26 25 -51 44 -69 53 -74 65 -34 80 18 7
33 6 54 -5 40 -21 87 -19 117 5 18 14 38 19 64 18 33 -3 40 -8 50 -33z m961 3
c13 -7 42 -32 67 -54 56 -53 51 -70 -20 -73 -90 -3 -104 -37 -39 -95 51 -46
67 -46 73 2 9 69 13 77 38 79 29 3 65 -25 79 -62 12 -30 12 -101 1 -129 -7
-18 -8 -18 -14 -2 -4 11 -15 16 -29 14 -35 -5 -27 -31 16 -52 31 -15 68 -20
185 -23 125 -4 151 -7 184 -26 23 -13 40 -31 44 -47 8 -36 22 -50 50 -50 17 0
27 7 30 20 3 12 10 19 16 17 13 -4 10 -118 -4 -132 -6 -5 -43 -10 -83 -10 -53
0 -77 -4 -89 -16 -14 -15 -14 -17 6 -27 12 -6 48 -14 79 -17 53 -6 57 -8 48
-26 -12 -21 -35 -24 -74 -9 -14 5 -26 8 -26 6 0 -3 -3 -11 -6 -20 -4 -12 0
-16 15 -16 14 0 21 -6 21 -20 0 -31 -41 -25 -73 11 -15 17 -27 41 -27 54 0 14
-7 25 -20 28 -11 3 -20 1 -20 -3 0 -20 -41 5 -60 37 -25 42 -25 43 0 43 13 0
20 7 20 18 0 26 20 42 52 42 15 0 29 5 30 10 0 6 1 15 2 22 1 7 -27 17 -69 24
-99 17 -104 17 -117 -10 -9 -22 -13 -23 -25 -10 -22 22 -86 18 -103 -6 -16
-22 -65 -27 -73 -7 -4 9 -8 9 -14 1 -11 -16 -93 -23 -93 -8 0 14 44 34 76 34
14 0 39 9 55 20 39 29 27 56 -47 101 -38 23 -60 44 -62 58 -2 12 -19 34 -38
49 -19 15 -34 30 -34 34 0 3 -19 25 -42 48 -41 40 -42 42 -24 56 11 8 25 14
32 14 7 0 15 15 19 33 12 59 16 67 36 67 10 0 19 5 19 10 0 13 6 13 32 -2z
m558 -114 c9 -7 34 -16 56 -20 36 -5 42 -4 47 15 8 33 53 27 88 -10 16 -17 29
-35 29 -40 0 -5 9 -18 19 -28 24 -24 52 -112 44 -140 -4 -16 -13 -21 -38 -21
-35 0 -134 37 -136 51 -1 5 -2 14 -3 20 -2 24 -32 32 -58 18 -87 -47 -115 -59
-150 -61 -22 -1 -42 -6 -44 -10 -11 -18 -45 -7 -54 18 -13 34 -13 141 1 150 6
3 25 -7 42 -23 31 -29 81 -63 92 -63 13 0 2 40 -25 85 -16 28 -30 53 -30 57 0
6 16 8 90 14 8 1 22 -5 30 -12z m5208 -89 c-3 -55 9 -68 63 -67 55 1 59 -2 46
-38 -19 -50 -60 -55 -214 -24 -36 7 -43 31 -20 70 12 23 106 104 119 104 4 0
7 -20 6 -45z m-4546 4 c9 -10 18 -25 20 -31 3 -8 20 -3 52 16 52 31 82 29 118
-4 16 -15 18 -20 7 -23 -68 -20 -128 -28 -195 -26 l-79 2 0 47 c0 47 0 47 30
43 17 -2 38 -13 47 -24z m4368 -19 c0 -44 -5 -55 -37 -91 -20 -22 -55 -53 -77
-68 -39 -26 -42 -27 -58 -11 -10 9 -18 20 -18 24 0 20 53 111 75 128 14 11 31
25 38 32 17 17 50 35 65 36 8 0 12 -16 12 -50z m-4197 -69 c24 -9 43 -38 32
-49 -3 -3 -11 0 -17 6 -7 7 -18 12 -25 12 -22 0 -15 -27 12 -44 14 -9 25 -24
25 -34 0 -24 -35 -52 -66 -52 -24 0 -24 1 -9 16 15 15 15 18 1 32 -13 13 -19
14 -39 3 -13 -7 -45 -11 -73 -9 l-49 3 3 35 c3 41 34 70 72 68 14 0 36 4 50
10 32 14 53 14 83 3z m4224 -176 c21 -14 21 -18 9 -58 -26 -86 -69 -167 -87
-167 -10 0 -21 -4 -24 -10 -10 -16 -44 -11 -53 8 -5 9 -6 44 -1 77 4 33 8 67
8 76 1 9 17 32 36 52 40 41 76 48 112 22z m3296 -33 c11 -10 33 -15 57 -14 60
4 55 -22 -15 -73 -22 -17 -42 -32 -45 -36 -9 -9 -98 -69 -105 -69 -3 0 -34
-22 -69 -50 -35 -27 -73 -50 -85 -50 -12 0 -31 -5 -43 -11 -11 -6 -22 -8 -25
-5 -9 9 38 95 68 125 16 16 29 38 30 48 0 10 2 31 2 48 2 30 27 50 107 86 14
6 32 15 40 19 19 11 60 2 83 -18z m-9531 -11 c24 -11 72 -48 108 -83 78 -76
89 -90 117 -149 l21 -46 -24 5 c-21 4 -24 1 -24 -24 0 -16 9 -46 20 -67 23
-43 25 -58 7 -51 -17 6 -52 65 -49 82 2 6 -4 12 -13 12 -8 0 -15 4 -15 9 0 6
-27 18 -60 27 -52 14 -61 21 -71 48 -15 40 -74 76 -126 76 -33 -1 -40 -5 -54
-35 -9 -20 -12 -39 -8 -47 18 -28 10 -64 -17 -77 -15 -6 -28 -10 -30 -8 -8 8
-5 134 5 178 0 3 9 15 19 27 28 33 45 59 57 88 7 19 23 31 50 40 22 6 41 12
42 13 1 1 21 -8 45 -18z m2042 -43 c13 -13 33 -30 43 -39 10 -9 38 -39 62 -67
38 -44 48 -51 77 -49 18 1 32 -2 31 -8 -1 -5 -9 -8 -19 -7 -22 4 -33 -16 -18
-33 16 -19 30 -19 30 -1 0 23 29 27 50 6 31 -31 26 -53 -10 -45 -36 8 -41 -9
-7 -26 57 -30 97 -71 97 -99 0 -19 6 -31 18 -34 23 -8 61 -59 65 -87 2 -17 -6
-24 -38 -33 -50 -15 -51 -29 -2 -37 48 -8 54 -14 66 -68 8 -35 7 -49 -5 -65
-8 -11 -14 -16 -14 -11 0 5 -6 2 -12 -7 -7 -9 -22 -18 -32 -20 -11 -1 -21 -8
-23 -13 -5 -15 87 -59 175 -85 77 -22 98 -43 67 -66 -10 -7 -22 -11 -26 -8 -5
3 -10 -15 -11 -40 -1 -25 -2 -54 -2 -63 -1 -11 8 -19 22 -21 12 -2 20 -8 17
-13 -4 -5 2 -12 12 -15 10 -3 28 -10 39 -16 29 -13 79 10 79 36 0 30 21 30 34
-1 8 -19 8 -38 2 -61 -8 -27 -6 -41 9 -70 11 -20 20 -44 20 -54 0 -20 22 -36
28 -20 6 19 30 14 37 -9 4 -11 4 -23 1 -26 -10 -10 26 -43 46 -43 11 0 18 -7
18 -19 0 -10 7 -24 15 -31 9 -7 14 -22 13 -34 -2 -13 2 -20 11 -18 32 7 51 -9
51 -44 0 -19 -4 -34 -10 -34 -5 0 -10 -13 -10 -30 0 -51 -44 -41 -142 32 -86
65 -134 93 -156 89 -6 -1 -27 5 -45 12 -101 45 -245 76 -362 78 -33 0 -54 3
-47 6 19 7 4 23 -24 23 -13 0 -24 5 -24 10 0 6 9 10 19 10 11 0 23 5 26 10 11
17 51 11 102 -15 36 -19 57 -24 81 -19 20 4 29 11 25 18 -4 6 -6 19 -5 29 2 9
-11 38 -28 63 -17 26 -28 49 -25 52 9 9 84 -78 105 -123 10 -22 33 -48 52 -59
18 -11 35 -22 38 -25 3 -3 21 -14 40 -24 l35 -18 -22 19 c-13 11 -23 23 -23
26 0 3 -7 14 -16 24 -53 60 -155 189 -189 239 -22 32 -53 70 -69 84 -34 30
-30 63 9 73 14 4 25 11 25 16 0 6 -16 3 -37 -5 -37 -16 -89 -13 -79 4 3 5 -13
34 -35 66 -22 32 -38 64 -35 71 10 27 59 12 107 -33 l27 -24 4 35 c3 24 -4 52
-18 84 -13 26 -23 57 -23 69 -1 12 -6 25 -12 29 -6 3 -17 22 -25 40 -12 29
-19 34 -49 34 -34 0 -35 1 -35 39 0 34 -4 40 -30 50 -28 9 -30 14 -30 58 0 31
-7 60 -21 82 -18 30 -24 33 -54 28 -32 -5 -35 -3 -55 39 -12 24 -26 46 -31 50
-5 3 -9 23 -9 44 0 21 -4 42 -10 45 -10 6 -47 -10 -68 -32 -19 -19 -33 -16
-39 7 -3 11 -10 20 -17 20 -6 1 -24 12 -41 25 -22 18 -25 25 -13 25 9 0 20 -4
23 -10 3 -5 13 -10 22 -10 13 0 14 8 9 41 l-7 42 33 -8 c42 -9 86 -7 107 5 25
14 38 12 65 -12z m3490 -202 c-3 -9 -10 -16 -15 -16 -5 0 -9 -8 -9 -17 0 -19
-73 -103 -88 -103 -5 0 -12 -13 -15 -30 -5 -21 -12 -30 -26 -30 -32 0 -50 11
-44 26 3 9 0 14 -8 12 -10 -2 -13 6 -11 27 1 17 3 40 3 53 1 20 6 23 38 22 20
-1 41 -1 46 0 6 1 21 2 35 1 17 -1 36 11 60 37 37 41 44 45 34 18z m-4494 -37
c17 -3 24 -9 22 -21 -2 -16 5 -20 59 -32 18 -4 29 -14 33 -31 7 -27 54 -75 73
-75 6 0 15 -9 18 -20 7 -23 -2 -60 -16 -60 -15 0 -10 -56 5 -70 8 -6 16 -21
18 -33 3 -18 9 -22 38 -19 19 1 45 9 57 17 13 9 24 11 28 5 6 -10 -14 -38 -59
-82 l-28 -28 -52 46 c-28 26 -69 59 -91 73 -22 14 -41 29 -43 34 -7 15 -32 6
-43 -15 -7 -13 -12 -24 -11 -25 1 -2 2 -10 2 -18 0 -27 -92 41 -134 99 -21 28
-56 35 -56 11 0 -9 -9 -25 -19 -37 l-20 -20 -25 27 c-14 15 -26 34 -26 41 0 8
-4 14 -10 14 -5 0 -10 11 -10 25 0 14 -4 25 -10 25 -15 0 -8 23 11 37 19 14
112 3 150 -17 14 -8 43 -10 88 -5 36 4 60 10 54 12 -7 3 -13 15 -13 28 0 12
-7 28 -15 35 -9 8 -15 30 -15 59 0 25 4 41 8 35 4 -7 18 -14 32 -15z m7163
-105 c26 -9 47 -19 47 -22 0 -4 14 -13 30 -21 17 -7 38 -24 47 -38 21 -31 7
-43 -55 -43 -64 0 -120 32 -142 83 -28 62 -13 70 73 41z m-2865 -98 c3 -11 0
-16 -7 -12 -6 4 -11 3 -11 -3 0 -6 9 -15 20 -21 15 -8 20 -21 20 -55 0 -49 15
-59 39 -27 13 18 14 18 37 -5 18 -18 22 -28 15 -41 -14 -27 -44 -50 -73 -57
-24 -6 -28 -4 -29 16 -1 13 -1 32 0 41 2 15 -6 17 -66 12 -37 -4 -87 -12 -111
-20 -23 -8 -56 -14 -72 -14 -16 0 -32 -4 -35 -10 -8 -12 -52 -13 -59 -1 -11
17 6 42 24 36 12 -4 19 1 23 15 3 14 13 20 31 20 24 0 64 17 76 31 3 4 14 9
25 11 11 2 19 10 18 16 -2 7 6 12 17 12 19 0 45 32 34 43 -3 3 0 13 7 21 19
22 73 17 77 -8z m-961 -28 c-8 -30 19 -58 55 -58 24 0 28 -4 28 -27 -1 -30
-28 -56 -70 -66 -21 -4 -30 2 -55 34 -16 21 -40 41 -52 45 -40 11 -26 64 16
64 15 0 36 7 47 15 27 21 37 18 31 -7z m-229 -80 c-2 -18 -8 -32 -15 -31 -6 1
-16 -11 -22 -27 -6 -18 -6 -30 0 -30 13 0 11 -21 -5 -51 -18 -36 -28 -79 -18
-79 5 0 21 10 36 21 15 12 29 19 32 16 3 -2 0 -24 -5 -48 -6 -24 -11 -58 -11
-75 0 -22 -7 -36 -23 -47 -46 -30 -79 24 -54 86 12 27 12 35 1 45 -8 7 -16 12
-19 12 -37 -1 -38 0 -32 41 3 22 17 57 31 77 15 20 40 56 57 80 36 50 51 54
47 10z m-3513 -29 c65 -20 67 -21 91 -74 13 -30 25 -74 26 -97 3 -37 0 -43
-17 -46 -12 -2 -41 12 -65 31 -25 18 -68 41 -97 51 -48 16 -54 16 -75 2 -32
-23 -89 -21 -95 3 -6 22 -46 46 -66 38 -7 -3 -19 -2 -26 2 -14 9 -4 42 13 40
6 -1 18 -1 26 0 13 1 13 2 0 11 -13 8 -12 10 3 10 10 0 28 5 40 12 12 7 36 13
52 14 17 1 41 7 55 13 37 15 61 13 135 -10z m-1376 -37 c9 -2 55 -7 102 -11
47 -5 95 -13 106 -19 11 -6 44 -14 74 -17 30 -4 66 -11 81 -17 24 -9 26 -13
16 -32 -6 -11 -11 -23 -10 -26 1 -3 -3 -5 -10 -5 -7 0 -15 -11 -18 -25 -6 -26
-30 -36 -58 -24 -9 4 -21 8 -27 8 -5 1 -21 8 -35 18 -14 9 -40 19 -57 23 -29
6 -33 4 -33 -14 0 -11 5 -32 12 -46 12 -28 4 -45 -13 -28 -6 6 -18 9 -25 6 -8
-3 -14 0 -14 6 0 7 -24 11 -65 11 -46 0 -78 6 -105 20 -43 22 -85 26 -96 9 -3
-6 -1 -16 5 -22 6 -6 11 -18 11 -27 0 -9 8 -25 18 -36 10 -10 26 -36 36 -58
16 -34 16 -40 3 -54 -14 -13 -25 -13 -91 -2 -57 10 -85 10 -120 1 -25 -6 -55
-11 -68 -11 -14 0 -38 -16 -61 -39 -38 -39 -71 -51 -146 -51 -52 0 -119 -36
-188 -102 -49 -47 -68 -59 -89 -56 -15 2 -30 10 -35 18 -16 33 -29 98 -30 150
-1 143 -1 148 21 163 17 12 19 19 11 38 -22 57 -33 134 -22 162 6 16 8 47 4
69 l-6 41 39 -5 c41 -6 78 -20 105 -40 14 -9 20 -8 34 6 19 19 58 17 94 -5 17
-11 20 -20 15 -41 -4 -21 -2 -28 9 -28 8 0 26 -15 41 -34 l26 -35 -23 -18
c-13 -10 -29 -29 -36 -42 -12 -21 -18 -23 -94 -21 -45 1 -88 2 -94 1 -15 -1
-18 -21 -3 -21 5 0 21 -10 36 -22 32 -29 55 -36 122 -37 37 -1 58 4 69 15 10
9 26 14 40 11 20 -4 29 3 49 34 19 31 30 39 53 39 23 0 32 7 43 30 7 17 16 30
20 30 5 0 8 8 8 18 0 11 9 27 21 38 17 15 20 26 15 55 -4 28 -2 38 10 43 8 3
71 9 140 12 69 4 127 11 130 16 3 5 13 3 21 -4 8 -6 22 -14 32 -16z m2444 -27
c9 -20 17 -42 17 -49 0 -17 28 -16 34 1 8 19 22 16 46 -9 20 -22 23 -19 21 18
-2 24 27 40 43 24 15 -15 43 -12 50 6 5 13 9 13 37 -3 41 -24 54 -49 40 -79
-6 -14 -16 -21 -24 -18 -10 4 -17 -5 -21 -31 -4 -19 -4 -39 -1 -44 3 -6 1 -12
-5 -16 -5 -3 -10 1 -10 10 0 11 -5 15 -15 11 -10 -3 -15 1 -15 12 0 9 -9 23
-20 30 -11 7 -20 18 -20 26 0 19 -37 27 -44 10 -3 -8 -18 -14 -34 -14 -16 0
-32 -3 -36 -7 -3 -4 -12 -8 -19 -10 -7 -1 -24 -5 -38 -9 l-26 -6 2 89 c1 48 3
89 4 91 6 10 20 -4 34 -33z m2649 -61 c-6 -70 -44 -194 -61 -194 -16 0 -32 47
-36 101 -5 75 -1 85 41 105 19 9 34 21 34 26 0 5 6 8 12 6 8 -3 12 -19 10 -44z
m-2780 -20 c5 -16 7 -63 6 -104 -1 -42 1 -81 6 -88 4 -6 3 -12 -3 -12 -5 0
-13 9 -16 20 -3 11 -12 20 -18 20 -7 0 -35 15 -62 34 -28 18 -61 37 -75 41
-35 11 -69 35 -50 35 12 0 12 2 2 9 -9 5 13 11 58 15 62 6 75 5 92 -11 20 -18
21 -18 13 6 -8 26 12 74 29 68 5 -2 14 -17 18 -33z m5650 -1 c5 -71 -18 -132
-49 -133 -6 0 -18 -21 -25 -47 -13 -47 -14 -48 -57 -51 l-44 -3 7 50 c4 32 3
52 -5 56 -6 5 -8 20 -4 41 5 29 3 34 -14 34 -12 0 -22 -9 -27 -22 -3 -13 -13
-31 -22 -40 -12 -14 -12 -18 -2 -18 10 0 11 -3 4 -10 -17 -17 -63 6 -70 35
-13 52 7 70 87 83 41 6 92 20 114 31 22 11 55 20 73 21 28 0 32 -3 34 -27z
m1198 -48 c23 -8 66 -15 94 -15 41 0 63 -7 99 -30 26 -16 47 -34 47 -39 0 -27
-15 -41 -41 -41 -16 0 -46 -7 -66 -15 -67 -28 -93 -17 -93 40 0 28 -21 42 -79
51 -51 8 -61 22 -31 46 27 22 18 21 70 3z m-1893 -64 c9 -20 9 -30 -3 -52 -17
-33 -18 -75 -3 -84 7 -5 5 -15 -5 -31 -9 -13 -16 -31 -16 -41 0 -14 -3 -14
-16 5 -9 13 -14 32 -11 44 8 31 -2 47 -44 68 -46 24 -55 49 -34 90 15 29 19
31 68 28 43 -3 53 -7 64 -27z m-5126 -15 c42 -18 148 -102 156 -123 4 -9 -1
-21 -10 -28 -9 -6 -13 -16 -8 -21 5 -5 6 -26 4 -47 l-5 -38 -63 35 c-71 39
-215 78 -285 78 -25 -1 -77 -6 -114 -13 -65 -11 -94 -7 -67 10 8 5 21 8 30 6
9 -1 19 3 23 8 3 6 43 12 86 13 44 1 85 5 91 8 15 9 81 -3 108 -20 77 -48 96
-55 134 -49 22 4 39 9 39 11 0 15 -82 76 -115 86 -56 16 -77 36 -64 59 5 11 7
19 4 19 -4 0 -3 5 0 10 8 13 16 13 56 -4z m-1441 -126 c25 0 32 -14 35 -69 2
-26 12 -66 24 -90 12 -23 21 -52 19 -64 -3 -19 -8 -22 -48 -20 -25 2 -66 4
-92 5 -48 3 -81 -17 -89 -55 -4 -13 -8 -13 -29 5 -23 19 -25 26 -24 107 0 73
4 91 24 122 14 20 33 42 44 49 24 15 110 28 114 18 2 -4 12 -8 22 -8z m8133 9
c28 0 51 -9 87 -35 65 -46 67 -68 6 -62 -24 3 -50 2 -58 -3 -21 -13 3 -43 45
-53 27 -7 39 -17 46 -38 6 -15 14 -28 20 -28 5 0 13 -9 16 -20 3 -11 12 -20
19 -20 7 0 20 -8 30 -18 9 -11 35 -25 59 -32 63 -18 85 -31 133 -73 45 -40 58
-65 27 -52 -52 20 -111 29 -126 18 -13 -11 -113 -10 -165 2 -42 9 -65 41 -50
68 14 26 -4 37 -64 37 -26 0 -50 5 -53 10 -9 15 -77 11 -99 -5 -23 -18 -69
-19 -98 -4 -15 8 -18 17 -14 35 6 22 3 24 -27 24 -18 0 -37 4 -43 9 -5 5 -69
12 -141 15 -115 5 -135 8 -153 26 -19 19 -19 21 -3 55 9 19 24 35 34 35 9 0
28 9 42 20 13 11 49 26 78 34 137 38 157 44 175 55 13 8 53 10 129 6 61 -4
127 -6 148 -6z m-7178 -81 c28 -7 55 -15 60 -19 6 -4 38 -10 73 -14 34 -4 62
-11 62 -15 0 -8 72 -20 123 -20 21 -1 27 -5 23 -15 -4 -10 1 -15 14 -15 11 0
20 5 20 10 0 6 -4 10 -10 10 -5 0 -10 16 -10 35 0 33 2 35 33 35 30 -1 127
-39 100 -40 -15 0 -17 -26 -4 -35 5 -3 17 2 26 12 16 15 20 15 61 -8 52 -28
57 -44 12 -32 -40 10 -154 10 -164 0 -13 -13 15 -56 50 -79 24 -16 47 -46 72
-94 20 -40 49 -82 65 -93 20 -15 29 -30 29 -51 0 -19 8 -35 23 -45 l22 -16
-25 -19 c-40 -31 -56 -25 -69 24 -9 38 -19 49 -79 90 -68 46 -106 57 -115 34
-5 -15 -46 29 -47 50 0 19 -38 52 -58 52 -11 0 -23 -10 -29 -22 -8 -19 -16
-22 -52 -19 -70 5 -104 52 -65 90 30 29 30 39 -1 53 -18 8 -32 8 -49 0 -18 -8
-29 -6 -52 9 -39 25 -75 51 -90 66 -16 17 -41 7 -47 -18 -3 -11 -6 -23 -7 -27
-1 -4 -9 -16 -16 -27 -8 -11 -14 -31 -15 -45 l0 -25 -10 25 c-6 14 -12 69 -14
124 l-4 98 57 -6 c31 -4 80 -12 107 -18z m5148 -45 c11 -10 -13 -33 -34 -33
-31 0 -62 -38 -57 -71 4 -25 0 -30 -29 -41 -31 -11 -33 -15 -33 -59 0 -46 1
-47 35 -53 26 -5 35 -12 35 -26 0 -21 -8 -24 -34 -14 -9 3 -13 10 -10 16 3 5
-12 -2 -35 -16 -22 -14 -43 -26 -47 -26 -3 0 -19 -14 -35 -31 -35 -37 -51 -34
-60 12 -4 18 -17 41 -28 50 -12 10 -21 23 -21 31 0 23 68 88 114 107 46 20 55
36 51 86 -2 26 3 33 39 51 40 21 135 32 149 17z m2993 -114 c4 -7 -4 -20 -17
-30 -20 -15 -22 -21 -13 -36 12 -19 56 -22 122 -8 31 7 32 6 32 -24 0 -20 -9
-42 -25 -59 -14 -15 -25 -32 -25 -39 0 -20 -37 -25 -69 -9 -55 29 -86 87 -60
113 8 8 5 13 -12 18 -50 16 -53 60 -6 74 45 13 65 13 73 0z m-3586 -108 c0
-47 -5 -83 -12 -93 -19 -22 -84 -59 -91 -51 -4 3 -7 44 -7 90 0 77 2 86 26
108 24 23 60 35 77 27 4 -2 7 -38 7 -81z m1027 57 c4 -7 8 -54 10 -105 1 -51
6 -100 12 -111 6 -11 6 -23 0 -33 -10 -15 -4 -88 12 -151 8 -32 15 -38 59 -53
28 -9 50 -20 50 -23 -1 -4 -14 -23 -30 -41 -22 -26 -27 -37 -17 -43 7 -5 -50
-6 -128 -2 -77 3 -141 10 -143 15 -2 5 -26 11 -53 15 -32 4 -53 13 -59 24 -12
22 -4 30 31 30 15 0 29 7 33 15 3 8 11 14 18 13 27 -6 20 44 -10 76 -40 42
-53 69 -42 86 12 19 -26 60 -55 60 -32 0 -89 63 -80 89 7 24 83 91 102 91 8 0
28 7 46 17 18 9 75 22 127 28 52 7 98 13 102 14 4 0 10 -5 15 -11z m-6933
-100 c8 -13 18 -40 21 -61 4 -21 12 -44 19 -50 11 -13 36 -54 36 -60 0 -13
-81 20 -85 34 -8 23 -45 46 -88 54 -29 6 -38 4 -43 -9 -8 -21 17 -106 29 -99
11 6 5 -132 -5 -143 -17 -16 -95 8 -133 42 -67 59 -105 58 -105 -4 0 -32 -4
-39 -32 -52 -21 -9 -63 -15 -113 -15 -44 0 -86 -4 -94 -9 -7 -5 -19 -24 -27
-42 -16 -38 -20 -39 -76 -22 -29 9 -41 9 -47 0 -3 -6 -27 -12 -53 -13 -26 -2
-45 -6 -42 -11 3 -4 1 -8 -5 -8 -5 0 -13 -9 -16 -20 -5 -15 -15 -20 -40 -20
-37 0 -51 -14 -47 -45 3 -19 -6 -22 -75 -34 -63 -10 -84 -18 -109 -43 -37 -35
-114 -52 -114 -25 0 9 5 19 10 22 6 3 10 19 10 35 0 48 19 82 73 132 35 33 46
48 35 48 -10 0 -18 4 -18 10 0 5 -3 9 -7 9 -5 -1 -17 -1 -28 0 -42 2 43 41 91
41 41 0 47 3 57 29 6 16 21 35 34 42 13 7 23 19 23 26 0 17 -24 43 -39 43 -5
0 -25 9 -43 19 -18 11 -60 27 -92 36 l-59 17 37 13 c37 13 66 11 66 -5 0 -4
13 -10 29 -13 16 -4 45 -22 64 -40 54 -55 71 -60 156 -53 111 10 172 31 211
71 19 19 39 35 45 35 7 0 20 9 30 20 10 11 24 20 31 20 8 0 28 9 46 20 18 11
43 20 56 20 13 0 28 5 35 10 57 48 88 59 174 63 217 8 201 9 217 -15z m9330
-103 c8 -22 -4 -45 -23 -45 -34 0 -113 -36 -159 -72 -26 -21 -52 -41 -57 -46
-6 -4 -20 -15 -31 -25 -25 -21 -54 -13 -54 14 0 12 7 19 19 19 14 0 21 10 26
36 4 24 13 38 26 41 10 3 19 9 19 14 0 5 5 9 10 9 6 0 29 9 53 19 54 25 127
50 148 51 9 0 19 -7 23 -15z m-6060 -69 c34 -52 57 -132 46 -160 -11 -30 -26
-34 -34 -8 -3 9 -18 31 -32 47 -14 17 -37 44 -51 62 -14 18 -30 30 -34 27 -4
-2 -10 0 -14 6 -3 5 -15 10 -26 10 -12 0 -19 5 -17 13 8 21 36 19 58 -3 30
-30 49 -12 33 30 -6 16 -8 31 -6 34 8 8 58 -30 77 -58z m4380 10 c4 -31 14
-60 23 -68 12 -10 65 -13 217 -13 111 1 215 4 231 8 22 6 26 5 15 -3 -12 -8
-9 -10 15 -11 18 -1 23 -3 12 -6 -12 -3 -17 -13 -15 -31 3 -25 0 -27 -42 -30
-25 -2 -49 -7 -54 -13 -6 -5 -102 -9 -218 -9 -158 0 -217 -3 -243 -14 -76 -32
-200 -28 -179 6 4 7 9 6 15 -3 5 -9 9 -10 9 -3 0 7 11 15 24 18 14 3 28 15 31
27 9 27 97 119 115 120 11 0 11 2 3 6 -14 5 -18 55 -6 66 3 4 14 7 24 7 13 0
18 -12 23 -54z m2484 23 c38 2 66 -4 98 -19 72 -35 69 -83 -10 -146 -31 -25
-33 -30 -28 -71 4 -38 1 -48 -23 -73 -15 -16 -34 -26 -41 -23 -8 3 -12 9 -9
13 9 15 -7 91 -19 87 -6 -2 -16 -23 -22 -48 -17 -65 -54 -138 -76 -150 -11 -6
-29 -31 -40 -56 -11 -25 -29 -48 -39 -50 -10 -3 -19 -9 -19 -14 0 -5 -4 -9
-10 -9 -5 0 -10 11 -10 25 0 18 -5 25 -20 25 -13 0 -20 -7 -20 -18 0 -10 -9
-28 -20 -39 -19 -21 -19 -21 10 -32 36 -12 39 -37 10 -74 -11 -14 -20 -28 -20
-31 0 -15 -26 -33 -42 -28 -15 4 -17 19 -17 131 0 106 3 131 20 159 10 18 19
39 19 47 0 7 6 15 14 18 7 3 33 44 56 91 24 48 54 98 67 112 16 18 23 37 23
67 0 31 5 45 20 55 11 7 20 21 20 31 0 24 17 32 50 24 14 -3 49 -5 78 -4z
m-290 -14 c23 -4 42 -9 42 -10 0 -10 -95 -99 -144 -136 -33 -24 -81 -66 -108
-93 -38 -38 -51 -47 -61 -37 -9 9 -9 15 1 29 7 9 21 36 31 58 11 23 25 44 33
47 10 4 10 8 -2 16 -12 8 -12 13 -2 23 9 9 12 9 12 -1 0 -8 9 -6 28 8 24 16
27 25 24 55 -6 55 19 62 146 41z m-8121 -31 c39 -15 43 -20 43 -51 0 -19 -4
-43 -10 -53 -8 -15 -4 -22 27 -41 21 -13 45 -31 55 -41 10 -10 25 -18 33 -18
8 0 15 -2 15 -4 0 -2 3 -11 6 -20 4 -12 -5 -10 -43 9 -87 41 -126 48 -221 35
-85 -11 -178 -13 -193 -4 -4 2 -9 -2 -12 -8 -2 -7 -8 -10 -12 -5 -15 13 33 47
67 47 43 0 108 18 108 30 0 6 -13 10 -29 10 -49 0 -52 52 -4 65 32 8 84 46 77
57 -9 14 48 9 93 -8z m4447 0 c3 -9 6 -37 6 -64 l0 -49 -64 -30 c-90 -42 -116
-48 -116 -25 0 10 9 36 20 58 46 92 136 157 154 110z m2399 -165 c12 -7 25
-16 28 -22 4 -5 26 -10 50 -11 67 -3 155 -56 132 -80 -4 -3 -29 -6 -57 -5 -38
0 -46 3 -31 9 15 6 8 9 -28 9 -31 1 -70 12 -112 31 -54 25 -65 34 -65 55 0 21
5 25 31 25 17 0 40 -5 52 -11z m-7208 -69 c20 -11 45 -20 55 -20 21 0 55 -16
78 -37 22 -20 47 -15 83 17 45 40 139 67 139 40 0 -5 -8 -28 -17 -49 -16 -37
-38 -55 -88 -72 -15 -5 -16 -7 -4 -8 9 -1 24 -12 32 -25 18 -27 93 -80 129
-91 31 -10 96 -41 133 -65 17 -10 43 -19 59 -19 35 -1 106 31 131 59 10 11 23
20 29 20 6 0 17 9 24 20 7 12 23 25 35 30 12 6 31 16 42 22 11 7 22 14 24 16
3 1 -3 8 -13 15 -10 7 -31 40 -46 73 -25 53 -26 60 -12 72 25 19 60 14 97 -15
26 -21 33 -33 29 -50 -5 -18 -1 -25 19 -32 14 -5 28 -15 32 -20 3 -6 15 -11
26 -11 21 0 69 -27 69 -40 0 -4 -22 -5 -49 -2 -73 7 -208 -47 -310 -125 -24
-19 -59 -40 -78 -48 -67 -28 -77 -57 -43 -127 11 -23 17 -51 14 -63 -3 -13 1
-27 10 -34 9 -8 16 -20 16 -27 0 -8 5 -14 10 -14 6 0 10 -10 10 -23 0 -13 7
-32 15 -43 23 -31 16 -114 -10 -114 -14 0 -48 47 -48 67 0 19 -70 107 -95 118
-24 11 -40 64 -26 87 5 7 -9 -2 -31 -20 -22 -17 -45 -32 -52 -32 -7 0 -13 -9
-13 -20 0 -16 -4 -18 -17 -11 -10 5 -25 12 -34 14 -13 4 -15 13 -9 49 5 23 13
59 19 78 6 19 11 47 11 62 0 26 -3 28 -45 28 -55 0 -67 -18 -59 -89 4 -33 2
-51 -5 -51 -6 0 -11 8 -12 18 0 14 -2 14 -9 -3 -8 -18 -9 -18 -9 5 -2 53 -12
69 -47 76 -40 7 -44 28 -14 67 13 17 20 40 20 70 0 43 -2 46 -43 66 -24 12
-51 21 -59 21 -27 0 -48 11 -48 26 0 8 -10 28 -21 44 -17 22 -33 30 -70 35
-27 4 -49 12 -50 18 -2 29 -8 50 -18 60 -20 20 -11 27 34 27 26 0 59 -8 80
-20z m4609 -4 c-3 -8 -9 -45 -12 -83 l-7 -68 -34 0 c-47 0 -76 39 -67 90 6 31
14 40 49 56 51 23 79 25 71 5z m-5265 -51 c71 -60 73 -62 59 -87 -7 -13 -19
-27 -25 -31 -16 -10 -17 -29 -1 -45 6 -6 13 -26 15 -43 4 -43 16 -55 70 -71
35 -10 49 -20 59 -43 7 -16 31 -52 53 -79 32 -38 41 -56 41 -87 0 -21 9 -61
20 -88 22 -56 16 -66 -30 -56 -25 5 -32 16 -55 74 -17 46 -34 72 -50 81 -14 7
-25 17 -25 22 0 4 -9 3 -20 -4 -26 -17 -25 -45 5 -110 45 -96 26 -149 -48
-134 -17 3 -28 3 -24 0 4 -4 -1 -13 -10 -20 -16 -11 -16 -17 -5 -58 16 -60 15
-79 -3 -122 l-15 -35 -34 26 c-43 32 -55 30 -70 -15 -11 -34 -12 -35 -59 -32
-26 2 -54 -1 -61 -7 -11 -9 -18 -8 -29 3 -8 8 -17 13 -20 10 -3 -3 -10 14 -15
38 -6 24 -16 57 -23 75 -11 28 -11 37 4 68 9 20 17 53 17 75 0 21 5 42 10 45
6 3 10 20 10 37 l0 31 -35 -36 c-33 -34 -65 -41 -65 -15 0 5 -13 7 -30 3 -19
-4 -30 -3 -30 4 0 6 14 40 30 74 17 35 30 70 30 77 0 7 36 47 80 90 l79 77
-29 40 c-16 22 -27 43 -23 47 3 3 2 6 -3 6 -26 1 -36 18 -24 40 15 28 71 79
87 80 23 0 63 50 63 79 0 37 4 40 58 38 30 -1 56 -9 71 -22z m5548 -13 c7 -4
16 -22 19 -40 6 -29 2 -37 -37 -75 -24 -23 -59 -50 -77 -59 -22 -12 -32 -24
-32 -41 0 -26 -23 -51 -57 -61 -37 -12 -36 13 3 48 36 33 37 35 31 90 -9 87 8
118 73 139 24 8 64 7 77 -1z m1953 -67 c0 -3 -9 -14 -20 -25 -23 -23 -26 -49
-7 -74 11 -15 17 -16 40 -5 31 14 52 2 42 -24 -7 -17 -106 -31 -235 -32 -73 0
-75 1 -78 26 -3 22 3 28 30 39 74 28 108 44 108 50 0 7 59 38 85 43 31 7 35 7
35 2z m-1384 -75 c53 -12 111 -46 126 -74 35 -64 52 -281 18 -227 -7 12 -11
11 -25 -2 -9 -10 -21 -17 -26 -17 -6 0 -15 -14 -21 -32 -10 -27 -12 -29 -23
-15 -7 10 -17 17 -23 17 -17 0 -32 35 -32 75 0 40 -24 94 -51 112 -10 8 -15
21 -12 32 3 10 -5 40 -16 66 -12 26 -21 53 -21 61 0 14 27 24 49 17 8 -2 34
-8 57 -13z m-1709 -60 c15 -33 6 -70 -17 -70 -30 0 -50 -11 -50 -27 0 -16 -53
-73 -68 -73 -5 0 -9 25 -8 55 1 50 5 58 46 100 50 51 78 55 97 15z m673 16
c-6 -6 -26 -9 -45 -8 -39 4 -53 -14 -57 -71 -2 -31 -6 -36 -41 -47 -34 -10
-42 -9 -59 7 -27 25 -18 80 18 109 23 19 39 22 110 21 58 -1 81 -4 74 -11z
m4355 -3 c5 -13 -6 -29 -42 -60 -39 -35 -45 -45 -33 -52 10 -7 21 -5 35 8 18
15 68 41 80 41 14 0 1 -45 -22 -79 -34 -47 -76 -75 -103 -66 -14 5 -28 -3 -50
-28 -19 -22 -46 -39 -74 -47 -55 -15 -106 -59 -106 -90 0 -20 -3 -22 -37 -15
-21 4 -41 9 -45 11 -17 11 -6 38 27 71 19 19 35 37 35 39 0 3 18 27 40 55 22
28 40 55 40 60 0 5 7 9 17 9 31 0 82 49 89 85 6 36 33 60 75 68 49 9 67 7 74
-10z m-4146 -97 c8 -10 10 -34 5 -75 -6 -57 -9 -62 -41 -78 -19 -9 -40 -24
-46 -35 -7 -10 -17 -18 -24 -18 -28 0 -83 -43 -83 -65 0 -12 -19 -43 -42 -69
-33 -38 -43 -45 -50 -33 -11 20 9 65 40 94 23 21 25 29 23 104 -2 86 4 105 57
162 23 24 33 27 88 27 41 0 65 -5 73 -14z m-3589 -24 c0 -38 -17 -94 -32 -104
-10 -5 -8 -11 8 -22 25 -18 38 -56 21 -61 -27 -8 -266 -11 -261 -3 3 5 -1 20
-10 33 -22 34 -1 50 40 29 26 -14 83 -15 151 -3 7 1 15 22 19 46 3 24 10 43
15 43 5 0 9 9 9 20 0 11 5 20 10 20 6 0 10 7 10 15 0 8 5 15 10 15 6 0 10 -12
10 -28z m-2750 -12 c8 -5 13 -10 10 -11 -35 -6 -44 -9 -52 -17 -5 -5 -2 -25 8
-51 9 -23 14 -44 11 -48 -3 -3 -21 4 -40 16 -40 25 -92 28 -101 6 -3 -8 -12
-15 -21 -15 -8 0 -14 -6 -12 -12 1 -7 -13 -19 -31 -27 -43 -20 -58 -66 -30
-97 10 -12 21 -37 25 -57 5 -33 3 -37 -23 -43 -57 -13 -74 -53 -49 -116 12
-30 -29 -21 -66 14 -19 18 -38 31 -42 30 -4 -1 -13 11 -18 27 -11 30 -59 58
-79 46 -8 -5 -9 -37 -4 -108 6 -90 5 -100 -9 -94 -17 6 -67 -34 -67 -53 0 -15
-27 -12 -44 6 -9 8 -16 13 -16 9 0 -3 -10 1 -22 9 -41 29 -88 15 -88 -27 0
-27 -54 -77 -83 -77 -32 0 -57 -9 -57 -21 0 -19 -39 -52 -55 -45 -11 4 -14 15
-11 38 7 53 50 174 66 188 3 3 18 33 33 68 19 46 45 80 91 125 81 78 92 87
110 87 7 0 16 6 19 13 3 7 31 19 62 27 31 8 67 22 80 32 13 10 28 18 34 18 5
0 16 9 23 19 8 11 48 33 90 50 42 16 100 42 130 56 36 18 75 28 123 32 38 2
72 6 74 9 7 6 14 5 31 -6z m3094 -157 c28 -9 76 -35 108 -59 37 -27 65 -41 75
-37 10 4 14 2 10 -4 -8 -13 68 -87 82 -79 6 4 12 22 12 39 1 26 3 23 12 -18
11 -56 20 -66 60 -63 20 2 27 8 27 23 0 35 11 63 27 69 13 5 15 -2 11 -49 -3
-31 -1 -58 3 -61 5 -2 6 -11 2 -19 -3 -9 1 -15 11 -15 9 0 16 -4 16 -9 0 -5
17 -20 38 -33 24 -15 32 -24 21 -26 -24 -4 -207 95 -274 149 -33 27 -85 61
-115 76 -30 15 -66 35 -80 45 -33 22 -122 37 -187 31 -52 -5 -53 -5 -53 20 0
19 6 27 23 30 49 9 125 5 171 -10z m3852 -111 c0 -71 -10 -99 -32 -84 -6 4
-14 16 -18 27 -12 33 -27 -4 -20 -51 6 -39 4 -41 -26 -50 -17 -5 -30 -13 -28
-19 3 -11 54 -11 230 0 98 7 126 5 177 -10 33 -10 63 -25 66 -33 9 -23 -4 -27
-19 -6 -13 17 -14 17 -9 -8 6 -34 0 -35 -175 -41 -85 -3 -138 -9 -147 -17 -9
-8 -30 -11 -54 -7 -22 2 -43 1 -48 -4 -5 -5 -36 -12 -69 -15 -56 -6 -62 -5
-78 17 -22 32 -21 84 4 109 11 11 20 31 20 44 0 85 125 228 195 223 l30 -2 1
-73z m-1477 -52 c-2 -46 2 -64 15 -79 23 -25 15 -48 -19 -57 -14 -3 -25 -13
-25 -20 0 -22 -24 -94 -31 -94 -4 0 -14 -18 -23 -40 -21 -52 -36 -51 -36 4 0
45 -12 55 -64 56 -18 0 -18 -1 -3 -18 13 -14 14 -21 5 -30 -6 -6 -11 -25 -10
-43 0 -17 -2 -29 -5 -26 -10 11 -73 -75 -73 -100 0 -68 -40 -131 -56 -89 -3 8
-15 11 -30 8 -23 -4 -25 -8 -19 -43 7 -41 -1 -79 -16 -79 -5 0 -9 7 -9 15 0
22 -21 18 -52 -10 -19 -16 -28 -34 -28 -54 0 -43 -30 -103 -48 -96 -9 3 -28
-10 -47 -32 -32 -37 -33 -37 -28 -10 3 15 9 30 14 33 21 13 8 34 -22 34 l-31
0 3 98 c3 136 7 152 34 152 17 0 24 -7 29 -31 3 -18 2 -37 -4 -44 -5 -6 -7
-15 -3 -19 4 -3 8 -32 9 -64 2 -71 2 -72 14 -72 5 0 12 12 16 28 11 48 68 151
90 161 18 8 22 21 27 87 6 62 4 81 -8 94 -8 9 -15 20 -15 24 0 13 34 43 68 60
18 9 36 24 39 32 6 17 33 19 34 2 0 -20 55 -59 73 -52 21 8 17 84 -6 107 -20
21 -38 22 -38 3 0 -8 -7 -17 -16 -20 -13 -5 -15 -1 -10 21 8 34 34 55 57 48
26 -9 99 29 99 51 0 4 -7 16 -17 26 -9 10 -14 20 -12 21 2 2 25 16 52 31 34
20 47 33 47 50 0 30 7 36 47 36 l34 0 -2 -60z m-2405 -39 c0 -33 -5 -47 -33
-75 -32 -33 -33 -34 -13 -45 12 -6 30 -11 41 -11 25 0 101 -29 101 -39 0 -4
33 -30 73 -57 93 -63 107 -72 135 -84 12 -5 22 -14 22 -20 0 -21 62 -48 99
-43 34 4 35 4 17 -11 -36 -29 -34 -30 -240 106 -82 54 -156 98 -163 98 -7 0
-13 5 -13 10 0 6 -37 10 -90 10 l-90 0 0 37 c0 55 46 142 87 161 18 9 33 20
33 26 0 6 7 3 16 -6 9 -9 17 -34 18 -57z m3396 4 c7 -8 9 -26 5 -44 -5 -22 -2
-32 11 -39 11 -6 17 -25 19 -58 2 -27 10 -73 18 -101 12 -44 12 -53 1 -53 -8
0 -21 -14 -29 -30 -17 -32 -49 -50 -91 -50 -31 0 -33 34 -3 66 l21 23 -21 30
c-12 16 -35 41 -52 56 -31 26 -32 26 -53 7 -11 -11 -31 -25 -43 -31 -24 -12
-92 -15 -109 -3 -16 10 1 52 21 52 8 0 15 4 15 9 0 5 14 12 30 16 21 5 30 12
30 27 0 11 11 29 25 40 14 11 25 25 25 31 1 7 17 24 38 39 43 31 121 38 142
13z m2193 -45 c6 -24 8 -24 -75 -44 -37 -9 -84 -24 -105 -32 -21 -9 -53 -22
-71 -30 -30 -12 -32 -15 -19 -29 10 -9 34 -15 65 -15 63 0 82 -7 82 -31 0 -16
8 -19 55 -19 43 0 53 3 49 14 -3 8 -16 17 -30 20 -25 7 -34 26 -11 26 6 0 23
3 36 7 22 5 23 4 18 -19 -7 -27 5 -43 37 -49 11 -3 25 -21 35 -49 13 -36 21
-45 40 -45 14 0 26 -5 28 -11 5 -15 -81 -11 -132 7 -22 7 -54 24 -72 37 -21
16 -39 21 -53 17 -12 -4 -53 4 -98 18 -42 14 -108 32 -147 40 -85 20 -384 35
-393 20 -11 -16 -182 -33 -211 -21 -15 6 -41 10 -60 9 -30 0 -33 2 -26 22 4
12 9 36 12 54 6 40 25 57 53 48 29 -9 91 -73 77 -78 -24 -8 1 -18 29 -11 25 6
26 8 9 15 -14 5 -8 8 23 8 23 1 53 7 65 15 12 8 54 16 92 20 68 6 286 -7 353
-20 25 -5 38 -2 55 13 21 19 191 83 220 83 8 0 20 7 27 15 17 21 37 19 43 -5z
m-6592 -17 l1 -28 7 30 7 30 6 -27 c3 -18 0 -32 -9 -39 -7 -7 -12 -19 -11 -28
2 -9 -4 -16 -12 -16 -9 0 -14 8 -13 20 1 11 0 14 -3 8 -3 -7 -12 -13 -20 -13
-16 0 -19 -26 -4 -35 5 -3 9 -23 8 -43 0 -21 5 -48 13 -60 12 -20 12 -24 -3
-33 -10 -6 -18 -14 -18 -20 0 -15 44 -56 68 -63 12 -4 43 -32 69 -62 26 -29
54 -56 62 -59 20 -7 61 -87 61 -118 0 -31 34 -100 44 -90 4 4 7 -10 5 -32 -5
-74 1 -103 26 -133 17 -21 21 -32 13 -40 -8 -8 -7 -23 2 -56 10 -38 10 -49 -1
-62 -11 -14 -15 -11 -35 21 -26 44 -79 78 -110 72 -30 -5 -38 17 -28 78 5 35
3 50 -10 64 -19 21 -55 18 -84 -9 -10 -10 -39 -22 -65 -27 l-46 -10 -7 64 c-8
76 5 126 40 164 23 25 24 28 8 42 -21 19 -40 22 -72 13 -14 -3 -41 -8 -60 -10
-19 -2 -38 -4 -42 -5 -5 0 -8 -10 -8 -22 0 -11 -4 -17 -10 -14 -14 9 -13 -8 2
-23 6 -6 8 -15 3 -19 -4 -5 -10 -2 -12 5 -3 6 -16 12 -29 12 -13 0 -24 6 -24
13 1 31 34 102 75 161 25 36 45 69 45 74 0 16 -23 30 -62 37 -30 6 -38 4 -38
-8 0 -8 -7 -17 -15 -21 -8 -3 -15 -1 -15 3 0 5 4 11 9 13 6 2 6 18 2 38 -8 40
-19 41 -90 9 -30 -14 -40 -23 -32 -29 10 -6 10 -9 1 -15 -8 -5 -10 -23 -6 -57
9 -62 -3 -170 -17 -165 -7 2 -12 48 -14 117 -2 90 -6 116 -18 122 -19 11 -20
29 0 22 21 -8 38 41 32 90 -4 30 -15 48 -44 73 -62 54 -64 56 -90 56 -22 0
-24 1 -9 9 22 13 87 13 95 1 3 -5 22 -16 41 -25 19 -9 41 -26 48 -37 7 -12 22
-21 35 -21 12 0 41 -7 65 -15 52 -18 60 -15 131 60 48 51 113 92 149 94 6 1
13 -11 13 -26z m5103 -219 c31 -12 18 -51 -26 -81 -33 -22 -44 -36 -46 -60 -2
-19 -14 -41 -33 -57 -16 -14 -29 -31 -29 -36 0 -6 -9 -20 -20 -32 -25 -27 -25
-31 -1 -52 18 -17 20 -16 42 23 12 23 27 41 33 41 6 0 19 14 28 30 11 19 28
33 46 36 19 4 32 15 39 35 13 35 33 38 33 6 0 -13 -21 -46 -50 -79 -27 -31
-50 -59 -50 -63 0 -3 -14 -18 -30 -32 -30 -25 -31 -26 -10 -40 27 -19 25 -41
-5 -49 -14 -3 -25 -10 -25 -15 0 -5 -9 -9 -20 -9 -11 0 -20 5 -20 10 0 6 -7
10 -15 10 -8 0 -15 -5 -15 -11 0 -6 -12 -9 -27 -7 -33 4 -46 38 -15 38 27 0
23 29 -7 48 -38 24 -54 52 -30 52 6 0 26 7 44 16 24 11 34 24 38 47 21 125 42
192 68 224 12 13 75 18 103 7z m-6613 -142 c-7 -78 -5 -121 6 -143 11 -22 28
-97 40 -175 5 -30 3 -31 -38 -38 -47 -7 -72 -23 -63 -38 3 -5 0 -16 -8 -25 -9
-12 -9 -15 0 -9 6 4 12 3 12 -3 0 -6 -10 -15 -21 -22 -19 -9 -25 -7 -43 15
-12 16 -35 29 -55 32 -36 6 -81 -11 -81 -30 0 -13 -36 -46 -49 -46 -5 0 -9 26
-9 57 1 31 -3 58 -9 60 -6 2 -18 10 -28 17 -16 12 -17 18 -5 79 8 37 17 67 21
67 4 0 10 10 14 23 5 12 11 31 15 42 4 11 3 25 -2 31 -20 26 81 174 119 174 7
0 17 9 23 20 6 11 22 23 35 26 14 3 25 11 25 17 0 6 23 -12 52 -41 47 -47 52
-56 49 -90z m7416 109 c5 5 7 -5 5 -25 -2 -19 3 -47 13 -66 13 -25 15 -46 10
-86 -3 -30 -11 -56 -16 -59 -5 -4 -9 -12 -9 -19 0 -10 63 -16 283 -25 417 -17
528 -26 612 -47 35 -8 49 -25 32 -36 -18 -11 -152 -10 -183 2 -31 12 -304 17
-322 6 -6 -3 -140 -11 -297 -15 -157 -5 -292 -14 -298 -19 -14 -11 -77 -21
-77 -13 0 3 16 24 35 45 35 39 39 50 35 94 -1 13 4 30 12 39 7 9 15 52 18 101
4 72 8 87 25 96 11 6 22 14 25 17 10 12 36 16 61 8 15 -4 31 -3 36 2z m-4557
-243 c-2 -144 -3 -138 25 -138 24 0 24 1 27 108 3 95 5 107 21 104 9 -2 17 1
17 7 0 5 8 8 18 7 15 -3 17 -17 20 -119 l3 -117 53 0 c60 0 66 6 58 58 -3 20
0 32 7 32 6 0 14 1 19 3 4 1 10 -18 13 -43 4 -25 10 -54 14 -66 6 -20 4 -21
-82 -16 -48 3 -128 5 -176 4 -49 -1 -97 3 -107 8 -12 7 -21 7 -25 0 -4 -6 -13
-5 -24 2 -18 11 -16 13 16 31 29 15 37 16 44 5 11 -16 11 -11 13 103 2 83 13
119 38 119 5 0 9 -41 8 -92z m6524 76 c12 -4 16 -20 16 -55 0 -53 11 -46 -102
-64 -26 -4 -88 20 -88 33 1 14 69 80 87 85 28 7 70 8 87 1z m734 -57 c36 -35
39 -54 15 -100 -26 -51 -33 -95 -17 -108 21 -18 17 -27 -17 -34 -21 -5 -36 -2
-47 8 -30 28 -106 50 -169 52 -75 1 -87 10 -73 52 9 25 24 37 78 61 43 19 81
45 105 72 32 36 41 41 65 35 15 -3 42 -20 60 -38z m-7608 -66 c0 -66 12 -98
43 -116 17 -10 41 -28 52 -40 11 -12 31 -25 45 -28 27 -7 92 -67 72 -67 -6 0
-13 4 -17 9 -3 6 -49 36 -103 67 -179 105 -252 152 -252 164 0 20 23 21 43 2
12 -11 32 -23 45 -27 19 -5 22 -3 22 22 0 16 5 34 11 40 18 18 39 4 39 -26z
m-536 -111 c30 -14 49 -34 69 -71 27 -49 29 -50 70 -47 36 2 42 0 45 -18 4
-26 -1 -27 -162 -49 -84 -12 -122 -13 -129 -6 -8 8 -5 11 10 11 29 0 35 22 33
118 -1 92 0 94 64 62z m4722 -111 c32 -6 65 -15 72 -21 6 -6 12 -30 12 -54 0
-23 5 -46 10 -49 6 -3 10 -49 10 -103 0 -77 -4 -105 -19 -134 -11 -19 -18 -37
-16 -39 2 -2 -68 -2 -156 1 -170 5 -179 8 -179 57 0 12 -7 28 -15 36 -8 8 -12
17 -9 19 3 3 -7 3 -21 0 -20 -3 -24 -1 -19 11 3 8 1 18 -5 22 -6 3 -11 12 -11
20 0 11 6 12 32 3 26 -9 33 -8 45 7 7 11 13 21 13 25 0 3 -27 17 -60 32 -65
29 -84 61 -32 58 57 -4 82 0 82 14 0 9 -15 17 -40 21 -50 8 -62 25 -19 25 18
0 41 7 51 16 12 11 46 19 98 24 44 4 83 10 87 14 9 8 20 8 89 -5z m-948 -43
c2 -10 -2 -22 -9 -27 -7 -4 -13 -25 -13 -46 0 -27 -6 -42 -20 -53 -12 -8 -24
-14 -27 -13 -4 1 -10 -8 -13 -22 -5 -19 -12 -23 -33 -22 -25 2 -29 8 -37 50
-13 76 8 126 58 131 15 2 33 9 39 15 17 17 51 9 55 -13z m470 -26 c26 -10 30
-15 21 -26 -6 -8 -18 -14 -25 -14 -8 0 -14 -4 -14 -10 0 -5 18 -10 39 -10 26
0 41 -5 45 -16 10 -26 7 -34 -13 -34 -11 0 -23 -9 -26 -20 -3 -11 -12 -20 -19
-20 -20 0 -56 39 -56 61 0 11 -4 17 -10 14 -14 -8 -55 35 -63 66 -6 25 -5 26
41 24 26 -2 62 -8 80 -15z m-3838 2 c0 -5 32 -16 71 -26 53 -13 80 -25 104
-49 l34 -33 -42 -33 c-23 -17 -51 -38 -62 -46 -18 -13 -17 -14 11 -6 42 12 74
30 74 41 0 6 5 10 10 10 14 0 13 -67 -1 -76 -6 -3 -15 0 -20 7 -7 11 -14 8
-33 -14 -25 -29 -25 -67 0 -67 9 0 14 -11 14 -30 0 -37 -13 -38 -78 -5 -27 14
-67 28 -88 33 -35 7 -39 11 -39 37 0 28 3 30 45 36 33 4 38 7 18 9 -66 6 -68
10 -68 105 0 63 4 88 16 99 17 17 34 21 34 8z m328 -16 c38 -20 76 -63 107
-121 16 -31 34 -52 48 -55 18 -5 23 -15 27 -59 7 -64 -3 -74 -26 -26 -9 19
-22 34 -29 33 -15 -3 -155 140 -155 158 0 17 -26 24 -39 11 -8 -8 -16 -6 -31
8 -26 24 -27 50 -1 36 14 -8 23 -6 36 9 22 24 28 24 63 6z m3402 -76 c24 -12
46 -33 55 -53 23 -48 58 -96 72 -97 23 0 39 -55 23 -75 -7 -9 -5 -16 5 -25 13
-11 8 -17 -37 -46 -40 -25 -64 -34 -100 -34 -27 0 -48 -5 -51 -12 -3 -7 -6 -4
-6 7 -1 33 -42 99 -77 125 -39 30 -54 66 -53 129 1 25 3 37 6 26 9 -36 23 -40
29 -7 5 24 13 32 35 37 15 4 31 15 34 26 8 24 16 24 65 -1z m1220 -35 c17 -9
30 -13 30 -10 0 4 10 -1 22 -9 12 -9 35 -16 50 -16 25 0 28 -5 34 -40 4 -22
12 -44 18 -47 12 -8 80 -17 206 -29 41 -4 78 -11 81 -17 4 -6 15 -1 25 11 16
19 28 22 112 21 105 0 122 7 104 46 -16 34 -16 35 11 35 29 0 53 -15 38 -24
-16 -10 -13 -56 4 -62 36 -14 8 -22 -92 -26 -68 -3 -108 -9 -111 -16 -5 -15
-102 -16 -102 -2 0 6 -9 10 -20 10 -11 0 -20 -4 -20 -9 0 -17 -108 -22 -152
-6 -24 8 -55 15 -70 15 -15 0 -49 5 -75 11 -116 27 -185 78 -163 118 5 11 10
29 10 40 0 25 20 27 60 6z m-9 -193 c13 -10 38 -24 54 -31 17 -8 40 -18 52
-24 25 -11 31 -25 35 -80 1 -21 6 -41 10 -43 18 -11 7 -26 -14 -21 -104 27
-156 39 -174 38 -24 -1 -34 22 -34 80 0 95 21 119 71 81z m-614 -107 c37 -14
77 -35 89 -46 28 -27 36 -56 17 -63 -25 -10 -111 -7 -118 4 -3 6 -18 10 -33
10 -27 0 -113 71 -125 104 -10 26 90 21 170 -9z m-421 -94 c1 -32 25 -61 33
-40 2 7 7 6 12 -2 6 -10 9 -11 9 -1 0 6 11 12 24 12 27 0 66 -52 66 -89 0 -18
6 -21 45 -21 43 0 45 -1 45 -28 0 -25 5 -30 43 -41 23 -7 48 -18 55 -23 7 -6
16 -8 20 -4 4 4 0 13 -9 19 -19 14 -43 82 -34 97 8 13 45 13 45 0 0 -16 83
-12 108 5 19 14 25 14 49 2 14 -8 28 -23 29 -33 2 -11 8 -39 13 -64 15 -65 14
-263 -1 -278 -16 -16 -49 -15 -72 3 -23 17 -62 20 -71 5 -10 -15 -43 -12 -53
6 -7 13 -29 15 -163 10 -85 -3 -186 -8 -226 -12 -66 -5 -72 -4 -78 15 -10 34
-55 81 -76 81 -10 0 -19 -3 -19 -7 0 -14 44 -53 61 -53 9 0 19 -9 22 -21 6
-20 3 -21 -61 -14 -102 10 -113 14 -127 50 -9 19 -17 99 -21 208 l-7 176 24 5
c13 3 44 7 69 11 46 6 58 9 165 44 33 11 65 18 70 17 6 -2 10 -17 11 -35z
m1217 -75 c37 -20 67 -41 67 -46 0 -6 7 -10 15 -10 8 0 15 -6 15 -14 0 -8 9
-17 19 -21 32 -10 44 -31 31 -54 -10 -20 -12 -20 -58 14 -26 19 -61 46 -79 60
-17 14 -55 35 -85 47 -29 12 -57 28 -61 35 -5 7 -12 11 -18 8 -5 -4 -9 -2 -9
4 0 33 85 21 163 -23z m-114 -88 c19 -21 41 -38 47 -38 7 0 15 -8 18 -18 12
-37 25 -170 26 -253 0 -70 3 -89 18 -102 10 -10 21 -15 24 -12 7 7 109 -24
133 -41 19 -14 19 -14 -3 -14 -12 0 -39 7 -59 15 -19 8 -48 15 -64 15 -15 0
-31 5 -34 10 -3 6 -22 10 -41 10 -19 0 -48 7 -63 15 -16 8 -51 16 -79 17 -61
4 -60 2 -68 190 -5 110 5 221 22 250 2 3 23 4 46 0 31 -4 50 -14 77 -44z m498
-373 c45 -36 88 -65 97 -65 8 0 17 -4 21 -9 3 -5 29 -17 58 -25 66 -19 115
-61 121 -103 6 -45 -18 -51 -57 -13 -29 29 -108 80 -122 80 -3 0 -11 -13 -16
-30 -10 -26 -15 -30 -44 -27 -18 1 -33 6 -32 12 1 5 -8 11 -20 13 -13 2 -23 8
-23 13 0 5 -10 9 -22 9 -43 1 -55 20 -62 107 -7 79 -4 103 12 103 4 0 44 -29
89 -65z m-1883 26 c3 -5 25 -12 48 -15 111 -16 181 -18 327 -7 147 11 163 11
232 -8 107 -29 142 -46 177 -86 41 -46 43 -58 40 -189 l-3 -108 -85 -4 c-63
-2 -88 -7 -96 -19 -10 -13 -42 -16 -210 -18 -187 -2 -204 0 -274 22 -41 14
-82 31 -91 38 -9 7 -18 10 -22 7 -3 -3 -3 5 0 18 5 21 4 21 -8 6 -13 -16 -18
-15 -72 7 -54 22 -136 84 -146 109 -2 6 -9 15 -15 19 -6 5 -1 6 11 2 16 -4 23
-1 28 15 15 47 153 64 187 23 11 -14 14 -11 20 23 6 36 4 41 -33 74 -31 27
-39 42 -39 68 0 30 12 42 24 23z m1456 -151 c18 -9 20 -20 19 -93 -2 -130 -2
-130 -91 -142 -67 -9 -77 -8 -86 6 -6 9 -14 69 -18 134 l-7 118 82 -6 c44 -4
90 -11 101 -17z m24 -373 c3 -12 7 -171 9 -354 3 -238 1 -333 -7 -336 -20 -8
-130 13 -153 29 -14 8 -23 25 -23 39 0 19 5 25 23 25 12 0 29 4 37 10 11 7 -4
17 -60 44 -41 20 -87 36 -102 36 -35 0 -44 16 -17 30 15 9 24 9 32 1 6 -6 24
-11 39 -11 44 0 53 30 39 143 -6 53 -11 151 -11 220 l0 124 28 13 c36 18 122
28 144 18 10 -5 20 -19 22 -31z m-7220 -161 c15 -13 26 -29 26 -35 0 -7 4 -10
8 -7 5 3 16 -4 25 -15 10 -11 22 -17 27 -14 6 3 10 -3 10 -14 0 -14 -6 -21
-19 -21 -24 0 -71 -44 -71 -67 0 -10 12 -35 26 -56 14 -21 28 -54 31 -73 4
-27 11 -36 32 -40 45 -10 51 -13 49 -26 -2 -6 10 -18 26 -26 27 -13 28 -17 22
-60 -3 -24 -6 -52 -6 -61 0 -24 -55 -42 -88 -30 -15 6 -30 16 -34 22 -10 17
-98 14 -109 -4 -15 -24 -11 -173 6 -195 8 -10 15 -26 15 -36 0 -9 13 -21 30
-27 38 -13 39 -37 3 -45 -16 -4 -42 -23 -59 -43 -22 -25 -35 -33 -45 -27 -8 5
-23 7 -34 6 -17 -2 -17 -1 -5 7 12 9 9 11 -12 11 -16 0 -28 -4 -28 -10 0 -5
-7 -7 -15 -4 -8 4 -26 -7 -44 -27 -17 -18 -32 -31 -34 -28 -2 2 -11 24 -20 48
-16 42 -16 47 1 95 9 28 22 56 29 61 18 16 55 103 48 115 -3 5 -22 10 -41 10
-35 0 -35 0 -28 38 8 43 37 121 44 119 17 -3 70 31 70 45 0 10 13 32 28 50 16
18 32 50 35 72 l6 38 -47 -6 c-47 -6 -87 7 -66 22 6 4 13 15 17 25 3 9 16 17
27 17 11 0 20 6 20 14 0 8 7 16 15 19 13 6 35 48 65 127 13 33 29 60 36 60 2
0 14 -11 28 -24z m444 -325 c6 -1 12 -6 12 -13 0 -7 14 -26 30 -43 25 -26 29
-36 24 -63 -5 -25 -9 -30 -20 -21 -7 6 -22 8 -32 5 -26 -9 -67 11 -80 38 -6
11 -13 40 -16 64 l-6 43 37 -5 c21 -3 44 -5 51 -5z m297 -190 c-4 -25 -8 -56
-9 -68 0 -13 -8 -23 -16 -23 -9 0 -25 -7 -36 -15 -19 -13 -23 -12 -42 15 -12
16 -22 33 -22 38 0 5 -9 19 -20 32 -27 31 -25 40 8 41 15 0 50 8 77 18 28 9
54 15 58 13 5 -2 6 -25 2 -51z m79 -36 c-3 -8 -14 -17 -25 -20 -23 -8 -23 -15
-5 -60 12 -29 20 -35 45 -35 43 0 71 53 34 63 -14 4 -12 5 5 6 17 1 22 -4 22
-23 0 -16 12 -34 31 -49 l32 -24 -22 -22 c-11 -11 -21 -27 -21 -34 0 -7 -11
-28 -24 -47 -13 -20 -25 -44 -27 -55 -3 -15 -13 -20 -42 -21 -31 -1 -43 5 -77
42 -28 30 -40 53 -40 73 0 16 -6 31 -12 34 -10 4 -10 7 0 18 6 7 12 20 12 29
0 13 -1 13 -10 0 -8 -12 -10 -11 -10 8 0 13 6 22 15 22 9 0 18 7 21 15 4 8 10
12 15 9 5 -3 9 2 9 10 0 9 4 16 9 16 5 0 11 9 14 21 3 12 10 18 15 15 5 -3 12
4 15 15 3 12 10 18 16 15 6 -4 8 -13 5 -21z"/>
<path d="M10220 7190 c0 -17 -70 -80 -95 -86 -26 -7 -35 -29 -35 -96 0 -41 4
-50 27 -65 57 -38 174 -2 247 75 34 36 36 43 16 87 -42 97 -39 95 -102 95 -33
0 -58 -4 -58 -10z"/>
<path d="M1198 6489 c-22 -12 -23 -29 -3 -29 8 0 44 -12 80 -27 49 -20 71 -36
90 -64 23 -35 68 -59 113 -59 18 0 116 -99 135 -137 30 -56 131 -123 187 -123
33 0 40 3 40 19 0 11 -4 23 -10 26 -5 3 -10 1 -10 -4 0 -19 -18 -12 -25 9 -4
11 -17 32 -30 46 -13 14 -33 54 -45 87 -16 48 -27 66 -53 81 -17 11 -37 19
-44 18 -6 -2 -14 7 -18 18 -6 18 -15 20 -89 20 -79 0 -84 1 -112 30 -76 80
-161 116 -206 89z"/>
<path d="M999 6179 c-2 -27 3 -54 12 -63 5 -6 9 -25 9 -44 0 -30 -2 -33 -22
-27 -22 6 -22 5 -5 -9 12 -9 18 -25 16 -43 -4 -35 7 -53 31 -53 24 0 28 14 22
83 l-5 57 52 0 c71 0 67 22 -10 50 -34 13 -70 32 -80 44 -14 15 -19 16 -20 5z"/>
<path d="M1523 6136 c-13 -7 -20 -16 -16 -19 3 -4 -2 -7 -13 -7 -11 0 -15 -3
-8 -8 6 -4 16 -17 22 -29 7 -12 25 -24 42 -28 23 -5 30 -12 30 -31 0 -21 4
-24 40 -24 43 0 57 23 20 33 -17 4 -19 9 -10 32 13 35 14 31 -20 65 -33 32
-52 35 -87 16z"/>
<path d="M570 5730 c0 -5 -7 -10 -15 -10 -8 0 -15 -8 -15 -19 0 -15 -11 -19
-67 -24 -56 -6 -70 -4 -80 9 -16 22 -59 11 -90 -22 -12 -13 -29 -24 -37 -24
-21 0 -29 -34 -17 -77 6 -21 11 -50 11 -65 0 -29 26 -44 58 -34 18 6 42 57 42
89 0 9 5 28 12 42 8 19 19 25 43 25 17 0 41 9 53 20 22 21 62 27 62 10 0 -5 9
-10 20 -10 11 0 20 -4 20 -10 0 -5 7 -10 15 -10 8 0 15 -5 15 -12 0 -21 19 5
23 32 2 13 10 26 18 28 8 3 18 11 22 18 5 9 27 14 60 14 29 0 59 5 67 10 11 7
11 10 2 10 -7 0 -10 5 -7 10 4 6 -33 10 -104 10 -67 0 -111 -4 -111 -10z"/>
<path d="M81 5609 c-18 -4 -38 -13 -42 -21 -5 -7 -8 -46 -7 -86 2 -61 -1 -75
-15 -83 -16 -9 -25 -69 -11 -69 3 0 38 8 77 17 53 13 72 14 75 5 9 -27 22 -10
22 28 0 38 -13 54 -23 28 -11 -33 -19 10 -18 95 2 102 4 99 -58 86z"/>
<path d="M7078 4493 c-10 -2 -18 -9 -18 -14 0 -11 -41 -72 -52 -77 -15 -7 -8
-31 15 -49 12 -10 34 -32 48 -50 l27 -32 28 24 c25 22 28 30 26 79 -3 61 -26
127 -45 125 -6 -1 -20 -3 -29 -6z"/>
<path d="M6610 2450 c-6 -12 -9 -32 -6 -43 6 -25 -19 -57 -44 -57 -21 0 -53
-27 -69 -58 -12 -22 -14 -22 -30 -8 -27 25 -80 21 -91 -6 -5 -13 -9 -20 -9
-17 -1 4 -17 -8 -36 -25 -41 -38 -46 -77 -13 -100 12 -9 17 -16 10 -16 -14 0
-82 -67 -82 -82 0 -5 5 -18 11 -29 10 -20 3 -63 -9 -55 -13 8 -39 -19 -61 -62
-16 -31 -27 -42 -44 -42 -22 0 -65 -24 -79 -44 -4 -6 -8 -21 -8 -34 0 -14 -9
-26 -22 -32 -45 -18 -80 -48 -105 -90 -47 -78 0 -124 62 -60 16 17 36 30 44
30 8 0 32 17 53 37 30 29 41 34 50 25 19 -19 46 -14 59 11 7 12 16 24 20 27
12 8 59 113 54 120 -2 4 15 25 39 48 33 31 48 57 65 109 28 86 28 86 77 110
52 25 66 21 53 -15 -6 -15 -10 -28 -10 -29 1 -2 -9 -15 -22 -29 -12 -14 -22
-30 -22 -35 0 -6 -15 -23 -32 -38 -21 -18 -33 -38 -33 -54 0 -14 -8 -33 -17
-42 -26 -26 -53 -82 -53 -109 0 -38 40 -71 55 -46 3 6 17 10 31 10 31 0 63 32
71 71 4 22 8 27 14 17 7 -10 9 -8 9 5 0 11 14 32 31 48 l32 30 27 -32 28 -31
41 40 c44 43 46 49 30 85 -8 19 -16 22 -40 19 -26 -4 -29 -1 -29 22 0 14 5 26
10 26 6 0 10 5 10 10 0 6 -7 10 -15 10 -43 0 -15 81 34 98 22 8 33 20 42 50
11 37 9 43 -12 74 -13 18 -28 36 -35 41 -19 11 -26 59 -15 108 11 49 -1 73
-19 39z"/>
<path d="M1823 2397 c-13 -13 -23 -35 -23 -51 0 -21 -15 -42 -62 -87 -35 -32
-71 -62 -80 -65 -10 -3 -18 -11 -18 -19 0 -8 -9 -17 -20 -20 -11 -3 -20 -10
-20 -15 0 -5 -7 -6 -17 -3 -12 5 -14 3 -8 -7 6 -10 4 -12 -7 -7 -21 8 -78 -49
-85 -85 -7 -35 -25 -50 -70 -57 -28 -5 -41 -14 -56 -41 -10 -19 -24 -37 -29
-39 -6 -2 -20 -14 -31 -27 -12 -14 -27 -22 -34 -20 -14 6 -16 -4 -13 -41 1
-20 -3 -23 -35 -23 -24 0 -51 -11 -86 -35 -28 -19 -55 -35 -61 -35 -5 0 -5 -7
1 -17 10 -18 -13 -78 -27 -69 -4 2 -15 -1 -25 -8 -19 -14 -43 -152 -32 -186 4
-14 2 -20 -8 -20 -27 0 -79 -58 -108 -120 -50 -110 -48 -103 -28 -143 21 -40
48 -49 56 -17 4 14 14 20 33 20 19 0 35 9 49 28 11 15 24 30 28 34 5 3 25 23
47 42 46 42 83 51 156 38 49 -9 56 -8 68 9 8 11 40 46 72 77 48 48 56 61 48
76 -6 10 -9 58 -6 110 3 82 7 96 32 128 15 20 51 55 81 77 29 22 64 51 78 63
76 70 95 86 100 82 2 -3 18 12 35 33 17 21 42 48 54 61 20 21 23 34 25 123 1
75 5 103 17 115 9 8 16 20 16 25 0 6 24 21 53 33 64 29 98 63 77 76 -8 6 -10
10 -5 10 6 0 3 5 -5 10 -29 18 -103 11 -127 -13z"/>
<path d="M12786 1155 c-4 -11 -22 -15 -76 -15 -63 0 -70 -2 -70 -20 0 -11 -6
-20 -12 -20 -7 0 -43 -12 -80 -27 -57 -22 -68 -30 -68 -50 0 -22 -3 -23 -70
-23 -40 0 -70 -4 -70 -10 0 -6 -46 -10 -119 -10 -88 0 -120 -3 -124 -13 -3 -9
5 -12 29 -9 32 4 34 3 34 -27 0 -30 -2 -31 -40 -31 -33 0 -40 -3 -40 -20 0
-17 -7 -20 -40 -20 -38 0 -40 -2 -40 -30 0 -23 4 -30 20 -30 18 0 20 -7 20
-60 l0 -60 60 0 c53 0 60 -2 60 -20 0 -16 -7 -20 -30 -20 -16 0 -39 -9 -49
-19 -20 -20 -20 -20 -1 -26 11 -3 40 -3 66 1 49 7 88 -6 113 -39 8 -11 21 -17
32 -14 10 3 35 -1 56 -8 27 -10 32 -14 17 -17 -10 -2 7 -4 39 -4 38 -1 63 -7
75 -18 11 -10 36 -16 62 -16 41 0 109 -17 120 -31 3 -3 35 -17 73 -31 l67 -26
0 389 c0 214 -2 389 -4 389 -2 0 -6 -7 -10 -15z"/>
<path d="M12097 145 c-20 -14 -21 -25 -5 -60 8 -18 19 -25 40 -25 33 0 63 -13
94 -41 19 -18 37 -19 240 -17 l219 3 -100 32 c-122 39 -127 41 -190 49 -27 3
-52 9 -55 13 -3 4 -27 9 -55 10 -27 1 -60 9 -72 17 -12 7 -32 14 -43 14 -12 0
-29 4 -38 9 -11 6 -23 5 -35 -4z"/>
</g>
</svg>
