<?xml version="1.0" standalone="no"?>
<!DOCTYPE svg PUBLIC "-//W3C//DTD SVG 20010904//EN"
 "http://www.w3.org/TR/2001/REC-SVG-20010904/DTD/svg10.dtd">
<svg version="1.0" xmlns="http://www.w3.org/2000/svg"
 width="1280.000000pt" height="720.000000pt" viewBox="0 0 1280.000000 720.000000"
 preserveAspectRatio="xMidYMid meet">
<metadata>
Created by potrace 1.16, written by Peter Selinger 2001-2019
</metadata>
<g transform="translate(0.000000,720.000000) scale(0.100000,-0.100000)"
fill="#000000" stroke="none">
<path d="M4360 7085 c-7 -8 -11 -38 -10 -67 3 -100 0 -162 -10 -172 -6 -6 -10
-20 -10 -32 0 -31 -25 -50 -45 -34 -8 7 -15 21 -15 31 0 11 -7 19 -15 19 -9 0
-15 -9 -15 -22 1 -42 28 -140 44 -157 9 -10 16 -27 16 -39 0 -30 21 -72 33
-65 6 3 7 1 3 -5 -4 -7 -14 -12 -21 -12 -8 0 -22 -11 -31 -25 -22 -33 -30 -32
-44 10 -6 19 -27 53 -46 76 -19 22 -34 46 -34 53 0 17 -50 68 -63 63 -35 -11
-11 -107 40 -164 63 -70 117 -134 127 -151 5 -9 18 -26 28 -36 10 -11 18 -36
19 -55 0 -20 1 -54 3 -76 1 -22 -2 -46 -7 -52 -6 -9 -5 -13 2 -13 6 0 11 -4
11 -9 0 -5 -25 -7 -55 -5 -43 2 -55 0 -55 -12 0 -8 7 -17 15 -20 19 -8 20 -54
1 -54 -16 0 -56 46 -56 63 0 6 -10 22 -22 35 -23 26 -22 26 27 6 10 -4 28 8
51 32 26 30 34 46 32 69 -2 24 -7 30 -27 29 -13 -1 -34 10 -50 26 -14 14 -33
29 -41 32 -9 3 -22 18 -30 34 -19 37 -35 54 -51 54 -7 0 -20 7 -30 16 -14 12
-22 13 -38 4 -36 -19 -25 -59 37 -134 23 -27 39 -53 36 -57 -2 -5 -25 1 -50
11 -55 24 -78 25 -98 4 -20 -20 -20 -34 0 -34 21 0 102 -56 137 -94 82 -89
101 -107 123 -112 38 -10 32 -47 -11 -63 -33 -12 -35 -14 -35 -61 0 -59 12
-72 90 -101 56 -20 120 -73 120 -99 0 -25 32 -6 55 34 14 24 49 66 78 93 67
64 116 80 239 82 55 1 56 2 54 29 -2 15 -5 33 -7 41 -2 8 6 19 17 26 53 27 72
66 39 79 -20 7 -8 31 42 86 38 43 41 78 8 90 -16 6 -30 0 -59 -26 -21 -19 -43
-34 -48 -34 -10 0 -52 -48 -54 -62 -1 -5 -2 -12 -3 -18 0 -5 -12 -10 -26 -10
-14 0 -25 -4 -25 -10 0 -5 -7 -10 -14 -10 -8 0 -21 -12 -28 -26 -12 -25 -36
-34 -30 -11 2 6 6 24 9 39 6 28 5 29 -32 25 -21 -3 -44 -12 -50 -21 -7 -9 -17
-16 -24 -16 -6 0 -11 -4 -11 -10 0 -15 -51 -85 -61 -84 -30 3 -31 5 -18 21 8
9 28 43 44 75 39 76 71 97 120 79 28 -10 42 -10 73 0 20 7 43 18 50 23 27 20
48 77 51 143 1 6 24 40 51 74 56 70 64 105 26 115 -40 10 -64 -5 -85 -51 -18
-41 -50 -82 -123 -156 -16 -15 -28 -35 -28 -44 0 -19 -29 -65 -42 -65 -5 0 -4
8 1 19 8 15 7 20 -8 24 -21 5 -61 -14 -58 -28 1 -5 -8 -11 -20 -13 -18 -3 -23
2 -23 17 0 12 6 21 15 21 8 0 15 3 15 8 0 4 14 16 30 27 16 11 30 24 30 28 0
5 11 23 24 40 32 43 71 122 87 177 7 25 21 56 31 69 20 26 24 76 7 86 -19 12
-59 -4 -59 -24 0 -10 -8 -29 -19 -42 -10 -13 -24 -42 -32 -64 -8 -22 -22 -48
-32 -58 -18 -18 -19 -18 -24 2 -3 11 -9 18 -14 15 -5 -2 -12 8 -15 23 -4 15
-14 33 -21 38 -11 8 -12 17 -3 39 8 21 7 32 -1 42 -8 10 -10 36 -5 82 9 80 9
61 -2 202 -6 63 -13 123 -17 133 -9 21 -38 22 -55 2z"/>
<path d="M12076 6758 c-12 -59 -15 -150 -5 -171 15 -33 -12 -204 -35 -219 -20
-13 -46 -8 -52 10 -18 53 -30 72 -42 67 -8 -3 -20 -5 -27 -5 -8 0 -19 -18 -26
-39 -13 -43 -27 -51 -93 -51 -38 0 -38 0 -33 -32 3 -18 9 -54 13 -80 6 -46 7
-47 58 -63 68 -22 80 -30 73 -49 -9 -23 -76 -21 -107 4 -14 10 -21 22 -17 26
18 18 -49 31 -113 23 -35 -5 -65 -11 -67 -13 -2 -2 1 -14 6 -28 6 -16 23 -29
49 -38 23 -7 43 -19 46 -27 5 -13 -20 -46 -42 -54 -5 -2 -12 -15 -14 -29 -3
-22 8 -30 122 -88 l125 -63 -70 5 c-38 3 -89 8 -112 12 -42 6 -43 5 -43 -22 0
-24 16 -41 93 -104 50 -41 112 -85 137 -98 93 -47 103 -58 103 -107 0 -45 -9
-55 -52 -55 -42 0 -86 28 -96 60 -4 11 -18 23 -33 27 -15 3 -29 9 -32 13 -15
23 -101 77 -137 88 -30 9 -50 23 -68 50 -14 20 -25 33 -25 28 0 -5 -6 -4 -13
2 -7 6 -52 14 -101 18 -82 6 -89 6 -83 -10 4 -10 7 -20 7 -22 0 -2 6 -4 13 -4
6 0 26 -15 42 -32 17 -17 49 -39 73 -50 23 -10 42 -21 42 -24 0 -8 -90 -44
-103 -41 -7 1 -12 -9 -12 -25 1 -26 -27 -49 -42 -35 -9 9 -85 -22 -103 -43
-20 -23 -15 -79 9 -88 9 -3 23 -13 31 -22 8 -9 39 -27 68 -40 l52 -23 25 23
c27 25 55 21 55 -9 0 -22 57 -81 78 -81 14 0 46 30 54 52 8 19 51 28 139 28
65 0 69 -1 75 -25 7 -27 -10 -55 -32 -55 -8 0 -14 -6 -14 -12 0 -7 -22 -25
-48 -40 -26 -15 -56 -36 -66 -47 -10 -11 -24 -17 -31 -15 -7 3 -18 -3 -24 -15
-9 -16 -16 -18 -38 -11 -48 14 -63 22 -58 30 8 12 -42 33 -82 33 -21 0 -54 -3
-73 -7 -44 -8 -59 2 -64 43 -4 35 -15 46 -91 91 -40 24 -62 30 -107 30 -32 0
-58 3 -59 8 -5 47 -3 62 8 62 7 0 13 9 13 19 0 11 5 21 12 23 8 3 4 12 -9 25
l-22 22 -15 -24 c-14 -21 -20 -23 -48 -14 -18 5 -34 14 -36 19 -5 13 -62 13
-62 0 0 -5 -16 -10 -35 -10 -25 0 -33 4 -29 14 11 28 -14 25 -26 -4 -18 -43
-36 -55 -63 -42 -53 26 -84 30 -99 16 -10 -11 -40 -15 -104 -15 -50 -1 -92 -6
-96 -12 -10 -16 -71 -14 -86 3 -11 13 -12 10 -8 -20 7 -44 -7 -72 -22 -44 -5
11 -7 24 -5 30 6 18 -23 24 -56 11 -23 -8 -39 -8 -60 0 -27 10 -29 9 -35 -18
-5 -26 -7 -27 -36 -16 -27 10 -33 10 -44 -6 -7 -9 -18 -17 -25 -17 -6 0 -11
-6 -11 -12 -2 -50 -11 -131 -15 -139 -16 -25 -26 -3 -25 54 1 34 0 69 -2 77
-18 67 -33 78 -43 31 -6 -28 -8 -28 -66 -27 -65 1 -82 -11 -21 -16 l37 -3 -2
-71 c-3 -69 -22 -129 -39 -122 -20 7 -43 -168 -42 -312 0 -80 -1 -152 -3 -160
-3 -11 4 -15 30 -13 57 3 61 8 62 70 1 32 3 50 6 41 6 -24 24 -23 30 2 3 11 8
20 12 20 4 0 17 9 30 21 17 16 19 24 11 35 -18 20 -21 113 -6 143 20 39 36 94
36 124 0 14 4 28 9 31 10 7 24 97 22 147 -1 32 2 36 21 35 22 -1 23 -4 19 -86
-2 -47 -8 -93 -13 -104 -6 -10 -11 -64 -12 -120 -2 -55 -4 -110 -7 -121 -3
-15 2 -21 18 -23 17 -3 22 3 28 30 21 102 24 108 54 102 21 -5 31 -1 43 18 25
40 42 119 42 202 -1 60 1 72 7 46 7 -34 31 -60 56 -60 14 0 6 -31 -11 -42 -29
-19 53 -68 82 -49 5 3 12 29 16 56 10 64 36 145 47 145 26 0 -21 -168 -58
-208 -17 -18 -23 -35 -21 -56 3 -29 6 -31 37 -28 20 1 38 -3 43 -10 5 -9 8 -4
8 13 0 14 5 30 10 35 6 6 13 40 17 77 4 43 12 73 24 85 10 11 23 39 29 62 6
23 14 39 18 35 9 -9 2 -209 -8 -215 -4 -3 -11 -43 -15 -90 -6 -63 -12 -90 -26
-103 -19 -18 -16 -47 6 -47 19 0 67 90 61 115 -9 37 4 63 36 70 16 4 32 14 35
23 11 34 33 81 41 84 10 4 52 95 52 113 0 20 30 19 45 -2 15 -21 3 -83 -20
-99 -11 -8 -14 -20 -10 -37 5 -19 -1 -33 -24 -60 -17 -19 -31 -46 -31 -60 0
-14 -4 -29 -10 -32 -15 -9 -12 -65 4 -71 17 -7 62 16 105 51 31 27 57 25 47
-2 -5 -13 2 -14 46 -9 29 4 79 6 111 6 56 -1 58 0 52 23 -4 15 3 44 19 80 15
31 29 77 33 102 6 49 9 50 66 34 41 -11 44 -28 9 -44 -24 -11 -48 -90 -37
-124 3 -10 1 -22 -5 -26 -17 -11 -11 -43 10 -50 12 -4 38 -4 59 0 32 5 43 2
65 -18 14 -13 63 -39 108 -57 73 -28 89 -31 143 -25 33 3 82 7 109 8 44 2 49
0 53 -21 7 -52 76 -78 120 -47 20 14 24 13 49 -10 15 -14 32 -25 38 -25 6 0
46 12 90 27 70 24 80 30 95 63 25 55 89 138 113 146 l21 6 -23 18 c-15 11 -20
23 -16 36 5 16 16 19 66 19 33 0 60 -3 60 -7 0 -9 41 25 76 62 13 14 24 32 24
40 0 9 5 21 12 28 9 9 8 12 -4 12 -8 0 -21 7 -28 15 -11 13 -6 15 31 15 24 -1
55 -7 69 -15 34 -20 116 -20 124 0 3 8 3 22 0 30 -4 8 -1 15 6 15 7 0 10 7 6
15 -3 8 -2 15 3 15 4 0 13 11 19 25 7 16 20 25 34 25 37 0 50 14 45 48 -3 18
1 38 9 49 7 10 14 29 14 43 1 23 2 23 10 5 5 -12 9 45 9 148 1 112 -3 167 -10
167 -21 0 -49 -21 -64 -50 -8 -16 -35 -43 -59 -61 -28 -19 -47 -42 -51 -59 -4
-19 -18 -32 -48 -46 -43 -19 -46 -25 -67 -111 -12 -48 -20 -51 -97 -30 -38 10
-47 10 -51 -1 -7 -21 -52 -62 -78 -72 -13 -5 -36 -27 -51 -49 -22 -30 -37 -41
-66 -46 -21 -4 -41 -13 -44 -21 -3 -8 -12 -14 -19 -14 -12 0 -12 5 1 30 8 16
15 36 15 45 0 8 5 15 10 15 6 0 10 23 10 52 0 28 3 49 6 45 10 -10 94 32 136
68 22 19 43 33 47 32 11 -3 56 26 76 50 11 12 26 23 33 23 7 0 12 5 12 10 0 6
7 10 15 10 8 0 15 6 15 13 0 7 11 14 24 15 35 2 76 20 76 32 0 5 -19 10 -41
10 -32 0 -56 -9 -98 -37 -66 -45 -104 -49 -147 -17 -27 21 -38 23 -92 18 -53
-6 -62 -4 -62 9 0 33 40 47 131 47 l87 0 7 33 c19 95 46 135 100 154 25 8 30
15 27 39 -2 16 -13 36 -24 45 l-21 16 24 16 c13 9 36 21 52 28 19 8 27 20 27
37 0 13 11 37 25 54 28 33 33 68 10 68 -8 0 -15 -4 -15 -10 0 -5 -5 -10 -11
-10 -7 0 -35 -20 -63 -43 -57 -49 -99 -77 -118 -81 -48 -10 -118 -63 -118 -91
0 -11 -47 -35 -70 -35 -9 0 -30 71 -30 103 0 19 8 31 29 42 16 8 32 23 36 34
10 32 68 89 95 93 22 3 26 11 36 61 8 40 20 65 38 82 15 14 26 35 26 50 0 37
-36 33 -80 -9 -19 -19 -47 -38 -61 -41 -23 -6 -27 -3 -31 19 -3 14 -2 26 3 26
4 0 11 10 15 22 3 12 19 33 34 47 16 14 32 38 35 54 7 25 5 27 -21 27 -18 -1
-44 -14 -68 -36 -34 -29 -40 -41 -40 -74 -1 -40 -20 -69 -103 -157 -23 -24
-43 -30 -43 -12 0 40 98 187 115 171 3 -4 5 25 3 63 -3 66 -5 70 -36 92 l-33
22 20 18 c17 14 21 29 21 75 0 32 -4 58 -10 58 -5 0 -10 14 -10 30 0 23 -4 30
-20 30 -12 0 -21 -8 -24 -22z"/>
<path d="M3679 6136 c-8 -17 -5 -33 15 -75 16 -35 23 -64 19 -85 -4 -28 -1
-33 39 -54 24 -12 48 -22 54 -22 7 0 14 -6 17 -14 6 -16 -41 -32 -76 -27 -18
2 -57 -25 -57 -40 0 -15 32 -39 53 -39 12 0 39 -9 60 -20 21 -11 65 -23 98
-27 65 -6 77 -14 54 -33 -17 -15 -20 -46 -4 -56 7 -4 1 -17 -16 -34 -31 -33
-28 -55 9 -64 14 -3 38 -11 53 -17 25 -9 26 -12 11 -20 -22 -12 -23 -42 -3
-59 8 -7 12 -16 9 -21 -6 -11 -97 1 -106 14 -26 41 -128 36 -165 -8 -39 -44
-26 -63 42 -63 37 0 65 -6 65 -14 0 -4 15 -10 34 -13 43 -9 115 29 136 71 14
29 16 29 33 12 21 -22 22 -29 3 -22 -9 3 -15 -5 -19 -23 -6 -30 -113 -143
-136 -143 -15 0 -41 -64 -29 -71 7 -4 5 -9 -3 -12 -12 -4 -11 -7 1 -16 8 -6
15 -16 15 -23 0 -15 74 -16 84 -1 10 15 41 23 66 17 27 -7 24 -37 -7 -58 -12
-9 -18 -23 -16 -38 2 -19 10 -24 41 -26 25 -2 35 -7 31 -15 -3 -7 4 -1 15 13
11 14 21 20 21 15 0 -7 22 -9 60 -5 73 7 86 0 100 -48 14 -51 13 -145 -1 -136
-6 3 -14 3 -18 -2 -20 -28 -121 -49 -121 -25 0 5 -18 12 -39 16 -49 8 -106
-16 -115 -48 -10 -37 -7 -57 9 -57 8 0 15 -7 15 -16 0 -11 -8 -14 -32 -12 -30
3 -33 6 -34 38 -1 18 -6 36 -12 38 -7 2 -12 14 -12 27 0 12 -7 28 -15 35 -8 7
-15 22 -15 34 0 16 -12 28 -37 42 -49 25 -124 16 -191 -23 -45 -27 -55 -30
-97 -36 -27 -4 -48 -18 -61 -42 -16 -29 -42 -31 -46 -3 -2 16 8 33 34 58 28
25 40 46 44 75 7 48 29 103 51 127 20 23 9 36 -17 20 -11 -7 -29 -12 -41 -12
-11 0 -28 -4 -38 -10 -14 -7 -32 -3 -68 15 -28 13 -73 31 -102 41 -29 9 -79
34 -112 55 -33 22 -62 39 -65 39 -9 0 -34 28 -34 38 0 15 -133 15 -153 0 -17
-12 -17 -16 -3 -50 13 -31 22 -38 66 -49 33 -8 52 -19 56 -32 3 -10 3 -21 0
-24 -3 -4 -1 -12 5 -20 14 -16 2 -17 -56 -3 -22 5 -65 10 -95 11 -30 1 -66 8
-80 15 -18 8 -31 9 -44 2 -13 -7 -22 -6 -35 6 -12 11 -47 17 -116 22 -55 3
-120 8 -145 10 -25 2 -79 6 -120 9 -111 6 -146 12 -182 29 -26 13 -38 14 -66
5 -25 -8 -45 -8 -71 -1 -20 6 -72 14 -116 17 -44 3 -96 7 -115 9 -225 19 -289
24 -310 24 -14 0 -70 7 -124 17 -80 14 -103 15 -122 4 -19 -10 -27 -9 -46 3
-13 8 -41 14 -63 13 -29 -1 -44 4 -56 18 -15 19 -46 16 -34 -3 3 -4 -2 -11
-11 -14 -9 -3 -25 5 -40 21 -18 20 -24 22 -24 9 0 -24 -24 -20 -53 10 -25 24
-25 25 -32 5 -8 -25 -32 -27 -64 -5 -20 14 -26 14 -48 3 -22 -12 -26 -11 -42
10 -17 22 -18 22 -57 6 -36 -15 -39 -15 -51 2 -11 14 -27 17 -90 16 -50 -1
-84 3 -96 12 -15 10 -25 11 -44 2 -18 -8 -29 -8 -44 1 -24 15 -25 15 -42 -3
-13 -13 -18 -12 -39 4 -19 15 -37 18 -100 15 -43 -2 -78 0 -78 5 0 15 -31 21
-52 10 -15 -8 -24 -7 -37 5 -35 32 -41 4 -41 -212 0 -199 0 -203 20 -197 12 4
20 2 20 -5 0 -7 -9 -23 -20 -37 -18 -23 -20 -41 -20 -184 0 -88 4 -159 8 -159
4 0 12 4 17 9 15 14 68 16 90 3 18 -10 16 -11 -16 -10 -23 1 -48 -7 -68 -21
l-31 -22 0 -189 c0 -183 1 -188 20 -183 26 7 26 -9 0 -32 -19 -17 -20 -32 -20
-484 1 -256 4 -471 8 -477 4 -7 18 -14 30 -15 23 -4 24 -8 26 -90 3 -74 7 -91
29 -125 16 -23 27 -52 27 -72 0 -30 -3 -34 -23 -29 -12 3 -39 9 -59 12 l-38 7
0 -1441 0 -1441 973 0 974 0 18 40 c12 26 23 39 32 36 17 -7 73 51 73 76 0 10
2 10 8 0 6 -9 12 -8 25 5 146 155 145 154 204 159 26 3 62 11 78 19 17 7 44
17 60 21 17 4 42 15 57 25 14 11 31 19 36 19 6 0 13 8 17 18 3 11 23 43 45 72
21 29 41 58 43 64 3 7 11 3 20 -8 12 -16 25 -19 72 -17 31 1 70 -3 85 -9 23
-10 34 -8 66 10 80 43 99 57 111 81 7 13 18 28 25 34 13 10 31 38 54 85 7 14
15 47 19 74 3 27 8 52 11 57 3 5 3 13 -1 19 -7 12 -35 2 -35 -14 -1 -14 -59
-71 -82 -79 -31 -11 -32 35 -3 114 14 40 30 78 34 84 5 5 12 24 15 40 4 17 18
44 31 59 14 16 25 33 25 38 0 4 5 7 10 5 6 -1 28 30 49 69 21 38 53 86 70 105
18 18 46 57 64 84 17 28 40 59 49 69 10 11 18 23 18 28 0 4 5 8 10 8 42 0 310
231 310 267 0 7 4 13 9 13 5 0 13 9 16 21 8 26 97 113 161 159 27 19 69 55 94
80 106 107 177 156 197 136 4 -3 -4 -32 -17 -63 -13 -32 -25 -82 -28 -113 -2
-30 -6 -62 -9 -70 -4 -8 -7 -17 -8 -20 -9 -35 -21 -59 -37 -77 -16 -18 -19
-31 -15 -80 2 -32 7 -67 10 -78 3 -11 6 -24 6 -30 1 -5 6 -3 11 5 8 12 10 11
10 -7 0 -13 6 -23 14 -23 8 0 21 -9 29 -20 8 -11 17 -17 22 -12 4 4 5 -1 2
-10 -5 -13 -1 -18 12 -18 24 0 51 -70 51 -130 0 -25 7 -63 14 -85 24 -67 23
-77 -2 -81 -27 -5 -84 50 -118 112 -19 33 -26 38 -50 35 -16 -1 -32 -8 -36
-15 -4 -6 -8 4 -8 22 0 17 -5 32 -11 32 -13 0 -2 -148 12 -166 5 -6 8 -54 7
-107 -1 -69 2 -100 12 -112 19 -23 21 -145 2 -145 -7 0 -15 -7 -18 -15 -4 -8
-10 -12 -15 -9 -5 3 -9 0 -9 -6 0 -8 -18 -10 -56 -6 -42 3 -61 10 -79 30 -18
20 -35 26 -83 29 l-59 4 -7 -60 c-3 -33 -6 -93 -6 -133 l0 -73 -35 -12 c-24
-9 -36 -21 -40 -39 -14 -66 -105 -110 -179 -88 -34 11 -40 10 -52 -7 -8 -10
-14 -41 -14 -68 0 -38 -6 -58 -25 -83 -13 -17 -33 -54 -44 -82 -19 -48 -43
-104 -82 -189 -17 -39 -22 -43 -53 -43 -19 0 -38 5 -41 10 -3 6 -15 10 -26 10
-15 0 -19 7 -20 33 -1 19 -3 24 -6 13 -4 -17 -12 -18 -65 -12 -34 3 -75 6 -92
6 -28 1 -30 2 -13 14 18 14 17 15 -2 21 -12 3 -19 10 -16 15 3 5 -1 12 -8 17
-8 4 -17 15 -20 23 -4 12 -6 11 -6 -2 -1 -21 -21 -25 -21 -4 0 16 -21 26 -57
26 -22 0 -24 -3 -19 -24 5 -19 -1 -32 -23 -53 -28 -29 -62 -87 -75 -130 l-7
-23 848 0 849 0 24 43 c29 50 89 214 101 277 5 25 16 65 24 90 8 25 19 74 25
110 15 91 19 100 40 100 10 0 22 5 25 10 4 6 11 7 18 3 6 -3 33 -5 59 -4 29 1
48 -2 48 -8 0 -6 6 -10 13 -8 6 1 11 -4 9 -12 -2 -10 4 -12 20 -8 24 7 58 -16
58 -38 0 -8 23 -16 58 -21 31 -4 47 -9 35 -12 -34 -5 -28 -20 10 -25 l32 -4
-32 -1 c-18 -1 -33 -6 -33 -12 0 -5 -12 -11 -27 -11 -17 -1 -21 -3 -10 -6 9
-2 17 -9 17 -14 0 -5 7 -9 15 -9 8 0 15 -4 15 -10 0 -5 11 -10 25 -10 14 0 25
-5 25 -10 0 -6 11 -8 26 -4 14 4 29 3 33 -2 10 -16 60 -34 91 -34 17 0 30 -4
30 -10 0 -5 3 -9 8 -9 25 4 32 -4 32 -36 0 -19 -4 -35 -10 -35 -17 0 -11 -20
16 -48 14 -15 28 -39 31 -55 3 -15 10 -30 14 -33 5 -3 16 -21 24 -40 8 -19 21
-34 29 -34 9 0 16 -5 16 -11 0 -12 17 -29 48 -47 17 -9 167 -12 659 -12 l638
0 -31 20 c-24 15 -33 30 -38 59 -7 44 -50 88 -70 72 -6 -5 -20 -11 -31 -13
-23 -4 -40 32 -55 121 -5 30 -17 62 -26 72 -21 23 -76 17 -80 -9 -2 -17 -23
-56 -23 -44 -1 7 -5 11 -10 8 -5 -3 -11 -30 -13 -61 -5 -61 -9 -68 -29 -60
-11 4 -14 33 -14 130 0 93 -3 125 -12 125 -17 0 -17 17 0 23 8 3 6 10 -8 23
-11 11 -20 26 -20 34 0 9 -13 17 -35 20 -47 8 -60 17 -60 41 0 10 -7 19 -15
19 -8 0 -15 6 -15 14 0 7 -11 39 -25 69 l-24 56 -60 -1 c-33 0 -65 -5 -73 -9
-7 -5 -9 -9 -4 -9 6 0 1 -6 -9 -14 -13 -9 -16 -19 -10 -32 15 -38 11 -66 -11
-76 -17 -8 -21 -17 -18 -37 3 -22 1 -20 -16 12 -11 20 -23 37 -25 37 -3 0 -5
-16 -5 -36 0 -19 4 -33 9 -30 11 7 23 -68 15 -99 -7 -30 -40 -34 -49 -5 -3 10
-1 36 4 57 14 48 14 106 1 119 -5 5 -13 32 -16 58 -6 39 -4 50 9 58 10 5 17
15 17 23 0 7 12 26 28 42 15 16 34 39 42 51 8 12 24 22 37 22 12 0 26 7 31 15
4 9 19 17 32 20 14 3 32 14 41 26 8 11 22 20 30 19 37 -6 49 1 49 25 0 23 3
25 50 25 43 0 50 3 48 18 -2 14 4 17 34 15 34 -2 37 0 36 25 0 34 13 68 45
110 34 46 41 29 32 -85 l-7 -94 24 13 c12 7 30 19 39 26 9 7 31 12 50 11 19 0
46 2 61 6 33 9 52 -7 61 -51 5 -26 1 -36 -24 -60 -21 -20 -29 -37 -29 -61 0
-18 -4 -33 -10 -33 -16 0 -12 -18 9 -37 10 -10 25 -31 34 -48 8 -16 43 -57 78
-90 34 -33 74 -79 89 -103 l27 -43 20 60 c16 50 27 66 64 93 55 40 64 50 94
116 15 33 33 56 45 59 11 3 20 12 20 19 0 8 9 14 19 14 11 0 26 3 35 6 11 4
16 1 16 -10 0 -9 -4 -16 -9 -16 -9 0 -6 -57 5 -93 4 -12 -4 -29 -21 -47 l-26
-28 17 -76 c10 -42 22 -76 26 -76 5 0 4 -9 -2 -20 -10 -19 -12 -18 -46 16 -20
19 -41 33 -47 31 -13 -5 -11 -74 3 -122 15 -48 20 -109 10 -124 -6 -11 -13 -7
-29 20 -12 19 -21 37 -21 42 0 4 -9 7 -19 7 -34 0 -37 -53 -7 -104 14 -25 26
-53 26 -64 0 -10 9 -29 20 -42 11 -13 20 -29 20 -36 0 -7 6 -19 14 -27 8 -8
23 -32 33 -53 l18 -39 124 -3 c131 -3 151 3 151 43 0 23 21 34 52 27 9 -2 22
-19 28 -38 l12 -34 469 0 c429 0 470 1 489 17 21 18 27 43 11 43 -5 0 -13 13
-19 28 -6 18 -22 34 -41 42 -17 7 -31 18 -31 25 0 6 -9 22 -20 35 -24 27 -22
43 6 49 10 2 23 9 27 17 8 15 35 18 60 8 11 -4 14 -15 10 -38 -5 -32 13 -59
41 -62 6 0 19 -2 29 -2 9 -1 17 -9 17 -17 0 -9 9 -15 23 -15 31 0 68 -35 60
-57 -5 -13 -2 -15 20 -9 16 4 27 2 27 -4 0 -5 7 -10 15 -10 8 0 15 -5 15 -11
0 -7 11 0 25 14 19 19 26 37 29 76 2 35 -1 51 -10 51 -15 0 -29 28 -33 66 0 6
-12 16 -26 22 -14 6 -25 18 -25 27 0 17 -35 55 -50 55 -20 0 -38 46 -35 89 2
35 -1 44 -16 48 -24 7 -50 48 -43 67 8 20 14 20 64 0 27 -11 40 -22 40 -35 0
-10 5 -19 10 -19 6 0 10 5 10 10 0 6 15 10 33 10 18 0 38 5 44 11 7 7 18 3 38
-17 23 -23 30 -25 46 -16 11 7 19 9 19 4 0 -4 26 -13 58 -21 31 -7 76 -24 100
-37 23 -14 42 -21 42 -16 0 21 251 34 258 14 6 -19 30 -14 46 9 18 26 36 17
36 -17 0 -24 2 -25 40 -19 30 5 47 2 65 -9 17 -11 49 -16 107 -16 106 -1 165
-13 183 -36 11 -14 17 -16 23 -7 5 9 18 7 51 -8 24 -10 64 -19 90 -19 25 0 69
-8 98 -19 28 -10 75 -24 104 -31 30 -7 75 -21 101 -32 41 -18 52 -18 95 -8 26
7 68 14 93 17 25 2 54 8 65 13 11 5 43 18 70 30 28 12 59 25 70 31 11 5 73 11
138 13 104 3 121 6 152 27 19 13 33 29 31 35 -3 7 14 14 41 18 83 11 100 8
126 -24 14 -16 30 -30 35 -30 5 0 20 25 34 55 14 30 28 52 31 48 4 -3 7 -1 7
6 0 7 14 26 30 43 17 16 30 33 30 37 0 11 73 51 166 91 108 47 116 54 148 132
31 75 22 70 188 84 l77 6 20 -33 c12 -19 21 -48 21 -66 0 -41 -28 -101 -52
-109 -28 -8 -78 -63 -78 -85 0 -12 -7 -19 -20 -19 -31 0 -41 -41 -34 -140 4
-56 3 -89 -4 -93 -6 -4 -8 -33 -4 -74 5 -61 9 -71 54 -127 26 -33 47 -65 45
-70 -2 -6 -18 -14 -36 -18 -26 -7 -43 -3 -93 22 -34 16 -71 30 -84 30 -31 0
-56 -37 -43 -62 9 -16 24 -18 144 -18 122 0 135 2 135 18 1 16 1 16 14 0 12
-16 55 -17 569 -18 l557 0 0 92 c0 78 -4 101 -25 143 -31 64 -31 100 1 180 24
59 26 74 19 138 -3 39 -11 79 -16 89 -14 26 -44 22 -94 -12 -24 -16 -48 -30
-54 -30 -6 0 -11 -6 -11 -12 0 -7 -12 -26 -26 -41 l-25 -29 -39 36 c-21 19
-57 40 -79 46 -38 10 -41 13 -41 45 0 32 42 181 62 218 11 23 -8 87 -27 87 -7
0 -19 10 -27 22 -14 21 -15 20 -54 -28 -21 -27 -42 -51 -46 -54 -3 -3 -10 -21
-15 -40 -7 -27 -14 -34 -29 -32 -25 5 -54 37 -54 60 0 21 75 102 95 102 7 0
18 7 25 15 14 17 61 20 77 4 8 -8 17 -7 34 2 13 7 30 14 37 15 8 1 15 4 15 6
1 2 10 19 19 38 20 39 16 88 -7 106 -8 6 -15 21 -15 34 0 22 2 23 60 17 33 -4
73 -14 88 -24 42 -26 87 -65 85 -73 -1 -4 14 -22 32 -40 l35 -34 0 607 0 606
-30 16 c-17 9 -30 24 -30 34 0 10 -18 37 -40 59 -22 22 -40 43 -40 47 0 4 32
5 70 1 l70 -6 -1 102 0 103 -19 -43 c-19 -42 -20 -43 -47 -28 -16 8 -47 32
-70 53 l-42 38 4 65 c4 71 -2 110 -17 110 -10 0 -16 -4 -68 -50 -27 -23 -41
-29 -60 -25 -54 14 -56 19 -34 151 8 52 -8 60 -64 32 -46 -24 -87 -19 -97 12
-6 20 24 120 37 120 5 0 8 7 8 15 0 8 4 15 9 15 21 0 20 33 -1 51 -25 23 -53
31 -88 27 -18 -2 -28 3 -35 20 -5 12 -13 22 -17 22 -5 0 -8 6 -8 14 0 8 -8 24
-19 37 -15 19 -16 28 -8 46 13 29 44 37 110 29 29 -4 96 -11 150 -16 97 -8 99
-9 205 -72 95 -57 154 -88 167 -88 3 0 5 59 5 131 l0 130 -32 32 c-18 18 -43
45 -55 60 -21 25 -28 27 -81 25 -36 -2 -63 2 -72 10 -8 7 -30 22 -47 32 -29
17 -33 25 -33 63 0 71 -10 77 -139 88 -118 9 -151 21 -128 43 7 7 25 16 40 19
40 11 137 110 137 141 0 22 4 26 30 26 17 0 30 -3 30 -7 0 -5 46 -24 103 -43
83 -28 116 -45 175 -92 l72 -58 0 685 c0 646 -1 685 -17 685 -33 0 -63 -12
-63 -24 0 -7 -8 -21 -18 -32 -14 -15 -17 -27 -12 -56 4 -21 3 -38 -1 -38 -5 0
-9 4 -9 8 0 5 -22 8 -49 8 -34 -1 -55 5 -69 17 -19 17 -22 17 -52 2 -17 -9
-34 -24 -37 -33 -4 -9 -12 -22 -17 -29 -6 -7 -17 -20 -25 -28 -9 -12 -28 -16
-65 -14 -28 1 -60 -2 -71 -7 -35 -13 -74 -61 -81 -100 -6 -34 -4 -40 27 -67
19 -17 42 -42 51 -56 23 -33 24 -114 2 -135 -23 -23 -103 -21 -134 4 -32 25
-46 25 -53 0 -6 -24 -38 -26 -70 -5 -18 11 -31 12 -57 5 -43 -12 -64 3 -56 42
3 15 1 40 -4 54 l-10 27 -89 -7 c-57 -5 -111 -3 -150 5 -68 13 -91 4 -91 -36
0 -27 -36 -45 -93 -47 -24 -1 -43 -8 -51 -19 -18 -26 -60 -34 -75 -15 -11 13
-11 16 3 16 18 0 22 25 6 35 -22 13 -8 39 45 83 29 25 17 35 -35 29 -68 -8
-157 9 -202 39 -33 21 -45 23 -93 18 -39 -5 -55 -3 -55 5 0 16 -60 51 -87 51
-12 0 -28 -7 -37 -15 -8 -8 -25 -15 -38 -14 -22 0 -22 1 -3 8 14 6 2 9 -38 9
-32 1 -75 4 -95 8 l-37 6 33 -29 c17 -16 32 -37 32 -45 0 -15 -6 -15 -57 -2
-104 24 -167 13 -85 -15 20 -7 54 -24 76 -38 l39 -25 -29 -18 c-15 -11 -31
-17 -36 -14 -4 3 -8 -2 -8 -10 0 -12 10 -16 35 -16 19 0 35 -4 35 -10 0 -6
-28 -8 -72 -6 -138 8 -125 -19 40 -84 33 -13 37 -27 11 -43 -9 -5 -25 -4 -44
4 -16 7 -34 11 -39 10 -4 -1 -13 3 -20 8 -18 15 -88 16 -128 2 -48 -16 -48
-28 -2 -37 22 -4 31 -10 24 -14 -21 -13 6 -21 58 -19 41 2 54 -2 78 -25 24
-22 27 -28 14 -36 -8 -5 -27 -10 -42 -10 -38 0 -42 -15 -11 -38 16 -11 25 -24
21 -28 -4 -4 -38 -10 -75 -14 -38 -3 -86 -15 -108 -25 -37 -17 -38 -19 -15
-23 14 -2 29 -8 34 -13 13 -12 73 -12 80 0 3 5 16 9 30 9 13 0 49 11 79 26 51
24 87 26 87 6 0 -17 -65 -54 -142 -81 -112 -39 -116 -45 -28 -51 75 -4 72 -24
-10 -55 -168 -65 -182 -76 -88 -66 35 3 96 19 137 36 65 25 82 28 130 22 83
-12 246 -7 326 10 77 15 172 9 200 -15 14 -12 18 -12 25 1 7 11 31 13 111 11
84 -3 111 -8 150 -28 54 -27 59 -28 59 -14 0 6 5 16 10 23 6 7 24 33 40 59 39
63 95 99 162 105 53 4 119 -15 133 -38 4 -6 27 -19 50 -29 56 -24 74 -54 49
-81 -10 -11 -29 -25 -43 -33 -14 -7 -25 -18 -23 -26 3 -11 0 -11 -12 -1 -8 7
-20 10 -25 6 -6 -3 -27 10 -47 29 -21 20 -41 36 -46 36 -4 0 -9 -17 -9 -37 -1
-21 -2 -42 -4 -48 -1 -5 -3 -15 -3 -22 -3 -18 -38 -28 -119 -32 -12 -1 -33
-12 -47 -26 -16 -16 -26 -20 -29 -12 -3 7 -10 0 -16 -16 -6 -15 -19 -30 -28
-34 -10 -4 -29 -15 -42 -25 -15 -12 -41 -18 -72 -18 -28 0 -53 -6 -61 -14 -18
-20 -60 6 -85 53 -15 28 -26 37 -51 39 -27 3 -32 0 -32 -17 0 -12 -9 -26 -20
-33 -11 -7 -20 -18 -20 -24 0 -7 -13 -17 -29 -22 -21 -8 -31 -19 -36 -44 -12
-55 -45 -116 -66 -121 -19 -5 -20 -2 -15 54 7 64 -7 104 -48 142 -21 19 -53
15 -72 -9 -6 -8 -14 -14 -18 -14 -4 0 -32 -25 -62 -55 -31 -30 -62 -55 -69
-55 -22 0 -45 -30 -45 -58 0 -35 -26 -72 -49 -72 -42 0 -86 85 -57 109 9 8 16
20 16 27 0 20 40 43 85 48 42 5 75 34 75 65 0 9 -12 29 -26 44 -29 34 -64 33
-132 -3 -27 -14 -51 -20 -67 -16 -16 4 -28 1 -37 -11 -15 -21 -71 -59 -146
-99 -53 -29 -53 -29 -68 -9 -9 12 -11 21 -4 23 5 2 10 9 10 16 0 7 12 19 28
27 55 28 91 63 65 64 -5 1 -19 7 -32 14 -13 7 -26 9 -30 4 -12 -18 -62 -44
-72 -38 -5 4 -7 16 -3 28 7 22 8 23 59 82 39 46 42 55 18 56 -43 3 -48 5 -48
16 0 6 -3 15 -7 19 -5 4 -8 2 -8 -5 0 -6 -16 4 -37 24 -20 19 -43 35 -51 35
-9 0 -13 3 -9 6 10 10 119 -19 124 -33 3 -7 11 -13 17 -13 19 0 80 71 68 79
-6 3 -12 20 -14 36 -2 24 -8 31 -30 33 -19 2 -30 -3 -38 -17 -13 -26 -32 -27
-54 -2 -17 19 -17 20 16 23 27 2 32 7 30 23 -5 29 -16 37 -54 41 -53 6 -68 16
-33 23 38 8 44 38 15 69 -12 13 -19 29 -17 36 3 8 1 18 -5 24 -8 8 -8 15 1 26
8 10 9 16 1 21 -5 3 -10 26 -10 51 0 33 4 44 15 44 18 0 14 40 -10 115 -7 22
-16 76 -20 121 -4 44 -10 86 -14 93 -15 24 -33 -17 -40 -91 -5 -54 -9 -67 -15
-50 -4 12 -12 22 -17 22 -5 0 -14 10 -18 23 -7 16 -9 4 -8 -41 0 -42 -4 -67
-13 -72 -7 -4 -10 -17 -7 -29 3 -14 0 -21 -9 -21 -16 0 -19 -26 -4 -35 6 -4
17 -2 24 4 10 9 15 8 20 -5 4 -11 0 -18 -14 -21 -11 -3 -20 -9 -20 -14 0 -4
-18 -13 -40 -19 -44 -12 -52 -27 -18 -32 31 -4 33 -25 3 -32 -29 -7 -34 -26
-7 -26 45 0 26 -36 -22 -42 -15 -2 -28 -7 -29 -13 -3 -14 64 -19 72 -6 10 15
80 22 102 10 28 -14 23 -31 -8 -29 -37 3 -90 -10 -102 -24 -5 -6 -11 -22 -13
-36 -2 -18 -11 -26 -36 -31 -51 -10 -62 -27 -24 -35 62 -12 49 -43 -18 -45
-19 0 -44 -4 -55 -9 -18 -7 -16 -9 13 -15 25 -6 32 -13 32 -31 0 -18 4 -22 18
-17 9 4 23 15 30 25 7 10 19 18 26 18 29 0 23 -31 -15 -79 -48 -60 -101 -82
-146 -62 -18 8 -29 9 -37 1 -5 -5 -18 -10 -28 -10 -29 0 -24 54 7 79 l26 20
-23 3 c-18 2 -23 10 -24 38 -2 19 -7 48 -13 63 -13 34 -14 40 -3 33 10 -6 -10
119 -21 130 -4 4 -7 -9 -7 -29 0 -21 -4 -37 -10 -37 -5 0 -10 -12 -10 -27 0
-14 -8 -35 -17 -45 -9 -10 -19 -40 -21 -66 -2 -26 -7 -49 -12 -52 -8 -5 -20
-78 -20 -123 0 -31 -26 -77 -45 -77 -17 0 -25 33 -12 55 11 21 -7 131 -29 173
-7 14 -11 29 -8 33 2 5 -5 38 -17 74 -35 109 -47 171 -36 190 7 13 3 23 -17
43 -14 14 -29 23 -33 18 -4 -4 -1 -11 6 -16 11 -6 12 -21 6 -67 -4 -32 -7 -72
-6 -90 0 -18 -4 -35 -9 -38 -20 -12 -10 -35 15 -35 14 0 25 -5 25 -11 0 -6 -6
-9 -14 -6 -21 8 -48 -37 -40 -68 4 -15 2 -25 -5 -25 -6 0 -11 5 -11 11 0 7 -9
9 -21 6 -21 -6 -88 21 -89 36 0 4 11 7 24 7 13 0 35 9 49 20 14 11 30 20 36
20 6 0 11 3 11 8 0 4 -35 15 -77 24 -68 16 -78 16 -93 3 -23 -21 -50 -19 -50
3 0 11 8 26 19 36 15 14 20 14 30 3 22 -28 134 -17 129 11 -2 10 -8 17 -13 18
-6 0 -28 4 -50 9 l-40 8 30 10 c73 23 68 52 -7 42 -40 -6 -49 -4 -46 6 3 8 16
16 30 19 14 3 38 20 53 37 l27 33 -22 35 c-12 19 -22 35 -23 35 -1 0 -17 -4
-34 -9 -30 -9 -31 -8 -20 9 6 11 20 20 30 22 17 3 20 12 21 76 1 63 5 76 23
90 17 13 25 34 33 87 12 87 12 98 1 91 -20 -13 -28 68 -11 109 7 18 8 18 15
-8 4 -15 5 -39 3 -52 -3 -14 -1 -25 4 -25 18 0 31 58 32 145 1 88 1 90 29 103
23 11 28 18 23 38 -5 19 -2 24 12 24 13 0 18 -9 20 -32 3 -41 9 -46 26 -22 11
14 18 16 26 8 22 -21 7 -56 -32 -76 -30 -16 -38 -27 -43 -56 -3 -20 -10 -53
-15 -73 -6 -20 -10 -47 -10 -61 0 -14 -6 -38 -14 -54 -8 -16 -17 -56 -19 -89
-6 -71 -36 -223 -47 -246 -13 -24 1 -36 48 -41 l43 -4 -8 31 c-14 63 -10 79
22 85 26 5 30 11 41 60 7 30 29 120 49 199 38 151 47 233 27 253 -16 16 -15
56 1 73 16 15 67 23 84 12 14 -9 11 -51 -6 -71 -7 -9 -15 -46 -17 -83 -3 -37
-11 -80 -19 -96 -17 -34 -20 -77 -5 -77 16 0 12 -18 -10 -40 -15 -15 -17 -20
-5 -20 8 0 17 -11 21 -24 7 -29 -1 -255 -10 -277 -9 -22 15 -31 62 -23 l37 6
3 64 c2 35 -1 80 -7 101 -5 21 -12 59 -16 86 l-6 47 36 0 c28 0 44 7 65 29 23
25 28 43 36 113 4 46 9 118 9 161 0 42 3 77 8 77 4 0 7 8 7 19 0 22 -45 35
-59 17 -5 -6 -14 -38 -21 -71 -49 -248 -63 -269 -60 -90 4 179 5 172 -32 184
-57 18 -93 18 -90 0 1 -12 -5 -15 -28 -14 -17 1 -36 7 -42 13 -7 7 -30 12 -52
12 -21 0 -37 -3 -33 -6 9 -9 -16 -32 -30 -27 -7 3 -15 -7 -19 -24 -37 -157
-58 -194 -76 -127 -5 19 -18 35 -34 43 -35 16 -40 7 -49 -78 -3 -36 -9 -87
-11 -113 -3 -27 -1 -49 5 -53 6 -3 11 -1 11 4 0 6 5 11 10 11 6 0 10 -30 10
-69 0 -53 -5 -79 -21 -105 -12 -21 -18 -43 -14 -55 3 -11 1 -22 -5 -26 -5 -3
-10 -24 -10 -46 0 -24 -5 -39 -12 -39 -9 0 -10 -3 -2 -8 6 -4 11 -24 10 -45
l-1 -39 -62 7 c-55 6 -63 4 -63 -10 0 -13 6 -16 21 -12 12 3 40 -2 62 -10 30
-12 42 -14 45 -5 2 7 11 12 20 12 13 -1 10 -7 -11 -25 -16 -14 -26 -29 -23
-34 3 -5 -12 -11 -35 -15 -52 -8 -42 -26 11 -19 49 7 55 -12 10 -31 -17 -7
-27 -15 -24 -19 17 -17 -31 -46 -96 -58 -55 -10 -75 -9 -110 2 -55 18 -64 39
-17 39 49 0 110 24 141 55 l27 27 -99 -4 c-94 -3 -100 -2 -91 14 5 10 21 21
34 24 14 3 25 9 25 13 0 4 14 22 32 40 37 38 28 58 -16 36 -16 -8 -34 -15 -41
-15 -7 0 -18 -7 -25 -15 -17 -21 -29 -19 -23 4 3 11 20 30 39 43 27 18 32 27
27 47 -4 17 -2 22 6 17 7 -5 11 0 11 13 0 12 -3 21 -7 21 -15 0 -81 -26 -94
-36 -8 -6 -22 -14 -33 -18 -17 -6 -18 -8 -2 -24 30 -34 20 -42 -44 -35 -78 8
-80 -11 -5 -32 55 -16 77 -36 30 -27 -18 3 -25 0 -25 -11 0 -9 -11 -17 -27
-20 l-28 -3 33 -13 c43 -17 40 -28 -10 -37 -53 -10 -63 -8 -113 17 -34 17 -44
29 -64 81 -19 49 -22 70 -16 107 4 25 8 56 7 68 0 12 7 23 17 25 18 4 94 -22
99 -34 2 -5 8 -8 14 -8 7 0 7 4 0 13 -8 10 -8 24 -1 51 6 21 8 47 6 57 -3 11
-1 22 4 25 5 3 9 10 9 15 0 6 -5 7 -12 3 -8 -5 -9 0 -4 17 12 46 19 141 10
147 -5 4 -15 19 -21 35 -16 34 -29 35 -37 2 -4 -14 -12 -25 -18 -25 -6 0 -9 3
-5 6 7 7 -18 59 -32 68 -10 7 -42 -20 -63 -54 -15 -24 -28 -99 -34 -205 -1
-27 -7 -74 -14 -102 -7 -37 -8 -59 0 -72 5 -11 10 -31 10 -45 0 -14 5 -28 10
-31 14 -9 12 -45 -2 -45 -9 0 -8 -4 2 -10 13 -8 12 -10 -2 -10 -21 0 -24 -16
-5 -23 8 -3 6 -10 -8 -26 -12 -14 -20 -37 -20 -62 0 -21 -3 -39 -7 -39 -5 0
-8 -22 -8 -50 0 -27 -4 -50 -9 -50 -15 0 -23 18 -11 25 7 4 7 12 0 25 -10 19
-88 36 -141 31 -16 -1 -29 4 -32 13 -7 17 -31 12 -59 -12 -32 -27 -22 -43 22
-36 68 11 50 -19 -36 -61 -42 -20 -73 -39 -70 -42 3 -4 22 -6 41 -5 32 1 34 0
23 -18 -7 -10 -16 -16 -20 -14 -4 3 -8 1 -8 -3 0 -5 -13 -14 -30 -20 -16 -6
-30 -17 -30 -23 0 -8 7 -9 18 -5 9 4 22 8 27 9 33 6 73 31 90 58 28 43 45 47
45 10 0 -30 -9 -40 -89 -102 -18 -14 -59 -39 -92 -57 l-59 -32 0 24 c0 13 12
37 26 54 14 17 22 31 17 32 -35 5 -50 2 -62 -10 -12 -11 -17 -7 -31 30 -9 24
-13 48 -9 53 4 5 1 15 -7 23 -8 8 -14 35 -15 61 0 69 -13 127 -27 125 -7 -2
-12 9 -12 28 0 33 -17 72 -28 65 -4 -2 -9 -34 -10 -71 -2 -37 -7 -78 -12 -90
-16 -43 2 -74 79 -132 12 -9 13 -15 5 -23 -9 -9 -24 -7 -62 6 -49 18 -51 18
-71 0 -12 -11 -21 -27 -21 -38 0 -27 -18 -22 -47 12 -33 40 -73 41 -73 3 0
-27 -1 -26 -23 12 -24 42 -54 56 -68 33 -6 -9 -9 -3 -9 18 0 16 -5 35 -12 42
-9 9 -4 12 24 12 20 0 40 5 43 10 3 6 28 10 54 10 68 0 111 10 111 26 0 8 -6
14 -14 14 -7 0 -16 10 -20 23 -5 18 -8 19 -15 7 -9 -12 -11 -12 -17 3 -10 27
14 71 47 86 17 8 43 27 57 42 14 16 36 29 49 29 19 0 23 5 23 30 0 28 -3 30
-34 30 -19 0 -37 -4 -41 -9 -3 -5 -29 -9 -59 -8 -58 1 -86 -16 -86 -52 0 -14
-6 -21 -19 -21 -28 0 -52 11 -45 21 8 14 -34 26 -119 34 -63 6 -77 10 -73 22
3 8 6 19 6 24 0 12 27 12 32 -1 2 -7 15 -7 38 0 19 5 49 10 67 10 17 0 34 4
37 9 3 5 27 12 53 16 27 4 51 12 54 17 4 6 15 8 25 3 31 -12 98 -14 111 -3 9
7 19 3 35 -17 23 -26 25 -26 72 -14 39 10 50 9 56 -1 6 -9 21 -11 56 -5 27 4
64 7 81 7 18 0 32 3 32 6 -3 16 2 38 10 51 7 10 13 11 30 2 20 -11 20 -10 9
14 -9 20 -8 28 5 43 11 12 17 36 17 66 0 45 1 46 17 30 12 -12 17 -34 18 -75
0 -33 -4 -60 -8 -62 -5 -1 -3 -15 3 -31 13 -34 7 -44 -16 -25 -16 13 -17 11
-11 -18 5 -25 2 -35 -11 -43 -16 -10 -15 -10 2 -8 10 2 21 -3 23 -9 3 -9 -5
-13 -23 -13 l-27 0 24 -26 c22 -24 23 -26 6 -36 -14 -7 -16 -13 -7 -23 17 -20
3 -35 -31 -35 -16 0 -29 -4 -29 -10 0 -5 18 -10 39 -10 22 0 42 -4 46 -9 13
-23 63 -38 105 -32 77 11 56 40 -30 41 -37 1 -37 2 35 30 l30 12 -28 14 c-22
12 -26 18 -17 34 14 26 12 40 -5 40 -17 0 -20 16 -5 25 17 11 0 25 -30 25 -17
0 -30 7 -34 16 -5 14 -4 15 8 5 29 -25 51 20 24 47 -10 10 -10 15 2 22 12 8
11 10 -5 10 -19 1 -19 2 2 10 12 5 41 11 64 14 61 7 59 3 74 151 3 33 8 69 10
81 6 27 -19 145 -30 145 -5 0 -17 -23 -27 -53 -30 -89 -28 -85 -39 -66 -5 10
-10 33 -11 53 -1 19 -5 35 -10 35 -4 0 -8 -5 -8 -11 0 -6 -7 -18 -16 -26 -13
-14 -17 -14 -25 -2 -5 8 -9 19 -9 24 -3 27 -18 -36 -18 -74 -1 -44 -8 -64 -16
-40 -22 76 -30 98 -45 118 l-18 23 -17 -46 c-21 -55 -44 -60 -48 -11 -4 45
-23 46 -24 1 -1 -44 -12 -60 -29 -46 -10 8 -16 7 -24 -7 -10 -19 -15 -14 -24
32 -4 21 -6 18 -22 -32 -5 -14 -8 -14 -21 5 -9 13 -13 31 -9 42 8 25 -2 26
-28 3 -18 -17 -19 -17 -29 1 -10 17 -10 17 -23 -1 -7 -10 -16 -61 -20 -113
-11 -133 -21 -150 -28 -47 -7 94 -16 123 -28 91 -7 -17 -8 -17 -8 -1 -1 27
-42 21 -125 -18 -41 -19 -85 -35 -97 -35 -12 0 -30 -7 -40 -16 -10 -9 -40 -20
-66 -25 -61 -12 -70 -21 -56 -59 9 -23 8 -32 -1 -37 -7 -5 -16 -17 -20 -28 -7
-18 -8 -18 -17 -3 -11 20 -41 14 -65 -13 -23 -25 -43 -24 -53 4 -9 22 -9 22
-21 -5 -7 -16 -19 -28 -27 -28 -21 0 -15 38 12 78 14 20 25 41 25 47 0 19 83
65 116 65 24 0 39 8 58 31 14 17 26 34 26 37 -1 16 -19 34 -29 28 -12 -8 -81
3 -81 13 0 3 34 7 75 8 88 3 99 7 85 33 -7 13 -7 21 0 25 6 3 14 -5 20 -19 11
-29 22 -32 42 -13 7 8 31 16 52 20 22 3 42 10 45 15 3 5 22 12 41 16 19 3 48
13 64 21 20 11 33 12 40 5 14 -14 39 -13 72 5 16 8 37 15 46 15 9 0 20 4 23
10 3 5 25 7 51 3 34 -4 49 -2 64 12 12 11 25 15 37 10 22 -9 32 -11 103 -16
53 -4 55 -3 58 22 2 21 10 28 34 33 37 7 58 -7 58 -40 0 -29 15 -31 30 -4 13
24 30 26 30 5 0 -8 5 -15 10 -15 6 0 10 11 10 24 0 23 22 41 34 29 3 -4 7 -18
7 -32 1 -17 3 -20 6 -9 2 10 20 25 39 34 19 9 34 21 34 28 0 6 10 -1 23 -16
13 -16 37 -30 59 -33 31 -6 40 -3 59 19 16 19 26 23 35 15 16 -13 104 -1 110
16 5 13 78 15 90 2 4 -3 19 0 34 8 20 10 37 12 59 5 25 -7 37 -4 66 16 40 27
57 29 86 13 16 -8 26 -7 46 6 20 14 30 15 50 6 13 -6 28 -11 32 -11 9 0 31 45
31 64 0 18 -115 33 -133 18 -19 -16 -84 -31 -94 -22 -8 9 -216 -4 -231 -14
-11 -7 -61 -18 -93 -21 -14 -1 -30 -4 -35 -8 -6 -3 -25 -4 -43 -2 -26 3 -34 0
-38 -15 -5 -19 -6 -19 -34 -3 -24 14 -31 15 -41 4 -10 -11 -10 -12 0 -7 7 4
12 1 12 -8 0 -9 5 -16 12 -16 6 0 9 -3 5 -6 -3 -3 -19 3 -35 14 -40 29 -120
34 -143 9 -9 -9 -29 -11 -68 -7 -31 4 -72 3 -91 -1 -26 -6 -38 -5 -46 6 -10
13 -13 13 -25 -1 -9 -11 -25 -15 -51 -12 -21 2 -38 0 -38 -4 0 -5 -9 -8 -21
-8 -11 0 -29 -4 -39 -10 -13 -7 -21 -6 -30 5 -8 10 -21 13 -34 9 -11 -4 -43
-9 -71 -11 -92 -7 -119 -10 -182 -23 -35 -7 -63 -15 -63 -19 0 -4 -12 -8 -27
-9 -15 -1 -32 -7 -37 -12 -6 -6 -19 -10 -29 -10 -16 0 -17 3 -8 14 10 12 6 13
-29 9 -51 -7 -54 11 -5 31 19 8 35 20 35 25 0 6 14 17 30 26 39 20 40 45 1 45
-17 0 -32 -4 -35 -9 -3 -4 -19 -11 -36 -14 -17 -4 -46 -23 -66 -42 -19 -20
-40 -33 -46 -29 -12 7 -79 -61 -122 -124 -35 -52 -44 -58 -59 -42 -9 9 -6 17
15 33 23 19 27 28 23 57 -4 33 -1 38 70 98 67 56 135 138 135 163 0 15 -22 10
-66 -14 -47 -28 -82 -38 -89 -28 -2 5 14 14 36 20 33 10 40 16 36 31 -3 11 1
24 8 30 19 15 30 91 16 99 -7 5 1 21 25 45 28 29 34 40 24 49 -9 9 -21 2 -51
-32 -37 -41 -40 -43 -46 -23 -7 27 -13 27 -48 0 -16 -12 -35 -23 -44 -24 -9
-1 -24 -5 -33 -8 -27 -12 -10 30 24 59 37 31 53 32 37 3 -11 -21 -11 -22 5 -9
9 8 14 21 11 29 -3 8 -1 20 4 26 4 6 11 25 13 41 3 17 7 36 9 44 8 28 -17 20
-35 -12 -19 -32 -35 -23 -20 11 4 9 6 21 5 26 -1 4 4 14 10 22 7 8 9 18 5 21
-4 4 -11 1 -16 -7 -8 -12 -10 -11 -10 4 0 16 -3 17 -12 8 -23 -23 -28 -12 -28
54 0 41 -4 63 -10 59 -5 -3 -10 -25 -10 -49 0 -24 -5 -58 -11 -76 -10 -27 -13
-30 -21 -16 -5 9 -16 16 -24 16 -12 0 -13 -4 -3 -21 6 -12 9 -30 6 -40 -3 -13
2 -24 14 -32 19 -12 26 -37 10 -37 -5 0 -14 7 -21 15 -12 15 -40 21 -40 9 0
-4 9 -21 19 -38 25 -40 15 -61 -19 -41 -43 25 -51 28 -56 22 -3 -3 6 -23 20
-44 27 -40 34 -73 15 -73 -7 0 -31 10 -55 22 -24 12 -47 19 -50 15 -12 -11 7
-44 31 -55 14 -6 25 -18 25 -26 0 -16 57 -61 94 -76 14 -5 26 -16 26 -25 0
-11 -5 -13 -17 -6 -10 5 -29 13 -43 19 -14 5 -44 18 -68 27 -59 25 -72 9 -27
-35 19 -19 35 -40 35 -47 0 -27 83 -92 113 -87 24 3 41 -30 23 -45 -10 -8 -21
-7 -42 4 -16 8 -36 15 -44 15 -9 0 -23 9 -33 20 -18 21 -61 27 -72 10 -3 -5
24 -39 61 -74 54 -51 65 -67 59 -85 -10 -33 2 -56 40 -77 37 -20 39 -22 27
-41 -6 -9 -18 -3 -43 23 -19 20 -58 52 -86 71 -29 19 -53 38 -53 43 0 16 -44
19 -60 5 -9 -8 -24 -15 -33 -15 -9 0 -17 -4 -17 -10 0 -5 5 -10 10 -10 6 0 10
-7 10 -15 0 -8 -4 -15 -10 -15 -5 0 -10 -7 -10 -15 0 -10 10 -15 29 -15 35 0
48 -15 31 -35 -7 -8 -10 -22 -6 -30 4 -12 11 -13 33 -4 19 7 29 7 31 0 2 -6
13 -11 24 -11 17 0 18 -3 9 -14 -10 -11 -8 -16 5 -24 10 -5 18 -16 20 -23 1
-8 3 -20 5 -27 4 -12 -70 -62 -91 -62 -6 0 -10 13 -10 29 0 33 -8 40 -56 51
-24 6 -34 4 -38 -6 -8 -22 -45 -17 -69 9 -17 18 -37 25 -84 30 -67 7 -74 3
-79 -42 -1 -14 -5 -48 -9 -76 -4 -27 -7 -63 -8 -80 0 -28 -11 -44 -30 -45 -5
0 -5 5 -2 11 10 16 18 187 10 237 -5 36 -9 41 -21 31 -8 -6 -14 -19 -14 -28 0
-9 -11 -37 -24 -63 -13 -27 -20 -48 -15 -48 6 0 7 -6 2 -12 -9 -15 -9 -17 -17
-99 -4 -35 -10 -66 -14 -69 -4 -3 -9 -21 -10 -40 l-4 -35 24 26 c14 15 41 33
62 40 21 8 35 18 32 25 -8 22 22 23 36 2 15 -22 86 -39 188 -44 68 -3 100 -12
100 -29 0 -17 34 -25 76 -18 35 6 35 6 32 -28 l-3 -34 -80 -1 c-111 -1 -122
-6 -150 -70 -13 -30 -28 -54 -34 -54 -5 0 -23 -12 -40 -26 -17 -14 -35 -23
-40 -20 -5 4 -13 1 -17 -5 -4 -7 -9 -8 -13 -1 -4 6 -11 4 -19 -4 -7 -8 -8 -14
-2 -14 21 0 9 -18 -17 -25 l-28 -8 25 -6 c33 -8 228 3 307 18 43 8 69 8 88 1
15 -6 50 -7 79 -4 46 6 57 13 108 65 46 47 64 59 89 59 39 0 89 -29 89 -52 0
-10 6 -18 14 -18 16 0 51 -49 42 -58 -4 -3 -12 0 -18 6 -18 18 -26 14 -30 -15
-2 -22 -10 -29 -38 -34 -19 -4 -36 -12 -38 -18 -6 -18 -29 -12 -44 11 -15 22
-16 22 -58 5 -39 -15 -45 -15 -70 0 -26 15 -29 14 -74 -12 -25 -15 -46 -31
-46 -36 0 -5 -11 -9 -23 -9 -30 0 -53 -25 -62 -67 -5 -28 -11 -33 -34 -33 -16
0 -40 -9 -55 -21 -32 -25 -42 -20 -51 28 -4 21 -9 41 -11 45 -8 13 -52 -22
-75 -58 -29 -47 -43 -44 -35 9 6 40 5 44 -19 55 -46 21 -105 -28 -92 -77 6
-24 -8 -36 -47 -40 -43 -4 -51 19 -13 39 36 19 53 66 20 56 -10 -3 -33 -8 -52
-10 -18 -2 -46 -13 -62 -25 -25 -19 -49 -27 -49 -17 0 2 7 21 17 42 11 26 17
74 19 144 3 91 8 162 17 235 1 11 5 25 9 30 3 6 11 35 16 65 6 30 15 68 21 83
15 39 25 110 26 181 0 58 -1 60 -30 68 -16 4 -39 4 -50 -1 -33 -14 -96 -33
-99 -29 -1 1 -8 16 -16 31 -16 32 -16 32 -41 -50 -7 -24 -17 -43 -23 -43 -6 0
-19 19 -30 43 -34 77 -39 87 -46 87 -8 0 -42 -83 -47 -114 -2 -11 -6 -22 -10
-25 -3 -3 -4 3 -1 15 3 12 -3 31 -13 45 -10 13 -19 30 -19 37 0 6 -6 12 -13
12 -14 0 -30 -34 -47 -100 -7 -25 -16 -50 -22 -57 -5 -7 -7 -17 -3 -23 3 -5 3
-10 -2 -10 -4 0 -8 -15 -7 -32 0 -18 -4 -39 -9 -45 -5 -7 -7 -22 -4 -32 3 -11
-1 -28 -8 -38 -10 -13 -10 -22 -3 -31 8 -9 8 -16 0 -24 -8 -8 -7 -15 6 -24 16
-12 15 -13 -8 -22 -22 -9 -23 -11 -7 -17 9 -4 24 -5 32 -1 8 3 15 1 15 -4 0
-6 0 -13 0 -17 1 -5 -14 -10 -31 -13 -18 -3 -34 -11 -37 -19 -3 -10 1 -12 16
-8 19 4 20 2 12 -14 -6 -10 -26 -21 -45 -25 -52 -9 -58 -28 -7 -22 22 3 43 3
46 0 10 -9 -16 -32 -51 -47 -44 -18 -44 -40 0 -31 70 15 77 16 77 7 0 -9 -82
-51 -142 -72 -54 -18 -70 -1 -31 35 15 14 22 26 15 26 -19 0 -14 35 9 56 19
17 19 19 4 31 -16 11 -15 14 10 37 16 14 35 26 44 27 9 1 5 4 -8 8 -29 8 -36
24 -19 42 7 8 14 32 16 54 2 22 7 42 12 45 4 3 13 25 20 50 7 25 18 57 26 72
8 15 17 44 20 65 3 21 10 46 15 55 12 22 11 65 -1 89 -12 22 -45 25 -57 6 -4
-8 -21 -22 -36 -32 -28 -18 -28 -18 -58 11 l-31 29 -16 -21 c-9 -12 -22 -30
-29 -40 -13 -20 -19 -17 -49 33 -11 17 -13 17 -36 -5 -22 -20 -26 -21 -38 -7
-18 22 -40 1 -40 -41 0 -18 -5 -36 -12 -40 -7 -4 -57 -9 -113 -10 -136 -2
-150 -5 -150 -29 0 -15 -8 -21 -33 -23 -46 -5 -63 11 -51 50 4 17 6 35 3 39
-3 5 -2 14 2 21 5 8 10 6 15 -8 7 -18 8 -18 8 3 1 30 41 39 106 23 34 -8 45 1
45 36 0 20 -4 33 -10 29 -6 -3 -7 1 -4 9 4 10 18 16 36 16 47 0 111 42 101 66
-9 23 46 64 86 64 32 0 30 62 -3 79 -32 18 -122 5 -159 -23 -21 -15 -45 -21
-93 -23 -36 -1 -69 -5 -74 -8 -5 -3 -18 -1 -29 4 -16 9 -20 7 -25 -12 -3 -12
-20 -38 -38 -58 -30 -34 -41 -38 -132 -55 -55 -10 -108 -26 -118 -34 -12 -9
-21 -33 -24 -60 -3 -24 -7 -47 -10 -51 -2 -4 -27 -10 -54 -14 -28 -4 -50 -10
-50 -14 0 -14 -63 -43 -106 -47 -42 -5 -45 -4 -54 23 -8 21 -17 28 -38 30 -15
1 -33 -4 -41 -10 -11 -9 -15 -9 -18 1 -3 6 -16 12 -29 12 -15 0 -23 4 -19 10
4 6 10 8 15 5 4 -3 13 8 18 24 12 33 -1 53 -26 44 -10 -4 -13 -2 -8 5 5 9 -6
12 -38 12 -48 0 -59 8 -61 51 -3 47 31 47 94 1 21 -16 47 -25 73 -26 33 -1 44
4 64 29 13 17 24 38 24 48 0 14 10 17 50 18 28 1 53 3 58 4 4 2 17 6 29 10 30
10 39 42 19 64 -9 10 -16 25 -16 34 0 14 11 17 68 17 37 0 73 4 80 9 9 5 12
30 10 87 l-3 79 55 3 c62 4 79 14 78 45 -2 32 -15 45 -75 73 -30 13 -53 30
-51 36 5 14 93 12 120 -3 33 -18 68 -10 80 17 9 20 9 27 -2 34 -10 6 -7 9 10
12 33 4 35 22 6 51 -23 23 -21 47 3 33 5 -4 11 -3 13 2 6 15 86 72 101 72 19
0 47 37 47 62 0 39 -82 43 -129 7 -13 -11 -32 -19 -42 -19 -11 0 -19 -4 -19
-10 0 -5 -19 -14 -42 -20 -69 -17 -87 -28 -94 -54 -4 -18 -17 -28 -47 -38 -31
-9 -42 -18 -42 -33 -1 -11 -4 -26 -8 -33 -9 -14 -55 -16 -75 -3 -9 5 -24 -1
-45 -21 -18 -16 -47 -34 -65 -40 -20 -8 -35 -21 -38 -34 -4 -17 -20 -27 -66
-40 -33 -10 -64 -26 -69 -36 -5 -10 -7 -18 -3 -18 3 0 1 -7 -6 -15 -7 -8 -9
-15 -4 -15 5 0 2 -5 -6 -10 -11 -7 -11 -10 -2 -10 10 0 10 -5 1 -21 -9 -17 -8
-23 2 -30 10 -6 11 -9 2 -9 -7 0 -12 -5 -10 -12 1 -8 -19 -12 -64 -12 -66 -1
-66 -1 -110 -49 -32 -36 -49 -47 -61 -42 -27 11 -24 80 3 103 40 32 59 56 59
72 0 53 34 127 79 170 54 53 106 72 180 65 46 -4 56 -1 77 20 14 14 30 25 37
25 17 1 -32 40 -49 40 -27 0 -16 48 16 67 35 20 36 27 10 60 -20 26 -19 43 5
43 12 0 27 23 29 45 1 5 10 12 21 16 55 17 64 22 69 34 14 38 -104 74 -136 41
-9 -9 -21 -16 -27 -16 -6 0 -11 -6 -11 -12 0 -7 -19 -23 -42 -36 -35 -19 -44
-20 -57 -8 -22 19 -55 25 -75 14 -17 -10 -66 -102 -66 -125 0 -7 -16 -23 -36
-37 -34 -23 -37 -23 -65 -8 -16 10 -29 23 -29 30 0 14 -2 15 -33 3 -14 -6 -28
-19 -32 -30 -11 -35 -38 -24 -64 24 -13 24 -33 47 -45 51 -21 7 -51 41 -51 58
0 15 -63 23 -106 14 -11 -2 -13 7 -10 42 11 121 15 113 -81 156 -21 9 -38 22
-38 28 0 7 -13 22 -30 34 -16 13 -30 31 -30 42 0 13 -7 20 -19 20 -11 0 -22 9
-26 19 -5 18 -24 31 -53 37 -7 1 -18 -7 -23 -20z m-911 -1411 c6 11 14 16 18
12 4 -4 -2 -17 -14 -30 -12 -13 -22 -31 -22 -41 0 -11 -10 -29 -22 -42 -81
-82 -78 -78 -63 -98 14 -18 16 -18 33 -3 10 9 24 17 30 17 19 0 14 -18 -8 -30
-11 -6 -20 -17 -20 -25 0 -20 -19 -19 -55 5 -33 22 -65 26 -65 9 0 -22 22 -49
40 -49 10 0 22 -5 26 -11 3 -6 20 -17 37 -24 26 -11 39 -10 76 1 60 18 69 18
48 -3 -9 -10 -36 -23 -59 -30 -41 -12 -67 -9 -186 23 -10 3 -10 9 -2 23 10 19
15 99 5 90 -2 -3 -7 -23 -11 -45 -3 -21 -10 -43 -15 -48 -5 -6 -9 -23 -9 -38
0 -25 3 -28 36 -28 33 0 131 -26 146 -39 7 -6 -13 -8 -99 -13 -21 -2 -57 1
-80 6 -36 6 -43 5 -43 -8 0 -9 -4 -16 -10 -16 -5 0 -8 28 -6 67 4 71 -7 119
-24 108 -16 -10 -50 -86 -50 -112 0 -13 -4 -23 -8 -23 -5 0 -16 -16 -25 -35
-24 -50 -57 -49 -58 3 -1 20 -2 63 -4 95 -2 31 1 59 5 62 4 2 6 23 4 46 -3 33
1 46 18 60 26 23 113 26 163 5 34 -15 35 -14 35 9 0 32 41 75 73 75 20 0 24
-4 20 -20 -4 -15 0 -20 16 -20 16 0 21 6 21 28 0 42 11 72 26 72 8 0 14 -7 14
-15 0 -18 16 -20 26 -4 3 6 0 15 -7 20 -11 7 -10 9 4 9 9 0 17 6 18 13 0 6 4
3 8 -8 8 -19 8 -19 19 0z m-598 -29 c-9 -39 -38 -123 -51 -149 -5 -10 -7 -22
-4 -26 2 -5 -2 -14 -10 -21 -23 -19 -19 -50 8 -51 16 -1 18 -2 5 -6 -19 -5
-25 -23 -8 -23 20 0 9 -21 -16 -30 -29 -12 -23 -30 10 -30 39 0 39 -14 -1 -25
-28 -8 -39 -17 -41 -33 -4 -28 14 -52 39 -52 30 0 22 -18 -10 -25 -16 -3 -40
-16 -54 -29 -27 -25 -47 -23 -47 4 0 30 11 50 29 50 12 0 11 5 -8 19 -20 15
-22 21 -12 40 7 12 10 25 7 29 -2 4 -6 36 -8 70 -1 34 -6 62 -10 62 -4 0 -5 7
-2 15 4 8 1 15 -4 15 -13 0 -52 -53 -52 -71 0 -7 -3 -9 -7 -5 -5 4 -8 43 -8
87 0 76 1 79 27 90 15 6 33 17 39 25 20 24 37 15 44 -24 3 -21 15 -43 25 -50
17 -10 23 -5 54 45 20 32 36 63 36 70 0 18 22 63 31 63 4 0 3 -15 -1 -34z
m2191 -38 c22 -12 39 -28 39 -35 0 -7 4 -13 9 -13 18 0 71 -65 71 -87 0 -12 6
-23 13 -26 6 -3 -5 -12 -26 -21 -21 -9 -36 -20 -33 -24 3 -5 1 -14 -3 -21 -7
-10 -13 -11 -31 -1 -13 7 -39 9 -64 6 -84 -13 -181 -23 -188 -19 -5 2 -8 22
-8 45 0 31 -3 39 -15 35 -60 -24 56 125 126 160 55 28 62 28 110 1z m1434 -93
c-3 -11 -10 -40 -16 -65 -19 -77 -23 -144 -8 -135 9 6 11 -1 6 -31 -4 -21 -7
-60 -7 -86 0 -36 -3 -46 -14 -42 -8 3 -17 0 -21 -6 -11 -19 -32 -120 -40 -192
-6 -67 -6 -67 20 -74 15 -4 53 1 88 10 34 9 81 21 105 27 23 6 42 15 42 20 0
5 7 9 15 9 18 0 20 -16 3 -27 -7 -4 -18 -17 -24 -28 -10 -17 -7 -23 15 -37 25
-17 26 -17 58 14 l32 31 11 -27 c5 -15 8 -32 5 -37 -3 -4 -8 -25 -10 -45 -7
-51 -11 -54 -59 -54 -27 0 -48 -6 -56 -15 -7 -9 -15 -13 -18 -11 -2 3 -21 -4
-40 -15 -62 -33 -116 -23 -170 30 -24 25 -39 31 -71 31 -23 0 -41 -4 -41 -10
0 -5 -7 -10 -15 -10 -9 0 -19 -10 -24 -22 -5 -13 -18 -32 -30 -42 -11 -11 -21
-26 -21 -34 0 -33 -45 -132 -58 -127 -8 3 -20 5 -27 5 -8 0 -17 9 -20 20 -4
11 -27 30 -53 41 -26 12 -53 26 -61 33 -8 6 -35 11 -60 11 -39 0 -47 4 -58 26
-7 15 -19 31 -26 37 -29 25 -56 -33 -50 -105 3 -29 2 -76 -1 -106 l-7 -54 -34
15 c-33 15 -47 37 -61 96 -4 17 -2 31 5 35 6 4 14 24 16 43 4 32 2 37 -23 43
-23 6 -25 8 -12 18 11 9 14 21 9 42 -4 17 -7 51 -8 76 -1 48 8 59 49 59 10 0
25 7 34 15 8 8 25 19 38 24 l23 10 -24 0 -24 1 27 21 c19 15 26 28 24 51 -2
20 3 33 16 40 10 6 28 20 40 32 19 19 19 21 3 24 -9 2 -14 8 -11 14 4 6 0 14
-7 19 -10 6 -10 9 -2 9 7 0 29 12 50 26 36 24 52 38 109 93 13 13 28 21 32 17
4 -4 0 -13 -8 -19 -9 -7 -14 -20 -12 -29 2 -12 -5 -21 -22 -28 -14 -5 -26 -14
-26 -19 0 -5 -14 -14 -32 -20 -17 -6 -29 -14 -25 -17 3 -3 2 -17 -3 -30 -11
-28 4 -42 26 -23 17 14 19 13 28 -24 4 -17 3 -26 -3 -23 -5 3 -21 -7 -34 -24
-14 -16 -35 -30 -46 -30 -12 0 -21 -5 -21 -10 0 -6 11 -8 26 -4 l26 7 -17 -27
c-10 -14 -23 -26 -31 -26 -17 0 -37 -37 -30 -56 8 -21 47 -17 53 5 5 21 61 40
72 24 9 -13 173 -9 198 5 12 7 35 12 52 12 43 0 61 9 62 34 1 18 2 18 6 3 4
-16 7 -15 19 8 15 28 19 59 16 108 -2 26 -4 27 -57 27 -30 0 -55 5 -55 10 0 6
9 10 20 10 11 0 39 6 61 13 32 9 45 20 57 47 8 19 21 47 28 61 27 52 42 116
49 202 5 61 11 87 20 87 18 0 25 22 26 83 l1 52 9 -50 c4 -27 6 -59 4 -70z
m-2599 35 c5 -22 7 -23 15 -7 6 9 7 22 4 27 -3 6 5 10 19 10 35 0 39 -13 21
-65 -8 -25 -15 -59 -15 -75 0 -19 -5 -30 -14 -30 -15 0 -29 27 -21 41 7 11
-13 49 -25 49 -6 0 -10 -6 -10 -14 0 -7 -7 -19 -15 -26 -10 -8 -15 -31 -15
-71 0 -33 -4 -59 -10 -59 -5 0 -10 -7 -10 -15 0 -8 -4 -15 -10 -15 -5 0 -10
-7 -10 -15 0 -8 -8 -16 -17 -16 -17 -1 -17 -2 0 -6 9 -2 17 -9 17 -14 0 -6 4
-7 10 -4 13 8 63 16 125 21 28 3 93 9 147 15 94 10 202 4 193 -11 -6 -9 88
-70 108 -70 14 0 31 16 32 30 1 17 42 63 66 76 30 15 79 19 79 6 0 -4 -8 -15
-17 -24 -61 -56 -93 -97 -83 -103 20 -12 120 5 120 21 0 21 38 17 63 -7 12
-11 34 -23 49 -26 15 -3 39 -21 54 -40 l26 -34 -21 -20 c-12 -11 -21 -24 -21
-28 0 -8 -44 -23 -234 -81 -61 -18 -96 -12 -96 17 0 19 -65 34 -205 48 -141
14 -170 9 -190 -31 -30 -60 -66 -71 -87 -26 -8 16 -23 28 -38 30 -14 2 -31 9
-39 15 -7 7 -19 12 -25 12 -66 4 -238 43 -247 57 -3 5 -21 10 -40 12 -19 2
-42 7 -53 11 -10 5 -21 3 -25 -2 -3 -6 -25 -14 -48 -18 -24 -4 -45 -11 -49
-16 -3 -5 -20 -9 -38 -9 -18 0 -41 -7 -52 -15 -27 -21 -44 -18 -44 6 0 12 8
23 20 26 25 7 25 21 0 52 -16 18 -27 22 -50 18 -16 -4 -32 -2 -35 4 -9 14 5
69 17 69 6 0 7 -7 4 -16 -5 -13 1 -15 37 -12 32 2 41 0 39 -11 -2 -11 6 -12
40 -7 24 4 48 12 53 19 34 41 255 111 298 94 7 -3 26 1 42 8 l30 12 -30 7
c-39 8 -59 39 -45 66 5 10 10 21 10 24 0 11 -48 6 -84 -9 -21 -9 -36 -11 -36
-5 0 5 5 10 10 10 6 0 10 7 10 15 0 19 31 35 72 36 30 2 31 2 6 6 -32 5 -39
39 -10 46 13 4 11 5 -5 6 -30 1 -29 24 2 41 17 9 47 11 99 7 84 -6 146 4 161
28 9 14 10 14 13 -2 1 -10 5 -29 8 -43z m449 30 c0 -8 -6 -16 -12 -16 -7 -1
-19 -2 -26 -3 -21 -2 -77 -56 -77 -74 0 -10 -7 -17 -15 -17 -9 0 -28 -11 -42
-24 -15 -14 -30 -23 -35 -20 -4 3 -8 0 -8 -6 0 -6 -6 -18 -14 -25 -12 -12 -15
-12 -20 2 -4 9 -2 19 4 23 6 4 1 15 -14 29 -17 16 -23 31 -21 50 2 14 4 29 4
33 1 3 13 5 28 3 15 -1 47 7 72 18 25 11 50 19 54 19 4 -1 10 5 14 13 8 22
108 17 108 -5z m-2669 -37 c-2 -10 -7 -39 -10 -65 -4 -27 -12 -48 -18 -48 -6
0 -8 -9 -5 -21 8 -29 -2 -49 -24 -49 -18 0 -19 -6 -15 -71 3 -39 7 -73 10 -77
3 -3 6 -13 6 -23 0 -13 -10 -18 -46 -21 -51 -4 -83 8 -47 18 34 9 38 34 5 35
-18 1 -21 3 -9 6 12 3 16 11 12 23 -3 10 -1 21 5 25 6 4 10 54 10 125 0 133 3
140 74 140 19 0 38 5 41 10 9 15 14 12 11 -7z m602 -20 c7 -7 18 -13 23 -13 6
0 8 -8 4 -19 -8 -26 23 -37 41 -14 7 10 14 24 14 31 0 6 5 12 10 12 5 0 9 5 8
11 -2 6 3 14 10 16 13 5 15 -8 14 -76 -1 -25 -6 -47 -11 -50 -5 -3 -13 -22
-18 -41 -8 -31 -13 -35 -44 -35 -19 0 -44 5 -56 12 -25 14 -152 35 -165 27 -4
-3 -15 2 -23 10 -14 13 -9 16 45 22 33 4 60 11 60 15 0 5 6 9 13 9 22 0 67 25
64 35 -2 6 -43 11 -90 13 -99 3 -114 18 -44 43 47 18 124 14 145 -8z m4688
-68 c-10 -15 -16 -47 -16 -85 0 -34 -5 -70 -10 -81 -9 -16 -7 -19 15 -19 16 0
25 -6 25 -15 0 -8 -5 -15 -10 -15 -6 0 -16 -11 -22 -25 -10 -21 -18 -25 -57
-25 l-46 0 33 26 c33 26 40 52 20 72 -9 9 -7 16 7 32 18 19 18 20 -3 20 -11 0
-23 -4 -26 -8 -4 -7 -28 -8 -55 -3 -3 1 16 14 41 31 26 17 52 45 63 67 9 21
24 51 31 66 8 16 15 36 16 45 1 9 3 0 5 -21 3 -24 -2 -48 -11 -62z m-5686 -55
c30 0 -8 -18 -74 -34 -38 -9 -86 -26 -107 -36 -21 -11 -52 -20 -68 -20 -25 0
-30 -5 -36 -30 -4 -19 -13 -30 -23 -30 -9 0 -30 -9 -47 -20 -16 -11 -39 -20
-50 -20 -11 0 -40 -14 -64 -30 -65 -44 -70 -42 -47 24 15 42 30 56 64 56 12 0
30 4 40 9 9 6 29 12 43 15 14 3 31 16 38 28 6 13 35 37 64 53 41 24 68 31 132
36 44 3 89 4 100 2 11 -1 27 -3 35 -3z m10830 -6 c0 -3 -6 -12 -12 -19 -7 -8
-24 -28 -38 -44 -14 -17 -33 -40 -42 -51 -22 -25 -23 -50 -2 -50 15 0 15 -2 0
-25 -9 -14 -15 -29 -12 -34 6 -10 56 -2 73 11 14 11 58 1 73 -17 14 -17 -44
-26 -94 -15 -35 8 -37 7 -51 -26 -18 -44 -57 -63 -80 -40 -9 9 -24 16 -34 16
-25 0 -53 33 -45 54 4 9 13 15 20 12 9 -3 14 2 14 14 0 11 -6 20 -14 20 -32 0
-26 79 8 103 20 13 -16 27 -74 28 -64 1 -118 17 -62 18 19 1 50 8 69 17 32 16
38 16 94 -1 l59 -18 57 26 c56 24 93 33 93 21z m-2554 -152 c-32 -32 -38 -34
-92 -32 -70 2 -97 2 -146 -3 -34 -3 -38 -1 -38 19 0 17 8 24 30 29 17 4 28 11
25 16 -4 5 1 6 9 3 9 -4 18 1 22 10 4 10 18 16 41 16 19 0 32 -4 28 -10 -3 -5
-12 -7 -20 -3 -8 3 -15 0 -15 -5 0 -6 8 -13 18 -15 63 -18 70 -17 108 14 36
28 39 29 51 12 12 -15 9 -22 -21 -51z m324 -54 c0 -10 -4 -18 -9 -18 -4 0 -25
-13 -45 -29 l-36 -29 40 -16 c22 -9 40 -19 41 -23 0 -5 2 -16 4 -26 3 -17 -3
-18 -80 -14 -45 2 -87 7 -93 11 -6 4 -22 4 -36 0 -30 -7 -66 11 -66 34 0 33
20 41 85 35 62 -6 63 -5 58 18 -4 21 3 28 47 51 58 30 90 32 90 6z m-574 -13
c5 -11 13 -13 28 -9 36 12 111 1 101 -15 -10 -17 25 -20 59 -6 20 8 43 15 52
15 15 0 15 -3 -3 -22 -12 -13 -23 -34 -25 -48 -3 -22 -7 -24 -49 -22 -26 2
-50 -1 -54 -7 -3 -6 -29 -11 -56 -11 -31 0 -65 -8 -91 -21 -26 -13 -44 -17
-50 -11 -14 14 5 45 39 62 57 30 67 57 28 74 -13 5 -16 10 -7 13 6 3 10 9 6
14 -3 5 0 9 6 9 6 0 13 -7 16 -15z m-7415 -73 c-16 -31 -45 -48 -115 -71 -38
-12 -82 -31 -97 -41 -15 -11 -42 -20 -61 -19 -18 0 -27 3 -20 6 6 2 12 11 12
18 0 7 8 15 18 19 9 3 37 21 62 40 25 19 57 37 72 41 15 4 30 10 32 14 2 3 27
8 56 9 46 2 50 0 41 -16z m-611 -22 c0 -5 -6 -10 -13 -10 -8 0 -22 -9 -32 -20
-10 -11 -27 -20 -38 -20 -13 0 -17 -5 -13 -16 3 -9 6 -18 6 -20 0 -2 24 -4 54
-4 108 0 151 -24 75 -43 -19 -5 -50 -15 -69 -22 -19 -8 -52 -16 -72 -20 -20
-3 -38 -9 -40 -14 -2 -5 -28 -10 -58 -13 -54 -4 -55 -4 -55 21 0 24 -4 26 -50
32 -48 5 -49 5 -15 10 l35 6 -40 2 c-30 1 -36 4 -25 11 8 5 27 10 42 10 15 0
29 4 32 9 3 4 21 11 40 14 29 5 159 60 206 87 20 12 30 12 30 0z m3801 -6 c8
-5 23 -10 34 -11 24 -4 54 -41 55 -65 0 -10 5 -18 10 -18 6 0 10 -9 10 -20 0
-24 39 -80 55 -80 6 0 16 -14 23 -32 9 -25 14 -30 24 -20 17 17 38 15 38 -3 0
-17 -29 -34 -55 -32 -15 2 -23 -9 -35 -46 -9 -27 -27 -57 -40 -68 -30 -23 -88
-25 -96 -4 -4 8 -10 13 -14 10 -5 -3 -15 4 -23 16 -14 19 -21 20 -84 14 -66
-7 -72 -6 -137 29 -64 34 -69 35 -82 19 -7 -10 -18 -38 -24 -61 -15 -59 -35
-87 -76 -107 -21 -10 -34 -23 -34 -35 0 -11 -16 -37 -35 -59 -38 -42 -62 -131
-34 -131 10 0 10 -3 1 -12 -7 -7 -8 -17 -1 -30 8 -15 6 -18 -16 -18 -21 0 -25
-5 -25 -29 0 -31 -4 -33 -67 -46 -19 -4 -33 -13 -33 -21 0 -8 -9 -24 -20 -36
-11 -12 -20 -16 -20 -9 0 9 -3 9 -14 -1 -8 -7 -12 -16 -9 -20 2 -5 -5 -8 -17
-8 -12 0 -31 -5 -42 -11 -12 -6 -39 -11 -62 -11 -22 1 -48 -5 -56 -13 -28 -24
-111 -47 -126 -34 -11 9 -14 7 -14 -11 0 -28 -21 -103 -32 -110 -11 -8 3 -51
14 -43 6 3 8 0 6 -8 -3 -8 -12 -12 -19 -10 -31 8 -114 12 -135 7 -13 -4 -31
-19 -40 -36 -20 -34 -40 -40 -71 -25 -11 6 -37 9 -56 7 -31 -3 -39 -10 -57
-49 -25 -53 -42 -73 -69 -78 -30 -6 -81 -34 -81 -45 0 -6 -12 -29 -27 -52 -31
-46 -38 -90 -15 -99 21 -8 63 1 56 12 -3 5 3 12 13 16 20 7 58 43 46 43 -4 0
14 16 41 35 55 39 77 43 97 19 10 -12 10 -20 2 -34 -7 -10 -8 -21 -3 -26 29
-30 11 -125 -39 -202 -58 -87 -108 -103 -91 -27 12 52 -3 95 -34 95 -31 0 -76
-22 -76 -37 0 -7 -5 -13 -11 -13 -6 0 -9 -7 -5 -15 3 -8 2 -15 -2 -15 -5 0
-21 -24 -36 -52 -16 -29 -37 -63 -49 -76 -16 -18 -20 -34 -19 -81 1 -52 -2
-61 -22 -74 -13 -9 -26 -28 -29 -44 -3 -15 -13 -37 -21 -48 -15 -19 -15 -19
-16 8 0 17 -5 27 -15 27 -17 0 -20 11 -6 26 5 5 15 54 21 109 12 102 22 184
38 290 11 73 53 158 93 187 21 16 29 30 29 54 0 17 7 51 16 75 17 49 20 60 35
138 13 65 3 79 -37 58 -33 -18 -65 -52 -57 -61 4 -3 -15 -6 -41 -6 -34 0 -70
11 -132 40 -47 22 -94 40 -105 40 -11 0 -17 5 -14 10 4 6 -7 10 -27 9 -22 0
-27 -3 -16 -7 15 -6 13 -10 -12 -27 -17 -11 -30 -26 -30 -32 0 -7 -12 -13 -27
-13 -16 0 -37 -7 -47 -15 -11 -8 -34 -15 -52 -15 -18 0 -35 -4 -38 -9 -4 -5
-19 -3 -35 5 -33 16 -32 38 3 89 26 39 112 121 148 143 22 13 28 24 28 49 0
38 22 96 44 119 8 8 36 41 62 75 29 36 51 56 57 50 5 -5 19 -3 35 5 15 8 38
14 50 14 13 0 36 8 50 18 54 38 62 36 62 -13 0 -35 -4 -45 -20 -50 -11 -3 -20
-11 -20 -16 0 -6 -6 -16 -12 -24 -7 -7 -21 -22 -30 -34 -18 -21 -58 -29 -58
-11 0 22 -28 7 -84 -45 -32 -30 -62 -55 -66 -55 -4 0 -12 -11 -18 -25 -11 -24
-10 -25 19 -25 17 0 42 9 56 20 14 11 35 20 47 20 12 0 49 9 81 21 33 12 95
24 138 26 69 5 77 4 71 -11 -7 -18 5 -20 71 -16 51 3 94 24 123 61 48 59 141
79 242 53 61 -15 74 -16 112 -4 24 7 48 17 54 22 6 4 13 5 16 3 3 -3 32 1 64
9 33 8 93 22 134 31 41 9 91 20 110 25 19 5 59 10 88 11 28 2 53 5 54 8 0 3 2
19 3 36 1 16 10 34 20 40 10 5 27 19 39 30 19 18 24 28 29 60 1 6 -13 9 -30 9
-28 -2 -33 2 -33 20 0 12 4 26 9 32 9 9 26 61 55 164 18 62 48 99 151 181 102
82 115 87 221 84 51 -1 98 -6 105 -11z m-1731 -79 c54 -28 40 -46 -45 -61 -22
-4 -48 -11 -58 -16 -11 -6 -29 -5 -50 3 -27 10 -38 9 -64 -5 -18 -9 -34 -12
-37 -7 -12 18 6 39 52 62 26 12 54 26 62 30 26 13 110 10 140 -6z m6150 -15
c0 -5 -5 -10 -10 -10 -6 0 -8 -10 -5 -22 3 -13 2 -28 -2 -33 -14 -19 -64 -35
-107 -35 -36 0 -45 -4 -49 -21 -4 -15 -12 -20 -29 -18 -29 3 -68 -9 -68 -22 0
-5 -8 -9 -19 -9 -12 0 -20 9 -23 25 -3 13 -2 22 2 20 4 -2 33 20 65 49 51 48
65 55 113 61 30 4 65 11 76 15 29 12 56 12 56 0z m-1065 -36 c115 -4 158 -10
190 -24 119 -54 148 -60 162 -37 10 16 86 52 132 62 36 8 36 7 -1 -48 -11 -15
-23 -25 -28 -22 -5 3 -22 -8 -38 -24 -16 -17 -32 -28 -35 -25 -2 3 -7 -4 -10
-16 -3 -11 -1 -20 4 -20 5 0 9 -4 9 -9 0 -5 -12 -8 -27 -6 -40 5 -154 43 -169
56 -18 15 -54 1 -54 -21 0 -11 11 -31 25 -46 14 -15 25 -33 25 -40 0 -15 -19
2 -87 78 -38 43 -42 45 -56 30 -7 -9 -17 -26 -21 -36 -6 -18 -8 -18 -31 4 -14
13 -25 30 -25 38 0 9 -10 13 -32 11 -30 -3 -82 21 -99 43 -3 5 -20 12 -37 17
-29 9 -32 7 -32 -12 0 -14 -3 -18 -10 -11 -13 13 -2 44 15 44 7 0 16 7 19 16
5 12 13 15 34 10 15 -4 94 -9 177 -12z m-6650 -26 c-10 -46 -12 -47 -64 -69
-25 -11 -66 -41 -92 -67 -67 -70 -109 -99 -109 -76 0 10 21 45 38 64 31 34 42
49 42 57 0 5 15 18 33 28 l32 20 -27 3 c-44 5 -33 19 25 32 28 7 61 19 72 26
11 8 28 14 38 14 16 0 18 -5 12 -32z m8899 -4 c8 -20 -49 -73 -86 -81 -16 -3
-28 -9 -28 -14 0 -4 -8 -7 -18 -6 -10 0 -32 -10 -50 -23 -43 -32 -60 -17 -35
30 34 64 78 91 168 103 17 2 33 5 36 6 4 0 10 -6 13 -15z m-961 -16 c35 -18
48 -36 54 -73 3 -19 11 -36 17 -37 6 0 16 -2 23 -2 7 -1 32 -18 56 -38 37 -30
44 -41 39 -63 l-5 -26 -21 20 c-12 12 -27 21 -34 21 -6 0 -21 14 -34 30 -12
17 -28 30 -36 30 -26 0 -131 81 -141 110 -5 16 -7 31 -4 34 10 10 63 7 86 -6z
m-1815 -17 c7 -4 12 -12 10 -17 -1 -5 12 -39 30 -77 18 -37 32 -72 32 -77 0
-14 -13 -13 -28 2 -18 18 -33 -3 -39 -56 -6 -50 -18 -59 -62 -46 l-31 9 0 -45
c0 -45 0 -46 -29 -39 -34 7 -46 -5 -50 -50 -1 -13 -5 -14 -22 -4 -18 9 -25 7
-44 -13 -12 -14 -26 -34 -29 -46 -8 -24 -51 -31 -58 -9 -3 6 -1 52 3 101 5 50
6 92 4 94 -5 5 -55 -38 -122 -107 l-43 -44 0 41 c0 76 -47 58 -126 -48 -16
-22 -36 -40 -45 -40 -21 0 -36 -19 -41 -49 -2 -17 -18 -33 -50 -52 -26 -16
-49 -25 -51 -21 -6 10 16 72 25 72 13 0 58 43 58 54 0 6 9 22 20 36 23 29 26
50 7 50 -13 0 -43 -27 -77 -70 -18 -23 -21 -24 -33 -8 -12 15 -18 11 -65 -40
-28 -31 -60 -68 -71 -82 l-20 -25 -1 37 c0 58 55 163 118 226 46 46 61 55 99
60 38 4 48 10 65 38 11 19 25 34 31 34 5 0 3 8 -7 18 -13 15 -25 18 -61 12
-39 -6 -45 -4 -45 11 0 18 96 109 116 109 6 0 17 7 24 15 7 8 22 15 34 15 12
0 26 4 32 9 5 4 25 11 44 15 26 4 31 3 20 -5 -10 -7 -11 -12 -4 -15 7 -3 10
-14 7 -24 -3 -11 0 -20 6 -20 7 0 9 -9 5 -25 -6 -23 -3 -25 25 -25 17 0 31 4
31 9 0 5 26 19 58 31 52 20 62 21 115 9 32 -6 54 -15 50 -19 -4 -4 -39 -15
-78 -24 -50 -13 -79 -26 -102 -49 -18 -17 -33 -34 -33 -38 0 -4 24 -11 54 -14
l53 -7 83 61 c47 34 89 73 96 89 15 35 62 82 83 82 9 0 22 -4 29 -9z m-4494
-63 c-17 -31 -39 -48 -61 -48 -12 0 -32 -9 -44 -21 -23 -23 -163 -99 -183 -99
-8 0 -19 -7 -26 -15 -17 -21 -40 -19 -40 4 0 32 84 106 141 124 28 9 64 28 81
42 24 20 40 25 84 25 41 0 53 -3 48 -12z m6056 -3 c0 -3 -18 -9 -40 -15 -21
-6 -52 -22 -69 -35 -16 -14 -35 -23 -43 -20 -15 5 -64 -32 -55 -42 3 -3 23 1
44 9 23 10 46 12 58 7 39 -15 94 -10 115 11 11 11 20 25 20 32 0 18 42 58 61
58 22 0 49 -37 49 -65 0 -30 -19 -45 -56 -45 -30 0 -35 -5 -64 -62 -18 -35
-36 -65 -40 -68 -4 -3 -14 -18 -23 -35 -23 -43 -61 -82 -83 -87 -21 -4 -62
-71 -63 -103 0 -12 2 -15 7 -9 7 11 92 27 92 17 0 -3 -10 -13 -22 -24 -13 -10
-18 -18 -11 -19 6 0 13 6 16 13 2 6 7 10 10 7 13 -12 -11 -30 -41 -33 -18 -2
-38 -9 -44 -15 -7 -7 -17 -12 -24 -12 -6 0 -17 -7 -24 -15 -7 -8 -22 -15 -34
-15 -15 0 -33 -15 -54 -45 -34 -48 -58 -52 -47 -7 3 14 19 44 36 68 16 23 29
47 29 52 0 6 17 25 39 44 36 31 38 35 29 67 l-9 34 -22 -24 c-26 -30 -81 -69
-96 -69 -6 0 -11 7 -11 15 0 31 34 81 93 138 l60 59 57 -7 c66 -8 90 7 90 55
0 26 -2 27 -25 17 -14 -7 -25 -15 -25 -19 0 -5 -11 -8 -25 -8 -17 0 -25 -6
-25 -17 -1 -14 -5 -12 -21 9 l-19 26 -51 -34 c-60 -40 -74 -43 -64 -11 3 12 9
33 12 45 4 15 17 28 34 34 22 7 29 16 29 35 0 41 36 81 88 97 42 12 162 20
162 11z m1227 -52 c-8 -8 -20 -15 -28 -16 -17 -3 -62 -33 -96 -65 -14 -13 -49
-35 -79 -49 -30 -14 -54 -31 -54 -38 0 -16 -28 -40 -37 -31 -4 4 2 32 12 62
13 39 31 66 59 90 43 37 133 70 177 66 15 -2 32 4 40 14 13 16 14 16 17 -1 2
-9 -3 -24 -11 -32z m-8888 -69 c-17 -31 -26 -53 -20 -50 21 13 11 -34 -10 -52
-12 -9 -49 -41 -83 -69 -59 -51 -80 -62 -90 -45 -3 4 17 37 45 72 27 35 49 70
49 77 0 16 -26 17 -46 1 -59 -51 -92 -86 -98 -105 -7 -23 -20 -27 -123 -37
-32 -3 -53 -1 -53 5 0 23 -69 39 -142 32 -60 -5 -71 -4 -66 9 5 11 -1 13 -23
10 -23 -3 -28 -1 -24 11 6 15 40 20 217 33 67 5 95 3 126 -9 39 -16 41 -15 69
8 15 14 31 25 36 25 4 0 7 6 7 14 0 18 60 56 88 56 11 0 43 16 72 35 29 19 63
35 76 35 l25 0 -32 -56z m1645 30 c17 -46 -6 -104 -43 -104 -9 0 -31 -23 -50
-50 -18 -28 -37 -50 -42 -50 -14 0 -23 23 -21 53 2 24 0 27 -15 18 -10 -5 -33
-30 -52 -55 -33 -43 -71 -63 -112 -57 -9 1 -29 -14 -46 -34 -17 -19 -35 -35
-42 -35 -14 0 -15 37 -1 45 6 4 8 11 5 16 -4 5 -2 9 4 9 6 0 29 20 51 44 43
47 113 83 174 89 35 4 85 38 150 104 26 26 32 28 40 7z m5510 -55 c-3 -27 -12
-67 -21 -87 -8 -20 -15 -39 -14 -42 1 -3 -5 -6 -13 -8 -11 -2 -16 4 -16 17 0
40 -15 27 -48 -42 -2 -4 3 -4 12 -1 23 9 21 -27 -4 -59 -22 -28 -25 -68 -9
-116 12 -34 3 -57 -11 -30 -5 8 -27 21 -49 29 -23 7 -48 24 -56 37 -17 26 -61
33 -51 8 11 -29 -12 -15 -34 20 -34 54 -79 68 -94 29 -9 -22 -24 -16 -41 16
-9 17 -24 30 -34 30 -24 0 -43 23 -35 44 3 9 1 16 -6 16 -6 0 -8 -5 -4 -11 4
-7 1 -10 -7 -7 -8 3 -16 13 -17 22 -3 15 2 17 32 15 19 -2 38 0 42 4 10 10 61
9 82 -2 36 -18 132 -44 139 -37 4 3 8 13 9 21 7 44 129 138 182 138 7 0 23 11
35 23 32 34 37 30 31 -27z m801 -3 c18 -8 38 -24 45 -35 6 -12 17 -21 25 -21
8 0 15 -4 15 -9 0 -5 9 -11 21 -13 18 -3 39 -33 81 -120 11 -24 -6 -23 -29 0
-10 10 -35 26 -55 36 -21 9 -38 24 -38 32 0 12 -7 14 -28 9 -23 -5 -33 0 -55
25 -15 16 -32 30 -37 30 -14 0 -28 40 -22 62 5 22 31 23 77 4z m1512 -23 c3
-6 -8 -19 -24 -27 -15 -9 -43 -31 -61 -50 -19 -18 -46 -36 -62 -39 -15 -3 -40
-17 -56 -30 -16 -13 -34 -22 -41 -20 -7 2 -18 -5 -25 -16 -7 -12 -18 -21 -24
-21 -6 0 -17 -6 -24 -14 -6 -8 -17 -13 -24 -10 -11 4 -11 12 -1 41 11 32 10
40 -6 67 -10 17 -19 39 -19 49 0 9 -15 31 -32 47 -39 35 -20 40 25 8 46 -33
67 -56 67 -73 0 -8 6 -15 14 -15 14 0 94 54 148 100 26 22 36 25 85 20 31 -3
58 -10 60 -17z m-597 -13 c0 -6 -12 -20 -26 -33 -15 -12 -36 -32 -48 -43 -12
-12 -50 -41 -86 -65 -36 -23 -74 -51 -85 -61 -77 -72 -107 -81 -79 -25 22 41
162 180 205 203 61 31 119 43 119 24z m-2613 -82 c4 -7 26 -21 47 -31 44 -20
68 -47 109 -121 16 -28 35 -62 44 -75 9 -13 16 -49 16 -86 2 -65 -7 -90 -23
-65 -11 17 -11 16 -34 -32 -9 -21 -22 -38 -28 -38 -12 0 -48 39 -48 52 0 5
-11 13 -25 18 -22 8 -25 15 -25 60 0 52 -15 65 -40 35 -7 -8 -19 -15 -27 -15
-11 0 -13 12 -7 60 7 64 0 73 -29 39 -29 -34 -30 -16 -3 65 14 42 26 89 26
105 0 15 3 31 7 34 10 11 31 8 40 -5z m-6081 -12 c7 -8 15 -38 16 -69 2 -48
-1 -57 -27 -81 -21 -20 -35 -25 -54 -21 -24 5 -27 2 -43 -54 -10 -33 -18 -72
-18 -86 0 -15 -6 -25 -15 -25 -8 0 -18 -12 -21 -26 -6 -25 -8 -25 -18 -8 -11
21 -11 20 -21 81 -7 40 -6 43 40 87 26 25 50 46 55 46 4 0 15 30 25 68 22 91
49 120 81 88z m7621 -78 c4 -43 1 -66 -13 -97 -22 -46 -29 -49 -60 -20 l-22
21 -7 -59 c-7 -67 -44 -153 -62 -146 -7 3 -16 -2 -19 -11 -10 -25 -21 -19 -34
18 -19 58 -36 63 -58 19 -11 -21 -22 -50 -26 -65 -3 -16 -12 -28 -20 -28 -7 0
-21 -18 -31 -40 -21 -45 -22 -46 -47 -23 -17 15 -19 15 -33 -3 -8 -10 -15 -27
-15 -36 0 -10 -6 -18 -13 -18 -13 0 -67 -56 -67 -71 0 -11 -40 -32 -47 -25 -8
8 23 107 57 186 22 50 25 68 16 79 -9 11 -8 13 4 9 8 -3 41 13 72 34 32 21 93
56 137 77 81 39 191 135 191 166 0 19 27 73 48 98 23 27 42 2 49 -65z m1703
42 c0 -16 -4 -30 -9 -30 -5 0 -13 -9 -16 -20 -3 -11 -14 -27 -23 -37 -13 -13
-14 -17 -4 -21 10 -3 7 -11 -9 -28 -17 -18 -33 -24 -66 -24 -30 0 -45 -5 -49
-15 -4 -8 -13 -15 -21 -15 -8 0 -27 -8 -41 -19 -15 -10 -37 -21 -49 -25 -13
-4 -37 -27 -54 -52 -25 -34 -35 -41 -46 -33 -25 21 -10 109 19 109 6 0 27 17
47 38 37 40 88 70 130 78 31 6 111 59 141 94 33 38 50 37 50 0z m-1567 -34
c18 -14 55 -32 82 -41 28 -9 61 -27 74 -39 26 -23 81 -114 81 -133 0 -19 -28
-4 -35 18 -4 10 -13 19 -21 19 -7 0 -24 16 -36 35 -20 30 -27 34 -51 29 -20
-4 -35 1 -58 20 -17 14 -35 26 -40 26 -4 0 -15 13 -23 29 -9 16 -24 31 -36 34
-11 3 -20 10 -20 16 0 20 51 12 83 -13z m961 -12 c3 -9 1 -35 -6 -58 -6 -22
-12 -43 -13 -46 -5 -26 -34 -50 -59 -50 -27 0 -28 1 -12 13 20 15 40 106 27
120 -5 4 -34 -16 -66 -46 -69 -66 -103 -92 -133 -101 -12 -4 -22 -12 -22 -17
0 -5 -4 -9 -9 -9 -10 0 6 60 18 70 3 3 19 22 35 44 33 45 94 75 151 76 22 0
47 5 55 10 21 13 27 12 34 -6z m-8956 -8 c-10 -7 -18 -17 -18 -22 0 -5 -34
-44 -75 -87 -41 -44 -75 -84 -75 -89 0 -6 -8 -17 -17 -24 -17 -11 -16 -13 10
-23 29 -11 75 2 90 26 11 18 87 56 95 48 4 -4 -1 -11 -11 -16 -9 -6 -24 -25
-31 -44 -8 -19 -30 -48 -48 -65 l-33 -31 23 -16 c12 -8 22 -22 22 -29 0 -16
-26 -19 -35 -4 -10 16 -74 43 -103 42 -15 -1 -39 4 -54 10 -21 8 -34 6 -59 -6
-42 -21 -46 -20 -51 9 -3 14 -1 25 5 25 7 0 6 5 -2 13 -8 8 -39 11 -95 10 -82
-3 -84 -2 -88 22 -3 15 2 32 12 43 19 20 52 21 235 7 89 -8 90 -7 103 17 7 13
14 30 16 38 7 35 22 57 62 97 55 53 72 62 109 62 27 0 28 -1 13 -13z m9878 0
c10 -8 16 -18 12 -22 -14 -13 14 -34 44 -34 16 0 63 -13 106 -29 65 -25 96
-30 202 -34 118 -5 126 -4 167 19 33 18 59 24 106 24 35 0 67 4 73 9 5 5 27
12 49 14 22 3 52 8 68 12 15 4 27 5 27 2 0 -2 -20 -20 -44 -39 -42 -32 -44
-36 -32 -59 28 -55 20 -63 -71 -59 -33 1 -43 -2 -43 -14 0 -20 55 -76 74 -76
8 0 16 -5 18 -11 2 -5 12 -11 23 -13 17 -2 20 -12 23 -60 l3 -57 -28 18 c-15
9 -41 28 -57 41 -37 30 -67 26 -77 -12 -4 -15 -15 -36 -23 -45 -15 -16 -16
-20 -16 -47 0 -9 -7 -14 -17 -12 -10 2 -18 11 -18 21 0 10 -5 21 -11 25 -12 7
-26 45 -29 74 -4 49 -47 24 -71 -41 -10 -28 -21 -48 -25 -45 -5 2 -13 -5 -19
-16 -9 -16 -21 -20 -63 -21 -45 0 -114 -16 -79 -18 13 -1 17 -31 3 -31 -5 0
-11 -10 -14 -21 -5 -19 -11 -21 -47 -16 -39 5 -43 3 -62 -29 -24 -41 -46 -54
-87 -54 -16 0 -32 -4 -35 -9 -4 -5 32 -12 78 -16 69 -6 93 -4 130 10 39 15 63
17 154 11 59 -4 111 -12 117 -17 5 -6 3 -9 -7 -9 -18 0 -30 -56 -22 -100 7
-34 -11 -48 -26 -20 -6 11 -8 20 -4 20 4 0 -1 9 -10 19 -11 12 -37 21 -70 25
-85 11 -86 11 -86 -118 -1 -77 -5 -119 -15 -136 -8 -14 -14 -35 -15 -47 0 -33
-17 -28 -36 10 -22 43 -44 68 -72 78 -13 5 -20 13 -17 19 13 21 -19 9 -41 -15
-13 -14 -34 -25 -49 -25 -38 0 -62 -16 -69 -45 -4 -14 -13 -25 -21 -25 -8 0
-14 -3 -13 -7 1 -5 -2 -33 -7 -63 -4 -30 -9 -59 -9 -64 -1 -5 -8 -14 -18 -19
-30 -19 -68 32 -83 113 -10 50 -43 100 -66 100 -16 0 -19 -7 -19 -49 0 -53
-17 -81 -50 -81 -21 0 -55 -50 -85 -125 -22 -54 -45 -66 -84 -45 -17 9 -21 21
-21 62 0 36 -5 55 -17 65 -11 9 -12 12 -3 7 11 -5 12 -4 4 5 -9 10 -18 8 -43
-7 -17 -10 -28 -22 -24 -25 3 -4 -6 -7 -21 -7 -21 0 -30 -7 -42 -35 -9 -24
-21 -35 -34 -35 -13 0 -24 -10 -30 -25 -14 -37 -52 -86 -75 -96 -11 -5 -28
-14 -37 -21 -33 -24 -35 -6 -19 136 5 49 14 93 20 99 6 6 11 19 11 28 0 9 6
19 14 22 7 3 16 20 20 38 3 18 9 29 12 26 4 -3 29 17 58 45 58 57 101 90 108
82 3 -3 14 5 24 18 27 33 92 66 145 74 24 3 78 17 119 30 41 13 91 26 110 29
20 3 59 21 89 40 29 19 57 35 62 35 5 0 9 5 9 10 0 6 9 10 20 10 13 0 18 5 14
15 -4 8 1 32 9 54 9 21 17 67 18 101 2 51 6 64 21 68 10 2 18 7 18 11 0 4 16
24 35 46 20 21 32 41 28 44 -4 3 -13 15 -19 26 -6 11 -22 21 -35 23 -28 3 -53
-32 -64 -91 -8 -43 -29 -58 -48 -34 -43 53 -84 37 -116 -44 -24 -62 -44 -89
-66 -89 -17 0 -25 22 -35 98 -5 35 -10 66 -13 68 -7 7 -72 -24 -90 -43 -9 -11
-20 -34 -23 -52 -7 -34 -29 -51 -67 -51 -24 0 -107 -69 -107 -90 0 -5 -4 -10
-8 -10 -13 0 -99 -84 -105 -102 -4 -10 -12 -18 -19 -18 -7 0 -24 -12 -37 -25
-13 -14 -26 -23 -29 -21 -5 6 47 114 78 161 11 17 25 40 31 53 7 12 16 22 21
22 6 0 8 6 6 12 -3 7 10 35 27 63 31 49 52 105 39 105 -18 0 -73 -44 -107 -84
-34 -41 -56 -92 -72 -170 -5 -25 -8 -27 -20 -15 -9 9 -15 38 -16 79 -1 84 2
121 8 98 10 -40 42 -10 83 77 34 73 94 130 148 140 20 4 40 12 44 18 6 9 10 8
17 -2 5 -8 16 -11 25 -8 25 10 19 27 -10 27 -17 0 -24 4 -20 13 3 6 9 20 12
30 7 18 14 20 38 11 8 -3 12 -12 9 -20 -3 -8 -1 -14 4 -14 16 0 70 29 83 45 7
8 19 15 26 15 8 0 33 12 57 27 23 15 48 28 55 29 13 2 27 11 97 63 45 33 72
38 101 17z m-3756 -132 c0 -21 -4 -33 -10 -29 -5 3 -10 -3 -10 -14 0 -12 -4
-21 -10 -21 -5 0 -12 -11 -16 -25 -3 -14 -10 -25 -15 -25 -5 0 -9 -7 -9 -15 0
-8 -7 -15 -15 -15 -12 0 -13 -5 -4 -27 24 -58 32 -72 42 -66 5 3 8 0 5 -8 -2
-8 -17 -20 -31 -27 -25 -12 -34 -39 -28 -76 2 -12 -48 -56 -64 -56 -8 0 -17 5
-20 10 -14 22 -26 9 -20 -20 7 -32 4 -35 -25 -20 -32 17 -76 -14 -84 -58 -3
-20 -15 -54 -26 -74 -21 -40 -25 -64 -12 -72 11 -7 123 31 142 49 9 8 34 15
56 14 l39 -1 -32 -9 c-18 -5 -33 -14 -33 -19 0 -6 -6 -10 -14 -10 -35 0 -181
-93 -172 -109 2 -3 -2 -29 -9 -56 -15 -58 -31 -61 -79 -14 -16 15 -32 26 -36
24 -4 -2 -6 -50 -5 -105 2 -100 -4 -122 -29 -101 -8 7 -23 7 -46 1 -18 -5 -36
-7 -40 -5 -13 8 -60 -43 -61 -67 -2 -49 -6 -67 -23 -92 -19 -30 -36 -26 -36 7
0 12 -4 28 -9 36 -7 11 -10 9 -16 -8 -3 -11 -10 -21 -15 -21 -5 0 -8 -12 -7
-27 2 -22 -3 -29 -21 -31 -18 -3 -23 2 -28 26 -7 37 -30 36 -49 -1 -7 -15 -21
-37 -29 -49 -23 -32 -20 -47 11 -59 15 -6 34 -15 41 -22 36 -29 122 -41 122
-17 0 17 55 3 59 -15 4 -23 -19 -95 -31 -95 -4 0 -8 -24 -8 -54 0 -47 3 -54
23 -59 64 -16 96 -33 99 -52 5 -36 32 -21 60 34 17 33 63 89 123 148 89 88 97
94 126 88 26 -6 30 -10 24 -28 -4 -12 -10 -56 -12 -99 -5 -83 -10 -88 -75 -88
-30 0 -39 -26 -13 -36 9 -4 14 -18 14 -38 -1 -23 -3 -25 -6 -8 -10 53 -22 13
-28 -99 -6 -88 -11 -122 -21 -126 -8 -3 -14 -12 -14 -20 0 -8 -4 -11 -10 -8
-5 3 -10 -1 -10 -9 0 -9 5 -16 10 -16 6 0 10 -7 10 -15 0 -8 -3 -15 -7 -15 -5
0 -6 -25 -5 -55 3 -45 1 -55 -12 -55 -9 0 -16 -7 -16 -15 0 -17 -16 -20 -25
-5 -4 6 -10 8 -15 5 -5 -3 -26 24 -47 60 -32 56 -41 65 -66 65 -15 0 -26 -4
-23 -8 3 -5 -6 -19 -19 -30 -26 -23 -51 -30 -40 -12 3 6 0 13 -9 16 -8 3 -12
12 -10 19 3 8 -1 29 -9 47 -9 18 -18 43 -22 55 -7 25 -41 38 -81 30 -20 -3
-28 0 -31 13 -3 10 -16 23 -30 29 -28 13 -67 6 -57 -10 3 -6 -1 -18 -9 -27 -8
-9 -23 -40 -32 -69 -18 -56 -39 -72 -65 -48 -9 8 -23 15 -31 15 -8 0 -25 9
-38 19 -22 17 -30 43 -47 154 -7 48 -28 80 -61 94 -27 11 -34 10 -53 -5 -11
-9 -22 -27 -23 -39 -1 -13 -5 -23 -9 -23 -4 0 -8 -9 -8 -19 0 -28 -54 -144
-75 -161 -11 -9 -16 -10 -11 -2 5 8 -2 15 -18 22 -17 6 -29 22 -37 49 -7 22
-23 50 -35 62 -26 25 -30 49 -13 82 10 18 20 77 46 289 5 41 3 49 -13 54 -11
3 -26 9 -36 14 -11 6 -20 4 -28 -5 -6 -7 -19 -13 -28 -12 -9 0 -45 -6 -79 -13
-52 -12 -63 -18 -64 -35 0 -11 -3 -29 -5 -40 -3 -11 -5 -51 -5 -90 0 -38 -3
-77 -5 -86 -5 -17 -44 -34 -44 -19 0 4 -12 19 -26 34 -15 14 -23 26 -18 26 5
0 4 4 -1 8 -17 12 -43 57 -45 78 -6 55 0 72 30 83 17 5 30 17 30 25 0 24 3 29
30 58 14 15 38 30 53 33 15 4 27 12 27 18 0 5 16 25 35 43 28 29 41 34 80 34
33 0 45 -4 45 -15 0 -11 12 -15 50 -15 l50 0 0 35 c0 32 2 35 31 35 24 0 32 6
40 28 19 55 98 36 175 -41 62 -63 99 -87 131 -87 26 0 30 5 41 46 21 77 119
207 198 262 29 20 63 77 52 88 -9 8 -38 -8 -38 -21 0 -8 -9 -17 -20 -20 -11
-3 -23 -17 -26 -31 -6 -25 -12 -28 -51 -24 -13 1 -23 -3 -23 -7 0 -15 -40 -53
-55 -53 -20 0 -19 52 2 93 28 55 92 134 131 160 20 15 62 36 92 48 30 12 60
29 67 36 6 8 51 20 100 28 48 8 105 19 126 25 37 11 37 11 37 64 0 49 -2 54
-25 58 -13 3 -26 0 -28 -6 -2 -6 -8 -8 -12 -3 -14 12 9 61 33 72 15 6 31 32
48 77 16 43 34 73 52 84 32 21 59 52 68 79 15 44 57 85 98 96 75 21 106 39
106 61 0 23 26 47 53 48 13 0 17 -8 17 -36z m-5660 -27 c14 -12 31 -41 38 -65
7 -24 23 -52 35 -62 17 -15 23 -32 25 -77 l3 -58 -26 30 c-13 17 -27 40 -31
51 -3 12 -16 27 -30 34 -13 8 -24 19 -24 25 0 7 -11 17 -25 23 -22 10 -25 18
-25 67 0 46 3 55 18 55 9 0 28 -11 42 -23z m5459 14 c11 -7 8 -13 -13 -26 -15
-10 -29 -15 -33 -12 -9 10 -43 -12 -43 -28 0 -16 -16 -20 -24 -6 -3 4 -17 6
-30 4 -25 -5 -28 -10 -41 -67 -4 -22 -9 -26 -18 -17 -15 15 -46 14 -63 -3 -8
-9 -14 -34 -14 -62 l0 -47 -21 28 c-38 48 -97 20 -141 -68 -12 -23 -23 -44
-24 -46 -2 -1 -13 4 -26 13 -31 22 -47 20 -54 -8 -3 -13 -15 -26 -26 -29 -11
-3 -17 -10 -14 -16 7 -11 -27 -51 -43 -51 -5 0 -11 8 -13 17 -3 18 -17 21
-140 24 -86 2 -87 1 -130 -34 l-44 -36 -31 19 c-19 11 -40 37 -52 64 -21 48
-17 47 -108 51 -18 1 -38 -4 -44 -11 -6 -8 -17 -14 -24 -14 -17 0 -25 -23 -25
-74 0 -24 -3 -46 -7 -50 -4 -3 -21 8 -39 25 -17 16 -40 32 -50 33 -12 2 -21
14 -25 32 -6 26 -7 26 -8 5 -1 -34 -10 -21 -13 20 -1 18 -10 48 -19 65 -15 27
-15 33 -3 46 12 12 11 17 -11 36 -14 12 -25 19 -25 16 0 -4 -7 -1 -15 6 -9 7
-14 19 -11 27 8 19 -21 28 -39 13 -17 -14 -34 -5 -19 9 9 9 91 21 144 22 40 0
104 -12 118 -24 16 -13 26 -2 41 44 13 40 91 112 91 84 0 -21 -29 -65 -58 -89
-22 -17 -22 -19 -6 -37 15 -16 26 -19 63 -13 25 3 51 12 57 20 15 19 28 18 20
-1 -6 -16 -3 -16 79 -19 46 -2 78 -17 99 -47 13 -19 106 -65 145 -73 8 -1 20
-11 27 -21 8 -10 15 -17 17 -14 2 2 22 29 44 60 23 30 64 73 92 94 28 22 49
45 47 51 -3 7 15 33 40 58 35 37 50 46 76 45 28 0 30 -2 12 -9 -11 -4 -26 -22
-33 -39 -9 -20 -22 -32 -41 -36 -16 -3 -31 -13 -34 -21 -5 -12 -1 -14 17 -9
12 4 45 14 72 22 28 8 73 23 100 34 89 34 209 70 221 65 6 -2 17 0 25 5 18 11
30 11 48 0z m2921 -8 c0 -15 -76 -91 -105 -107 -16 -8 -41 -29 -55 -45 -103
-125 -126 -130 -68 -18 48 94 76 127 132 153 50 23 96 31 96 17z m-1717 -101
c-2 -10 -36 -51 -74 -91 -38 -40 -69 -77 -69 -81 0 -15 28 -31 64 -37 22 -3
36 -11 36 -20 0 -8 13 -18 28 -24 18 -6 38 -26 52 -52 13 -23 28 -45 34 -49 6
-4 8 -8 4 -8 -4 0 4 -22 17 -48 13 -27 27 -68 31 -91 7 -42 6 -43 -14 -30 -12
8 -26 26 -31 41 -10 29 -16 31 -62 28 -21 -1 -29 5 -37 27 -6 15 -24 43 -39
60 -35 41 -54 32 -62 -28 -8 -57 -25 -59 -46 -5 -9 24 -28 55 -41 67 -13 12
-24 27 -24 32 0 15 -31 47 -46 47 -7 0 -16 -9 -19 -21 -9 -28 -26 -19 -50 27
-21 40 -55 59 -55 30 0 -9 -4 -16 -10 -16 -5 0 -11 -10 -11 -22 l-2 -23 -4 22
c-3 13 -18 29 -37 38 l-34 16 16 59 c11 40 22 60 34 63 10 3 18 14 18 24 0 26
48 43 79 27 13 -7 26 -16 30 -21 9 -14 71 -43 92 -43 10 0 25 -10 33 -22 14
-20 18 -21 42 -8 14 8 42 38 60 68 19 29 45 58 59 64 14 6 25 15 25 20 0 5 4
7 9 4 5 -3 7 -14 4 -24z m1754 -47 c-9 -8 -18 -28 -22 -45 -8 -38 -22 -46 -45
-25 -17 15 -19 14 -40 -14 -12 -17 -26 -31 -31 -31 -12 0 -28 -12 -95 -76 -30
-28 -54 -47 -54 -42 0 26 45 100 92 151 46 50 62 60 118 77 83 24 96 25 77 5z
m-8601 -148 c-3 -43 -10 -84 -15 -91 -6 -7 -9 -15 -6 -18 3 -3 -1 -11 -9 -17
-19 -16 -56 6 -56 31 0 10 -4 18 -8 18 -11 0 1 74 17 115 20 49 40 66 62 52
17 -10 19 -21 15 -90z m7613 31 c49 -85 49 -168 0 -260 -10 -19 -11 -19 -30
-2 -22 20 -59 97 -59 123 0 9 -9 24 -20 34 -26 22 -26 67 0 117 17 33 26 40
50 40 25 0 34 -8 59 -52z m-4316 -15 c18 -10 34 -21 37 -24 3 -4 24 -16 48
-28 24 -12 52 -33 64 -46 12 -13 24 -22 28 -20 4 2 22 -11 40 -30 19 -19 31
-35 27 -35 -4 0 15 -24 42 -52 28 -29 56 -65 62 -80 6 -16 15 -28 20 -28 5 0
9 -7 9 -15 0 -8 7 -15 15 -15 8 0 15 -7 15 -15 0 -8 3 -15 8 -15 23 0 39 -208
24 -310 -6 -41 -9 -45 -38 -48 -51 -5 -65 -30 -70 -124 -7 -116 -13 -148 -28
-148 -8 0 -20 7 -27 16 -8 9 -31 28 -53 41 -21 14 -41 33 -43 44 -3 10 -9 19
-13 19 -9 0 -26 76 -22 100 4 32 -9 80 -23 80 -8 0 -14 -4 -13 -8 2 -5 -10
-23 -27 -39 -16 -17 -39 -42 -50 -56 -23 -30 -61 -43 -80 -27 -9 8 -15 8 -20
0 -10 -16 -52 -12 -59 6 -12 31 -5 120 14 194 11 41 20 88 20 103 0 27 -1 27
-21 13 -12 -8 -27 -12 -33 -10 -7 3 -38 -18 -70 -46 -31 -27 -62 -50 -67 -50
-6 0 -8 -4 -4 -9 7 -12 -4 -19 -43 -26 l-32 -5 0 59 c0 49 -3 60 -17 64 -10 2
-26 -3 -36 -12 -17 -14 -17 -13 -7 14 6 17 13 48 15 71 2 22 15 64 29 94 14
29 23 56 21 61 -3 4 1 13 8 21 7 7 19 29 27 48 7 19 26 47 41 62 15 14 25 29
22 31 -2 3 4 8 14 11 10 3 26 18 36 34 11 15 36 40 58 55 21 16 39 34 39 40 0
7 7 23 16 35 18 27 54 28 97 5z m4107 -18 c0 -3 -4 -13 -9 -23 -5 -9 -15 -30
-22 -47 -8 -16 -20 -35 -27 -40 -11 -9 -31 -107 -32 -154 0 -11 -3 -11 -15 -1
-8 7 -15 11 -16 9 0 -2 -6 -24 -12 -48 -12 -46 -37 -68 -37 -33 0 11 -6 25
-14 31 -11 9 -18 5 -35 -22 -11 -19 -47 -58 -78 -88 -32 -30 -74 -73 -94 -96
-60 -71 -78 -51 -34 37 14 27 25 63 25 80 0 59 48 184 83 216 37 35 119 88
160 103 16 6 47 24 70 40 51 34 87 49 87 36z m-7872 -77 c-2 -38 0 -43 20 -46
13 -2 30 2 38 9 21 17 26 7 13 -30 -16 -45 0 -76 46 -91 35 -11 37 -11 80 29
25 23 48 41 53 41 5 0 14 10 19 23 10 20 11 21 18 4 8 -20 -14 -99 -25 -92 -4
3 -18 -18 -31 -45 -13 -28 -27 -50 -31 -50 -5 0 -8 -6 -8 -13 0 -30 -21 -34
-65 -13 -39 18 -63 46 -57 67 0 4 -8 15 -19 25 -18 16 -23 16 -42 4 -12 -7
-39 -17 -60 -20 -35 -7 -38 -6 -45 24 -8 29 -12 31 -50 30 -39 -1 -48 5 -42
31 1 6 3 26 4 45 l1 35 55 0 c52 0 57 2 85 37 16 21 33 38 38 38 5 0 7 -19 5
-42z m9120 -59 c3 -45 -2 -74 -19 -115 -21 -49 -50 -76 -67 -59 -12 12 -3 122
14 164 14 36 46 71 64 71 3 0 7 -27 8 -61z m-2568 31 c0 -10 99 -70 116 -70
17 0 54 -57 54 -83 0 -10 27 -47 60 -82 39 -42 60 -73 60 -89 0 -19 -4 -23
-21 -19 -20 6 -20 3 -15 -79 4 -75 3 -85 -14 -96 -15 -9 -18 -19 -13 -43 4
-23 3 -30 -5 -25 -7 4 -12 2 -12 -4 0 -6 -4 -8 -10 -5 -5 3 -10 -1 -10 -9 0
-31 -28 -15 -44 24 -11 28 -22 40 -36 40 -16 0 -20 7 -20 30 0 28 -2 30 -20
20 -34 -18 -43 -3 -36 62 4 33 9 67 12 76 3 9 -7 3 -23 -15 -21 -23 -33 -29
-43 -23 -12 7 -12 16 -2 55 7 25 12 50 12 55 0 19 -29 10 -49 -17 -12 -14 -24
-23 -27 -20 -8 7 25 97 43 118 19 22 16 53 -7 74 -28 25 -49 1 -47 -55 1 -29
-3 -45 -12 -48 -10 -3 -13 2 -9 22 5 24 3 27 -21 24 -48 -6 -38 32 23 89 30
28 52 54 49 57 -4 3 -1 6 5 6 7 0 12 8 12 18 0 10 3 21 6 24 7 8 44 -2 44 -12z
m-3450 -59 c15 -29 4 -47 -57 -87 -39 -26 -57 -33 -63 -25 -9 16 -81 -29 -75
-47 3 -7 1 -10 -4 -7 -5 3 -16 -4 -25 -16 -8 -12 -19 -18 -25 -14 -17 10 -12
47 13 90 21 36 27 40 58 37 28 -2 42 4 71 32 21 19 37 39 37 45 0 20 59 12 70
-8z m5886 -75 c-4 -15 -26 -37 -56 -57 -28 -18 -50 -39 -50 -46 0 -8 -5 -11
-11 -8 -15 10 -80 -59 -81 -86 -1 -23 -34 -69 -48 -69 -9 0 23 120 40 151 8
14 32 41 53 59 39 33 147 93 155 85 3 -2 2 -15 -2 -29z m-708 -24 c15 -16 43
-51 62 -79 19 -29 37 -50 41 -47 4 2 11 -2 16 -10 4 -7 26 -34 47 -60 38 -44
61 -116 36 -116 -5 0 -10 5 -10 10 0 27 -107 93 -136 83 -6 -2 -17 3 -24 12
-7 8 -19 15 -26 15 -8 0 -16 12 -20 28 -14 63 -26 92 -40 92 -21 0 -22 79 0
92 18 12 25 10 54 -20z m1306 18 c-12 -4 -24 -16 -28 -25 -3 -9 -10 -13 -16
-10 -5 3 -15 -13 -21 -37 -7 -26 -24 -53 -41 -67 -28 -23 -29 -23 -49 -5 -20
18 -21 18 -47 -14 -15 -18 -33 -32 -39 -32 -7 0 -13 -4 -13 -10 0 -5 -5 -10
-11 -10 -7 0 -9 9 -5 24 8 32 57 106 70 106 6 0 24 12 40 28 54 50 79 62 131
61 38 0 45 -2 29 -9z m-7956 -40 c16 -17 23 -19 50 -9 17 6 37 9 44 6 7 -2 -2
-7 -19 -11 -32 -7 -44 -28 -23 -41 16 -10 12 -21 -22 -54 -23 -22 -35 -28 -44
-20 -20 16 -54 -7 -54 -36 0 -14 -4 -25 -10 -25 -5 0 -10 -9 -10 -20 0 -10 -8
-35 -17 -55 -14 -28 -22 -34 -40 -30 -15 3 -27 -3 -41 -20 -38 -48 -39 22 -1
76 10 14 28 50 39 80 12 30 26 60 32 67 6 7 8 16 3 20 -8 8 -65 -56 -65 -73 0
-5 -13 -19 -29 -30 -16 -10 -28 -22 -27 -25 2 -3 -12 -18 -30 -33 -31 -27 -34
-27 -34 -9 0 63 95 189 180 241 45 27 93 27 118 1z m6305 -49 c13 -22 18 -60
21 -158 5 -128 5 -129 -17 -129 -21 1 -22 -3 -19 -56 3 -36 0 -58 -7 -58 -5 0
-16 -12 -23 -27 -8 -17 -21 -28 -33 -28 -17 0 -20 8 -23 60 -2 39 -8 63 -18
68 -21 12 -17 64 10 129 22 54 22 57 5 60 -17 3 -17 5 2 47 11 24 31 55 44 69
14 14 25 31 25 38 0 23 15 16 33 -15z m-5463 -100 c0 -27 -30 -101 -41 -101
-4 0 -35 -23 -69 -51 -33 -28 -63 -49 -65 -47 -7 7 50 136 70 158 10 11 25 22
34 25 9 3 24 19 34 37 15 25 20 29 28 17 5 -7 9 -25 9 -38z m4635 20 c3 -6 29
-21 58 -35 51 -24 157 -126 157 -152 0 -6 12 -29 28 -50 26 -37 35 -55 60
-114 7 -16 11 -19 11 -8 1 25 81 169 105 190 11 9 29 17 38 18 9 0 19 4 22 9
3 4 23 11 45 15 22 3 46 12 54 20 15 15 88 38 96 30 3 -2 -5 -11 -16 -19 -19
-14 -62 -125 -64 -164 0 -12 -4 -10 -16 7 -21 30 -32 28 -44 -8 -6 -16 -15
-30 -20 -30 -5 0 -9 -15 -10 -32 -1 -42 -30 -92 -55 -96 -10 -2 -37 -25 -59
-52 -22 -27 -43 -46 -47 -44 -5 3 -6 9 -3 14 11 18 -7 57 -34 73 -15 8 -33 28
-41 44 -24 45 -46 56 -52 26 -3 -13 -10 -7 -24 22 -13 26 -26 39 -36 37 -11
-2 -18 7 -23 28 -8 36 -28 48 -50 30 -20 -16 -21 -14 -32 39 -10 55 -27 62
-51 22 -24 -39 -32 -31 -32 33 0 28 -7 69 -15 91 -8 22 -14 46 -15 53 0 14 56
17 65 3z m4057 -33 c25 -20 48 -101 39 -134 -9 -33 2 -65 36 -107 13 -16 23
-37 23 -48 0 -11 9 -29 20 -41 10 -12 17 -24 15 -29 -3 -4 4 -5 15 -2 15 4 20
0 20 -15 0 -11 -6 -23 -12 -25 -10 -4 -10 -8 0 -15 11 -7 11 -10 -2 -15 -15
-6 -18 -26 -5 -37 4 -3 9 -15 13 -27 6 -18 3 -23 -10 -23 -11 0 -3 -9 20 -25
20 -14 40 -25 44 -25 10 0 48 -60 57 -87 3 -13 11 -23 16 -23 5 0 9 -6 9 -13
0 -16 49 -120 60 -127 4 -3 13 -28 19 -57 9 -38 10 -57 1 -72 -29 -54 -73 5
-85 113 -1 12 -3 24 -4 29 0 4 -17 7 -36 7 -24 0 -35 5 -35 15 0 22 -52 19
-78 -4 -22 -18 -32 -58 -12 -46 17 10 11 -7 -6 -20 -17 -12 -29 -65 -15 -65 4
0 9 -46 10 -102 2 -83 0 -100 -11 -91 -7 6 -30 14 -50 18 -42 8 -38 15 -43
-80 -1 -22 -7 -55 -13 -73 -6 -18 -7 -30 -1 -27 5 4 9 -6 9 -22 0 -22 -2 -25
-10 -13 -8 12 -10 9 -10 -12 0 -22 -7 -31 -34 -42 -42 -17 -45 -24 -53 -85 -4
-39 -10 -51 -30 -60 -39 -18 -50 -14 -88 34 l-37 45 -30 -18 c-46 -26 -95 -89
-113 -143 -16 -46 -35 -66 -35 -36 0 8 -14 41 -30 75 -32 64 -86 109 -156 132
-19 7 -34 15 -34 20 0 4 25 20 56 35 65 32 126 90 144 137 6 18 15 42 19 52 6
16 12 9 34 -36 45 -92 53 -91 65 5 6 46 8 94 5 106 -7 28 -35 27 -71 -4 -39
-32 -75 -33 -92 -1 -14 27 -8 79 12 103 17 21 44 105 40 126 -3 16 -10 17 -44
12 l-40 -7 5 37 c3 20 19 56 36 80 17 24 31 46 31 50 0 3 7 13 15 21 8 9 15
24 15 33 0 15 -9 19 -47 19 -99 2 -126 69 -67 165 16 27 36 60 44 75 8 15 20
27 25 27 23 1 116 68 111 81 -3 8 1 14 10 14 13 0 32 34 38 65 1 6 10 20 21
32 11 11 27 29 35 39 8 11 31 27 50 37 19 10 44 31 55 47 34 51 111 76 147 48z
m-11692 -36 c0 -4 10 -12 22 -17 13 -6 28 -20 34 -32 6 -13 13 -20 16 -17 3 3
9 -19 13 -48 4 -29 12 -59 18 -66 7 -9 5 -24 -6 -50 -9 -20 -21 -56 -27 -79
-6 -24 -19 -47 -30 -53 -16 -9 -25 -5 -50 21 -16 17 -27 36 -24 41 3 5 -3 12
-15 15 -12 3 -21 11 -21 18 0 6 -7 25 -15 42 -11 22 -12 38 -5 64 14 49 13 59
-9 59 -11 0 -27 10 -35 22 -17 23 -22 59 -8 56 16 -4 92 14 92 23 0 5 11 9 25
9 14 0 25 -3 25 -8z m6888 -56 c6 -24 19 -51 28 -60 10 -10 14 -25 10 -39 -6
-27 11 -100 23 -93 4 3 13 -11 20 -30 12 -33 11 -37 -8 -51 -20 -13 -21 -21
-15 -76 4 -34 13 -79 20 -101 8 -21 14 -52 14 -69 0 -29 -1 -29 -18 -14 -10
10 -24 17 -30 17 -14 0 -16 -68 -3 -89 10 -15 3 -51 -10 -51 -5 0 -9 6 -9 14
0 10 -9 14 -27 13 -26 -2 -28 -5 -25 -40 5 -50 -25 -120 -57 -135 -13 -6 -27
-9 -30 -6 -3 3 -8 31 -11 62 -5 53 -7 57 -29 54 -21 -3 -23 -1 -18 25 3 15 8
38 12 51 6 16 3 22 -8 22 -11 0 -17 14 -22 48 -3 26 -10 61 -15 78 -6 17 -10
42 -10 57 0 19 -4 25 -15 21 -8 -4 -15 -15 -15 -25 0 -10 -4 -19 -10 -19 -24
0 0 69 38 107 14 14 22 34 22 58 0 41 -12 45 -28 10 -13 -29 -32 -33 -32 -7 0
24 25 57 84 114 28 27 47 48 42 48 -4 0 0 7 8 16 9 8 16 27 16 42 0 34 9 48
38 56 12 4 20 11 17 16 -5 8 10 18 30 19 6 1 16 -19 23 -43z m-3597 -5 c3 -8
-3 -39 -13 -69 -10 -30 -18 -68 -18 -83 0 -15 -5 -31 -11 -35 -19 -12 -66 -6
-91 10 -17 11 -31 13 -53 7 -17 -5 -26 -10 -22 -10 5 -1 5 -6 1 -12 -4 -8 -9
-7 -15 2 -6 10 -9 6 -9 -12 0 -15 -7 -32 -15 -39 -8 -7 -15 -9 -15 -5 0 5 -9
0 -19 -9 -25 -22 -108 -19 -102 4 2 8 7 30 11 47 8 35 71 103 95 103 32 0 141
54 178 87 40 36 86 43 98 14z m5419 -38 c0 -9 3 -13 7 -10 8 9 43 -22 43 -39
0 -7 11 -30 25 -50 14 -20 26 -51 27 -68 1 -37 2 -41 12 -83 9 -37 -9 -63 -42
-63 -14 0 -21 10 -28 43 -8 36 -13 42 -36 45 -25 3 -27 7 -30 60 -3 53 -5 57
-26 55 -19 -3 -22 1 -16 25 15 71 64 136 64 85z m-6620 -74 c-37 -38 -47 -57
-54 -105 -2 -11 -12 -20 -25 -22 -24 -4 -41 -37 -41 -78 0 -14 -7 -27 -15 -30
-8 -4 -15 -12 -15 -20 0 -8 -7 -14 -15 -14 -8 0 -24 -15 -35 -32 -31 -52 -52
-78 -63 -78 -12 0 -1 90 13 104 6 6 10 18 10 27 0 10 3 19 8 21 4 2 26 35 49
73 44 72 116 155 136 155 7 0 23 9 37 20 45 35 52 21 10 -21z m-1498 -37 c2
-9 17 -16 38 -19 19 -2 38 -10 42 -17 5 -8 33 -27 63 -42 30 -16 55 -32 55
-37 0 -5 16 -27 35 -48 19 -22 35 -46 35 -55 0 -9 5 -12 13 -8 9 5 9 4 0 -6
-7 -7 -9 -25 -6 -41 5 -25 2 -29 -16 -29 -11 0 -21 5 -21 10 0 6 -11 15 -25
20 -14 5 -25 16 -25 23 0 8 -9 22 -20 32 -11 10 -17 21 -15 25 3 4 -10 10 -28
13 -128 21 -121 17 -117 66 1 20 -2 23 -19 18 -12 -3 -24 -1 -27 4 -3 5 -18 9
-33 9 -24 0 -29 5 -33 30 -3 22 0 30 11 31 13 1 12 2 -1 6 -21 5 -23 17 -5 31
30 25 93 15 99 -16z m7732 -254 c1 -77 -1 -85 -16 -77 -21 12 -30 -10 -18 -50
8 -28 6 -31 -13 -31 -18 0 -26 -12 -46 -67 -13 -38 -34 -78 -48 -91 -13 -13
-26 -37 -30 -53 -6 -30 -20 -46 -30 -35 -3 3 2 17 11 31 17 25 41 233 29 245
-6 7 -53 -52 -53 -67 0 -6 -27 -40 -60 -75 -33 -34 -63 -71 -66 -80 -3 -10
-10 -18 -15 -18 -5 0 -9 -16 -9 -35 0 -40 26 -61 50 -41 19 17 100 30 100 16
0 -15 -36 -30 -46 -20 -6 6 -15 -4 -23 -28 -22 -60 -51 -85 -51 -42 0 12 -5
17 -13 14 -7 -2 -36 18 -65 45 -28 27 -68 55 -87 62 -31 12 -35 17 -35 49 0
39 -13 64 -32 66 -7 1 -19 2 -26 3 -7 0 -10 6 -7 11 3 6 1 10 -5 10 -6 0 -8 5
-5 10 4 6 11 8 16 5 5 -4 9 14 9 39 0 25 5 46 10 46 6 0 10 -9 10 -20 0 -11 7
-20 15 -20 8 0 15 9 15 20 0 16 5 19 29 14 40 -8 91 27 91 62 0 20 4 24 19 19
11 -3 22 -1 26 5 3 5 15 10 26 10 10 0 29 12 42 26 21 25 75 59 82 52 9 -9
-49 -68 -66 -68 -11 0 -22 -7 -26 -16 -3 -8 -12 -13 -19 -10 -8 3 -14 -1 -14
-9 0 -8 -14 -27 -30 -42 -25 -23 -32 -39 -35 -80 -3 -40 0 -55 15 -68 17 -15
20 -12 58 48 42 66 72 94 129 116 38 15 57 36 118 126 76 112 87 111 89 -7z
m-5142 -90 c-5 -5 -7 -59 -5 -121 2 -62 1 -122 -2 -134 -6 -26 -38 -30 -80
-11 -24 11 -25 13 -8 19 16 7 16 8 1 8 -10 1 -18 6 -18 11 0 6 -9 10 -20 10
-11 0 -23 7 -26 15 -9 24 -69 19 -86 -6 -13 -21 -16 -21 -67 -8 -66 17 -104 1
-109 -46 -3 -21 -6 -25 -13 -14 -6 10 -9 7 -9 -13 0 -16 5 -28 10 -28 6 0 10
-5 10 -11 0 -5 -4 -8 -9 -4 -5 3 -12 1 -15 -4 -3 -4 -20 -11 -37 -15 -33 -6
-72 -42 -63 -57 3 -5 1 -9 -5 -9 -5 0 -12 -19 -16 -41 -5 -28 -10 -37 -15 -28
-6 9 -14 1 -25 -29 -9 -23 -20 -41 -23 -40 -18 2 -35 -3 -29 -8 3 -4 -3 -18
-13 -32 -11 -13 -20 -35 -20 -48 0 -39 -10 -56 -26 -43 -9 7 -14 32 -14 68 0
109 -39 172 -101 163 -16 -2 -26 -8 -23 -13 3 -5 -3 -9 -13 -9 -10 0 -30 -11
-45 -25 -15 -14 -34 -25 -43 -25 -9 0 -18 -7 -21 -15 -4 -8 -12 -15 -20 -15
-8 0 -11 -6 -8 -15 4 -8 -1 -17 -10 -21 -9 -3 -13 -10 -10 -15 3 -5 0 -9 -6
-9 -17 0 -49 -42 -50 -65 0 -11 -15 -32 -33 -47 -25 -19 -38 -42 -51 -85 -9
-32 -25 -69 -36 -82 -11 -13 -20 -36 -20 -52 0 -28 -28 -99 -39 -99 -3 0 -7
-14 -8 -31 -1 -17 -6 -36 -11 -43 -5 -6 -12 -23 -16 -39 -5 -21 -12 -27 -32
-27 -25 0 -26 2 -19 38 4 20 10 42 14 47 4 6 14 37 21 70 8 33 17 62 22 66 4
3 3 21 -2 39 -6 19 -10 81 -10 137 0 111 -11 137 -53 128 -12 -2 -33 -6 -47
-7 -28 -3 -83 -65 -76 -84 3 -7 -2 -18 -10 -24 -8 -7 -14 -20 -14 -30 0 -19
-23 -43 -33 -34 -3 4 -27 3 -52 0 -38 -6 -45 -11 -45 -30 0 -15 -23 -43 -72
-86 -89 -81 -117 -100 -147 -100 -21 0 -23 3 -18 32 20 116 20 112 -12 146
-30 31 -41 62 -22 62 5 0 23 -12 40 -26 17 -14 31 -21 31 -14 0 6 4 9 9 6 5
-3 16 13 24 36 8 24 37 83 65 132 28 48 54 101 57 116 3 15 19 40 35 55 17 16
30 35 30 42 0 7 5 13 10 13 6 0 10 7 10 15 0 8 7 15 15 15 8 0 15 5 15 10 0 6
7 10 16 10 9 0 30 14 46 30 15 17 35 30 44 30 8 0 36 14 60 31 25 17 51 28 59
25 23 -9 26 10 5 29 -24 22 -26 52 -5 76 11 11 14 26 9 43 l-6 26 -134 -3
c-74 -2 -137 -1 -139 1 -10 11 32 31 65 32 49 1 64 12 56 45 -5 19 -3 25 5 20
6 -4 15 -2 19 5 5 8 9 4 14 -13 6 -26 17 -31 97 -42 36 -5 54 -2 85 14 49 26
74 45 74 58 0 13 59 68 65 61 3 -3 -5 -18 -18 -34 -13 -16 -31 -46 -41 -66
-10 -22 -24 -38 -34 -38 -12 0 -14 -2 -4 -8 9 -6 6 -12 -13 -22 -13 -7 -27
-21 -31 -32 -3 -10 -10 -18 -15 -18 -5 0 -9 -7 -9 -15 0 -8 -5 -15 -10 -15 -6
0 -9 -17 -8 -38 2 -31 6 -38 21 -34 9 2 17 10 17 17 0 7 14 18 31 25 21 9 32
22 36 42 3 16 9 25 13 19 3 -6 14 13 23 42 20 64 71 147 91 147 8 0 16 5 18
12 6 18 28 0 28 -23 0 -11 5 -17 10 -14 18 11 11 -37 -8 -54 -10 -9 -26 -31
-35 -49 -13 -27 -14 -34 -2 -38 15 -6 123 26 188 55 59 27 114 38 222 46 146
10 266 37 350 81 17 9 43 14 58 12 23 -2 32 -11 42 -40 12 -35 11 -38 -7 -38
-13 0 -18 -6 -16 -17 4 -23 48 -31 48 -9 0 26 43 64 115 101 l70 35 3 -41 c2
-23 -1 -46 -6 -51z m5442 59 c47 -78 54 -96 56 -138 3 -84 1 -101 -14 -96 -8
3 -22 -3 -32 -14 -23 -25 -31 -24 -38 7 -4 14 -18 36 -32 49 -23 21 -25 29
-19 67 4 24 17 56 28 72 17 24 18 32 8 49 -10 16 -10 21 1 28 19 13 21 12 42
-24z m2418 -1 c16 -12 17 -17 4 -52 -9 -23 -15 -31 -15 -19 -1 13 -4 16 -11 9
-14 -14 -1 -74 16 -74 23 0 42 -42 37 -82 -5 -35 -7 -38 -39 -38 -19 0 -34 5
-34 10 0 6 -17 10 -39 10 -51 0 -91 -31 -91 -71 0 -32 23 -94 44 -119 26 -30
37 -81 24 -112 -17 -36 -36 -36 -49 2 -6 17 -15 30 -19 30 -4 0 -11 12 -15 28
-8 31 -32 62 -50 62 -16 0 -137 59 -157 77 -14 13 -17 12 -22 -5 -7 -20 6 -93
26 -149 7 -20 22 -36 37 -41 20 -7 29 -21 39 -56 6 -25 12 -54 12 -64 -1 -15
-3 -14 -18 4 -25 30 -68 39 -81 17 -9 -16 -10 -14 -11 8 0 15 -7 29 -15 33 -8
3 -12 12 -9 21 5 11 -1 15 -24 15 -17 0 -42 -4 -56 -10 -22 -8 -26 -16 -26
-47 0 -21 5 -57 10 -80 9 -37 7 -50 -15 -95 -14 -28 -25 -69 -25 -90 0 -32 -4
-40 -26 -48 -37 -14 -42 -13 -69 16 -18 19 -25 38 -25 66 0 63 -20 126 -45
142 -24 16 -99 11 -89 -5 3 -5 0 -9 -5 -9 -6 0 -21 -11 -33 -25 -11 -13 -25
-22 -30 -19 -4 3 -8 0 -8 -5 0 -6 -8 -20 -17 -31 -10 -11 -19 -31 -20 -43 -3
-44 -22 -147 -28 -157 -11 -18 -53 -30 -76 -22 -11 5 -33 30 -47 57 -18 32
-35 49 -49 52 -15 2 -23 -2 -23 -12 0 -8 -3 -14 -8 -12 -4 1 -8 -2 -9 -6 -1
-5 -8 -14 -16 -20 -7 -7 -19 -41 -25 -76 -15 -86 -30 -93 -94 -49 -30 21 -54
23 -56 6 -3 -43 -21 -119 -30 -130 -16 -20 -82 -42 -93 -31 -9 9 -11 37 -9
141 0 67 -5 86 -21 76 -6 -3 -19 2 -30 12 -29 26 -81 41 -112 33 -15 -4 -29
-3 -32 2 -3 4 -34 9 -68 9 -120 1 -117 0 -148 59 -16 30 -29 65 -29 78 0 13
-7 31 -15 39 -9 10 -13 25 -9 39 4 18 -2 30 -25 51 -17 15 -30 32 -28 38 3 6
-2 27 -10 46 -8 21 -12 48 -8 68 6 30 8 32 49 32 43 0 85 28 72 48 -12 20 48
48 99 46 28 -1 74 -2 103 -3 29 -1 51 -5 48 -9 -3 -5 57 -14 133 -19 88 -7
149 -17 169 -27 17 -9 41 -17 54 -17 20 -1 21 -2 3 -6 -31 -8 -42 -21 -49 -57
-6 -29 -12 -35 -40 -40 -23 -4 -36 -13 -39 -27 -5 -17 -9 -19 -26 -9 -17 9
-22 8 -27 -5 -11 -27 5 -63 31 -69 13 -3 31 -18 38 -32 12 -22 15 -24 26 -10
11 14 15 14 28 1 18 -19 30 -11 105 70 73 79 88 111 88 184 0 58 36 181 60
205 6 6 10 18 10 28 0 10 3 17 8 16 10 -2 62 24 62 32 0 12 74 47 113 54 21 4
35 11 32 17 -7 11 36 29 71 29 13 0 24 4 24 8 0 12 66 39 115 47 22 4 60 11
85 15 59 11 311 12 329 1 8 -5 38 1 80 16 118 45 155 50 183 29z m-3557 -76
c30 -24 45 -29 66 -25 34 8 38 2 77 -135 46 -160 57 -225 47 -277 l-7 -36 -19
29 c-11 16 -26 44 -35 63 -13 32 -15 33 -28 16 -11 -15 -17 -16 -49 -6 -43 15
-45 20 -39 98 5 61 -10 123 -29 123 -5 0 -9 15 -9 33 -1 45 -21 79 -40 67 -8
-5 -24 -10 -35 -10 -15 0 -20 6 -19 28 1 47 13 62 49 62 21 0 46 -11 70 -30z
m1815 -23 c0 -8 -11 -19 -25 -25 -14 -7 -28 -19 -31 -27 -4 -9 -19 -22 -35
-30 -31 -17 -109 -20 -109 -6 0 6 -21 11 -47 13 -39 2 -48 7 -51 23 -4 38 10
43 148 52 74 6 138 11 143 12 4 0 7 -5 7 -12z m-8608 -213 c4 -3 8 -11 8 -18
0 -12 27 -47 82 -105 13 -13 39 -31 58 -40 59 -27 91 -53 114 -90 25 -40 56
-129 56 -160 0 -30 -38 -27 -52 4 -6 14 -31 34 -55 46 -33 16 -43 26 -43 44 0
13 -4 27 -10 30 -5 3 -10 19 -10 35 0 39 -28 70 -62 70 -32 0 -42 -23 -39 -92
2 -47 1 -48 -28 -48 -16 0 -33 -4 -36 -10 -13 -21 -25 -8 -25 28 0 42 -8 56
-32 60 -10 2 -29 13 -43 26 -27 26 -65 40 -65 25 0 -5 -5 -9 -11 -9 -7 0 -17
-7 -24 -17 -7 -9 -17 -13 -25 -8 -9 5 -11 29 -7 89 7 100 6 97 21 64 11 -27
12 -27 25 -7 7 12 8 18 2 14 -17 -10 -12 8 9 34 11 13 31 24 44 25 15 1 22 6
18 15 -4 11 7 12 58 7 35 -4 67 -9 72 -12z m7754 -104 c4 -41 13 -84 20 -95 8
-11 14 -38 14 -60 0 -34 -4 -42 -27 -52 -36 -17 -53 -1 -53 51 0 23 -7 51 -15
62 -8 10 -15 31 -15 46 0 15 -7 31 -15 35 -11 7 -6 18 28 55 23 25 45 43 49
39 4 -3 10 -40 14 -81z m-1429 -83 c-1 -7 3 -11 9 -10 18 3 46 -33 79 -100 22
-45 38 -66 61 -76 46 -20 98 -102 96 -151 -1 -22 3 -48 8 -58 17 -27 58 -176
52 -186 -3 -5 -12 0 -21 11 -9 11 -24 20 -33 20 -18 0 -32 -34 -17 -43 5 -3 7
-9 4 -14 -3 -5 -1 -20 5 -34 5 -14 7 -33 3 -41 -5 -14 -7 -14 -24 1 -30 27
-38 9 -32 -71 5 -67 4 -77 -13 -90 -20 -14 -21 -16 -23 -70 0 -19 -6 -35 -12
-35 -7 0 -17 -8 -24 -17 -12 -16 -15 -14 -29 17 -8 19 -18 52 -21 73 -5 31
-10 37 -30 37 -29 0 -40 37 -30 105 6 37 4 45 -8 45 -9 0 -23 -7 -32 -17 -14
-14 -18 -14 -26 -2 -5 8 -7 28 -4 44 4 17 10 54 14 83 l8 53 -22 -27 c-28 -35
-47 -25 -34 19 13 47 12 54 -16 61 -23 6 -24 8 -13 34 7 15 23 44 36 66 13 21
26 55 29 75 3 20 11 43 19 51 16 19 28 66 20 85 -8 23 -31 8 -80 -52 -26 -31
-46 -48 -46 -39 0 9 4 16 9 16 8 0 81 151 81 170 0 17 -29 11 -50 -10 -30 -30
-24 -1 10 45 17 22 40 55 51 73 l22 34 13 -32 c8 -17 13 -37 11 -43z m-7127
-17 c6 -11 8 -25 4 -32 -4 -6 -1 -9 7 -6 18 6 49 -22 49 -45 0 -17 50 -77 50
-60 0 11 20 -19 20 -31 0 -4 -9 -6 -21 -3 -32 8 -35 -20 -5 -44 15 -12 26 -29
24 -38 -1 -9 5 -31 15 -50 25 -50 21 -69 -18 -92 -20 -12 -35 -29 -35 -39 0
-32 -11 -50 -31 -50 -11 0 -23 -8 -26 -17 -7 -19 -18 12 -30 85 -3 17 -9 32
-13 32 -5 0 -11 17 -15 39 -3 21 -15 48 -25 58 -10 11 -20 31 -22 44 -2 17
-10 25 -28 27 -42 6 -44 19 -6 55 30 29 36 43 36 75 0 25 -7 47 -17 58 -17 17
-17 18 0 11 19 -7 47 12 47 32 0 19 29 12 40 -9z m8360 -143 c0 -13 4 -27 9
-32 5 -6 11 -31 14 -57 5 -38 3 -46 -9 -41 -8 3 -14 11 -14 19 0 9 -11 14 -30
14 -25 0 -30 -4 -30 -24 0 -14 -5 -28 -10 -31 -6 -4 -8 -10 -5 -15 3 -5 -4
-15 -16 -23 -15 -11 -17 -16 -7 -21 7 -3 2 -3 -12 1 -14 3 -30 6 -37 6 -10 0
-6 26 6 37 3 3 17 25 30 50 29 52 93 139 104 139 4 1 7 -9 7 -22z m-2360 -99
c0 -13 -9 -38 -20 -56 -11 -18 -20 -38 -20 -44 0 -6 -8 -21 -19 -32 -10 -12
-33 -50 -51 -85 l-33 -63 -39 6 c-48 8 -70 21 -120 70 -57 56 -70 80 -62 110
8 34 44 35 116 1 59 -27 108 -33 108 -12 0 8 9 22 19 31 11 10 27 33 35 51 12
24 25 35 44 38 15 2 30 5 35 6 4 0 7 -9 7 -21z m186 7 c9 -8 24 -15 34 -15 23
0 50 -74 50 -136 0 -34 -5 -47 -27 -64 l-28 -22 -3 24 c-6 50 -13 68 -27 68
-7 0 -17 -10 -21 -22 -7 -25 -24 -39 -36 -32 -19 12 -4 136 24 192 13 26 15
26 34 7z m1684 -20 c11 -20 21 -25 50 -25 28 0 43 -8 69 -34 30 -31 32 -37 26
-79 -6 -38 -3 -49 16 -71 25 -29 39 -33 39 -11 0 8 7 15 15 15 8 0 15 6 15 14
0 19 70 32 81 14 13 -20 11 -26 -13 -30 -15 -2 -23 -10 -23 -23 0 -13 -8 -21
-22 -23 -21 -3 -34 -22 -15 -22 4 0 9 -15 9 -32 1 -18 8 -46 17 -63 9 -16 16
-37 16 -45 0 -8 9 -32 20 -53 21 -39 27 -87 10 -87 -5 0 -10 5 -10 10 0 6 -7
10 -15 10 -8 0 -22 14 -30 30 -9 17 -21 28 -26 24 -6 -3 -10 2 -8 12 1 11 -1
32 -6 47 -6 21 -10 25 -16 15 -6 -9 -9 -4 -9 15 0 35 -16 51 -53 55 -15 2 -37
12 -48 23 -26 26 -62 39 -88 32 -16 -4 -21 -13 -21 -36 0 -62 -10 -17 -15 68
-3 49 -10 94 -15 99 -13 13 -13 89 0 81 19 -12 31 5 19 27 -11 21 -5 68 10 68
4 0 14 -11 21 -25z m2467 -291 c22 -22 28 -24 37 -12 20 27 46 29 56 5 15 -36
42 -64 47 -50 3 8 14 11 30 7 17 -5 24 -3 19 4 -8 13 -1 18 42 27 32 7 34 6
27 -16 -9 -28 -23 -39 -48 -39 -10 0 -25 -7 -33 -15 -11 -10 -12 -15 -3 -15 7
0 1 -9 -12 -21 -16 -14 -24 -32 -25 -57 -3 -56 -63 -192 -85 -192 -18 0 -22
12 -34 102 -3 26 -10 50 -16 53 -5 4 -9 22 -9 41 0 47 -24 40 -28 -8 -3 -31
-6 -35 -33 -35 -16 0 -29 4 -29 9 0 5 -4 7 -9 3 -5 -3 -12 -1 -16 5 -9 15 -55
-19 -55 -41 0 -10 -16 -27 -40 -40 -22 -13 -39 -27 -38 -33 0 -6 -1 -18 -4
-26 -3 -8 -13 -35 -22 -60 -23 -65 -30 -73 -55 -65 -15 4 -25 20 -34 52 -6 25
-17 48 -24 50 -7 3 -13 11 -13 19 0 30 -20 12 -30 -28 -23 -89 -59 -143 -82
-120 -16 16 -52 -4 -67 -39 -17 -38 -40 -48 -57 -24 -16 22 -19 101 -4 110 6
3 10 17 10 31 0 20 74 184 111 244 5 8 13 24 18 35 14 33 59 75 78 75 15 0 16
-2 3 -10 -13 -8 -12 -10 3 -10 10 0 32 14 49 30 16 17 34 30 40 30 6 0 17 8
24 18 13 16 15 16 27 -3 6 -11 17 -38 22 -60 16 -58 45 -60 77 -3 13 24 35 49
49 55 15 7 32 20 39 28 20 24 68 18 97 -11z m-9434 -28 c9 -7 17 -19 17 -25 0
-7 5 -9 10 -6 6 3 13 -2 17 -12 8 -22 29 -44 35 -37 3 2 17 -7 32 -21 15 -14
29 -25 32 -25 9 0 63 -49 92 -84 18 -22 15 -46 -7 -46 -22 0 -71 53 -71 76 0
18 -24 44 -40 44 -6 0 -9 4 -6 9 6 9 -36 31 -58 31 -10 0 -16 -25 -21 -90 -8
-100 -13 -105 -73 -74 -30 14 -31 18 -31 72 1 31 -2 74 -6 95 -6 33 -10 37
-29 31 -11 -3 -30 -15 -42 -25 -11 -11 -23 -17 -26 -13 -4 3 -9 -3 -12 -13 -3
-10 -15 -24 -26 -31 -17 -10 -20 -10 -20 3 0 9 -8 19 -17 22 -26 9 -33 24 -26
53 12 45 66 76 85 47 4 -8 10 -8 20 0 14 12 89 30 128 32 14 0 33 -6 43 -13z
m6750 -370 c3 -8 3 -23 0 -34 -2 -11 0 -23 6 -26 6 -4 11 -18 11 -31 0 -29 17
-42 23 -18 5 21 50 -71 49 -100 0 -9 3 -15 9 -12 5 4 9 -1 9 -9 0 -9 5 -16 11
-16 5 0 8 -4 4 -9 -3 -5 2 -17 11 -25 11 -12 13 -20 6 -29 -6 -7 -9 -67 -8
-140 2 -113 1 -129 -15 -138 -26 -13 -28 -13 -46 31 -11 25 -24 40 -35 40 -15
0 -18 9 -18 49 0 43 -3 50 -24 55 -26 6 -56 -1 -56 -14 0 -5 -9 -6 -20 -3 -25
7 -25 15 0 81 11 29 20 70 20 91 0 35 -3 39 -30 43 -18 3 -40 -2 -57 -13 -15
-10 -30 -16 -35 -13 -4 3 -5 -1 -2 -9 3 -8 1 -18 -5 -22 -7 -4 -11 4 -11 19 0
24 13 45 53 88 9 10 17 26 17 36 0 10 3 22 7 26 4 3 8 13 9 20 6 39 16 54 34
51 10 -2 29 7 42 20 28 28 34 29 41 11z m-6308 -31 c83 -8 139 -17 150 -26 6
-4 89 -8 185 -8 145 -1 181 -4 212 -19 32 -14 36 -21 31 -42 -16 -68 -25 -70
-144 -40 -52 13 -113 20 -180 21 -79 0 -115 5 -158 22 -31 12 -60 20 -65 19
-4 -2 -19 4 -32 13 -13 8 -31 15 -41 15 -25 1 -53 24 -53 44 0 12 6 15 23 11
12 -3 45 -7 72 -10z"/>
<path d="M9063 5133 c-7 -3 -13 -12 -13 -21 0 -8 -7 -23 -16 -33 -9 -10 -22
-35 -29 -55 l-13 -38 -21 43 c-17 33 -26 41 -39 35 -9 -4 -29 -7 -44 -7 -23 0
-28 -4 -28 -23 0 -33 -15 -37 -29 -8 -8 18 -18 24 -33 22 -17 -2 -22 -11 -24
-43 -2 -22 -6 -65 -10 -95 -4 -30 -8 -83 -10 -117 -3 -55 -1 -64 19 -78 20
-14 22 -14 27 2 3 10 12 29 21 43 9 14 20 42 23 63 7 39 29 58 48 39 6 -6 5
-19 -6 -39 -8 -16 -14 -38 -12 -48 2 -17 -10 -52 -35 -98 -14 -26 -1 -39 32
-32 19 4 29 3 29 -5 0 -6 13 -1 29 12 24 20 29 32 35 91 4 38 14 89 21 115 12
37 12 54 3 79 -7 18 -9 35 -6 39 12 11 28 -7 28 -32 0 -19 5 -24 26 -24 27 0
28 -11 7 -66 -3 -10 -2 -15 3 -12 5 4 8 -19 6 -53 -3 -45 -7 -59 -19 -59 -14
0 -14 -2 0 -18 10 -10 17 -25 17 -34 0 -8 9 -23 20 -33 11 -10 20 -26 20 -37
0 -13 7 -18 30 -18 28 0 29 2 23 30 -4 21 -1 35 10 43 23 19 38 128 40 302 2
138 0 160 -14 163 -32 6 -75 -149 -70 -256 1 -40 -8 -60 -19 -41 -5 7 -7 58
-5 113 5 120 -4 195 -22 189z"/>
<path d="M6466 5053 c-2 -2 -77 -5 -167 -7 -90 -3 -198 -9 -239 -15 -41 -5
-102 -13 -135 -16 -33 -3 -85 -9 -115 -14 -30 -5 -60 -6 -67 -4 -7 3 -13 -2
-13 -12 0 -10 5 -13 12 -9 8 5 9 2 5 -10 -5 -14 -3 -17 8 -13 8 4 17 1 21 -4
4 -6 28 -8 62 -5 56 6 84 16 44 16 -13 0 -22 6 -22 15 0 8 7 15 15 15 8 0 15
-4 15 -8 0 -5 26 -10 58 -11 133 -6 159 -8 197 -15 29 -6 36 -5 25 3 -12 9
-10 11 13 11 16 0 38 -5 49 -11 15 -8 19 -8 13 1 -5 8 15 11 78 9 46 -1 88 0
93 3 5 2 82 4 171 4 90 -1 163 1 163 4 0 3 32 5 71 4 67 -1 70 0 65 20 -3 12
-6 29 -6 39 0 16 -15 17 -206 15 -113 -2 -207 -4 -208 -5z"/>
<path d="M10391 4905 c-7 -27 -7 -41 0 -46 7 -4 4 -9 -6 -13 -10 -3 -13 -11
-9 -18 5 -7 9 -35 11 -62 2 -28 7 -54 13 -60 5 -5 10 -20 10 -32 0 -13 4 -25
9 -28 18 -11 41 6 41 31 0 51 -33 233 -45 250 -12 15 -14 13 -24 -22z"/>
<path d="M6672 4454 c-8 -9 -21 -12 -34 -9 -28 10 -78 -14 -82 -39 -3 -11 -7
-38 -10 -60 -3 -21 -13 -48 -23 -59 -13 -14 -15 -21 -5 -24 18 -7 15 -24 -10
-50 l-21 -23 21 0 c26 0 29 -18 5 -27 -15 -6 -15 -7 3 -14 17 -7 17 -8 2 -8
-23 -1 -25 -51 -3 -51 8 0 15 4 15 9 0 5 8 12 18 15 10 4 27 14 38 24 11 10
28 23 38 29 19 10 18 11 -2 17 -28 9 -30 52 -3 61 17 5 19 13 15 64 -6 72 11
85 58 46 16 -14 40 -25 54 -25 29 0 32 -25 4 -33 -23 -6 -27 -27 -5 -27 22 0
81 56 95 90 20 48 8 63 -45 56 -40 -7 -46 -5 -71 23 -31 35 -34 36 -52 15z"/>
<path d="M10889 277 c-9 -7 -22 -29 -28 -50 -7 -21 -34 -59 -61 -85 -38 -38
-46 -51 -39 -67 4 -11 10 -32 13 -47 6 -27 9 -28 66 -28 55 0 60 2 60 22 0 12
17 38 40 59 22 21 40 43 40 49 0 6 10 24 21 40 26 34 20 94 -11 110 -25 14
-81 12 -101 -3z"/>
<path d="M9440 80 l0 -80 80 0 80 0 0 40 0 40 -40 0 c-38 0 -40 2 -40 30 0 25
-4 30 -25 30 -14 0 -25 5 -25 10 0 6 -7 10 -15 10 -12 0 -15 -16 -15 -80z"/>
</g>
</svg>
