<?xml version="1.0" standalone="no"?>
<!DOCTYPE svg PUBLIC "-//W3C//DTD SVG 20010904//EN"
 "http://www.w3.org/TR/2001/REC-SVG-20010904/DTD/svg10.dtd">
<svg version="1.0" xmlns="http://www.w3.org/2000/svg"
 width="1280.000000pt" height="720.000000pt" viewBox="0 0 1280.000000 720.000000"
 preserveAspectRatio="xMidYMid meet">
<metadata>
Created by potrace 1.16, written by Peter Selinger 2001-2019
</metadata>
<g transform="translate(0.000000,720.000000) scale(0.100000,-0.100000)"
fill="#000000" stroke="none">
<path d="M10878 7186 c-10 -7 -18 -16 -18 -20 0 -4 -13 -26 -29 -49 -125 -183
-137 -207 -103 -207 21 0 52 29 52 48 0 14 11 15 43 3 22 -9 26 -6 43 30 17
39 60 79 84 79 19 0 -38 -90 -82 -131 -46 -43 -88 -98 -88 -116 0 -8 15 -20
32 -28 27 -11 37 -11 58 0 14 7 47 16 73 20 42 7 49 11 62 41 8 19 18 34 23
34 4 0 27 19 50 42 42 41 58 46 46 15 -3 -9 -14 -19 -25 -22 -11 -4 -19 -16
-19 -28 0 -12 -5 -29 -10 -37 -11 -18 21 -39 61 -40 15 0 31 -6 37 -12 10 -13
5 -68 -6 -68 -3 0 -23 12 -44 26 -44 31 -64 27 -83 -20 -16 -38 -31 -46 -81
-46 -24 0 -36 -5 -41 -17 -22 -68 -48 -113 -65 -113 -10 0 -18 4 -18 10 0 5
-9 14 -21 20 -29 16 -55 -10 -62 -64 -13 -91 -38 -116 -78 -80 -15 14 -22 14
-55 2 -41 -15 -41 -14 -48 -83 -11 -100 -25 -116 -56 -60 -9 16 -20 30 -26 32
-16 5 -52 -39 -61 -77 -8 -29 -14 -35 -36 -35 -22 -1 -32 -10 -52 -47 -14 -26
-25 -54 -25 -62 0 -22 -19 -30 -36 -15 -21 17 -10 108 18 158 50 86 49 85 31
99 -28 20 -50 14 -88 -24 -35 -35 -37 -35 -56 -18 -18 16 -18 19 -3 35 17 19
11 39 -12 39 -38 0 -3 37 45 46 33 7 52 25 33 32 -23 7 -11 22 18 22 17 0 58
8 92 17 48 14 64 23 79 48 10 16 28 41 41 54 l23 23 -40 -7 c-22 -4 -49 -15
-61 -26 -11 -10 -33 -19 -48 -19 -20 0 -29 -6 -33 -20 -4 -16 -13 -20 -42 -19
-20 0 -56 -2 -81 -6 -33 -5 -41 -4 -30 4 8 6 23 11 33 11 13 0 17 8 17 34 0
30 4 36 35 46 19 6 35 17 35 23 0 7 11 29 25 49 14 20 21 39 16 42 -16 10 -41
-6 -57 -35 -8 -16 -23 -29 -33 -29 -18 0 -71 -59 -84 -93 -4 -10 -22 -24 -41
-32 -21 -9 -36 -23 -40 -39 -4 -18 -11 -23 -26 -19 -14 4 -30 -3 -46 -18 -23
-22 -27 -22 -75 -10 -55 14 -63 11 -73 -31 -5 -23 -3 -25 15 -21 19 5 20 3 14
-18 -4 -13 -15 -33 -24 -43 -12 -14 -13 -20 -3 -23 18 -7 15 -30 -5 -42 -10
-5 -15 -12 -11 -16 8 -8 125 -9 168 -1 26 5 40 3 55 -9 17 -14 18 -16 2 -11
-10 3 -37 -3 -60 -13 -23 -10 -55 -23 -70 -30 -15 -6 -25 -16 -22 -21 4 -7 14
-6 28 2 12 6 37 12 57 14 19 2 42 5 50 6 17 3 20 -2 20 -37 0 -27 -26 -35 -48
-13 -13 13 -42 -5 -42 -28 0 -19 -56 -27 -121 -16 -66 10 -99 1 -99 -28 0 -18
-10 -25 -32 -21 -5 0 -8 -10 -8 -23 0 -30 30 -42 60 -26 16 9 25 8 36 0 11
-10 19 -9 39 4 31 20 35 20 35 -3 0 -24 18 -31 48 -18 17 8 29 8 43 -1 24 -15
22 -15 46 6 11 9 18 23 16 30 -8 21 41 14 55 -9 18 -29 67 -23 66 9 0 15 5 22
18 22 10 0 18 -4 18 -9 0 -5 32 -9 70 -9 58 1 73 4 81 19 5 10 24 26 42 35 18
9 36 23 40 30 4 8 16 14 26 14 20 0 44 24 55 54 6 17 8 18 24 2 28 -24 47 -20
83 19 57 60 87 40 55 -37 -19 -45 -9 -63 28 -47 38 18 53 1 36 -41 -19 -47 2
-56 59 -25 24 14 50 25 57 25 7 0 23 14 36 30 16 23 30 30 55 30 18 0 33 -4
33 -10 0 -13 61 -1 81 17 9 7 25 11 35 7 13 -4 15 -3 7 3 -10 7 -8 13 7 26 22
19 49 22 92 12 20 -6 27 -3 32 13 7 22 -2 52 -15 52 -5 0 -9 6 -9 13 0 9 12
11 39 9 37 -4 38 -3 35 23 -4 38 5 55 27 55 10 0 19 7 19 15 0 21 47 19 59 -2
6 -12 20 -17 40 -15 20 1 31 -2 31 -10 0 -15 -54 -48 -78 -48 -21 -1 -67 -38
-58 -47 3 -3 0 -13 -8 -22 -7 -9 -17 -26 -20 -38 -6 -18 -3 -22 21 -25 32 -3
43 -33 19 -51 -14 -11 -46 -88 -46 -113 0 -6 12 -16 26 -23 34 -15 26 -33 -16
-36 -19 -2 -55 -8 -80 -13 -25 -6 -47 -9 -50 -7 -3 2 -7 18 -8 36 -3 41 -7 45
-27 29 -9 -7 -13 -21 -9 -34 3 -12 1 -32 -4 -46 l-9 -24 -12 22 c-12 22 -50
31 -52 12 -5 -30 -1 -35 26 -40 47 -8 47 -80 0 -102 -32 -14 -39 -37 -19 -60
10 -10 15 -19 13 -21 -2 -2 -17 -11 -33 -21 -29 -18 -30 -18 -47 3 -22 27 -29
27 -29 -4 0 -18 -5 -25 -20 -25 -11 0 -38 -11 -61 -25 -22 -14 -44 -23 -49
-20 -15 9 -12 32 5 39 17 6 21 81 5 91 -5 3 -26 -3 -47 -13 -36 -17 -38 -20
-35 -59 1 -29 -2 -43 -13 -47 -10 -3 -15 -19 -15 -43 0 -21 -5 -45 -10 -53
-11 -16 -12 -15 -62 52 -17 23 -17 23 -18 -23 0 -56 -21 -71 -55 -39 -24 23
-35 18 -35 -16 0 -40 -9 -51 -40 -46 -27 4 -29 2 -32 -34 -2 -30 -9 -42 -29
-51 -19 -9 -28 -23 -32 -48 -3 -20 -20 -52 -37 -72 -17 -19 -29 -40 -27 -46 2
-7 23 -13 47 -15 29 -2 49 -10 62 -25 14 -16 18 -17 14 -5 -2 9 2 19 10 22 23
9 155 -25 176 -46 25 -25 42 -19 46 18 4 32 28 64 49 64 25 0 25 -29 -1 -76
-14 -26 -26 -48 -26 -50 0 -2 23 5 51 17 44 17 54 18 68 6 28 -24 47 -26 87
-8 21 10 53 21 69 25 17 4 47 19 67 33 29 20 45 24 70 19 67 -12 72 -12 76 9
2 16 1 17 -7 5 -6 -8 -11 -10 -11 -4 0 7 -9 14 -20 17 -27 7 -27 53 -1 67 20
10 51 4 62 -13 10 -14 30 1 93 70 31 34 52 64 47 67 -5 3 -11 2 -13 -3 -2 -6
-22 -7 -46 -4 -34 5 -46 11 -53 31 -5 14 -8 27 -5 29 2 2 39 5 83 6 75 2 82 4
118 36 50 43 129 78 197 87 29 4 67 14 83 22 40 20 132 20 170 -1 44 -25 106
-22 135 6 22 20 35 22 120 22 136 -1 178 -10 224 -48 22 -17 43 -36 48 -42 37
-44 151 -230 171 -279 11 -27 16 -125 7 -131 -4 -3 -18 11 -31 30 -13 19 -30
35 -37 35 -13 0 -36 -49 -27 -58 10 -11 -17 -30 -35 -25 -11 3 -26 0 -34 -6
-22 -18 -44 -3 -53 37 -10 44 -35 53 -51 17 -12 -27 -40 -32 -73 -15 -15 9
-19 22 -19 66 0 60 15 96 54 133 36 34 34 58 -6 63 -18 3 -40 7 -48 9 -11 3
-16 -5 -18 -28 -2 -20 -11 -37 -23 -43 -12 -7 -19 -21 -19 -38 0 -34 -16 -52
-47 -52 -16 0 -23 -6 -23 -19 0 -23 -25 -51 -46 -51 -22 0 -16 37 10 57 15 12
26 33 30 59 l6 41 -47 6 c-64 7 -72 2 -63 -37 4 -18 3 -41 -2 -50 -5 -9 -7
-30 -3 -46 5 -22 2 -31 -14 -39 -26 -14 -31 -5 -36 60 -2 28 -6 53 -9 56 -14
14 -4 32 23 41 16 6 35 21 43 35 7 13 21 39 31 57 10 17 16 35 13 38 -4 3 -27
-9 -51 -26 -25 -18 -53 -32 -62 -32 -9 0 -40 25 -68 55 -29 30 -60 55 -69 55
-20 0 -20 -1 -1 -36 8 -16 15 -38 15 -50 0 -11 7 -29 15 -40 8 -10 15 -29 15
-41 0 -20 -4 -22 -32 -16 -18 3 -40 12 -49 19 -8 8 -21 14 -27 14 -14 0 -16
-26 -3 -34 9 -6 53 -85 48 -87 -1 0 -15 -3 -32 -5 -16 -3 -37 -14 -46 -26 -21
-26 -44 -19 -67 22 -9 16 -20 30 -24 30 -12 0 -48 -58 -48 -78 0 -49 -63 -39
-84 13 -15 36 -31 45 -38 23 -3 -7 -20 -13 -39 -14 -19 0 -46 -4 -61 -8 -27
-8 -28 -6 -28 25 0 22 -3 29 -9 21 -4 -7 -6 -23 -4 -35 2 -15 -10 -37 -37 -69
-34 -40 -46 -47 -66 -42 -21 5 -24 3 -24 -23 0 -38 -22 -68 -44 -60 -21 8 -21
55 1 79 21 24 14 30 -17 15 -17 -8 -26 -23 -28 -42 -4 -37 -38 -75 -68 -75
-36 0 -54 -11 -54 -31 0 -23 13 -24 46 -3 17 12 28 14 35 7 21 -21 -56 -71
-164 -107 -9 -3 -27 -21 -38 -40 -11 -19 -31 -42 -45 -50 -13 -9 -24 -24 -24
-34 -1 -9 -23 -41 -51 -71 -40 -42 -53 -51 -60 -40 -5 8 -9 20 -9 27 0 6 -7
12 -15 12 -10 0 -15 -10 -15 -32 0 -31 -9 -44 -62 -96 -16 -15 -28 -32 -28
-40 0 -20 -31 -62 -45 -62 -15 0 -25 22 -25 55 0 14 -11 32 -27 44 l-28 20 33
11 c21 8 32 19 32 31 0 40 29 86 101 161 58 59 82 78 111 83 24 5 43 16 54 33
16 24 16 26 -1 38 -10 8 -21 12 -24 9 -4 -2 -17 12 -30 31 -17 24 -31 34 -49
34 -14 0 -36 9 -48 21 -29 27 -104 45 -115 27 -5 -7 -9 -20 -9 -28 0 -8 -10
-20 -22 -25 -19 -8 -32 -5 -67 17 -50 31 -71 35 -71 14 0 -8 -16 -24 -35 -36
-19 -12 -35 -25 -35 -30 0 -19 13 -40 25 -40 7 0 18 -7 26 -16 10 -13 10 -17
0 -24 -19 -11 -6 -74 29 -149 16 -34 27 -61 25 -61 -5 0 31 -126 49 -170 8
-19 31 -87 51 -150 20 -63 47 -135 61 -159 13 -24 24 -50 24 -57 0 -15 18 -70
138 -422 50 -145 77 -210 96 -229 27 -26 44 -69 32 -80 -3 -4 -30 -2 -59 3
-76 14 -90 9 -82 -28 5 -20 3 -33 -6 -38 -17 -11 -43 17 -44 49 0 24 -4 26
-45 29 -25 2 -59 9 -77 17 -44 21 -73 19 -73 -4 0 -11 -4 -31 -10 -46 -8 -21
-13 -24 -28 -16 -34 18 -72 -41 -72 -114 0 -27 5 -34 25 -39 41 -10 29 -27
-17 -24 -28 2 -42 7 -40 16 1 7 -9 18 -23 24 -14 6 -25 18 -25 27 0 25 -13 39
-43 46 -23 6 -27 4 -27 -13 0 -12 11 -24 28 -31 26 -11 52 -50 52 -78 0 -9
-10 -13 -27 -11 -24 3 -28 0 -26 -19 2 -17 -3 -23 -16 -23 -23 0 -40 -20 -50
-57 -5 -19 -15 -29 -30 -31 -29 -5 -74 -54 -58 -64 6 -4 41 -10 77 -14 36 -3
70 -11 77 -16 14 -12 68 -1 86 16 15 16 103 46 133 46 13 0 51 -24 89 -57 39
-35 83 -63 109 -70 29 -9 46 -21 54 -38 19 -41 15 -44 -38 -38 -57 7 -79 -10
-80 -59 -1 -79 -85 -141 -105 -77 -7 23 -41 43 -56 33 -6 -3 -26 8 -44 26 -32
31 -33 31 -40 11 -9 -28 -43 -27 -54 2 -5 12 -12 45 -16 74 l-7 51 -46 -15
c-26 -9 -53 -17 -59 -19 -9 -2 -10 -10 -4 -27 11 -28 -2 -47 -31 -47 -9 0 -28
-12 -42 -27 -22 -24 -27 -25 -55 -14 -37 16 -47 10 -55 -33 -6 -32 -10 -35
-44 -38 -29 -2 -37 -7 -37 -23 0 -12 -15 -30 -35 -44 -19 -14 -40 -31 -46 -39
-17 -23 -31 6 -43 91 -21 153 -8 203 71 271 44 38 82 53 161 63 51 6 57 12 28
30 -11 7 -24 28 -31 47 -9 29 -15 34 -28 27 -9 -5 -36 -12 -59 -16 -24 -4 -45
-11 -49 -16 -3 -5 -14 -9 -25 -9 -14 0 -19 7 -19 28 0 51 33 88 117 127 43 21
94 46 114 56 20 11 51 19 68 19 23 0 34 6 40 23 12 31 19 137 10 137 -5 0 -22
-20 -39 -45 -35 -51 -42 -53 -70 -25 -26 26 -34 25 -49 -7 -8 -16 -16 -34 -20
-42 -4 -8 -15 -19 -24 -25 -24 -15 -39 9 -32 50 3 17 3 33 -1 36 -3 4 -37 -3
-76 -13 -109 -31 -127 -12 -55 58 46 46 164 102 219 104 18 1 54 -2 80 -6 55
-9 79 4 71 36 -4 12 0 25 8 29 15 10 16 9 -26 30 -42 22 -39 45 5 44 19 -1 49
-4 66 -8 26 -7 32 -5 36 12 10 38 -4 44 -98 41 l-89 -4 -3 28 c-3 23 2 30 32
42 52 22 102 19 142 -9 27 -18 44 -22 77 -19 52 6 100 -11 95 -33 -2 -11 -22
-22 -57 -30 -70 -18 -70 -18 -69 -64 0 -35 4 -41 27 -46 14 -3 44 -13 67 -21
37 -13 47 -13 97 2 37 11 84 15 136 13 87 -3 102 3 77 27 -9 9 -16 23 -16 31
0 7 -7 22 -16 32 -10 12 -16 42 -18 87 -2 60 -5 70 -28 89 -23 18 -60 104 -73
166 -2 8 -4 15 -5 15 -1 0 -2 16 -4 35 -1 19 -10 51 -18 70 -9 19 -21 51 -29
70 -7 19 -24 53 -39 75 -35 53 -53 115 -39 132 6 7 15 10 20 7 5 -3 9 -1 9 3
0 15 -23 33 -42 33 -12 0 -21 13 -28 41 -6 23 -9 43 -6 46 3 3 -4 21 -14 40
-10 19 -22 65 -26 101 -5 46 -12 71 -26 82 -21 17 -61 120 -46 120 12 0 0 58
-17 82 -6 10 -15 15 -20 10 -4 -4 -4 3 -1 16 5 15 -3 43 -25 90 -23 47 -32 78
-30 105 2 28 -1 36 -11 32 -29 -12 -98 -135 -122 -219 -10 -32 -23 -68 -31
-80 -16 -25 -55 -139 -55 -161 0 -15 -3 -24 -34 -82 -9 -18 -26 -58 -36 -89
-11 -31 -25 -62 -30 -69 -6 -7 -13 -36 -17 -63 -4 -39 -15 -61 -44 -97 -38
-46 -56 -82 -45 -92 8 -8 -18 -55 -43 -77 -11 -10 -23 -35 -27 -55 -3 -20 -15
-54 -25 -77 -10 -22 -19 -46 -19 -53 0 -16 -47 -96 -65 -111 -9 -7 -15 -30
-15 -52 0 -39 -39 -133 -87 -210 -22 -36 -30 -55 -68 -160 -10 -30 -28 -56
-47 -70 -39 -28 -163 -46 -358 -54 -80 -3 -162 -10 -183 -16 -28 -9 -57 -8
-115 0 -61 10 -90 9 -139 -1 -34 -7 -65 -16 -69 -20 -4 -4 -76 -7 -160 -7
-105 0 -176 -5 -226 -16 -49 -11 -130 -17 -248 -19 -112 -1 -184 -6 -198 -14
-13 -7 -75 -12 -164 -12 -96 -1 -145 -5 -150 -12 -8 -14 -219 -11 -283 3 -53
12 -121 12 -162 0 -18 -5 -49 -15 -69 -21 -39 -12 -217 -3 -209 11 6 9 -33 18
-145 31 -70 8 -89 14 -112 36 -16 15 -28 33 -28 40 0 16 -90 18 -120 3 -11 -6
-29 -15 -40 -20 -11 -5 -28 -10 -37 -10 -10 0 -30 -6 -45 -14 -15 -8 -47 -13
-75 -11 -109 7 -199 8 -224 1 -15 -4 -68 2 -130 15 -125 26 -195 39 -229 42
l-25 2 3 -87 c2 -77 0 -90 -18 -108 -11 -11 -20 -27 -20 -35 0 -12 -10 -14
-55 -9 -59 7 -68 -1 -35 -31 28 -26 26 -47 -4 -39 -13 3 -32 1 -43 -4 -10 -5
-36 -12 -58 -16 -30 -4 -35 -3 -17 4 35 15 27 37 -15 43 -42 7 -78 1 -106 -19
-13 -8 -15 -14 -7 -19 6 -4 20 1 31 11 14 13 22 15 31 6 17 -17 1 -42 -26 -42
-14 0 -28 -4 -31 -10 -12 -19 -25 -10 -24 18 0 15 -3 45 -6 68 -7 39 -5 42 36
77 53 46 74 47 96 3 l18 -35 35 30 35 31 -29 -7 c-27 -6 -28 -5 -16 11 11 13
25 15 62 11 26 -4 48 -4 48 -2 0 2 -18 22 -40 44 -22 22 -44 51 -49 65 -8 19
-15 23 -37 18 -18 -3 -31 0 -39 11 -11 15 -15 13 -40 -13 -19 -20 -31 -26 -36
-19 -4 8 -20 9 -45 5 -22 -5 -33 -11 -26 -15 17 -10 -25 -48 -62 -55 -31 -6
-68 -34 -61 -46 15 -25 -159 -130 -215 -130 -20 0 -37 -11 -60 -37 -64 -77
-121 -131 -149 -143 -23 -9 -30 -20 -35 -51 -7 -47 -73 -174 -89 -174 -7 0
-11 -12 -9 -25 1 -18 -1 -21 -7 -11 -7 11 -9 11 -14 0 -3 -10 -8 -11 -15 -4
-12 11 42 134 83 190 12 17 33 52 46 79 28 58 110 133 196 182 57 32 79 54 53
54 -5 0 -10 6 -10 14 0 8 -7 22 -16 30 -8 9 -13 20 -9 25 3 5 1 12 -3 15 -15
9 -5 102 13 130 10 15 15 35 12 47 -4 15 3 30 24 51 16 16 29 36 29 45 0 8
-35 52 -79 97 -43 44 -84 91 -90 103 -6 12 -24 29 -39 38 -15 9 -35 29 -45 43
-84 133 -147 201 -231 252 -37 23 -74 39 -83 38 -16 -3 -43 64 -43 108 0 12
-18 48 -39 80 -37 55 -62 76 -136 114 -25 12 -31 22 -33 56 -3 36 -11 47 -77
107 -40 37 -81 67 -90 67 -9 0 -25 10 -35 22 l-18 23 -8 -50 c-4 -28 -7 -54
-6 -58 2 -5 -5 -7 -15 -5 -21 4 -31 39 -44 156 -12 110 -26 137 -132 251 -38
40 -79 96 -92 123 -25 53 -104 137 -155 163 -21 11 -30 23 -30 40 0 30 -51 90
-95 111 -34 16 -50 41 -60 97 -7 34 -22 53 -116 144 -39 38 -83 63 -109 63
-15 0 -48 -40 -105 -125 -30 -44 -66 -93 -81 -110 -14 -16 -49 -76 -76 -133
-32 -65 -55 -101 -63 -98 -14 5 -92 -81 -113 -125 -8 -15 -39 -57 -70 -95 -75
-88 -172 -232 -173 -255 -3 -45 -28 -79 -56 -79 -13 0 -23 -4 -23 -10 0 -6
-10 -20 -22 -32 -27 -27 -88 -116 -88 -129 0 -5 -21 -32 -46 -61 -59 -69 -134
-188 -164 -263 -15 -37 -26 -53 -28 -42 -5 27 -22 16 -65 -39 -55 -70 -77
-106 -77 -127 0 -21 -47 -87 -63 -87 -5 0 -20 -11 -32 -24 -34 -36 -164 -212
-180 -242 -7 -15 -17 -30 -22 -33 -5 -3 -24 -26 -43 -51 -19 -25 -40 -51 -47
-58 -7 -8 -27 -34 -45 -60 -33 -47 -53 -74 -75 -97 -7 -8 -17 -24 -23 -37 -5
-13 -15 -30 -22 -39 -17 -25 -3 -49 30 -49 37 0 50 -15 54 -64 4 -47 19 -55
47 -25 43 47 61 3 45 -115 -7 -50 -18 -59 -29 -23 -5 17 -12 2 -29 -65 -11
-48 -24 -89 -27 -93 -3 -3 -9 40 -13 96 -4 55 -13 117 -19 137 -12 34 -15 37
-47 34 -19 -2 -54 -12 -77 -22 -23 -10 -43 -16 -46 -14 -2 3 -10 -2 -17 -11
-7 -8 -18 -15 -25 -15 -15 0 -71 -27 -106 -51 -14 -10 -48 -23 -75 -29 -67
-16 -96 -27 -189 -69 -44 -21 -106 -43 -137 -50 -33 -7 -72 -24 -94 -42 -45
-35 -57 -36 -72 -5 -36 80 -22 146 45 212 56 54 244 147 482 240 64 25 146 59
184 76 l67 31 0 75 c0 69 4 82 46 166 25 50 64 115 87 145 23 29 47 61 52 71
11 19 68 89 102 126 12 13 36 44 53 69 17 24 53 70 80 101 60 68 66 85 44 119
-14 21 -23 26 -45 21 -18 -3 -29 0 -33 9 -3 9 -18 15 -36 15 -27 0 -30 3 -30
30 0 23 -5 31 -25 36 -21 5 -25 12 -25 40 0 29 -3 34 -24 34 -33 0 -47 -21
-40 -58 l6 -31 -33 9 c-19 6 -35 10 -36 10 -1 0 0 6 3 14 3 8 -3 20 -14 27
-32 24 -34 57 -4 84 15 14 27 33 27 42 0 45 202 -10 280 -77 63 -54 104 -100
107 -122 3 -21 7 -18 33 22 17 25 38 54 47 64 21 24 17 31 -10 17 -20 -11 -42
2 -42 25 0 6 -6 14 -14 17 -11 5 -29 97 -18 97 7 0 72 -64 72 -72 0 -5 11 -21
25 -36 20 -21 25 -23 25 -9 0 9 4 17 10 17 5 0 21 17 35 38 27 41 25 67 -3 77
-10 3 -28 21 -41 40 -13 19 -30 35 -37 35 -7 0 -27 13 -43 29 -17 16 -38 31
-48 33 -10 2 -17 9 -16 16 2 6 -13 23 -33 38 -32 25 -35 31 -29 64 5 30 2 41
-21 65 l-27 29 -17 -21 c-19 -24 -35 -18 -54 18 -9 18 -20 24 -46 25 -105 2
-100 -1 -100 53 0 34 4 51 15 55 20 7 19 52 -2 60 -9 4 -21 2 -27 -4 -18 -18
-36 -11 -36 14 0 34 21 49 46 32 37 -26 124 -41 124 -21 -1 5 -7 21 -15 35
-20 37 -2 55 33 32 29 -19 100 -90 100 -100 0 -4 5 -8 11 -10 6 -2 11 1 11 7
0 6 7 8 15 5 8 -4 15 -12 15 -20 0 -8 5 -14 12 -14 6 0 4 -7 -5 -18 -22 -25
-21 -44 4 -70 13 -15 18 -29 14 -43 -11 -33 10 -46 72 -46 32 -1 51 1 43 3
-20 6 -58 65 -53 82 3 6 14 12 26 13 15 1 11 5 -15 13 -20 6 -40 14 -44 18
-10 11 16 38 37 38 11 0 19 5 19 10 0 6 20 -1 45 -16 25 -14 48 -24 51 -21 10
9 -91 162 -113 172 -12 5 -24 20 -28 32 -4 16 -13 23 -30 23 -24 0 -29 8 -26
40 1 9 -12 28 -28 44 l-29 28 -36 -27 c-20 -15 -36 -34 -36 -41 0 -26 -18 -14
-25 16 -4 17 -17 36 -29 43 -16 8 -22 21 -22 41 1 39 -13 42 -49 10 -27 -23
-30 -24 -36 -7 -15 40 21 106 68 124 26 10 23 23 -14 78 -39 57 -44 111 -8 81
13 -11 18 -10 29 5 17 23 38 11 30 -18 -4 -19 2 -27 34 -45 49 -27 52 -27 52
-2 0 29 28 36 62 17 17 -9 39 -17 49 -17 11 0 29 -5 40 -10 16 -9 19 -7 19 10
0 12 -4 18 -10 15 -5 -3 -33 19 -62 50 -28 31 -57 54 -65 51 -7 -3 -16 0 -20
7 -19 29 -42 40 -58 27 -20 -17 -32 -5 -15 15 13 16 7 30 -13 30 -7 0 -13 8
-15 18 -4 21 16 23 24 2 4 -8 17 -15 29 -15 27 0 65 47 65 79 0 25 12 27 30 6
7 -8 21 -15 31 -15 14 0 19 7 19 30 0 34 7 36 56 15 19 -8 48 -12 63 -9 16 3
38 1 51 -6 12 -6 25 -9 28 -5 9 9 -58 64 -88 72 -14 3 -34 12 -45 18 -13 8
-39 10 -75 6 -63 -7 -82 2 -162 78 -54 51 -60 71 -21 71 l27 0 -26 28 c-14 15
-34 42 -44 60 -10 17 -24 32 -30 32 -24 0 -33 -65 -14 -101 8 -14 7 -19 -3
-19 -15 0 -34 22 -68 78 l-20 34 -72 -6 c-40 -3 -92 -7 -117 -9 -25 -2 -69
-14 -98 -26 -61 -25 -92 -27 -92 -6 0 19 40 39 119 59 36 9 67 19 70 22 8 7
-30 35 -39 29 -14 -9 -42 33 -36 53 5 15 18 21 49 24 63 7 81 -6 74 -53 -4
-28 -1 -39 8 -39 11 0 25 42 30 92 3 25 30 48 58 48 31 0 39 -8 27 -29 -6 -13
-1 -24 21 -45 16 -16 28 -35 27 -44 -3 -16 22 -22 92 -22 17 0 30 -9 42 -30
20 -35 43 -39 51 -9 l5 20 41 -20 c51 -27 51 -27 51 8 0 25 5 30 34 35 18 4
41 3 51 0 27 -11 14 18 -16 34 -24 12 -198 10 -220 -4 -5 -3 -9 0 -9 6 0 6 -9
24 -21 39 -42 57 -1 105 56 67 32 -21 35 -20 32 7 -2 19 3 22 40 25 29 2 43 8
43 18 0 8 6 14 14 14 19 0 76 33 76 44 0 5 -17 5 -38 1 -20 -4 -57 -9 -82 -10
-25 -2 -63 -10 -85 -19 -36 -13 -41 -13 -52 0 -6 9 -20 14 -30 12 -15 -3 -17
-11 -15 -46 4 -48 -12 -56 -43 -22 -10 11 -24 20 -32 20 -8 0 -21 7 -30 16 -9
9 -22 12 -32 8 -43 -18 -51 -17 -51 7 0 39 14 53 38 40 35 -18 95 -14 109 9 7
10 10 26 7 35 -4 10 0 15 14 15 12 0 24 5 27 10 3 6 20 10 37 10 25 0 29 3 22
18 -7 16 -7 36 -2 82 1 11 10 20 19 20 16 0 34 38 23 49 -3 3 -18 -2 -33 -11
-16 -8 -40 -14 -53 -11 -15 3 -29 -2 -37 -11 -21 -26 -51 -20 -51 9 0 14 -3
25 -8 25 -10 0 -42 -37 -42 -49 0 -15 45 -59 65 -63 11 -2 21 -12 23 -23 4
-28 -20 -58 -40 -50 -20 8 -31 47 -15 57 6 4 9 10 5 13 -12 12 -56 -36 -51
-56 7 -27 -18 -24 -45 4 -27 29 -27 32 -1 68 19 28 20 31 5 48 -19 21 -21 70
-3 75 6 3 24 7 39 10 15 3 30 15 33 26 3 11 13 20 20 20 8 0 20 10 26 23 6 12
21 32 32 45 l20 22 -24 0 c-13 0 -33 -7 -43 -15 -11 -8 -31 -15 -44 -15 -20 0
-22 4 -16 23 4 12 15 33 25 46 26 32 25 55 0 41 -29 -15 -46 -13 -32 4 12 14
6 67 -12 104 -12 25 -27 29 -27 7 0 -8 -9 -24 -20 -35 -11 -11 -20 -33 -20
-50 0 -27 -2 -30 -19 -20 -33 17 -44 12 -27 -12 9 -12 16 -35 16 -50 0 -20 11
-36 40 -59 22 -18 40 -36 40 -40 0 -10 -58 -39 -78 -39 -10 0 -12 7 -8 25 5
19 1 28 -21 41 -16 9 -40 25 -55 35 -15 11 -30 19 -33 19 -11 0 -4 -38 10 -50
10 -8 15 -30 15 -61 0 -55 19 -75 82 -85 51 -9 64 -26 48 -64 -7 -16 -10 -37
-6 -46 3 -9 3 -21 -1 -27 -5 -7 -8 -64 -8 -127 0 -101 -2 -115 -17 -118 -12
-2 -21 6 -28 22 -5 14 -13 26 -17 26 -7 0 -60 -16 -114 -36 -22 -8 -41 -9 -50
-3 -21 13 -59 11 -65 -5 -5 -14 -44 -10 -44 4 0 5 -7 16 -16 25 -12 12 -27 14
-59 9 -35 -5 -46 -2 -61 14 -35 37 -110 54 -144 32 -12 -7 -8 -12 18 -21 17
-6 32 -17 32 -25 0 -14 17 -18 53 -14 15 1 18 -5 15 -32 -3 -32 -2 -33 47 -44
43 -9 50 -14 48 -32 -2 -16 3 -22 16 -22 10 0 21 -7 25 -15 3 -8 17 -15 31
-15 16 0 28 -7 31 -17 3 -10 10 -26 15 -35 8 -15 5 -18 -20 -18 -16 0 -35 -7
-42 -16 -7 -9 -23 -20 -36 -25 -13 -5 -23 -13 -23 -18 0 -18 41 -33 76 -29 29
3 33 1 28 -14 -4 -14 2 -21 25 -29 19 -7 28 -15 24 -25 -4 -10 3 -14 25 -14
25 0 29 3 25 19 -6 25 8 32 47 25 20 -4 36 -16 42 -30 6 -13 15 -24 19 -24 5
0 20 -11 34 -25 19 -20 25 -36 25 -71 l0 -44 57 1 c64 1 101 -10 123 -36 12
-15 12 -19 -4 -30 -21 -16 -18 -60 4 -60 8 0 15 -7 15 -15 0 -10 -8 -14 -27
-12 -20 2 -28 -1 -28 -12 0 -8 -4 -17 -10 -21 -11 -7 -49 13 -66 34 -8 10 -25
12 -60 8 -42 -4 -51 -2 -71 19 -18 20 -21 29 -13 50 12 31 6 44 -23 44 -25 1
-57 22 -57 38 0 7 18 15 39 18 22 4 42 13 45 20 3 8 19 14 36 14 28 0 29 2 18
20 -7 12 -24 23 -38 27 -14 3 -31 10 -38 16 -7 6 -12 6 -12 0 0 -6 -19 -18
-41 -29 l-41 -18 -19 23 c-19 24 -41 29 -75 17 -18 -5 -22 -2 -26 19 -3 14 -1
25 3 25 5 0 9 5 9 11 0 7 -14 8 -39 4 -32 -5 -51 -1 -101 24 -34 16 -68 27
-76 24 -8 -3 -35 0 -59 7 -26 7 -60 9 -82 5 -35 -6 -37 -8 -18 -21 10 -8 30
-14 43 -14 16 0 26 -7 29 -21 4 -15 11 -19 26 -15 27 7 46 -9 40 -33 -4 -15 3
-20 32 -25 30 -6 36 -11 33 -29 -3 -20 1 -22 36 -19 22 2 47 7 57 12 25 14 42
-12 34 -50 -4 -19 -3 -30 4 -30 19 0 12 -20 -15 -45 -15 -14 -39 -25 -54 -25
-15 0 -51 -8 -81 -18 -33 -11 -71 -17 -97 -14 -33 3 -46 0 -56 -13 -9 -13 -20
-16 -36 -12 -13 3 -50 -1 -82 -10 -44 -12 -58 -21 -58 -35 0 -10 6 -18 14 -18
8 0 21 -7 30 -15 15 -16 57 -7 71 14 11 19 25 12 25 -13 0 -40 17 -39 56 4 40
44 74 53 74 20 0 -17 4 -19 28 -14 33 8 50 20 57 43 8 27 93 44 123 25 25 -17
21 -34 -9 -34 -14 0 -189 -81 -208 -96 -1 -1 0 -7 4 -13 4 -7 16 -6 36 5 38
19 59 12 59 -21 0 -14 5 -25 12 -25 6 0 -3 -14 -20 -31 -29 -28 -100 -52 -179
-61 -7 -1 -13 -5 -13 -9 0 -14 -67 -49 -94 -49 -51 0 -66 -16 -66 -70 l0 -49
30 11 c38 13 60 5 60 -22 0 -37 29 -35 69 4 20 20 41 36 45 36 5 0 6 -16 3
-35 -7 -43 0 -44 44 -4 19 16 53 39 77 49 42 19 53 34 30 43 -10 3 -8 13 6 40
21 41 42 53 62 36 11 -9 19 -8 32 5 10 9 35 16 56 16 28 0 45 8 69 31 18 16
44 36 58 44 15 8 30 26 33 40 4 14 12 25 20 25 7 0 21 9 31 20 22 25 63 23 79
-2 15 -25 -16 -57 -37 -39 -12 9 -16 6 -20 -16 -7 -37 0 -46 29 -39 22 6 24 3
24 -26 0 -18 3 -50 6 -70 5 -31 2 -41 -21 -63 -18 -19 -30 -24 -37 -17 -18 18
-35 3 -30 -28 3 -23 9 -30 27 -30 25 0 38 -28 23 -53 -12 -22 -56 -2 -64 29
-3 13 -14 26 -24 29 -10 3 -21 12 -24 20 -8 21 -23 19 -81 -10 -27 -13 -56
-25 -63 -25 -15 0 -32 -41 -32 -75 0 -35 -17 -39 -42 -10 -20 23 -28 25 -63
19 -22 -3 -44 -10 -49 -15 -6 -5 -17 -9 -26 -9 -9 0 -34 -22 -56 -50 -21 -27
-45 -49 -52 -50 -8 0 -26 -9 -40 -21 l-27 -21 -3 41 c-3 41 -18 54 -28 26 -4
-8 -16 -15 -28 -15 -37 -1 -66 -34 -66 -77 0 -33 4 -40 31 -52 30 -13 33 -12
49 9 23 31 53 21 44 -15 -4 -18 -2 -25 9 -25 8 0 17 -9 20 -20 7 -28 22 -25
47 10 15 22 30 30 51 30 39 0 39 -28 -1 -55 -16 -11 -30 -24 -30 -28 0 -14
-43 -46 -62 -47 -15 0 -66 -45 -98 -87 -8 -11 -25 -25 -37 -32 -20 -10 -23
-20 -23 -73 0 -58 1 -60 18 -45 27 24 110 59 171 71 52 11 55 13 70 56 24 67
48 97 111 139 51 34 66 39 137 43 104 8 119 -1 73 -42 -33 -29 -34 -31 -21
-66 11 -30 11 -38 -3 -53 -9 -10 -16 -25 -16 -34 0 -24 -11 -21 -36 10 -26 33
-60 26 -49 -10 20 -64 19 -67 -14 -67 -25 0 -31 4 -31 22 0 12 -7 29 -16 39
-16 17 -19 16 -61 -27 -38 -39 -49 -45 -73 -41 -41 9 -55 -12 -40 -58 12 -38
7 -85 -10 -85 -6 0 -10 6 -10 13 0 6 -7 21 -15 31 -15 20 -15 20 -32 0 -10
-11 -25 -33 -34 -49 -10 -20 -22 -29 -35 -27 -45 6 -67 4 -75 -9 -5 -8 -9 -69
-9 -136 l0 -123 50 20 c52 21 100 26 100 12 0 -24 -59 -57 -137 -78 -8 -2 -13
-20 -13 -45 0 -40 1 -41 29 -37 28 4 28 3 19 -24 -6 -15 -16 -28 -23 -28 -18
0 -28 -32 -13 -41 10 -7 10 -11 0 -21 -9 -9 -12 -267 -12 -1200 0 -1045 2
-1188 15 -1188 19 0 55 31 55 47 0 7 7 13 15 13 8 0 15 6 15 13 0 9 30 13 113
15 61 2 138 6 169 11 64 9 83 2 75 -25 -3 -11 -9 -86 -12 -169 -6 -164 -12
-198 -28 -188 -10 6 -172 24 -224 25 -13 0 -23 4 -23 8 0 4 -21 11 -47 14 -27
4 -65 9 -85 12 l-38 6 0 -56 0 -56 60 0 c33 0 60 -4 60 -10 0 -5 -8 -10 -17
-10 -10 0 -37 -8 -60 -17 l-43 -18 0 -61 c0 -41 4 -63 13 -66 6 -3 57 -2 112
2 87 6 111 11 182 45 46 21 83 42 83 46 0 5 -11 11 -25 15 -18 4 -25 13 -25
30 0 27 3 29 30 12 15 -10 45 -7 157 15 76 15 164 27 195 27 31 0 59 4 63 9 6
11 -35 20 -109 23 -51 3 -63 12 -46 38 8 12 12 13 19 2 4 -8 19 -12 32 -10 20
2 25 10 30 48 l6 45 1 -48 c2 -34 7 -49 18 -54 34 -13 49 11 56 94 4 44 12 98
17 119 9 39 9 39 11 -21 2 -33 3 -88 2 -123 0 -48 3 -65 14 -69 24 -9 42 18
48 72 9 75 26 81 26 8 0 -63 14 -89 43 -77 10 4 18 25 23 60 9 75 26 81 23 8
-3 -69 12 -86 61 -67 22 8 38 8 60 0 25 -10 33 -9 40 3 6 8 9 22 9 30 -2 28 1
40 11 40 6 0 10 -9 10 -21 0 -29 18 -59 35 -59 24 0 32 30 38 137 8 150 21
149 27 -2 l5 -130 25 0 c27 0 36 22 40 100 1 32 3 36 10 20 5 -11 9 -41 9 -67
1 -38 5 -50 24 -59 26 -14 47 -41 41 -51 -7 -11 -72 -10 -111 1 -18 5 -45 6
-60 2 l-28 -8 23 -14 c31 -19 28 -38 -9 -46 -46 -9 -17 -20 57 -22 42 -1 75 4
96 15 17 9 44 14 62 11 21 -3 57 7 117 33 104 45 216 64 326 54 88 -8 115 -19
164 -66 19 -18 45 -41 59 -50 20 -13 22 -19 13 -29 -16 -16 -185 -30 -288 -23
-80 5 -120 -5 -100 -25 17 -17 261 -25 347 -12 73 12 78 11 125 -13 27 -13 55
-32 62 -40 8 -9 19 -16 26 -16 7 0 42 -19 79 -43 36 -23 92 -58 123 -77 102
-63 191 -158 163 -175 -5 -3 -47 -7 -92 -9 -46 -2 -122 -7 -171 -11 -69 -6
-95 -5 -125 7 -20 9 -64 24 -97 33 -33 10 -67 20 -75 23 -34 12 -176 37 -192
34 -46 -9 12 -56 97 -79 93 -26 124 -33 144 -33 11 0 21 -4 21 -9 0 -11 -79
-28 -165 -35 -110 -10 -145 -22 -131 -45 10 -16 105 -13 253 9 97 14 194 20
356 21 l224 1 54 -27 c30 -15 88 -53 129 -84 41 -32 90 -63 109 -71 18 -7 42
-23 52 -34 11 -11 25 -21 32 -22 37 -5 130 -44 295 -124 102 -50 189 -90 194
-90 11 0 47 78 48 102 0 11 -10 20 -27 24 -16 3 -85 35 -154 70 -69 34 -166
79 -215 99 -49 20 -100 46 -114 59 -34 31 -152 116 -162 116 -12 0 -39 24
-159 141 -144 141 -176 206 -196 398 -7 75 -2 81 75 81 29 0 67 7 83 16 42 21
189 29 275 15 38 -7 93 -23 123 -37 29 -13 71 -24 92 -24 33 0 39 3 39 20 0
12 10 34 22 50 14 19 18 34 12 39 -5 5 -110 11 -232 13 -123 1 -226 6 -229 11
-2 4 -53 7 -114 7 -75 0 -109 4 -109 11 0 9 68 10 253 7 162 -3 260 -1 275 5
16 7 45 7 98 -1 65 -10 78 -10 100 4 36 24 127 44 147 32 26 -14 21 -47 -8
-54 -13 -3 -33 -21 -44 -40 -11 -19 -26 -34 -33 -34 -21 0 -41 17 -34 28 10
17 -12 24 -36 11 -21 -11 -21 -12 -2 -26 18 -14 18 -15 -13 -42 -18 -15 -33
-30 -33 -33 0 -9 54 4 78 20 16 10 37 13 71 9 62 -7 131 29 105 56 -3 3 -16 2
-29 -3 -13 -5 -25 -6 -28 -3 -9 8 4 33 18 33 7 0 26 7 41 15 55 28 69 16 33
-29 -24 -31 -18 -46 19 -46 48 0 67 -11 82 -43 8 -18 15 -36 15 -42 1 -14 -24
-23 -67 -24 -21 -1 -38 -5 -38 -11 0 -5 -7 -10 -15 -10 -8 0 -15 5 -15 10 0
22 -30 8 -45 -20 -8 -16 -15 -32 -15 -36 0 -4 78 -4 174 -1 110 4 188 2 212
-5 36 -9 40 -8 61 18 13 16 33 39 45 51 l21 22 -27 -3 c-20 -3 -26 1 -24 13 2
10 12 15 27 13 13 -2 21 0 19 5 -2 4 -10 22 -17 38 -50 112 -56 116 -105 90
-27 -15 -36 -15 -55 -5 -20 10 -27 8 -51 -15 l-28 -27 -17 26 c-28 42 -13 73
48 102 61 28 73 29 120 9 l36 -15 -5 133 c-3 72 -6 149 -8 170 -2 20 0 35 5
31 5 -3 9 5 9 19 0 35 45 142 85 203 116 175 260 238 671 293 38 6 81 14 95
19 28 11 576 8 602 -3 9 -4 17 -11 17 -16 0 -5 15 -9 34 -9 18 0 62 -9 96 -20
34 -11 71 -20 81 -20 21 0 92 -27 183 -70 67 -31 149 -110 159 -152 3 -13 17
-77 31 -143 45 -207 32 -365 -46 -580 -6 -16 -13 -43 -15 -60 -4 -26 0 -32 29
-44 45 -20 49 -28 42 -88 -4 -36 -3 -53 5 -53 6 0 11 5 11 10 0 6 3 9 8 8 4
-1 25 6 47 15 21 10 73 20 115 22 141 9 173 18 246 70 38 27 71 52 74 56 11
14 72 39 145 59 43 11 96 30 118 40 23 11 46 20 53 20 7 0 35 13 61 28 73 43
139 62 217 62 39 0 76 -4 82 -8 6 -4 22 -39 34 -79 23 -71 23 -72 7 -170 -28
-164 -29 -166 -135 -272 -54 -53 -108 -111 -122 -129 -29 -38 -198 -175 -220
-179 -8 -1 -19 -8 -25 -16 -5 -8 -27 -19 -47 -26 -21 -7 -38 -18 -38 -24 -1
-13 -49 -37 -115 -57 -48 -15 -138 -59 -146 -72 -3 -5 -10 -8 -15 -6 -5 1 -19
-3 -31 -10 -18 -10 -28 -10 -45 -1 -21 11 -21 11 -15 -54 4 -46 15 -79 37
-116 16 -29 30 -56 30 -61 0 -6 9 -10 19 -10 22 0 34 23 35 65 1 26 11 36 66
73 36 24 97 61 135 84 39 22 99 59 135 82 36 24 101 63 145 88 102 58 152 64
402 47 172 -12 188 -15 215 -37 30 -25 62 -24 52 3 -3 8 -10 15 -15 15 -5 0
-9 6 -9 13 0 8 28 20 72 30 71 16 98 30 85 43 -4 4 -58 1 -121 -6 -93 -11
-145 -11 -292 0 -182 13 -224 21 -224 40 0 33 207 259 270 294 19 11 41 26 48
33 7 7 20 13 28 13 8 0 14 3 14 8 0 4 14 13 31 21 25 11 47 12 118 3 154 -20
229 -23 271 -12 73 20 43 34 -86 41 -127 7 -185 18 -191 35 -5 15 122 133 198
185 l63 42 106 4 c101 3 109 2 144 -22 20 -14 47 -25 58 -25 28 0 201 -42 208
-50 3 -3 25 -12 50 -19 25 -7 60 -22 78 -33 18 -11 39 -17 47 -14 8 3 15 2 15
-3 0 -9 50 -34 103 -51 42 -13 292 -5 334 11 13 5 25 4 28 -1 4 -6 24 -10 45
-10 21 0 51 -5 66 -10 40 -16 235 -32 352 -30 87 2 102 -1 102 -14 0 -11 -9
-16 -30 -16 -16 0 -30 -4 -30 -10 0 -5 8 -10 18 -10 9 0 28 -3 42 -6 20 -5 22
-3 10 5 -13 10 -13 12 0 21 8 5 22 7 30 4 8 -3 18 -6 23 -7 4 -1 9 31 10 71 2
40 7 76 12 80 25 18 82 130 83 162 0 22 7 39 18 45 9 6 33 21 53 34 20 13 55
30 78 38 53 18 56 24 48 72 -5 30 -13 41 -40 54 -18 9 -36 25 -40 36 -14 44
-25 20 -56 -119 -7 -30 -22 -65 -33 -77 -20 -24 -28 -23 -32 4 -5 32 -27 74
-38 70 -6 -2 -13 -28 -16 -57 -3 -29 -10 -55 -16 -57 -6 -2 -25 8 -42 22 -39
33 -52 32 -52 -6 0 -22 -9 -39 -30 -57 -16 -15 -30 -34 -30 -43 0 -9 -6 -22
-14 -28 -12 -10 -19 -8 -34 7 -16 16 -20 35 -21 110 -2 119 20 217 62 272 40
52 132 118 219 158 43 19 68 37 73 51 3 12 17 29 30 37 17 11 23 24 22 45 -2
36 -10 37 -25 4 -7 -16 -19 -25 -29 -23 -11 2 -19 -5 -21 -17 -5 -23 -31 -55
-45 -55 -6 0 -21 -9 -33 -21 l-22 -20 -6 26 c-8 33 -40 45 -136 54 l-75 6 -6
140 c-5 143 -4 165 12 165 5 0 9 -35 10 -77 1 -121 11 -177 32 -181 12 -2 17
3 17 18 0 28 24 36 47 15 10 -9 35 -27 56 -41 l38 -24 9 26 c6 14 10 31 10 39
0 48 125 124 224 135 33 3 80 16 104 29 25 13 51 19 62 16 11 -4 30 1 42 9 34
24 58 20 58 -8 0 -14 -4 -28 -10 -31 -5 -3 -10 -19 -10 -34 0 -21 -5 -28 -17
-27 -15 1 -19 -9 -23 -54 -6 -63 -30 -106 -55 -96 -30 11 -57 -12 -55 -47 3
-51 1 -57 -17 -57 -13 0 -14 -3 -5 -12 9 -9 28 -4 80 20 38 18 73 32 79 32 6
0 32 9 58 21 54 24 70 19 32 -11 l-25 -20 18 -38 c10 -20 21 -54 25 -75 6 -30
4 -37 -9 -37 -29 0 -28 -43 3 -120 34 -86 30 -100 -30 -100 -43 0 -62 -21 -52
-59 5 -21 3 -22 -31 -16 -34 7 -37 5 -47 -24 -6 -17 -15 -31 -20 -31 -19 0 -8
-20 20 -34 23 -12 29 -24 34 -60 4 -25 3 -55 -1 -66 -7 -19 -8 -19 -35 6 -22
21 -84 54 -100 54 -2 0 7 -21 20 -47 19 -37 23 -58 19 -93 -14 -128 -30 -151
-66 -100 -12 17 -29 30 -37 30 -9 0 -24 7 -34 16 -34 31 -46 0 -23 -60 8 -20
-26 -22 -45 -3 -10 10 -16 7 -31 -13 -18 -24 -60 -98 -60 -106 0 -2 18 -4 40
-4 36 0 40 3 40 25 0 30 26 34 35 5 4 -12 15 -20 28 -20 31 -1 50 -18 75 -71
24 -49 27 -76 12 -99 -7 -11 -11 -8 -20 15 -45 124 -53 135 -84 135 -21 0 -36
-7 -44 -21 -12 -18 -10 -26 12 -60 14 -21 26 -43 26 -49 0 -5 5 -10 11 -10 8
0 9 -11 4 -32 -8 -37 -8 -68 1 -146 7 -58 -3 -66 -33 -29 -10 13 -28 29 -39
35 -12 6 -27 25 -34 41 -13 32 -35 46 -46 29 -4 -6 -6 -35 -5 -64 2 -58 -13
-72 -29 -29 -13 35 -48 33 -55 -2 -4 -16 -13 -42 -20 -60 -8 -18 -11 -34 -7
-37 16 -10 65 8 69 25 7 24 39 25 47 2 7 -18 -17 -43 -41 -43 -7 0 -13 -8 -13
-17 -1 -10 -7 -29 -14 -42 -10 -19 -11 -33 -1 -75 7 -28 16 -59 20 -68 10 -24
-13 -23 -45 2 -35 27 -50 25 -56 -10 -6 -29 -27 -40 -39 -20 -3 6 -10 10 -14
10 -9 0 -42 -102 -36 -109 3 -2 48 10 100 27 52 18 108 32 124 32 24 0 33 7
46 34 19 39 170 189 232 231 23 14 61 32 86 40 l45 14 46 -45 c25 -25 59 -63
76 -84 19 -24 53 -49 88 -65 43 -20 53 -28 42 -35 -8 -5 -25 -10 -37 -10 -20
0 -23 -5 -23 -42 0 -24 7 -61 14 -83 l14 -40 76 -3 76 -3 0 37 c0 24 8 46 24
65 32 38 23 82 -17 87 -20 3 -29 -3 -42 -27 -15 -30 -35 -42 -35 -21 0 5 9 25
20 45 11 20 20 44 20 54 0 25 31 32 115 25 39 -4 88 -7 110 -8 23 -1 39 -6 38
-13 -1 -6 7 -19 17 -28 11 -10 20 -22 20 -27 0 -5 25 -34 55 -66 30 -31 55
-63 55 -69 0 -7 9 -22 20 -33 19 -19 33 -20 285 -20 205 0 265 3 265 13 0 8 3
7 10 -3 12 -19 24 -6 15 17 -4 10 -8 27 -9 38 -3 39 -57 115 -130 181 -41 37
-72 73 -69 80 5 14 -25 84 -37 84 -5 0 -8 -39 -9 -86 0 -47 -2 -88 -4 -91 -3
-2 -12 3 -20 12 -23 22 -37 18 -48 -14 -10 -29 -30 -40 -61 -33 -18 4 -38 51
-38 91 0 58 -10 71 -51 71 -27 0 -42 -5 -46 -16 -11 -29 -21 6 -12 42 5 19 13
51 18 71 6 21 6 40 2 43 -5 3 -11 19 -15 35 -6 27 -1 35 44 78 35 33 56 46 68
43 27 -9 58 40 66 105 6 47 4 58 -13 78 -11 13 -18 27 -16 31 3 4 -2 13 -10
20 -11 9 -12 17 -3 36 10 20 9 27 -3 35 -11 7 -11 9 4 9 14 0 17 5 12 21 -5
15 -4 19 4 15 6 -4 11 -18 11 -31 0 -14 8 -29 19 -35 23 -12 81 -14 81 -2 0 4
21 8 48 9 66 2 122 13 122 25 0 6 36 9 88 8 117 -3 112 -4 112 28 0 51 -71
126 -154 163 -25 11 -46 24 -46 29 0 5 25 20 55 34 81 37 133 95 148 164 5 19
3 21 -9 11 -7 -6 -12 -14 -10 -18 2 -3 -15 -6 -37 -7 -23 0 -86 -4 -141 -8
l-98 -8 7 -87 c8 -91 8 -208 -1 -223 -19 -30 -101 53 -91 93 3 10 -3 25 -12
33 -15 14 -20 14 -38 1 -25 -18 -33 -11 -33 31 0 27 -6 37 -30 49 -26 14 -29
20 -28 62 0 34 -4 50 -18 60 -29 21 -47 -10 -40 -69 8 -62 -9 -72 -45 -28 -26
31 -30 33 -55 21 -15 -6 -29 -9 -32 -6 -3 3 -1 37 4 75 l10 70 -48 0 c-26 0
-48 -4 -48 -10 0 -5 -6 -10 -13 -10 -18 0 -16 68 2 79 7 5 12 11 12 15 -1 3 1
17 5 31 8 31 35 33 97 6 25 -11 48 -17 51 -14 14 14 4 74 -17 112 -13 23 -26
39 -29 36 -3 -3 -13 4 -23 15 -10 11 -24 20 -30 20 -7 0 -15 7 -19 15 -7 20
-46 20 -46 0 0 -8 -4 -15 -10 -15 -15 0 -41 57 -34 75 4 8 1 28 -6 44 -9 22
-9 35 -1 50 9 16 7 30 -11 68 -18 38 -33 53 -70 72 -26 13 -46 27 -43 30 5 10
-16 104 -27 118 -6 7 -5 14 2 18 5 3 10 15 10 26 0 16 7 19 40 19 22 0 40 -4
40 -10 0 -5 18 -10 40 -10 48 0 74 -23 89 -77 14 -50 14 -136 0 -167 -10 -20
-8 -33 11 -70 20 -43 71 -96 91 -96 8 0 41 -46 83 -114 10 -17 22 -32 27 -34
5 -2 9 -10 9 -18 0 -43 138 -137 166 -113 8 6 14 17 14 24 0 7 16 25 35 39 35
27 38 46 8 46 -9 0 -24 -7 -32 -14 -21 -19 -42 -6 -35 21 8 29 44 52 89 57 20
3 42 10 50 16 7 6 32 11 54 12 23 0 41 4 41 9 0 5 -6 9 -12 9 -7 0 0 11 16 25
21 18 36 23 55 19 54 -12 55 -13 37 -32 -20 -23 -21 -61 -1 -68 9 -4 29 -1 45
6 16 7 36 10 44 7 23 -9 7 -46 -28 -64 -41 -21 -41 -20 -26 -38 18 -21 132
-21 165 1 24 16 25 16 25 -9 0 -25 16 -45 27 -34 3 3 7 21 8 39 2 18 3 36 4
40 1 4 10 12 21 18 17 9 41 1 138 -46 123 -59 151 -71 166 -72 20 -1 26 -33
19 -107 l-6 -78 -166 8 c-184 9 -270 9 -278 2 -2 -3 7 -23 22 -45 29 -44 78
-82 138 -107 20 -8 37 -19 37 -23 0 -5 -27 -21 -60 -37 -65 -31 -120 -83 -120
-114 0 -11 -4 -21 -9 -23 -4 -1 -12 -14 -16 -26 -6 -21 -4 -23 22 -20 20 2 28
-1 28 -12 0 -19 27 -28 88 -29 34 -1 53 -7 69 -23 19 -19 22 -19 32 -6 10 14
14 14 31 2 11 -8 43 -14 76 -14 32 0 61 -5 64 -11 5 -7 42 -8 116 -3 l109 7 0
-34 c0 -33 2 -35 53 -47 29 -6 64 -12 79 -12 21 0 30 -8 45 -39 l18 -38 86 5
c82 4 87 3 94 -17 3 -11 10 -21 14 -21 5 0 11 -18 15 -40 l6 -40 60 0 60 0 0
396 0 396 -120 -4 c-66 -1 -120 -5 -120 -8 0 -10 -69 -10 -75 1 -5 6 -27 8
-61 3 l-54 -6 0 36 c0 20 -4 36 -9 36 -14 0 -23 37 -16 59 4 14 17 21 43 24
l37 4 -36 1 -36 2 3 67 c4 87 15 97 104 89 36 -4 92 -9 125 -13 33 -3 62 -9
63 -14 2 -5 37 -9 78 -9 l74 0 0 754 c0 702 -1 754 -17 760 -22 9 -51 -27 -58
-74 -11 -65 -37 -141 -48 -137 -5 1 -18 18 -28 37 -10 18 -23 38 -29 44 -23
23 -10 62 40 116 28 30 50 57 50 60 0 3 20 28 45 54 l45 49 0 861 c0 608 -3
865 -11 873 -8 8 -8 13 0 17 8 5 11 210 11 692 0 651 -1 684 -18 675 -9 -5
-24 -26 -31 -48 -24 -65 -64 -73 -87 -17 -13 31 -18 35 -42 29 -27 -6 -28 -5
-24 31 7 56 2 57 -161 36 -49 -7 -60 -5 -74 10 -9 10 -26 18 -39 18 -31 0 -40
18 -20 38 12 12 32 17 69 15 29 -1 57 2 62 7 6 4 24 10 40 14 17 4 44 18 62
32 36 27 191 68 235 62 l28 -5 0 264 0 263 -211 0 -211 0 6 -25 c6 -23 4 -24
-24 -18 -43 8 -83 -35 -78 -86 3 -35 2 -36 -35 -39 -25 -2 -46 3 -66 18 l-30
20 -20 -22 c-12 -12 -21 -32 -21 -44 0 -26 -34 -54 -67 -54 -12 0 -28 -7 -36
-15 -13 -12 -17 -12 -26 -1 -18 22 -44 8 -75 -40 -33 -53 -63 -57 -58 -9 2 17
6 57 9 90 6 75 41 121 115 159 29 14 64 35 78 46 l25 20 -329 0 c-301 0 -330
-1 -342 -17 -13 -17 -15 -17 -28 0 -11 14 -31 17 -135 17 -70 0 -121 -4 -121
-10 0 -13 -67 -43 -80 -35 -6 4 -17 1 -25 -5 -8 -7 -20 -10 -27 -7 -8 4 -4 8
10 13 14 4 22 13 20 23 -4 21 -115 27 -140 7z m1110 -545 c46 -15 93 -37 106
-48 13 -11 32 -25 42 -31 10 -6 13 -12 7 -12 -7 0 -13 -6 -13 -13 0 -8 -10
-13 -22 -13 -17 1 -24 -5 -26 -24 -2 -14 -9 -31 -15 -39 -18 -21 -39 -83 -41
-118 -1 -42 -11 -49 -41 -33 -22 12 -27 11 -40 -6 -14 -18 -16 -17 -54 26 -22
25 -40 48 -41 53 -1 19 -22 4 -35 -25 -7 -18 -16 -32 -19 -30 -20 8 -26 -4
-26 -49 0 -68 -42 -140 -80 -137 -14 1 -31 -2 -39 -6 -20 -13 -41 20 -41 66 0
31 -4 38 -20 38 -11 0 -27 -12 -37 -27 -9 -16 -27 -38 -40 -51 -19 -19 -21
-27 -12 -49 5 -14 8 -26 7 -27 -2 -1 -18 -7 -36 -13 l-33 -12 3 37 c3 36 2 37
-28 34 -22 -2 -33 2 -38 14 -8 21 29 64 55 64 30 0 59 48 59 96 0 66 32 126
83 154 41 23 75 50 175 137 58 51 98 73 132 73 14 0 62 -13 108 -29z m-401
-799 c8 -5 9 -13 3 -22 -15 -23 -12 -27 23 -35 l32 -7 -30 -13 c-16 -8 -49
-13 -73 -13 -25 0 -50 -6 -60 -15 -9 -8 -30 -19 -46 -23 -28 -7 -29 -6 -22 20
18 73 124 139 173 108z m-10633 -297 c61 -31 86 -53 86 -76 0 -10 9 -19 23
-22 13 -2 10 -3 -7 -2 -21 1 -30 -3 -34 -18 -4 -17 -7 -18 -16 -5 -18 24 -105
59 -132 52 -18 -5 -24 -2 -24 9 0 18 39 87 48 87 4 0 29 -11 56 -25z m-10
-224 c47 -47 48 -49 27 -60 -23 -13 -28 -31 -9 -31 7 0 26 -15 43 -34 16 -19
51 -45 76 -58 25 -13 43 -30 41 -36 -5 -16 -17 -15 -62 7 -34 16 -42 17 -57 5
-10 -7 -28 -14 -40 -14 -12 0 -35 -11 -51 -25 -31 -26 -52 -32 -52 -16 0 5 6
12 13 14 7 4 3 8 -10 12 -20 6 -23 14 -23 60 0 34 5 57 15 65 12 10 12 14 0
26 -15 16 -11 99 7 122 17 20 32 14 82 -37z m-194 -324 l0 -44 -57 -2 c-38 -1
-68 -8 -92 -22 -43 -25 -186 -77 -221 -79 -53 -4 -55 2 -13 59 2 2 14 -2 28
-9 24 -13 28 -12 53 13 14 15 21 27 14 27 -23 0 -12 26 16 37 15 7 39 22 53
33 35 29 100 37 122 15 16 -15 17 -15 17 3 0 26 49 45 67 26 7 -7 13 -33 13
-57z m10887 12 c8 -8 17 -8 31 0 44 23 54 5 28 -52 -7 -18 -19 -47 -26 -65 -7
-18 -21 -37 -31 -43 -11 -5 -19 -16 -19 -23 0 -7 -13 -29 -28 -48 -27 -35 -29
-35 -97 -34 -65 1 -70 3 -73 25 -8 54 4 68 70 80 68 12 86 29 79 74 -1 4 6 21
14 37 10 18 11 31 5 35 -6 4 -8 11 -5 16 8 12 39 11 52 -2z m-10933 -256 c4
-5 27 -8 51 -8 34 0 53 -8 82 -31 34 -28 37 -34 34 -75 -1 -24 -9 -51 -17 -60
-8 -9 -16 -26 -17 -38 -2 -25 -13 -26 -52 0 -49 31 -57 33 -77 20 -18 -11 -19
-10 -12 25 6 34 5 37 -15 31 -11 -3 -21 -4 -21 -3 0 10 54 102 64 108 6 4 -4
8 -21 8 -23 0 -33 5 -33 15 0 16 21 20 34 8z m10764 -71 c5 -17 -53 -72 -76
-72 -15 0 -22 -10 -29 -37 -7 -33 -13 -38 -41 -41 -26 -3 -31 -7 -29 -25 1
-17 -8 -27 -42 -44 -26 -13 -54 -20 -66 -17 -13 3 -44 -2 -69 -10 -26 -9 -53
-16 -61 -16 -25 0 -16 24 15 42 38 21 38 37 1 72 -25 24 -35 27 -65 22 -32 -6
-37 -4 -45 16 -12 32 3 44 32 25 14 -9 29 -12 37 -7 19 11 36 3 109 -51 l63
-48 34 22 c27 17 33 27 28 42 -12 38 -16 85 -8 85 5 0 24 -4 42 -9 30 -9 36
-7 59 20 37 41 101 59 111 31z m367 -101 c-6 -20 3 -24 88 -37 27 -3 51 -13
54 -21 8 -21 -3 -27 -26 -11 -27 19 -158 7 -245 -22 -36 -12 -78 -20 -93 -18
-25 3 -19 8 47 40 41 20 88 48 104 62 35 32 81 36 71 7z m-1633 -49 c3 -66 7
-270 7 -292 0 -8 -1 -39 -2 -69 -1 -30 3 -56 8 -58 6 -2 33 17 59 42 49 45 69
53 95 36 15 -10 7 -81 -9 -81 -5 0 -12 -11 -16 -25 -4 -17 -28 -40 -67 -66
l-61 -41 -17 21 c-20 25 -69 29 -69 6 0 -8 -8 -15 -18 -15 -21 0 -142 97 -142
115 0 6 8 19 19 29 21 19 37 15 95 -23 38 -25 38 -25 53 -6 10 14 13 33 8 65
-3 25 -5 120 -5 213 1 112 -2 167 -9 167 -6 0 -11 8 -11 18 0 14 9 18 40 19
l40 2 2 -57z m560 18 c14 -10 31 -33 38 -50 7 -16 17 -30 22 -30 5 0 27 -18
49 -40 22 -22 46 -40 54 -40 8 0 35 -7 61 -16 41 -14 50 -14 85 0 37 15 39 15
49 -4 6 -12 21 -20 35 -20 13 0 26 -4 29 -9 6 -10 -27 -34 -61 -45 -21 -7 -22
-5 -17 23 l6 31 -55 -19 c-90 -31 -100 -39 -93 -71 4 -24 0 -33 -30 -55 -20
-15 -50 -28 -67 -29 -27 -1 -32 3 -37 29 -4 23 -11 30 -27 30 -12 0 -28 9 -36
19 -14 19 -16 19 -32 3 -19 -19 -27 -16 -72 27 -34 32 -40 57 -23 100 11 31
-8 36 -34 10 -9 -8 -16 -11 -16 -6 0 5 -9 12 -20 15 -11 3 -20 12 -20 20 0 26
63 96 87 96 12 1 35 12 50 26 34 30 43 30 75 5z m-7574 -176 c-1 -56 -5 -104
-8 -107 -3 -2 -33 -7 -67 -10 l-63 -6 0 109 0 109 33 4 c17 2 49 4 70 4 l39 0
-4 -103z m8552 51 c0 -14 -4 -25 -10 -25 -5 0 -10 5 -10 10 0 22 -22 8 -36
-22 -8 -18 -26 -51 -39 -73 -15 -25 -22 -48 -19 -65 4 -18 -1 -31 -15 -44 -31
-28 -40 -12 -43 81 -3 81 -2 82 31 117 32 33 52 41 114 45 23 1 27 -3 27 -24z
m-8767 -93 c-7 -105 -12 -112 -94 -112 -45 0 -44 -4 -11 81 18 48 92 140 104
130 3 -3 4 -48 1 -99z m-16 -212 c-3 -39 -9 -75 -12 -80 -4 -7 -24 -8 -50 -5
-35 6 -45 4 -54 -12 -8 -14 -10 -4 -11 47 0 111 2 113 89 117 l44 2 -6 -69z
m8682 28 c1 -62 0 -73 -9 -82 -6 -6 -10 -24 -10 -40 0 -24 -3 -27 -10 -16 -7
11 -10 11 -10 2 0 -7 -9 -22 -19 -33 -16 -17 -23 -19 -40 -10 -13 8 -21 8 -21
2 0 -15 -27 -2 -34 16 -4 9 -3 37 0 63 l6 48 34 -5 c38 -6 74 17 74 47 0 35
38 43 39 8z m-10868 -70 c13 -18 27 -34 31 -36 10 -5 10 -29 1 -34 -12 -5 -53
-85 -53 -101 0 -11 -12 -13 -52 -9 -29 2 -59 9 -66 15 -16 13 -11 109 7 131
16 19 3 49 -18 40 -70 -29 -67 -1 4 38 l49 26 37 -19 c21 -10 48 -33 60 -51z
m11419 -8 c0 -5 8 -17 18 -27 23 -22 52 -94 52 -128 0 -46 -69 -62 -88 -20
-13 27 -16 125 -6 163 6 22 24 31 24 12z m-200 -50 c0 -17 -8 -20 -47 -22 -84
-3 -97 -5 -130 -12 -50 -11 -125 -51 -153 -81 -29 -31 -84 -59 -102 -52 -7 3
-3 6 9 6 16 1 26 13 39 49 10 26 24 53 31 60 7 7 20 26 30 42 9 17 21 30 26
30 4 0 6 -4 3 -9 -3 -4 1 -16 8 -27 17 -22 85 -21 125 2 14 8 49 23 76 33 55
21 85 14 85 -19z m-11644 -51 c2 -23 12 -51 21 -62 17 -18 17 -19 -1 -33 -16
-11 -22 -11 -34 -1 -8 6 -29 13 -46 13 -17 1 -39 5 -48 9 -15 6 -17 1 -16 -29
2 -47 -11 -59 -64 -59 -32 0 -48 -5 -65 -23 -12 -13 -34 -24 -48 -24 -38 0
-33 38 10 75 27 23 37 41 43 75 7 36 12 44 27 42 24 -5 105 17 125 33 29 24
75 43 83 35 5 -4 11 -27 13 -51z m118 6 c11 -8 28 -15 38 -15 26 0 40 -41 20
-56 -9 -7 -13 -19 -9 -33 3 -14 -2 -30 -16 -45 -20 -21 -31 -23 -78 -17 -14 2
-16 39 -3 62 20 37 17 65 -11 87 -14 11 -25 23 -25 26 0 12 66 5 84 -9z
m10683 9 c28 -8 38 -54 12 -54 -18 0 -52 -45 -77 -103 -7 -16 -21 -31 -32 -34
-17 -5 -19 -11 -14 -47 3 -22 8 -48 10 -56 3 -8 -7 0 -21 18 -20 24 -34 32
-60 32 -18 0 -37 6 -43 13 -16 18 8 61 36 65 12 2 22 8 22 13 0 14 38 11 43
-3 3 -7 10 -1 16 15 17 45 60 133 68 140 8 8 12 8 40 1z m841 -26 c29 -29 -2
-117 -41 -119 -17 0 -14 -3 12 -13 59 -21 50 -36 -23 -36 -35 0 -75 -4 -88 -8
-13 -5 -44 -7 -70 -4 -38 3 -48 8 -48 22 0 11 4 21 9 24 4 3 11 23 15 43 6 34
12 41 64 65 77 37 148 48 170 26z m-9100 -43 c-3 -30 -3 -30 55 -33 42 -2 62
1 73 12 11 11 35 16 84 16 61 0 69 -2 75 -21 8 -23 -7 -39 -37 -39 -10 0 -23
-9 -30 -20 -7 -11 -18 -20 -24 -20 -7 0 -10 8 -7 20 4 15 0 20 -14 20 -24 0
-48 -26 -57 -61 -3 -15 -13 -30 -22 -33 -14 -5 -16 -1 -11 27 5 31 3 35 -26
44 -42 13 -54 8 -73 -32 -22 -46 -45 -55 -37 -13 l6 31 -42 -7 c-23 -3 -50
-12 -61 -18 -14 -9 -25 -9 -46 1 -19 8 -30 9 -38 1 -11 -11 -56 -14 -56 -2 0
14 119 62 155 62 53 0 72 14 80 59 5 33 10 39 31 37 21 -1 25 -5 22 -31z
m7304 6 l16 -29 39 19 c32 16 49 18 93 12 70 -10 80 -27 51 -84 -23 -45 -26
-47 -144 -86 -13 -4 -20 0 -24 15 -3 12 -16 28 -30 37 -23 15 -26 15 -43 0
-15 -14 -25 -15 -59 -5 -23 6 -46 8 -51 5 -6 -4 -22 2 -38 13 -15 11 -40 24
-57 29 -33 10 -45 42 -23 61 10 7 31 6 78 -4 81 -19 128 -12 140 22 13 32 31
30 52 -5z m-9537 -91 c3 -6 -1 -17 -9 -26 -9 -8 -16 -18 -16 -20 0 -8 44 8 51
18 8 12 119 23 119 12 0 -15 -20 -41 -20 -26 0 14 -28 16 -48 3 -12 -7 -11
-13 1 -38 15 -28 14 -30 -17 -67 l-32 -39 -17 36 c-11 23 -25 37 -40 39 -19 3
-22 8 -20 46 3 56 30 91 48 62z m11194 -87 c-8 -10 -17 -20 -21 -23 -4 -3 -5
-15 -2 -27 6 -23 65 -43 126 -43 35 0 58 -15 58 -36 0 -8 -15 -8 -57 2 -49 12
-204 18 -278 11 -26 -3 -35 17 -9 21 55 8 104 26 104 38 0 8 5 14 10 14 6 0
10 8 10 18 0 25 20 42 48 42 22 0 23 -2 11 -17z m105 -161 c3 -5 -8 -20 -23
-35 -28 -26 -44 -58 -55 -110 -4 -16 -17 -32 -32 -39 -24 -11 -26 -16 -20 -59
5 -36 3 -50 -8 -56 -8 -4 -16 -21 -18 -38 -2 -22 -8 -30 -24 -31 -11 -1 -30
-9 -42 -19 -21 -19 -21 -19 -1 -33 17 -12 18 -16 7 -31 -7 -9 -22 -33 -32 -53
-22 -43 -41 -49 -50 -15 -10 39 -7 60 15 83 12 13 23 39 25 58 4 42 48 142 79
176 12 14 26 42 29 63 4 20 20 53 36 71 17 19 30 38 30 43 0 26 70 47 84 25z
m-1144 -283 c12 -33 28 -105 35 -160 7 -54 17 -105 22 -111 15 -18 22 -102 11
-122 -8 -15 -12 -15 -37 4 -63 44 -121 49 -121 9 0 -50 -63 -24 -75 31 -8 36
-29 53 -54 45 -30 -9 -61 12 -61 40 0 14 -9 30 -20 37 -11 7 -20 18 -20 23 0
6 -5 16 -12 23 -15 15 -38 -3 -38 -29 0 -31 -18 -30 -34 2 -25 49 -21 86 9 93
35 9 225 6 244 -4 43 -23 99 -38 111 -30 11 7 10 13 -4 34 -15 23 -24 57 -43
149 -5 25 -3 27 30 27 33 0 35 -2 57 -61z m-6666 -38 c13 -20 -36 -39 -145
-55 -146 -22 -333 -26 -374 -8 -28 12 -28 14 -11 24 10 6 95 14 190 19 94 5
189 13 211 18 54 12 123 13 129 2z m754 -117 c34 -23 28 -52 -14 -70 -34 -14
-35 -16 -18 -29 18 -13 18 -15 -11 -45 -26 -27 -28 -33 -17 -51 16 -25 8 -39
-17 -32 -12 3 -23 -2 -30 -15 -14 -27 -66 -19 -57 9 3 11 9 28 12 39 5 14 2
20 -9 20 -9 0 -18 -4 -21 -9 -3 -4 -28 -11 -56 -13 -53 -5 -86 -27 -101 -66
-5 -13 -13 -20 -19 -17 -5 3 -15 3 -21 -1 -8 -4 -7 -9 2 -15 11 -7 11 -9 -1
-9 -9 0 -22 -9 -30 -20 -14 -20 -57 -29 -45 -10 9 14 -8 13 -23 -2 -24 -24
-13 11 12 39 14 16 35 41 48 56 13 16 34 29 48 31 33 4 152 75 201 121 21 19
42 35 47 35 4 0 23 16 42 35 38 39 46 41 78 19z m-758 -55 c21 -39 -3 -50
-104 -50 -198 0 -231 2 -246 17 -25 25 3 36 112 44 197 14 226 12 238 -11z
m-690 -49 c8 -5 11 -12 8 -16 -4 -3 -67 -13 -140 -20 -73 -8 -162 -24 -196
-36 -54 -18 -69 -19 -96 -10 -18 7 -46 12 -64 12 -28 0 -51 15 -39 26 7 7 212
35 322 43 148 11 188 12 205 1z m134 -105 c42 -9 90 -12 121 -9 41 5 53 3 65
-11 13 -15 12 -19 -9 -36 -15 -12 -40 -19 -70 -20 -25 0 -111 -5 -191 -10 -80
-5 -173 -9 -206 -9 -34 1 -117 -6 -185 -14 -68 -8 -230 -18 -359 -22 -418 -12
-483 -14 -609 -24 -69 -6 -127 -7 -130 -4 -15 15 44 44 89 44 31 0 79 12 132
33 71 27 95 32 168 32 70 -1 95 -5 141 -27 36 -16 61 -22 71 -17 8 4 95 7 193
6 127 -1 186 2 203 10 13 7 36 13 51 13 15 0 35 6 46 14 11 7 52 28 90 45 70
32 71 32 195 27 69 -3 156 -13 194 -21z m6016 -56 c29 -6 50 -16 50 -24 0 -7
7 -15 15 -19 8 -3 15 -12 15 -19 0 -12 -15 -12 -96 -1 -108 15 -171 30 -179
44 -17 28 99 40 195 19z m1315 5 c17 -7 95 -116 95 -134 0 -6 7 -13 15 -16 8
-4 15 -10 15 -15 0 -4 18 -34 39 -66 30 -44 41 -71 46 -113 l6 -55 -26 47
c-17 32 -34 50 -51 54 -16 4 -32 21 -46 48 -24 47 -34 56 -65 56 -12 0 -34 5
-48 12 -23 10 -25 16 -23 62 l3 51 -35 6 c-19 4 -26 7 -16 8 24 1 56 29 56 48
0 14 10 16 35 7z m1136 -31 c3 -34 -2 -128 -7 -145 -3 -10 -16 -21 -30 -24
-27 -7 -31 -19 -9 -28 8 -3 15 -10 15 -16 0 -6 -4 -9 -9 -5 -5 3 -13 1 -16 -5
-4 -6 -14 -10 -23 -8 -20 3 -76 -51 -80 -78 -5 -25 -18 -38 -31 -30 -16 10
-25 97 -12 118 6 10 11 28 11 41 0 55 67 144 134 177 50 24 56 25 57 3z
m-7008 -82 c36 -15 52 -17 88 -9 58 12 67 12 114 -3 45 -14 142 -17 166 -6 10
5 22 2 32 -8 20 -19 80 -45 105 -45 11 0 25 -6 31 -13 11 -14 -5 -12 -112 10
-15 3 -34 0 -42 -7 -12 -10 -15 -9 -15 4 0 16 -15 21 -60 17 -14 -1 -55 5 -90
13 -38 9 -70 12 -79 6 -9 -4 -36 -6 -61 -4 -68 7 -68 7 -175 -1 -55 -4 -133
-13 -173 -22 -40 -8 -78 -13 -85 -10 -8 3 -35 -6 -62 -19 -29 -15 -62 -24 -84
-23 -35 2 -144 -45 -213 -93 -14 -10 -37 -18 -51 -18 -48 0 -172 -97 -228
-177 -27 -39 -69 -59 -69 -33 0 6 4 10 9 10 10 0 71 85 71 99 0 4 9 16 20 26
11 10 20 26 20 37 0 15 -8 18 -62 18 -35 0 -70 5 -78 10 -30 19 7 31 113 37
94 5 107 4 107 -10 0 -9 -8 -21 -17 -26 -16 -9 -16 -10 -2 -11 9 0 28 9 42 20
14 11 29 20 34 20 4 0 34 16 66 35 32 19 70 38 85 41 15 4 38 15 52 24 14 9
44 20 67 23 23 3 57 13 75 22 41 22 104 34 234 44 58 5 113 15 130 24 38 21
44 21 97 -2z m3053 -87 c18 -5 22 -15 27 -65 3 -32 15 -79 27 -104 17 -36 20
-49 10 -60 -14 -17 -6 -33 25 -45 21 -8 23 -16 27 -117 3 -59 3 -111 1 -115
-2 -5 -51 -8 -108 -8 -124 0 -117 -8 -113 145 3 98 3 100 28 103 63 6 90 14
90 24 0 7 -14 8 -37 5 -21 -4 -48 -4 -60 -1 -22 6 -23 11 -23 119 0 110 1 114
23 118 35 7 60 7 83 1z m-4510 -49 c8 -56 19 -64 33 -25 14 41 27 38 27 -7 0
-21 2 -72 4 -113 l5 -75 -100 0 c-84 0 -99 2 -96 15 2 8 8 62 13 120 4 58 10
111 13 118 2 7 22 12 49 12 l45 0 7 -45z m-520 14 c6 -5 14 -6 18 -2 3 4 6
-50 5 -120 0 -79 -5 -129 -12 -134 -16 -10 -151 -15 -163 -6 -8 6 -9 44 -2
133 4 69 10 131 13 137 5 14 121 7 141 -8z m4858 -1 c3 -13 6 -65 6 -115 0
-104 2 -101 -76 -82 l-44 11 0 67 c0 76 5 85 43 95 18 4 27 13 27 26 0 28 36
26 44 -2z m-5053 -33 c10 -47 10 -223 0 -229 -17 -11 -192 6 -188 18 2 6 26
12 54 14 48 3 51 5 55 32 3 18 0 30 -6 30 -8 0 -8 3 0 8 6 4 14 35 18 70 9 82
14 94 40 90 14 -2 23 -13 27 -33z m-391 -5 c3 -3 18 -16 34 -28 16 -12 25 -22
20 -22 -5 0 -2 -4 5 -9 11 -7 15 -32 17 -89 2 -92 4 -90 -98 -84 l-57 4 3 117
c1 65 6 123 10 129 5 8 14 8 34 -1 15 -6 29 -14 32 -17z m8221 -3 c4 -5 22 -7
40 -4 37 5 69 -7 69 -26 0 -7 27 -25 60 -40 70 -33 154 -119 171 -175 6 -20
13 -71 16 -113 6 -83 -4 -104 -36 -75 -10 9 -29 16 -43 16 -20 0 -32 10 -52
45 -15 24 -29 58 -33 75 -8 40 -26 47 -69 26 -52 -24 -62 -21 -62 21 0 26 -6
41 -23 54 -13 10 -20 21 -16 25 11 11 -29 35 -47 28 -11 -4 -16 -19 -16 -51 0
-53 -15 -54 -43 -2 -37 67 -80 98 -93 66 -7 -20 -33 -16 -40 5 -10 34 4 65 33
72 36 9 93 38 93 49 0 24 76 28 91 4z m-346 -13 c6 -9 32 -46 59 -83 36 -48
50 -78 54 -110 4 -32 2 -42 -7 -37 -23 15 -39 -12 -34 -59 3 -24 3 -55 -1 -70
-6 -22 -9 -24 -26 -15 -28 15 -40 4 -33 -30 4 -21 2 -30 -8 -31 -26 -2 -44 3
-60 17 -13 12 -19 11 -39 -3 -23 -16 -24 -16 -52 17 -15 19 -28 42 -28 51 0
32 -34 78 -55 76 -17 -2 -20 5 -23 46 -3 46 -5 48 -30 45 -21 -2 -28 -11 -36
-38 -12 -46 -13 -46 -36 -25 -35 31 -52 13 -48 -53 l3 -57 -31 -3 c-28 -3 -33
-8 -38 -38 -9 -44 -34 -44 -61 -1 -27 42 -51 46 -67 10 -7 -15 -21 -34 -30
-41 -11 -8 -18 -26 -18 -48 0 -33 -6 -38 -42 -35 -10 1 -20 -10 -28 -34 -6
-19 -15 -35 -20 -35 -16 0 -40 44 -47 83 -8 52 -28 41 -25 -14 2 -24 5 -51 8
-61 3 -9 0 -19 -5 -23 -12 -7 -17 15 -25 93 -5 47 -3 52 14 52 13 0 20 7 20
20 0 14 -7 20 -21 20 -17 0 -20 4 -15 23 3 12 6 28 6 35 0 6 5 11 11 10 7 -2
17 20 23 47 7 28 21 64 31 80 26 42 94 102 130 115 17 7 45 18 63 26 18 8 40
14 48 14 8 0 40 12 70 26 39 18 69 25 102 24 121 -5 175 0 206 20 25 17 41 20
81 16 31 -3 54 -12 60 -22z m-3312 -11 c4 -2 7 -15 7 -28 0 -23 2 -24 27 -14
30 11 93 4 93 -11 0 -22 -15 -41 -46 -61 -32 -20 -36 -20 -59 -5 -19 12 -30
14 -44 6 -29 -15 -116 -13 -130 4 -6 8 -14 37 -18 64 -5 50 -5 51 23 55 31 5
134 -2 147 -10z m-412 -46 c47 -32 91 -101 97 -153 l5 -44 -75 0 -75 0 -7 100
c-9 130 -5 137 55 97z m-99 -4 c8 -34 -5 -188 -16 -195 -6 -4 -39 -8 -72 -8
-53 0 -62 3 -67 20 -10 37 17 93 69 147 54 55 80 66 86 36z m1401 -167 c4 -26
7 -80 5 -120 l-3 -71 -54 -3 c-93 -5 -101 0 -100 61 2 90 13 162 26 160 6 -2
24 4 40 12 15 9 39 14 53 13 21 -3 26 -10 33 -52z m-7433 -13 c0 -95 -5 -103
-58 -103 -28 0 -52 -6 -64 -16 -14 -13 -21 -14 -32 -5 -13 11 -13 17 4 48 33
62 87 115 110 108 14 -5 20 -2 20 9 0 9 5 16 10 16 6 0 10 -26 10 -57z m3117
31 c20 -6 21 -10 19 -137 l-2 -132 -82 -9 c-92 -9 -120 0 -102 34 13 24 13 91
0 124 -7 19 -5 37 7 70 l17 45 55 4 c31 2 58 4 61 5 3 1 15 -1 27 -4z m-539
-143 c2 -84 -1 -128 -9 -137 -9 -11 -32 -14 -93 -12 -80 3 -81 3 -79 28 2 14
6 73 9 132 l7 107 31 4 c17 2 54 4 81 3 l50 -1 3 -124z m-215 102 c3 -10 4
-70 3 -133 l-1 -115 -60 -3 c-91 -5 -125 4 -125 32 0 13 7 29 15 36 8 7 15 18
15 24 0 6 9 28 20 49 11 20 20 55 20 76 0 43 7 48 72 50 27 1 38 -4 41 -16z
m-298 -35 c4 -29 1 -59 -10 -92 -11 -31 -15 -63 -11 -87 7 -46 0 -49 -101 -49
l-75 0 6 38 c3 20 8 78 12 127 3 50 11 93 18 97 6 4 43 8 83 8 l72 0 6 -42z
m9292 10 c4 -7 6 -22 5 -34 -4 -26 16 -43 82 -71 l51 -22 -40 0 c-22 -1 -60 5
-85 13 -49 14 -70 12 -70 -9 0 -7 -8 -23 -18 -35 -17 -21 -19 -21 -35 -5 -9 9
-17 25 -17 36 0 22 42 69 61 69 7 0 9 9 6 21 -3 11 -3 27 0 35 6 17 49 18 60
2z m-5329 -134 l3 -111 -45 -5 c-53 -6 -98 1 -90 13 3 5 1 9 -4 9 -5 0 -6 15
-3 33 4 31 5 31 12 7 5 -19 7 -20 8 -6 1 11 -5 27 -13 35 -8 9 -16 41 -18 71
-3 53 -2 55 27 61 17 4 50 6 75 6 l45 -2 3 -111z m199 10 c-3 -59 -8 -109 -11
-111 -3 -3 -34 -7 -69 -9 l-65 -4 -4 107 c-3 60 -3 111 -1 116 2 4 38 7 80 7
l76 0 -6 -106z m1511 -56 c8 -8 12 -50 12 -124 0 -161 13 -154 -279 -153 -209
1 -227 3 -244 20 -10 11 -22 17 -26 14 -10 -6 -22 46 -14 58 3 5 15 6 28 3 20
-5 23 -1 28 42 3 26 15 68 26 95 l20 47 76 0 75 0 0 -109 c0 -140 8 -162 44
-126 12 12 15 39 15 122 0 77 4 108 13 114 21 14 212 11 226 -3z m-5169 -176
c-1 -126 6 -166 30 -157 9 4 37 9 64 12 44 5 47 8 47 34 0 15 5 31 10 34 6 3
10 46 10 96 0 72 3 89 15 89 12 0 15 -17 15 -95 0 -86 2 -95 21 -106 20 -10
62 -8 117 7 16 5 22 2 22 -10 0 -19 19 -20 41 -3 12 9 15 34 16 112 l2 100 78
0 78 0 -4 -89 -3 -89 53 7 c30 4 62 14 71 23 20 18 48 11 48 -11 0 -9 -9 -20
-20 -26 -31 -17 -43 -58 -29 -94 12 -26 11 -31 -9 -44 -29 -19 -28 -28 3 -36
28 -7 35 -45 11 -65 -10 -8 -20 -5 -42 16 l-28 26 -13 -31 c-10 -24 -19 -32
-39 -32 -14 0 -42 -11 -62 -25 -65 -44 -79 -29 -37 40 33 54 32 66 -5 59 -19
-4 -30 -2 -30 5 0 6 9 11 19 11 28 0 51 10 51 23 0 15 -123 1 -161 -19 -30
-15 -33 -15 -63 7 -35 26 -59 27 -82 5 -8 -9 -26 -16 -39 -16 -13 0 -31 -9
-39 -21 -17 -24 -36 -17 -36 13 0 19 -4 20 -52 14 -29 -4 -67 -15 -84 -25 -30
-18 -31 -18 -40 3 -9 20 -16 21 -181 22 -95 0 -175 3 -179 6 -3 4 -18 2 -32
-3 -20 -8 -29 -7 -37 4 -8 11 -16 12 -29 5 -10 -5 -27 -7 -38 -4 -13 3 -31 -3
-46 -15 -30 -23 -68 -25 -80 -2 -8 14 -12 12 -28 -13 -19 -31 -43 -54 -56 -54
-4 0 -6 17 -5 38 l2 37 -80 5 c-52 4 -87 2 -100 -6 -11 -6 -46 -14 -77 -17
-47 -5 -56 -3 -51 9 3 8 21 21 40 29 19 8 37 24 40 34 5 21 50 41 91 41 14 0
30 7 37 16 10 14 14 15 33 3 19 -12 29 -11 73 4 46 17 52 17 68 3 26 -24 41
-2 41 60 0 73 11 144 23 144 6 0 8 -38 6 -97 -3 -82 -2 -98 11 -98 12 0 15 17
15 95 l0 95 43 6 c23 3 44 3 47 1 3 -3 5 -58 5 -123 0 -138 4 -144 90 -133 39
5 50 10 50 25 0 15 11 19 60 25 l61 7 -2 98 c-1 55 -4 99 -8 99 -14 0 -41 -64
-41 -99 0 -20 -7 -46 -15 -57 -13 -17 -14 -11 -15 69 0 48 3 87 8 88 4 0 23 3
42 6 19 3 46 6 60 7 l25 1 1 -105 c1 -99 8 -150 23 -150 26 1 32 23 34 136 l2
119 75 5 c41 3 78 4 83 2 4 -2 7 -52 6 -110z m677 103 c10 -8 33 -15 50 -15
16 0 35 -5 41 -11 17 -17 75 -22 84 -7 7 10 9 9 9 -4 0 -26 -11 -48 -21 -42
-5 3 -9 0 -9 -5 0 -6 4 -11 9 -11 11 0 27 -108 17 -117 -3 -4 -12 -1 -18 5 -7
7 -26 12 -44 12 -17 0 -37 7 -44 15 -11 13 -8 21 15 45 16 17 36 30 44 31 11
0 9 4 -6 11 -13 6 -23 15 -23 20 0 4 -9 8 -21 8 -18 0 -20 -4 -15 -25 4 -14 5
-25 3 -25 -16 0 -76 26 -92 40 -11 10 -29 20 -39 22 -28 5 -30 24 -7 47 25 25
40 26 67 6z m6740 -19 c75 -36 159 -151 149 -204 -3 -20 2 -38 15 -55 24 -30
54 -97 43 -97 -3 0 -15 7 -25 17 -17 15 -18 15 -18 -3 -1 -24 -33 -64 -52 -64
-9 0 -18 -17 -24 -47 -9 -47 -34 -72 -34 -34 0 24 -4 25 -32 10 -18 -9 -24 -8
-35 7 -7 10 -13 29 -13 43 0 14 -11 39 -24 55 l-23 30 -12 -22 c-17 -31 -45
-29 -37 2 8 33 -7 71 -29 71 -12 0 -24 16 -38 53 l-20 52 21 43 c11 23 27 59
36 79 13 31 73 85 97 87 3 1 28 -10 55 -23z m1370 9 c10 -25 -4 -60 -37 -94
-27 -29 -35 -32 -70 -26 -31 5 -39 4 -39 -9 0 -20 -19 -31 -33 -17 -15 15 -53
14 -87 -4 -38 -20 -38 -8 -1 28 17 16 50 34 78 41 37 9 51 19 63 41 27 53 30
55 76 55 30 0 46 -5 50 -15z m-4701 -260 c66 -1 145 -7 175 -14 40 -9 92 -11
180 -7 69 4 175 6 235 5 61 0 278 -2 482 -3 301 -1 374 -4 378 -14 3 -8 2 -18
-1 -24 -7 -11 -1598 -5 -1626 7 -11 4 -16 17 -15 37 2 29 3 29 37 22 19 -4 89
-8 155 -9z m-6013 -56 c19 -10 19 -12 -11 -30 -17 -10 -31 -23 -31 -29 0 -13
17 -13 25 0 3 6 15 10 25 10 11 0 25 6 32 13 9 10 23 11 53 6 22 -5 68 -8 102
-9 74 0 93 -6 93 -31 0 -26 -52 -33 -189 -24 -131 8 -111 8 -326 8 -157 0
-251 2 -309 5 -22 2 -27 5 -19 13 7 7 49 12 95 14 82 1 178 22 178 37 0 4 39
8 88 8 83 -1 85 -2 57 -15 l-30 -14 35 2 c19 1 33 6 30 10 -5 9 44 35 68 36 7
1 23 -4 34 -10z m2791 -36 c23 -7 22 -30 -3 -43 -11 -6 -20 -20 -20 -30 0 -11
9 -25 20 -32 26 -17 27 -42 0 -35 -10 3 -25 -2 -32 -10 -8 -9 -22 -13 -40 -9
-20 4 -31 0 -42 -15 -11 -17 -20 -20 -46 -14 -32 7 -32 7 -29 -32 2 -21 -2
-47 -9 -58 -12 -20 -12 -20 -32 5 l-20 25 -17 -22 c-15 -18 -25 -21 -57 -17
-31 4 -42 1 -53 -16 -8 -11 -22 -20 -32 -20 -9 0 -22 -5 -29 -12 -20 -20 -40
7 -24 32 6 11 12 31 12 44 0 20 -4 23 -22 19 -13 -3 -31 -13 -40 -21 -17 -14
-18 -13 -18 11 0 56 119 105 210 86 51 -11 52 -10 81 19 17 17 43 33 59 37 16
3 34 13 41 22 7 8 23 19 36 24 28 11 30 29 3 29 -11 0 -20 4 -20 9 0 12 72 40
90 34 8 -3 23 -8 33 -10z m2932 -15 c7 -6 5 -13 -5 -21 -8 -7 -61 -64 -116
-127 -56 -63 -124 -140 -153 -170 -28 -30 -54 -65 -57 -77 -6 -21 -12 -23 -75
-23 -59 0 -69 2 -69 18 1 24 20 46 55 64 28 15 160 144 301 295 49 53 62 62
83 56 15 -3 31 -10 36 -15z m849 -432 c-3 -9 -10 -16 -14 -16 -4 0 -36 -27
-71 -61 -72 -68 -183 -144 -241 -165 -38 -13 -39 -13 -50 12 -9 19 -9 47 1
116 17 122 24 131 81 123 84 -12 262 -11 279 2 19 14 23 11 15 -11z m2991 -10
c6 -6 46 -39 90 -71 90 -67 114 -92 115 -117 0 -9 4 -27 10 -40 5 -13 14 -63
18 -112 7 -70 5 -104 -8 -160 -9 -38 -22 -72 -29 -74 -23 -8 -61 39 -61 75 0
34 -29 60 -38 34 -8 -25 -46 -51 -74 -51 -42 0 -54 33 -42 115 6 36 7 70 4 75
-8 13 -77 5 -96 -11 -23 -19 -35 -1 -28 43 6 34 4 44 -12 55 -18 13 -18 15 -2
43 21 37 12 76 -22 93 -41 21 -40 94 2 112 31 13 160 7 173 -9z m-8418 -51
c200 -28 254 -38 261 -49 24 -37 42 -229 23 -240 -14 -9 -70 15 -170 74 -51
30 -104 61 -117 68 -14 8 -34 28 -46 46 -11 17 -45 47 -74 65 -30 18 -54 37
-54 42 0 13 55 11 177 -6z m8121 -183 c2 -12 7 -20 12 -17 14 9 40 -37 40 -72
0 -32 31 -73 54 -73 6 0 24 -10 39 -23 20 -16 30 -34 33 -62 3 -22 6 -48 8
-57 4 -19 -9 -24 -19 -8 -3 6 -13 10 -21 10 -21 0 -18 -59 6 -111 34 -75 22
-147 -17 -108 -7 7 -19 9 -28 5 -13 -5 -15 -14 -10 -50 7 -43 6 -43 -20 -41
-20 3 -28 -2 -35 -20 -15 -39 -27 -37 -65 12 -32 42 -35 52 -29 83 11 51 11
95 -1 98 -5 1 -11 -14 -13 -33 -2 -23 -9 -38 -20 -41 -9 -3 -26 -10 -36 -16
-28 -15 -48 16 -44 67 3 36 1 40 -23 43 -33 4 -56 60 -39 93 7 12 9 36 6 54
-5 27 -1 40 29 79 19 25 35 52 35 60 0 7 9 21 20 31 12 10 29 38 40 62 10 24
24 44 29 44 26 3 30 4 37 12 13 12 29 2 32 -21z"/>
<path d="M10645 7140 c-10 -11 -25 -20 -33 -20 -26 0 -111 -52 -118 -72 -11
-35 11 -43 50 -18 20 12 37 18 37 13 1 -4 2 -17 3 -28 1 -14 9 -21 29 -23 15
-2 27 1 27 7 0 6 8 11 19 11 10 0 33 16 52 36 19 20 42 43 52 52 26 25 21 42
-13 42 -16 0 -30 5 -30 10 0 18 -56 11 -75 -10z"/>
<path d="M10105 6999 c-12 -40 -44 -107 -54 -113 -5 -3 -15 2 -22 10 -12 15
-14 14 -20 -7 -4 -13 -7 -45 -8 -71 l-1 -48 -37 0 -38 -1 33 -30 c38 -34 36
-59 -5 -59 -40 0 -14 -21 28 -22 32 -1 33 -1 11 -16 -12 -8 -22 -20 -22 -28 0
-7 -10 -14 -22 -16 -33 -5 -37 -38 -4 -38 20 0 27 7 34 32 12 46 35 57 73 35
l31 -17 47 42 c25 24 51 51 56 62 6 11 38 38 72 60 56 38 80 62 69 73 -6 6
-88 -37 -101 -52 -19 -23 -70 -52 -83 -48 -11 4 -10 8 1 22 17 18 51 160 41
170 -3 3 -13 -5 -23 -18 -24 -34 -63 -72 -69 -66 -3 3 6 36 19 75 17 51 20 73
12 81 -8 8 -13 5 -18 -12z"/>
<path d="M557 6783 c-4 -3 1 -15 10 -26 10 -10 18 -33 18 -50 0 -27 6 -35 39
-52 46 -24 51 -34 33 -59 -12 -16 -18 -17 -46 -8 -43 15 -86 5 -102 -24 -15
-28 -9 -37 28 -38 25 -1 28 -4 25 -33 -2 -26 2 -33 15 -33 26 -1 52 -23 50
-44 -2 -14 8 -18 49 -22 40 -3 53 0 58 11 3 8 17 15 30 15 33 0 67 47 45 61
-8 5 -33 9 -55 9 -27 0 -50 7 -65 20 l-24 19 30 25 c17 14 40 25 51 26 23 0
48 -22 37 -33 -3 -4 -1 -7 5 -7 7 0 12 7 12 15 0 8 4 15 10 15 5 0 9 14 7 32
-2 22 -10 36 -29 47 -15 9 -61 40 -102 69 -42 28 -81 52 -89 52 -7 0 -18 5
-23 10 -6 6 -13 7 -17 3z"/>
<path d="M8034 6669 c-14 -15 -18 -36 -18 -90 0 -49 -4 -69 -13 -69 -7 0 -18
-10 -24 -22 -10 -19 -9 -24 10 -36 28 -19 27 -25 -15 -72 -38 -41 -40 -56 -7
-46 42 13 82 113 71 181 -2 17 4 21 37 25 36 4 40 8 43 35 2 17 8 36 14 43 14
16 8 15 -32 -4 -40 -20 -57 -4 -33 32 26 40 0 59 -33 23z"/>
<path d="M3480 6455 c-12 -32 -54 -53 -73 -37 -20 17 -27 5 -27 -45 0 -24 -6
-59 -14 -77 -8 -20 -10 -39 -5 -47 13 -22 11 -96 -4 -102 -7 -2 -32 4 -55 15
-40 19 -44 19 -61 4 -10 -9 -26 -34 -36 -56 l-18 -40 -98 0 c-99 0 -127 -10
-89 -30 16 -8 30 -9 53 -1 30 11 46 3 47 -22 0 -4 12 -26 26 -48 29 -47 70
-67 150 -74 60 -5 74 -10 74 -27 0 -7 -14 -8 -42 -3 -24 5 -67 7 -96 6 -32 -1
-65 4 -87 15 -34 16 -34 16 -59 -13 l-25 -28 22 -3 c12 -2 36 -9 52 -16 88
-39 185 -59 185 -37 0 6 9 11 20 11 14 0 20 7 20 23 0 16 3 18 9 8 7 -10 13
-11 30 -2 11 7 21 16 21 21 0 6 25 10 55 10 64 0 117 -22 109 -45 -4 -8 -10
-15 -14 -15 -4 0 -10 -9 -13 -19 -3 -14 -22 -25 -61 -36 -31 -9 -56 -22 -56
-28 0 -7 35 -26 77 -43 69 -28 79 -30 89 -16 10 14 16 13 56 -6 24 -12 49 -22
55 -22 6 0 32 -16 57 -35 26 -19 49 -35 52 -35 3 0 19 -9 34 -20 47 -34 42 -7
-12 64 -46 62 -100 106 -194 160 -28 16 -33 23 -27 45 3 14 8 29 10 33 5 9 56
-15 90 -42 14 -11 32 -15 48 -12 30 5 28 23 -3 37 -12 5 -24 17 -27 26 -3 9
-26 30 -50 48 -28 20 -45 40 -45 52 0 29 -18 59 -35 59 -19 0 -19 -24 0 -40
18 -15 20 -47 3 -53 -7 -2 -26 3 -43 11 -38 20 -95 16 -118 -9 -28 -29 -37
-23 -37 26 0 76 19 101 74 96 10 -1 30 6 44 15 16 10 35 14 55 10 16 -3 35 -2
41 3 6 5 20 11 31 13 l20 5 -20 8 c-29 12 -55 36 -49 46 3 5 0 9 -5 9 -6 0
-11 5 -11 11 0 7 10 5 25 -5 33 -22 56 -20 62 4 5 20 15 24 42 20 10 -1 12 5
8 22 -5 20 -2 25 26 34 18 5 31 14 30 19 -4 17 -44 18 -62 1 -10 -10 -21 -12
-31 -6 -9 6 -29 0 -57 -16 -24 -13 -46 -24 -48 -24 -12 0 -3 21 17 40 34 31
11 42 -47 22 -62 -22 -77 -31 -69 -43 3 -5 10 -7 15 -3 17 10 74 -49 71 -73
-4 -27 -5 -27 -42 -8 -15 8 -34 28 -41 44 l-14 30 -22 -21 c-29 -27 -29 -38 0
-38 25 0 47 -17 47 -37 0 -8 -13 -13 -35 -13 -19 0 -35 -5 -35 -11 0 -6 -5 -9
-12 -7 -13 5 -21 104 -12 151 6 27 9 28 40 22 28 -5 34 -3 34 12 0 10 -5 25
-10 33 -8 12 -13 13 -29 3 -10 -6 -22 -9 -25 -6 -9 9 -7 71 2 77 5 3 28 -2 52
-10 40 -14 48 -14 77 0 21 10 31 21 27 30 -3 8 2 25 11 39 15 24 15 24 -10 20
-15 -3 -25 -1 -25 6 0 6 -11 11 -25 11 -18 0 -28 -7 -35 -25z"/>
<path d="M3252 6435 c-10 -22 -17 -25 -56 -23 -27 1 -47 7 -50 15 -7 18 -46
17 -46 -2 0 -17 67 -48 83 -38 7 4 8 -5 4 -25 -6 -28 -4 -32 14 -32 12 0 33
-7 49 -16 28 -17 60 -14 60 6 0 6 -11 22 -25 36 -14 14 -25 27 -25 29 0 2 23
7 50 11 28 4 50 10 50 14 0 11 -22 26 -45 32 -11 3 -27 9 -36 12 -10 5 -19 -1
-27 -19z"/>
<path d="M8127 6301 c-16 -9 -45 -32 -64 -51 -33 -32 -35 -37 -24 -64 17 -47
1 -51 -81 -21 -104 39 -125 41 -151 17 -12 -11 -31 -22 -42 -24 -38 -7 -28
-34 17 -48 24 -7 50 -14 58 -14 9 -1 14 -9 13 -23 -4 -32 30 -39 66 -12 19 14
38 20 55 17 15 -3 29 -1 32 3 3 5 17 9 32 9 21 0 30 7 39 29 7 19 19 31 34 33
12 1 24 9 27 17 3 10 -2 13 -22 9 -21 -4 -26 -1 -26 15 0 15 5 18 23 13 55
-16 89 -18 132 -5 74 22 56 51 -34 53 -44 1 -46 2 -43 28 4 34 -6 39 -41 19z"/>
<path d="M2960 6265 c14 -7 25 -21 25 -31 0 -12 13 -20 45 -28 39 -10 45 -14
42 -34 -3 -21 0 -23 19 -17 12 4 35 8 51 9 29 2 87 50 75 62 -15 15 -109 23
-129 11 -17 -10 -22 -8 -42 16 -18 22 -30 27 -66 27 -44 -1 -44 -1 -20 -15z"/>
<path d="M6335 6232 c-16 -9 -31 -24 -33 -32 -5 -21 -22 -40 -37 -40 -12 0
-45 -31 -45 -43 0 -4 11 -7 25 -7 14 0 25 -4 25 -10 0 -14 -33 -13 -48 2 -9 9
-15 9 -23 1 -17 -17 0 -35 27 -29 20 5 24 3 24 -18 0 -15 -7 -25 -19 -29 -10
-2 -24 -14 -30 -26 -10 -18 -7 -23 29 -41 22 -11 40 -25 40 -31 0 -20 -57 -59
-87 -59 -9 0 -27 -9 -39 -21 -29 -27 -47 -16 -39 22 9 42 -1 52 -35 34 -37
-19 -76 -19 -84 0 -9 23 -25 18 -39 -12 -6 -16 -17 -32 -24 -36 -8 -5 -11 -12
-8 -18 10 -14 42 -11 49 6 8 21 30 19 51 -5 17 -19 17 -21 2 -38 -26 -29 -20
-35 28 -29 38 4 47 1 56 -15 8 -16 8 -23 -2 -29 -12 -8 -12 -10 0 -18 19 -12
50 -2 62 20 8 16 14 17 31 8 11 -6 31 -9 44 -6 13 2 25 0 26 -5 4 -12 58 15
58 30 0 6 -4 12 -10 12 -5 0 -10 11 -10 25 0 22 4 25 33 25 18 0 38 5 45 12 6
6 14 9 18 5 10 -9 -6 -27 -34 -39 -22 -9 -24 -12 -9 -15 10 -3 29 2 42 11 34
22 61 20 79 -6 25 -35 21 -50 -10 -36 -16 8 -28 8 -32 2 -4 -6 -22 -20 -40
-33 -36 -25 -34 -41 5 -41 15 0 35 -8 46 -17 11 -10 17 -12 13 -5 -5 9 3 12
31 12 37 0 37 0 18 -19 -28 -28 -115 -42 -149 -24 -14 7 -26 20 -26 28 0 22
-14 25 -44 9 -34 -17 -73 -18 -78 -2 -6 16 -38 2 -38 -17 0 -8 9 -15 21 -15
43 0 59 -18 59 -65 0 -49 -3 -51 -61 -34 -47 15 -69 1 -69 -43 0 -29 -2 -30
-31 -24 -17 3 -39 1 -50 -4 -22 -12 -26 -40 -5 -40 9 0 12 -7 9 -20 -5 -19 -7
-19 -22 -6 -11 10 -31 13 -61 11 -25 -2 -53 -4 -63 -4 -11 -1 -32 -15 -48 -32
-16 -17 -29 -27 -29 -21 0 17 -30 22 -52 9 -24 -13 -57 -48 -58 -60 0 -16 32
-19 49 -3 25 23 41 20 41 -9 0 -14 3 -25 6 -25 18 0 85 46 90 62 3 10 10 18
15 18 6 0 5 -9 -2 -21 -6 -12 -8 -34 -5 -50 4 -21 0 -32 -16 -43 -11 -8 -26
-25 -33 -38 -6 -13 -16 -22 -22 -21 -6 1 -19 -7 -28 -17 -10 -11 -27 -20 -38
-20 -10 0 -31 -13 -45 -28 -15 -16 -37 -34 -49 -41 -13 -6 -23 -16 -23 -22 0
-6 5 -7 12 -3 6 4 17 -1 24 -10 10 -14 17 -15 33 -7 11 6 36 11 56 11 32 0 36
-3 33 -22 -3 -20 3 -24 37 -28 22 -3 48 -11 58 -16 24 -14 60 -7 85 16 12 11
41 20 78 23 32 3 73 8 91 12 25 6 33 3 42 -13 13 -24 -2 -39 -72 -77 -58 -30
-67 -31 -67 -5 0 40 -49 11 -79 -47 -20 -39 -34 -27 -29 22 5 42 -3 58 -17 35
-3 -5 -17 -10 -31 -10 -16 0 -28 -8 -36 -25 -8 -17 -17 -24 -28 -20 -21 7 -58
-31 -43 -46 15 -15 85 -12 238 10 77 11 203 27 280 35 125 14 186 25 332 57
23 5 61 9 85 9 51 1 101 23 74 33 -15 6 -41 53 -38 69 3 13 -38 29 -57 23 -10
-3 -24 1 -31 10 -7 8 -19 15 -26 15 -9 0 -14 11 -14 28 0 15 -7 35 -14 45 -12
15 -18 16 -40 6 -20 -10 -29 -10 -38 -1 -7 7 -21 12 -32 12 -13 0 -28 12 -38
30 -18 31 -43 40 -51 18 -2 -7 7 -25 21 -40 14 -15 22 -31 18 -35 -4 -5 -16 2
-26 15 -10 12 -28 22 -40 22 -12 0 -31 11 -42 26 -27 34 -30 27 -12 -25 13
-39 13 -47 -1 -76 -20 -43 -46 -53 -64 -26 -15 23 -37 28 -44 9 -3 -10 -11
-10 -36 -1 -27 10 -33 9 -38 -3 -3 -8 -16 -14 -29 -14 -13 0 -24 -4 -24 -8 0
-5 -6 -17 -14 -28 -14 -18 -15 -18 -25 9 -6 15 -16 26 -23 25 -10 -2 -12 12
-11 52 3 64 19 110 40 110 7 0 36 12 64 26 35 17 49 30 45 40 -3 8 1 14 10 14
8 0 17 7 20 15 4 8 13 15 21 15 8 0 12 -4 9 -9 -9 -13 3 -39 20 -45 10 -4 18
4 26 24 5 17 16 30 23 30 7 0 18 7 25 15 17 21 58 19 105 -5 22 -11 48 -20 58
-20 10 0 30 -9 44 -20 14 -11 32 -20 39 -20 7 0 11 -6 8 -13 -7 -20 15 -34 64
-42 39 -6 44 -5 49 14 6 25 18 27 27 6 3 -8 17 -15 31 -15 14 0 34 -5 45 -12
27 -17 36 -3 17 26 -29 43 -86 80 -120 78 -27 -2 -40 7 -93 63 -35 36 -67 65
-74 65 -6 0 -24 14 -40 32 -16 17 -33 29 -37 25 -3 -4 -1 -13 5 -19 17 -17 15
-28 -7 -28 -10 0 -24 -7 -31 -15 -14 -17 -34 -9 -26 11 3 8 -6 20 -24 29 -38
20 -60 19 -76 -2 -18 -25 -27 -11 -17 28 8 31 12 33 56 34 38 2 50 -1 58 -16
12 -23 45 -25 53 -4 7 18 48 19 99 1 36 -13 37 -13 37 10 0 20 5 24 31 24 17
0 39 -5 51 -11 29 -16 33 -4 8 28 -20 26 -21 28 -3 41 12 9 35 12 66 9 46 -4
47 -3 47 24 0 24 4 28 32 31 17 2 33 8 35 15 5 15 -56 28 -70 14 -6 -6 -20
-11 -32 -11 -11 0 -31 -8 -44 -17 -23 -16 -25 -15 -45 10 -26 32 -32 33 -39 6
-5 -19 -7 -20 -36 -5 -16 9 -37 16 -45 16 -11 0 -18 13 -22 39 -5 32 -12 42
-35 50 -18 6 -29 17 -29 29 0 15 6 18 30 14 17 -2 33 -8 36 -13 3 -5 14 -9 25
-9 16 0 18 3 9 19 -16 32 -12 41 20 41 37 0 41 27 5 36 -16 4 -25 13 -25 25 0
20 -8 25 -50 33 -51 9 -85 19 -99 30 -8 6 -32 20 -54 31 -60 31 -67 48 -34 83
16 17 25 35 22 44 -4 9 1 18 10 22 13 5 15 1 10 -14 -5 -16 -2 -20 17 -19 13
0 32 4 43 8 19 8 18 9 -7 21 -16 8 -28 21 -28 32 0 22 -16 22 -55 0z m188
-288 c21 -43 16 -52 -18 -36 -20 9 -26 8 -34 -6 -8 -14 -12 -15 -22 -4 -15 14
-67 16 -87 3 -8 -4 -12 -16 -10 -26 2 -9 -5 -22 -14 -29 -14 -8 -22 -6 -39 11
-24 23 -18 43 12 43 29 0 23 18 -7 22 l-26 3 20 25 c19 24 22 24 54 11 41 -17
84 -16 112 3 31 22 39 19 59 -20z"/>
<path d="M8466 6213 c-4 -5 -26 -13 -49 -19 -31 -8 -41 -15 -39 -27 2 -12 -4
-17 -22 -17 -13 0 -26 -6 -29 -12 -3 -10 -9 -10 -30 1 -32 17 -77 2 -92 -32
-7 -16 -17 -21 -36 -19 -22 2 -61 -23 -48 -31 2 -1 13 -7 24 -13 26 -15 26
-38 -1 -42 -13 -2 -33 9 -52 28 l-31 30 -15 -21 c-9 -14 -22 -20 -34 -17 -12
3 -23 -2 -31 -13 -6 -11 -18 -19 -26 -19 -8 0 -27 -18 -41 -40 -29 -44 -52
-50 -78 -21 -17 18 -18 18 -69 0 -28 -10 -60 -28 -71 -38 -19 -19 -18 -20 20
-30 21 -6 62 -12 89 -14 28 -1 60 -8 72 -15 15 -9 29 -9 52 -1 32 11 101 4
101 -10 0 -5 -10 -6 -22 -4 -39 7 -71 -11 -74 -41 -6 -53 -56 -87 -69 -46 -5
16 -15 20 -46 20 -42 0 -60 -19 -41 -43 12 -15 20 -97 10 -97 -5 0 -8 3 -8 8
0 15 -52 31 -75 22 -31 -12 -38 -25 -30 -61 5 -23 16 -34 46 -46 21 -8 39 -19
39 -23 0 -4 33 -27 73 -51 39 -24 85 -57 101 -73 28 -30 28 -30 45 -11 29 34
55 43 134 46 59 3 79 0 94 -13 22 -20 108 -58 131 -58 43 0 116 -36 134 -67
20 -33 68 -71 68 -53 0 5 8 10 18 10 11 0 27 9 37 20 15 17 20 18 44 6 14 -7
31 -11 38 -9 6 2 14 -1 18 -6 11 -19 33 -12 39 14 7 29 39 33 70 10 11 -8 31
-15 45 -15 l24 0 -24 26 c-29 32 -70 54 -101 55 -13 0 -17 3 -10 6 6 2 12 11
12 19 0 16 -31 18 -77 5 -22 -7 -33 -6 -37 2 -3 9 -7 9 -14 -1 -7 -10 -15 -10
-37 -2 -33 13 -55 7 -55 -15 0 -20 -6 -19 -44 10 -24 18 -45 25 -79 25 -52 0
-68 14 -41 35 42 31 71 35 100 13 20 -17 30 -19 44 -11 10 7 22 8 31 2 22 -14
29 -11 29 11 0 13 -10 24 -26 31 -15 5 -40 21 -56 34 -16 14 -37 25 -46 25 -9
0 -26 12 -38 28 l-22 27 -22 -23 c-26 -28 -35 -21 -44 34 -5 36 -3 42 14 47
11 3 36 1 55 -3 30 -7 38 -5 48 10 8 14 18 17 40 13 26 -5 28 -3 25 18 -3 22
0 24 32 21 19 -1 45 -5 58 -8 21 -4 23 -1 22 23 -5 68 -2 76 28 71 15 -3 33
-7 41 -9 9 -2 17 6 21 21 4 18 14 26 33 28 38 5 28 28 -9 24 -16 -1 -72 -4
-124 -6 -80 -4 -96 -7 -98 -21 -3 -15 -12 -17 -58 -11 -34 4 -54 2 -54 -4 0
-6 -28 -10 -65 -10 -51 0 -65 -3 -65 -15 0 -22 37 -55 62 -55 21 0 21 -1 6
-17 -18 -17 -59 -20 -114 -8 -26 6 -32 4 -37 -14 -4 -17 -13 -22 -39 -21 -18
0 -46 -1 -63 -3 -25 -2 -31 2 -33 22 -2 13 6 36 17 52 12 15 21 35 21 44 0 8
3 15 8 15 51 1 186 21 202 30 18 10 21 17 15 51 -6 35 -4 40 19 49 14 5 26 14
26 20 0 5 6 10 14 10 8 0 17 4 21 10 8 12 -47 40 -80 40 -14 0 -25 5 -25 10 0
6 7 10 15 10 8 0 15 9 15 20 0 15 7 20 25 20 13 0 34 4 47 9 13 5 31 12 42 15
18 6 18 8 2 25 -16 18 -15 21 31 60 28 24 41 41 32 41 -9 0 -19 -3 -23 -7z"/>
<path d="M2212 6190 c-7 -11 -12 -31 -12 -45 0 -16 -6 -25 -15 -25 -21 0 -19
-10 8 -38 22 -23 22 -24 3 -38 -17 -12 -22 -12 -38 3 -10 9 -18 12 -18 6 0 -5
11 -16 25 -23 17 -9 27 -25 31 -49 9 -57 12 -61 42 -61 33 0 66 25 76 58 7 21
5 22 -21 16 -15 -4 -34 -11 -41 -17 -20 -16 -26 0 -9 26 14 22 14 26 0 40 -17
17 -10 37 13 37 19 0 18 16 -1 24 -10 3 -15 19 -15 43 0 51 -12 68 -28 43z"/>
<path d="M10497 6044 c-4 -4 -7 -15 -7 -25 0 -25 -12 -30 -46 -20 -23 6 -34 4
-51 -11 -20 -18 -23 -19 -46 -4 -27 18 -42 9 -49 -29 -2 -15 -12 -21 -38 -23
-63 -5 -80 -11 -80 -32 0 -27 -15 -25 -39 6 -17 21 -23 24 -40 14 -12 -6 -21
-15 -21 -20 0 -5 -10 -12 -22 -16 -36 -11 -63 -54 -34 -54 9 0 14 -14 14 -44
l1 -45 -33 6 c-28 4 -34 2 -39 -16 -3 -14 -13 -21 -29 -21 -34 0 -97 -50 -98
-76 0 -11 -9 -29 -20 -39 -19 -18 -20 -17 -20 5 0 13 7 32 16 41 14 16 15 23
4 51 -7 18 -16 37 -20 41 -11 13 -40 -4 -40 -24 0 -10 -7 -19 -15 -19 -8 0
-28 -18 -43 -40 -31 -45 -42 -48 -60 -19 -10 16 -17 18 -25 10 -6 -6 -20 -11
-30 -11 -21 0 -49 -27 -80 -73 -16 -24 -16 -28 -2 -33 8 -4 22 0 31 7 8 7 44
14 79 15 59 2 67 5 100 38 20 20 40 36 45 36 17 0 19 -17 5 -36 -8 -10 -15
-30 -15 -43 0 -29 -41 -79 -59 -73 -16 5 -31 -15 -31 -42 0 -11 -7 -28 -17
-38 -15 -17 -15 -18 4 -18 12 0 56 6 99 14 44 8 96 13 117 13 21 -1 41 3 45 9
14 18 85 45 95 35 12 -12 1 -31 -19 -31 -19 0 -18 -16 2 -24 42 -16 54 -8 54
38 0 57 29 93 113 139 93 51 118 54 183 22 48 -24 58 -25 70 -13 18 17 65 146
62 166 -2 8 6 16 16 18 10 1 25 9 33 17 12 12 12 15 0 26 -12 9 -18 9 -30 -3
-8 -8 -17 -12 -21 -9 -13 13 -5 36 19 55 32 25 28 41 -11 48 -23 4 -30 11 -32
33 -5 38 9 34 53 -14 l37 -41 19 21 c25 27 24 36 -8 59 -34 25 -27 34 27 37
38 2 70 18 70 35 0 4 -17 10 -37 13 -21 3 -52 9 -68 12 -17 4 -33 3 -38 -1z"/>
<path d="M9832 5973 c-13 -7 -31 -13 -39 -13 -24 0 -84 -41 -80 -54 2 -6 12
-11 23 -11 10 0 25 -4 32 -8 7 -5 27 -5 45 -2 l32 7 -34 -36 c-19 -20 -32 -39
-28 -42 4 -4 26 -1 49 6 24 7 48 14 54 14 20 2 46 37 65 89 10 28 19 55 19 60
0 12 -110 4 -138 -10z"/>
<path d="M4515 5845 c-22 -8 -41 -15 -42 -15 -2 0 -3 -4 -3 -10 0 -5 9 -10 20
-10 19 0 38 -25 28 -35 -2 -3 -19 -8 -37 -11 -27 -6 -33 -4 -38 15 -3 11 -8
21 -12 21 -11 0 -30 -60 -25 -75 4 -8 -9 -20 -33 -31 -36 -17 -93 -68 -93 -83
0 -7 16 -11 53 -12 10 0 33 11 52 25 37 29 45 26 45 -20 0 -41 -7 -45 -83 -49
-115 -5 -192 -23 -175 -40 9 -9 73 -18 121 -17 25 0 37 -4 34 -11 -3 -7 -10
-11 -16 -9 -20 4 -109 -39 -116 -56 -8 -20 3 -28 45 -35 32 -4 38 -1 64 33 16
21 36 38 45 38 9 0 29 3 44 7 28 7 28 7 25 -31 -2 -27 -8 -39 -18 -39 -16 0
-80 -32 -80 -41 0 -8 122 -60 158 -67 24 -5 34 -3 38 8 9 22 73 19 109 -5 17
-11 37 -20 46 -20 9 0 28 -9 42 -20 20 -16 26 -17 30 -5 5 11 13 12 38 5 18
-5 35 -8 37 -5 8 8 -29 44 -52 51 -35 10 -151 68 -155 77 -1 4 -37 24 -78 43
-54 26 -73 39 -71 52 5 26 34 26 104 -2 35 -14 70 -26 78 -26 15 0 29 63 15
68 -17 7 -9 19 26 38 19 10 35 22 35 26 0 5 -27 8 -60 8 -49 0 -61 3 -70 20
-9 17 -17 20 -46 14 -43 -8 -74 16 -74 57 0 15 -4 31 -10 34 -5 3 -10 11 -10
17 0 6 8 4 18 -5 28 -26 98 -23 113 4 11 21 0 38 -23 39 -19 0 -5 30 20 46 16
9 34 25 40 35 11 17 9 19 -25 19 -21 -1 -56 -7 -78 -15z"/>
<path d="M2204 5789 c-3 -6 -17 -8 -33 -4 -14 4 -23 3 -19 -1 4 -4 3 -13 -3
-21 -9 -10 -7 -13 9 -13 24 0 35 -23 19 -39 -6 -6 -24 -11 -41 -11 -28 0 -28
1 -13 18 22 24 13 32 -39 32 -24 0 -45 4 -48 9 -3 5 -20 11 -38 14 -18 3 -40
7 -48 9 -8 2 -16 -1 -18 -7 -1 -5 7 -11 18 -13 12 -2 25 -14 30 -27 8 -21 14
-23 45 -18 41 7 46 -6 14 -38 -31 -31 -10 -49 59 -48 60 2 82 -14 82 -58 0
-27 2 -27 -43 -8 -44 18 -57 19 -57 3 0 -22 -52 -88 -86 -109 -43 -26 -43 -39
-1 -39 41 0 77 -10 77 -21 0 -4 -17 -13 -38 -18 -21 -6 -46 -17 -57 -25 -29
-22 -36 -19 -33 12 3 27 2 27 -50 25 -72 -3 -132 -40 -106 -66 3 -3 14 -1 24
5 13 9 25 8 47 -1 24 -10 29 -17 26 -36 -5 -23 -5 -23 84 -18 87 4 122 14 156
42 15 12 17 12 17 -2 0 -15 -32 -30 -122 -57 -21 -6 -38 -15 -38 -19 0 -4 -15
-15 -32 -25 -18 -10 -47 -34 -64 -54 -23 -25 -42 -36 -65 -38 -101 -10 -164
-29 -201 -62 -39 -34 -13 -39 85 -16 23 5 27 3 27 -16 0 -20 3 -22 36 -15 27
5 41 2 55 -11 18 -16 22 -16 54 -1 23 11 35 24 35 37 0 26 25 26 47 0 10 -11
23 -20 30 -20 7 0 13 -6 13 -12 0 -7 12 5 26 26 33 48 47 66 102 125 50 53 80
108 74 133 -2 12 5 21 21 27 13 5 27 20 30 32 8 30 5 32 -26 18 -20 -9 -30 -9
-40 -1 -10 9 -17 6 -31 -9 l-18 -21 -29 28 c-34 33 -36 45 -9 69 11 10 20 26
20 35 0 26 32 35 47 14 11 -15 17 -16 52 -4 34 11 42 10 62 -4 33 -23 46 -20
58 14 7 20 7 30 0 30 -6 0 -30 14 -54 30 -24 17 -48 30 -53 30 -15 0 -23 29
-16 56 l6 24 33 -20 c26 -16 38 -18 60 -10 14 5 37 10 50 10 14 0 29 9 35 21
18 33 53 69 67 69 7 0 13 5 13 10 0 6 -7 10 -15 10 -8 0 -15 -3 -15 -8 0 -14
-75 -34 -124 -33 -72 2 -101 19 -100 59 2 32 -9 42 -22 21z"/>
<path d="M5286 5772 c-35 -21 -44 -40 -22 -48 9 -3 16 -12 16 -19 0 -18 -96
-95 -119 -95 -12 0 -21 -4 -21 -10 0 -5 8 -10 18 -10 10 0 27 -7 39 -15 18
-13 22 -12 38 5 31 34 44 25 43 -27 -2 -60 -13 -76 -49 -68 -15 3 -30 1 -34
-4 -3 -6 -17 -11 -31 -11 -23 0 -34 -15 -15 -22 4 -1 11 -14 15 -28 3 -14 3
-20 0 -14 -7 17 -43 5 -55 -18 -7 -13 -18 -18 -29 -15 -19 5 -58 -28 -47 -39
3 -3 20 1 38 10 40 20 39 20 39 -4 0 -11 4 -20 9 -20 11 0 121 108 121 119 0
5 6 13 13 19 9 8 21 4 45 -14 35 -28 46 -62 13 -45 -22 12 -61 -19 -61 -48 0
-17 -98 -94 -116 -90 -20 3 -32 -2 -61 -28 -17 -16 -43 -38 -57 -50 -59 -52
-10 -53 55 -2 33 26 38 27 72 15 20 -7 39 -15 43 -18 10 -11 -35 -86 -56 -93
-28 -9 -25 -21 12 -39 42 -21 50 -20 78 9 31 33 43 32 38 -6 -6 -37 14 -53 82
-68 52 -12 59 -8 37 17 -10 10 -17 22 -17 27 0 4 -11 18 -25 31 -30 28 -32 44
-6 44 20 0 81 -56 81 -75 1 -21 40 -56 100 -90 34 -19 64 -35 66 -35 14 0 -2
27 -41 67 -33 33 -45 53 -45 75 0 21 -10 38 -36 62 -32 30 -35 36 -24 55 14
27 16 25 50 -41 27 -52 53 -78 66 -66 8 9 -37 86 -74 126 -29 31 -62 77 -62
87 0 13 39 3 55 -15 10 -11 22 -20 27 -20 15 0 8 27 -11 45 -11 9 -21 33 -23
54 -3 30 -7 37 -30 41 -35 7 -80 46 -76 67 5 26 22 25 62 -2 43 -29 46 -30 46
-11 0 7 -12 21 -26 31 -37 24 -74 57 -74 67 0 13 22 9 40 -7 10 -9 41 -18 71
-21 l54 -5 -24 20 c-13 12 -29 21 -36 21 -7 0 -24 10 -39 21 -19 15 -31 18
-38 11 -6 -6 -18 -8 -27 -5 -19 7 -71 60 -71 73 0 14 24 18 44 7 15 -7 22 -6
31 7 7 9 21 16 31 16 10 0 26 4 34 10 13 8 13 10 0 14 -8 3 -35 7 -60 8 -59 4
-67 31 -16 52 38 16 48 36 19 36 -10 0 -27 2 -38 5 -11 2 -33 -4 -49 -13z"/>
<path d="M9214 5744 c-17 -7 -34 -20 -38 -29 -3 -9 -14 -15 -23 -14 -34 3 -43
-1 -43 -19 0 -26 -31 -52 -62 -52 -33 0 -58 -9 -58 -21 0 -13 94 -11 107 2 6
6 16 8 22 5 17 -11 13 -26 -7 -26 -9 0 -33 -11 -52 -24 -20 -13 -44 -25 -54
-27 -27 -6 -32 -29 -7 -29 12 0 21 -6 21 -16 0 -10 6 -13 19 -9 23 7 34 -16
22 -48 -11 -28 -57 -61 -76 -53 -8 3 -17 0 -21 -6 -6 -10 8 -10 161 4 29 3 30
2 28 -38 -1 -37 1 -41 18 -37 11 3 22 9 25 14 2 5 18 6 34 2 16 -3 37 -2 47 2
17 6 17 7 -1 21 -19 13 -19 14 7 14 15 0 27 -4 27 -9 0 -14 37 -23 60 -16 28
9 25 21 -10 35 -56 23 -37 41 59 53 8 1 16 8 18 14 4 10 -14 21 -95 59 -8 4
12 34 24 34 26 0 14 17 -18 26 -38 11 -47 30 -19 39 30 9 26 31 -9 45 -31 13
-38 26 -18 32 6 2 9 12 5 21 -5 14 -9 15 -36 1 -49 -24 -70 2 -29 35 28 23 12
32 -28 15z"/>
<path d="M5980 5722 c0 -22 -39 -42 -80 -42 -16 0 -41 -11 -57 -24 -25 -22
-26 -25 -10 -31 9 -4 17 -12 17 -19 0 -7 14 -10 40 -8 46 5 49 -4 18 -43 l-22
-28 29 7 c16 4 48 20 70 35 23 15 53 31 67 34 13 4 37 16 52 28 36 29 20 47
-22 25 -17 -9 -33 -16 -34 -16 -9 0 -2 49 9 62 18 21 -2 38 -44 38 -25 0 -33
-4 -33 -18z"/>
<path d="M10290 5412 c0 -16 -3 -31 -6 -34 -9 -10 -66 10 -88 31 -24 23 -56
12 -56 -19 0 -24 -33 -35 -59 -18 -11 7 -24 8 -28 4 -4 -5 -2 -11 5 -13 39
-14 71 -57 92 -123 12 -39 26 -73 30 -75 5 -3 31 7 59 21 44 23 51 31 56 63 3
20 10 55 15 79 15 64 13 112 -5 112 -10 0 -15 -10 -15 -28z"/>
<path d="M7645 5386 c-52 -18 -174 -43 -279 -56 -44 -5 -99 -19 -123 -31 l-43
-21 -28 21 c-24 17 -32 18 -53 8 -13 -7 -32 -28 -43 -47 -13 -24 -34 -42 -67
-57 -47 -21 -69 -51 -30 -40 29 7 46 -7 28 -25 -8 -7 -21 -27 -30 -43 -8 -17
-25 -41 -36 -54 -22 -25 -27 -41 -13 -41 13 0 132 125 132 139 0 19 31 81 40
81 15 0 40 -31 40 -48 0 -9 -15 -24 -32 -32 -23 -12 -34 -27 -44 -58 -6 -23
-20 -54 -29 -68 l-16 -25 48 3 c41 3 48 6 51 26 4 25 42 32 42 7 0 -11 11 -15
38 -15 58 0 67 12 32 43 -16 15 -30 31 -30 37 0 14 88 9 101 -6 6 -8 22 -14
35 -14 13 0 24 -4 24 -10 0 -5 -11 -10 -24 -10 -13 0 -27 -7 -30 -16 -9 -25
-7 -114 3 -114 5 0 4 -13 -2 -30 -16 -43 1 -58 46 -42 31 11 117 17 117 8 0
-2 -13 -18 -29 -35 -27 -29 -61 -34 -61 -10 0 18 -42 9 -47 -10 -3 -11 -13
-21 -22 -24 -13 -3 -20 -18 -24 -53 -3 -27 -3 -52 0 -56 15 -25 130 26 125 54
-4 21 21 34 97 52 59 14 62 13 72 -6 8 -15 7 -24 -7 -39 -16 -17 -16 -19 -1
-19 9 0 45 11 79 25 49 20 72 36 103 76 22 28 55 67 73 87 17 20 32 39 32 43
0 14 47 56 78 70 18 7 32 21 32 30 0 24 17 34 85 54 62 18 125 43 125 50 0 1
-18 1 -39 -2 -37 -5 -39 -4 -46 26 -11 50 10 95 51 111 50 20 65 40 29 40 -17
0 -37 -11 -56 -31 -25 -27 -31 -29 -45 -18 -14 11 -19 9 -35 -11 -10 -14 -19
-31 -19 -37 0 -21 -20 -15 -52 17 -16 17 -33 30 -36 30 -4 0 -31 16 -61 35
-29 19 -55 35 -59 35 -3 0 -16 10 -29 22 -16 15 -38 22 -75 24 -29 2 -57 2
-63 0z"/>
<path d="M1914 4954 c-21 -14 -58 -36 -83 -48 -33 -15 -47 -28 -49 -45 -4 -29
-68 -91 -93 -91 -23 0 -49 -10 -49 -20 0 -4 -16 -24 -35 -44 -19 -21 -35 -44
-35 -52 0 -8 -4 -14 -10 -14 -5 0 -10 -11 -10 -25 0 -33 7 -32 44 12 27 30 36
35 59 29 15 -3 27 -13 27 -21 0 -9 10 -15 25 -15 39 0 142 118 245 283 49 79
35 99 -36 51z"/>
<path d="M5332 2020 c-16 -21 -22 -43 -22 -80 0 -43 5 -56 33 -86 26 -29 42
-37 80 -41 42 -5 50 -3 73 22 91 98 40 215 -94 215 -42 0 -51 -4 -70 -30z"/>
<path d="M4672 2014 c-12 -8 -22 -26 -22 -38 0 -13 -9 -35 -20 -49 -26 -33
-25 -45 5 -90 22 -31 32 -37 61 -37 82 0 134 51 134 131 0 74 -97 126 -158 83z"/>
<path d="M5005 1787 c-63 -37 -120 -141 -96 -179 6 -10 11 -24 11 -31 0 -24
59 -97 88 -109 15 -6 41 -10 57 -9 69 4 90 15 125 67 24 34 30 53 30 96 0 65
-27 128 -68 156 -34 24 -112 29 -147 9z m102 -53 c11 -14 -14 -84 -69 -192
-28 -54 -96 -1 -105 82 -8 65 23 111 87 128 34 8 72 0 87 -18z"/>
<path d="M4499 1429 c-14 -27 -11 -65 9 -88 12 -15 31 -21 68 -23 l51 -3 -8
-32 c-5 -26 -2 -39 14 -59 18 -23 26 -26 64 -21 82 9 95 46 36 102 -39 36 -52
42 -69 25 -5 -5 -19 -7 -31 -4 -17 5 -23 15 -25 47 -2 33 -8 43 -33 57 -39 22
-64 21 -76 -1z"/>
<path d="M5512 1428 c-6 -13 -14 -38 -17 -55 -6 -30 -10 -33 -44 -33 -49 0
-78 -22 -92 -71 -15 -47 -8 -57 44 -66 48 -7 87 31 87 88 l0 39 45 0 c39 0 46
4 60 30 20 38 19 53 -3 73 -27 25 -66 22 -80 -5z"/>
<path d="M4787 1218 c-17 -62 0 -96 60 -119 64 -24 103 76 47 120 -27 22 -84
26 -84 6 0 -5 -4 -4 -9 3 -6 10 -10 8 -14 -10z"/>
<path d="M5209 1216 c-70 -48 -40 -129 41 -112 57 11 109 105 69 126 -30 17
-73 11 -110 -14z"/>
<path d="M4993 1182 c-39 -20 -44 -56 -12 -96 16 -21 29 -26 62 -26 46 0 51 3
85 42 23 26 23 27 7 62 -16 34 -20 36 -64 35 -25 0 -61 -8 -78 -17z"/>
<path d="M5900 1110 c-14 -4 -74 -25 -135 -46 -96 -34 -120 -39 -185 -36 -72
2 -117 -5 -208 -34 -136 -44 -300 -58 -387 -34 -41 11 -101 10 -173 -6 -21 -4
-43 -2 -57 6 -19 10 -34 10 -67 2 -24 -6 -58 -14 -75 -17 -38 -7 -41 -15 -15
-38 22 -20 35 -21 78 -5 27 9 37 8 70 -9 59 -30 53 -55 -16 -70 -30 -7 -73
-17 -95 -22 -31 -8 -45 -6 -62 5 -25 16 -148 15 -174 -2 -7 -5 -32 -13 -54
-19 -46 -11 -72 -53 -77 -119 -2 -32 -8 -42 -39 -62 -42 -26 -59 -78 -37 -114
19 -29 30 -20 46 37 12 44 19 52 55 68 25 11 42 14 44 8 3 -7 19 -5 46 4 38
13 42 13 54 -4 8 -9 12 -22 9 -28 -2 -7 -7 -41 -11 -78 l-7 -67 -34 6 c-29 4
-34 2 -34 -15 0 -17 -5 -20 -28 -15 -22 4 -35 -1 -59 -23 -17 -16 -36 -27 -42
-25 -6 2 -11 24 -11 48 0 24 -4 44 -10 44 -5 0 -10 -4 -10 -10 0 -5 -27 -39
-60 -77 -64 -72 -77 -111 -39 -120 15 -4 19 -12 17 -31 -2 -14 3 -27 10 -29 6
-3 12 0 12 6 0 20 25 11 35 -12 9 -19 17 -22 68 -21 58 1 60 -1 58 -41 0 -12
2 -15 5 -7 11 25 35 -38 28 -74 l-6 -34 86 0 86 0 1 33 c0 17 6 48 14 67 10
28 14 32 20 18 9 -22 30 -24 21 -3 -3 8 -1 15 4 15 6 0 10 7 10 15 0 17 16 20
25 5 4 -6 22 -9 40 -6 32 5 33 4 33 -27 0 -17 0 -51 1 -74 l1 -43 280 0 c154
0 280 3 280 8 0 31 -89 132 -117 132 -10 0 -13 6 -9 16 4 11 -1 22 -14 31 -25
17 -27 45 -3 36 12 -5 15 -2 11 8 -12 32 49 69 112 69 15 0 34 8 44 18 17 19
86 29 86 12 0 -18 69 -23 95 -6 13 9 30 13 38 11 7 -3 30 1 50 10 20 8 62 16
93 16 41 1 62 7 75 20 11 11 25 19 33 19 8 0 17 8 20 17 6 15 8 15 16 3 8 -12
10 -12 15 2 8 19 55 38 96 38 15 0 40 5 56 12 15 6 31 12 35 12 3 1 10 4 14 9
4 4 16 7 26 7 10 0 21 7 24 15 4 8 12 15 19 15 24 0 39 29 27 53 -7 12 -11 54
-10 93 1 54 -3 79 -16 99 l-18 28 26 -19 c15 -11 29 -32 33 -47 5 -25 8 -27
21 -14 26 27 7 78 -53 145 -54 59 -55 61 -55 120 0 34 -4 64 -10 67 -5 3 -10
14 -10 24 0 10 -8 21 -17 25 -10 3 -22 8 -28 10 -5 2 -21 0 -35 -4z m-75 -147
c0 -13 9 -29 19 -36 19 -14 19 -15 -2 -48 -26 -42 -57 -69 -80 -69 -14 0 -15
-2 -2 -10 13 -9 13 -10 0 -10 -8 0 -25 -3 -37 -6 -18 -5 -23 -2 -23 14 0 11
-5 22 -11 24 -12 4 9 58 23 58 16 0 8 24 -17 51 l-26 26 43 11 c99 26 113 25
113 -5z m-1123 -358 c9 -20 14 -22 29 -14 11 5 19 6 19 2 0 -23 -24 -88 -36
-100 -8 -8 -14 -20 -14 -27 0 -7 -7 -28 -17 -46 -14 -29 -17 -31 -28 -17 -13
19 -50 23 -60 7 -8 -14 -45 -13 -45 1 0 6 -9 9 -19 6 -22 -5 -36 17 -24 36 5
7 13 34 18 62 7 35 17 53 33 61 12 6 31 19 42 29 10 9 25 15 33 12 8 -3 20 -1
28 4 22 14 29 11 41 -16z m639 -58 c-16 -16 -13 -35 9 -57 35 -35 -4 -57 -42
-24 -14 14 -20 14 -33 4 -8 -7 -15 -19 -15 -26 0 -8 -8 -14 -17 -14 -10 0 -27
-3 -38 -6 -16 -4 -22 2 -31 30 -6 20 -9 38 -6 41 9 9 11 75 1 80 -24 15 -3 24
64 27 65 3 74 1 95 -21 17 -17 20 -27 13 -34z"/>
<path d="M4060 1015 c-31 -33 -36 -88 -10 -137 29 -56 26 -75 -17 -97 -93 -47
-108 -87 -62 -156 l32 -48 20 39 c26 53 61 88 107 109 l38 17 -23 46 c-19 37
-21 50 -12 76 15 45 25 55 68 66 36 10 38 12 24 26 -27 27 -114 84 -128 84 -7
0 -24 -11 -37 -25z"/>
<path d="M9524 578 c-5 -7 -10 -24 -11 -38 -9 -74 -22 -88 -41 -45 -6 14 -16
25 -21 25 -10 0 -34 -36 -37 -55 0 -5 -2 -16 -2 -22 -1 -7 -13 -13 -26 -13
-17 0 -31 -10 -45 -34 -25 -40 -26 -46 -6 -46 9 0 15 9 15 21 0 21 9 22 51 5
12 -5 20 3 32 34 19 48 36 50 72 8 26 -31 28 -31 41 -13 19 26 19 158 0 174
-11 9 -16 9 -22 -1z"/>
<path d="M925 209 c-11 -7 -26 -19 -33 -26 -15 -15 -32 -17 -32 -4 0 12 -49
20 -56 10 -3 -5 -16 -9 -29 -9 -13 0 -43 -10 -67 -21 -85 -42 -61 -40 -340
-37 -97 1 -98 1 -128 -30 -22 -24 -39 -32 -64 -32 -19 0 -36 4 -38 9 -1 4 -33
12 -70 15 l-68 8 0 -46 0 -46 190 0 c163 0 190 2 190 15 0 13 17 15 98 14 53
0 140 5 192 11 110 13 314 16 348 6 17 -6 22 -13 19 -27 -5 -18 3 -19 167 -19
164 0 236 9 236 31 0 5 7 9 15 9 8 0 24 4 35 10 11 5 29 15 41 21 13 7 48 8
95 4 l74 -7 0 26 c0 21 5 26 25 26 14 0 25 6 25 13 0 22 -9 25 -46 17 -18 -4
-34 -5 -34 -1 0 11 -84 7 -92 -4 -5 -6 -11 -5 -17 4 -6 9 -15 11 -27 6 -11 -5
-28 -9 -39 -10 -11 -1 -28 -6 -37 -10 -11 -4 -18 -3 -18 4 0 6 -19 11 -45 11
-25 0 -45 -4 -45 -10 0 -5 -9 -10 -20 -10 -11 0 -20 5 -20 10 0 7 -23 8 -65 4
-46 -5 -65 -3 -65 5 0 6 -13 11 -30 11 -23 0 -30 5 -30 19 0 27 -6 29 -96 36
-54 4 -85 2 -99 -6z"/>
</g>
</svg>
